<svg xmlns="http://www.w3.org/2000/svg" viewBox="0 0 50 50"><path fill="#ffe8b6" d="M34.676 13.2c-2.127.615-4.155 1.538-6.284 2.149-4.169 1.195-8.578 1.153-12.877 1.72-4.3.566-8.77 1.905-11.63 5.165C.17 26.471.208 33.174 3.054 38.038s7.997 8.033 13.395 9.652c4.462 1.34 9.248 1.739 13.81.79 4.56-.948 8.878-3.293 11.89-6.846 2.105-2.483 3.527-5.47 4.705-8.505 1.504-3.873 2.66-8.065 1.912-12.151-1.295-7.078-7.635-9.645-14.09-7.778z"/><circle cx="4.242" cy="16.259" r=".96" fill="#ff5892"/><path fill="#06d506" d="M45.313 9.476a.96.96 0 1 1 1.918 0 .96.96 0 0 1-1.918 0"/><circle cx="30.898" cy="4.031" r=".96" fill="#ff5f4a"/><path fill="#fdcb4d" d="M34.644 19.12c0 5.967-4.83 10.806-10.806 10.806-5.967 0-10.797-4.839-10.797-10.806s4.83-10.806 10.797-10.806c5.976 0 10.806 4.839 10.806 10.806zM8.836 38.823v8.116c0 1.138.922 2.061 2.06 2.061h25.892a2.061 2.061 0 0 0 2.061-2.061v-8.116H8.836z"/><path fill="#fff" d="M25.677 43.911a1.835 1.835 0 1 1-3.67 0c0-1.01.82-1.84 1.84-1.84 1.01 0 1.83.83 1.83 1.84z"/><path fill="#deb8c5" d="m26.043 14.693-4.401 9.025"/><path fill="#fdcb4d" d="M27.442 1v1.97a.91.91 0 0 1-.91.91h-5.38a.91.91 0 0 1-.91-.91V1h7.2z"/><path fill="#2e3f68" d="M23.643 30.676c6.372 0 11.556-5.184 11.556-11.556 0-6.372-5.184-11.556-11.556-11.556-6.367 0-11.547 5.184-11.547 11.556 0 6.372 5.18 11.556 11.547 11.556zm0-21.612c5.545 0 10.056 4.51 10.056 10.056s-4.51 10.056-10.056 10.056c-5.54 0-10.047-4.511-10.047-10.056S18.103 9.064 23.643 9.064z"/><path fill="#2e3f68" d="M36.593.5h-25.89c-1.41 0-2.56 1.15-2.56 2.56v43.88c0 1.06.64 1.97 1.56 2.36.31.13.65.2 1 .2h25.89c.35 0 .69-.07 1-.2a2.56 2.56 0 0 0 1.56-2.36V3.06c0-1.41-1.15-2.56-2.56-2.56zm-16.04 1h6.19v1.47c0 .23-.18.41-.4.41h-5.39c-.22 0-.4-.18-.4-.41V1.5zm17.6 45.44c0 .86-.7 1.56-1.56 1.56h-25.89c-.86 0-1.56-.7-1.56-1.56v-7.62h29.01v7.62zm0-8.62H9.143V3.06c0-.86.7-1.56 1.56-1.56h8.85v1.47c0 .78.63 1.41 1.4 1.41h5.39c.77 0 1.4-.63 1.4-1.41V1.5h8.85c.86 0 1.56.7 1.56 1.56v35.26z"/><path fill="#2e3f68" d="M23.653 41.321c-1.429 0-2.59 1.162-2.59 2.59s1.162 2.59 2.59 2.59c1.423 0 2.58-1.161 2.58-2.59s-1.157-2.59-2.58-2.59zm0 3.68a1.09 1.09 0 0 1 0-2.18c.595 0 1.08.49 1.08 1.09s-.485 1.09-1.08 1.09zm-2.534-20.609a.751.751 0 0 0 1.002-.345l4.402-9.026a.75.75 0 0 0-1.349-.657l-4.401 9.025a.75.75 0 0 0 .346 1.003zm5.041-4.99 1.563 1.56-1.559 1.559a.75.75 0 1 0 1.061 1.06l2.09-2.09a.75.75 0 0 0 0-1.06l-2.095-2.09a.75.75 0 1 0-1.06 1.062zm-6.09-.17a.748.748 0 0 0 1.06 0 .75.75 0 0 0 0-1.06l-1.558-1.56 1.563-1.56a.75.75 0 0 0-1.06-1.061l-2.094 2.09a.751.751 0 0 0 0 1.06l2.09 2.09z"/></svg>