<svg xmlns="http://www.w3.org/2000/svg" viewBox="0 0 48 48"><g data-name="Digital Marketing"><path fill="#dad7e5" d="M45 15v26H29l-1 2h-8l-1-2H3V15a2 2 0 0 1 2-2h38a2 2 0 0 1 2 2Z"/><path fill="#edebf2" d="M43 13H30.05a4 4 0 0 1-.42 5.15L32.46 21a2 2 0 1 1-2.83 2.83c-4.1.82-6.38 2.29-9.9 4.24l.71.71c-1.62 1.62-2.5 2.72-3.77 3.21a2.54 2.54 0 0 1-.44.15c-1.07 0 .5 1.86-5.82-7.17.42-.81.78-1.08 3-3.26l.71.71c2-3.55 3.3-5.64 4.13-9.4H6V41h13l1 2h8l1-2h16V15a2 2 0 0 0-2-2Zm-8 1h5a1 1 0 0 1 0 2h-5a1 1 0 0 1 0-2Z"/><rect width="38" height="24" x="5" y="15" fill="#9fdbf3" rx="1"/><path fill="#b2e5fb" d="M17.67 15c-.83 2.63-1.77 4.11-3.59 7.4l-.71-.71c-2.18 2.18-2.54 2.45-3 3.26A21.66 21.66 0 0 1 8 15zM43 16v21c-13.55 0-15 .25-18.72-.77l2.52-2.52C19.5 28 21 29.3 19.73 28.05c3.54-2 5.8-3.42 9.9-4.24A2 2 0 1 0 32.46 21l-2.83-2.83A4 4 0 0 0 30.78 15H34a1 1 0 0 0 1 1h5a1 1 0 0 0 1-1h1a1 1 0 0 1 1 1z"/><path fill="#c6c3d8" d="M47 41c0 1.94.13 2.83-.54 4A4 4 0 0 1 43 47H5a4 4 0 0 1-4-4v-2h18l1 2h8l1-2Z"/><path fill="#dad7e5" d="M47 41c0 1.94.13 2.83-.54 4H9a4 4 0 0 1-4-4h14l1 2h8l1-2Z"/><path fill="#db5669" d="M34 22.56a2 2 0 0 1-2.83 0L19.82 11.25a2 2 0 0 1 2.83-2.83L34 19.73a2 2 0 0 1 0 2.83Z"/><path fill="#f26674" d="M34.2 20a2 2 0 0 1-3.07.29C18.89 8.07 19.76 9 19.58 8.71a2 2 0 0 1 1.66-.87c1.09 0 1.3.47 4.23 3.41.06 0 8.62 8.62 8.73 8.75Z"/><path fill="#dad7e5" d="M31.13 22.56c-4.1.82-6.38 2.29-9.9 4.24l-5.65-5.65c2-3.61 3.42-5.83 4.24-9.9Z"/><path fill="#edebf2" d="M28.71 21.89c-3.29.88-5.11 2-8.48 3.91l-4.65-4.65c1.9-3.45 3-5.23 3.91-8.48Z"/><path fill="#db5669" d="M21.94 27.51c-2 2-2.88 3.22-4.9 3.52a5 5 0 0 1-4.29-8.47l2.12-2.12Z"/><path fill="#f26674" d="M20.44 26A5.68 5.68 0 0 1 17 28a5 5 0 0 1-5.52-3.43c.45-1.48 1.2-2 3.35-4.16Z"/><path fill="#dad7e5" d="m28.3 32.46-2.83 2.83L17 31c2.05-.29 3-1.62 4.9-3.52 6.01 4.67 4.91 3.81 6.4 4.98Z"/><path fill="#edebf2" d="M27.18 31.58a3.34 3.34 0 0 1-3.87.62l-4.09-2.07a22.9 22.9 0 0 0 2.72-2.62Z"/><path fill="#ffde76" d="m31.13 16.9-5.65-5.65a4 4 0 0 1 5.65 5.65zM35 9a1 1 0 0 1-.71-1.71l4-4a1 1 0 0 1 1.42 1.42C35.34 9.08 35.56 9 35 9zm-7-2V2a1 1 0 0 1 2 0v5a1 1 0 0 1-2 0zm8 6h5a1 1 0 0 1 0 2h-5a1 1 0 0 1 0-2z"/></g></svg>