<svg xmlns="http://www.w3.org/2000/svg" viewBox="0 0 132 132"><circle cx="66" cy="66" r="64" fill="#DDDCE0"/><path fill="#C9C8CE" d="M107.625 64.99c-.55 0-1 .45-1 1.01 0 .55.45 1.01 1 1.01h.18c.55 0 1.01-.46 1.01-1.01 0-.56-.46-1.01-1.01-1.01h-.18zM7.089 61.377c0 .56.45 1.01 1 1.01h2.26c.55 0 1-.45 1-1.01 0-.55-.45-1.01-1-1.01h-2.26c-.55 0-1 .46-1 1.01zm18.045 45.214c0 .55.45 1.01 1 1.01h.18c.55 0 1.01-.46 1.01-1.01s-.46-1.01-1.01-1.01h-.18c-.55 0-1 .46-1 1.01zm37.214 12.757c0-.56-.45-1.01-1-1.01h-2.26a1.005 1.005 0 0 0 0 2.01h2.26c.55 0 1-.45 1-1zm16.276-1.01H65.708c-.55 0-1.01.45-1.01 1.01 0 .55.46 1 1.01 1h12.916c.55 0 1.01-.45 1.01-1 0-.56-.46-1.01-1.01-1.01zM124.485 66c0-.56-.45-1.01-1.01-1.01h-11.31c-.55 0-1 .45-1 1.01 0 .55.45 1.01 1 1.01h11.31c.56 0 1.01-.46 1.01-1.01zM13.699 61.377c0 .56.46 1.01 1.01 1.01h5.97c.56 0 1.01-.45 1.01-1.01 0-.55-.45-1.01-1.01-1.01h-5.97c-.55 0-1.01.46-1.01 1.01zm11.52-1.01h-.17c-.56 0-1.01.46-1.01 1.01 0 .56.45 1.01 1.01 1.01h.17c.55 0 1.01-.45 1.01-1.01 0-.55-.46-1.01-1.01-1.01zm4.455 46.224c0 .55.45 1.01 1 1.01h11.31c.56 0 1.01-.46 1.01-1.01s-.45-1.01-1.01-1.01h-11.31c-.55 0-1 .46-1 1.01zm62.401 2.875c0-.56-.45-1.01-1-1.01h-1.15c-.56 0-1.01.45-1.01 1.01 0 .55.45 1.01 1.01 1.01h1.15c.55 0 1-.46 1-1.01zm1.47-81c-.55 0-1.01.46-1.01 1.01 0 .56.46 1.01 1.01 1.01h.17c.56 0 1.01-.45 1.01-1.01 0-.55-.45-1.01-1.01-1.01h-.17zm6.18 79.99h-4.29c-.55 0-1.01.45-1.01 1.01 0 .55.46 1.01 1.01 1.01h4.29c.56 0 1.01-.46 1.01-1.01 0-.56-.45-1.01-1.01-1.01zm-1.64-79.99c-.55 0-1.01.46-1.01 1.01 0 .56.46 1.01 1.01 1.01h5.03c.55 0 1.01-.45 1.01-1.01 0-.55-.46-1.01-1.01-1.01h-5.03zm5 81c0 .55.45 1.01 1.01 1.01h.17c.56 0 1.01-.46 1.01-1.01 0-.56-.45-1.01-1.01-1.01h-.17c-.56 0-1.01.45-1.01 1.01zM73.729 12.41c0-.56-.45-1.01-1-1.01h-1.15c-.56 0-1.01.45-1.01 1.01 0 .55.45 1.01 1.01 1.01h1.15c.55 0 1-.46 1-1.01zm7.65-1.01h-4.29c-.55 0-1.01.45-1.01 1.01 0 .55.46 1.01 1.01 1.01h4.29c.56 0 1.01-.46 1.01-1.01 0-.56-.45-1.01-1.01-1.01zm3.36 1.01c0 .55.45 1.01 1.01 1.01h.17c.56 0 1.01-.46 1.01-1.01 0-.56-.45-1.01-1.01-1.01h-.17c-.56 0-1.01.45-1.01 1.01zm22.886 97.056c0 .55.45 1.01 1.01 1.01h3.38c.64-.66 1.27-1.33 1.87-2.02h-5.25c-.56 0-1.01.45-1.01 1.01zm-.15-78.98h11.77c-.45-.69-.92-1.36-1.41-2.02h-10.36c-.55 0-1 .46-1 1.01 0 .56.45 1.01 1 1.01zM30.732 19.928c0 .55.45 1.01 1 1.01h.18c.55 0 1.01-.46 1.01-1.01s-.46-1.01-1.01-1.01h-.18c-.55 0-1 .46-1 1.01zm4.54 0c0 .55.45 1.01 1 1.01h11.31c.56 0 1.01-.46 1.01-1.01s-.45-1.01-1.01-1.01h-11.31c-.55 0-1 .46-1 1.01zm68.213 28.425c0-.55-.46-1.01-1.01-1.01h-4.29c-.55 0-1.01.46-1.01 1.01s.46 1.01 1.01 1.01h4.29c.55 0 1.01-.46 1.01-1.01zm5.51 0c0-.55-.45-1.01-1.01-1.01h-1.14c-.56 0-1.01.46-1.01 1.01s.45 1.01 1.01 1.01h1.14c.56 0 1.01-.46 1.01-1.01z"/><path fill="#C9C8CE" d="M67.826 108.072c-22.191 0-40.246-18.054-40.246-40.246 0-22.192 18.055-40.246 40.246-40.246s40.246 18.054 40.246 40.246c0 22.192-18.054 40.246-40.246 40.246zm0-72.492c-17.78 0-32.246 14.465-32.246 32.246 0 17.78 14.466 32.246 32.246 32.246s32.246-14.466 32.246-32.246S85.607 35.58 67.826 35.58z"/><circle cx="67.826" cy="67.826" r="17.408" fill="#C9C8CE"/><path fill="#4A749B" d="M66 106.246c-22.191 0-40.246-18.054-40.246-40.246 0-22.192 18.055-40.246 40.246-40.246S106.246 43.808 106.246 66c0 22.192-18.054 40.246-40.246 40.246zm0-72.492c-17.78 0-32.246 14.465-32.246 32.246 0 17.78 14.466 32.246 32.246 32.246S98.246 83.78 98.246 66 83.781 33.754 66 33.754z"/><path fill="#386384" d="M93.397 36.546c6.69 7.19 10.79 16.82 10.79 27.39 0 22.19-18.06 40.25-40.25 40.25-10.59 0-20.24-4.12-27.42-10.82 7.35 7.92 17.85 12.88 29.48 12.88 22.19 0 40.25-18.05 40.25-40.25 0-11.62-4.95-22.1-12.85-29.45z"/><circle cx="66" cy="66" r="17.408" fill="#F34B50"/><path fill="#FF6C77" d="M69.183 52.696a.746.746 0 0 1-.166-.019c-.985-.222-2-.335-3.017-.335a.75.75 0 0 1 0-1.5 15.2 15.2 0 0 1 3.347.372.75.75 0 0 1-.164 1.482zM51.592 66.75a.75.75 0 0 1-.75-.75c0-6.445 4.095-12.2 10.189-14.322a.75.75 0 0 1 .492 1.417A13.68 13.68 0 0 0 52.343 66a.75.75 0 0 1-.75.75zM55.507 76.614c-.2 0-.398-.08-.546-.236a15.218 15.218 0 0 1-3.55-6.26.75.75 0 0 1 1.443-.408 13.719 13.719 0 0 0 3.199 5.64.75.75 0 0 1-.546 1.264z"/><path fill="#E53946" d="M83.407 65.996c0 9.62-7.79 17.41-17.41 17.41-5.32 0-10.08-2.38-13.26-6.15 3.02 2.55 6.94 4.09 11.2 4.09 9.62 0 17.41-7.79 17.41-17.41 0-4.28-1.55-8.2-4.12-11.22 3.78 3.18 6.18 7.95 6.18 13.28z"/></svg>