<svg xmlns="http://www.w3.org/2000/svg" viewBox="0 0 64 64"><path fill="#fa90bc" d="M61.034,28.604l-25.247-14.58c-1.227-.707-2.691-.705-3.92,.004-1.227,.71-1.96,1.978-1.96,3.393v5.373L7.906,10.09c-1.443-.831-3.165-.83-4.607,.004-1.439,.832-2.299,2.322-2.299,3.984V49.922c0,1.662,.859,3.152,2.299,3.984,.722,.418,1.515,.626,2.307,.626s1.58-.208,2.301-.622l22-12.703v5.373c0,1.415,.733,2.683,1.96,3.393,.615,.355,1.289,.533,1.964,.533s1.344-.176,1.956-.529l25.246-14.58c1.231-.708,1.966-1.977,1.966-3.397,0-1.42-.736-2.691-1.966-3.396Z"/><path fill="#fcdeed" d="M6.939,52.231c-.835,.481-1.834,.482-2.671-.002-.833-.482-1.331-1.344-1.331-2.306V14.078c0-.963,.498-1.824,1.331-2.306,.419-.242,.878-.363,1.338-.363,.457,0,.915,.12,1.332,.36l23.448,13.539s.003,.003,.005,.004l7.583,4.378c.835,.484,1.334,1.348,1.334,2.31,0,.481-.125,.937-.353,1.334-.229,.397-.562,.734-.98,.976l-.509,.294-7.075,4.084s-.003,.003-.005,.004L6.939,52.231Z"/><path fill="#fcdeed" d="M60.067,33.718h-.003s-25.245,14.58-25.245,14.58c-.62,.356-1.361,.356-1.982-.003s-.992-1-.992-1.715v-6.492l6.137-3.543,.966-.558c1.439-.835,2.299-2.325,2.299-3.987s-.859-3.151-2.301-3.988l-7.101-4.1v-6.492c0-.715,.371-1.356,.992-1.715,.622-.36,1.362-.36,1.982-.003l25.248,14.58c.623,.358,.995,.999,.995,1.717s-.372,1.36-.995,1.718Z"/></svg>