<svg xmlns="http://www.w3.org/2000/svg" enable-background="new 0 0 64 64" viewBox="0 0 64 64"><path fill="#0A5078" d="M56,19v27H8V19c0-1.1,0.9-2,2-2h44C55.1,17,56,17.9,56,19z"/><path fill="#00325A" d="M53.82,46h-5.64l-7.81-7.8C38.04,39.95,35.14,41,32,41c-7.73,0-14-6.27-14-14c0-3.92,1.61-7.46,4.21-10
		h19.58c2.6,2.54,4.21,6.08,4.21,10c0,3.14-1.05,6.04-2.8,8.37L53.82,46z"/><path fill="#FAB400" d="M54,21v22c0,0.55-0.45,1-1,1H11c-0.55,0-1-0.45-1-1V21c0-0.55,0.45-1,1-1h42C53.55,20,54,20.45,54,21z"/><path fill="#00A0C8" d="M60,47c0,1.38-0.56,2.63-1.46,3.54C57.63,51.44,56.38,52,55,52H9c-2.76,0-5-2.24-5-5c0-0.55,0.45-1,1-1h54
		C59.55,46,60,46.45,60,47z"/><path fill="#0082AA" d="M55.41 50.41c-.78.79-2.04.79-2.82 0L48.18 46h5.64l1.59 1.59C56.2 48.37 56.2 49.63 55.41 50.41zM37 48H27c-.552 0-1-.448-1-1v-1h12v1C38 47.552 37.552 48 37 48z"/><path fill="#DC9600" d="M53,20c-17.768,0-21.619,0-42,0c-0.55,0-1,0.45-1,1v1c0-0.55,0.45-1,1-1h8.357
		C18.488,22.82,18,24.852,18,27c0,7.73,6.27,14,14,14c3.51,0,6.7-1.3,9.16-3.43l2.32,2.33c-0.38,0.39-0.38,1.02,0.01,1.41L46.18,44
		h5.64l-5.51-5.51c-0.39-0.39-1.02-0.39-1.41-0.01l-2.33-2.32C44.7,33.7,46,30.51,46,27c0-2.148-0.488-4.18-1.357-6H53
		c0.55,0,1,0.45,1,1v-1C54,20.45,53.55,20,53,20z"/><path fill="#00325A" d="M17 36h-4c-.552 0-1-.448-1-1l0 0c0-.552.448-1 1-1h4c.552 0 1 .448 1 1l0 0C18 35.552 17.552 36 17 36zM17 40h-4c-.552 0-1-.448-1-1l0 0c0-.552.448-1 1-1h4c.552 0 1 .448 1 1l0 0C18 39.552 17.552 40 17 40z"/><rect width="2.008" height="8.485" x="41.996" y="32.757" fill="#00325A" transform="rotate(-45.001 42.998 37)"/><path fill="#00143C" d="M43.03,35.61c-0.41,0.53-0.86,1.03-1.35,1.49l-2.39-2.39l1.42-1.42L43.03,35.61z"/><circle cx="32" cy="26" r="14" fill="#C8094F"/><circle cx="32" cy="26" r="12" fill="#F0F0F0"/><path fill="#D2D2D2" d="M35.536,22.257l-4.95,4.95l-2.121-2.121c-0.391-0.391-1.024-0.391-1.414,0L25.636,26.5
		c-0.391,0.391-0.391,1.024,0,1.414l3.536,3.536c0.781,0.781,2.047,0.781,2.828,0l6.364-6.364c0.391-0.391,0.391-1.024,0-1.414
		l-1.414-1.414C36.559,21.867,35.926,21.867,35.536,22.257z"/><path fill="#00325A" d="M35.536,21.257l-4.95,4.95l-2.121-2.121c-0.391-0.391-1.024-0.391-1.414,0L25.636,25.5
		c-0.391,0.391-0.391,1.024,0,1.414l3.536,3.536c0.781,0.781,2.047,0.781,2.828,0l6.364-6.364c0.391-0.391,0.391-1.024,0-1.414
		l-1.414-1.414C36.559,20.867,35.926,20.867,35.536,21.257z"/><path fill="#D2D2D2" d="M44,26c0,0.17,0,0.33-0.02,0.5C43.73,20.1,38.46,15,32,15s-11.73,5.1-11.98,11.5C20,26.33,20,26.17,20,26
		c0-6.63,5.37-12,12-12S44,19.37,44,26z"/><path fill="#C8094F" d="M55.41,49.41c-0.78,0.79-2.04,0.79-2.82,0l-9.103-9.103c-0.391-0.391-0.391-1.024,0-1.414l1.406-1.406
		c0.391-0.391,1.024-0.391,1.414,0l9.103,9.103C56.2,47.37,56.2,48.63,55.41,49.41z"/></svg>