<svg xmlns="http://www.w3.org/2000/svg" enable-background="new 0 0 100 100" viewBox="0 0 100 100"><circle cx="51.68" cy="50" r="33.611" fill="#fdd6a0" transform="rotate(-1.812 51.666 50.03)"/><path fill="#fdb021" d="M51.68,85.291L51.68,85.291c-19.461,0-35.292-15.831-35.292-35.291
			c0-19.461,15.831-35.292,35.292-35.292c8.117,0,16.032,2.823,22.3,7.932c6.185,5.058,10.521,12.101,12.184,19.848
			c0.202,0.906-0.37,1.813-1.277,2.015c-0.908,0.185-1.815-0.42-2-1.293C79.728,28.64,66.604,18.069,51.68,18.069
			C34.102,18.102,19.783,32.422,19.75,50c0.033,17.578,14.352,31.896,31.93,31.93c15.376,0,28.57-10.958,31.392-26.032
			c0-0.016,0-0.016,0-0.016c0.169-0.891,1.059-1.497,1.95-1.328c0.908,0.167,1.513,1.042,1.344,1.95
			C83.258,73.191,68.67,85.291,51.68,85.291z M85.308,51.193h-0.033c-0.908,0-1.648-0.74-1.664-1.648
			c-0.016-0.453,0.151-0.873,0.471-1.193c0.318-0.337,0.739-0.504,1.175-0.52h0.034c0.908,0,1.664,0.756,1.681,1.664v0.016
			C86.972,50.436,86.232,51.177,85.308,51.193L85.308,51.193z"/><rect width="14.405" height="13.854" x="69.778" y="71.734" fill="#fff" transform="rotate(-45.001 76.98 78.663)"/><path fill="#0bb4fb" d="M76.787,90.333c-0.43,0-0.86-0.164-1.188-0.492l-9.798-9.796
						c-0.315-0.315-0.492-0.742-0.492-1.189c0-0.446,0.177-0.873,0.492-1.188l10.187-10.187c0.315-0.315,0.742-0.492,1.189-0.492
						l0,0c0.446,0,0.873,0.178,1.188,0.492l9.796,9.798c0.657,0.656,0.657,1.72,0,2.376c-0.656,0.657-1.72,0.657-2.377,0
						l-8.607-8.609l-7.811,7.81l8.61,8.608c0.656,0.656,0.656,1.72,0,2.377C77.647,90.169,77.217,90.333,76.787,90.333z"/><path fill="#90e9fb" d="M63.12,57.162l7.749,7.749l-1.303,6.336L63.23,72.55l-7.749-7.749
					c-1.594,4.423-0.856,9.33,2.656,12.842c4.864,4.864,12.798,4.817,17.72-0.105c4.923-4.923,4.969-12.856,0.105-17.72
					C72.451,56.306,67.544,55.568,63.12,57.162z"/><path fill="#0bb4fb" d="M66.9,82.935c-3.614,0-7.214-1.367-9.952-4.103c-3.824-3.825-4.963-9.284-3.048-14.6
					c0.194-0.541,0.653-0.945,1.214-1.07c0.56-0.132,1.149,0.046,1.554,0.451l7.11,7.108l4.364-0.898l0.898-4.364l-7.108-7.109
					c-0.407-0.407-0.578-0.993-0.451-1.554c0.125-0.562,0.528-1.021,1.07-1.214c5.316-1.922,10.774-0.777,14.6,3.048
					c5.511,5.513,5.463,14.528-0.105,20.098C74.243,81.53,70.565,82.935,66.9,82.935z M56.422,68.118
					c-0.337,3.118,0.674,6.107,2.903,8.338c4.203,4.2,11.086,4.154,15.345-0.105c4.257-4.259,4.305-11.144,0.105-15.345
					c-2.229-2.229-5.209-3.244-8.337-2.903l5.619,5.621c0.4,0.399,0.571,0.973,0.458,1.526l-1.303,6.335
					c-0.135,0.658-0.65,1.174-1.308,1.308l-6.335,1.303c-0.547,0.115-1.126-0.058-1.526-0.458L56.422,68.118z"/><path fill="#fff" d="M46.639,51.681H13.028V39.794c0-0.608,0.493-4.919,1.1-4.919h31.411c0.608,0,1.1,7.611,1.1,8.219
				V51.681z"/><path fill="#923ecc" d="M46.639,53.361H13.028c-0.929,0-1.68-0.752-1.68-1.681V38.236c0-2.78,2.262-5.042,5.041-5.042
				h26.889c2.78,0,5.042,2.262,5.042,5.042v13.444C48.319,52.609,47.568,53.361,46.639,53.361z M14.708,50h30.25V38.236
				c0-0.927-0.754-1.681-1.681-1.681H16.389c-0.927,0-1.68,0.753-1.68,1.681V50z"/><path fill="#d2b9ef" d="M39.916,58.403H19.75c-3.712,0-6.722-3.01-6.722-6.722l0,0h33.611l0,0
				C46.639,55.393,43.629,58.403,39.916,58.403z"/><path fill="#923ecc" d="M43.278,60.083H16.389c-2.78,0-5.041-2.262-5.041-5.042v-3.361c0-0.929,0.751-1.68,1.68-1.68
				h33.611c0.929,0,1.681,0.751,1.681,1.68v3.361C48.319,57.822,46.058,60.083,43.278,60.083z M14.708,53.361v1.68
				c0,0.927,0.753,1.681,1.68,1.681h26.889c0.927,0,1.681-0.754,1.681-1.681v-1.68H14.708z"/><path fill="#923ecc" d="M29.833,66.805c-0.929,0-1.681-0.752-1.681-1.68v-6.723c0-0.929,0.752-1.68,1.681-1.68
				c0.929,0,1.68,0.751,1.68,1.68v6.723C31.514,66.054,30.762,66.805,29.833,66.805z"/><path fill="#923ecc" d="M34.875,66.805H24.791c-0.929,0-1.68-0.752-1.68-1.68c0-0.929,0.751-1.681,1.68-1.681h10.084
				c0.928,0,1.68,0.752,1.68,1.681C36.555,66.054,35.804,66.805,34.875,66.805z"/><g><polygon fill="#fff" points="57.264 41.056 69.147 36.302 62.017 29.172"/><path fill="#fd3e5f" d="M57.263,42.736c-0.436,0-0.866-0.171-1.188-0.493c-0.476-0.476-0.622-1.188-0.372-1.812
				l4.753-11.884c0.21-0.525,0.67-0.909,1.223-1.022c0.562-0.113,1.128,0.059,1.526,0.458l7.131,7.131
				c0.399,0.399,0.571,0.974,0.458,1.526c-0.113,0.553-0.497,1.013-1.022,1.223l-11.884,4.753
				C57.685,42.697,57.473,42.736,57.263,42.736z M62.63,32.162l-2.35,5.877l5.877-2.35L62.63,32.162z"/><rect width="10.083" height="25.208" x="69.453" y="11.22" fill="#fdb2b0" transform="rotate(-134.999 74.496 23.824)"/><path fill="#fd3e5f" d="M69.147,37.983c-0.446,0-0.873-0.177-1.188-0.492l-7.131-7.131
				c-0.315-0.315-0.493-0.742-0.493-1.189c0-0.446,0.178-0.873,0.493-1.188l17.826-17.825c0.657-0.656,1.72-0.656,2.376,0
				l7.129,7.13c0.657,0.656,0.657,1.72,0,2.376L70.336,37.491C70.021,37.806,69.594,37.983,69.147,37.983z M64.393,29.172
				l4.754,4.755l15.448-15.45l-4.753-4.753L64.393,29.172z"/></g></svg>