<svg xmlns="http://www.w3.org/2000/svg" xmlns:xlink="http://www.w3.org/1999/xlink" enable-background="new 0 0 2000 2000" viewBox="0 0 2000 2000"><defs><rect id="a" width="2000" height="2000"/></defs><clipPath id="b"><use overflow="visible" xlink:href="#a"/></clipPath><rect width="48" height="69" x="187" y="1931" fill="#b2563d" clip-path="url(#b)"/><polygon fill="#b2563d" points="1829 1913 1829 1951 1829 2000 1882 2000 1882 1951 1882 1913" clip-path="url(#b)"/><g clip-path="url(#b)"><defs><rect id="c" width="2000" height="2000"/></defs><clipPath id="d"><use overflow="visible" xlink:href="#c"/></clipPath><g clip-path="url(#d)" opacity=".3"><defs><rect id="e" width="2000" height="1790" y="9"/></defs><clipPath id="f"><use overflow="visible" xlink:href="#e"/></clipPath><path fill="#bdc0af" d="M2000,1761v38H0V970.1c22.5-53,49.7-98,82.6-130.6c109.2-108.2,136.9-267.8,137.8-398.7
					C222.1,194,453-3.6,729.2,9.6c121.1,5.8,251,51.8,375.9,170.2c38.8,36.8,69.5,79.8,91,126.6c42.7,93.2,150,278.9,330.9,288.5
					c0,0,78.5,7.5,167.8,69.8h0c2.6,1.8,5.2,3.7,7.8,5.6h0.1c82.2,60,171.8,166.9,216.9,356.9c95.8,403.8-79,554.3-22.5,647.2
					C1920.6,1713.3,1961,1741.5,2000,1761" clip-path="url(#f)"/></g><path fill="#5a2f28" d="M823.1,975c0,0-4.9-91.6,78.2-140.5s168.6,2.4,190.6,37.9c22,35.4,36.6,48.9,35.4,145.4
			c0,0-2.4,28.1,53.7,64.7c56.2,36.6,57.4,95.3,46.4,144.1c0,0-22,39.1-8.6,63.5c13.4,24.4-23.2,52.5-23.2,52.5l-480,33
			c0,0-79.4-52.5-6.1-118.5c0,0-48.9-68.4,6.1-142.9c0,0,20.8-29.3,67.2-48.9C829.2,1045.9,823.1,975,823.1,975" clip-path="url(#d)"/><path fill="#f2ad8a" d="M930.6,1147.3v39c0,6.8-2.4,13.5-6.7,18.8c-5.9,7.2-15.9,8.8-28.1,17.4L883,1350l157.6-18.3l1.8-115.4
			c0,0-3.7-1.2-10.8-7.9c-7.4-6.9-9.2-17.9-9-28l1-50.2L930.6,1147.3z" clip-path="url(#d)"/><polygon fill="#354643" points="931.3 1279.8 1010 1282.6 968.5 1368.3" clip-path="url(#d)"/><path fill="#c7c9bd" d="M1042.4,1216.3c0,0,80,33.6,87.3,42.1c0,0,15.9,11,15.9,45.2c0,34.2,17.1,459.3,17.1,459.3h-60.5H785.6
			l8.2-345.7c0,0-9.8-133.1,23.2-162.5l87.9-37.9l63.6,151.5L1042.4,1216.3z" clip-path="url(#d)"/><path fill="#354643" d="M1021.7,1279.8l21.3,20.1c0,0-64.5,62.3-74.5,73.3c0,0,72.1-63.5,83.1-69.6
			C1051.6,1303.6,1037,1289,1021.7,1279.8" clip-path="url(#d)"/><path fill="#354643" d="M919.3,1283.5l-21.3,20.1c0,0,59.3,58.6,69.4,69.6c0,0-66.9-59.9-77.9-66
			C889.4,1307.3,903.9,1292.7,919.3,1283.5" clip-path="url(#d)"/><path fill="#354643" d="M969.7,1608.4h-4.3v-235.1c1.3-0.8,2.7-1.1,4.3,0V1608.4z" clip-path="url(#d)"/><path fill="#efe6c1" d="M966.1,1723.8L823.5,1703l-4.7-164.9c49.1,4.9,99.3,40.7,148.4,68.4L966.1,1723.8z" clip-path="url(#d)"/><path fill="#efe6c1" d="M966.6,1723.8l142.6-20.8l4.7-164.9c-49.1,4.9-99.3,40.7-148.4,68.4L966.6,1723.8z" clip-path="url(#d)"/><path fill="#ffb602" d="M965.4,1745.8l163.8-20.8l5.4-164.9c-56.4,4.9-112.8,21.2-169.2,48.9V1745.8z" clip-path="url(#d)"/><path fill="#ffb602" d="M966.1,1745.8L817,1725l-4.9-164.9c51.3,4.9,102.6,21.2,153.9,48.9V1745.8z" clip-path="url(#d)"/><path fill="#f2ad8a" d="M1075.5,1608.4c0,0-25.8-4.9-1.4-15.9c24.4-11,47-16.5,47-16.5s13.4,3.7,29.3,20.8
			c15.9,17.1,69.6,29.3,69.6,29.3l42.8,37.9l-14.7,61.1h-63.8l-56-72.1h-61.1c0,0-18.6-6.2-3.8-13.5c0,0-20.6,1.3-12.1-8.5
			c0,0-18.8-5.6-2.1-15.6L1075.5,1608.4z" clip-path="url(#d)"/><path fill="#f2ad8a" d="M870.8,1608.4c0,0,25.8-4.9,1.4-15.9c-24.4-11-47-16.5-47-16.5s-13.4,3.7-29.3,20.8
			c-15.9,17.1-69.6,29.3-69.6,29.3l-42.8,37.9l14.7,61.1h63.8l56-72.1h61.1c0,0,18.6-6.2,3.8-13.5c0,0,20.6,1.3,12.1-8.5
			c0,0,18.8-5.6,2.1-15.6L870.8,1608.4z" clip-path="url(#d)"/><path fill="#ef9f7d" d="M729.8,1620c0,0-20.8,48.9-7.3,73.3c13.4,24.4,55,11,55,11s-16.7,30.3-45,18.2c0,0-23.4,0.1-34.4-35.3
			C687.1,1651.7,729.8,1620,729.8,1620" clip-path="url(#d)"/><path fill="#ef9f7d" d="M1216.5,1620c0,0,20.8,48.9,7.3,73.3c-13.4,24.4-55,11-55,11s16.7,30.3,45,18.2c0,0,23.4,0.1,34.4-35.3
			C1259.2,1651.7,1216.5,1620,1216.5,1620" clip-path="url(#d)"/><path fill="#bdc0af" d="M1117.5,1251.1c0,0,53.7,18.3,74.5,46.4c20.8,28.1,36.6,77,55,152.7l46.4,141.7c0,0,8.5,33,4.9,46.4
			c0,0,19.5,26.9-4.9,68.4c-24.4,41.5-72.1,44-96.5,33c-24.4-11-28.1-35.4-28.1-35.4s30.5,34.2,55,12.2c24.4-22-3.7-90.4-3.7-90.4
			c-26.7-7-51.2-13.4-64.1-23.8L1117.5,1251.1z" clip-path="url(#d)"/><path fill="#bdc0af" d="M824.4,1252.3c0,0-53.7,18.3-74.5,46.4c-20.8,28.1-36.6,77-55,152.7l-46.4,141.7c0,0-8.6,33-4.9,46.4
			c0,0-19.5,26.9,4.9,68.4c24.4,41.5,72.1,44,96.5,33c24.4-11,28.1-35.4,28.1-35.4s-30.5,34.2-55,12.2c-24.4-22,3.7-90.4,3.7-90.4
			c27.5-6.9,52.8-14.7,68.9-26.3L824.4,1252.3z" clip-path="url(#d)"/><path fill="#ef9f7d" d="M1075.5,1608.4c0,0,29.8-5.5,44.5-14C1120,1594.3,1098.2,1609,1075.5,1608.4" clip-path="url(#d)"/><path fill="#ef9f7d" d="M1063.6,1639.5l49-15.8C1112.6,1623.6,1084.3,1630.9,1063.6,1639.5" clip-path="url(#d)"/><path fill="#ef9f7d" d="M1051.6,1631c0,0,32.5-12.2,46.2-18.9C1097.7,1612,1069.9,1627.3,1051.6,1631" clip-path="url(#d)"/><path fill="#ef9f7d" d="M871.3,1608.4c0,0-29.8-5.5-44.5-14C826.8,1594.3,848.5,1609,871.3,1608.4" clip-path="url(#d)"/><path fill="#ef9f7d" d="M883.1,1639.5l-49-15.8C834.1,1623.6,862.5,1630.9,883.1,1639.5" clip-path="url(#d)"/><path fill="#ef9f7d" d="M895.2,1631c0,0-32.5-12.2-46.2-18.9C849,1612,876.9,1627.3,895.2,1631" clip-path="url(#d)"/><path fill="#ef9f7d" d="M930.6,1158.5v12.8l-0.1,16.7c0,0-0.6,6.2-2.8,10.8c0,0,64.6-4.1,95.1-40.4l-67.2-23.6L930.6,1158.5z" clip-path="url(#d)"/><path fill="#f2ad8a" d="M870.8,999.5c0,0,57.4-15.9,58.6-86.7c0,0-4.9,92.8,145.4,67.2v93.7c0,0-3.7,33.3-15.9,48
			s-50.1,56.2-80.6,59.9c-30.5,3.7-92.5-62.8-96.9-86.4C876.9,1071.5,870.8,999.5,870.8,999.5" clip-path="url(#d)"/><path fill="#aeafa7" d="M760,1615.4c0,0-72.9-48.5-116.3,24.2C643.7,1639.5,686.5,1580.8,760,1615.4" clip-path="url(#d)"/><path fill="#aeafa7" d="M1181.1,1614.1c0,0,72.9-48.5,116.3,24.2C1297.5,1638.3,1254.6,1579.6,1181.1,1614.1" clip-path="url(#d)"/><path fill="#aa3627" d="M785.6,1762.9h377.1c0,0,53,71.4,70.2,237.1H724C724,2000,720.8,1901.7,785.6,1762.9" clip-path="url(#d)"/><path fill="#aeafa7" d="M559.5,1728.4H306.3c-6.1-17.8-4.3-35,0-52.2h253.3C563.1,1697.9,562.4,1713.9,559.5,1728.4" clip-path="url(#d)"/><rect width="9.7" height="52.2" x="326.6" y="1676.2" fill="#c7c9bd" clip-path="url(#d)"/><rect width="9.7" height="52.2" x="529.6" y="1676.2" fill="#c7c9bd" clip-path="url(#d)"/><path fill="#e2ab02" d="M461.6,1673.3h-59.4c-11.4,0-20.6-9.2-20.6-20.6v-109c0-6.4,5.2-11.5,11.5-11.5h77.4
			c6.4,0,11.5,5.2,11.5,11.5v109C482.2,1664.1,473,1673.3,461.6,1673.3" clip-path="url(#d)"/><path fill="#e2ab02" d="M452.2,1626.9h67.7v-79.3h-67.7V1626.9z M508.3,1615.3h-44.5v-56.1h44.5V1615.3z" clip-path="url(#d)"/><path fill="#bcbcbc" d="M337.6,615c-24.8,22.6-63.1,20.8-85.7-4c-22.6-24.8-20.8-63.1,4-85.7c11.6-10.6,26.3-15.8,40.8-15.8
			l30.1-83.2l2.6-7.2l39.3,14.2l-2.1,5.8l-0.7,2l-29.9,82.7c1.9,1.6,3.6,3.3,5.3,5.1c0.1,0.1,0.2,0.2,0.3,0.3
			c0.7,0.7,1.3,1.5,1.9,2.3c20.4,24.6,18.1,61.1-5.5,83C337.9,614.8,337.7,614.9,337.6,615" clip-path="url(#d)"/><path fill="#626262" d="M375.7,427.2L328,412c-1.9-0.6-3.8,0.4-4.4,2.3l-2.8,8.8c-0.6,1.9,0.4,3.8,2.3,4.4l47.7,15.2
			c1.9,0.6,3.8-0.4,4.4-2.3l2.8-8.8C378.6,429.7,377.5,427.8,375.7,427.2" clip-path="url(#d)"/><path fill="#ffca07" d="M351.8,578.2l-100.7-37.7c-2.3,3.5-4.8,11.7-6.1,15.9c-8.2,25.8,8,54,36.2,63c28.2,9,60.4-5.4,68.6-31.1
			C350.9,584.9,351.5,581.6,351.8,578.2" clip-path="url(#d)"/><path fill="#b77e05" d="M352,578.6c2-5.3-19.1-18.3-47.1-28.9c-28-10.7-52.4-15-54.4-9.7c-2,5.3,19.1,18.3,47.1,28.9
			C325.6,579.6,350,583.9,352,578.6" clip-path="url(#d)"/><path fill="#b77e05" d="M314.1,594.4c-2.4,2.2-6.2,2-8.4-0.4c-2.2-2.4-2-6.2,0.4-8.4c2.4-2.2,6.2-2,8.4,0.4
			C316.7,588.4,316.5,592.2,314.1,594.4" clip-path="url(#d)"/><path fill="#b77e05" d="M295.6,604.8c-2.4,2.2-6.2,2-8.4-0.4c-2.2-2.4-2-6.2,0.4-8.4c2.4-2.2,6.2-2,8.4,0.4
			C298.2,598.8,298,602.6,295.6,604.8" clip-path="url(#d)"/><path fill="#b77e05" d="M284.7,586.7c-2.4,2.2-6.2,2-8.4-0.4c-2.2-2.4-2-6.2,0.4-8.4c2.4-2.2,6.2-2,8.4,0.4
			C287.3,580.7,287.1,584.5,284.7,586.7" clip-path="url(#d)"/><g clip-path="url(#d)" opacity=".28"><defs><rect id="g" width="119.9" height="197.5" x="245.9" y="432.7"/></defs><clipPath id="h"><use overflow="visible" xlink:href="#g"/></clipPath><path fill="#aaa" d="M338,614.6c-24,21.1-59.2,20.8-79-1c-20.1-22-16.8-57.6,7.2-79.6c11.3-10.3,25.2-15.7,38.8-16.3l34.2-85
					l26.6,8.5l-29.9,82.7c1.9,1.6,3.6,3.3,5.3,5.1l-0.2,0.4c0.8,0.7,1.6,1.4,2.4,2.2C363.9,556.2,361.6,592.7,338,614.6" clip-path="url(#h)"/></g><path fill="#72726d" d="M1510.8,1232.9c0,17-13.8,30.8-30.8,30.8c-17,0-30.8-13.8-30.8-30.8c0-17,13.8-30.8,30.8-30.8
			C1497,1202,1510.8,1215.8,1510.8,1232.9" clip-path="url(#d)"/><path fill="#fdb805" d="M875.4,580.3c-11.2-12.8-22.8-26.1-32-45.6c-9-19.3-14-39.2-13.8-59.9c0.2-20.7,5.4-42,16.9-64
			c0.1-0.2,0.2-0.3,0.2-0.4c15-25.4,35.9-42.3,59.3-51.8c19.6-8,40.8-10.7,61.7-8.8c20.8,1.9,41.1,8.4,58.9,18.9
			c22.6,13.4,41.2,33.2,51.4,58.2c5.5,13.6,9.3,28.7,9.7,45.3c0.5,16.5-2.4,34.3-10,53.2c-11.7,28.9-38.9,59.8-56.8,88.3
			c-1-0.2-2-0.2-3-0.1l-24.1,3.6l36.7-127.5c1-3.6-1.1-7.4-4.7-8.4c-3.6-1-7.4,1.1-8.4,4.7L979,619.3l-36.4,5.4l-38.5-122.2
			c2.8,0.5,5.7-0.7,7.2-3.2l27.3-46.4l13.9,31.8c1.5,3.5,5.5,5,8.9,3.5c1.7-0.7,3-2.1,3.6-3.7l12.3-31l14.4,38
			c1.3,3.5,5.2,5.3,8.8,4c3.5-1.3,5.3-5.2,4-8.8l-20.5-54c-0.6-1.9-2-3.5-4-4.3c-3.5-1.4-7.5,0.3-8.9,3.8l-12.7,32.2l-12.7-29.1
			c-0.5-1.3-1.5-2.4-2.8-3.2c-3.2-1.9-7.4-0.8-9.3,2.4l-33.1,56.4l-2.4-7.5c-1.1-3.6-4.9-5.6-8.5-4.5c-3.6,1.1-5.6,4.9-4.5,8.5
			l43.8,139.4l-26.4,3.9C896.2,611.8,886.5,593,875.4,580.3" clip-path="url(#d)"/><path fill="#72726d" d="M1011.7,632.3l-2.5,11.5l-0.6,8.2l-98.5,14.7c-0.3-5.9-1.3-12.2-2.8-18.8L1011.7,632.3z" clip-path="url(#d)"/><path fill="#72726d" d="M1008.6,669.9l0.1,4.9l0.1,1.7c0.3,3.2,0.3,6.5,0.1,9.7l-1.5,7.1L915.9,707l-1.6-3.7l-3.6-14.6l-0.1-4.2
			L1008.6,669.9z" clip-path="url(#d)"/><path fill="#72726d" d="M1001.2,712.1c-4.7,8.1-11.3,14.5-18.7,18.8c-6.6,3.9-14.1,6.1-21.5,6.6c-7.5,0.5-15.2-1-22.1-4.3
			c-4.7-2.3-9.2-5.6-13.1-9.8L1001.2,712.1z" clip-path="url(#d)"/><path fill="#92938c" fill-rule="evenodd" d="M1568.3,1232.9c0-5-0.4-10-1.4-15.1l25-21.6l-23.7-40.5l-31.5,10.5c-7.9-6.6-17-11.8-26.6-15.2l-6.5-32
			h-47.2l-6.5,32c-9.7,3.5-18.6,8.6-26.6,15.3l-31.5-10.5l-23.7,40.5l25,21.6c-0.9,5.1-1.4,10.1-1.4,15.1s0.4,10,1.4,15.1l-25,21.6
			l23.7,40.5l31.5-10.5c8,6.6,17,11.8,26.6,15.2l6.5,32h47.2l6.5-32c9.6-3.5,18.6-8.6,26.6-15.3l31.5,10.5l23.7-40.5l-25-21.6
			C1567.8,1242.9,1568.3,1237.8,1568.3,1232.9 M1480,1279.7c-25.9,0-46.9-21.1-46.9-46.9s21.1-46.9,46.9-46.9
			c25.9,0,46.9,21.1,46.9,46.9S1505.9,1279.7,1480,1279.7" clip-path="url(#d)" clip-rule="evenodd"/><path fill="#72726d" fill-rule="evenodd" d="M1439,1085c0-2.2-0.2-4.5-0.6-6.7l11.1-9.6l-10.5-18l-14,4.7c-3.5-2.9-7.6-5.2-11.8-6.8l-2.9-14.2h-21
			l-2.9,14.2c-4.3,1.5-8.3,3.8-11.8,6.8l-14-4.7l-10.5,18l11.1,9.6c-0.4,2.3-0.6,4.5-0.6,6.7c0,2.2,0.2,4.4,0.6,6.7l-11.1,9.6
			l10.5,18l14-4.7c3.5,2.9,7.6,5.3,11.8,6.8l2.9,14.2h21l2.9-14.2c4.3-1.5,8.3-3.8,11.8-6.8l14,4.7l10.5-18l-11.1-9.6
			C1438.8,1089.4,1439,1087.2,1439,1085 M1399.8,1105.8c-11.5,0-20.9-9.4-20.9-20.9s9.4-20.9,20.9-20.9c11.5,0,20.8,9.4,20.8,20.9
			S1411.2,1105.8,1399.8,1105.8" clip-path="url(#d)" clip-rule="evenodd"/><path fill="#72726d" fill-rule="evenodd" d="M1373.1,1149.6c0.1-1.3,0-2.6-0.2-3.9c-0.2-1.3-0.5-2.5-0.9-3.8l5.6-6.4l-7.4-9.5l-7.6,3.8
			c-2.3-1.4-4.7-2.4-7.3-2.9l-2.8-7.9l-12,1.6l-0.5,8.4c-2.3,1.2-4.4,2.8-6.2,4.8l-8.4-1.6l-4.6,11.1l7.1,4.6
			c-0.1,1.3,0,2.6,0.2,3.9c0.2,1.3,0.5,2.5,0.9,3.8l-5.6,6.4l7.4,9.5l7.6-3.8c2.3,1.4,4.7,2.4,7.3,3l2.8,7.9l12-1.6l0.5-8.4
			c2.3-1.2,4.4-2.8,6.2-4.8l8.4,1.6l4.6-11.1L1373.1,1149.6z M1352.1,1160.7c-6.6,0.9-12.7-3.7-13.6-10.3
			c-0.9-6.6,3.7-12.7,10.3-13.6c6.6-0.9,12.7,3.7,13.6,10.3C1363.3,1153.7,1358.7,1159.8,1352.1,1160.7" clip-path="url(#d)" clip-rule="evenodd"/><polygon fill="#72726d" points="1610.1 794.9 1562.9 727.5 1567.7 724.1 1607 780.3 1628.2 666.5 1792.7 662.2 1792.8 668 1633 672.2" clip-path="url(#d)"/><polygon fill="#72726d" points="1719 728.8 1719.1 698.2 1710.8 698.1 1710.7 728.7 1681.2 728.6 1681.2 736.4 1710.6 736.6 1710.5 767.4 1718.8 767.5 1719 736.6 1748.4 736.7 1748.4 728.9" clip-path="url(#d)"/><polygon fill="#72726d" points="1687.9 796.7 1687.9 812.1 1741.1 812.3 1741.1 796.9" clip-path="url(#d)"/><path fill="#fff" d="M386,1351.4l-165.7,29.2c-30.3-74.2-58.4-151-56.5-230l165.7-9.7C331.4,1203.3,343.1,1259.8,386,1351.4" clip-path="url(#d)"/><rect width="118.7" height=".8" x="199" y="1215.6" fill="#72726d" clip-path="url(#d)" transform="rotate(-10.713 258.39 1215.978)"/><rect width="118.7" height=".8" x="202.5" y="1233.8" fill="#72726d" clip-path="url(#d)" transform="rotate(-10.713 261.836 1234.249)"/><rect width="118.7" height=".8" x="206.6" y="1255.6" fill="#72726d" clip-path="url(#d)" transform="rotate(-10.713 265.944 1256.017)"/><rect width="118.7" height=".8" x="209.8" y="1272.7" fill="#72726d" clip-path="url(#d)" transform="rotate(-10.713 269.17 1273.121)"/><rect width="118.7" height=".8" x="213.1" y="1289.8" fill="#72726d" clip-path="url(#d)" transform="rotate(-10.713 272.397 1290.225)"/><polygon fill="#b2563d" points="2000 1779.8 2000 1910 212.5 1910 8.8 1816 8.6 1815.9 0 1811.9 0 1763 1963.5 1763" clip-path="url(#d)"/><polygon fill="#9c4d34" points="2000 1908 1220 1908 734.8 1908 213 1908 213 1910 213 1922 213 1951 235 1951 727 1951 1227.8 1951 1829 1951 1869 1951 2000 1951 2000 1910" clip-path="url(#d)"/><path fill="#92938c" d="M526.7,1780.6H271.5c-4.1-12.7-2.2-32.3,0-52.2h255.2C529.4,1749.1,531.7,1769.3,526.7,1780.6" clip-path="url(#d)"/><rect width="9.7" height="52.2" x="292.7" y="1728.4" fill="#72726d" clip-path="url(#d)"/><rect width="9.7" height="52.2" x="495.7" y="1728.4" fill="#72726d" clip-path="url(#d)"/><path fill="#354643" d="M1649.7,1778.7h-311c-10,0-17.4-9.7-15.2-19.9l48.9-224.6c1.6-7.4,7.9-12.7,15.2-12.7h307.3
			c9.9,0,17.3,9.5,15.3,19.6l-45.1,224.6C1663.4,1773.3,1657.1,1778.7,1649.7,1778.7" clip-path="url(#d)"/><path fill="#bdc0af" d="M1672.4,1580.3h-36.9c-1.2,0-2.1-1.2-1.8-2.4l5.8-26.6c0.2-0.9,0.9-1.5,1.8-1.5h36.4c1.2,0,2.1,1.1,1.8,2.3
			l-5.3,26.6C1674,1579.7,1673.2,1580.3,1672.4,1580.3" clip-path="url(#d)"/><path fill="#354643" d="M1674,1562.6c-0.9,4.1-4.9,6.7-8.9,5.8s-6.7-4.9-5.8-8.9c0.9-4.1,4.9-6.7,8.9-5.8
			C1672.3,1554.5,1674.9,1558.5,1674,1562.6" clip-path="url(#d)"/><path fill="#354643" d="M1655.7,1570.8c-0.9,4.1-4.9,6.7-8.9,5.8s-6.7-4.9-5.8-8.9c0.9-4.1,4.9-6.7,8.9-5.8
			C1654,1562.7,1656.6,1566.7,1655.7,1570.8" clip-path="url(#d)"/><path fill="#aeafa7" d="M1694.6,1779.6H1430c-3.9,0-7.2-2.9-7.7-6.8l-14.3-118c-0.6-4.6,3-8.7,7.7-8.7h256c3.7,0,6.9,2.6,7.6,6.3
			l22.8,118C1703.1,1775.2,1699.4,1779.6,1694.6,1779.6" clip-path="url(#d)"/><polygon fill="#9c4d34" points="213 1951 0 1856 0 1812 213 1908" clip-path="url(#d)"/></g></svg>