<svg xmlns="http://www.w3.org/2000/svg" xmlns:xlink="http://www.w3.org/1999/xlink" viewBox="0 0 1377.172 1052.119"><defs><linearGradient id="a" x1="124.11" x2="266.898" y1="581.98" y2="581.98" gradientTransform="translate(42.41)" gradientUnits="userSpaceOnUse"><stop offset="0" stop-color="#c2c7e3"/><stop offset=".253" stop-color="#dde0ef"/><stop offset=".543" stop-color="#f6f7fb"/><stop offset=".719" stop-color="#fff"/></linearGradient><linearGradient id="s" x1="3.761" x2="140.425" y1="619.445" y2="619.445" gradientTransform="translate(97.637)" xlink:href="#a"/><linearGradient id="t" x1="-116.593" x2="9.195" y1="656.912" y2="656.912" gradientTransform="translate(152.864)" xlink:href="#a"/><linearGradient id="c" x1="1099.338" x2="1210.891" y1="341.154" y2="341.154" gradientUnits="userSpaceOnUse"><stop offset=".152" stop-color="#c4cae9"/><stop offset=".577" stop-color="#e4e6f5"/><stop offset="1" stop-color="#fff"/></linearGradient><linearGradient id="b" x1="165.687" x2="202.772" y1="105.171" y2="169.404" gradientTransform="rotate(120.001 608.127 502.528)" gradientUnits="userSpaceOnUse"><stop offset="0" stop-color="#e19100"/><stop offset="1" stop-color="#fcba06"/></linearGradient><linearGradient id="d" x1="177.39" x2="214.475" y1="98.414" y2="162.647" gradientTransform="rotate(120.001 608.127 502.528)" gradientUnits="userSpaceOnUse"><stop offset="0" stop-color="#abb2da"/><stop offset="1" stop-color="#ced3f8"/></linearGradient><linearGradient id="u" x1="189.093" x2="226.178" y1="91.657" y2="155.89" xlink:href="#b"/><linearGradient id="v" x1="61.036" x2="192.119" y1="966.398" y2="966.398" xlink:href="#c"/><linearGradient id="e" x1="1156.111" x2="1193.196" y1="732.297" y2="796.53" gradientTransform="rotate(120.001 608.127 502.528)" gradientUnits="userSpaceOnUse"><stop offset="0" stop-color="#423eaf"/><stop offset=".218" stop-color="#504cc0"/><stop offset="1" stop-color="#807dfb"/></linearGradient><linearGradient id="w" x1="1167.814" x2="1204.899" y1="725.539" y2="789.772" xlink:href="#d"/><linearGradient id="x" x1="1179.518" x2="1216.602" y1="718.782" y2="783.015" xlink:href="#e"/><linearGradient id="y" x1="1191.221" x2="1228.306" y1="712.025" y2="776.258" xlink:href="#d"/><linearGradient id="z" x1="1202.924" x2="1240.009" y1="705.268" y2="769.501" xlink:href="#e"/><linearGradient id="A" x1="1214.631" x2="1251.716" y1="698.509" y2="762.742" xlink:href="#d"/><linearGradient id="B" x1="1226.338" x2="1263.423" y1="691.75" y2="755.983" xlink:href="#e"/><linearGradient id="C" x1="1238.044" x2="1275.129" y1="684.991" y2="749.224" xlink:href="#d"/><linearGradient id="D" x1="1249.751" x2="1286.836" y1="678.232" y2="742.465" xlink:href="#e"/><linearGradient id="E" x1="123.036" x2="254.119" y1="1007.282" y2="1007.282" xlink:href="#c"/><linearGradient id="F" x1="1207.349" x2="1244.434" y1="631.12" y2="695.353" xlink:href="#b"/><linearGradient id="G" x1="1219.053" x2="1256.138" y1="624.363" y2="688.596" xlink:href="#d"/><linearGradient id="H" x1="1230.756" x2="1267.841" y1="617.605" y2="681.838" xlink:href="#b"/><linearGradient id="I" x1="1242.459" x2="1279.544" y1="610.848" y2="675.081" xlink:href="#d"/><linearGradient id="J" x1="1254.163" x2="1291.248" y1="604.091" y2="668.324" xlink:href="#b"/><linearGradient id="K" x1="11.036" x2="122.588" y1="1030.65" y2="1030.65" xlink:href="#c"/><linearGradient id="f" x1="1306.992" x2="1344.077" y1="702.919" y2="767.152" gradientTransform="rotate(120.001 608.127 502.528)" gradientUnits="userSpaceOnUse"><stop offset="0" stop-color="#bbc0e6"/><stop offset="1" stop-color="#ced3f8"/></linearGradient><linearGradient id="L" x1="1318.695" x2="1355.78" y1="696.162" y2="760.395" xlink:href="#d"/><linearGradient id="M" x1="1330.399" x2="1367.483" y1="689.405" y2="753.638" xlink:href="#f"/><linearGradient id="N" x1="983.338" x2="1114.422" y1="377.902" y2="377.902" xlink:href="#c"/><linearGradient id="g" x1="208.695" x2="245.78" y1="214.289" y2="278.522" gradientTransform="rotate(120.001 608.127 502.528)" gradientUnits="userSpaceOnUse"><stop offset="0" stop-color="#20196f"/><stop offset=".356" stop-color="#342e91"/><stop offset="1" stop-color="#5652cc"/></linearGradient><linearGradient id="O" x1="220.398" x2="257.483" y1="207.531" y2="271.764" xlink:href="#d"/><linearGradient id="P" x1="232.102" x2="269.187" y1="200.774" y2="265.007" xlink:href="#g"/><linearGradient id="Q" x1="243.805" x2="280.89" y1="194.017" y2="258.25" xlink:href="#d"/><linearGradient id="R" x1="255.508" x2="292.593" y1="187.26" y2="251.493" xlink:href="#g"/><linearGradient id="S" x1="267.215" x2="304.3" y1="180.501" y2="244.734" xlink:href="#d"/><linearGradient id="T" x1="278.922" x2="316.007" y1="173.742" y2="237.975" xlink:href="#g"/><linearGradient id="U" x1="1045.338" x2="1176.422" y1="418.786" y2="418.786" xlink:href="#c"/><linearGradient id="V" x1="236.517" x2="273.602" y1="126.631" y2="190.864" xlink:href="#e"/><linearGradient id="W" x1="248.221" x2="285.306" y1="119.874" y2="184.107" xlink:href="#d"/><linearGradient id="X" x1="259.924" x2="297.009" y1="113.117" y2="177.35" xlink:href="#e"/><linearGradient id="Y" x1="271.628" x2="308.712" y1="106.36" y2="170.593" xlink:href="#d"/><linearGradient id="Z" x1="283.331" x2="320.416" y1="99.603" y2="163.836" xlink:href="#e"/><linearGradient id="aa" x1="210.881" x2="338.695" y1="108.337" y2="108.337" gradientTransform="rotate(120.001 537.642 315.339)" gradientUnits="userSpaceOnUse"><stop offset="0" stop-color="#f6f6fb"/><stop offset=".004" stop-color="#f6f6fb"/><stop offset=".443" stop-color="#cdd1e9"/><stop offset=".79" stop-color="#b4bade"/><stop offset="1" stop-color="#abb2da"/></linearGradient><linearGradient id="ab" x1="188.298" x2="423.747" y1="269.956" y2="269.956" gradientTransform="matrix(-.866 .5 0 1.1547 471.459 -307.255)" gradientUnits="userSpaceOnUse"><stop offset="0" stop-color="#fcad6d"/><stop offset="1" stop-color="#fd806a"/></linearGradient><linearGradient id="ac" x1="104.494" x2="290.041" y1="223.298" y2="223.298" gradientUnits="userSpaceOnUse"><stop offset="0" stop-color="#ffd03e"/><stop offset="1" stop-color="#fcba06"/></linearGradient><linearGradient id="ad" x1="1111.735" x2="1243.339" y1="863.827" y2="863.827" gradientUnits="userSpaceOnUse"><stop offset=".453" stop-color="#c4c9e4"/><stop offset="1" stop-color="#fff"/></linearGradient><linearGradient id="h" x1="1081.582" x2="1210.486" y1="874.122" y2="874.122" gradientUnits="userSpaceOnUse"><stop offset="0" stop-color="#fbba05"/><stop offset="1" stop-color="#e19100"/></linearGradient><linearGradient id="ae" x1="1126.145" x2="1154.436" y1="859.423" y2="859.423" xlink:href="#h"/><linearGradient id="af" x1="718.17" x2="1344.556" y1="455.376" y2="455.376" gradientUnits="userSpaceOnUse"><stop offset="0" stop-color="#dae0f5"/><stop offset=".507" stop-color="#fff"/></linearGradient><linearGradient id="ag" x1="19.523" x2="399.427" y1="-62.192" y2="595.821" gradientTransform="matrix(-1 0 0 1 629.281 0)" gradientUnits="userSpaceOnUse"><stop offset=".576" stop-color="#807cfb"/><stop offset=".612" stop-color="#423eaf"/></linearGradient><linearGradient id="ah" x1="-418.279" x2="353.928" y1="672.238" y2="672.238" gradientTransform="matrix(-1 0 0 1 629.281 0)" gradientUnits="userSpaceOnUse"><stop offset=".555" stop-color="#1f196f"/><stop offset=".613" stop-color="#5652cc"/></linearGradient><linearGradient id="ai" x1="277.796" x2="1042.678" y1="485.613" y2="485.613" gradientUnits="userSpaceOnUse"><stop offset="0" stop-color="#dae0f5"/><stop offset=".068" stop-color="#dde2f5"/><stop offset=".619" stop-color="#f0f2f7"/><stop offset="1" stop-color="#f7f7f7"/></linearGradient><linearGradient id="aj" x1="706.519" x2="967.127" y1="585.954" y2="585.954" gradientTransform="translate(-66.894)" gradientUnits="userSpaceOnUse"><stop offset=".011" stop-color="#c4cae9"/><stop offset=".52" stop-color="#e5e7f5"/><stop offset="1" stop-color="#fff"/></linearGradient><linearGradient id="ak" x1="504.598" x2="547.519" y1="329.835" y2="404.176" gradientTransform="matrix(-1 0 0 1 1101.172 0)" gradientUnits="userSpaceOnUse"><stop offset=".006" stop-color="#5652cc"/><stop offset="1" stop-color="#20196f"/></linearGradient><linearGradient id="al" x1="528.042" x2="570.963" y1="316.304" y2="390.645" gradientTransform="matrix(-1 0 0 1 1101.172 0)" gradientUnits="userSpaceOnUse"><stop offset=".006" stop-color="#ffd03e"/><stop offset="1" stop-color="#e19100"/></linearGradient><linearGradient id="am" x1="408.408" x2="494.092" y1="336.008" y2="484.418" gradientTransform="matrix(-1 0 0 1 1101.172 0)" gradientUnits="userSpaceOnUse"><stop offset=".421" stop-color="#807dfb"/><stop offset=".452" stop-color="#7a77f4"/><stop offset=".495" stop-color="#6b68e1"/><stop offset=".546" stop-color="#524ec2"/><stop offset=".573" stop-color="#423eaf"/></linearGradient><linearGradient id="i" x1="436.409" x2="498.537" y1="343.949" y2="343.949" gradientTransform="matrix(-1 0 0 1 1101.172 0)" gradientUnits="userSpaceOnUse"><stop offset=".006" stop-color="#423eaf"/><stop offset=".242" stop-color="#20196f"/></linearGradient><linearGradient id="an" x1="416.805" x2="478.935" y1="355.267" y2="355.267" xlink:href="#i"/><linearGradient id="ao" x1="397.205" x2="459.333" y1="366.585" y2="366.585" xlink:href="#i"/><linearGradient id="ap" x1="377.602" x2="439.731" y1="377.904" y2="377.904" xlink:href="#i"/><linearGradient id="aq" x1="179.919" x2="363.81" y1="353.866" y2="672.375" gradientTransform="matrix(-1 0 0 1 1101.172 0)" gradientUnits="userSpaceOnUse"><stop offset="0" stop-color="#ffd03e"/><stop offset=".758" stop-color="#fcba06"/></linearGradient><linearGradient id="ar" x1="263.455" x2="419.192" y1="339.554" y2="609.298" gradientTransform="matrix(-1 0 0 1 1101.172 0)" gradientUnits="userSpaceOnUse"><stop offset="0" stop-color="#fff"/><stop offset=".095" stop-color="#f8f9fe"/><stop offset=".702" stop-color="#ced3f8"/></linearGradient><linearGradient id="as" x1="-21.028" x2="252.501" y1="245.95" y2="719.716" gradientTransform="matrix(-1 0 0 1 1101.172 0)" gradientUnits="userSpaceOnUse"><stop offset=".697" stop-color="#c66c00"/><stop offset="1" stop-color="#fcba06"/></linearGradient><linearGradient id="at" x1="284.836" x2="116.166" y1="506.28" y2="603.674" gradientTransform="matrix(-1 0 0 1 1101.172 0)" gradientUnits="userSpaceOnUse"><stop offset="0" stop-color="#423eaf"/><stop offset=".427" stop-color="#5e5ad1"/><stop offset="1" stop-color="#807dfb"/></linearGradient><linearGradient id="au" x1="88.291" x2="302.173" y1="315.232" y2="685.687" gradientTransform="matrix(-1 0 0 1 1101.172 0)" gradientUnits="userSpaceOnUse"><stop offset=".416" stop-color="#a3a9d0"/><stop offset="1" stop-color="#ced3f8"/></linearGradient><linearGradient id="av" x1="229.168" x2="281.237" y1="478.236" y2="568.422" gradientTransform="matrix(-1 0 0 1 1101.172 0)" gradientUnits="userSpaceOnUse"><stop offset="0" stop-color="#f1f1f6"/><stop offset=".25" stop-color="#eaebf4"/><stop offset=".609" stop-color="#d7daee"/><stop offset="1" stop-color="#bbc0e6"/></linearGradient><linearGradient id="aw" x1="190.045" x2="242.162" y1="500.823" y2="591.094" gradientTransform="matrix(-1 0 0 1 1101.172 0)" gradientUnits="userSpaceOnUse"><stop offset="0" stop-color="#f6f6fb"/><stop offset=".306" stop-color="#eff0fa"/><stop offset=".743" stop-color="#dce0f9"/><stop offset="1" stop-color="#ced3f8"/></linearGradient><linearGradient id="ax" x1="241.118" x2="293.188" y1="471.336" y2="561.523" gradientTransform="matrix(-1 0 0 1 1101.172 0)" gradientUnits="userSpaceOnUse"><stop offset="0" stop-color="#dae0f5"/><stop offset="1" stop-color="#fff"/></linearGradient><linearGradient id="j" x1="541.034" x2="641.013" y1="724.327" y2="724.327" gradientUnits="userSpaceOnUse"><stop offset=".421" stop-color="#c4cae9"/><stop offset=".712" stop-color="#e4e6f5"/><stop offset="1" stop-color="#fff"/></linearGradient><linearGradient id="ay" x1="800.103" x2="837.188" y1="383.574" y2="447.806" xlink:href="#e"/><linearGradient id="az" x1="316.643" x2="416.622" y1="689.534" y2="689.534" xlink:href="#j"/><linearGradient id="aA" x1="207.113" x2="307.092" y1="756.841" y2="756.841" xlink:href="#j"/><linearGradient id="aB" x1="995.228" x2="1032.314" y1="656.503" y2="720.738" xlink:href="#e"/><linearGradient id="aC" x1="734.241" x2="834.219" y1="885.388" y2="885.388" xlink:href="#j"/><linearGradient id="aD" x1="842.98" x2="880.065" y1="135.715" y2="199.948" xlink:href="#b"/><linearGradient id="aE" x1="842.782" x2="942.76" y1="822.722" y2="822.722" xlink:href="#j"/><linearGradient id="aF" x1="734.436" x2="771.52" y1="73.049" y2="137.282" xlink:href="#e"/><linearGradient id="aG" x1="842.782" x2="942.76" y1="948.054" y2="948.054" xlink:href="#j"/><linearGradient id="aH" x1="842.978" x2="880.063" y1="10.38" y2="74.613" xlink:href="#g"/><linearGradient id="aI" x1="734.241" x2="834.219" y1="1010.72" y2="1010.72" xlink:href="#j"/><linearGradient id="aJ" x1="951.522" x2="988.607" y1="73.046" y2="137.279" xlink:href="#e"/><linearGradient id="aK" x1="541.046" x2="615.105" y1="702.776" y2="702.776" xlink:href="#j"/><linearGradient id="aL" x1="781.62" x2="818.705" y1="410.725" y2="474.958" xlink:href="#e"/><linearGradient id="aM" x1="313.573" x2="382.448" y1="684.325" y2="684.325" xlink:href="#e"/><linearGradient id="m" x1="388.83" x2="451.881" y1="1014.754" y2="905.547" gradientUnits="userSpaceOnUse"><stop offset="0" stop-color="#d1d7f3"/><stop offset=".308" stop-color="#dbe0f6"/><stop offset=".83" stop-color="#f6f7fd"/><stop offset=".989" stop-color="#fff"/></linearGradient><linearGradient id="k" x1="1186.401" x2="1221.377" y1="955.825" y2="895.245" gradientTransform="translate(-878.276)" gradientUnits="userSpaceOnUse"><stop offset="0" stop-color="#f6f6fb"/><stop offset="1" stop-color="#ced3f8"/></linearGradient><linearGradient id="l" x1="1154.873" x2="1200.342" y1="949.737" y2="870.983" gradientTransform="translate(-878.276)" gradientUnits="userSpaceOnUse"><stop offset="0" stop-color="#362e93"/><stop offset="1" stop-color="#5652cc"/></linearGradient><linearGradient id="aN" x1="1178.635" x2="1289.272" y1="935.481" y2="935.481" gradientTransform="translate(-878.276)" gradientUnits="userSpaceOnUse"><stop offset=".411" stop-color="#bbc0e6"/><stop offset=".456" stop-color="#b6bce2"/><stop offset=".676" stop-color="#a3a9d0"/></linearGradient><linearGradient id="n" x1="1208.41" x2="1261.194" y1="963.851" y2="872.428" gradientTransform="translate(-878.276)" gradientUnits="userSpaceOnUse"><stop offset="0" stop-color="#a7aed5"/><stop offset=".011" stop-color="#aeb5d8"/><stop offset=".07" stop-color="#d1d5e9"/><stop offset=".126" stop-color="#eaecf5"/><stop offset=".176" stop-color="#fafafc"/><stop offset=".217" stop-color="#fff"/></linearGradient><linearGradient id="aO" x1="1273.902" x2="1308.878" y1="1006.418" y2="945.838" xlink:href="#k"/><linearGradient id="aP" x1="1242.374" x2="1287.843" y1="1000.333" y2="921.578" xlink:href="#l"/><linearGradient id="aQ" x1="959.272" x2="998.433" y1="467.269" y2="535.098" xlink:href="#b"/><linearGradient id="o" x1="1167.215" x2="1300.712" y1="860.809" y2="860.809" gradientTransform="translate(-878.276)" gradientUnits="userSpaceOnUse"><stop offset=".514" stop-color="#ced3f8"/><stop offset=".682" stop-color="#bbc0e6"/></linearGradient><linearGradient id="p" x1="606.387" x2="635.107" y1="762.398" y2="762.398" gradientTransform="rotate(38.071 376.491 506.559)" gradientUnits="userSpaceOnUse"><stop offset="0" stop-color="#d1d7f3"/><stop offset=".51" stop-color="#eef0fb"/><stop offset=".893" stop-color="#fff"/></linearGradient><linearGradient id="q" x1="323.135" x2="422.446" y1="808.639" y2="808.639" gradientUnits="userSpaceOnUse"><stop offset="0" stop-color="#d1d7f3"/><stop offset=".571" stop-color="#eef0fb"/><stop offset="1" stop-color="#fff"/></linearGradient><linearGradient id="aR" x1="1225.972" x2="1263.667" y1="750.61" y2="815.9" gradientTransform="translate(-878.276)" gradientUnits="userSpaceOnUse"><stop offset="0" stop-color="#f6f6fb"/><stop offset=".33" stop-color="#e0e2f3"/><stop offset=".784" stop-color="#bbc0e6"/></linearGradient><linearGradient id="r" x1="86.946" x2="125.376" y1="829.352" y2="873.412" gradientTransform="matrix(-1 0 0 1 541.523 0)" gradientUnits="userSpaceOnUse"><stop offset="0" stop-color="#5652cc"/><stop offset=".282" stop-color="#4944b6"/><stop offset=".866" stop-color="#27227d"/><stop offset="1" stop-color="#1f196f"/></linearGradient><linearGradient id="aS" x1="1229.239" x2="1292.227" y1="749.14" y2="640.042" xlink:href="#m"/><linearGradient id="aT" x1="1147.675" x2="1181.776" y1="690.236" y2="631.172" xlink:href="#k"/><linearGradient id="aU" x1="1116.937" x2="1161.268" y1="684.302" y2="607.518" xlink:href="#l"/><linearGradient id="aV" x1="1139.349" x2="1115.898" y1="327.327" y2="318.721" gradientTransform="rotate(16.333 257.778 416.421)" gradientUnits="userSpaceOnUse"><stop offset="0" stop-color="#1f196f"/><stop offset=".134" stop-color="#27227d"/><stop offset=".718" stop-color="#4944b6"/><stop offset="1" stop-color="#5652cc"/></linearGradient><linearGradient id="aW" x1="1140.105" x2="1247.973" y1="670.403" y2="670.403" gradientUnits="userSpaceOnUse"><stop offset=".411" stop-color="#ced3f8"/><stop offset=".532" stop-color="#bac0e6"/><stop offset=".676" stop-color="#a7aed5"/></linearGradient><linearGradient id="aX" x1="1169.135" x2="1220.596" y1="698.062" y2="608.929" xlink:href="#n"/><linearGradient id="aY" x1="1232.987" x2="1267.087" y1="739.565" y2="680.502" xlink:href="#k"/><linearGradient id="aZ" x1="1202.248" x2="1246.579" y1="733.631" y2="656.848" xlink:href="#l"/><linearGradient id="ba" x1="1128.971" x2="1259.127" y1="597.601" y2="597.601" xlink:href="#o"/><linearGradient id="bb" x1="436.855" x2="476.016" y1="-54.282" y2="13.548" xlink:href="#b"/><linearGradient id="bc" x1="1100.083" x2="1128.803" y1="36.311" y2="36.311" xlink:href="#p"/><linearGradient id="bd" x1="1155.475" x2="1259.134" y1="547.39" y2="547.39" xlink:href="#q"/><linearGradient id="be" x1="1250.775" x2="1188.49" y1="584.942" y2="656.424" xlink:href="#r"/><linearGradient id="bf" x1="1151.69" x2="1186.844" y1="507.719" y2="568.606" gradientUnits="userSpaceOnUse"><stop offset=".202" stop-color="#bbc0e6"/><stop offset=".275" stop-color="#c4c8e9"/><stop offset=".392" stop-color="#dbdef1"/><stop offset=".497" stop-color="#f6f6fb"/></linearGradient><linearGradient id="bg" x1="1199.088" x2="1152.715" y1="561.594" y2="504.108" gradientUnits="userSpaceOnUse"><stop offset="0" stop-color="#1f196f"/><stop offset=".255" stop-color="#2a2582"/><stop offset=".772" stop-color="#4843b4"/><stop offset="1" stop-color="#5652cc"/></linearGradient><linearGradient id="bh" x1="1154.5" x2="1196.609" y1="521.966" y2="521.966" gradientUnits="userSpaceOnUse"><stop offset="0" stop-color="#c4cae8"/><stop offset=".436" stop-color="#e5e7f5"/><stop offset=".717" stop-color="#f6f6fb"/></linearGradient><linearGradient id="bi" x1="1177.818" x2="1217.672" y1="487.199" y2="556.229" gradientUnits="userSpaceOnUse"><stop offset=".472" stop-color="#f6f6fb"/><stop offset=".594" stop-color="#dbdef1"/><stop offset=".73" stop-color="#c4c8e9"/><stop offset=".815" stop-color="#bbc0e6"/></linearGradient></defs><g style="isolation:isolate"><path fill="#dfe4f4" d="M240.152 757.326a2 2 0 0 1-1.002-3.733l127.4-73.555a2 2 0 0 1 2 3.465l-127.4 73.555a1.991 1.991 0 0 1-.998.268ZM881.475 826.07a1.995 1.995 0 0 1-.998-.268l-108.541-62.666a2 2 0 0 1 2-3.465l108.54 62.666a2 2 0 0 1-1.001 3.733Z"/><path fill="#dfe4f4" d="M772.938 888.736a2 2 0 0 1-1.002-3.733l108.54-62.666a2 2 0 1 1 2 3.465l-108.54 62.666a1.992 1.992 0 0 1-.998.268ZM772.938 1014.068a2 2 0 0 1-1.002-3.733l108.54-62.666a2 2 0 1 1 2 3.465l-108.54 62.666a1.99 1.99 0 0 1-.998.268Z"/><path fill="#dfe4f4" d="M881.475 951.402a1.995 1.995 0 0 1-.998-.268l-108.541-62.666a2 2 0 0 1 2-3.465l108.54 62.666a2 2 0 0 1-1.001 3.733Z"/><path fill="#807dfb" d="M765.475 757.097a16.492 16.492 0 0 1 14.921 0c4.12 2.379 4.12 6.236 0 8.615a16.492 16.492 0 0 1-14.921 0c-4.122-2.379-4.122-6.236 0-8.615Z"/><g data-name="Bar graph"><path style="mix-blend-mode:multiply" fill="url(#a)" d="M273.037 561.037H166.52l36.277 20.939-36.277 20.947h106.517l36.272-20.947-36.272-20.939z"/><path style="mix-blend-mode:multiply" fill="url(#s)" d="M201.791 598.503H101.398l36.272 20.944-36.272 20.939h100.393l36.271-20.939-36.271-20.944z"/><path style="mix-blend-mode:multiply" fill="url(#t)" d="M125.789 635.968H36.27l36.275 20.944-36.275 20.943h89.519l36.27-20.943-36.27-20.944z"/><path fill="#ced2f4" d="m130.246 465.62 36.274 20.94v116.357l-36.274-20.943V465.62z"/><path fill="#bbbfe2" d="m202.789 465.62-36.269 20.94v116.357l36.269-20.943V465.62z"/><path fill="#f5f5fa" d="m166.52 444.679-36.274 20.941 36.274 20.94 36.269-20.94-36.269-20.941z"/><path fill="#5652ca" d="m65.123 533.015 36.272 20.94v86.431l-36.272-20.941v-86.43z"/><path fill="#423ead" d="m137.67 533.222-36.275 20.943v86.221l36.275-20.941v-86.223z"/><path fill="#6b67e7" d="m101.395 512.49-36.272 20.943 36.272 20.939 36.275-20.939-36.275-20.943z"/><path fill="#fcba06" d="m0 606.058 36.27 20.943v50.854L0 656.912v-50.854z"/><path fill="#e19100" d="M72.545 606.058 36.27 627.001v50.854l36.275-20.943v-50.854z"/><path fill="#ffd03e" d="M36.27 585.115 0 606.058l36.27 20.943 36.275-20.943-36.275-20.943z"/></g><g data-name="Columns made of person symbols"><path d="M1200.123 325.972c-7.34-4.266-17.016-6.35-26.668-6.275v-.012h-36.777c-9.54-.021-19.102 2.068-26.399 6.281-14.52 8.387-14.601 21.985-.168 30.373 7.313 4.248 16.946 6.334 26.563 6.278v.005h36.781l7.688-.003c9.566.039 11.48-2.055 18.8-6.282 14.528-8.384 14.606-21.984.18-30.365Z" style="mix-blend-mode:multiply" fill="url(#c)"/><path fill="url(#b)" d="M1162.53 329.304c7.312-4.217 10.96-9.76 10.945-15.29l-.036-13.515c.02 5.53-3.628 11.069-10.941 15.29-14.516 8.386-37.988 8.386-52.418.001-7.168-4.166-10.762-9.617-10.773-15.074l.03 13.514c.013 5.457 3.602 10.91 10.774 15.078 14.426 8.38 37.891 8.383 52.418-.004Z"/><path fill="url(#d)" d="M1162.53 342.818c7.312-4.217 10.96-9.76 10.945-15.29l-.036-13.515c.02 5.53-3.628 11.068-10.941 15.29-14.516 8.386-37.988 8.386-52.418.001-7.168-4.166-10.762-9.617-10.773-15.074l.03 13.514c.013 5.457 3.602 10.91 10.774 15.078 14.426 8.38 37.891 8.383 52.418-.004Z"/><path fill="url(#u)" d="M1162.53 356.331c7.312-4.216 10.96-9.76 10.945-15.289l-.036-13.515c.02 5.529-3.628 11.068-10.941 15.289-14.516 8.387-37.988 8.387-52.418.002-7.168-4.166-10.762-9.617-10.773-15.074l.03 13.513c.013 5.457 3.602 10.91 10.774 15.078 14.426 8.381 37.891 8.383 52.418-.004Z"/><path fill="#f6f6fb" d="M1162.498 315.789c14.527-8.383 14.605-21.983.18-30.364-14.43-8.386-37.907-8.388-52.43-.004-14.52 8.385-14.598 21.983-.168 30.37 14.43 8.384 37.902 8.384 52.418-.002Z"/><path fill="#bbc0e6" d="M1133.44 296.59c-.68-1.92.359-4.083 3.113-5.67 4.18-2.417 10.66-2.587 14.476-.383 3.809 2.2 3.512 5.947-.668 8.359a16.562 16.562 0 0 1-9.816 1.793c3.871 4.506 2.558 9.553-1.547 11.92-.988-.578-13.098-7.565-13.098-7.565l-13.105-7.564c4.098-2.37 12.844-3.127 20.644-.89Z"/><path d="M181.352 951.216c-7.34-4.265-17.016-6.35-26.668-6.275v-.012H98.375c-9.537-.021-19.1 2.068-26.398 6.281-14.52 8.387-14.6 21.985-.166 30.373 7.312 4.248 16.943 6.334 26.56 6.278v.006h56.313l7.687-.004c9.566.039 11.48-2.055 18.8-6.282 14.528-8.384 14.606-21.984.18-30.365Z" style="mix-blend-mode:multiply" fill="url(#v)"/><path fill="url(#e)" d="M124.227 873.449c7.312-4.217 10.96-9.76 10.945-15.29l-.033-13.515c.02 5.53-3.631 11.068-10.944 15.289-14.515 8.387-37.988 8.387-52.416.002-7.17-4.166-10.761-9.617-10.775-15.074l.033 13.513c.012 5.457 3.6 10.91 10.774 15.079 14.423 8.38 37.89 8.382 52.416-.004Z"/><path fill="url(#w)" d="M124.227 886.962c7.312-4.216 10.96-9.76 10.945-15.289l-.033-13.515c.02 5.529-3.631 11.068-10.944 15.289-14.515 8.386-37.988 8.386-52.416.002-7.17-4.166-10.761-9.618-10.775-15.075l.033 13.514c.012 5.457 3.6 10.91 10.774 15.078 14.423 8.38 37.89 8.383 52.416-.004Z"/><path fill="url(#x)" d="M124.227 900.476c7.312-4.217 10.96-9.76 10.945-15.29l-.033-13.515c.02 5.53-3.631 11.069-10.944 15.29-14.515 8.386-37.988 8.386-52.416.001-7.17-4.166-10.761-9.617-10.775-15.074l.033 13.514c.012 5.457 3.6 10.91 10.774 15.078 14.423 8.38 37.89 8.383 52.416-.004Z"/><path fill="url(#y)" d="M124.227 913.99c7.312-4.217 10.96-9.76 10.945-15.29l-.033-13.515c.02 5.53-3.631 11.068-10.944 15.289-14.515 8.387-37.988 8.387-52.416.002-7.17-4.166-10.761-9.617-10.775-15.074l.033 13.513c.012 5.457 3.6 10.91 10.774 15.079 14.423 8.38 37.89 8.382 52.416-.004Z"/><path fill="url(#z)" d="M124.227 927.503c7.312-4.216 10.96-9.76 10.945-15.289l-.033-13.515c.02 5.529-3.631 11.068-10.944 15.289-14.515 8.386-37.988 8.386-52.416.002-7.17-4.166-10.761-9.618-10.775-15.075l.033 13.514c.012 5.457 3.6 10.91 10.774 15.078 14.423 8.381 37.89 8.383 52.416-.004Z"/><path fill="url(#A)" d="M124.227 941.02c7.312-4.216 10.96-9.759 10.945-15.288l-.033-13.516c.02 5.53-3.631 11.069-10.944 15.29-14.515 8.386-37.988 8.386-52.416.001-7.17-4.166-10.761-9.617-10.775-15.074l.033 13.514c.012 5.457 3.6 10.91 10.774 15.078 14.423 8.38 37.89 8.383 52.416-.004Z"/><path fill="url(#B)" d="M124.227 954.539c7.312-4.217 10.96-9.76 10.945-15.29l-.033-13.515c.02 5.53-3.631 11.068-10.944 15.289-14.515 8.387-37.988 8.387-52.416.002-7.17-4.166-10.761-9.617-10.775-15.074l.033 13.513c.012 5.457 3.6 10.91 10.774 15.078 14.423 8.381 37.89 8.383 52.416-.003Z"/><path fill="url(#C)" d="M124.227 968.056c7.312-4.217 10.96-9.76 10.945-15.29l-.033-13.515c.02 5.53-3.631 11.069-10.944 15.29-14.515 8.386-37.988 8.386-52.416.001-7.17-4.166-10.761-9.617-10.775-15.074l.033 13.514c.012 5.457 3.6 10.91 10.774 15.078 14.423 8.38 37.89 8.383 52.416-.004Z"/><path fill="url(#D)" d="M124.227 981.574c7.312-4.217 10.96-9.76 10.945-15.29l-.033-13.515c.02 5.53-3.631 11.068-10.944 15.289-14.515 8.387-37.988 8.387-52.416.002-7.17-4.166-10.761-9.617-10.775-15.074l.033 13.513c.012 5.457 3.6 10.91 10.774 15.078 14.423 8.381 37.89 8.383 52.416-.003Z"/><path fill="#f6f6fb" d="M124.195 859.933c14.528-8.383 14.606-21.982.182-30.363-14.43-8.387-37.908-8.39-52.432-.004-14.52 8.385-14.597 21.982-.166 30.369 14.428 8.385 37.9 8.385 52.416-.002Z"/><path fill="#bbc0e6" d="M95.137 840.734c-.68-1.92.361-4.082 3.115-5.67 4.18-2.416 10.658-2.586 14.475-.383 3.81 2.201 3.513 5.947-.666 8.36a16.56 16.56 0 0 1-9.817 1.792c3.871 4.506 2.557 9.553-1.549 11.92-.988-.578-13.097-7.564-13.097-7.564l-13.106-7.565c4.1-2.369 12.844-3.127 20.645-.89Z"/><path d="M243.352 992.1c-7.34-4.265-17.016-6.349-26.668-6.274v-.012h-56.309c-9.537-.022-19.1 2.068-26.398 6.281-14.52 8.387-14.6 21.985-.166 30.373 7.312 4.248 16.943 6.334 26.56 6.278v.005h56.313l7.687-.004c9.566.04 11.48-2.054 18.8-6.28 14.528-8.386 14.606-21.985.18-30.366Z" style="mix-blend-mode:multiply" fill="url(#E)"/><path fill="url(#F)" d="M186.227 968.41c7.312-4.217 10.96-9.76 10.945-15.29l-.033-13.515c.02 5.53-3.631 11.068-10.944 15.289-14.515 8.387-37.988 8.387-52.416.002-7.17-4.166-10.761-9.617-10.775-15.074l.033 13.513c.012 5.457 3.6 10.91 10.774 15.079 14.423 8.38 37.89 8.382 52.416-.004Z"/><path fill="url(#G)" d="M186.227 981.923c7.312-4.217 10.96-9.76 10.945-15.289l-.033-13.516c.02 5.53-3.631 11.069-10.944 15.29-14.515 8.386-37.988 8.386-52.416.001-7.17-4.166-10.761-9.617-10.775-15.074l.033 13.514c.012 5.457 3.6 10.91 10.774 15.078 14.423 8.38 37.89 8.383 52.416-.004Z"/><path fill="url(#H)" d="M186.227 995.437c7.312-4.217 10.96-9.76 10.945-15.29l-.033-13.515c.02 5.53-3.631 11.069-10.944 15.29-14.515 8.386-37.988 8.386-52.416.001-7.17-4.166-10.761-9.617-10.775-15.074l.033 13.514c.012 5.457 3.6 10.91 10.774 15.078 14.423 8.38 37.89 8.383 52.416-.004Z"/><path fill="url(#I)" d="M186.227 1008.95c7.312-4.216 10.96-9.76 10.945-15.288l-.033-13.516c.02 5.53-3.631 11.068-10.944 15.289-14.515 8.387-37.988 8.387-52.416.002-7.17-4.166-10.761-9.617-10.775-15.074l.033 13.513c.012 5.457 3.6 10.91 10.774 15.079 14.423 8.38 37.89 8.382 52.416-.004Z"/><path fill="url(#J)" d="M186.227 1022.464c7.312-4.217 10.96-9.76 10.945-15.289l-.033-13.515c.02 5.529-3.631 11.068-10.944 15.289-14.515 8.386-37.988 8.386-52.416.002-7.17-4.166-10.761-9.618-10.775-15.075l.033 13.514c.012 5.457 3.6 10.91 10.774 15.078 14.423 8.38 37.89 8.383 52.416-.004Z"/><path fill="#f6f6fb" d="M186.195 954.894c14.528-8.383 14.606-21.982.182-30.363-14.43-8.387-37.908-8.39-52.432-.004-14.52 8.385-14.597 21.982-.166 30.369 14.428 8.385 37.9 8.385 52.416-.002Z"/><path fill="#bbc0e6" d="M157.137 935.695c-.68-1.92.361-4.082 3.115-5.67 4.18-2.416 10.658-2.586 14.475-.383 3.81 2.201 3.513 5.947-.666 8.36a16.562 16.562 0 0 1-9.817 1.792c3.871 4.506 2.557 9.553-1.549 11.92a12067 12067 0 0 0-13.097-7.564l-13.106-7.565c4.1-2.369 12.844-3.127 20.645-.89Z"/><path d="M111.82 1015.468c-7.34-4.265-17.015-6.35-26.668-6.275v-.012H48.375c-9.537-.021-19.1 2.068-26.398 6.281-14.52 8.387-14.6 21.985-.166 30.373 7.312 4.248 16.943 6.334 26.56 6.278v.006h36.781l7.688-.004c9.566.039 11.48-2.055 18.8-6.282 14.528-8.384 14.606-21.984.18-30.365Z" style="mix-blend-mode:multiply" fill="url(#K)"/><path fill="url(#f)" d="M74.227 1018.8c7.312-4.217 10.96-9.76 10.945-15.289l-.033-13.515c.02 5.529-3.631 11.068-10.944 15.289-14.515 8.386-37.988 8.386-52.416.002-7.17-4.166-10.761-9.618-10.775-15.075l.033 13.514c.012 5.457 3.6 10.91 10.774 15.078 14.423 8.38 37.89 8.383 52.416-.004Z"/><path fill="url(#L)" d="M74.227 1032.314c7.312-4.217 10.96-9.76 10.945-15.29l-.033-13.515c.02 5.53-3.631 11.069-10.944 15.29-14.515 8.386-37.988 8.386-52.416.001-7.17-4.166-10.761-9.617-10.775-15.074l.033 13.514c.012 5.457 3.6 10.91 10.774 15.078 14.423 8.38 37.89 8.383 52.416-.004Z"/><path fill="url(#M)" d="M74.227 1045.828c7.312-4.217 10.96-9.76 10.945-15.29l-.033-13.515c.02 5.53-3.631 11.068-10.944 15.289-14.515 8.387-37.988 8.387-52.416.002-7.17-4.166-10.761-9.617-10.775-15.074l.033 13.513c.012 5.457 3.6 10.91 10.774 15.078 14.423 8.381 37.89 8.383 52.416-.003Z"/><path fill="#f6f6fb" d="M74.195 1005.285c14.528-8.383 14.606-21.983.182-30.364-14.43-8.386-37.908-8.388-52.432-.004-14.52 8.385-14.597 21.983-.166 30.37 14.428 8.384 37.9 8.384 52.416-.002Z"/><path fill="#bbc0e6" d="M45.137 986.085c-.68-1.92.361-4.082 3.115-5.67 4.18-2.416 10.658-2.585 14.475-.382 3.81 2.2 3.513 5.947-.666 8.359a16.56 16.56 0 0 1-9.817 1.793c3.871 4.506 2.557 9.553-1.549 11.92-.988-.578-13.097-7.565-13.097-7.565l-13.106-7.564c4.1-2.37 12.844-3.127 20.645-.89Z"/><path d="M1103.654 362.72c-7.34-4.265-17.015-6.35-26.668-6.275v-.012h-56.308c-9.54-.021-19.102 2.068-26.399 6.281-14.52 8.387-14.601 21.985-.168 30.373 7.313 4.248 16.946 6.334 26.563 6.278v.006h56.312l7.688-.004c9.566.039 11.48-2.055 18.8-6.282 14.528-8.384 14.606-21.984.18-30.365Z" style="mix-blend-mode:multiply" fill="url(#N)"/><path fill="url(#g)" d="M1046.53 311.99c7.312-4.216 10.96-9.76 10.945-15.288l-.036-13.516c.02 5.53-3.628 11.068-10.941 15.289-14.516 8.387-37.988 8.387-52.418.002-7.168-4.166-10.762-9.617-10.773-15.074l.03 13.513c.013 5.457 3.602 10.91 10.774 15.079 14.426 8.38 37.891 8.382 52.418-.004Z"/><path fill="url(#O)" d="M1046.53 325.504c7.312-4.216 10.96-9.76 10.945-15.289l-.036-13.515c.02 5.529-3.628 11.068-10.941 15.289-14.516 8.386-37.988 8.386-52.418.002-7.168-4.166-10.762-9.618-10.773-15.075l.03 13.514c.013 5.457 3.602 10.91 10.774 15.078 14.426 8.38 37.891 8.383 52.418-.004Z"/><path fill="url(#P)" d="M1046.53 339.018c7.312-4.217 10.96-9.76 10.945-15.29l-.036-13.515c.02 5.53-3.628 11.069-10.941 15.29-14.516 8.386-37.988 8.386-52.418.001-7.168-4.166-10.762-9.617-10.773-15.074l.03 13.514c.013 5.457 3.602 10.91 10.774 15.078 14.426 8.38 37.891 8.383 52.418-.004Z"/><path fill="url(#Q)" d="M1046.53 352.532c7.312-4.217 10.96-9.76 10.945-15.29l-.036-13.515c.02 5.53-3.628 11.068-10.941 15.289-14.516 8.387-37.988 8.387-52.418.002-7.168-4.166-10.762-9.617-10.773-15.074l.03 13.513c.013 5.457 3.602 10.91 10.774 15.079 14.426 8.38 37.891 8.382 52.418-.004Z"/><path fill="url(#R)" d="M1046.53 366.045c7.312-4.216 10.96-9.76 10.945-15.289l-.036-13.515c.02 5.529-3.628 11.068-10.941 15.289-14.516 8.386-37.988 8.386-52.418.002-7.168-4.166-10.762-9.618-10.773-15.075l.03 13.514c.013 5.457 3.602 10.91 10.774 15.078 14.426 8.381 37.891 8.383 52.418-.004Z"/><path fill="url(#S)" d="M1046.53 379.563c7.312-4.217 10.96-9.76 10.945-15.29l-.036-13.515c.02 5.53-3.628 11.069-10.941 15.29-14.516 8.386-37.988 8.386-52.418.001-7.168-4.166-10.762-9.617-10.773-15.074l.03 13.514c.013 5.457 3.602 10.91 10.774 15.078 14.426 8.38 37.891 8.383 52.418-.004Z"/><path fill="url(#T)" d="M1046.53 393.08c7.312-4.216 10.96-9.76 10.945-15.289l-.036-13.515c.02 5.53-3.628 11.068-10.941 15.289-14.516 8.387-37.988 8.387-52.418.002-7.168-4.166-10.762-9.617-10.773-15.074l.03 13.513c.013 5.457 3.602 10.91 10.774 15.078 14.426 8.381 37.891 8.383 52.418-.004Z"/><path fill="#f6f6fb" d="M1046.498 298.475c14.527-8.383 14.605-21.982.18-30.363-14.43-8.387-37.907-8.39-52.43-.004-14.52 8.385-14.598 21.982-.168 30.369 14.43 8.385 37.902 8.385 52.418-.002Z"/><path fill="#bbc0e6" d="M1017.44 279.276c-.68-1.92.359-4.082 3.113-5.67 4.18-2.416 10.66-2.586 14.476-.383 3.809 2.201 3.512 5.947-.668 8.36a16.56 16.56 0 0 1-9.816 1.792c3.871 4.506 2.558 9.553-1.547 11.92-.988-.578-13.098-7.564-13.098-7.564l-13.105-7.565c4.098-2.369 12.844-3.127 20.644-.89Z"/><path d="M1165.654 403.605c-7.34-4.266-17.015-6.35-26.668-6.275v-.012h-56.308c-9.54-.022-19.102 2.068-26.399 6.28-14.52 8.388-14.601 21.985-.168 30.374 7.313 4.248 16.946 6.334 26.563 6.277v.006h56.312l7.688-.004c9.566.04 11.48-2.054 18.8-6.28 14.528-8.386 14.606-21.985.18-30.366Z" style="mix-blend-mode:multiply" fill="url(#U)"/><path fill="url(#V)" d="M1108.53 379.914c7.312-4.217 10.96-9.76 10.945-15.29l-.036-13.515c.02 5.53-3.628 11.068-10.941 15.289-14.516 8.387-37.988 8.387-52.418.002-7.168-4.166-10.762-9.617-10.773-15.074l.03 13.513c.013 5.457 3.602 10.91 10.774 15.078 14.426 8.381 37.891 8.383 52.418-.003Z"/><path fill="url(#W)" d="M1108.53 393.427c7.312-4.217 10.96-9.76 10.945-15.289l-.036-13.516c.02 5.53-3.628 11.069-10.941 15.29-14.516 8.386-37.988 8.386-52.418.002-7.168-4.167-10.762-9.618-10.773-15.075l.03 13.514c.013 5.457 3.602 10.91 10.774 15.078 14.426 8.38 37.891 8.383 52.418-.004Z"/><path fill="url(#X)" d="M1108.53 406.94c7.312-4.216 10.96-9.76 10.945-15.288l-.036-13.516c.02 5.53-3.628 11.068-10.941 15.29-14.516 8.386-37.988 8.386-52.418.001-7.168-4.166-10.762-9.617-10.773-15.074l.03 13.513c.013 5.457 3.602 10.91 10.774 15.079 14.426 8.38 37.891 8.383 52.418-.004Z"/><path fill="url(#Y)" d="M1108.53 420.455c7.312-4.217 10.96-9.76 10.945-15.29l-.036-13.515c.02 5.53-3.628 11.068-10.941 15.289-14.516 8.387-37.988 8.387-52.418.002-7.168-4.166-10.762-9.617-10.773-15.074l.03 13.513c.013 5.457 3.602 10.91 10.774 15.078 14.426 8.381 37.891 8.383 52.418-.003Z"/><path fill="url(#Z)" d="M1108.53 433.968c7.312-4.217 10.96-9.76 10.945-15.289l-.036-13.515c.02 5.529-3.628 11.068-10.941 15.289-14.516 8.386-37.988 8.386-52.418.002-7.168-4.166-10.762-9.618-10.773-15.075l.03 13.514c.013 5.457 3.602 10.91 10.774 15.078 14.426 8.38 37.891 8.383 52.418-.004Z"/><path fill="#f6f6fb" d="M1108.498 366.398c14.527-8.383 14.605-21.983.18-30.363-14.43-8.387-37.907-8.39-52.43-.004-14.52 8.384-14.598 21.982-.168 30.369 14.43 8.385 37.902 8.385 52.418-.002Z"/><path fill="#bbc0e6" d="M1079.44 347.199c-.68-1.92.359-4.082 3.113-5.67 4.18-2.416 10.66-2.586 14.476-.383 3.809 2.2 3.512 5.947-.668 8.36a16.562 16.562 0 0 1-9.816 1.792c3.871 4.506 2.558 9.553-1.547 11.92-.988-.578-13.098-7.564-13.098-7.564l-13.105-7.565c4.098-2.369 12.844-3.127 20.644-.89Z"/></g><g data-name="Share symbol"><path fill="url(#aa)" d="M858.348 144.968c12.595-7.271 24.007-7.948 32.246-3.165l11.584 6.756c-8.252-4.791-19.653-4.116-32.252 3.15-25.026 14.46-45.242 49.48-45.17 78.236.04 14.286 5.09 24.33 13.219 29.062l-11.577-6.744c-8.136-4.726-13.171-14.78-13.222-29.068-.086-28.76 20.135-63.782 45.172-78.227Z"/><path fill="#dfe4f4" d="M869.926 151.708c25.021-14.44 45.388-2.846 45.465 25.905.078 28.759-20.15 63.79-45.172 78.236-25.02 14.456-45.38 2.85-45.463-25.904-.072-28.756 20.144-63.777 45.17-78.237Z"/><path fill="#423eaf" d="M888.684 212.785a12.728 12.728 0 0 0-4.44 4.74l-22.752-1.863a14.968 14.968 0 0 0 .508-3.682 7.993 7.993 0 0 0-.885-3.908l17.727-25.168a4.607 4.607 0 0 0 3.914-.61 13.709 13.709 0 0 0 6.197-10.732c-.002-3.955-2.773-5.556-6.2-3.58a13.676 13.676 0 0 0-6.196 10.734 5.94 5.94 0 0 0 .445 2.378l-17.713 25.146c-1.572-.832-3.703-.677-6.055.68-4.843 2.79-8.771 9.591-8.765 15.184 0 5.589 3.924 7.854 8.765 5.059a18.33 18.33 0 0 0 6.725-7.515l22.766 1.867a9.917 9.917 0 0 0-.24 2.007c0 3.956 2.775 5.558 6.193 3.578a13.677 13.677 0 0 0 6.199-10.733c.002-3.952-2.77-5.555-6.193-3.582Z"/></g><path fill="#5652cc" d="M1205.613 417.918c-10.185-17.64-26.701-27.186-36.89-21.301-10.192 5.879-10.192 24.953 0 42.596l18.445 31.947 18.445-10.647c10.188-5.879 10.182-24.95 0-42.595Zm-18.445 24.86c-6.797-3.925-12.305-13.47-12.305-21.315 0-7.851 5.508-11.031 12.305-7.11 6.797 3.925 12.305 13.469 12.305 21.32 0 7.845-5.508 11.028-12.305 7.106Z" data-name="Location mark"/><g data-name="Pie chart"><path fill="url(#ab)" d="M206.443 98.613v34.481c-39.812 22.986-72.089 78.89-72.089 124.864l-29.86 17.239c0-65.015 45.646-144.074 101.95-176.584Z"/><path fill="#5652ca" d="M206.443 133.094V98.613c20.301-11.721 39.168-15.68 55.057-13.045l-16.127 38.3c-11.234-1.864-24.574.937-38.93 9.226Z"/><path fill="url(#ac)" d="M265.559 229.78c-13.03 29.067-34.63 55.665-59.116 69.799-39.812 22.988-72.089 4.353-72.089-41.62 0-45.975 32.277-101.88 72.09-124.865V98.613c-56.304 32.51-101.95 111.569-101.95 176.584 0 65.017 45.646 91.37 101.95 58.863 34.624-19.991 65.171-57.605 83.597-98.712Z"/><path fill="#d8def3" d="M278.535 174.714c0-29.398-13.232-47.542-33.162-50.846l16.127-38.3c28.184 4.672 46.896 30.33 46.896 71.907 0 25.033-6.816 52.133-18.355 77.873l-24.482-5.568c8.156-18.201 12.976-37.363 12.976-55.066Z"/><path fill="#6b67e9" d="M207.873 197.247a22.755 22.755 0 0 0-9.162 9.877 34.06 34.06 0 0 0-3.185 15.275v7.78q.082 8.464 3.246 11.192 3.163 2.733 9.152-.726a22.652 22.652 0 0 0 9.201-9.957 34.363 34.363 0 0 0 3.139-15.227v-7.78q-.07-8.462-3.24-11.174-3.173-2.714-9.151.74Zm5.129 23.91a23.708 23.708 0 0 1-1.234 8.085 8.746 8.746 0 0 1-3.844 4.631q-2.687 1.555-3.912-.253-1.216-1.817-1.217-6.98v-10.281a22.216 22.216 0 0 1 1.291-7.877 8.808 8.808 0 0 1 3.787-4.463q2.637-1.523 3.88.157 1.252 1.671 1.249 6.929Zm43.287-25.73q-2.209-1.094-5.775.964a15.981 15.981 0 0 0-5.735 5.71 14.511 14.511 0 0 0-2.209 7.594v2.148c0 2.653.733 4.36 2.186 5.123q2.197 1.152 5.81-.94a15.77 15.77 0 0 0 5.758-5.722 14.556 14.556 0 0 0 2.16-7.536v-2.088q0-4.154-2.195-5.253Zm-2.656 10.12a6.098 6.098 0 0 1-3.067 5.718 2.034 2.034 0 0 1-2.263.166 2.502 2.502 0 0 1-.903-2.225v-2.197a6.979 6.979 0 0 1 .856-3.406 5.962 5.962 0 0 1 2.258-2.374 2.099 2.099 0 0 1 2.265-.24 2.65 2.65 0 0 1 .856 2.33Zm-14.858-8.9a14.447 14.447 0 0 0 2.184-7.564v-2.09q0-4.098-2.188-5.23-2.185-1.132-5.775.94a15.717 15.717 0 0 0-5.734 5.736 14.743 14.743 0 0 0-2.194 7.582v2.059q.012 4.067 2.203 5.194 2.198 1.128 5.774-.937a15.916 15.916 0 0 0 5.73-5.69Zm-8.005 1.179a2.597 2.597 0 0 1-.87-2.325l.002-2.136a7.098 7.098 0 0 1 .852-3.462 5.929 5.929 0 0 1 2.242-2.362c.97-.561 1.73-.637 2.283-.237a2.765 2.765 0 0 1 .828 2.361l.004 2.164a7.159 7.159 0 0 1-.828 3.375 5.845 5.845 0 0 1-2.238 2.373 2.13 2.13 0 0 1-2.275.249Zm18.039-19.762-17.877 43.339 3.543.157 17.875-43.339Zm-87.114 52.416 20.012-11.554-14.496 44.59 7.897-4.56 14.71-44.963v-7.245l-28.123 16.238Z"/></g><path d="M1223.908 836.859c-13.758-7.942-32.047-11.602-50.008-11.063h-28.156v4.614a74.82 74.82 0 0 0-14.902 6.449c-25.602 14.89-25.455 39.023.316 53.91a75.166 75.166 0 0 0 14.586 6.324v4.817h33.774c16.238-.27 32.34-3.954 44.699-11.133 25.613-14.895 25.482-39.028-.309-53.918Z" style="mix-blend-mode:multiply" fill="url(#ad)"/><path fill="#ffe54c" d="M1081.582 846.335c-.002-9.523 6.291-19.043 18.877-26.316 12.586-7.262 29.082-10.898 45.578-10.898 16.49 0 32.984 3.636 45.57 10.898 12.584 7.273 18.877 16.789 18.88 26.312.003 9.524-6.294 19.051-18.88 26.317-12.582 7.266-29.074 10.898-45.566 10.898-16.496 0-32.992-3.636-45.578-10.898-12.586-7.266-18.877-16.793-18.881-26.313Z"/><path fill="url(#h)" d="M1191.607 872.648c-12.582 7.266-29.074 10.898-45.566 10.898-16.496 0-32.992-3.636-45.578-10.898-12.586-7.266-18.877-16.793-18.881-26.313v18.371c.004 9.516 6.295 19.043 18.88 26.305 12.587 7.274 29.083 10.903 45.579 10.903 16.492 0 32.984-3.63 45.566-10.895 12.586-7.27 18.883-16.797 18.88-26.316V846.33c.003 9.524-6.294 19.051-18.88 26.317Z"/><path fill="#ffd03e" d="M1109.025 867.699c10.221 5.906 23.618 8.855 37.016 8.855 13.39 0 26.787-2.95 37.006-8.851 9.428-5.446 14.502-12.454 15.224-19.575-.722-7.129-5.796-14.132-15.224-19.578-10.223-5.906-23.617-8.855-37.014-8.851-13.392-.004-26.789 2.945-37.013 8.851-9.428 5.446-14.497 12.446-15.227 19.574.73 7.125 5.799 14.133 15.232 19.575Z"/><path fill="#e19100" d="M1109.02 828.55c10.224-5.906 23.62-8.855 37.013-8.851 13.397-.004 26.791 2.945 37.014 8.851 9.428 5.446 14.502 12.45 15.224 19.578a17.234 17.234 0 0 0 .106-1.797c0-7.734-5.11-15.464-15.33-21.367-10.223-5.898-23.617-8.851-37.014-8.851-13.392 0-26.789 2.953-37.013 8.851-10.221 5.903-15.33 13.637-15.329 21.371a17.638 17.638 0 0 0 .102 1.79c.73-7.13 5.799-14.13 15.227-19.575Z"/><path fill="#e19100" d="m1171.82 838.648 4.951-2.859v-3.579l-4.951 2.86v3.578z"/><path fill="#ffe54c" d="M1148.982 844.632c-1.843-1.066-2.863-2.484-2.863-3.992 0-1.504 1.02-2.922 2.867-3.988a15.304 15.304 0 0 1 13.823 0c3.81 2.199 3.81 5.78 0 7.984l6.273 3.617c6.188-3.57 7.092-9.047 2.738-13.183l4.951-2.86-6.271-3.625-4.951 2.864c-7.164-2.508-16.649-1.993-22.836 1.582-3.527 2.035-5.465 4.738-5.461 7.609-.004 2.879 1.937 5.578 5.46 7.613 3.81 2.2 3.811 5.778 0 7.985a15.316 15.316 0 0 1-13.827 0c-3.809-2.207-3.809-5.782.004-7.985l-6.27-3.617c-6.193 3.574-7.094 9.043-2.75 13.184l-4.566 2.633 6.275 3.625 4.567-2.641c7.17 2.512 16.652 1.996 22.841-1.578 7.268-4.195 7.268-11.028-.004-15.227Z"/><path fill="#fbba05" d="m1115.303 864.035 6.275 3.625v-3.582l-6.275-3.625v3.582z"/><path fill="#e19100" d="m1121.578 867.66 4.567-2.637v-3.586l-4.567 2.641v3.582z"/><path fill="#fbba05" d="m1162.809 848.214 6.273 3.617v-3.578l-6.273-3.617v3.578z"/><path fill="#e19100" d="M1128.889 851.831v-3.578c-2.707 1.563-3.48 3.817-2.348 5.778a6.264 6.264 0 0 1 2.348-2.2Z"/><path fill="#fbba05" d="m1117.176 852.062.008 4.039.01-.008a6.831 6.831 0 0 0 .777 2.824l1.898-1.097a7.705 7.705 0 0 1-2.683-5.746ZM1142.713 851.831a6.318 6.318 0 0 1 2.346 2.2c1.132-1.961.357-4.215-2.346-5.778-3.524-2.035-5.465-4.734-5.461-7.613v3.586c-.004 2.87 1.937 5.574 5.46 7.605ZM1154.436 852.226v-.07h-.006c0 .02.006.047.006.07Z"/><path fill="#e19100" d="M1174.51 840.636c.008 2.758-1.793 5.52-5.428 7.617v3.578c3.73-2.148 5.525-4.992 5.422-7.82l.014.02v-3.395Z"/><path fill="url(#ae)" d="M1148.986 859.859c-6.19 3.574-15.672 4.09-22.841 1.578v3.586c7.17 2.508 16.652 1.992 22.841-1.582 3.604-2.086 5.418-4.813 5.446-7.547l.004.008v-3.637c-.012 2.75-1.825 5.5-5.45 7.594Z"/><path fill="#e19100" d="M1162.809 836.652a15.304 15.304 0 0 0-13.823 0c-1.847 1.066-2.867 2.484-2.867 3.988a3.568 3.568 0 0 0 .51 1.793 6.309 6.309 0 0 1 2.357-2.2 15.316 15.316 0 0 1 13.823-.003 6.261 6.261 0 0 1 2.347 2.207c1.133-1.969.358-4.227-2.347-5.785Z"/><g data-name="Right laptop"><path d="M1328.47 365.337H757.099c-14.243 0-31.75 3.378-38.928 7.496 7.178-4.082 18.81-4.082 25.937.045l298.088 172.104c.217.119.285.305.483.433L1341.5 372.863c7.164-4.125 1.297-7.526-13.03-7.526Z" style="mix-blend-mode:multiply" fill="url(#af)"/><path fill="#20196f" d="M269.242 612.353c0 8.281 5.828 11.66 12.992 7.525l437.352-252.511c7.164-4.125 13.039-14.272 13.039-22.532V14.956c0-8.26-5.875-11.66-13.039-7.506L282.234 259.926c-7.164 4.14-12.992 14.287-12.992 22.554Z"/><path fill="url(#ag)" d="M272.418 254.257 709.778 1.765c3.617-2.102 6.929-2.255 9.279-.838V.912l9.343 5.431h-.033c-2.336-1.132-5.396-.847-8.781 1.107L282.234 259.926c-7.164 4.14-12.992 14.287-12.992 22.554v329.873c0 4.111 1.43 6.994 3.758 8.379l-9.36-5.436h.02c-2.582-1.228-4.25-4.232-4.25-8.613V276.81c0-8.275 5.846-18.405 13.008-22.554Z"/><path fill="#f6f6fb" d="m282.234 599.675 437.352-252.511V22.472L282.234 274.96v324.715z"/><path fill="#f1f1f6" d="M578.822 796.81c7.162 4.125 18.875 4.125 26.051 0l437.322-252.494c7.164-4.152 7.164-10.914 0-15.04L744.107 357.153c-7.18-4.125-18.884-4.125-26.054 0L280.719 609.673c-7.164 4.125-7.164 10.893 0 15.035Z"/><path fill="#c4cae9" d="m717.619 392.968 21.354-12.34-10.69-6.164-21.373 12.334 10.709 6.17zM681.578 413.765l21.399-12.326-10.698-6.199-21.373 12.361 10.672 6.164zM645.559 434.576l21.388-12.35-10.683-6.178-21.405 12.358 10.7 6.17zM609.525 455.374l21.405-12.351-10.715-6.174-21.369 12.344 10.679 6.181zM573.521 476.15l21.374-12.328-10.674-6.186-21.409 12.365 10.709 6.149zM537.506 496.953l21.359-12.344-10.681-6.162-21.391 12.349 10.713 6.157zM501.457 517.775l21.389-12.356-10.692-6.175-21.353 12.339 10.656 6.192zM465.441 538.546l21.411-12.34-10.707-6.162-21.377 12.35 10.673 6.152zM429.428 559.357l21.392-12.34-10.687-6.186-21.405 12.342 10.7 6.184zM393.432 580.148l21.369-12.344-10.696-6.183-21.414 12.347 10.741 6.18zM357.348 600.955l21.406-12.348-10.697-6.178-21.373 12.348 10.664 6.178zM321.348 621.744l21.408-12.342-10.713-6.186-21.404 12.35 10.709 6.178zM736.566 423.621l38.426-22.182-21.375-12.363-38.443 22.224 21.392 12.321zM756.457 452.013l53.086-30.654-21.406-12.334-53.073 30.627 21.393 12.361zM777.859 481.265l67.7-39.113-21.385-12.35-67.717 39.119 21.402 12.344zM850.687 489.525l38.471-22.19-28.974-16.728-38.43 22.193 28.933 16.725zM797.613 520.179l38.453-22.203-28.957-16.711-38.461 22.207 28.965 16.707zM744.525 550.816l38.461-22.211-28.968-16.691-38.428 22.195 28.935 16.707zM561.461 656.49l38.48-22.182-28.949-16.727-38.469 22.208 28.938 16.701zM471.543 708.449l75.396-43.545-28.988-16.721-75.396 43.545 28.988 16.721zM614.502 625.906l115.393-66.629-28.963-16.721-115.401 66.613 28.971 16.737zM690.465 450.247l31.471-18.173-21.393-12.35-31.484 18.16 21.406 12.363zM710.375 478.634l31.451-18.179-21.392-12.356-31.481 18.172 21.422 12.363zM730.742 507.3l31.471-18.174-21.387-12.349-31.451 18.183 21.367 12.34zM684.67 533.937l31.455-18.19-21.412-12.339-31.455 18.172 21.412 12.357zM638.561 560.54l31.451-18.171-21.377-12.34-31.467 18.166 21.393 12.345zM592.436 587.162l31.48-18.174-21.404-12.362-31.451 18.172 21.375 12.364zM546.367 613.798l31.44-18.205-21.391-12.346-31.457 18.19 21.408 12.361zM500.262 640.38l31.418-18.166-21.338-12.347-31.467 18.173 21.387 12.34zM426.941 682.718l58.641-33.885-21.371-12.332-58.676 33.871 21.406 12.346zM664.252 505.232l31.445-18.151-21.371-12.361-31.471 18.172 21.397 12.34zM618.154 531.853l31.465-18.156-21.387-12.358-31.484 18.168 21.406 12.346zM572.037 558.49l31.49-18.184-21.406-12.332-31.453 18.143 21.369 12.373zM525.949 585.111l31.467-18.168-21.393-12.362-31.486 18.19 21.412 12.34zM479.822 611.732l31.496-18.174-21.4-12.355-31.473 18.156 21.377 12.373zM391.863 662.478l73.344-42.299-21.391-12.363-73.328 42.316 21.375 12.346zM644.357 476.861l31.446-18.155-21.387-12.361-31.451 18.174 21.392 12.342zM598.266 503.488l31.468-18.172-21.39-12.35-31.489 18.172 21.411 12.35zM552.152 530.093l31.481-18.168-21.406-12.34-31.463 18.174 21.388 12.334zM506.059 556.724l31.447-18.178-21.354-12.351-31.5 18.172 21.407 12.357zM459.932 583.328l31.502-18.174-21.409-12.35-31.466 18.184 21.373 12.34zM413.85 609.949l31.466-18.19-21.384-12.334-31.455 18.16 21.373 12.364zM357.348 642.544l41.879-24.142-21.426-12.346-41.832 24.149 21.379 12.339z"/><path fill="#6b67e9" d="m336.957 589.162 345.609-199.504-10.379-5.998-345.593 199.519 10.363 5.983z"/><path fill="#dae0f5" d="m614.502 651.681 176.33-101.816 109.6 63.267-176.346 101.817-109.584-63.268z"/><path fill="url(#ah)" d="M280.719 624.708 578.822 796.81c5.682 3.287 14.258 3.947 21.108 2.016.045-.022 4.277-1.633 4.943-2.016l437.322-252.494a11.181 11.181 0 0 0 1.37-.916c.03-.014.064-.03.064-.053a1.121 1.121 0 0 0 .334-.267c.264-.198.498-.381.746-.592.098-.104.22-.203.32-.324a6.656 6.656 0 0 0 .729-.815l.123-.098a.227.227 0 0 0 .014-.068 7.625 7.625 0 0 0 .716-1.02 6.598 6.598 0 0 0 .932-3.11h.018v6.294h-.018c0 2.748-1.746 5.498-5.348 7.617L604.873 803.437c-10.477 5.19-25.37 4.17-29.816 3.2-4.414-.983-8.407-2.085-13.059-3.102L280.718 641.16c-3.616-2.09-5.384-4.875-5.365-7.61v-16.287c.03 2.682 1.8 5.377 5.366 7.445Z"/><path d="M744.107 357.152c-7.127-4.109-18.76-4.109-25.937-.029-.02.023-.045.023-.084.029L280.719 609.673a11.836 11.836 0 0 0-2.551 2.207c-1.969 3.047 3.965 5.28 15.576 5.28h571.358c14.318 0 31.896-3.362 39.076-7.487l138.5-79.984c-.198-.121-.266-.3-.483-.412Z" style="mix-blend-mode:multiply" fill="url(#ai)"/><g data-name="Shapes on screen"><path fill="#ced3f8" d="M296.832 311.728 703.738 76.814v-4.001L296.83 307.726l.002 4.002zM664.557 77.3a16.212 16.212 0 0 1 7.336-12.704c4.05-2.339 7.335-.443 7.335 4.234a16.213 16.213 0 0 1-7.335 12.704c-4.051 2.338-7.336.443-7.336-4.234ZM641.193 90.788a16.212 16.212 0 0 1 7.336-12.705c4.051-2.338 7.336-.443 7.336 4.234a16.214 16.214 0 0 1-7.336 12.704c-4.05 2.339-7.336.443-7.336-4.233ZM617.83 104.275a16.212 16.212 0 0 1 7.336-12.704c4.05-2.34 7.336-.444 7.336 4.233a16.213 16.213 0 0 1-7.336 12.704c-4.05 2.339-7.336.444-7.336-4.233ZM594.467 117.762a16.212 16.212 0 0 1 7.336-12.704c4.05-2.339 7.336-.443 7.336 4.233a16.214 16.214 0 0 1-7.336 12.705c-4.051 2.338-7.336.443-7.336-4.234ZM294.926 288.349c0-9.025 6.338-19.998 14.154-24.509 7.816-4.512 14.154-.855 14.154 8.166 0 9.024-6.338 20-14.154 24.51-7.816 4.513-14.154.856-14.154-8.167Z"/><path fill="#807dfb" d="m405.619 232.704-58.754 33.921v-15.547l58.754-33.921v15.547zM311.014 506.849l95.939-55.393v8.836l-95.939 55.393v-8.836zM311.014 524.849l120.304-69.461v8.836l-120.304 69.461v-8.836zM311.014 542.849l72.377-41.789v8.836l-72.377 41.789v-8.836zM450.156 408.117l-139.142 80.334.002-160.667 139.142-80.333-.002 160.666z"/><path fill="#6b67e9" d="m328.332 317.787-17.316 29.993v10.605l26.502-45.902Zm69.438-40.091-86.754 150.266v10.606l95.937-166.174Zm-23.145 13.363-63.61 110.175-.001 10.607 72.795-126.085Zm-23.145 13.363-40.464 70.085-.002 10.606 49.648-85.992Zm92.582-53.453L311.016 481.417l-.002 7.034 3.095-1.787 136.047-235.645.002-3.568ZM429.84 419.845l20.318-35.19-.002-10.605-29.502 51.1Zm-23.149 13.363 43.465-75.283v-10.601l-52.648 91.185Zm-23.142 13.366 66.61-115.375-.003-10.604-75.793 131.28ZM337.254 473.3l112.904-195.556-.002-10.604L328.07 478.6Zm83.664-208.968L311.014 454.69v10.607L430.102 259.03ZM360.4 459.937l89.758-155.465-.002-10.606-98.941 171.372Z"/><path fill="#ced3f8" d="m570.562 276.768 130.481-75.334v8.836l-130.481 75.334v-8.836zM570.562 293.768l130.481-75.334v8.836l-130.481 75.334v-8.836zM570.562 310.768l130.481-75.334v8.836l-130.481 75.334v-8.836zM570.562 327.768l130.481-75.334v8.836l-130.481 75.334v-8.836zM570.562 344.768l130.481-75.334v8.836l-130.481 75.334v-8.836zM570.562 361.768l130.481-75.334v8.836l-130.481 75.334v-8.836z"/><path fill="#807dfb" d="m701.043 187.934-130.481 75.334-.001-85.331 130.48-75.333.002 85.33z"/><path fill="#ced3f8" d="m554.145 412.224-88.893 51.324-.002-224.809 88.893-51.323.002 224.808z"/></g></g><g><path style="mix-blend-mode:multiply" fill="url(#aj)" d="M900.232 600.847v-38.969l-226.759 21.631-33.848 11.166 26.596 15.354 234.011-9.182z"/><path fill="url(#ak)" d="M546.406 350.43c5.494-9.51 13.08-17.813 21.46-22.655 8.38-4.836 15.968-5.293 21.46-2.123l35.955 20.758-42.92 74.34-35.957-20.758c-5.488-3.174-8.886-9.973-8.886-19.65 0-9.68 3.398-20.403 8.888-29.913Z"/><path fill="#5652cc" d="M625.281 395.97c5.494-9.512 8.885-20.238 8.885-29.914 0-9.674-3.39-16.476-8.885-19.646-5.494-3.168-13.078-2.713-21.459 2.123-8.383 4.84-15.967 13.144-21.46 22.652-5.495 9.51-8.891 20.234-8.891 29.914 0 9.678 3.396 16.477 8.89 19.65 5.49 3.17 13.078 2.711 21.461-2.127 8.38-4.84 15.965-13.138 21.46-22.652Z"/><path fill="url(#al)" d="M535.477 344.12c5.494-9.51 13.08-17.814 21.46-22.652 8.38-4.838 15.965-5.295 21.46-2.123l10.927 6.309c-5.49-3.168-13.078-2.713-21.459 2.123-8.379 4.84-15.969 13.142-21.459 22.652-5.49 9.51-8.888 20.233-8.888 29.912 0 9.678 3.398 16.477 8.886 19.65l-10.93-6.306c-5.49-3.176-8.888-9.975-8.888-19.652 0-9.68 3.398-20.403 8.89-29.912Z"/><path fill="#5652cc" d="m639.625 594.675 26.596 15.354-16.924-143.77-55.608-32.103 45.936 160.519z"/><path fill="#362e94" d="m666.221 610.029 19.34-11.166-16.922-143.772-19.342 11.168 16.924 143.77z"/><path fill="url(#am)" d="M569.434 363.726a26.012 26.012 0 0 1 8.964-9.475l67.743-39.111c3.494-2.018 6.67-2.2 8.972-.87l118.147 68.212-85.688 148.408-118.144-68.21c-2.305-1.33-3.73-4.173-3.73-8.206v-78.227a26.026 26.026 0 0 1 3.736-12.521Z"/><path fill="#5652cc" d="M776.988 390.68c0-4.032-1.43-6.874-3.728-8.198-2.305-1.332-5.477-1.15-8.975.867l-67.74 39.11a28.191 28.191 0 0 0-12.705 22.001v78.225c0 4.031 1.428 6.875 3.732 8.205 2.305 1.324 5.479 1.147 8.973-.873l67.742-39.113a28.173 28.173 0 0 0 12.701-21.996Z"/><path fill="url(#i)" d="m663.152 332.708-48.92 28.247c-2.388 1.376-6.56 1.203-9.316-.387-2.758-1.59-3.057-4-.67-5.38l48.924-28.243c2.387-1.38 6.553-1.207 9.312.388 2.756 1.59 3.057 3.998.67 5.375Z"/><path fill="url(#an)" d="m682.752 344.029-48.918 28.242c-2.387 1.379-6.56 1.205-9.316-.387-2.758-1.59-3.057-3.996-.668-5.377l48.92-28.244c2.388-1.379 6.556-1.207 9.316.387 2.756 1.592 3.059 3.998.666 5.379Z"/><path fill="url(#ao)" d="m702.355 355.345-48.92 28.246c-2.388 1.38-6.558 1.205-9.316-.386-2.756-1.594-3.057-3.997-.668-5.38l48.922-28.245c2.385-1.377 6.553-1.208 9.316.386 2.752 1.594 3.053 4 .666 5.38Z"/><path fill="url(#ap)" d="m721.957 366.664-48.918 28.246c-2.389 1.38-6.562 1.205-9.318-.385-2.756-1.594-3.057-4-.668-5.38l48.92-28.25c2.386-1.374 6.556-1.202 9.318.388 2.754 1.593 3.055 4.004.666 5.38Z"/><path fill="#362e94" d="m578.902 435.742 27.756 16.023V421.14L578.9 405.119l.002 30.623z"/><path fill="url(#aq)" d="M777.027 483.583c21.201-36.712 50.483-68.755 82.828-87.43 17.258-9.964 33.637-15.097 48.39-15.88l65.007 3.615L786.873 700.96l-32.535-49.886c-7.434-13.477-11.627-30.967-11.627-52.022 0-37.357 13.113-78.75 34.316-115.469Z"/><path fill="url(#ar)" d="M676.605 531.892c-5.466-8.117-8.6-19.297-8.6-33.137 0-21.578 7.579-45.478 19.821-66.687 12.244-21.201 29.154-39.701 47.834-50.487 12.752-7.36 24.674-10.166 34.856-8.962l137.728 7.654c-14.752.783-31.13 5.916-48.389 15.88-32.345 18.675-61.627 50.718-82.828 87.43-21.203 36.72-34.316 78.112-34.316 115.47 0 21.054 4.193 38.544 11.627 52.02l-77.735-119.18Z"/><path fill="#e19100" d="M994.967 609.408c24.129-41.791 39.054-88.903 39.054-131.422 0-42.518-14.925-72.397-39.058-86.326-24.129-13.94-57.465-11.92-94.285 9.337-36.82 21.258-70.153 57.733-94.285 99.522-24.133 41.797-39.063 88.916-39.063 131.44-.002 42.52 14.926 72.396 39.057 86.324 24.129 13.931 57.466 11.923 94.289-9.336 36.822-21.26 70.158-57.744 94.29-99.54Z"/><path fill="url(#as)" d="M861.357 670.007c32.938-19.015 62.756-51.646 84.34-89.031 21.584-37.38 34.934-79.521 34.934-117.549 0-26.41-6.451-47.353-17.611-61.867a59.152 59.152 0 0 1 21.994 7.332c21.582 12.465 34.933 39.188 34.933 77.219s-13.351 80.172-34.933 117.55c-21.584 37.385-51.405 70.016-84.338 89.032-32.936 19.015-62.754 20.812-84.338 8.353a59.234 59.234 0 0 1-17.328-15.351c18.144 2.396 39.49-2.492 62.347-15.688Z"/><path fill="url(#at)" d="M816.344 506.267c21.586-37.38 51.4-70.008 84.332-89.02 22.855-13.195 44.199-18.082 62.344-15.687 11.16 14.514 17.61 35.457 17.61 61.867 0 38.028-13.349 80.17-34.933 117.549-21.584 37.385-51.402 70.016-84.34 89.031-22.857 13.196-44.203 18.084-62.347 15.688-11.157-14.516-17.608-35.457-17.608-61.862 0-38.037 13.354-80.175 34.942-117.566Z"/><path fill="url(#au)" d="M816.344 506.267c21.586-37.38 51.4-70.008 84.332-89.02 22.855-13.195 44.199-18.082 62.344-15.687 11.16 14.514 17.61 35.457 17.61 61.867 0 38.028-13.349 80.17-34.933 117.549-21.584 37.385-51.402 70.016-84.34 89.031-22.857 13.196-44.203 18.084-62.347 15.688-11.157-14.516-17.608-35.457-17.608-61.862 0-38.037 13.354-80.175 34.942-117.566Z"/><path fill="url(#av)" d="m849.541 585.513-55.094-31.807a286.853 286.853 0 0 1 52.084-90.177l55.08 31.8Z"/><path fill="url(#aw)" d="M849.496 525.414c6.67-11.55 15.883-21.627 26.057-27.502 10.175-5.875 19.388-6.434 26.058-2.582a52.035 52.035 0 0 1-49.476 91.511 17.831 17.831 0 0 1-2.643-1.242c-6.666-3.848-10.795-12.105-10.795-23.855 0-11.756 4.13-24.776 10.799-36.33Z"/><path d="M814.807 547.947c0-11.754 4.125-24.778 10.796-36.328 6.668-11.55 15.881-21.627 26.055-27.502 10.174-5.873 19.383-6.432 26.051-2.584l-31.178-18.004a286.853 286.853 0 0 0-52.084 90.177l30.18 17.426c-6.076-4.078-9.82-12.033-9.82-23.185Z" style="mix-blend-mode:multiply" fill="url(#ax)"/></g><g data-name="Person symbols"><path d="M630.246 709.146c-7.34-4.266-17.018-6.35-26.67-6.275l7.688-.012h-32.891c-9.537-.022-19.1 2.068-26.398 6.28-14.52 8.388-14.6 21.985-.166 30.374 7.312 4.248 16.943 6.334 26.56 6.277v.006h25.207l7.688-.004c9.566.04 11.48-2.054 18.8-6.28 14.528-8.386 14.608-21.985.182-30.366Z" style="mix-blend-mode:multiply" fill="url(#j)"/><path fill="url(#ay)" d="M604.225 739.507c7.312-4.217 10.96-9.76 10.945-15.289l-.033-13.515c.02 5.529-3.631 11.068-10.944 15.289-14.515 8.386-37.988 8.386-52.416.002-7.17-4.166-10.761-9.618-10.775-15.075l.033 13.514c.012 5.457 3.6 10.91 10.774 15.078 14.423 8.38 37.89 8.383 52.416-.004Z"/><path fill="#fff" d="M604.193 725.992c14.528-8.383 14.608-21.983.182-30.364-14.43-8.386-37.908-8.388-52.432-.004-14.52 8.385-14.597 21.983-.166 30.37 14.428 8.384 37.9 8.384 52.416-.002Z"/><path fill="#bbc0e6" d="M575.135 706.792c-.68-1.92.361-4.082 3.115-5.67 4.18-2.416 10.658-2.585 14.475-.382 3.81 2.2 3.513 5.947-.666 8.359a16.56 16.56 0 0 1-9.817 1.793c3.871 4.506 2.557 9.553-1.549 11.92-.988-.578-13.097-7.565-13.097-7.565l-13.106-7.564c4.1-2.37 12.844-3.127 20.645-.89Z"/><path d="M405.855 674.352c-7.34-4.266-17.017-6.35-26.67-6.275l7.688-.012h-32.89c-9.538-.022-19.1 2.068-26.399 6.281-14.52 8.387-14.6 21.985-.166 30.373 7.312 4.248 16.943 6.334 26.56 6.278v.005h25.208l7.687-.004c9.566.04 11.48-2.054 18.8-6.28 14.528-8.386 14.608-21.985.182-30.366Z" style="mix-blend-mode:multiply" fill="url(#az)"/><path d="M296.324 741.66c-7.34-4.266-17.015-6.35-26.668-6.276l7.688-.012H244.45c-9.535-.021-19.098 2.069-26.398 6.282-14.52 8.386-14.598 21.984-.164 30.373 7.312 4.248 16.941 6.334 26.558 6.277v.006h25.21l7.687-.004c9.566.04 11.48-2.055 18.8-6.281 14.528-8.385 14.606-21.985.18-30.365Z" style="mix-blend-mode:multiply" fill="url(#aA)"/><path fill="url(#aB)" d="M270.305 772.02c7.312-4.216 10.96-9.759 10.945-15.288l-.035-13.516c.02 5.53-3.629 11.069-10.942 15.29-14.515 8.386-37.99 8.386-52.416.001-7.171-4.166-10.761-9.617-10.777-15.074l.035 13.514c.012 5.457 3.598 10.91 10.774 15.078 14.422 8.38 37.888 8.383 52.416-.004Z"/><path fill="#f6f6fb" d="M270.273 758.505c14.528-8.383 14.606-21.982.18-30.363-14.43-8.387-37.908-8.389-52.432-.004-14.519 8.385-14.597 21.983-.164 30.37 14.426 8.384 37.9 8.384 52.416-.003Z"/><path fill="#bbc0e6" d="M245.709 739.306c.68-1.92-.363-4.082-3.117-5.67-4.18-2.416-10.658-2.586-14.475-.383-3.808 2.202-3.512 5.948.668 8.36a16.555 16.555 0 0 0 9.815 1.793c-3.872 4.506-2.555 9.552 1.55 11.92.989-.579 13.096-7.565 13.096-7.565l13.106-7.564c-4.1-2.37-12.844-3.127-20.643-.891Z"/><path d="M823.451 870.206c-7.34-4.265-17.015-6.35-26.668-6.275l7.688-.012H771.58c-9.537-.021-19.1 2.069-26.398 6.282-14.52 8.386-14.6 21.984-.166 30.373 7.312 4.248 16.943 6.334 26.56 6.277v.006h25.207l7.688-.004c9.566.039 11.48-2.055 18.8-6.281 14.528-8.385 14.606-21.985.18-30.366Z" style="mix-blend-mode:multiply" fill="url(#aC)"/><path fill="url(#aD)" d="M797.432 900.568c7.312-4.217 10.96-9.76 10.945-15.29l-.033-13.515c.02 5.53-3.631 11.068-10.944 15.29-14.515 8.386-37.988 8.386-52.416.001-7.17-4.166-10.761-9.617-10.775-15.074l.033 13.514c.012 5.457 3.6 10.91 10.774 15.078 14.423 8.38 37.89 8.383 52.416-.004Z"/><path fill="#f6f6fb" d="M797.4 887.052c14.528-8.383 14.606-21.982.182-30.363-14.43-8.387-37.908-8.389-52.432-.004-14.52 8.385-14.597 21.982-.166 30.37 14.428 8.384 37.9 8.384 52.416-.003Z"/><path fill="#bbc0e6" d="M768.342 867.853c-.68-1.92.361-4.082 3.115-5.67 4.18-2.416 10.658-2.586 14.475-.383 3.81 2.201 3.513 5.947-.666 8.36a16.562 16.562 0 0 1-9.817 1.793c3.871 4.505 2.557 9.552-1.549 11.92-.988-.579-13.097-7.565-13.097-7.565l-13.106-7.564c4.1-2.37 12.844-3.127 20.645-.891Z"/><path d="M931.992 807.54c-7.34-4.265-17.015-6.35-26.668-6.275l7.688-.012H880.12c-9.537-.021-19.1 2.069-26.398 6.282-14.52 8.386-14.6 21.984-.166 30.373 7.312 4.248 16.943 6.334 26.56 6.277v.006h25.207l7.688-.004c9.566.039 11.48-2.055 18.8-6.281 14.528-8.385 14.606-21.985.18-30.366Z" style="mix-blend-mode:multiply" fill="url(#aE)"/><path fill="url(#aF)" d="M905.973 837.902c7.312-4.217 10.96-9.76 10.945-15.29l-.033-13.515c.02 5.53-3.631 11.068-10.944 15.29-14.515 8.386-37.988 8.386-52.416.001-7.17-4.166-10.761-9.617-10.775-15.074l.033 13.514c.012 5.457 3.6 10.91 10.774 15.078 14.423 8.38 37.89 8.383 52.416-.004Z"/><path fill="#f6f6fb" d="M905.941 824.386c14.528-8.383 14.606-21.982.182-30.363-14.43-8.387-37.908-8.389-52.432-.004-14.52 8.385-14.597 21.982-.166 30.37 14.428 8.384 37.9 8.384 52.416-.003Z"/><path fill="#bbc0e6" d="M876.883 805.187c-.68-1.92.361-4.082 3.115-5.67 4.18-2.416 10.658-2.586 14.475-.383 3.81 2.201 3.513 5.947-.666 8.36a16.562 16.562 0 0 1-9.817 1.793c3.871 4.505 2.557 9.552-1.549 11.92-.988-.579-13.097-7.565-13.097-7.565l-13.106-7.564c4.1-2.37 12.844-3.127 20.645-.891Z"/><path d="M931.992 932.872c-7.34-4.265-17.015-6.35-26.668-6.275l7.688-.012H880.12c-9.537-.021-19.1 2.069-26.398 6.282-14.52 8.386-14.6 21.984-.166 30.373 7.312 4.248 16.943 6.334 26.56 6.277v.006h25.207l7.688-.004c9.566.039 11.48-2.055 18.8-6.281 14.528-8.385 14.606-21.985.18-30.366Z" style="mix-blend-mode:multiply" fill="url(#aG)"/><path fill="url(#aH)" d="M905.973 963.234c7.312-4.217 10.96-9.76 10.945-15.29l-.033-13.515c.02 5.53-3.631 11.068-10.944 15.29-14.515 8.386-37.988 8.386-52.416.001-7.17-4.166-10.761-9.617-10.775-15.074l.033 13.514c.012 5.457 3.6 10.91 10.774 15.078 14.423 8.38 37.89 8.383 52.416-.004Z"/><path fill="#f6f6fb" d="M905.941 949.718c14.528-8.383 14.606-21.982.182-30.363-14.43-8.387-37.908-8.389-52.432-.004-14.52 8.385-14.597 21.982-.166 30.37 14.428 8.384 37.9 8.384 52.416-.003Z"/><path fill="#bbc0e6" d="M882.588 931.435c.68-1.92-.361-4.082-3.115-5.67-4.18-2.416-10.659-2.586-14.475-.383-3.81 2.201-3.514 5.948.666 8.36a16.56 16.56 0 0 0 9.816 1.793c-3.87 4.505-2.556 9.552 1.55 11.92.988-.579 13.097-7.565 13.097-7.565l13.105-7.564c-4.1-2.37-12.843-3.127-20.644-.891Z"/><path d="M823.451 995.539c-7.34-4.266-17.015-6.35-26.668-6.276l7.688-.012H771.58c-9.537-.021-19.1 2.069-26.398 6.282-14.52 8.386-14.6 21.984-.166 30.373 7.312 4.248 16.943 6.334 26.56 6.277v.006h25.207l7.688-.004c9.566.039 11.48-2.055 18.8-6.281 14.528-8.385 14.606-21.985.18-30.365Z" style="mix-blend-mode:multiply" fill="url(#aI)"/><path fill="url(#aJ)" d="M797.432 1025.9c7.312-4.217 10.96-9.76 10.945-15.29l-.033-13.515c.02 5.53-3.631 11.069-10.944 15.29-14.515 8.386-37.988 8.386-52.416.001-7.17-4.166-10.761-9.617-10.775-15.074l.033 13.514c.012 5.457 3.6 10.91 10.774 15.078 14.423 8.38 37.89 8.383 52.416-.004Z"/><path fill="#f6f6fb" d="M797.4 1012.384c14.528-8.383 14.606-21.982.182-30.363-14.43-8.387-37.908-8.389-52.432-.004-14.52 8.385-14.597 21.982-.166 30.37 14.428 8.384 37.9 8.384 52.416-.003Z"/><path fill="#bbc0e6" d="M768.342 993.185c-.68-1.92.361-4.082 3.115-5.67 4.18-2.416 10.658-2.586 14.475-.383 3.81 2.201 3.513 5.948-.666 8.36a16.56 16.56 0 0 1-9.817 1.793c3.871 4.505 2.557 9.552-1.549 11.92-.988-.579-13.097-7.565-13.097-7.565l-13.106-7.564c4.1-2.37 12.844-3.127 20.645-.891Z"/><path d="M604.375 695.628c-14.43-8.386-37.908-8.388-52.432-.004-7.66 4.424-11.257 10.297-10.869 16.092a56.26 56.26 0 0 0 23.024 4.492v.006h25.207l7.687-.004c9.254.037 11.361-1.925 18.113-5.879-.171-5.334-3.726-10.634-10.73-14.703Z" style="mix-blend-mode:multiply" fill="url(#aK)"/><path fill="url(#aL)" d="M589.953 709.925c7.313-4.217 10.961-9.76 10.945-15.289l-.033-13.515c.02 5.529-3.63 11.068-10.943 15.289-14.516 8.386-37.988 8.386-52.416.002-7.17-4.166-10.762-9.618-10.776-15.075l.034 13.514c.011 5.457 3.6 10.91 10.773 15.078 14.424 8.38 37.89 8.383 52.416-.004Z"/><path fill="#fff" d="M589.922 696.41c14.527-8.383 14.607-21.983.181-30.364-14.43-8.386-37.908-8.388-52.431-.004-14.52 8.385-14.598 21.983-.166 30.37 14.428 8.384 37.9 8.384 52.416-.002Z"/><path fill="#bbc0e6" d="M566.36 677.21c.679-1.92-.362-4.082-3.116-5.67-4.18-2.416-10.658-2.585-14.474-.382-3.811 2.2-3.514 5.947.666 8.359a16.56 16.56 0 0 0 9.816 1.793c-3.871 4.506-2.557 9.553 1.549 11.92.988-.578 13.097-7.565 13.097-7.565l13.106-7.564c-4.1-2.37-12.844-3.127-20.645-.89Z"/><path fill="#f6f6fb" d="M367.985 649.251c13.86 7.746 14.998 24.489 2.648 37.451-12.299 12.932-33.416 17.207-47.195 9.569-13.86-7.747-15.013-24.497-2.663-37.46 12.314-12.924 33.43-17.198 47.21-9.56Z"/><path fill="url(#aM)" d="m377.843 660.177 3.26 8.414c3.139 8.105.806 18.112-7.21 26.526-12.3 12.932-33.416 17.206-47.196 9.568a21.46 21.46 0 0 1-9.864-10.935l-3.26-8.414a21.46 21.46 0 0 0 9.865 10.935c13.779 7.638 34.896 3.363 47.195-9.569 8.016-8.414 10.35-18.42 7.21-26.525Z"/><path fill="#bbc0e6" d="M356.39 658.109c3.629 2.011 3.7 6.684.148 10.411a13.083 13.083 0 0 1-8.684 3.986 11.45 11.45 0 0 1-.334 14.948l-12.492-6.925-12.508-6.933c3.485-3.658 11.307-6.166 18.539-4.835-.792-2.246-.03-5.097 2.302-7.545 3.564-3.741 9.385-5.127 13.029-3.107Z"/></g><g><path d="m487.139 983.374 49.771-28.736-87.482-50.506-49.323 28.475c-.68-.004-1.359-.014-2.058-.014-34.662 0-76.817 8.112-94.149 18.121-17.16 9.908-3.545 17.951 30.36 18.112-1.201 2.466-.135 5.232 3.213 7.164l27.459 15.855 22.943 13.244c-8.57 8.287 5.973 14.526 36.367 14.526 34.67 0 76.819-8.112 94.15-18.121 17.311-9.995 3.319-18.098-31.251-18.12Z" style="mix-blend-mode:multiply" fill="url(#m)"/><path fill="#bbc0e6" d="M323.455 890.68c-16.08 9.282-29.11 31.849-29.11 50.413s13.03 26.086 29.11 16.805c16.074-9.283 29.104-31.854 29.104-50.416.002-18.563-13.03-26.086-29.104-16.803Zm0 62.163c-13.662 7.887-24.732 1.498-24.732-14.273 0-15.78 11.07-34.953 24.732-42.838 13.656-7.887 24.73-1.494 24.73 14.28s-11.074 34.948-24.73 42.831Z"/><path fill="url(#k)" d="M323.455 952.843c13.656-7.883 24.73-27.058 24.73-42.832s-11.074-22.166-24.73-14.28c-.547.315-1.084.679-1.623 1.028-.836 14.723-10.687 31.748-23.023 39.8-.038.669-.086 1.347-.086 2.01 0 15.772 11.07 22.16 24.732 14.274Z"/><path fill="#1f196f" d="M323.455 887.158c-17.764 10.252-32.16 35.189-32.16 55.699 0 20.504 14.396 28.814 32.16 18.56 17.758-10.25 32.16-35.19 32.158-55.697.002-20.51-14.4-28.82-32.158-18.562Zm0 70.74c-16.078 9.281-29.11 1.756-29.11-16.805s13.03-41.135 29.11-50.414c16.07-9.283 29.104-1.76 29.104 16.803.002 18.562-13.032 41.133-29.104 50.416Z"/><path fill="#362b6e" d="M300.988 963.816h.002a1.075 1.075 0 0 0-.053-.027Z"/><path fill="url(#l)" d="M320.666 870.21c-5.873-3.906-14.254-3.64-23.559 1.733-17.763 10.254-32.16 35.187-32.16 55.703 0 10.408 3.717 17.67 9.698 20.959l-.004.002 25.855 14.928c-5.687-3.414-9.201-10.557-9.201-20.678 0-20.51 14.396-45.447 32.16-55.7 9.305-5.374 17.686-5.64 23.559-1.73Z"/><path fill="#c2c7e3" d="M407.236 893.613c5.045-2.912 5.045-7.678 0-10.59l-42.892-24.77c-5.045-2.91-13.301-2.91-18.344 0l-41.857 24.168c-5.04 2.912-5.043 7.678 0 10.59l42.892 24.764c5.051 2.914 13.305 2.914 18.35 0Z"/><path fill="#f6f6fb" d="M407.236 893.613c5.045-2.912 5.045-7.678 0-10.59l-42.892-24.77c-5.045-2.91-13.301-2.91-18.344 0l-41.857 24.168c-5.04 2.912-5.043 7.678 0 10.59l42.892 24.764c5.051 2.914 13.305 2.914 18.35 0Z"/><path fill="url(#aN)" d="M410.994 888.638c-.13 1.813-1.379 3.6-3.758 4.975l-41.851 24.162-.018.01c-5.047 2.904-13.287 2.902-18.332-.01l-42.892-24.764c-2.506-1.45-3.766-3.353-3.776-5.265l-.004.003-.004 43.02c.004 6.01 5.051 19.227 13.655 23.762l47.433 27.38c.096.06.188.116.285.165l.16.093.003-.015c3.29 1.734 7.744 1.404 12.662-1.432l23.505-13.572c13.416-7.746 12.932-22.205 12.932-28.647Z"/><path d="M410.994 888.638c-.13 1.813-1.379 3.6-3.758 4.975l-41.851 24.162-.018.01c-5.047 2.904-13.287 2.902-18.332-.01l-42.892-24.764c-2.506-1.45-3.766-3.353-3.776-5.265l-.004.003-.004 43.02c.004 6.01 5.051 19.227 13.655 23.762l47.433 27.38c.096.06.188.116.285.165l.16.093.003-.015c3.29 1.734 7.744 1.404 12.662-1.432l23.505-13.572c13.416-7.746 12.932-22.205 12.932-28.647Z" style="mix-blend-mode:multiply" fill="url(#n)"/><path fill="#bbc0e6" d="M410.955 941.275c-16.08 9.28-29.105 31.85-29.105 50.414 0 18.562 13.029 26.086 29.105 16.803 16.078-9.284 29.106-31.85 29.106-50.416.003-18.563-13.028-26.082-29.106-16.801Zm0 62.164c-13.658 7.887-24.732 1.494-24.732-14.277 0-15.776 11.074-34.948 24.732-42.836 13.658-7.885 24.732-1.498 24.732 14.275s-11.074 34.951-24.732 42.838Z"/><path fill="url(#aO)" d="M410.955 1003.439c13.658-7.887 24.732-27.065 24.732-42.838s-11.074-22.16-24.732-14.275c-.549.316-1.082.68-1.621 1.033-.838 14.717-10.686 31.742-23.023 39.793-.04.668-.088 1.347-.088 2.01 0 15.77 11.074 22.164 24.732 14.277Z"/><path fill="#1f196f" d="M410.955 937.753c-17.76 10.252-32.156 35.186-32.156 55.696 0 20.507 14.396 28.818 32.156 18.566 17.76-10.256 32.162-35.191 32.162-55.701 0-20.508-14.402-28.818-32.162-18.56Zm0 70.739c-16.076 9.279-29.105 1.757-29.105-16.803 0-18.565 13.029-41.135 29.105-50.414 16.074-9.281 29.106-1.762 29.106 16.8.003 18.563-13.032 41.14-29.106 50.417Z"/><path fill="#362b6e" d="M388.492 1014.414v-.004c-.015-.006-.031-.016-.049-.024Z"/><path fill="url(#aP)" d="M408.168 920.806c-5.871-3.904-14.252-3.64-23.56 1.734-17.76 10.254-32.16 35.186-32.16 55.696 0 10.412 3.718 17.674 9.697 20.965v.004l25.859 14.923c-5.693-3.412-9.205-10.556-9.205-20.68 0-20.51 14.396-45.443 32.156-55.695 9.309-5.377 17.69-5.64 23.56-1.732Z"/><path fill="url(#aQ)" d="M451.547 838.2c7.723-4.453 11.574-10.304 11.558-16.146l-.035-18.41c.022 5.838-3.834 11.687-11.554 16.146-15.33 8.856-40.118 8.856-55.352.002-7.572-4.4-11.365-10.156-11.379-15.918l.037 18.409c.012 5.761 3.799 11.52 11.375 15.922 15.23 8.85 40.012 8.85 55.35-.004Z"/><path fill="#f1f1f6" d="M451.516 819.79c15.34-8.853 15.421-23.212.191-32.064-15.238-8.855-40.031-8.857-55.367-.004-15.334 8.856-15.414 23.213-.176 32.07 15.234 8.854 40.022 8.854 55.352-.002Z"/><path fill="#bbc0e6" d="M420.83 799.515c-.719-2.027.381-4.31 3.29-5.986 4.411-2.553 11.253-2.73 15.284-.405 4.024 2.323 3.711 6.282-.705 8.827a17.482 17.482 0 0 1-10.365 1.894c4.088 4.758 2.701 10.086-1.635 12.588-1.045-.611-13.83-7.99-13.83-7.99l-13.84-7.987c4.328-2.501 13.563-3.302 21.801-.941Z"/><path d="m422.436 813.208-.012-.003c0 .052.01.1.012.148Z"/><path fill="url(#o)" d="M422.436 813.62c-.057 1.876-1.309 3.74-3.772 5.16l-41.853 24.165c-5.05 2.912-13.303 2.912-18.346 0l-65.74-37.953c-2.524-1.46-3.786-3.377-3.786-5.297v76.787c0 1.924 1.258 3.842 3.786 5.303l65.74 37.953c5.043 2.914 13.297 2.914 18.346 0l41.853-24.164c2.643-1.526 3.887-3.565 3.76-5.573l.012.004Z"/><path fill="#fff" d="M418.664 818.78c5.043-2.91 5.043-7.675 0-10.59l-65.742-37.956c-5.047-2.912-13.305-2.912-18.346 0L292.725 794.4c-5.047 2.912-5.047 7.676 0 10.592l65.74 37.953c5.043 2.912 13.297 2.912 18.346 0Z"/><path style="mix-blend-mode:multiply" fill="url(#p)" d="m418.051 872.812-22.746-17.531 8.636-11.028 22.746 17.532-8.636 11.027z"/><path d="m418.664 808.19-41.717-24.083h-9.55c-11.02 0-15.502 2.588-9.993 5.77l-21.918 11.87c-11.021 0-15.504 2.588-9.994 5.77l34.442 19.885c5.51 3.181 18.96 5.77 29.98 5.77h3.824l24.926-14.391c5.043-2.91 5.043-7.676 0-10.59Z" style="mix-blend-mode:multiply" fill="url(#q)"/><path fill="#ced3f8" d="M339.789 768.015c-14.824-8.559-26.844-1.623-26.844 15.496v9.026a14.792 14.792 0 0 0 6.7 11.601l40.289 23.264c3.699 2.133 6.699.406 6.699-3.87v-9.023c0-17.12-12.02-37.937-26.844-46.494Z"/><path fill="url(#aR)" d="M374.562 747.937c-7.425-4.29-14.152-4.684-19.01-1.857l-34.724 20.042c4.856-2.789 11.559-2.378 18.961 1.893 14.824 8.557 26.844 29.375 26.844 46.494v9.024c0 2.101-.733 3.588-1.91 4.3l34.588-19.976c1.287-.664 2.097-2.188 2.097-4.4v-9.024c0-17.12-12.02-37.936-26.846-46.496Z"/><path fill="#121047" d="M392.348 853.624c0-5.246 3.683-11.627 8.226-14.25 4.547-2.625 8.229-.498 8.229 4.75 0 5.25-3.682 11.625-8.229 14.25-4.543 2.622-8.226.495-8.226-4.75ZM465.17 833.833a20.525 20.525 0 0 1-2.236 2.89 3.972 3.972 0 0 1-5.764-5.466 25.408 25.408 0 0 0 4.492-8.49 3.971 3.971 0 1 1 7.639 2.176 36.272 36.272 0 0 1-4.131 8.89Z"/><path fill="url(#r)" d="M392.363 853.894c0-.092-.015-.176-.015-.27 0-4.75 3.02-10.418 6.963-13.396.097-.012.187-.037.287-.049 19.021 18.354 29.148 28.149 44.68 26.248 10.85-1.326 14.638-14.463 7.995-21.912-4.843-8.611 4.13-18.707 12.98-9.86 8.854 8.856 9.349 41.981-17.974 45.41-21.593 2.71-31.908-4.333-53.842-25.241a8.936 8.936 0 0 1-1.074-.93Z"/><path fill="#121047" d="M442.084 845.185a20.357 20.357 0 0 1-3.586-.715 3.974 3.974 0 1 1 2.326-7.6c2.656.817 7.363.667 9.606.25a3.972 3.972 0 0 1 1.455 7.81 36.568 36.568 0 0 1-9.801.255Z"/><path fill="#5652cc" d="M330.928 821.801a1.252 1.252 0 0 1-1.251-1.25v-5.618c0-3.55 2.218-7.616 5.051-9.257l4.436-2.556a1.251 1.251 0 0 1 1.25 2.168l-4.435 2.555a9.08 9.08 0 0 0-3.8 7.09v5.617a1.252 1.252 0 0 1-1.251 1.251ZM323.101 817.32a1.251 1.251 0 0 1-1.25-1.25v-5.616c0-3.552 2.22-7.62 5.054-9.258l4.433-2.558a1.251 1.251 0 0 1 1.25 2.168l-4.432 2.557a9.074 9.074 0 0 0-3.804 7.091v5.616a1.252 1.252 0 0 1-1.25 1.25Z"/><path d="m1327.45 717.794 49.722-28.709-87.395-50.457-49.273 28.446c-.68-.006-1.36-.012-2.055-.012-34.633 0-76.742 8.105-94.06 18.102-17.141 9.896-3.543 17.933 30.332 18.091-1.201 2.465-.137 5.229 3.207 7.159l27.431 15.841 22.922 13.233c-8.56 8.275 5.965 14.508 36.334 14.508 34.633 0 76.742-8.104 94.057-18.102 17.295-9.984 3.314-18.08-31.223-18.1Z" style="mix-blend-mode:multiply" fill="url(#aS)"/><path fill="#bbc0e6" d="M1162.621 626.72c-15.676 9.05-28.379 31.053-28.379 49.156 0 18.098 12.703 25.432 28.379 16.381 15.676-9.049 28.379-31.054 28.379-49.152 0-18.102-12.703-25.436-28.379-16.385Zm0 60.611c-13.318 7.69-24.11 1.46-24.11-13.923 0-15.375 10.792-34.069 24.11-41.76 13.318-7.688 24.113-1.46 24.113 13.92s-10.795 34.074-24.113 41.763Z"/><path fill="url(#aT)" d="M1162.621 687.331c13.318-7.69 24.113-26.384 24.113-41.763s-10.795-21.608-24.113-13.92c-.535.307-1.055.662-1.58 1.004-.818 14.351-10.42 30.95-22.45 38.8-.036.653-.08 1.313-.08 1.956 0 15.382 10.792 21.613 24.11 13.923Z"/><path fill="#1f196f" d="M1162.621 623.287c-17.318 9.996-31.355 34.308-31.355 54.304 0 19.992 14.037 28.098 31.355 18.102 17.314-9.998 31.354-34.313 31.352-54.305.002-19.998-14.037-28.1-31.352-18.101Zm0 68.97c-15.672 9.049-28.379 1.713-28.379-16.38 0-18.102 12.703-40.11 28.379-49.157 15.672-9.047 28.379-1.715 28.379 16.385 0 18.098-12.707 40.103-28.379 49.152Z"/><path fill="#362b6e" d="M1140.72 698.03v-.001a.271.271 0 0 0-.048-.024Z"/><path fill="url(#aU)" d="M1159.906 606.767c-5.726-3.81-13.896-3.553-22.972 1.686-17.319 10-31.354 34.31-31.354 54.306 0 10.15 3.623 17.23 9.451 20.44v.002l25.211 14.552c-5.55-3.328-8.976-10.295-8.976-20.162 0-19.996 14.037-44.308 31.355-54.304 9.074-5.243 17.244-5.502 22.97-1.688Z"/><path fill="url(#aV)" d="M1142.746 546.341c-8.728-.459-18.1 4.278-26.389 13.336-9.279 10.147-17.728 26.795-15.683 41.127l15.332-2.185c-1.094-7.698 3.967-19.944 11.78-28.483 4.956-5.418 10.245-8.533 14.146-8.326Z"/><path fill="#c2c7e3" d="M1244.305 629.58c4.918-2.838 4.918-7.487 0-10.325l-41.815-24.144c-4.924-2.84-12.967-2.84-17.888 0l-40.805 23.56c-4.918 2.838-4.922 7.485 0 10.325l41.818 24.144c4.92 2.84 12.967 2.84 17.885 0Z"/><path fill="#f6f6fb" d="M1244.305 629.58c4.918-2.838 4.918-7.487 0-10.325l-41.815-24.144c-4.924-2.84-12.967-2.84-17.888 0l-40.805 23.56c-4.918 2.838-4.922 7.485 0 10.325l41.818 24.144c4.92 2.84 12.967 2.84 17.885 0Z"/><path fill="url(#aW)" d="M1247.97 624.734c-.128 1.763-1.345 3.508-3.665 4.846l-40.805 23.56-.012.006c-4.92 2.834-12.96 2.832-17.873-.006l-41.818-24.144c-2.447-1.413-3.674-3.272-3.688-5.133l-.004 41.945c.004 5.86 4.924 18.744 13.315 23.168l46.246 26.695c.088.059.184.112.275.162l.157.09.002-.015c3.209 1.689 7.55 1.37 12.343-1.399l22.92-13.226c13.078-7.555 12.608-21.659 12.608-27.936Z"/><path d="M1247.97 624.734c-.128 1.763-1.345 3.508-3.665 4.846l-40.805 23.56-.012.006c-4.92 2.834-12.96 2.832-17.873-.006l-41.818-24.144c-2.447-1.413-3.674-3.272-3.688-5.133l-.004 41.945c.004 5.86 4.924 18.744 13.315 23.168l46.246 26.695c.088.059.184.112.275.162l.157.09.002-.015c3.209 1.689 7.55 1.37 12.343-1.399l22.92-13.226c13.078-7.555 12.608-21.659 12.608-27.936Z" style="mix-blend-mode:multiply" fill="url(#aX)"/><path fill="#bbc0e6" d="M1247.934 676.048c-15.68 9.05-28.38 31.053-28.38 49.157 0 18.097 12.704 25.431 28.38 16.384 15.671-9.052 28.375-31.056 28.375-49.156s-12.704-25.432-28.375-16.385Zm0 60.612c-13.323 7.689-24.114 1.459-24.114-13.924 0-15.375 10.791-34.069 24.114-41.76 13.318-7.687 24.109-1.457 24.109 13.922 0 15.379-10.791 34.072-24.11 41.762Z"/><path fill="url(#aY)" d="M1247.934 736.66c13.318-7.69 24.109-26.383 24.109-41.762 0-15.38-10.791-21.61-24.11-13.922-.537.307-1.056.662-1.58 1.004-.822 14.351-10.423 30.953-22.449 38.8-.037.655-.084 1.313-.084 1.956 0 15.383 10.791 21.613 24.114 13.924Z"/><path fill="#1f196f" d="M1247.934 672.617c-17.319 9.996-31.356 34.306-31.356 54.302 0 19.993 14.037 28.098 31.356 18.102 17.31-9.998 31.351-34.313 31.351-54.305 0-19.996-14.04-28.1-31.351-18.1Zm0 68.972c-15.672 9.047-28.38 1.711-28.38-16.384 0-18.1 12.704-40.106 28.38-49.157 15.668-9.047 28.375-1.715 28.375 16.385 0 18.098-12.707 40.104-28.375 49.156Z"/><path fill="#362b6e" d="M1226.03 747.36v-.001l-.048-.026Z"/><path fill="url(#aZ)" d="M1245.215 656.095c-5.727-3.81-13.897-3.55-22.97 1.692-17.315 9.996-31.356 34.306-31.356 54.3 0 10.155 3.625 17.23 9.455 20.442v.002l25.207 14.552c-5.547-3.33-8.973-10.296-8.973-20.164 0-19.996 14.037-44.306 31.356-54.302 9.072-5.243 17.244-5.504 22.968-1.69Z"/><path d="m1259.123 551.19-.012-.001c.004.049.012.094.012.142Z"/><path fill="url(#ba)" d="M1259.123 551.593c-.055 1.828-1.275 3.647-3.676 5.033l-40.806 23.559c-4.92 2.838-12.967 2.838-17.89 0l-64.093-37.006c-2.457-1.42-3.687-3.29-3.687-5.16v74.86c-.004 1.874 1.226 3.747 3.687 5.171l64.094 37.002c4.922 2.842 12.969 2.842 17.889 0l40.806-23.558c2.578-1.487 3.79-3.473 3.664-5.434l.016.002Z"/><path fill="#f6f6fb" d="M1255.447 556.626c4.916-2.84 4.916-7.488 0-10.328l-64.094-37.004c-4.921-2.841-12.972-2.838-17.888 0l-40.807 23.557c-4.92 2.842-4.92 7.486 0 10.328l64.094 37.006c4.922 2.838 12.969 2.838 17.889 0Z"/><path fill="#121047" d="M1105.27 600.613a3.84 3.84 0 0 1-3.69.547c-2.353-.887-7.201-.364-9.18.029a3.847 3.847 0 1 1-1.494-7.547c.84-.168 8.354-1.572 13.381.313a3.846 3.846 0 0 1 2.246 4.955 3.794 3.794 0 0 1-1.263 1.703Z"/><path fill="url(#bb)" d="M1164.418 646.562c7.723-4.453 11.574-10.305 11.559-16.147l-.036-18.41c.022 5.838-3.834 11.688-11.554 16.147-15.33 8.855-40.117 8.855-55.352.002-7.572-4.4-11.365-10.157-11.379-15.918l.037 18.408c.012 5.762 3.8 11.52 11.375 15.922 15.23 8.85 40.012 8.851 55.35-.004Z"/><path fill="#f1f1f6" d="M1164.387 628.152c15.34-8.854 15.422-23.213.191-32.065-15.238-8.855-40.031-8.857-55.367-.004-15.334 8.856-15.414 23.213-.176 32.07 15.235 8.854 40.022 8.854 55.352-.001Z"/><path fill="#bbc0e6" d="M1133.701 607.876c-.719-2.027.381-4.31 3.29-5.986 4.411-2.553 11.253-2.73 15.284-.404 4.024 2.322 3.711 6.28-.705 8.826a17.481 17.481 0 0 1-10.365 1.894c4.088 4.758 2.701 10.086-1.635 12.588-1.045-.611-13.83-7.99-13.83-7.99l-13.84-7.986c4.328-2.502 13.563-3.303 21.801-.942Z"/><path fill="#121047" d="M1171.45 649.468a19.998 19.998 0 0 1-3.555-.287 3.872 3.872 0 0 1 1.392-7.617 24.926 24.926 0 0 0 9.33-.854 3.873 3.873 0 0 1 2.291 7.399 35.627 35.627 0 0 1-9.459 1.36Z"/><path style="mix-blend-mode:multiply" fill="url(#bc)" d="m1254.395 605.648-22.749-17.529 8.641-11.028 22.744 17.531-8.636 11.026z"/><path d="m1255.447 546.298-40.603-23.44h-15.108c-11.021 0-15.502 2.589-9.992 5.768l-21.92 11.873c-11.02 0-15.502 2.588-9.992 5.77l34.441 19.883c5.51 3.183 18.957 5.77 29.977 5.77h6.701l26.496-15.296c4.916-2.84 4.916-7.488 0-10.328Z" style="mix-blend-mode:multiply" fill="url(#bd)"/><path fill="#121047" d="M1181.387 643.501a3.88 3.88 0 0 1-3.692-2.709 24.913 24.913 0 0 0-5.101-7.861 3.872 3.872 0 0 1 5.478-5.473c2.002 2.002 5.676 6.762 7.012 11.01a3.873 3.873 0 0 1-3.697 5.033Z"/><path fill="#1f196f" d="M1229.791 590.593a17.732 17.732 0 0 1 8.018-13.892c4.433-2.557 8.025-.483 8.025 4.63a17.728 17.728 0 0 1-8.025 13.895c-4.428 2.557-8.018.482-8.018-4.633Z"/><path fill="url(#be)" d="M1244.682 581.505a57.762 57.762 0 0 0-5.172-5.572 9.018 9.018 0 0 0-1.701.768c-3.68 2.125-6.774 6.777-7.717 11.22a12.58 12.58 0 0 0 1.937 3.196c6.471 7.261 2.358 18.802-3.127 26.48-8.869 12.41-25.074 21.885-43.14 15.363-9.186.954-11.942 9.934-6.004 14.278 24.828 10.447 49.414-3.377 61.748-20.633 11.6-16.229 12.232-34.783 3.176-45.1Z"/><path fill="#ced3f8" d="M1157.832 546.269c-5.51-3.182-9.996-10.947-9.996-17.31v-19.694c0-6.365 4.486-8.951 9.996-5.77l34.441 19.881c5.51 3.182 9.993 10.95 9.993 17.31v19.696c0 6.364-4.483 8.953-9.993 5.77Z"/><path fill="url(#bf)" d="M1161.162 540.5a14.781 14.781 0 0 1-6.662-11.542v-19.693a6.193 6.193 0 0 1 .596-2.814c-2.309-.121-3.926 1.629-3.926 4.736v19.695a14.778 14.778 0 0 0 6.662 11.54l34.441 19.884c2.69 1.553 5.014 1.027 6.063-1.033a6.145 6.145 0 0 1-2.733-.89Z"/><path fill="url(#bg)" d="M1198.934 538.767a14.788 14.788 0 0 0-6.66-11.543l-34.442-19.885a1.935 1.935 0 1 0-3.332 1.926v19.693a14.781 14.781 0 0 0 6.662 11.541l34.441 19.883a1.933 1.933 0 1 0 3.33-1.922Z"/><path d="M1157.74 536.583v-19.695c0-3.105 1.621-4.855 3.93-4.736a6.25 6.25 0 0 1 2.732.888l32.207 18.598a13.27 13.27 0 0 0-4.336-4.414l-34.441-19.885a1.935 1.935 0 1 0-3.332 1.926v19.693a14.583 14.583 0 0 0 3.314 8.524c-.025-.301-.074-.606-.074-.899Z" style="mix-blend-mode:multiply" fill="url(#bh)"/><path fill="#bbc0e6" d="M1150.318 503.109v.002a.028.028 0 0 1 .012-.006Z"/><path fill="url(#bi)" d="m1221.61 506.44-34.442-19.886c-2.99-1.728-5.676-1.74-7.51-.38l-28.404 16.398c1.758-.77 4.055-.532 6.578.924l34.441 19.88c5.51 3.182 9.993 10.95 9.993 17.31v19.696c0 2.809-.877 4.88-2.325 6.047s28.948-16.63 29.327-16.932l.013-.007v-.002c1.45-1.166 2.324-3.237 2.324-6.043v-19.696c0-6.363-4.486-14.128-9.996-17.308Z"/><path d="m1170.646 528.027-5.275-3.045v-2.563l5.275 3.043v2.565zM1191.393 540.005l-5.27-3.043v-2.566l5.27 3.047v2.562zM1181.953 542.814l-9.23-5.332v-2.567l9.23 5.332v2.567z" style="mix-blend-mode:screen" fill="#ffaf6d"/></g></g></svg>