<svg xmlns="http://www.w3.org/2000/svg" enable-background="new 0 0 512 512" viewBox="0 0 512 512"><path fill="#24C9B3" d="M408,256.305v-59.617l7.82,7.82C413.945,117.781,343.18,48,256,48S98.055,117.781,96.18,204.508l7.82-7.82
		v59.617c52.859,4.039,94.703,47.781,95.891,101.375c5.242,1.969,10.617,3.656,16.109,5.078V208h-72.648L256,67.195L368.648,208H296
		v154.758c5.492-1.422,10.867-3.109,16.109-5.078C313.297,304.086,355.141,260.344,408,256.305z"/><path fill="#24C9B3" d="M344.008 55.555c8.828 5.094 17.273 11.023 25.117 17.617 7.82 6.578 15.125 13.883 21.703 21.703 6.594 7.844 12.523 16.289 17.617 25.109 5.141 8.891 9.508 18.242 12.992 27.797 3.477 9.563 6.141 19.531 7.914 29.633C431.109 187.477 432 197.766 432 208h16c0-11.156-.969-22.375-2.883-33.344-1.938-11.031-4.852-21.906-8.648-32.344-3.797-10.43-8.563-20.633-14.172-30.336-5.563-9.625-12.031-18.844-19.219-27.398-7.172-8.523-15.133-16.484-23.656-23.656-8.555-7.188-17.773-13.656-27.406-19.227-9.695-5.602-19.898-10.367-30.328-14.164-10.438-3.797-21.313-6.711-32.344-8.648l-2.766 15.766c10.109 1.773 20.078 4.438 29.641 7.914C325.773 46.047 335.125 50.414 344.008 55.555zM66.883 174.664C64.969 185.625 64 196.844 64 208h16c0-10.234.891-20.523 2.648-30.578 1.773-10.109 4.438-20.078 7.914-29.641 3.484-9.555 7.852-18.906 12.992-27.789 5.094-8.828 11.023-17.273 17.617-25.117 6.578-7.82 13.883-15.125 21.703-21.703 7.844-6.594 16.289-12.523 25.109-17.617 8.891-5.141 18.242-9.508 27.797-12.992 9.563-3.477 19.531-6.141 29.641-7.914l-2.766-15.766c-11.031 1.938-21.906 4.852-32.344 8.648-10.43 3.797-20.633 8.563-30.336 14.164-9.625 5.57-18.844 12.039-27.398 19.227-8.523 7.172-16.484 15.133-23.656 23.656-7.188 8.555-13.656 17.773-19.227 27.406-5.602 9.695-10.367 19.898-14.164 30.328C71.734 152.75 68.82 163.625 66.883 174.664z"/><path fill="#FFF700" d="M256,92.805L176.648,192H232v256h48V192h55.352L256,92.805z M264,432h-16v-32h16V432z"/><path d="M368.648,208L256,67.195L143.352,208H216v154.758V464h80V362.758V208H368.648z M280,448h-48V192h-55.352L256,92.805
		L335.352,192H280V448z"/><path fill="#FB0" d="M96,272h-8v-36.688L27.313,296L88,356.688V320h8c22.055,0,40,17.945,40,40v120h48V360
		C184,311.477,144.523,272,96,272z M168,464h-16v-32h16V464z"/><path d="M104,256.305v-59.617l-7.82,7.82L4.688,296L104,395.313v-57.945c9.313,3.305,16,12.203,16,22.633v136h80V360
		c0-0.781-0.094-1.539-0.109-2.32C198.703,304.086,156.859,260.344,104,256.305z M184,360v120h-48V360c0-22.055-17.945-40-40-40h-8
		v36.688L27.313,296L88,235.313V272h8C144.523,272,184,311.477,184,360z"/><path fill="#FB0" d="M416,320h8v36.688L484.688,296L424,235.313V272h-8c-48.523,0-88,39.477-88,88v120h48V360
		C376,337.945,393.945,320,416,320z M360,464h-16v-32h16V464z"/><path d="M507.313,296l-91.492-91.492l-7.82-7.82v59.617c-52.859,4.039-94.703,47.781-95.891,101.375
		c-0.016,0.781-0.109,1.539-0.109,2.32v136h80V360c0-10.43,6.688-19.328,16-22.633v57.945L507.313,296z M376,480h-48V360
		c0-48.523,39.477-88,88-88h8v-36.688L484.688,296L424,356.688V320h-8c-22.055,0-40,17.945-40,40V480z"/><rect width="16" height="32" x="152" y="432" fill="#FFFB1A"/><rect width="16" height="32" x="248" y="400" fill="#FFF"/><rect width="16" height="32" x="344" y="432" fill="#FFFB1A"/><polygon fill="#FB0" points="456 128 472 128 472 104 496 104 496 88 472 88 472 64 456 64 456 88 432 88 432 104 456 104"/><polygon fill="#FB0" points="48 80 64 80 64 56 88 56 88 40 64 40 64 16 48 16 48 40 24 40 24 56 48 56"/></svg>