<svg xmlns="http://www.w3.org/2000/svg" data-name="Layer 1" viewBox="0 0 200 175"><rect width="115.37" height="1.15" x="51.02" y="138.51" fill="#0e0e27"/><path fill="#fff" d="M107.07,120.3l-.3,0a38.57,38.57,0,0,1-11.15,0l-.31,0-2.56,6.2a45.71,45.71,0,0,1-8.53-2.55l1.23-6.55-.28-.13a38.34,38.34,0,0,1-9.39-6.05l-.24-.21-5.43,3.77c-1.08-1-2.11-2.12-3.07-3.23s-1.86-2.28-2.74-3.51l4.55-4.83-.17-.26a38.51,38.51,0,0,1-4.61-10.18l-.09-.3-6.66.24a45.63,45.63,0,0,1-1.25-8.81l6.51-1.62V82a38.84,38.84,0,0,1,1.64-11l.09-.3-5.86-3.48a45.68,45.68,0,0,1,3.67-8.08l6.53,2.22.16-.26A38.89,38.89,0,0,1,76,52.83l.16-.14.2-.2-3.13-6.25a45.88,45.88,0,0,1,7.42-4.81L85.08,47l.28-.13a38.91,38.91,0,0,1,10.62-3l.3,0,.78-7.18a43.85,43.85,0,0,1,4.44-.22c1.45,0,2.92.07,4.37.21l.73,7.25.31,0A38.5,38.5,0,0,1,117.45,47l.28.13,4.62-5.74a46,46,0,0,1,7.39,4.78l-3.35,6.59.24.21a39.55,39.55,0,0,1,3.87,3.9,37.9,37.9,0,0,1,3.28,4.41l.17.26,7-2.34a45.45,45.45,0,0,1,3.62,8L138.23,71l.08.29a38.21,38.21,0,0,1,1.55,10.88v.31l7.07,1.8A46.38,46.38,0,0,1,145.61,93l-7.23-.3-.09.3a38.05,38.05,0,0,1-4.58,10l-.16.26,4.84,5.2a45.1,45.1,0,0,1-5.85,6.62l-5.73-4-.24.18-.16.14a38.85,38.85,0,0,1-9.18,5.87l-.28.13,1.22,6.79a45.43,45.43,0,0,1-8.53,2.42Zm-5.51-65.39a26.69,26.69,0,0,0-.93,53.36c.32,0,.64,0,1,0a26.69,26.69,0,0,0,.93-53.36Z"/><path d="M101.5,36.77h0c1.33,0,2.68.06,4,.18l.67,6.62.06.62.61.09a38.3,38.3,0,0,1,10.43,3.11l.56.27.39-.49,4.22-5.25a45.26,45.26,0,0,1,6.79,4.39l-3.06,6-.28.55.46.41a35.77,35.77,0,0,1,3.83,3.86,37.19,37.19,0,0,1,3.26,4.36l.33.52.59-.19,6.41-2.14a45,45,0,0,1,3.33,7.37l-5.82,3.39-.53.32.17.6a38,38,0,0,1,1.53,10.76v.62l.6.16,6.45,1.64a44.94,44.94,0,0,1-1.21,8l-6.59-.27-.63,0-.17.6a37.86,37.86,0,0,1-4.53,9.94l-.34.52.43.45,4.41,4.74a44.69,44.69,0,0,1-5.38,6.08l-5.23-3.67-.5-.32-.46.36a1,1,0,0,0-.16.14,38.63,38.63,0,0,1-9.08,5.81l-.57.25.11.61,1.11,6.16a44.15,44.15,0,0,1-7.84,2.23l-2.32-5.73-.23-.58-.62.09a37,37,0,0,1-5.47.4,40.13,40.13,0,0,1-5.57-.4l-.61-.09-.24.57L92.5,126a46.58,46.58,0,0,1-7.83-2.34l1.12-5.93.11-.61-.57-.26a38.52,38.52,0,0,1-9.29-6l-.47-.41-.51.35-4.91,3.41c-1-1-1.93-2-2.81-3s-1.71-2.09-2.53-3.23l4.11-4.36.43-.45-.34-.52a38.36,38.36,0,0,1-4.56-10.08l-.17-.6-.62,0-6,.22a44.82,44.82,0,0,1-1.16-8.09l5.89-1.47.61-.15V82a38.47,38.47,0,0,1,1.62-10.9l.18-.59-.53-.32L58.94,67a44,44,0,0,1,3.37-7.42l5.91,2,.59.2.34-.52a38.37,38.37,0,0,1,7.11-8.14l.18-.16.4-.4-.25-.51-2.86-5.71a45.4,45.4,0,0,1,6.82-4.42l4,5.07.38.48.57-.25a37.7,37.7,0,0,1,10.5-3l.62-.08.06-.62L97.42,37c1.35-.12,2.72-.19,4.08-.19Zm.09,71.92a27.09,27.09,0,0,0,1-54.16h-1a27.08,27.08,0,0,0-1,54.15l1,0ZM101.5,36a45.58,45.58,0,0,0-4.81.25l-.77,7.2A39,39,0,0,0,85.2,46.5l-4.44-5.58a46.28,46.28,0,0,0-8,5.21l3.15,6.28-.14.12a39,39,0,0,0-7.26,8.31L62,58.6a45.57,45.57,0,0,0-4,8.75l5.87,3.48A39,39,0,0,0,62.18,82l-6.52,1.62A44.71,44.71,0,0,0,57,93.11l6.66-.24a39.13,39.13,0,0,0,4.66,10.29L63.79,108a48,48,0,0,0,2.95,3.81,45.78,45.78,0,0,0,3.33,3.48l5.44-3.77A39.27,39.27,0,0,0,85,117.62l-1.23,6.57A45.82,45.82,0,0,0,93,126.94l2.57-6.21a38.4,38.4,0,0,0,11.26,0l2.57,6.33a45.1,45.1,0,0,0,9.23-2.63l-1.22-6.8a39.16,39.16,0,0,0,9.29-6l.13-.11,5.75,4a45.06,45.06,0,0,0,6.34-7.17l-4.86-5.21a38.21,38.21,0,0,0,4.62-10.15l7.24.3A45.55,45.55,0,0,0,147.34,84l-7.09-1.8a38.87,38.87,0,0,0-1.55-11l6.37-3.72a46.27,46.27,0,0,0-3.92-8.69l-7,2.34a39.52,39.52,0,0,0-7.23-8.39l3.35-6.61a45.85,45.85,0,0,0-8-5.17l-4.63,5.75A39.28,39.28,0,0,0,107,43.49l-.73-7.27A47,47,0,0,0,101.5,36Zm.09,71.91h-1a26.29,26.29,0,0,1,.92-52.57l1,0a26.29,26.29,0,0,1-.92,52.56Z"/><path fill="#005fd7" d="M110.12,95l.71,30.94a22.77,22.77,0,0,0-16-6.45C101.28,101.54,110.12,95,110.12,95Z"/><path fill="#005fd7" d="M110,94.86c5.9-5.11,26.6-5.35,37.1-2.81,10.68,2.59,8.56,18.1,8.56,29.59s2.67,16.61,2.67,16.61H102C102,122.12,104.22,99.84,110,94.86Z"/><path fill="#fff" d="M115.4,123.3c.68-1.1,1.88-1.12,4.39-.25a36.87,36.87,0,0,0,9.27,1.24,192.4,192.4,0,0,1,19.35-.78L146,119.17l16.45-2.56s13.4,21.24-3.4,21.24a73.38,73.38,0,0,1-29.44-6.33c-2.26,2.41-7.1-1.84-7.52-.58s-.51,4.8-1.82,4.65c-.79-.1-1.36-2.54-1.36-2.54a8.85,8.85,0,0,1-2.35,3c-1.4,1-1.57-.61-1.57-.61-.45,1-2.72,1.28-2.64-.1a26.49,26.49,0,0,1,1.19-3.58s-1.66,2.46-2.92,2,.38-2.41,2-5.64A41.3,41.3,0,0,1,115.4,123.3Z"/><path d="M111.05,130.3c-.84,1.45-1.4,2.41-1.17,3.07a1,1,0,0,0,.6.57,1.32,1.32,0,0,0,.44.08,2.88,2.88,0,0,0,1.8-1,13.21,13.21,0,0,0-.68,2.26,1.06,1.06,0,0,0,.28.82,1.39,1.39,0,0,0,1,.38,2.39,2.39,0,0,0,1.49-.54,1,1,0,0,0,.88.64,1.66,1.66,0,0,0,.94-.37,8.14,8.14,0,0,0,2.13-2.5c.25.81.73,2,1.41,2.11h.11c1.09,0,1.4-1.8,1.68-3.38a10.72,10.72,0,0,1,.3-1.44s0-.07.15-.07a5.85,5.85,0,0,1,1.65.56,10,10,0,0,0,3.61,1,2.7,2.7,0,0,0,1.92-.7A74.64,74.64,0,0,0,159,138.1c3.94,0,6.58-1.17,7.85-3.47,3.33-6-3.92-17.66-4.23-18.15a.27.27,0,0,0-.26-.12l-16.45,2.56a.3.3,0,0,0-.19.14.25.25,0,0,0,0,.24l2.24,4h-1.42c-8.2,0-13.46.45-16,.67-.76.07-1.26.11-1.5.11a37.06,37.06,0,0,1-9.19-1.22,9.11,9.11,0,0,0-2.81-.63,2,2,0,0,0-1.88,1l-.76,1.18a30.08,30.08,0,0,0-2.07,3.6C111.9,128.83,111.45,129.62,111.05,130.3Zm.44.26c.4-.7.86-1.48,1.31-2.38a30.09,30.09,0,0,1,2-3.55c.24-.36.48-.73.77-1.19a1.51,1.51,0,0,1,1.45-.75,8.64,8.64,0,0,1,2.64.6,37.11,37.11,0,0,0,9.36,1.25c.26,0,.77-.05,1.55-.11a176.22,176.22,0,0,1,17.8-.67h0a.27.27,0,0,0,.22-.12.27.27,0,0,0,0-.26l-2.28-4,15.92-2.48c.83,1.35,7.13,12.06,4.14,17.5-1.17,2.12-3.67,3.2-7.41,3.2a73.88,73.88,0,0,1-29.33-6.3.24.24,0,0,0-.29.05,2.18,2.18,0,0,1-1.69.68,9.51,9.51,0,0,1-3.41-1,5.91,5.91,0,0,0-1.85-.59.6.6,0,0,0-.63.41,10.81,10.81,0,0,0-.32,1.51c-.21,1.18-.51,3-1.18,3h0c-.37,0-.89-1.24-1.14-2.33a.27.27,0,0,0-.22-.2.26.26,0,0,0-.26.15,8.86,8.86,0,0,1-2.27,2.87,1.22,1.22,0,0,1-.65.27c-.44,0-.52-.7-.52-.7a.27.27,0,0,0-.21-.23.25.25,0,0,0-.27.15,1.61,1.61,0,0,1-1.37.68.88.88,0,0,1-.65-.22.56.56,0,0,1-.14-.45,23.3,23.3,0,0,1,1.18-3.5.25.25,0,0,0-.12-.31.25.25,0,0,0-.33.08c-.36.53-1.49,1.92-2.36,1.92a.78.78,0,0,1-.26,0,.46.46,0,0,1-.3-.26C110.21,132.76,110.77,131.79,111.49,130.56Z"/><rect width="6.65" height=".51" x="111.61" y="128.75" transform="rotate(-62.5 114.928 129.006)"/><path d="M116.54,130.41c.46-1.07,1-2.28,1.38-3.13l.45.22c-.4.84-.91,2.05-1.36,3.11-.37.86-.68,1.59-.88,2a22.29,22.29,0,0,0-.95,2.85l-.49-.13a22.77,22.77,0,0,1,1-2.93C115.87,132,116.18,131.26,116.54,130.41Z"/><path d="M119.4,130.52a17.72,17.72,0,0,1,.86-2.36l.45.23a18,18,0,0,0-.83,2.28c-.13.4-.24.74-.32,1-.25.66-.51,1.65-.51,1.66l-.49-.13s.26-1,.52-1.7C119.16,131.24,119.27,130.91,119.4,130.52Z"/><path fill="#005fd7" d="M168.66,119.47l-.09,0a.84.84,0,0,1,.05.17c.23,1.51-4.53,3.48-10.62,4.4s-11.22.44-11.45-1.07v-.09c-.46-.9-2.22-4.34-3.07-6.39l7-22.85C163.16,101.24,168.66,119.47,168.66,119.47Z"/><path d="M120,62.81a3.82,3.82,0,0,1-2.74-2.38s.94.41,6.13-.8c7.18-1.67,7.68,2.46,7.68,2.46,4.47-3.21,8.76,8.9,4,16-5,7.33-12.43,2.85-15.79.36s-.14-4.4-.18-6.16-2.38-2.31-2.59-6.13S120,62.81,120,62.81Z"/><path d="M117,63.51a3.47,3.47,0,0,0-.8,2.66,7,7,0,0,0,1.75,4.4,3,3,0,0,1,.85,1.72,3.49,3.49,0,0,1-.6,1.6c-.71,1.31-1.59,2.93.88,4.77,3.31,2.45,6.37,3.69,9.09,3.69s5.22-1.38,7.06-4.12c2.89-4.27,2.6-10.61.65-14.26-.91-1.72-2.09-2.67-3.32-2.67a2.65,2.65,0,0,0-1.34.38c-.28-.82-1.27-2.7-4.75-2.7a14.12,14.12,0,0,0-3.15.41,26.24,26.24,0,0,1-5.38.85,2.24,2.24,0,0,1-.6-.05.23.23,0,0,0-.26.05.23.23,0,0,0-.07.26,4,4,0,0,0,1.77,2.11A3.16,3.16,0,0,0,117,63.51Zm.37.35a3.11,3.11,0,0,1,2.24-.82,2.73,2.73,0,0,1,.35,0,.26.26,0,0,0,.28-.21.26.26,0,0,0-.19-.29,3.55,3.55,0,0,1-2.38-1.82,22.89,22.89,0,0,0,5.77-.86,13.46,13.46,0,0,1,3-.39c3.95,0,4.32,2.52,4.34,2.63a.24.24,0,0,0,.15.2.26.26,0,0,0,.24,0,2.32,2.32,0,0,1,1.36-.48c1,0,2.06.85,2.88,2.4,1.87,3.52,2.15,9.63-.63,13.74-1.74,2.59-4,3.9-6.64,3.9s-5.61-1.25-8.79-3.6c-2.11-1.57-1.44-2.81-.73-4.11a4,4,0,0,0,.66-1.86,3.41,3.41,0,0,0-1-2,6.51,6.51,0,0,1-1.64-4.12A3,3,0,0,1,117.37,63.86Z"/><path d="M150.57,136.5a1.75,1.75,0,0,1-1.75,1.75H105.25v-1.86h45.32Z"/><path fill="#fff" d="M52.65,104.46H97.82a1.76,1.76,0,0,1,1.68,1.25L108.71,136a1.75,1.75,0,0,1-1.68,2.27H61.86A1.75,1.75,0,0,1,60.18,137L51,106.74A1.76,1.76,0,0,1,52.65,104.46Z"/><path d="M51,105a2,2,0,0,0-.3,1.78l9.21,30.27a2,2,0,0,0,1.92,1.42H107a2,2,0,0,0,1.62-.81,2,2,0,0,0,.31-1.78l-9.22-30.27a2,2,0,0,0-1.92-1.43H52.65A2,2,0,0,0,51,105Zm.41.3a1.49,1.49,0,0,1,1.21-.61H97.82a1.5,1.5,0,0,1,1.44,1.07l9.21,30.26A1.51,1.51,0,0,1,107,138H61.86a1.5,1.5,0,0,1-1.44-1.07l-9.21-30.27A1.47,1.47,0,0,1,51.44,105.33Z"/><path fill="#005fd7" d="M77,127.67l.39-.24a1.41,1.41,0,0,1,1.38-.07l1.28.63a1.42,1.42,0,0,1,.15,2.45h0a3,3,0,0,1-3.29-.44A1.41,1.41,0,0,1,77,127.67Z"/><path d="M76.07,128.82a1.67,1.67,0,0,0,.67,1.4A3.87,3.87,0,0,0,79,131h0a2.48,2.48,0,0,0,1.34-.37h0a1.61,1.61,0,0,0,.75-1.46,1.68,1.68,0,0,0-.93-1.42l-1.27-.63a1.69,1.69,0,0,0-1.63.07l-.39.24A1.67,1.67,0,0,0,76.07,128.82Zm.51,0a1.17,1.17,0,0,1,.56-1l.39-.24a1.17,1.17,0,0,1,1.13,0l1.27.63a1.15,1.15,0,0,1,.65,1,1.11,1.11,0,0,1-.51,1l.11.23-.13-.22a2,2,0,0,1-1.07.29,3.34,3.34,0,0,1-1.94-.71A1.12,1.12,0,0,1,76.58,128.84Z"/><path fill="#005fd7" d="M76,123.56h0a3,3,0,0,1,3.29.47,1.43,1.43,0,0,1-.15,2.35l-.39.24a1.46,1.46,0,0,1-1.39,0L76.1,126A1.4,1.4,0,0,1,76,123.56Z"/><path d="M75.07,124.79a1.72,1.72,0,0,0,.92,1.44l1.26.65a1.68,1.68,0,0,0,.77.18,1.64,1.64,0,0,0,.86-.24l.39-.23a1.7,1.7,0,0,0,.82-1.36,1.65,1.65,0,0,0-.65-1.41,3.87,3.87,0,0,0-2.27-.84,2.48,2.48,0,0,0-1.3.35h0A1.61,1.61,0,0,0,75.07,124.79Zm.51,0a1.13,1.13,0,0,1,.53-1l-.11-.22.13.21a2,2,0,0,1,1-.27,3.28,3.28,0,0,1,2,.74,1.11,1.11,0,0,1,.45,1,1.16,1.16,0,0,1-.57,1l-.39.24a1.18,1.18,0,0,1-1.14,0l-1.26-.64A1.16,1.16,0,0,1,75.58,124.77Z"/><path fill="#fff" d="M121.59,77.63,136.06,76c-.22,2.07.56,15.13.56,15.13-12.6,5.69-15.58,0-15.58,0C121.92,87.68,121.59,77.63,121.59,77.63Z"/><path fill="#0e0e27" d="M120.8,91a.22.22,0,0,0,0,.18c.06.11,1.45,2.67,6.16,2.67a24.62,24.62,0,0,0,9.75-2.55.26.26,0,0,0,.14-.25c0-.13-.77-13.06-.56-15.09a.24.24,0,0,0-.07-.2.25.25,0,0,0-.21-.08l-14.46,1.66a.27.27,0,0,0-.23.26C121.35,77.74,121.66,87.7,120.8,91Zm.51,0c.79-3.25.59-11.66.54-13.21l13.94-1.6c-.13,2.64.48,13.13.57,14.69A24,24,0,0,1,127,93.38C123,93.38,121.58,91.48,121.31,91.07Z"/><path fill="#fff" d="M118.16,65.65c1.32-6.15,17.44-5.49,17.44,1.63,0,1.07.19,3.14.14,5.26h0a3.64,3.64,0,0,1,0,7.28,3.94,3.94,0,0,1-.77-.08c-.4,2.78-.91,6.34-3.24,8.46-1.5,1.35-4.56-.35-5.53,2.24-3.5-.17-6.61-1.09-8.89-3.75-1.69-2-1.07-6-.87-8.74S117.59,68.3,118.16,65.65Z"/><path d="M116.13,79.05c-.23,2.67-.51,6,1,7.8,2.07,2.43,5,3.65,9.07,3.84h0a.27.27,0,0,0,.24-.16c.51-1.36,1.61-1.4,2.88-1.45a3.88,3.88,0,0,0,2.58-.69c2.33-2.12,2.88-5.54,3.29-8.35a5.09,5.09,0,0,0,.55,0A3.89,3.89,0,0,0,136,72.3c0-1.26,0-2.49-.09-3.49,0-.61-.06-1.14-.06-1.53,0-4-4.81-6.08-9.56-6.08-3.43,0-7.69,1.15-8.38,4.4-.57,2.66-1.49,9.62-1.68,12.33C116.2,78.29,116.17,78.66,116.13,79.05Zm.51,0c0-.39.06-.76.09-1.12.19-2.7,1.11-9.62,1.67-12.27s4.39-4,7.89-4c4.5,0,9.06,1.91,9.06,5.57,0,.4,0,.94.05,1.56,0,1,.12,2.37.09,3.7a.24.24,0,0,0,.07.18.25.25,0,0,0,.18.08h0a3.39,3.39,0,1,1,0,6.77,4.17,4.17,0,0,1-.71-.07H135a.23.23,0,0,0-.14,0,.27.27,0,0,0-.11.18v0c-.4,2.77-.9,6.22-3.17,8.27a3.49,3.49,0,0,1-2.25.57c-1.22,0-2.61.09-3.26,1.6-3.87-.22-6.59-1.38-8.54-3.66C116.14,84.88,116.42,81.67,116.64,79.09Z"/><path d="M116.48,78c-.2,2.75-.82,6.76.87,8.74,2.28,2.66,5.39,3.58,8.89,3.75,1-2.59,4-.89,5.53-2.24,2.63-2.39,2.94-6.61,3.4-9.48a5.92,5.92,0,0,1-3,.74c-2.11,0-3.3-.94-4.62-1.89a5.8,5.8,0,0,0-4.18-.91c-1.2.19-2.09.85-3.64.85a5.74,5.74,0,0,1-3.16-.86C116.55,77.15,116.5,77.59,116.48,78Zm4.63,1c0-.76,6-.28,6,.47,0,1.74-2.43,2.85-4.33,2.18A2.45,2.45,0,0,1,121.11,78.93Z"/><path d="M120.86,78.93a2.71,2.71,0,0,0,1.88,2.89A3.85,3.85,0,0,0,124,82c1.64,0,3.4-1,3.4-2.63,0-1-4.49-1.11-4.53-1.11C121.09,78.29,120.86,78.64,120.86,78.93Zm.5,0a3.7,3.7,0,0,1,1.52-.18,9.66,9.66,0,0,1,4,.64c0,1.25-1.5,2.09-2.89,2.09a3.57,3.57,0,0,1-1.1-.18A2.21,2.21,0,0,1,121.36,79Z"/><path d="M116.13,79.05c-.23,2.67-.51,6,1,7.8,2.07,2.43,5,3.65,9.07,3.84h0a.27.27,0,0,0,.24-.16c.51-1.36,1.61-1.4,2.88-1.45a3.88,3.88,0,0,0,2.58-.69c2.39-2.18,2.91-5.72,3.32-8.57.05-.37.1-.72.16-1.06a.25.25,0,0,0-.11-.24.26.26,0,0,0-.27,0,5.61,5.61,0,0,1-2.83.71,6.76,6.76,0,0,1-4.27-1.7l-.2-.14a6.11,6.11,0,0,0-4.37-1,8,8,0,0,0-1.38.39,6.46,6.46,0,0,1-2.22.46,5.61,5.61,0,0,1-3-.82.23.23,0,0,0-.24,0,.25.25,0,0,0-.14.2c-.07.53-.11,1-.13,1.31S116.17,78.66,116.13,79.05Zm.51,0c0-.39.06-.76.09-1.12s0-.55.08-.9a6.25,6.25,0,0,0,3,.7,6.78,6.78,0,0,0,2.39-.49,6.65,6.65,0,0,1,1.28-.37,5.61,5.61,0,0,1,4,.87l.2.14a7.16,7.16,0,0,0,4.57,1.79,6.28,6.28,0,0,0,2.63-.54c0,.19-.05.38-.08.58-.4,2.76-.9,6.21-3.17,8.26a3.49,3.49,0,0,1-2.25.57c-1.22,0-2.61.09-3.26,1.6-3.87-.22-6.59-1.38-8.54-3.66C116.14,84.88,116.42,81.67,116.64,79.09Z"/><path fill="#0e0e27" d="M118.46,69a6.38,6.38,0,0,1,4-.29.24.24,0,0,1,.15.32.25.25,0,0,1-.32.15,6.1,6.1,0,0,0-3.71.3h-.08a.25.25,0,0,1-.24-.17A.26.26,0,0,1,118.46,69Z"/><path fill="#0e0e27" d="M127.69,67.38a6.4,6.4,0,0,1,3.88,1.2.24.24,0,0,1,.08.34.25.25,0,0,1-.22.12.31.31,0,0,1-.13,0,6.06,6.06,0,0,0-3.54-1.13.26.26,0,0,1-.28-.22A.24.24,0,0,1,127.69,67.38Z"/><path fill="#0e0e27" d="M128.43,71.68a.6.6,0,1,1-.6.6A.6.6,0,0,1,128.43,71.68Z"/><path fill="#0e0e27" d="M127.58,72.28a.85.85,0,0,0,1.7,0,.85.85,0,1,0-1.7,0Zm.51,0a.34.34,0,1,1,.34.34A.35.35,0,0,1,128.09,72.28Z"/><path fill="#0e0e27" d="M119.65,70.67a.6.6,0,0,1,0,1.2.6.6,0,0,1,0-1.2Z"/><path fill="#0e0e27" d="M118.8,71.27a.85.85,0,1,0,.85-.85A.86.86,0,0,0,118.8,71.27Zm.51,0a.34.34,0,0,1,.34-.34.34.34,0,1,1,0,.68A.34.34,0,0,1,119.31,71.27Z"/><path fill="#0e0e27" d="M123.3,73.83a.26.26,0,0,1,.11.5c-.18,0-.41.13-.46.28s.14.5.22.59a.24.24,0,0,1,0,.35.23.23,0,0,1-.17.07.25.25,0,0,1-.19-.09,1.26,1.26,0,0,1-.32-1.07A1,1,0,0,1,123.3,73.83Z"/><path fill="#00162c" d="M137.13,74.05a2.1,2.1,0,0,1,1.32,2.07,2.73,2.73,0,0,1-2.6,2.47l0-.5c.08,0,2.08-.24,2.14-2a1.6,1.6,0,0,0-1-1.59,1.89,1.89,0,0,0-2,.32l-.36-.35A2.36,2.36,0,0,1,137.13,74.05Z"/><path fill="#00162c" d="M136.63,75.41a1.25,1.25,0,0,0-.08-1.07l.46-.21a1.55,1.55,0,0,1-1,2.33l-.11-.49A1.28,1.28,0,0,0,136.63,75.41Z"/><path fill="#005fd7" d="M125.58,55c4.39-1.32,14.37,3.07,13.49,9.33S137,69.08,137,69.08s.09-6.09-16-8.5A6.46,6.46,0,0,1,125.58,55Z"/><path d="M106.82,59h17.42C128,59,134.7,63.62,136,65.35a5.52,5.52,0,0,1,1,3.73,4.81,4.81,0,0,0-1.93-3.18c-1.92-1.38-12.46-3.71-15.08-3.09a4.07,4.07,0,0,0-3.51,4.26S102.6,59,106.82,59Z"/><path d="M105.78,59.24c-.08.33-.29,1.09,5.19,4.71,2.63,1.74,5.36,3.32,5.38,3.34a.26.26,0,0,0,.27,0,.25.25,0,0,0,.11-.24c0-.13-.27-3.15,3.32-4a5.36,5.36,0,0,1,1.11-.09c3.6,0,12.08,1.94,13.76,3.14a4.64,4.64,0,0,1,1.83,3,.24.24,0,0,0,.25.22h0a.26.26,0,0,0,.25-.22,5.72,5.72,0,0,0-1.06-3.91c-1.32-1.77-8.06-6.44-12-6.44H106.82C106.59,58.76,105.92,58.76,105.78,59.24Zm.49.14s.12-.12.55-.12h17.42c3.6,0,10.24,4.49,11.55,6.24a4.83,4.83,0,0,1,.81,1.71,5.31,5.31,0,0,0-1.39-1.52c-1.76-1.27-10.3-3.24-14.05-3.24a5.74,5.74,0,0,0-1.23.11,4.35,4.35,0,0,0-3.7,4.07c-.84-.5-2.94-1.75-5-3.1C106.22,60.21,106.25,59.45,106.27,59.38Z"/><path fill="#00a9ff" d="M59.72,73.6H42.57a11.23,11.23,0,1,0,0,22.45H59.72a11.23,11.23,0,0,0,0-22.45Z"/><path d="M43.24,82.12A3.62,3.62,0,0,1,45,81.68a3.24,3.24,0,0,1,2.42,1L48,82.1a3.63,3.63,0,0,0-1.31-.89,4.56,4.56,0,0,0-1.68-.3,4.44,4.44,0,0,0-2.19.54,3.87,3.87,0,0,0-1.54,1.49,4.38,4.38,0,0,0,0,4.25,3.91,3.91,0,0,0,1.53,1.49,4.44,4.44,0,0,0,2.19.54,4.37,4.37,0,0,0,1.68-.31A3.58,3.58,0,0,0,48,88l-.55-.55a3.23,3.23,0,0,1-2.42,1A3.52,3.52,0,0,1,43.24,88,3.14,3.14,0,0,1,42,86.79a3.53,3.53,0,0,1,0-3.45A3.23,3.23,0,0,1,43.24,82.12Z"/><path d="M51.46,82.12a3.59,3.59,0,0,1,1.76-.44,3.22,3.22,0,0,1,2.41,1l.55-.55a3.59,3.59,0,0,0-1.3-.89,4.64,4.64,0,0,0-1.68-.3,4.48,4.48,0,0,0-2.2.54,3.91,3.91,0,0,0-1.53,1.49,4.31,4.31,0,0,0,0,4.25A3.91,3.91,0,0,0,51,88.68a4.71,4.71,0,0,0,3.87.23A3.55,3.55,0,0,0,56.18,88l-.55-.55a3.19,3.19,0,0,1-2.41,1A3.49,3.49,0,0,1,51.46,88a3.16,3.16,0,0,1-1.25-1.21,3.6,3.6,0,0,1,0-3.45A3.26,3.26,0,0,1,51.46,82.12Z"/><polygon points="60.39 82.59 59.66 82.59 59.66 84.73 57.49 84.73 57.49 85.41 59.66 85.41 59.66 87.54 60.39 87.54 60.39 85.41 62.56 85.41 62.56 84.73 60.39 84.73 60.39 82.59"/><rect width="23.83" height="19.22" x="82.67" y="68.68" rx="4.11"/><path fill="#fff" d="M89.92,74.35V76.6c0,.76-.34,1.13-1,1.13h-.1v1.12h.1c.69,0,1,.38,1,1.14v2.25c0,1.33.75,2.09,2.25,2.26V83.37c-.75-.06-1.13-.44-1.13-1.13V80a2.24,2.24,0,0,0-.76-1.7A2.22,2.22,0,0,0,91,76.6V74.35c0-.69.38-1.07,1.13-1.13V72.09C90.67,72.27,89.92,73,89.92,74.35Z"/><path fill="#fff" d="M99.25,76.6V74.35c0-1.33-.75-2.09-2.25-2.26v1.13c.75.06,1.13.43,1.13,1.13V76.6a2.22,2.22,0,0,0,.76,1.69,2.24,2.24,0,0,0-.76,1.7v2.25c0,.69-.38,1.06-1.13,1.13V84.5c1.5-.18,2.25-.93,2.25-2.26V80c0-.76.34-1.14,1-1.14h.1V77.73h-.1C99.59,77.73,99.25,77.36,99.25,76.6Z"/><path fill="#ffcf0b" d="M86.71,35.34H57.29a9.33,9.33,0,0,0,0,18.66H86.71a9.33,9.33,0,1,0,0-18.66Z"/><path d="M61.05,43.19a2.63,2.63,0,0,0-1.18.26,1.89,1.89,0,0,0-.81.72V41h-.72v7.53h.72v-2.8a1.94,1.94,0,0,1,.5-1.42,1.82,1.82,0,0,1,1.36-.51,1.57,1.57,0,0,1,1.19.44,1.75,1.75,0,0,1,.41,1.27v3h.72V45.48a2.25,2.25,0,0,0-.59-1.7A2.18,2.18,0,0,0,61.05,43.19Z"/><path d="M67.4,47.93A1.29,1.29,0,0,1,67,48a.9.9,0,0,1-.69-.25A1,1,0,0,1,66,47V43.84h1.63v-.61H66V42.07h-.72v1.16h-.95v.61h.95v3.23a1.42,1.42,0,0,0,1.56,1.55,1.89,1.89,0,0,0,.63-.1,1.35,1.35,0,0,0,.5-.28l-.25-.51A1.25,1.25,0,0,1,67.4,47.93Z"/><path d="M76,43.19a2.61,2.61,0,0,0-1.26.3,2.12,2.12,0,0,0-.85.83,1.77,1.77,0,0,0-.73-.84A2.29,2.29,0,0,0,72,43.19a2.43,2.43,0,0,0-1.17.27,1.84,1.84,0,0,0-.79.75v-1h-.69v5.34H70v-2.8a2,2,0,0,1,.48-1.42,1.71,1.71,0,0,1,1.3-.51,1.45,1.45,0,0,1,1.14.44,1.79,1.79,0,0,1,.4,1.27v3h.72v-2.8a2,2,0,0,1,.48-1.42,1.7,1.7,0,0,1,1.31-.51,1.48,1.48,0,0,1,1.13.44,1.79,1.79,0,0,1,.4,1.27v3h.72V45.48a2.35,2.35,0,0,0-.57-1.71A2.15,2.15,0,0,0,76,43.19Z"/><rect width=".72" height="7.52" x="80.08" y="41.04"/><polygon points="81.55 49.58 82.21 49.58 85.55 40.03 84.89 40.03 81.55 49.58"/><polygon points="84.28 49.58 84.94 49.58 88.29 40.03 87.63 40.03 84.28 49.58"/></svg>