<svg xmlns="http://www.w3.org/2000/svg" xmlns:xlink="http://www.w3.org/1999/xlink" data-name="Layer 1" viewBox="0 0 400 400"><defs><linearGradient id="a" x1="-1739.91" x2="-1757.79" y1="452.32" y2="328.66" gradientTransform="matrix(-1 0 0 1 -1603.03 0)" gradientUnits="userSpaceOnUse"><stop offset="0" stop-color="#001b8e"/><stop offset="1" stop-color="#0073d6"/></linearGradient><linearGradient id="c" x1="-1795.52" x2="-1813.4" y1="460.36" y2="336.71" xlink:href="#a"/><clipPath id="b"><rect width="247.42" height="169.4" x="69.61" y="166.67" fill="none"/></clipPath></defs><g clip-path="url(#b)"><path fill="#431718" d="M170.91,315.34H306.16V429.16H170.91Zm133.29,2H172.87V427.2H304.2Z"/><path fill="#431718" d="M116.38,315.34H268.29V429.16H116.38Zm150,2h-148V427.2h148Z"/><rect width="206.56" height="7.34" x="107.18" y="308.11" fill="#fcdbcc" transform="rotate(180 210.465 311.785)"/><rect width="51.54" height="7.34" x="262.2" y="308.11" fill="#431718" transform="rotate(180 287.975 311.785)"/><path fill="#fcdbcc" d="M254.22,308H233.63l-7.47-38.9a10.11,10.11,0,0,1,9.93-12h0a10.11,10.11,0,0,1,9.93,8.2Z"/><path fill="#431718" d="M254.52,307.91l-2.87-15-.06-.3-.06-.3-.37-1.94-.16-.84-1.08-5.63-3.6-18.75a10.42,10.42,0,0,0-20.46,3.93l2.85,14.82,1.08,5.63.16.84.37,1.94.06.3.06.3,2.13,11.12,0,.12.06.31.05.3,0,.12.53,2.74.06.3.06.3h21.21Zm-20.64-.25-.53-2.74,0-.12-.06-.3-.06-.31,0-.12L231.05,293l-.06-.3-.06-.3-.37-1.94-.16-.84-1.08-5.63L226.45,269a9.82,9.82,0,0,1,19.28-3.7l3.57,18.64,1.09,5.63.16.84.37,1.94.06.3.06.3,2.82,14.71Z"/><path fill="#431718" d="M233.34,299.27l.82-.16-5.85-30.47a7.92,7.92,0,0,1,15.56-3l3.49,18.2.83-.16-3.5-18.2a8.76,8.76,0,1,0-17.2,3.3Z"/><rect width="54.55" height="3.47" x="195.25" y="304.49" fill="#fcdbcc"/><path fill="#431718" d="M195,304.19v4.07h55.16v-4.07Zm54.55,3.47H195.56V304.8H249.5Z"/><rect width="44.74" height=".84" x="195.25" y="304.07" fill="#431718"/><path fill="#fcdbcc" d="M169,292.65H286.56a6.13,6.13,0,0,0,6.1-5.49l7.44-71a6.13,6.13,0,0,0-6.1-6.76H176.41a6.13,6.13,0,0,0-6.1,5.49l-7.44,71A6.13,6.13,0,0,0,169,292.65Z"/><path fill="#431718" d="M298.78,211.18a6.45,6.45,0,0,0-4.78-2.12H176.41a6.41,6.41,0,0,0-6.4,5.75l-7.44,71A6.44,6.44,0,0,0,169,293H286.56a6.43,6.43,0,0,0,6.4-5.76l4-38,3.47-33.07A6.43,6.43,0,0,0,298.78,211.18Zm1,4.91-3.47,33.14-4,37.89a5.82,5.82,0,0,1-5.8,5.23H169a5.84,5.84,0,0,1-5.8-6.44l7.44-71a5.81,5.81,0,0,1,5.8-5.22H294a5.81,5.81,0,0,1,5.79,6.43Z"/><path fill="#6f8bef" d="M297.23,215.82l-7.13,68.12H166l7.21-68.79a3.24,3.24,0,0,1,3.23-2.91H294a3.25,3.25,0,0,1,3.23,3.58Z"/><path fill="#431718" d="M169,290.41H286.56l.39,0-.08-.84a1.62,1.62,0,0,1-.31,0H169a3.06,3.06,0,0,1-3-3.37l7.44-71a3,3,0,0,1,3-2.73v-.85a3.88,3.88,0,0,0-3.87,3.49l-7.44,71a3.9,3.9,0,0,0,3.87,4.3Z"/><polygon fill="#411815" points="188.06 270.12 188.25 268.29 174.08 268.29 173.89 270.12 188.06 270.12"/><polygon fill="#411815" points="198.78 264.6 198.97 262.77 174.56 262.77 174.38 264.6 198.78 264.6"/><polygon fill="#65b69b" points="195.36 259.08 195.55 257.25 174.98 257.25 174.8 259.08 195.36 259.08"/><polygon fill="#411815" points="191.79 270.12 191.98 268.29 189.19 268.29 189 270.12 191.79 270.12"/><polygon fill="#411815" points="187.36 275.53 187.55 273.7 173.38 273.7 173.19 275.53 187.36 275.53"/><polygon fill="#411815" points="191.09 275.53 191.28 273.7 188.5 273.7 188.31 275.53 191.09 275.53"/><polygon fill="#411815" points="214.61 270.12 214.8 268.29 200.63 268.29 200.44 270.12 214.61 270.12"/><polygon fill="#411815" points="225.33 264.6 225.52 262.77 201.12 262.77 200.93 264.6 225.33 264.6"/><polygon fill="#411815" points="224.53 275.53 224.72 273.7 200.31 273.7 200.13 275.53 224.53 275.53"/><polygon fill="#411815" points="221.92 259.08 222.1 257.25 201.54 257.25 201.35 259.08 221.92 259.08"/><polygon fill="#411815" points="218.34 270.12 218.53 268.29 215.74 268.29 215.56 270.12 218.34 270.12"/><polygon fill="#411815" points="189.94 253.76 190.12 251.93 175.95 251.93 175.77 253.76 189.94 253.76"/><polygon fill="#411815" points="200.66 248.24 200.84 246.41 176.44 246.41 176.25 248.24 200.66 248.24"/><polygon fill="#411815" points="197.24 242.72 197.43 240.89 176.86 240.89 176.68 242.72 197.24 242.72"/><polygon fill="#411815" points="193.67 253.76 193.85 251.93 191.07 251.93 190.88 253.76 193.67 253.76"/><polygon fill="#f8bc27" points="216.49 253.76 216.68 251.93 202.51 251.93 202.32 253.76 216.49 253.76"/><polygon fill="#411815" points="227.21 248.24 227.4 246.41 202.99 246.41 202.81 248.24 227.21 248.24"/><polygon fill="#fff" points="223.79 242.72 223.98 240.89 203.41 240.89 203.23 242.72 223.79 242.72"/><polygon fill="#411815" points="220.22 253.76 220.41 251.93 217.62 251.93 217.44 253.76 220.22 253.76"/><polygon fill="#411815" points="191.81 237.4 192 235.57 177.83 235.57 177.65 237.4 191.81 237.4"/><polygon fill="#411815" points="202.54 231.88 202.72 230.05 178.32 230.05 178.13 231.88 202.54 231.88"/><polygon fill="#411815" points="199.12 226.36 199.31 224.53 178.74 224.53 178.55 226.36 199.12 226.36"/><polygon fill="#411815" points="195.55 237.4 195.73 235.57 192.95 235.57 192.76 237.4 195.55 237.4"/><polygon fill="#65b69b" points="218.37 237.4 218.56 235.57 204.39 235.57 204.2 237.4 218.37 237.4"/><polygon fill="#411815" points="229.09 231.88 229.28 230.05 204.87 230.05 204.69 231.88 229.09 231.88"/><polygon fill="#411815" points="225.67 226.36 225.86 224.53 205.29 224.53 205.1 226.36 225.67 226.36"/><polygon fill="#65b69b" points="222.1 237.4 222.29 235.57 219.5 235.57 219.31 237.4 222.1 237.4"/><polygon fill="#411815" points="193.69 221.04 193.88 219.21 179.71 219.21 179.52 221.04 193.69 221.04"/><polygon fill="#411815" points="197.43 221.04 197.61 219.21 194.82 219.21 194.64 221.04 197.43 221.04"/><polygon fill="#411815" points="220.25 221.04 220.43 219.21 206.26 219.21 206.08 221.04 220.25 221.04"/><polygon fill="#411815" points="223.98 221.04 224.16 219.21 221.38 219.21 221.19 221.04 223.98 221.04"/><polygon fill="#411815" points="246.75 270.12 246.93 268.29 232.76 268.29 232.58 270.12 246.75 270.12"/><polygon fill="#411815" points="257.47 264.6 257.65 262.77 233.25 262.77 233.06 264.6 257.47 264.6"/><polygon fill="#411815" points="254.05 259.08 254.24 257.25 233.67 257.25 233.48 259.08 254.05 259.08"/><polygon fill="#411815" points="250.48 270.12 250.66 268.29 247.88 268.29 247.69 270.12 250.48 270.12"/><polygon fill="#411815" points="273.3 270.12 273.48 268.29 259.31 268.29 259.13 270.12 273.3 270.12"/><polygon fill="#411815" points="284.02 264.6 284.21 262.77 259.8 262.77 259.62 264.6 284.02 264.6"/><polygon fill="#411815" points="280.6 259.08 280.79 257.25 260.22 257.25 260.04 259.08 280.6 259.08"/><polygon fill="#411815" points="277.03 270.12 277.22 268.29 274.43 268.29 274.24 270.12 277.03 270.12"/><polygon fill="#411815" points="248.62 253.76 248.81 251.93 234.64 251.93 234.45 253.76 248.62 253.76"/><polygon fill="#411815" points="259.35 248.24 259.53 246.41 235.13 246.41 234.94 248.24 259.35 248.24"/><polygon fill="#411815" points="255.93 242.72 256.11 240.89 235.55 240.89 235.36 242.72 255.93 242.72"/><polygon fill="#411815" points="252.35 253.76 252.54 251.93 249.75 251.93 249.57 253.76 252.35 253.76"/><polygon fill="#411815" points="275.18 253.76 275.36 251.93 261.19 251.93 261.01 253.76 275.18 253.76"/><polygon fill="#f8bc27" points="285.9 248.24 286.08 246.41 261.68 246.41 261.49 248.24 285.9 248.24"/><polygon fill="#fff" points="282.48 242.72 282.67 240.89 262.1 240.89 261.91 242.72 282.48 242.72"/><polygon fill="#411815" points="278.91 253.76 279.1 251.93 276.31 251.93 276.12 253.76 278.91 253.76"/><polygon fill="#411815" points="250.5 237.4 250.69 235.57 236.52 235.57 236.33 237.4 250.5 237.4"/><polygon fill="#411815" points="261.22 231.88 261.41 230.05 237 230.05 236.82 231.88 261.22 231.88"/><polygon fill="#411815" points="257.81 226.36 257.99 224.53 237.43 224.53 237.24 226.36 257.81 226.36"/><polygon fill="#411815" points="254.23 237.4 254.42 235.57 251.63 235.57 251.44 237.4 254.23 237.4"/><polygon fill="#411815" points="277.05 237.4 277.24 235.57 263.07 235.57 262.88 237.4 277.05 237.4"/><polygon fill="#411815" points="287.77 231.88 287.96 230.05 263.56 230.05 263.37 231.88 287.77 231.88"/><polygon fill="#411815" points="284.36 226.36 284.55 224.53 263.98 224.53 263.79 226.36 284.36 226.36"/><polygon fill="#411815" points="280.79 237.4 280.97 235.57 278.19 235.57 278 237.4 280.79 237.4"/><polygon fill="#65b69b" points="251.9 275.53 252.09 273.7 231.52 273.7 231.33 275.53 251.9 275.53"/><polygon fill="#fff" points="278.45 275.53 278.64 273.7 258.07 273.7 257.88 275.53 278.45 275.53"/><polygon fill="#411815" points="252.38 221.04 252.56 219.21 238.4 219.21 238.21 221.04 252.38 221.04"/><polygon fill="#411815" points="256.11 221.04 256.3 219.21 253.51 219.21 253.32 221.04 256.11 221.04"/><polygon fill="#411815" points="278.93 221.04 279.12 219.21 264.95 219.21 264.76 221.04 278.93 221.04"/><polygon fill="#411815" points="282.66 221.04 282.85 219.21 280.06 219.21 279.88 221.04 282.66 221.04"/><path fill="#431718" d="M251.46,308.23s-1.92-10.39-10.82-10.39c-9.89,0-14.24,5.84-16.62,10.29Z"/><path fill="url(#a)" d="M146.9,350.9c-7.29,8-12.7,14.57-22.77,37.69-2.86,6.56-10.88,13.29-10.88,13.29,4.74-2.38,33.12,40.51,13.15,40.83,0,0,14.22,3,31.2-16.71s25.33-66,23.68-76.34S159.64,337,146.9,350.9Z"/><path fill="#431718" d="M181.28,349.66c-1.66-10.35-21.64-12.64-34.38,1.24a88.1,88.1,0,0,0-14.64,20.58c1,.06,2.22.16,2.79.18a43.76,43.76,0,0,1,6,.65,20.61,20.61,0,0,1,15,10.5c6.72,12.24-.32,27.18-8.3,36.8a71.42,71.42,0,0,1-14.64,12.93c1,5.77-.47,10.07-6.74,10.17,0,0,14.22,3,31.2-16.71S182.93,360,181.28,349.66Z"/><path fill="url(#c)" d="M203.68,350.9c-7.3,8-12.7,14.57-22.78,37.69C178,395.15,170,401.88,170,401.88c4.73-2.38,33.11,40.51,13.15,40.83,0,0,14.21,3,31.19-16.71s25.34-66,23.68-76.34S216.41,337,203.68,350.9Z"/><path fill="#f8bc27" d="M116.55,369.08c9.28,3.12,26.18,1.49,43.7,1.49s51.67,2.27,61.82-2.29c7.23-3.25,23.79-14.23,12.25-30S126,319.5,115.82,319.1,91.66,360.71,116.55,369.08Z"/><path fill="#431718" d="M124.76,351.83l.53-1.6-.79-.26-.54,1.59Z"/><path fill="#431718" d="M139.34,356l.41-1.63,1.62.4-.39,1.63Zm-4.07-1,.43-1.62,1.62.42-.42,1.63Zm-4.06-1.12.46-1.62,1.61.46-.45,1.62Zm-4-1.2.5-1.6,1.6.48-.49,1.61Z"/><path fill="#fa8161" d="M108.13,210.2v0A29.7,29.7,0,0,1,110,193.09c2.63-6.11,12.86-9.82,26.31-3.81,7,3.12.38,13.92-1.39,20.09-2,6.93-7.54,16.65-13,15.55a9,9,0,0,1-2.83-1.5L117,231.69s-11.9,3-17-5.06Z"/><path fill="#431718" d="M137.81,196c-.81,0-3.25,0-3.25,0s-2.69,5.11-4.28,6.78-2.08,6.39-3.39-.33-2,6.78-10.4,8.39-10.78,2.56-10.78,2.56.2-3.12-1.43-4.56-4.44-10.16-1.26-18.7,8.17-9.88,16.28-8.38S126,179,131,180s13.21-2.27,13.21-2.27S145.24,195.62,137.81,196Z"/><path fill="#65b69b" d="M122.32,229.29c14.28,5,18.38,16.25,26.23,48.73s12.2,35.75,14.86,44.78c0,0-22,17.66-38.56,47.81,0,0-53,5.51-49.53-39.88s-2.71-55.4-.68-72.34,13.9-31.84,23.66-32.77C106.34,224.86,111.3,225.41,122.32,229.29Z"/><path fill="#fa8161" d="M117.21,205.21c.2,3,2.48,5.36,5.08,5.18s4.54-2.78,4.34-5.81-2.48-5.36-5.08-5.18S117,202.17,117.21,205.21Z"/><path fill="#431718" d="M122.49,208.77a.88.88,0,0,0,.36,0c.83-.07,1.5-1,1.58-1.16l-.7-.46c-.17.24-.62.76-1,.79a.3.3,0,0,1-.27-.13c-.21-.21-.19-.32,0-.74a2.45,2.45,0,0,0-.09-2.14,4.27,4.27,0,0,0-1.22-1.39c-.58-.47-.72-.58-.35-1.24a.9.9,0,0,1,.56-.43,4.27,4.27,0,0,1,2.58.66l.43-.73c-.08,0-1.89-1.09-3.23-.74a1.71,1.71,0,0,0-1.07.82c-.73,1.28,0,1.83.55,2.32a3.31,3.31,0,0,1,1,1.11,1.63,1.63,0,0,1,0,1.49,1.36,1.36,0,0,0,.24,1.6A1.17,1.17,0,0,0,122.49,208.77Z"/><path fill="#fa8161" d="M249.07,291.89c-5.27-4.5-7.56-6.15-15.17-2a39.3,39.3,0,0,0-7.34,5.22l-1.69-.27a1.12,1.12,0,0,0-.31-.05h0c-5.89-.89-13.64-1.86-20.28-2.64-2.2-.38-19.72-5.29-24.26-6.25-5.32-5.79-16.22-17.17-16.22-17.17-14.63-13.24-36.68,7.58-26.86,20.42s36.72,26.79,41.66,26.53c13.83-.72,45.89-8.62,49.3-9.61.57-.09,1.09-.16,1.58-.22a1.47,1.47,0,0,0,.58-.19.93.93,0,0,0,.43-.19,9.72,9.72,0,0,1,3.37-2,7.29,7.29,0,0,0,5.7-5.33,20,20,0,0,1,1.34,2.47c1,2.43,3.42,4.27,4.61,4s-.54-4.37-.54-4.37,2.84,5.85,4.24,2.9-3.28-7.84-5.36-9.66a8.86,8.86,0,0,0-.71-.57c1.71.66,3.57,1.92,4.52,2.27C249.26,295.7,254.34,296.39,249.07,291.89Z"/><path fill="#65b69b" d="M112.58,234.41c-4.54,3-8.78,8.15-4.8,20.74s19.5,32.5,34.26,45.3c0,0,26.47-13.18,24.36-31.75,0,0-22.67-25.29-31.36-32S117.59,231.12,112.58,234.41Z"/><path fill="#431718" d="M142.19,301.18l.26-.12c.1-.05,10.15-4.85,17.24-13.32l-.65-.54c-6.34,7.58-15.11,12.18-16.7,13-2.33-2.14-23.33-21.69-31.88-40l-.76.35C118.78,280,141.76,300.79,142,301Z"/></g><path fill="#431718" d="M263.18,75.65V224.9a13.76,13.76,0,0,1-13.74,13.74H213.31v0H167.73a13.76,13.76,0,0,1-12.92-13.71V75.65a13.76,13.76,0,0,1,13.74-13.73h80.89A13.75,13.75,0,0,1,263.18,75.65Z"/><path fill="#fff" d="M260.13,75.65V224.9a10.69,10.69,0,0,1-10.69,10.68H168.55a10.68,10.68,0,0,1-10.68-10.68V75.65A10.68,10.68,0,0,1,168.55,65h80.89A10.69,10.69,0,0,1,260.13,75.65Z"/><circle cx="209" cy="114.49" r="34.2" fill="#6f8bef"/><path fill="#431718" d="M221.74,66.75H196.55a1,1,0,1,0,0,2h25.19a1,1,0,0,0,0-2Z"/><rect width="4.77" height=".6" x="166.69" y="76.06" fill="#431718" transform="rotate(-45.07 169.058 76.362)"/><rect width=".6" height="4.77" x="168.77" y="73.97" fill="#431718" transform="rotate(-45 169.078 76.356)"/><rect width="5.41" height=".6" x="245.12" y="77.17" fill="#431718"/><path fill="#fff" d="M203.86,140.47a4.49,4.49,0,0,1-.94-.1c-3.09-.62-3.71-3.54-4.3-6.36-1.33-6.29-4.19-12.47-5.83-13.72a5.59,5.59,0,0,0-.93.95l-6.37-4.79c.68-1,3.19-4,6.72-4,6.36,0,10.26,8.16,12.31,14.32,6.95-13.62,15.81-28.84,24.59-32.54l3.39,7.15c-5.33,2.25-12.78,12.81-22.14,31.41-.61,1.23-1.06,2.11-1.36,2.65l-.51.94C207.38,138.38,206.24,140.47,203.86,140.47Z"/><path fill="#f8bc27" d="M243.42,194.13h-65a5.62,5.62,0,0,0-5.63,5.7L173,216a6.11,6.11,0,0,0,6.1,6h60.1l11.23,6.18-2-8.84a7.7,7.7,0,0,0,1.87-5.12l-.18-13.52A6.67,6.67,0,0,0,243.42,194.13Z"/><polygon fill="#fff" points="224.22 212.58 224.13 210.91 177.77 210.91 177.86 212.58 224.22 212.58"/><polygon fill="#fff" points="214.95 207.55 214.93 205.88 177.57 205.88 177.6 207.55 214.95 207.55"/><polygon fill="#fff" points="242.97 202.52 242.88 200.85 177.28 200.85 177.37 202.52 242.97 202.52"/><polygon fill="#fff" points="242.78 212.58 242.59 210.91 226.36 210.91 226.56 212.58 242.78 212.58"/><polygon fill="#fff" points="242.88 207.55 242.87 205.88 218.21 205.88 218.22 207.55 242.88 207.55"/><polygon fill="#411815" points="240.23 170.78 180.74 170.78 180.41 169.84 239.91 169.84 240.23 170.78"/><polygon fill="#411815" points="227.28 177.7 187.14 177.7 186.82 176.76 226.96 176.76 227.28 177.7"/><path fill="#65b69b" d="M279.58,139.7H327.7a2.46,2.46,0,0,1,2.46,2.46v48.11a2.46,2.46,0,0,1-2.46,2.46H279.58a2.45,2.45,0,0,1-2.45-2.45V142.15A2.46,2.46,0,0,1,279.58,139.7Z"/><path fill="#aa4f4c" d="M327.7,193H279.58a2.71,2.71,0,0,1-2.71-2.72V142.15a2.71,2.71,0,0,1,2.71-2.72H327.7a2.72,2.72,0,0,1,2.71,2.72v48.11A2.72,2.72,0,0,1,327.7,193Zm-48.12-53a2.19,2.19,0,0,0-2.19,2.19v48.11a2.2,2.2,0,0,0,2.19,2.2H327.7a2.2,2.2,0,0,0,2.19-2.2V142.15A2.19,2.19,0,0,0,327.7,140Z"/><rect width="5.87" height="1.03" x="284.27" y="145.55" fill="#fff" transform="rotate(-45 287.211 146.063)"/><rect width="1.03" height="5.87" x="286.7" y="143.13" fill="#fff" transform="rotate(-45 287.211 146.063)"/><path fill="#fff" d="M299.17,158.1v4.13h-.57a1.52,1.52,0,0,0-1.73,1.35,12.6,12.6,0,0,0-.1,2.07,8.43,8.43,0,0,1-.36,2.66,3,3,0,0,1-.72,1.19,3.78,3.78,0,0,1-1.16.69,4.21,4.21,0,0,1,1.25.81,3.59,3.59,0,0,1,.7,1.29,9.46,9.46,0,0,1,.29,2.74,9,9,0,0,0,.17,2.21,1.19,1.19,0,0,0,.59.73,3.9,3.9,0,0,0,1.64.22v4.07h-1.59a8.08,8.08,0,0,1-3.48-.54,3,3,0,0,1-1.47-1.55,8.3,8.3,0,0,1-.44-3.08q0-.45,0-.9c0-.19,0-.37,0-.57a5.63,5.63,0,0,0-.27-2.07,1.69,1.69,0,0,0-.76-.89,3,3,0,0,0-1.43-.3V168a2.83,2.83,0,0,0,1.45-.3,1.9,1.9,0,0,0,.73-.92,6.15,6.15,0,0,0,.25-2.11v-.42c0-.2,0-.39,0-.58a10,10,0,0,1,.37-3.22,3.51,3.51,0,0,1,1-1.52,3.26,3.26,0,0,1,1.34-.6,10.84,10.84,0,0,1,2.55-.27Z"/><path fill="#fff" d="M310,158.1a11,11,0,0,1,2.56.27,3.22,3.22,0,0,1,1.33.6,3.51,3.51,0,0,1,1,1.52,10,10,0,0,1,.37,3.22c0,.19,0,.38,0,.58v.42a6.15,6.15,0,0,0,.25,2.11,1.91,1.91,0,0,0,.74.92,2.78,2.78,0,0,0,1.45.3v4.32a3,3,0,0,0-1.44.3,1.73,1.73,0,0,0-.76.89,5.63,5.63,0,0,0-.27,2.07c0,.2,0,.38,0,.57s0,.6,0,.9a8.09,8.09,0,0,1-.44,3.08,3,3,0,0,1-1.47,1.55,8.08,8.08,0,0,1-3.48.54h-1.58v-4.07A3.93,3.93,0,0,0,310,178a1.21,1.21,0,0,0,.58-.73,8.34,8.34,0,0,0,.18-2.21,9.46,9.46,0,0,1,.29-2.74,3.44,3.44,0,0,1,.69-1.29,4.28,4.28,0,0,1,1.26-.81,4,4,0,0,1-1.17-.69,3,3,0,0,1-.72-1.19,8.47,8.47,0,0,1-.35-2.66,14,14,0,0,0-.1-2.07,1.86,1.86,0,0,0-.56-1,1.79,1.79,0,0,0-1.18-.33h-.56V158.1Z"/><rect width="68.96" height="48.79" x="96.64" y="89.37" fill="#f8bc27" rx="2.96"/><path fill="#aa4f4c" d="M162.64,138.38h-63a3.19,3.19,0,0,1-3.19-3.18V92.33a3.2,3.2,0,0,1,3.19-3.19h63a3.2,3.2,0,0,1,3.19,3.19V135.2A3.19,3.19,0,0,1,162.64,138.38ZM99.6,89.6a2.73,2.73,0,0,0-2.73,2.73V135.2a2.73,2.73,0,0,0,2.73,2.73h63a2.73,2.73,0,0,0,2.73-2.73V92.33a2.73,2.73,0,0,0-2.73-2.73Z"/><path fill="#fff" d="M124.76,122.13l-17.17-7.46v-4.14l17.17-7.43V108l-12,4.58,12,4.75Z"/><path fill="#fff" d="M126.35,125.41l6.2-25.9h3.61l-6.27,25.9Z"/><path fill="#fff" d="M137.75,122.15v-4.84l12-4.71-12-4.67v-4.8l17.19,7.44v4.1Z"/><rect width="262" height="1.99" x="69" y="336.09" fill="#411815"/></svg>