<svg xmlns="http://www.w3.org/2000/svg" viewBox="0 0 840.07 816.35"><defs><clipPath id="a"><circle cx="406.64" cy="376.27" r="47.5" fill="none" transform="rotate(-9.22 406.551 376.172)"/></clipPath><clipPath id="b"><circle cx="505.47" cy="500.11" r="47.5" fill="none"/></clipPath><clipPath id="c"><circle cx="406.64" cy="626.72" r="47.5" fill="none"/></clipPath></defs><g style="isolation:isolate"><path fill="#d8dcef" d="M103.27,590.48C57,582.1-9.84,529.42,27.2,400.28S146.32,273.16,323.5,254.14,400.58,104,572.75,107,818,323.08,805,437.26,694.87,697.59,103.27,590.48Z"/><polygon fill="none" stroke="#969dca" stroke-linecap="round" stroke-linejoin="round" stroke-width="1.32" points="803.46 268.97 812.24 286.76 831.88 289.61 817.67 303.46 821.02 323.02 803.46 313.79 785.89 323.02 789.25 303.46 775.04 289.61 794.68 286.76 803.46 268.97"/><polygon fill="none" stroke="#969dca" stroke-linecap="round" stroke-linejoin="round" stroke-width="1.32" points="814.97 660.87 820.76 672.59 833.7 674.47 824.33 683.6 826.54 696.48 814.97 690.4 803.4 696.48 805.61 683.6 796.25 674.47 809.18 672.59 814.97 660.87"/><polygon fill="none" stroke="#969dca" stroke-linecap="round" stroke-linejoin="round" stroke-width="1.32" points="269.7 17.6 273.64 25.58 282.45 26.86 276.07 33.08 277.58 41.85 269.7 37.7 261.82 41.85 263.33 33.08 256.95 26.86 265.76 25.58 269.7 17.6"/><polygon fill="none" stroke="#969dca" stroke-linecap="round" stroke-linejoin="round" stroke-width="1.32" points="2.72 661.29 11.35 663.44 18.02 657.54 18.65 666.42 26.32 670.93 18.07 674.27 16.14 682.96 10.42 676.15 1.56 677 6.27 669.45 2.72 661.29"/><path fill="none" stroke="#969dca" stroke-linecap="round" stroke-linejoin="round" stroke-width="1.32" d="M329.75,206.09l-11.9,12a8.6,8.6,0,0,1-12.17.08h0A8.61,8.61,0,0,1,305.6,206l11.9-12Z"/><path fill="none" stroke="#969dca" stroke-linecap="round" stroke-linejoin="round" stroke-width="1.32" d="M341.77,191.09l.26-.24c1.82-1.84,1.49-5.12-.73-7.32s-5.52-2.49-7.34-.65l-.24.26"/><path fill="none" stroke="#969dca" stroke-linecap="round" stroke-linejoin="round" stroke-width="1.32" d="M332.25,175.2c2.74-2.77,8.82-1.2,13.58,3.5s6.41,10.77,3.67,13.54"/><path fill="none" stroke="#969dca" stroke-linecap="round" stroke-linejoin="round" stroke-width="1.32" d="M336.83,170.79c2.74-2.77,8.82-1.2,13.58,3.5s6.41,10.77,3.67,13.54"/><polygon fill="none" stroke="#969dca" stroke-linecap="round" stroke-linejoin="round" stroke-width="1.32" points="351.13 200.33 329.73 206.11 317.48 194.01 323.41 172.95 351.13 200.33"/><path fill="none" stroke="#969dca" stroke-linecap="round" stroke-linejoin="round" stroke-width="1.32" d="M321.36,214.58l12.34,4.33a2.2,2.2,0,0,1,1.34,2.81l-1.32,3.76a2.2,2.2,0,0,1-2.8,1.35l-17.54-6.15.06-.16"/><path fill="none" stroke="#969dca" stroke-linecap="round" stroke-linejoin="round" stroke-width="1.32" d="M134.07,44.58a12.37,12.37,0,0,0-5.27,1.18A21.79,21.79,0,0,0,87.12,50.9a14.86,14.86,0,0,0-18.24,7.23h77.5a11.51,11.51,0,0,0,.06-1.18A12.37,12.37,0,0,0,134.07,44.58Z"/><path fill="none" stroke="#969dca" stroke-linecap="round" stroke-linejoin="round" stroke-width="1.32" d="M16.33,324.33c-.49-.73-1-1.47-1.43-2.22"/><path fill="none" stroke="#969dca" stroke-dasharray="5.41 5.41" stroke-linecap="round" stroke-linejoin="round" stroke-width="1.32" d="M12.16,317.45A91.14,91.14,0,0,1,27,209.94"/><path fill="none" stroke="#969dca" stroke-linecap="round" stroke-linejoin="round" stroke-width="1.32" d="M28.87,208c.64-.61,1.28-1.22,1.93-1.81"/><path fill="none" stroke="#969dca" stroke-linecap="round" stroke-linejoin="round" stroke-width="1.32" d="M68.24,185.68c.85-.23,1.7-.45,2.56-.65"/><path fill="none" stroke="#969dca" stroke-dasharray="5.22 5.22" stroke-linecap="round" stroke-linejoin="round" stroke-width="1.32" d="M75.91,184a91.14,91.14,0,1,1-2.33,179"/><path fill="none" stroke="#969dca" stroke-linecap="round" stroke-linejoin="round" stroke-width="1.32" d="M71,362.35c-.85-.21-1.71-.42-2.56-.65"/><path fill="none" stroke="#969dca" stroke-linecap="round" stroke-linejoin="round" stroke-width="1.32" d="M30.65,342.92a8.72,8.72,0,1,1-2.35,4.59"/><path fill="none" stroke="#969dca" stroke-linecap="round" stroke-linejoin="round" stroke-width="1.32" d="M21.93,338.72a18.29,18.29,0,1,1-2.17,4.3"/><path fill="none" stroke="#969dca" stroke-linecap="round" stroke-linejoin="round" stroke-width="1.32" d="M15.7,333.54A26.24,26.24,0,1,1,11.59,342"/><polygon fill="none" stroke="#969dca" stroke-linecap="round" stroke-linejoin="round" stroke-width="1.32" points="18.91 335.06 19.32 340.48 14.86 343.58 3.9 338.38 8.36 335.27 7.95 329.85 18.91 335.06"/><line x1="19.32" x2="36.87" y1="340.48" y2="348.77" fill="none" stroke="#969dca" stroke-linecap="round" stroke-linejoin="round" stroke-width="1.32"/><path fill="none" stroke="#969dca" stroke-linecap="round" stroke-linejoin="round" stroke-width="1.32" d="M66.64,191.23a9.21,9.21,0,0,0-3.9.87,16.12,16.12,0,0,0-30.83,3.8,11,11,0,0,0-13.49,5.35H75.75a8.19,8.19,0,0,0,0-.87A9.15,9.15,0,0,0,66.64,191.23Z"/><line x1="683.33" x2="683.33" y1="26.86" y2="35.13" fill="none" stroke="#969dca" stroke-linecap="round" stroke-linejoin="round" stroke-width="1.32"/><line x1="683.33" x2="683.33" y1="14.32" y2="21.86" fill="none" stroke="#969dca" stroke-linecap="round" stroke-linejoin="round" stroke-width="1.32"/><line x1="680.9" x2="672.92" y1="24.72" y2="24.72" fill="none" stroke="#969dca" stroke-linecap="round" stroke-linejoin="round" stroke-width="1.32"/><line x1="693.73" x2="685.54" y1="24.72" y2="24.72" fill="none" stroke="#969dca" stroke-linecap="round" stroke-linejoin="round" stroke-width="1.32"/><line x1="533.22" x2="533.22" y1="129.95" y2="138.22" fill="none" stroke="#969dca" stroke-linecap="round" stroke-linejoin="round" stroke-width="1.32"/><line x1="533.22" x2="533.22" y1="117.41" y2="124.95" fill="none" stroke="#969dca" stroke-linecap="round" stroke-linejoin="round" stroke-width="1.32"/><line x1="530.8" x2="522.82" y1="127.81" y2="127.81" fill="none" stroke="#969dca" stroke-linecap="round" stroke-linejoin="round" stroke-width="1.32"/><line x1="543.63" x2="535.44" y1="127.81" y2="127.81" fill="none" stroke="#969dca" stroke-linecap="round" stroke-linejoin="round" stroke-width="1.32"/><line x1="601.5" x2="601.5" y1="325.09" y2="333.36" fill="none" stroke="#969dca" stroke-linecap="round" stroke-linejoin="round" stroke-width="1.32"/><line x1="601.5" x2="601.5" y1="312.55" y2="320.09" fill="none" stroke="#969dca" stroke-linecap="round" stroke-linejoin="round" stroke-width="1.32"/><line x1="599.08" x2="591.1" y1="322.95" y2="322.95" fill="none" stroke="#969dca" stroke-linecap="round" stroke-linejoin="round" stroke-width="1.32"/><line x1="611.9" x2="603.71" y1="322.95" y2="322.95" fill="none" stroke="#969dca" stroke-linecap="round" stroke-linejoin="round" stroke-width="1.32"/><line x1="310.05" x2="310.05" y1="604.27" y2="612.54" fill="none" stroke="#969dca" stroke-linecap="round" stroke-linejoin="round" stroke-width="1.32"/><line x1="310.05" x2="310.05" y1="591.73" y2="599.27" fill="none" stroke="#969dca" stroke-linecap="round" stroke-linejoin="round" stroke-width="1.32"/><line x1="307.63" x2="299.65" y1="602.13" y2="602.13" fill="none" stroke="#969dca" stroke-linecap="round" stroke-linejoin="round" stroke-width="1.32"/><line x1="320.45" x2="312.26" y1="602.13" y2="602.13" fill="none" stroke="#969dca" stroke-linecap="round" stroke-linejoin="round" stroke-width="1.32"/><line x1="57.95" x2="57.95" y1="483.79" y2="492.06" fill="none" stroke="#969dca" stroke-linecap="round" stroke-linejoin="round" stroke-width="1.32"/><line x1="57.95" x2="57.95" y1="471.25" y2="478.79" fill="none" stroke="#969dca" stroke-linecap="round" stroke-linejoin="round" stroke-width="1.32"/><line x1="55.52" x2="47.54" y1="481.66" y2="481.66" fill="none" stroke="#969dca" stroke-linecap="round" stroke-linejoin="round" stroke-width="1.32"/><line x1="68.35" x2="60.16" y1="481.66" y2="481.66" fill="none" stroke="#969dca" stroke-linecap="round" stroke-linejoin="round" stroke-width="1.32"/><line x1="28.49" x2="28.49" y1="120.07" y2="128.34" fill="none" stroke="#969dca" stroke-linecap="round" stroke-linejoin="round" stroke-width="1.32"/><line x1="28.49" x2="28.49" y1="107.53" y2="115.07" fill="none" stroke="#969dca" stroke-linecap="round" stroke-linejoin="round" stroke-width="1.32"/><line x1="26.07" x2="18.09" y1="117.94" y2="117.94" fill="none" stroke="#969dca" stroke-linecap="round" stroke-linejoin="round" stroke-width="1.32"/><line x1="38.89" x2="30.7" y1="117.94" y2="117.94" fill="none" stroke="#969dca" stroke-linecap="round" stroke-linejoin="round" stroke-width="1.32"/><line x1="806.56" x2="806.56" y1="430.77" y2="439.04" fill="none" stroke="#969dca" stroke-linecap="round" stroke-linejoin="round" stroke-width="1.32"/><line x1="806.56" x2="806.56" y1="418.24" y2="425.77" fill="none" stroke="#969dca" stroke-linecap="round" stroke-linejoin="round" stroke-width="1.32"/><line x1="804.13" x2="796.15" y1="428.64" y2="428.64" fill="none" stroke="#969dca" stroke-linecap="round" stroke-linejoin="round" stroke-width="1.32"/><line x1="816.96" x2="808.77" y1="428.64" y2="428.64" fill="none" stroke="#969dca" stroke-linecap="round" stroke-linejoin="round" stroke-width="1.32"/><circle cx="588.56" cy="23.28" r="16.22" fill="none" stroke="#969dca" stroke-linecap="round" stroke-linejoin="round" stroke-width="1.32" transform="rotate(-21.03 588.622 23.259)"/><polygon fill="none" stroke="#969dca" stroke-linecap="round" stroke-linejoin="round" stroke-width="1.32" points="617.47 53.1 612.01 57.56 598.92 41.53 601.65 39.3 604.38 37.07 617.47 53.1"/><line x1="599.08" x2="601.59" y1="36.28" y2="39.35" fill="none" stroke="#969dca" stroke-linecap="round" stroke-linejoin="round" stroke-width="1.32"/><circle cx="720.41" cy="418.39" r="24.86" fill="none" stroke="#969dca" stroke-linecap="round" stroke-linejoin="round" stroke-width="1.32"/><ellipse cx="720.41" cy="418.39" fill="none" stroke="#969dca" stroke-linecap="round" stroke-linejoin="round" stroke-width="1.32" rx="13.34" ry="24.86"/><path fill="none" stroke="#969dca" stroke-linecap="round" stroke-linejoin="round" stroke-width="1.32" d="M700.88,403a27.55,27.55,0,0,0,7.8,3.52,44.6,44.6,0,0,0,23.46,0A27.75,27.75,0,0,0,740,403"/><path fill="none" stroke="#969dca" stroke-linecap="round" stroke-linejoin="round" stroke-width="1.32" d="M740,433.75a27.05,27.05,0,0,0-7.8-3.56,42.67,42.67,0,0,0-11.75-1.61h-.1a42.93,42.93,0,0,0-11.66,1.56,27.68,27.68,0,0,0-7.86,3.52"/><line x1="720.41" x2="720.41" y1="393.48" y2="443.21" fill="none" stroke="#969dca" stroke-linecap="round" stroke-linejoin="round" stroke-width="1.32"/><line x1="695.55" x2="745.28" y1="418.34" y2="418.34" fill="none" stroke="#969dca" stroke-linecap="round" stroke-linejoin="round" stroke-width="1.32"/><path fill="none" stroke="#969dca" stroke-linecap="round" stroke-linejoin="round" stroke-width="1.32" d="M782.68,554.16a24.89,24.89,0,0,1,21.48-21.42"/><path fill="none" stroke="#969dca" stroke-linecap="round" stroke-linejoin="round" stroke-width="1.32" d="M810.57,582.13a24.93,24.93,0,0,0,21.5-21.55"/><path fill="none" stroke="#969dca" stroke-linecap="round" stroke-linejoin="round" stroke-width="1.32" d="M782.66,560.58a24.94,24.94,0,0,0,21.5,21.55"/><path fill="none" stroke="#969dca" stroke-linecap="round" stroke-linejoin="round" stroke-width="1.32" d="M810.57,532.74a24.89,24.89,0,0,1,21.48,21.42"/><path fill="none" stroke="#969dca" stroke-linecap="round" stroke-linejoin="round" stroke-width="1.32" d="M791.83,554.16a15.85,15.85,0,0,1,12.33-12.32"/><path fill="none" stroke="#969dca" stroke-linecap="round" stroke-linejoin="round" stroke-width="1.32" d="M810.57,572.9a15.87,15.87,0,0,0,12.33-12.32"/><path fill="none" stroke="#969dca" stroke-linecap="round" stroke-linejoin="round" stroke-width="1.32" d="M791.83,560.58a15.87,15.87,0,0,0,12.33,12.32"/><path fill="none" stroke="#969dca" stroke-linecap="round" stroke-linejoin="round" stroke-width="1.32" d="M810.57,541.84a15.85,15.85,0,0,1,12.33,12.32"/><path fill="none" stroke="#969dca" stroke-linecap="round" stroke-linejoin="round" stroke-width="1.32" d="M807.37,545.7h0a3.21,3.21,0,0,1-3.21-3.21V532.17a3.21,3.21,0,0,1,3.21-3.21h0a3.21,3.21,0,0,1,3.2,3.21v10.32A3.21,3.21,0,0,1,807.37,545.7Z"/><path fill="none" stroke="#969dca" stroke-linecap="round" stroke-linejoin="round" stroke-width="1.32" d="M807.37,586.16h0a3.21,3.21,0,0,1-3.21-3.21V572.62a3.2,3.2,0,0,1,3.21-3.2h0a3.2,3.2,0,0,1,3.2,3.2V583A3.21,3.21,0,0,1,807.37,586.16Z"/><path fill="none" stroke="#969dca" stroke-linecap="round" stroke-linejoin="round" stroke-width="1.32" d="M819.07,557.37h0a3.21,3.21,0,0,1,3.21-3.21H832.6a3.21,3.21,0,0,1,3.21,3.21h0a3.21,3.21,0,0,1-3.21,3.21H822.28A3.21,3.21,0,0,1,819.07,557.37Z"/><path fill="none" stroke="#969dca" stroke-linecap="round" stroke-linejoin="round" stroke-width="1.32" d="M778.32,557.37h0a3.21,3.21,0,0,1,3.21-3.21h10.32a3.21,3.21,0,0,1,3.21,3.21h0a3.21,3.21,0,0,1-3.21,3.21H781.53A3.21,3.21,0,0,1,778.32,557.37Z"/><path fill="none" stroke="#969dca" stroke-linecap="round" stroke-linejoin="round" stroke-width="1.32" d="M440.42,32.13v-5a.39.39,0,0,0-.36-.4l-5.71-.52a.39.39,0,0,1-.36-.33,22.44,22.44,0,0,0-1.13-4.24.39.39,0,0,1,.14-.46l4.69-3.31a.4.4,0,0,0,.11-.52L435.28,13a.39.39,0,0,0-.51-.16l-5.21,2.4a.4.4,0,0,1-.47-.1A22.23,22.23,0,0,0,426,12a.39.39,0,0,1-.11-.47l2.41-5.21a.41.41,0,0,0-.16-.51l-4.37-2.52a.4.4,0,0,0-.52.12l-3.3,4.68a.39.39,0,0,1-.47.14,23,23,0,0,0-4.24-1.13.4.4,0,0,1-.33-.36L414.38,1a.4.4,0,0,0-.4-.36h-5a.4.4,0,0,0-.4.36L408,6.73a.39.39,0,0,1-.33.36,23.22,23.22,0,0,0-4.24,1.13.38.38,0,0,1-.46-.14L399.69,3.4a.4.4,0,0,0-.52-.12L394.81,5.8a.39.39,0,0,0-.16.51l2.4,5.21a.4.4,0,0,1-.1.47,22.3,22.3,0,0,0-3.11,3.11.4.4,0,0,1-.47.1l-5.21-2.4a.39.39,0,0,0-.51.16l-2.52,4.36a.4.4,0,0,0,.12.52l4.68,3.31a.38.38,0,0,1,.14.46,23.22,23.22,0,0,0-1.13,4.24.39.39,0,0,1-.36.33l-5.71.52a.4.4,0,0,0-.36.4v5a.4.4,0,0,0,.36.4l5.71.52a.39.39,0,0,1,.36.33,23,23,0,0,0,1.13,4.24.38.38,0,0,1-.14.46l-4.68,3.31a.4.4,0,0,0-.12.52l2.52,4.36a.4.4,0,0,0,.51.17L393.37,44a.39.39,0,0,1,.47.11,22.78,22.78,0,0,0,3.11,3.1.4.4,0,0,1,.1.47l-2.4,5.21a.39.39,0,0,0,.16.51L399.17,56a.4.4,0,0,0,.52-.11L403,51.15a.39.39,0,0,1,.46-.14,22.44,22.44,0,0,0,4.24,1.13.39.39,0,0,1,.33.36l.52,5.71a.4.4,0,0,0,.4.36h5a.4.4,0,0,0,.4-.36l.52-5.71a.4.4,0,0,1,.33-.36A22.24,22.24,0,0,0,419.47,51a.41.41,0,0,1,.47.14l3.3,4.69a.41.41,0,0,0,.52.11l4.37-2.52a.41.41,0,0,0,.16-.51l-2.41-5.21a.39.39,0,0,1,.11-.47,22.7,22.7,0,0,0,3.1-3.1.39.39,0,0,1,.47-.11l5.21,2.41a.4.4,0,0,0,.51-.17l2.52-4.36a.4.4,0,0,0-.11-.52L433,38.08a.39.39,0,0,1-.14-.46A22.24,22.24,0,0,0,434,33.38a.39.39,0,0,1,.36-.33l5.71-.52A.39.39,0,0,0,440.42,32.13ZM410,46.79A17.25,17.25,0,0,1,394.29,31.1C393.35,20,401.89,11.5,413,12.44a17.24,17.24,0,0,1,15.69,15.69C429.58,39.2,421.05,47.73,410,46.79Z"/><path fill="none" stroke="#969dca" stroke-linecap="round" stroke-linejoin="round" stroke-width="1.32" d="M630.31,203.46l-13.22,1.3A14,14,0,0,0,641.22,206a6,6,0,0,1,5-2.64l35,.67a5.86,5.86,0,0,1,3.87,1.49,8.37,8.37,0,1,0,.14-12.59,6,6,0,0,1-3.95,1.41l-35-.67a5.92,5.92,0,0,1-5-2.75,14,14,0,0,0-24.16.75l13.14,1.69Zm60.46-9.64c.46,0,.77.94,1.19,1.05s1.18-.5,1.56-.28.19,1.19.5,1.51,1.27.14,1.49.53-.43,1.12-.32,1.55,1,.76,1,1.21-.94.77-1.05,1.18.5,1.19.28,1.56-1.19.19-1.5.5-.15,1.28-.54,1.5-1.12-.43-1.55-.32-.75,1-1.21,1-.77-.93-1.18-1.05-1.19.51-1.56.28-.19-1.18-.5-1.5-1.28-.15-1.49-.53.42-1.12.31-1.55-1-.76-1-1.21.93-.77,1-1.19-.51-1.18-.28-1.56,1.19-.19,1.5-.5.15-1.27.53-1.49,1.12.43,1.56.32S690.32,193.82,690.77,193.82Z"/><ellipse cx="241.35" cy="490.45" fill="none" stroke="#969dca" stroke-linecap="round" stroke-linejoin="round" stroke-width="1.32" rx="18.51" ry="20.83" transform="rotate(-89.74 241.354 490.444)"/><ellipse cx="241.35" cy="490.45" fill="none" stroke="#969dca" stroke-linecap="round" stroke-linejoin="round" stroke-width="1.32" rx="18.51" ry="20.83" transform="rotate(-89.74 241.354 490.444)"/><path fill="none" stroke="#969dca" stroke-linecap="round" stroke-linejoin="round" stroke-width="1.32" d="M260.35,498.07a8.07,8.07,0,0,0,10.41-4.28,8.16,8.16,0,0,0,.68-3.21,8,8,0,0,0-.65-3.21,8.09,8.09,0,0,0-7.42-4.92,7.9,7.9,0,0,0-3,.55"/><path fill="none" stroke="#969dca" stroke-linecap="round" stroke-linejoin="round" stroke-width="1.32" d="M270.76,493.79a9.26,9.26,0,0,1,5.25,8.39"/><path fill="none" stroke="#969dca" stroke-linecap="round" stroke-linejoin="round" stroke-width="1.32" d="M276.12,479a9.25,9.25,0,0,1-5.33,8.34"/><polyline fill="none" stroke="#969dca" stroke-linecap="round" stroke-linejoin="round" stroke-width="1.32" points="256.38 503.28 262.1 509.06 257.44 515.98"/><polyline fill="none" stroke="#969dca" stroke-linecap="round" stroke-linejoin="round" stroke-width="1.32" points="244.12 508.8 245.87 515.92 238.91 518.21"/><polyline fill="none" stroke="#969dca" stroke-linecap="round" stroke-linejoin="round" stroke-width="1.32" points="228.89 505.27 227.37 511.21 220.45 506.55"/><polyline fill="none" stroke="#969dca" stroke-linecap="round" stroke-linejoin="round" stroke-width="1.32" points="257.67 465.07 262.27 472.03 256.49 477.75"/><polyline fill="none" stroke="#969dca" stroke-linecap="round" stroke-linejoin="round" stroke-width="1.32" points="239.17 462.67 246.1 465.01 244.29 472.12"/><polyline fill="none" stroke="#969dca" stroke-linecap="round" stroke-linejoin="round" stroke-width="1.32" points="220.6 474.15 227.56 469.56 229.02 475.51"/><line x1="220.53" x2="262.18" y1="490.72" y2="490.72" fill="none" stroke="#969dca" stroke-linecap="round" stroke-linejoin="round" stroke-width="1.32"/><path fill="none" stroke="#969dca" stroke-linecap="round" stroke-linejoin="round" stroke-width="1.32" d="M204.37,102.86,199.56,113a6.55,6.55,0,1,0-5,10.41l-5,10.61,9.91,4.72a6.24,6.24,0,0,1,1.23-2.8,6.64,6.64,0,0,1,8.12-1.92,6.56,6.56,0,0,1,3,8.69,6.3,6.3,0,0,1-1,1.45l9.82,4.67L231.08,127a10.29,10.29,0,0,0-4.87-13.71Z"/><path fill="none" stroke="#969dca" stroke-linecap="round" stroke-linejoin="round" stroke-width="1.32" d="M215.69,151.13l-11.2,0a6.52,6.52,0,0,0,.8-3.41,6.55,6.55,0,0,0-13.1.28,6.51,6.51,0,0,0,.78,3.1l-11.75,0,0,11a6.38,6.38,0,0,1,3-.08,6.64,6.64,0,0,1,5.2,6.53,6.54,6.54,0,0,1-8.3,6.18l0,10.87,22.86.08A11.63,11.63,0,0,0,215.62,174Z"/><path fill="none" stroke="#969dca" stroke-linecap="round" stroke-linejoin="round" stroke-width="1.32" d="M253.56,352.24h52.51a0,0,0,0,1,0,0v36.15a4,4,0,0,1-4,4H257.57a4,4,0,0,1-4-4V352.24A0,0,0,0,1,253.56,352.24Z"/><line x1="306.07" x2="253.56" y1="386.57" y2="386.57" fill="none" stroke="#969dca" stroke-linecap="round" stroke-linejoin="round" stroke-width="1.32"/><polygon fill="none" stroke="#969dca" stroke-linecap="round" stroke-linejoin="round" stroke-width="1.32" points="289.86 404.75 269.78 404.75 271.32 392.39 288.31 392.39 289.86 404.75"/><line x1="259.74" x2="299.89" y1="404.75" y2="404.75" fill="none" stroke="#969dca" stroke-linecap="round" stroke-linejoin="round" stroke-width="1.32"/><circle cx="291.4" cy="370" r="8.49" fill="none" stroke="#969dca" stroke-linecap="round" stroke-linejoin="round" stroke-width="1.32" transform="rotate(-45 291.399 369.999)"/><line x1="287.84" x2="294.96" y1="366.44" y2="373.56" fill="none" stroke="#969dca" stroke-linecap="round" stroke-linejoin="round" stroke-width="1.32"/><line x1="294.96" x2="287.84" y1="366.44" y2="373.56" fill="none" stroke="#969dca" stroke-linecap="round" stroke-linejoin="round" stroke-width="1.32"/><circle cx="268.23" cy="370" r="8.49" fill="none" stroke="#969dca" stroke-linecap="round" stroke-linejoin="round" stroke-width="1.32" transform="rotate(-76.72 268.216 369.998)"/><polyline fill="none" stroke="#969dca" stroke-linecap="round" stroke-linejoin="round" stroke-width="1.32" points="263.24 369.64 266.81 373.21 273.22 366.79"/><line x1="404.68" x2="422.84" y1="148.31" y2="148.31" fill="none" stroke="#969dca" stroke-linecap="round" stroke-linejoin="round" stroke-width="1.32"/><line x1="406.45" x2="421.06" y1="153.51" y2="153.51" fill="none" stroke="#969dca" stroke-linecap="round" stroke-linejoin="round" stroke-width="1.32"/><polyline fill="none" stroke="#969dca" stroke-linecap="round" stroke-linejoin="round" stroke-width="1.32" points="411.65 133.25 413.76 133.25 416.41 133.25"/><line x1="413.76" x2="413.76" y1="133.91" y2="144.99" fill="none" stroke="#969dca" stroke-linecap="round" stroke-linejoin="round" stroke-width="1.32"/><line x1="409.33" x2="418.19" y1="158.07" y2="158.07" fill="none" stroke="#969dca" stroke-linecap="round" stroke-linejoin="round" stroke-width="1.32"/><path fill="none" stroke="#969dca" stroke-linecap="round" stroke-linejoin="round" stroke-width="1.32" d="M422.92,145V137.2a15.54,15.54,0,1,0-24.22-12.88,15.71,15.71,0,0,0,6.86,12.75V145"/><line x1="413.76" x2="413.76" y1="91.28" y2="102.8" fill="none" stroke="#969dca" stroke-linecap="round" stroke-linejoin="round" stroke-width="1.32"/><line x1="389.28" x2="397.15" y1="102.02" y2="109.89" fill="none" stroke="#969dca" stroke-linecap="round" stroke-linejoin="round" stroke-width="1.32"/><line x1="438.78" x2="430.92" y1="102.02" y2="109.89" fill="none" stroke="#969dca" stroke-linecap="round" stroke-linejoin="round" stroke-width="1.32"/><line x1="378.54" x2="390.5" y1="124.28" y2="124.28" fill="none" stroke="#969dca" stroke-linecap="round" stroke-linejoin="round" stroke-width="1.32"/><line x1="437.05" x2="449.01" y1="124.28" y2="124.28" fill="none" stroke="#969dca" stroke-linecap="round" stroke-linejoin="round" stroke-width="1.32"/><line x1="397.15" x2="389.73" y1="140.12" y2="147.53" fill="none" stroke="#969dca" stroke-linecap="round" stroke-linejoin="round" stroke-width="1.32"/><line x1="431.36" x2="438.78" y1="140.12" y2="147.53" fill="none" stroke="#969dca" stroke-linecap="round" stroke-linejoin="round" stroke-width="1.32"/><path fill="none" stroke="#969dca" stroke-linecap="round" stroke-linejoin="round" stroke-width="1.32" d="M87.34,253.37H88A15.63,15.63,0,0,1,103.65,269v12.49A14.55,14.55,0,0,1,89.09,296H86.26a14.55,14.55,0,0,1-14.55-14.55V269a15.63,15.63,0,0,1,15.63-15.63Z" transform="rotate(-90 87.675 274.705)"/><path fill="none" stroke="#969dca" stroke-linecap="round" stroke-linejoin="round" stroke-width="1.32" d="M89,290.67a27.23,27.23,0,0,1,0-31.94"/><path fill="none" stroke="#969dca" stroke-linecap="round" stroke-linejoin="round" stroke-width="1.32" d="M79.85,274.7h0a2.36,2.36,0,0,1-2.36,2.37h-4a2.36,2.36,0,0,1-2.36-2.37h0a2.36,2.36,0,0,1,2.36-2.36h4A2.36,2.36,0,0,1,79.85,274.7Z"/><line x1="83.55" x2="79.85" y1="274.7" y2="274.7" fill="none" stroke="#969dca" stroke-linecap="round" stroke-linejoin="round" stroke-width="1.32"/><line x1="71.14" x2="66.34" y1="274.7" y2="274.7" fill="none" stroke="#969dca" stroke-linecap="round" stroke-linejoin="round" stroke-width="1.32"/><path fill="none" stroke="#969dca" stroke-linecap="round" stroke-linejoin="round" stroke-width="1.32" d="M54,281.42c2.08-.06,4.39-.75,4.45-3.9s4.1-2.69,6.24-2.74"/><path fill="none" stroke="#969dca" stroke-linecap="round" stroke-linejoin="round" stroke-width="1.32" d="M797.21,59.34a18.13,18.13,0,1,0-14.13-17.65,18.11,18.11,0,0,0,.43,3.92"/><path fill="none" stroke="#969dca" stroke-linecap="round" stroke-linejoin="round" stroke-width="1.32" d="M801.56,55.48a13.56,13.56,0,0,1-3.21-.37l1.13-4.22,1.14-4.24,1.62-6.06-5.81,1.56-4.32,1.16-4.3,1.15a13.35,13.35,0,0,1-.29-2.77,14,14,0,1,1,14,13.79Z"/><path fill="none" stroke="#969dca" stroke-linecap="round" stroke-linejoin="round" stroke-width="1.32" d="M801.56,46.74a4.83,4.83,0,0,1-.94-.09l1.62-6.06-5.81,1.56c0-.15,0-.3,0-.46a5.14,5.14,0,1,1,5.14,5.05Z"/><polyline fill="none" stroke="#969dca" stroke-linecap="round" stroke-linejoin="round" stroke-width="1.32" points="787.81 44.46 784.23 45.42 783.51 45.61 766.22 50.24 774.13 58.16"/><polyline fill="none" stroke="#969dca" stroke-linecap="round" stroke-linejoin="round" stroke-width="1.32" points="784.79 68.81 792.59 76.61 797.21 59.34 797.41 58.6 798.35 55.11"/><polyline fill="none" stroke="#969dca" stroke-linecap="round" stroke-linejoin="round" stroke-width="1.32" points="784.79 68.81 769.46 84.15 758.8 73.49 774.13 58.16"/><path fill="#f9d1c7" d="M.05,755.59c-2.13-23.5,56.79-112.5,421.07-105s416.79,53.57,418.93,98.57S700.56,824.45,527,802,10.77,873.44.05,755.59Z"/><path fill="#088a75" d="M519.94,689.55l1.66-306.39s57.23-23.77,102,17.5a218.59,218.59,0,0,1,41.17,51.43L598,497.18l75.9-27.33c1.35,2.91,2.61,5.88,3.78,8.85L663,486.16l17.84.73c8.15,23.44,11.76,48.09,9.74,72.47-1.91,23.15-6.91,51.16-21.29,75.43l-61.84-18.13,51.3,33C634.71,678.35,592.92,697.75,519.94,689.55Z"/><line x1="520.95" x2="557.84" y1="503.32" y2="383.25" fill="none" stroke="#eeeff2" stroke-linecap="round" stroke-linejoin="round" stroke-width="1.07"/><line x1="520.88" x2="615.61" y1="516.04" y2="402.29" fill="none" stroke="#eeeff2" stroke-linecap="round" stroke-linejoin="round" stroke-width="1.07"/><line x1="520.73" x2="666.16" y1="544.71" y2="500.6" fill="none" stroke="#eeeff2" stroke-linecap="round" stroke-linejoin="round" stroke-width="1.07"/><line x1="675.27" x2="520.68" y1="555.48" y2="553.68" fill="none" stroke="#eeeff2" stroke-linecap="round" stroke-linejoin="round" stroke-width="1.07"/><line x1="662.34" x2="520.62" y1="604.2" y2="565.39" fill="none" stroke="#eeeff2" stroke-linecap="round" stroke-linejoin="round" stroke-width="1.07"/><line x1="616.22" x2="520.58" y1="654.18" y2="571.83" fill="none" stroke="#eeeff2" stroke-linecap="round" stroke-linejoin="round" stroke-width="1.07"/><line x1="545.5" x2="520.46" y1="683.55" y2="594.44" fill="none" stroke="#eeeff2" stroke-linecap="round" stroke-linejoin="round" stroke-width="1.07"/><line x1="520.8" x2="645.79" y1="531.55" y2="447.95" fill="none" stroke="#eeeff2" stroke-linecap="round" stroke-linejoin="round" stroke-width="1.07"/><path fill="#0bb89c" d="M820.79,741.83H627.26S612.05,705.76,638,677.31a138.19,138.19,0,0,1,32.33-26.18l28.72,42-17.53-47.84c1.84-.86,3.71-1.67,5.58-2.42l4.77,9.29.39-11.27A111.58,111.58,0,0,1,738,634.5c14.63,1.13,32.33,4.19,47.71,13.19l-11.24,39.12,20.69-32.52C813.33,669.37,825.72,695.7,820.79,741.83Z"/><line x1="703.16" x2="627.19" y1="741.82" y2="718.94" fill="none" stroke="#eeeff2" stroke-linecap="round" stroke-linejoin="round" stroke-width=".68"/><line x1="711.19" x2="639.02" y1="741.82" y2="682.39" fill="none" stroke="#eeeff2" stroke-linecap="round" stroke-linejoin="round" stroke-width=".68"/><line x1="729.3" x2="700.94" y1="741.82" y2="650.12" fill="none" stroke="#eeeff2" stroke-linecap="round" stroke-linejoin="round" stroke-width=".68"/><line x1="735.57" x2="734.97" y1="644.18" y2="741.82" fill="none" stroke="#eeeff2" stroke-linecap="round" stroke-linejoin="round" stroke-width=".68"/><line x1="766.39" x2="742.37" y1="652.17" y2="741.82" fill="none" stroke="#eeeff2" stroke-linecap="round" stroke-linejoin="round" stroke-width=".68"/><line x1="798.12" x2="746.44" y1="681.13" y2="741.82" fill="none" stroke="#eeeff2" stroke-linecap="round" stroke-linejoin="round" stroke-width=".68"/><line x1="816.91" x2="760.72" y1="725.7" y2="741.82" fill="none" stroke="#eeeff2" stroke-linecap="round" stroke-linejoin="round" stroke-width=".68"/><line x1="720.99" x2="667.76" y1="741.82" y2="663.16" fill="none" stroke="#eeeff2" stroke-linecap="round" stroke-linejoin="round" stroke-width=".68"/><rect width="260.69" height="473.71" x="325.13" y="268.11" fill="#3c3033" rx="15.42"/><rect width="415.12" height="225.46" x="247.91" y="380.56" fill="#d8dcef" transform="rotate(90 455.475 493.285)"/><rect width="207.83" height="397.5" x="351.56" y="294.54" fill="#fff"/><rect width="207.83" height="19.22" x="351.56" y="294.54" fill="#afb2d7"/><circle cx="366.97" cy="304.15" r="6.27" fill="#eb623d"/><circle cx="382.46" cy="304.15" r="6.27" fill="#f9a23b"/><circle cx="397.95" cy="304.15" r="6.27" fill="#0bb89c"/><line x1="541.92" x2="550.02" y1="300.1" y2="308.2" fill="#fff" stroke="#fff" stroke-miterlimit="10" stroke-width=".44"/><line x1="541.92" x2="550.02" y1="300.1" y2="308.2" fill="none" stroke="#fff" stroke-linecap="round" stroke-linejoin="round" stroke-width="1.32"/><line x1="550.02" x2="541.92" y1="300.1" y2="308.2" fill="none" stroke="#fff" stroke-linecap="round" stroke-linejoin="round" stroke-width="1.32"/><g clip-path="url(#a)"><circle cx="402.07" cy="381.64" r="56.44" fill="#afb2d7"/><path fill="#f2ad94" d="M494.64,357.88a14.35,14.35,0,0,0-1.55,5,16.57,16.57,0,0,0,.45,5.37c.87,4.16,3.3,9.79,4.72,16.73a47.32,47.32,0,0,1,.91,11.09,44.72,44.72,0,0,1-1.9,11.14l-.86,2.62c-.31.84-.65,1.67-1,2.51a40.14,40.14,0,0,1-2.6,5.21,38.77,38.77,0,0,1-7.66,9.34,41.14,41.14,0,0,1-10,6.52,50.1,50.1,0,0,1-10.73,3.49,73.28,73.28,0,0,1-20.63,1.08,109.78,109.78,0,0,1-19.23-3.31c-3.12-.82-6.21-1.76-9.3-2.86a79.45,79.45,0,0,1-9.54-4l12.46-23.07a52.42,52.42,0,0,0,6.25,3c2.3.95,4.69,1.83,7.12,2.6a85.06,85.06,0,0,0,14.69,3.36,50.26,50.26,0,0,0,13.84.11,22.08,22.08,0,0,0,10.41-4.09,16.46,16.46,0,0,0,3.5-3.78,17.83,17.83,0,0,0,1.4-2.46l.69-1.48.59-1.46a23.65,23.65,0,0,0,1.22-11.95,67.8,67.8,0,0,0-1.59-7.38c-.71-2.75-1.57-5.82-2.15-9.42a35.87,35.87,0,0,1-.05-11.85,33.69,33.69,0,0,1,4.25-11.24Z"/><path fill="#eb623d" d="M418.07,405c2.52-1,24.56,8,34.22,4.08,0,0-.09,19.95,3.47,29.69,0,0-30.62,4.13-40-.93S402.22,411.31,418.07,405Z"/><path fill="#eb623d" d="M378.24,410.46c-8,8.63-6.21,63.14-10.71,73.24-4,9,61.82,8.26,70.73,1.35,4.82-3.74-9.58-25.95-9.39-29.62s8.63-11.92,7.66-20.59-2.89-26.31-6.36-27.47S391,396.77,378.24,410.46Z"/><ellipse cx="408.17" cy="379.92" fill="#402c2b" rx="15.57" ry="14.15"/><path fill="#f2ad94" d="M414.12,391.81V406s-1.77,1.94-5.73,1.94a9.5,9.5,0,0,1-6.16-1.94L400.65,392Z"/><path d="M414.12,397.11v5c-2.1-.77-6.75-2.58-7-4.58C406.88,395.9,411.14,396.56,414.12,397.11Z" style="mix-blend-mode:multiply" fill="#f2ad94"/><path fill="#f2ad94" d="M402.22,387.85a3.4,3.4,0,1,1-3.39-3.4A3.4,3.4,0,0,1,402.22,387.85Z"/><path d="M397.7,387a1.59,1.59,0,0,1,1.92,1.15" style="mix-blend-mode:multiply" fill="none" stroke="#f2ad94" stroke-linecap="round" stroke-linejoin="round" stroke-width=".57"/><path fill="#f2ad94" d="M409.38,370.87h0Z"/><path fill="#f2ad94" d="M420.91,380.29v8.89a17.5,17.5,0,0,1-.6,5.3c-.78,2.41-2.53,4.07-6.38,4.66a15.25,15.25,0,0,1-4.67-.25c-5.11-1-9.3-4.5-9.3-9.71v-8.89a9.41,9.41,0,0,1,9.24-9.42C414.37,371,420.91,375.14,420.91,380.29Z"/><path fill="#402c2b" d="M406.75,368.6c-2.68.9-8.49,4.53-9.05,7.93s.56,11.32,2.83,10.75,2.26-5.09,3.39-6.79c2.27-3.4,15.6-.57,14.72-7.36C417.69,365.74,410.15,367.47,406.75,368.6Z"/><path fill="#0f0f0f" d="M411.82,383.06c.06.3-.51.67-1.28.82s-1.44,0-1.5-.3.52-.67,1.29-.82S411.77,382.75,411.82,383.06Z"/><path fill="#0f0f0f" d="M419.14,383.74c-.09.3-.77.35-1.52.12s-1.27-.67-1.18-1,.78-.35,1.52-.11S419.24,383.45,419.14,383.74Z"/><path d="M414.81,389.55H414a.85.85,0,0,1-.92-.84l.42-4.12a.87.87,0,0,1,.92-.7h0a.87.87,0,0,1,.92.7l.41,4.12A.85.85,0,0,1,414.81,389.55Z" style="mix-blend-mode:multiply" fill="#f2ad94"/><path fill="#0f0f0f" d="M411,387c0,.47-.19.85-.43.85s-.42-.38-.42-.85.19-.85.42-.85S411,386.53,411,387Z"/><ellipse cx="417.65" cy="387.12" fill="#0f0f0f" rx=".42" ry=".85"/><path fill="#fff" d="M414,391.63c.88,0,.91-.37,1.49-.38.73,0,.78.36.77.71a2.13,2.13,0,0,1-2.24,1.61c-.94,0-2.08-.61-2.13-1.39s.42-.92.74-.9S413.31,391.64,414,391.63Z"/><circle cx="406.54" cy="390.93" r="3.33" style="mix-blend-mode:multiply" fill="#f2ad94"/><path d="M420.91,388v1.14a17.5,17.5,0,0,1-.6,5.3,3.33,3.33,0,0,1,.6-6.44Z" style="mix-blend-mode:multiply" fill="#f2ad94"/><path fill="#402c2b" d="M402.32,372.85c-2.33.21-11.67.18-11.36-6.14s.83-8.53-4.39-8.58-12.64-.63-8.76-7.28-3-6.18-1.67-10.28c2.1-6.48,8.66.28,11.32,3.81s5.61-1.6,10.18,1.22.66,7.13,5,11,6.71-1.34,11,2.58,4.13,9.68-2.83,12.13A22.53,22.53,0,0,1,402.32,372.85Z"/><path fill="#7a7ebd" d="M431.26,422.2a27.27,27.27,0,0,1,4.18,15.58,26.21,26.21,0,0,1-.58,4.58c-.1.47.63.68.73.2A27.91,27.91,0,0,0,434.08,426a26.73,26.73,0,0,0-2.17-4.18c-.26-.41-.92,0-.65.39Z"/><path fill="#7a7ebd" d="M436.16,421.92a10.85,10.85,0,0,1-1.94,5.43c-.28.41.38.79.66.39a11.69,11.69,0,0,0,2-5.82c0-.49-.72-.48-.76,0Z"/><path fill="none" stroke="#7a7ebd" stroke-linecap="round" stroke-miterlimit="10" stroke-width="1.13" d="M446.7,411.64c.2,2.69.74,15,4,25.24"/><path fill="none" stroke="#7a7ebd" stroke-linecap="round" stroke-miterlimit="10" stroke-width="1.13" d="M398.66,409c1.88,2.09,11.54,4.55,18.56,1.15"/><path fill="#f2ad94" d="M382.71,513.46a90.37,90.37,0,0,1-18-3.45l-2.32-.76-2.3-.91c-1.54-.56-3-1.37-4.56-2.08s-3-1.65-4.4-2.57L349,502.22l-1-.74-1-.82a55,55,0,0,1-13-15.44l-1.23-2.15c-.38-.72-.7-1.45-1.06-2.18-.68-1.48-1.41-2.85-2-4.52a47.54,47.54,0,0,1-2.8-10.25,41.66,41.66,0,0,1-.15-11.22,39.2,39.2,0,0,1,3-10.94,47.65,47.65,0,0,1,5.41-9.47,60.13,60.13,0,0,1,6.86-7.71,80.37,80.37,0,0,1,15.61-11.44,98.69,98.69,0,0,1,17.24-7.82l7.51,24.26a73.72,73.72,0,0,0-13.06,5.11,57.38,57.38,0,0,0-11.4,7.36,36.73,36.73,0,0,0-4.37,4.36,24.86,24.86,0,0,0-3.05,4.64,18.25,18.25,0,0,0-1.88,10.06,25.16,25.16,0,0,0,1.23,5.7A32.67,32.67,0,0,0,351,472.1c.21.52.41,1.07.64,1.58l.75,1.47a34.33,34.33,0,0,0,7.52,10.15c6,5.66,14.82,8.42,25.16,10Z"/><path fill="#f2ad94" d="M380.7,513.19c1.72.15,16.9,4.35,19,2.41s-4.47-3.05-4.35-3.85,6.6,2.26,7.5.21-6.35-2.47-6.08-3.88c.15-.75,6.19,3.07,7.08,1s-6.39-3.62-6.37-4.54,6.24,2.35,6.9,1.16c1.12-2-6.6-4.3-7.24-4.63s-2.53-.56-2.8-1.47,5.2,1,5.91-1.13c1.05-3.09-16.72-3.28-16.72-3.28Z"/><path fill="#f2ad94" d="M493.92,359.19c.84-1.56,11.11-14.19,10.13-17s-4.73,3-5.43,2.52,4.86-5.31,3.3-7-5,5-6.18,4.15c-.65-.44,5.45-4.58,3.87-6.28s-6.07,4.55-6.93,4.15,4.8-4.94,3.95-6.05c-1.46-1.9-6.8,4.46-7.38,4.94s-1.57,2.15-2.54,2,3.06-4.52,1.37-6.06c-2.49-2.27-10,14.46-10,14.46Z"/><path fill="#eb623d" d="M394.61,404.9c-15.51-4.54-45.47,12.32-45.47,12.32-3.33,9.74,16.76,25.24,16.76,25.24s4.5-7.89,15.41-7.6S394.61,404.9,394.61,404.9Z"/><path fill="none" stroke="#7a7ebd" stroke-linecap="round" stroke-miterlimit="10" stroke-width="1.13" d="M352.32,416.93c.29,3.76,9.54,18.36,14.59,21"/></g><g clip-path="url(#b)"><circle cx="510.04" cy="505.47" r="56.44" fill="#afb2d7"/><path fill="#f2ad94" d="M399.29,558c6.92,17.69,17.47,30,37.09,32,25.25,4.23,33.79-26.33,34.51-46.24L500,545.54c-2.68,36-25.61,77.08-67.39,68.63-27.49-4.54-44.57-22.87-52.93-48.56Z"/><path fill="#f2ad94" d="M380.53,567.78c-.63-1.87-9.46-17.67-7.86-20.54s4.62,4.16,5.48,3.81-4.31-6.75-2.28-8.32,4.48,6.42,6,5.73c.8-.36-5.1-6.07-3-7.62s5.77,6.14,6.79,5.87-4.32-6.33-3.17-7.38c2-1.81,6.6,6.18,7.14,6.82s1.31,2.66,2.39,2.71-2.48-5.54-.34-6.9c3.16-2,8.21,17.76,8.21,17.76Z"/><path fill="#0bb89c" d="M474.88,528.14c-8.7,6.36-6,29.66-15.71,36.59,0,0,17.9,11.28,25.13,20.74,0,0,22.91-27.08,23.82-39.32S490.71,516.57,474.88,528.14Z"/><path fill="none" stroke="#eb623d" stroke-linecap="round" stroke-linejoin="round" stroke-width=".98" d="M463.73,561.6c2.55,1.77,14.43,9.5,22.62,18.72"/><path fill="#0bb89c" d="M542.25,528c9.24,9.92-.94,71.95,12.33,84.11,8.34,7.63-71,9.51-81.22,1.58-5.53-4.29,7.46-29.8,7.24-34s-6.38-13.71-5.27-23.67,3.31-30.2,7.29-31.53S527.6,512.25,542.25,528Z"/><path fill="#3c3033" d="M513.23,473.22c-7.15-1.3-16,1.82-17.55,2.61-3.25,1.58-6.34,2.32-9.15,13.49S484.75,518,484.75,518h7.71l1.89-2,1.63,2.65,32.12-.7S535.85,477.32,513.23,473.22Z"/><path fill="#f2ad94" d="M501.05,506.56v16.25s2,2.23,6.57,2.23a11,11,0,0,0,7.08-2.23l1.8-16Z"/><path d="M501.05,512.65v5.77c2.41-.88,7.75-3,8.05-5.26C509.36,511.25,504.47,512,501.05,512.65Z" style="mix-blend-mode:multiply" fill="#f2ad94"/><path fill="#f2ad94" d="M514.7,502a3.9,3.9,0,1,0,3.9-3.91A3.89,3.89,0,0,0,514.7,502Z"/><path d="M519.9,501a1.8,1.8,0,0,0-2.2,1.31" style="mix-blend-mode:multiply" fill="none" stroke="#f2ad94" stroke-linecap="round" stroke-linejoin="round" stroke-width=".65"/><path fill="#f2ad94" d="M506.48,482.51h0Z"/><path fill="#f2ad94" d="M493.24,493.33v10.22a20.21,20.21,0,0,0,.68,6.08c.9,2.76,2.91,4.67,7.33,5.35a17.8,17.8,0,0,0,5.37-.3c5.87-1.1,10.67-5.17,10.67-11.14V493.32a10.81,10.81,0,0,0-10.62-10.81C500.75,482.62,493.24,487.43,493.24,493.33Z"/><path fill="#3c3033" d="M493.1,494.86l10.12.47,1.53-4.24.41,4.23h2.12l.64-3.07,1,3.07,5.79,2.21s5.72-15.32-4.82-16.9C501.36,479.37,492.87,482.59,493.1,494.86Z"/><path fill="#0f0f0f" d="M503.68,496.51c-.07.35.59.77,1.47.94s1.65,0,1.72-.34-.59-.77-1.47-.94S503.74,496.15,503.68,496.51Z"/><path fill="#0f0f0f" d="M495.27,497.3c.11.34.89.4,1.75.13s1.46-.77,1.35-1.11-.89-.4-1.74-.13S495.17,497,495.27,497.3Z"/><path d="M500.25,504h.95a1,1,0,0,0,1.06-1l-.48-4.73a1,1,0,0,0-1.06-.81h0a1,1,0,0,0-1.05.81L499.2,503A1,1,0,0,0,500.25,504Z" style="mix-blend-mode:soft-light" fill="#0f0f0f"/><ellipse cx="505.11" cy="501.03" fill="#0f0f0f" rx=".49" ry=".98"/><path fill="#0f0f0f" d="M496.51,501.17c0,.54.22,1,.48,1s.49-.44.49-1-.22-1-.49-1S496.51,500.64,496.51,501.17Z"/><path fill="#fff" d="M501.13,506.36c-1,0-1-.43-1.71-.45-.83,0-.89.42-.88.82a2.44,2.44,0,0,0,2.58,1.85c1.07,0,2.38-.7,2.44-1.6s-.48-1.05-.85-1S502,506.37,501.13,506.36Z"/><path d="M505.92,505.55a3.83,3.83,0,1,0,3.82-3.83A3.83,3.83,0,0,0,505.92,505.55Z" style="mix-blend-mode:multiply" fill="#f2ad94"/><path d="M493.25,502.23v1.32a20.21,20.21,0,0,0,.68,6.08,3.83,3.83,0,0,0-.68-7.4Z" style="mix-blend-mode:multiply" fill="#f2ad94"/><path fill="none" stroke="#eb623d" stroke-linecap="round" stroke-linejoin="round" stroke-width=".98" d="M517.31,525.73c-2.31,2.26-13.56,4.37-21.36,0"/><path fill="none" stroke="#eb623d" stroke-linecap="round" stroke-linejoin="round" stroke-width="1.02" d="M479.93,536.71c-3.36,5.13-10.17,17.45-5.26,26.47,2,3.72,7.88,9.82,6.88,15.46"/><path fill="#f2ad94" d="M479.44,611.79c16.2,9.91,32,13.32,48.88,3.09,22.67-11.89,11-41.4-.43-57.7L552.16,541c19.61,30.29,26.15,76.89-12.24,95.4-24.66,13-49.33,8.7-71.52-6.72Z"/><path fill="#f2ad94" d="M470.39,630.91c-1.64-1.12-18.21-8.37-18.67-11.62s6.19.52,6.66-.28-7.51-2.77-6.83-5.25,7.44,2.4,8.22,1c.42-.77-7.73-1.75-7-4.24s8.31,1.41,9,.57-7.27-2.43-7-4c.48-2.63,9,.94,9.81,1.12s2.65,1.33,3.55.72-5.33-2.92-4.44-5.3c1.3-3.51,17.27,9.2,17.27,9.2Z"/><path fill="#0bb89c" d="M536.46,524.37c17.1,7.18,31.58,43.92,31.58,43.92-4.09,11.08-33.22,10.33-33.22,10.33s1.71-10.29-8.21-17.93S536.46,524.37,536.46,524.37Z"/><path fill="none" stroke="#eb623d" stroke-linecap="round" stroke-linejoin="round" stroke-width=".98" d="M565.89,565.55c-2.9,4.63-19.95,12.05-28.67,8.42"/><path fill="none" stroke="#eb623d" stroke-linecap="round" stroke-linejoin="round" stroke-width=".98" d="M538.4,578.6c-2.08,0-2.76-.06-3.58,0s2.88-7.47-2.48-12.56"/><path fill="none" stroke="#eb623d" stroke-linecap="round" stroke-linejoin="round" stroke-width=".98" d="M525.78,568.33S520,577.91,505.94,575"/></g><g clip-path="url(#c)"><circle cx="402.07" cy="632.09" r="56.44" fill="#afb2d7" transform="rotate(-9.22 401.968 631.941)"/><path fill="#b74b30" d="M509.94,710.35c1.46-1.49,17.12-12.39,16.92-15.84s-6.29,1.81-6.94,1.08,7.2-4.4,6-6.83-7.2,4-8.31,2.67c-.59-.71,7.63-3.4,6.4-5.83s-8.31,3.17-9.15,2.43,7-4,6.41-5.53c-1-2.61-9.11,2.82-9.91,3.17s-2.47,1.92-3.52,1.47,4.91-4.1,3.5-6.38c-2.07-3.36-16,13-16,13Z"/><path fill="#f9a23b" d="M512.76,709.51C493.39,733.2,476.52,743.39,445,743c-43.73-.24-60.89-51.57-61.56-88.1l30.72,1.12c-.19,20.71,5.8,59,31.1,61.25,24.45,2.12,33.44-7.46,49.24-24.48Z"/><path fill="#f9a23b" d="M370.32,655.2c-9.43,10.12-14.24,81.46-15.14,97.85-.63,11.53,78.8,10.39,89.24,2.29,5.65-4.38-4.63-61.39-5.76-71.56s-1.33-25-7.78-30.24C427.56,650.82,385.27,639.16,370.32,655.2Z"/><path fill="none" stroke="#e2938c" stroke-linecap="round" stroke-miterlimit="10" stroke-width="1.33" d="M441.3,704.08s4.38,38,4.8,41.42"/><path fill="#402c2b" d="M423.44,619.45c0,9.16-8.17,16.59-18.25,16.59s-18.25-7.43-18.25-16.59,8.22-17.64,18.25-16.6c6.5.68,11.57-10.1,19.75-2.79C431.29,605.74,423.44,613.15,423.44,619.45Z"/><path fill="#b74b30" d="M412.38,633.34v16.6s-2.08,2.27-6.71,2.27a18.48,18.48,0,0,1-9.07-2.94V633.6Z"/><path d="M412.38,639.56v5.89c-2.46-.9-7.91-3-8.22-5.37C403.9,638.14,408.89,638.91,412.38,639.56Z" style="mix-blend-mode:soft-light" fill="#0f0f0f"/><path fill="#b74b30" d="M398.44,628.7a4,4,0,1,1-4-4A4,4,0,0,1,398.44,628.7Z"/><path fill="none" stroke="#0f0f0f" stroke-linecap="round" stroke-linejoin="round" stroke-width=".66" d="M393.14,627.66a1.84,1.84,0,0,1,2.24,1.34"/><path fill="#b74b30" d="M406.82,608.79h0Z"/><path fill="#b74b30" d="M420.34,619.83v10.44a20.38,20.38,0,0,1-.7,6.21c-.91,2.82-3,4.77-7.47,5.46a18.24,18.24,0,0,1-5.49-.3c-6-1.13-10.89-5.28-10.89-11.37V619.83a11,11,0,0,1,10.83-11C412.68,608.9,420.34,613.81,420.34,619.83Z"/><path fill="#402c2b" d="M403.75,606.13c-3.15,1-10,5.31-10.62,9.3s.66,13.27,3.32,12.61,2.65-6,4-8c2.65-4,18.28-.66,17.25-8.63C416.56,602.79,407.73,604.81,403.75,606.13Z"/><path fill="#0f0f0f" d="M409.69,623.08c.07.36-.61.79-1.51,1s-1.68,0-1.75-.34.61-.79,1.51-1S409.62,622.72,409.69,623.08Z"/><path fill="#0f0f0f" d="M418.27,623.89c-.11.35-.91.41-1.78.13s-1.49-.78-1.38-1.13.9-.41,1.78-.13S418.38,623.54,418.27,623.89Z"/><path d="M413.19,630.69h-1a1,1,0,0,1-1.08-1l.49-4.83a1,1,0,0,1,1.08-.83h0a1,1,0,0,1,1.07.83l.49,4.83A1,1,0,0,1,413.19,630.69Z" style="mix-blend-mode:soft-light" fill="#0f0f0f"/><path fill="#0f0f0f" d="M408.72,627.7c0,.55-.22,1-.49,1s-.5-.45-.5-1,.22-1,.5-1S408.72,627.15,408.72,627.7Z"/><path fill="#0f0f0f" d="M417,627.84c0,.55-.22,1-.49,1s-.5-.45-.5-1,.22-1,.5-1S417,627.29,417,627.84Z"/><path fill="#fff" d="M412.29,633.14c1,0,1.07-.44,1.75-.46.85,0,.91.42.9.84a2.5,2.5,0,0,1-2.63,1.88c-1.1,0-2.44-.71-2.49-1.63s.48-1.07.87-1S411.44,633.15,412.29,633.14Z"/><circle cx="403.5" cy="632.32" r="3.91" style="mix-blend-mode:soft-light" fill="#0f0f0f"/><path d="M420.34,628.92v1.35a20.38,20.38,0,0,1-.7,6.21,3.91,3.91,0,0,1,.7-7.56Z" style="mix-blend-mode:soft-light" fill="#0f0f0f"/><path fill="none" stroke="#e2938c" stroke-linecap="round" stroke-miterlimit="10" stroke-width="1.33" d="M490.89,697.63c1.71,2.65,6.45,9.61,16.83,16.71"/><path fill="none" stroke="#e2938c" stroke-linecap="round" stroke-miterlimit="10" stroke-width="1.33" d="M488.22,700.3c1.71,2.64,6.45,9.61,16.84,16.71"/><path fill="none" stroke="#e2938c" stroke-linecap="round" stroke-miterlimit="10" stroke-width="1.33" d="M485.48,703c1.71,2.65,6.45,9.62,16.84,16.72"/><path fill="none" stroke="#e2938c" stroke-linecap="round" stroke-miterlimit="10" stroke-width="1.33" d="M394.26,653.54c2.2,2.45,13.52,5.33,21.76,1.35"/><path fill="#b74b30" d="M373.2,775.64c2,.17,19.82,5.1,22.27,2.82s-5.23-3.58-5.09-4.51,7.73,2.64,8.79.24-7.44-2.89-7.12-4.54c.17-.88,7.25,3.59,8.29,1.17s-7.49-4.24-7.46-5.32,7.31,2.75,8.08,1.35c1.31-2.38-7.73-5-8.49-5.43s-3-.65-3.27-1.71,6.09,1.12,6.93-1.33c1.22-3.62-19.6-3.85-19.6-3.85Z"/><path fill="#f9a23b" d="M375.58,778c-33.34-1.64-62.83-26.46-65.32-61.26-.18-37.9,42.51-65.4,76.89-68.06v36c-19.83,1.41-49.23,10.11-51.26,31.76,1.43,22.75,21.1,34.45,42.85,36.6Z"/><path fill="none" stroke="#e2938c" stroke-linecap="round" stroke-miterlimit="10" stroke-width="1.33" d="M362.43,775.37c1.11-3,3.86-10.92,3.34-23.49"/><path fill="none" stroke="#e2938c" stroke-linecap="round" stroke-miterlimit="10" stroke-width="1.33" d="M366.16,775.91c1.11-2.95,3.86-10.91,3.35-23.49"/><path fill="none" stroke="#e2938c" stroke-linecap="round" stroke-miterlimit="10" stroke-width="1.33" d="M370,776.47c1.1-3,3.85-10.91,3.34-23.49"/><path fill="none" stroke="#e2938c" stroke-linecap="round" stroke-miterlimit="10" stroke-width="1.33" d="M356.15,746a96.55,96.55,0,0,0,22.71,5.91"/><path fill="none" stroke="#e2938c" stroke-linecap="round" stroke-miterlimit="10" stroke-width="1.33" d="M361.93,689.79s4.4-2.82,17.81-3.9c5-.41,5.52-20.5,2.24-24.91"/></g><polygon fill="#eb623d" points="456.42 416.88 637.3 416.88 637.3 355.84 462.65 355.84 462.65 412 456.42 416.88"/><g style="mix-blend-mode:screen" opacity=".52"><rect width="75.38" height="6.72" x="471.36" y="365.22" fill="#eb623d"/><rect width="75.38" height="6.72" x="551.13" y="365.22" fill="#eb623d"/><rect width="111.47" height="6.72" x="471.36" y="377.07" fill="#eb623d"/><rect width="39.25" height="6.72" x="587.26" y="377.07" fill="#eb623d"/><rect width="32.73" height="6.72" x="471.36" y="388.93" fill="#eb623d"/><rect width="117.46" height="6.72" x="509.05" y="388.93" fill="#eb623d"/><rect width="39.28" height="6.72" x="471.36" y="400.78" fill="#eb623d"/><rect width="75.38" height="6.72" x="551.13" y="400.78" fill="#eb623d"/><rect width="30.82" height="6.72" x="515.92" y="400.78" fill="#eb623d"/></g><polyline fill="none" stroke="#7a7ebd" stroke-linecap="round" stroke-linejoin="round" stroke-width="1.16" points="462.11 653.77 460.28 655.2 462.6 655.2"/><line x1="467.37" x2="636.46" y1="655.2" y2="655.2" fill="none" stroke="#7a7ebd" stroke-dasharray="4.76 4.76" stroke-linecap="round" stroke-linejoin="round" stroke-width="1.16"/><polyline fill="none" stroke="#7a7ebd" stroke-linecap="round" stroke-linejoin="round" stroke-width="1.16" points="638.84 655.2 641.16 655.2 641.16 652.88"/><line x1="641.16" x2="641.16" y1="647.84" y2="610.07" fill="none" stroke="#7a7ebd" stroke-dasharray="5.04 5.04" stroke-linecap="round" stroke-linejoin="round" stroke-width="1.16"/><polyline fill="none" stroke="#7a7ebd" stroke-linecap="round" stroke-linejoin="round" stroke-width="1.16" points="641.16 607.56 641.16 605.24 638.84 605.24"/><line x1="634.25" x2="471.14" y1="605.24" y2="605.24" fill="none" stroke="#7a7ebd" stroke-dasharray="4.59 4.59" stroke-linecap="round" stroke-linejoin="round" stroke-width="1.16"/><polyline fill="none" stroke="#7a7ebd" stroke-linecap="round" stroke-linejoin="round" stroke-width="1.16" points="468.84 605.24 466.52 605.24 466.52 607.56"/><line x1="466.52" x2="466.52" y1="612.05" y2="645.75" fill="none" stroke="#7a7ebd" stroke-dasharray="4.49 4.49" stroke-linecap="round" stroke-linejoin="round" stroke-width="1.16"/><polyline fill="none" stroke="#7a7ebd" stroke-linecap="round" stroke-linejoin="round" stroke-width="1.16" points="466.52 648 466.52 650.32 464.69 651.75"/><polygon fill="#f9a23b" points="448.57 541.12 294.13 541.12 294.13 480.07 442.34 480.07 442.34 536.24 448.57 541.12"/><g style="mix-blend-mode:screen" opacity=".5"><rect width="75.38" height="6.72" x="358.25" y="489.45" fill="#f9a23b" transform="rotate(180 395.94 492.815)"/><rect width="48.95" height="6.72" x="304.91" y="489.45" fill="#f9a23b" transform="rotate(180 329.385 492.815)"/><rect width="111.47" height="6.72" x="322.16" y="501.31" fill="#f9a23b" transform="rotate(180 377.895 504.67)"/><rect width="12.82" height="6.72" x="304.91" y="501.31" fill="#f9a23b" transform="rotate(180 311.32 504.67)"/><rect width="32.73" height="6.72" x="400.9" y="513.16" fill="#f9a23b" transform="rotate(180 417.265 516.525)"/><rect width="91.03" height="6.72" x="304.91" y="513.16" fill="#f9a23b" transform="rotate(180 350.425 516.525)"/><rect width="39.28" height="6.72" x="394.35" y="525.02" fill="#f9a23b" transform="rotate(180 413.99 528.38)"/><rect width="48.95" height="6.72" x="304.91" y="525.02" fill="#f9a23b" transform="rotate(180 329.385 528.38)"/><rect width="30.82" height="6.72" x="358.25" y="525.02" fill="#f9a23b" transform="rotate(180 373.66 528.38)"/></g><circle cx="455.47" cy="720.97" r="16.76" fill="#63595c" transform="rotate(-80.78 455.502 720.983)"/><polygon fill="#b74b30" points="679.75 764.19 693.96 763.57 693.58 749.73 680.46 749.73 679.75 764.19"/><path fill="#f9a23b" d="M667.79,771.09h25a1.58,1.58,0,0,0,1.57-1.58v-8.1c-5.71,2.3-14.68,0-14.68,0A12.1,12.1,0,0,0,667.79,771.09Z"/><path fill="none" stroke="#1f0d16" stroke-miterlimit="10" stroke-width=".44" d="M694.33,764.83a7,7,0,0,0-6.82,6.68"/><path fill="none" stroke="#1f0d16" stroke-miterlimit="10" stroke-width=".44" d="M670.86,765.12c.84.71,3.66,3.55,3.36,7.18"/><path fill="none" stroke="#1f0d16" stroke-linecap="round" stroke-miterlimit="10" stroke-width=".44" d="M675.06,762.18a9.23,9.23,0,0,0,1.12,1.73"/><path fill="none" stroke="#1f0d16" stroke-linecap="round" stroke-miterlimit="10" stroke-width=".44" d="M674.24,762.6a9.75,9.75,0,0,0,1.12,1.73"/><path fill="none" stroke="#1f0d16" stroke-linecap="round" stroke-miterlimit="10" stroke-width=".44" d="M676,761.73a9.23,9.23,0,0,0,1.12,1.73"/><path fill="#1f0d16" d="M667.55,773.51h25.21a1.57,1.57,0,0,0,1.57-1.57v-2.43a1.58,1.58,0,0,1-1.57,1.58h-25A12,12,0,0,0,667.55,773.51Z"/><polygon fill="#b74b30" points="762.71 746.1 771.96 735.63 761.86 726.17 751.95 736.21 762.71 746.1"/><path fill="#f9a23b" d="M758.94,759.53l17.53-17.77a1.58,1.58,0,0,0,0-2.22l-5.77-5.7c-2.37,5.68-10.31,10.45-10.31,10.45A12.1,12.1,0,0,0,758.94,759.53Z"/><path fill="none" stroke="#1f0d16" stroke-miterlimit="10" stroke-width=".44" d="M773.12,736.25a7,7,0,0,0,0,9.55"/><path fill="none" stroke="#1f0d16" stroke-miterlimit="10" stroke-width=".44" d="M756.84,753.15c1.1-.1,5.1-.1,7.47,2.66"/><path fill="none" stroke="#1f0d16" stroke-linecap="round" stroke-miterlimit="10" stroke-width=".44" d="M757.7,748.1a9.11,9.11,0,0,0,2,.42"/><path fill="none" stroke="#1f0d16" stroke-linecap="round" stroke-miterlimit="10" stroke-width=".44" d="M757.42,749a10.35,10.35,0,0,0,2,.42"/><path fill="none" stroke="#1f0d16" stroke-linecap="round" stroke-miterlimit="10" stroke-width=".44" d="M758,747.15a9.19,9.19,0,0,0,2,.42"/><path fill="#1f0d16" d="M760.49,761.41l17.71-17.94a1.58,1.58,0,0,0,0-2.23l-1.72-1.7a1.58,1.58,0,0,1,0,2.22l-17.53,17.77A12.38,12.38,0,0,0,760.49,761.41Z"/><path fill="#3c3033" d="M672.63,752.44s-6.08-126.94,6.13-150.28c1.75-3.35,4.82-11.23,8.82-13.94,7.32-5,7.92-8.66,20.06-8.32,9.85.28,10.23-4.25,14.86-.95,13.79,9.82,18,37.93,15.32,60.29-1.39,11.76-1.34,24.65.72,34.8,3.93,19.23,14.29,34.52,28,48.36,0,0,2,12.88-13.14,19,0,0-40.84-23.79-47.57-67.37l-8.78,80.79A29.74,29.74,0,0,1,672.63,752.44Z"/><path fill="none" stroke="#eeeff2" stroke-linecap="round" stroke-linejoin="round" stroke-width=".88" d="M763.16,720.82c0,2.25-.15,12-11.21,17.77"/><path fill="none" stroke="#eeeff2" stroke-linecap="round" stroke-linejoin="round" stroke-width=".88" d="M695.68,751.18c-2.19.79-15.61,2.84-20.88-1.45"/><path fill="none" stroke="#eeeff2" stroke-linecap="round" stroke-linejoin="round" stroke-width=".88" d="M725.22,588.56c2.48,5.17,9.15,11.36,5.55,34.75s-7.37,56,.93,70.63,32.2,38.27,32.2,38.27"/><path fill="none" stroke="#eeeff2" stroke-linecap="round" stroke-linejoin="round" stroke-width=".88" d="M690.67,595.27c0,1.74-4.22,4.78-9.17,3.43"/><path fill="none" stroke="#eeeff2" stroke-linecap="round" stroke-linejoin="round" stroke-width=".88" d="M693.53,595.83c-.54,2.7-4.49,7.69-13.83,6.39"/><path fill="none" stroke="#eeeff2" stroke-linecap="round" stroke-linejoin="round" stroke-width=".88" d="M719.77,593.75c-.15,1.16,3,7.8,10.31,6.75"/><path fill="none" stroke="#eeeff2" stroke-linecap="round" stroke-linejoin="round" stroke-width=".88" d="M715.38,594.05c.07,1.44,3.78,13.36,16,10.28"/><path fill="#eeeff2" d="M707.45,621.1a27.66,27.66,0,0,1-9-4.91c-.21-.17-.53.14-.31.32a28.55,28.55,0,0,0,9.18,5c.27.09.39-.34.12-.43Z"/><path fill="none" stroke="#eeeff2" stroke-linecap="round" stroke-linejoin="round" stroke-width=".88" d="M705.72,673.44c-1-3.5-6.54-36-2.79-51.51"/><path fill="#b74b30" d="M634.83,565.41c-1-1-11.36-8.22-11.22-10.51s4.17,1.19,4.6.71-4.78-2.92-4-4.53,4.78,2.66,5.51,1.77c.39-.47-5.07-2.25-4.24-3.87s5.51,2.1,6.07,1.61-4.66-2.65-4.26-3.67c.69-1.73,6,1.88,6.58,2.11s1.64,1.27,2.34,1-3.26-2.72-2.33-4.23c1.37-2.23,10.6,8.65,10.6,8.65Z"/><path fill="#f9a23b" d="M633,564.85c12.86,15.73,24.06,22.49,45,22.25,29-.16,40.41-34.23,40.86-58.48l-20.39.74c.13,13.75-3.85,39.16-20.64,40.66-16.23,1.41-22.2-4.95-32.69-16.25Z"/><path fill="#f9a23b" d="M727.5,528.8c6.26,6.72,9.46,54.07,10,65,.42,7.65-52.3,6.9-59.23,1.52-3.75-2.91,3.08-40.75,3.83-47.5s.88-16.57,5.16-20.07C689.52,525.9,717.58,518.16,727.5,528.8Z"/><path fill="none" stroke="#3c3033" stroke-linecap="round" stroke-miterlimit="10" stroke-width=".88" d="M680.4,561.25s-2.91,25.24-3.19,27.49"/><path fill="#402c2b" d="M692.25,505.07c0,6.08,5.42,11,12.11,11s12.12-4.93,12.12-11a11.19,11.19,0,0,0-12.12-11c-4.31.45-7.68-6.71-13.11-1.85C687,496,692.25,500.89,692.25,505.07Z"/><path fill="#b74b30" d="M699.59,514.3v11a6.14,6.14,0,0,0,4.45,1.51,12.31,12.31,0,0,0,6-2V514.46Z"/><path d="M699.59,518.42v3.91c1.63-.59,5.25-2,5.45-3.56C705.22,517.48,701.91,518,699.59,518.42Z" style="mix-blend-mode:soft-light" fill="#0f0f0f"/><path fill="#b74b30" d="M708.84,511.21a2.65,2.65,0,1,0,2.65-2.64A2.65,2.65,0,0,0,708.84,511.21Z"/><path fill="none" stroke="#0f0f0f" stroke-linecap="round" stroke-linejoin="round" stroke-width=".44" d="M712.36,510.52a1.24,1.24,0,0,0-1.49.9"/><path fill="#b74b30" d="M703.28,498h0Z"/><path fill="#b74b30" d="M694.31,505.33v6.92a13.74,13.74,0,0,0,.46,4.13c.61,1.87,2,3.16,5,3.62a11.82,11.82,0,0,0,3.64-.2c4-.75,7.23-3.5,7.23-7.55v-6.92a7.32,7.32,0,0,0-7.19-7.33C699.39,498.07,694.31,501.33,694.31,505.33Z"/><path fill="#402c2b" d="M705.32,496.24c2.09.69,6.61,3.52,7,6.16s-.44,8.81-2.21,8.37-1.76-4-2.64-5.28c-1.76-2.65-12.14-.44-11.45-5.73C696.81,494,702.68,495.36,705.32,496.24Z"/><path fill="#0f0f0f" d="M701.37,507.48c0,.24.41.53,1,.64s1.12,0,1.17-.23-.4-.52-1-.63S701.42,507.25,701.37,507.48Z"/><ellipse cx="696.73" cy="507.69" fill="#0f0f0f" rx="1.1" ry=".44" transform="rotate(-17.48 696.597 507.628)"/><path d="M699.05,512.54h.64a.66.66,0,0,0,.72-.65l-.32-3.21a.68.68,0,0,0-.72-.55h0a.68.68,0,0,0-.71.55l-.32,3.21A.65.65,0,0,0,699.05,512.54Z" style="mix-blend-mode:soft-light" fill="#0f0f0f"/><path fill="#0f0f0f" d="M702,510.55c0,.37.14.66.33.66s.33-.29.33-.66-.15-.66-.33-.66S702,510.19,702,510.55Z"/><path fill="#0f0f0f" d="M696.51,510.65c0,.36.15.66.33.66s.33-.3.33-.66-.14-.66-.33-.66S696.51,510.28,696.51,510.65Z"/><path fill="#fff" d="M699.65,514.16c-.69,0-.71-.29-1.16-.3s-.61.28-.6.55a1.65,1.65,0,0,0,1.75,1.25c.72,0,1.61-.47,1.65-1.08s-.32-.71-.58-.7S700.22,514.17,699.65,514.16Z"/><path d="M702.89,513.61a2.6,2.6,0,1,0,2.59-2.59A2.59,2.59,0,0,0,702.89,513.61Z" style="mix-blend-mode:soft-light" fill="#0f0f0f"/><path d="M694.31,511.36v.89a13.74,13.74,0,0,0,.46,4.13,2.6,2.6,0,0,0-.46-5Z" style="mix-blend-mode:soft-light" fill="#0f0f0f"/><path fill="none" stroke="#3c3033" stroke-linecap="round" stroke-miterlimit="10" stroke-width=".88" d="M647.48,557a38.83,38.83,0,0,1-11.17,11.1"/><path fill="none" stroke="#3c3033" stroke-linecap="round" stroke-miterlimit="10" stroke-width=".88" d="M649.25,558.73a38.83,38.83,0,0,1-11.17,11.1"/><path fill="none" stroke="#3c3033" stroke-linecap="round" stroke-miterlimit="10" stroke-width=".88" d="M651.07,560.55a38.9,38.9,0,0,1-11.18,11.1"/><path fill="none" stroke="#3c3033" stroke-linecap="round" stroke-miterlimit="10" stroke-width=".88" d="M711.62,527.7c-1.47,1.63-9,3.54-14.45.9"/><polygon fill="#7a7ebd" points="513.08 620.17 719.09 620.17 719.09 557.98 520.18 557.98 520.18 614.61 513.08 620.17"/><g style="mix-blend-mode:screen"><rect width="126.97" height="7.66" x="531.26" y="571.74" style="mix-blend-mode:multiply" fill="#7a7ebd" opacity=".45"/><rect width="44.7" height="7.66" x="663.26" y="571.74" style="mix-blend-mode:multiply" fill="#7a7ebd" opacity=".45"/><rect width="37.28" height="7.66" x="531.26" y="585.24" style="mix-blend-mode:multiply" fill="#7a7ebd" opacity=".45"/><rect width="133.78" height="7.66" x="574.18" y="585.24" style="mix-blend-mode:multiply" fill="#7a7ebd" opacity=".45"/><rect width="44.74" height="7.66" x="531.26" y="598.75" style="mix-blend-mode:multiply" fill="#7a7ebd" opacity=".45"/><rect width="85.85" height="7.66" x="622.11" y="598.75" style="mix-blend-mode:multiply" fill="#7a7ebd" opacity=".45"/><rect width="35.1" height="7.66" x="582.01" y="598.75" style="mix-blend-mode:multiply" fill="#7a7ebd" opacity=".45"/></g><path fill="#b74b30" d="M725.59,608.74c-1.33.11-13.15,3.39-14.78,1.87s3.48-2.37,3.38-3-5.13,1.76-5.84.16,4.95-1.92,4.74-3c-.12-.59-4.82,2.38-5.51.77s5-2.81,4.95-3.53-4.85,1.83-5.36.9c-.87-1.58,5.13-3.35,5.63-3.6s2-.43,2.18-1.14-4.05.74-4.6-.89c-.82-2.4,13-2.55,13-2.55Z"/><path fill="#f9a23b" d="M724,610.32c22.13-1.09,41.7-17.57,43.36-40.66.12-25.16-28.22-43.41-51-45.18v23.9c13.16.93,32.67,6.71,34,21.08-1,15.1-14,22.86-28.44,24.29Z"/><path fill="none" stroke="#3c3033" stroke-linecap="round" stroke-miterlimit="10" stroke-width=".88" d="M732.74,608.56A39,39,0,0,1,730.52,593"/><path fill="none" stroke="#3c3033" stroke-linecap="round" stroke-miterlimit="10" stroke-width=".88" d="M730.26,608.92a38.83,38.83,0,0,1-2.21-15.59"/><path fill="none" stroke="#3c3033" stroke-linecap="round" stroke-miterlimit="10" stroke-width=".88" d="M727.72,609.29a38.89,38.89,0,0,1-2.22-15.58"/><path fill="none" stroke="#3c3033" stroke-linecap="round" stroke-miterlimit="10" stroke-width=".88" d="M736.91,589.05A63.77,63.77,0,0,1,721.84,593"/><path fill="none" stroke="#3c3033" stroke-linecap="round" stroke-miterlimit="10" stroke-width=".88" d="M733.08,551.76s-2.92-1.87-11.82-2.59c-3.32-.27-3.67-13.6-1.49-16.53"/><polygon fill="#eb623d" points="759.72 208.4 722.34 221.06 684.96 208.4 672.54 113.82 722.34 113.82 772.14 113.82 759.72 208.4"/><polygon points="722.46 126.16 722.46 208.68 751.11 198.97 760.67 126.16 722.46 126.16" style="mix-blend-mode:multiply" fill="#eb623d" opacity=".43"/><path fill="#fff" d="M693.09,156.63h3.21L704,174.24h-4.38l-1.51-3.73h-6.84l-1.47,3.73h-4.28Zm1.49,5.12-2.13,5.47h4.3Z"/><path fill="#fff" d="M705.73,156.63h5.81a16.9,16.9,0,0,1,4,.47,9.3,9.3,0,0,1,3.32,1.53,7.42,7.42,0,0,1,2.25,2.75,9.17,9.17,0,0,1,.83,4.1,8.47,8.47,0,0,1-.8,3.77A8.15,8.15,0,0,1,719,172a9.65,9.65,0,0,1-3.16,1.67,12,12,0,0,1-3.75.58h-6.34Zm3.88,14h2a11,11,0,0,0,2.5-.28,5.17,5.17,0,0,0,2-.91,4.3,4.3,0,0,0,1.33-1.66,6,6,0,0,0,.49-2.53,5,5,0,0,0-.49-2.25,4.66,4.66,0,0,0-1.3-1.58,5.87,5.87,0,0,0-1.93-.93,8.51,8.51,0,0,0-2.33-.31h-2.28Z"/><path fill="#fff" d="M730.39,156.63h3.21l7.66,17.61h-4.38l-1.51-3.73h-6.84l-1.47,3.73h-4.28Zm1.5,5.12-2.14,5.47h4.3Z"/><path fill="#fff" d="M747.4,165l-5.82-8.41h4.88l3.75,6.17,3.61-6.17h4.7l-5.7,8.33,6.37,9.28h-4.87L750,167.15l-4.17,7.09h-4.6Z"/><polygon fill="#f9a23b" points="640.75 134.35 601.65 147.59 562.55 134.35 549.56 35.41 601.65 35.41 653.74 35.41 640.75 134.35"/><polygon points="601.77 48.32 601.77 134.63 631.75 124.48 641.75 48.32 601.77 48.32" style="mix-blend-mode:multiply" fill="#f9a23b" opacity=".43"/><path fill="#fff" d="M575.7,92.31a14.76,14.76,0,0,1-.24,2.68,6.08,6.08,0,0,1-.92,2.3,4.83,4.83,0,0,1-1.93,1.61,7.71,7.71,0,0,1-3.29.6,6.86,6.86,0,0,1-4-1.13,5.3,5.3,0,0,1-2.11-3.52l4-1a2,2,0,0,0,2,1.75,1.71,1.71,0,0,0,1.18-.38,2.22,2.22,0,0,0,.62-1,4.63,4.63,0,0,0,.24-1.22c0-.44,0-.85,0-1.23V79h4.41Z"/><path fill="#fff" d="M589.35,83.9a3.18,3.18,0,0,0-1.45-1,5.36,5.36,0,0,0-1.74-.32,4.29,4.29,0,0,0-1,.11,3.62,3.62,0,0,0-.95.35,2,2,0,0,0-.74.64,1.76,1.76,0,0,0,.4,2.34,6.57,6.57,0,0,0,1.7.82c.69.22,1.43.45,2.22.67a9.3,9.3,0,0,1,2.21,1,5.24,5.24,0,0,1,1.71,1.67,5.05,5.05,0,0,1,.68,2.79,6.5,6.5,0,0,1-.62,2.91,6,6,0,0,1-1.68,2,7.27,7.27,0,0,1-2.46,1.22,10.87,10.87,0,0,1-2.94.39,10.62,10.62,0,0,1-3.62-.59A8.88,8.88,0,0,1,578,97l3.13-3.44a4.58,4.58,0,0,0,1.71,1.4,4.88,4.88,0,0,0,2.13.49,4.43,4.43,0,0,0,1.08-.13,3.34,3.34,0,0,0,1-.38,2.11,2.11,0,0,0,.71-.65,1.59,1.59,0,0,0,.27-.93,1.67,1.67,0,0,0-.7-1.42,6.09,6.09,0,0,0-1.73-.89c-.7-.24-1.45-.49-2.26-.73a10.38,10.38,0,0,1-2.25-1,5.35,5.35,0,0,1-1.74-1.64,4.67,4.67,0,0,1-.69-2.68,6,6,0,0,1,.63-2.82,6.2,6.2,0,0,1,1.7-2,7.57,7.57,0,0,1,2.44-1.23,10.07,10.07,0,0,1,2.85-.41,11.2,11.2,0,0,1,3.27.48,7.64,7.64,0,0,1,2.85,1.61Z"/><path fill="#fff" d="M594.6,89a11.24,11.24,0,0,1,.8-4.35,9.6,9.6,0,0,1,2.24-3.31,9.93,9.93,0,0,1,3.42-2.1,13,13,0,0,1,8.63,0,9.88,9.88,0,0,1,3.41,2.1,9.62,9.62,0,0,1,2.25,3.31,12.2,12.2,0,0,1,0,8.69,9.57,9.57,0,0,1-2.25,3.32,9.88,9.88,0,0,1-3.41,2.1,13.12,13.12,0,0,1-8.63,0,9.93,9.93,0,0,1-3.42-2.1,9.55,9.55,0,0,1-2.24-3.32A11.15,11.15,0,0,1,594.6,89Zm4.57,0a7.35,7.35,0,0,0,.43,2.58,6,6,0,0,0,1.26,2,5.7,5.7,0,0,0,2,1.34,6.51,6.51,0,0,0,2.55.48,6.6,6.6,0,0,0,2.56-.48,5.7,5.7,0,0,0,2-1.34,5.92,5.92,0,0,0,1.25-2,7.75,7.75,0,0,0,0-5.15,5.87,5.87,0,0,0-1.25-2,5.7,5.7,0,0,0-2-1.34,6.6,6.6,0,0,0-2.56-.48,6.51,6.51,0,0,0-2.55.48,5.7,5.7,0,0,0-2,1.34,5.9,5.9,0,0,0-1.26,2A7.41,7.41,0,0,0,599.17,89Z"/><path fill="#fff" d="M619.14,79h6l8.49,13.88h.06V79h4.4V99h-5.76L623.6,84.78h-.06V99h-4.4Z"/><polygon fill="#7a7ebd" points="729.34 356.45 691.13 369.59 652.91 356.45 640.22 258.23 691.13 258.23 742.04 258.23 729.34 356.45"/><polygon points="691.25 271.05 691.25 356.73 720.54 346.65 730.32 271.05 691.25 271.05" style="mix-blend-mode:multiply" fill="#7a7ebd" opacity=".43"/><path fill="#fff" d="M714.29,277.64l-4.08,3.64-2.44-2.86,6.64-5.68h4v20.65h-4.14Z"/><path fill="#fff" d="M708,319.4l.15-7.92a3.56,3.56,0,1,0-7.11,0,4.08,4.08,0,1,0-8.16,0,4.08,4.08,0,1,0-8.16,0V293.31a4.08,4.08,0,1,0-8.16,0v24.24l-.16-.15a42.28,42.28,0,0,0-6.6-5.46c-4.71-2.75-8.84,3.68-4.63,7.17a25.7,25.7,0,0,1,1.67,2.05,137,137,0,0,1,9.72,16.18V347.5h17.56C709.4,347.17,708.4,331.53,708,319.4Z"/><path fill="#fff" d="M706.73,349.36H676.52a1.8,1.8,0,0,1-1.79-1.81v-6.89a1.8,1.8,0,0,1,1.79-1.82h30.21a1.8,1.8,0,0,1,1.79,1.82v6.89A1.8,1.8,0,0,1,706.73,349.36Z"/><line x1="680.17" x2="680.17" y1="272.74" y2="281.03" fill="none" stroke="#fff" stroke-linecap="round" stroke-miterlimit="10" stroke-width="2.11"/><line x1="668.29" x2="674.06" y1="279.27" y2="285.13" fill="none" stroke="#fff" stroke-linecap="round" stroke-miterlimit="10" stroke-width="2.11"/><line x1="692.47" x2="686.7" y1="279.27" y2="285.13" fill="none" stroke="#fff" stroke-linecap="round" stroke-miterlimit="10" stroke-width="2.11"/><line x1="688.64" x2="696.8" y1="291.77" y2="291.77" fill="none" stroke="#fff" stroke-linecap="round" stroke-miterlimit="10" stroke-width="2.11"/><line x1="672.32" x2="664.17" y1="291.77" y2="291.77" fill="none" stroke="#fff" stroke-linecap="round" stroke-miterlimit="10" stroke-width="2.11"/><path fill="#ffe8c9" d="M303.31,237v98.49a7.57,7.57,0,0,1-7.57,7.56H142.14a7.56,7.56,0,0,1-7.56-7.56V237a7.55,7.55,0,0,1,7.56-7.56h153.6A7.56,7.56,0,0,1,303.31,237Z"/><path fill="#665655" d="M303.31,237v14.94H134.58V237a7.55,7.55,0,0,1,7.56-7.56h153.6A7.56,7.56,0,0,1,303.31,237Z"/><path fill="#0bb89c" d="M151.32,240.28a4.38,4.38,0,1,1-4.38-4.38A4.39,4.39,0,0,1,151.32,240.28Z"/><path fill="#eb623d" d="M162.15,240.28a4.39,4.39,0,1,1-4.38-4.38A4.39,4.39,0,0,1,162.15,240.28Z"/><path fill="#7a7ebd" d="M173,240.28a4.39,4.39,0,1,1-4.39-4.38A4.4,4.4,0,0,1,173,240.28Z"/><path fill="#665655" d="M200.21,313.84l-33.42-13.08v-8.32l33.42-13.08v9l-20.94,8.2v.13l20.94,8.19Z"/><path fill="#665655" d="M232.58,275.4l-19.75,51.46-7.53-2.32,19.82-51.45Z"/><path fill="#665655" d="M237.67,279.36l33.42,13.08v8.32l-33.42,13.08v-9l20.94-8.19v-.13l-20.94-8.2Z"/><polygon fill="#f2ad94" points="545.14 341.98 531.97 336.59 537 323.7 549.35 328.13 545.14 341.98"/><path fill="#f9a23b" d="M554.05,352.51l-23.49-8.43a1.58,1.58,0,0,1-.95-2l2.74-7.63c4.59,4.1,13.81,5,13.81,5A12.08,12.08,0,0,1,554.05,352.51Z"/><path fill="none" stroke="#0bb89c" stroke-miterlimit="10" stroke-width=".44" d="M531.19,337.66a7,7,0,0,1,4.17,8.59"/><path fill="none" stroke="#0bb89c" stroke-miterlimit="10" stroke-width=".44" d="M553.18,345.86c-1,.38-4.64,2.11-5.58,5.62"/><path fill="none" stroke="#0bb89c" stroke-linecap="round" stroke-miterlimit="10" stroke-width=".44" d="M550.23,341.67a9.41,9.41,0,0,1-1.65,1.26"/><path fill="none" stroke="#0bb89c" stroke-linecap="round" stroke-miterlimit="10" stroke-width=".44" d="M550.86,342.34a9.41,9.41,0,0,1-1.65,1.26"/><path fill="none" stroke="#0bb89c" stroke-linecap="round" stroke-miterlimit="10" stroke-width=".44" d="M549.54,341a10.2,10.2,0,0,1-1.64,1.25"/><path fill="#0bb89c" d="M553.47,354.88l-23.73-8.52a1.57,1.57,0,0,1-1-2l.82-2.29a1.58,1.58,0,0,0,.95,2l23.49,8.43A11.88,11.88,0,0,1,553.47,354.88Z"/><polygon fill="#f2ad94" points="509.11 373.44 495.18 370.54 497.77 356.94 510.72 359.05 509.11 373.44"/><path fill="#f9a23b" d="M519.8,382.16l-24.64-4a1.56,1.56,0,0,1-1.3-1.8l1.3-8c5.26,3.19,14.48,2.35,14.48,2.35A12.11,12.11,0,0,1,519.8,382.16Z"/><path fill="none" stroke="#0bb89c" stroke-miterlimit="10" stroke-width=".44" d="M494.61,371.73a7,7,0,0,1,5.66,7.69"/><path fill="none" stroke="#0bb89c" stroke-miterlimit="10" stroke-width=".44" d="M517.72,375.78c-.94.57-4.17,2.92-4.46,6.54"/><path fill="none" stroke="#0bb89c" stroke-linecap="round" stroke-miterlimit="10" stroke-width=".44" d="M514.06,372.2a9.13,9.13,0,0,1-1.39,1.53"/><path fill="none" stroke="#0bb89c" stroke-linecap="round" stroke-miterlimit="10" stroke-width=".44" d="M514.8,372.74a9.64,9.64,0,0,1-1.39,1.54"/><path fill="none" stroke="#0bb89c" stroke-linecap="round" stroke-miterlimit="10" stroke-width=".44" d="M513.25,371.61a9.64,9.64,0,0,1-1.39,1.54"/><path fill="#0bb89c" d="M519.65,384.59l-24.88-4a1.57,1.57,0,0,1-1.3-1.81l.39-2.39a1.56,1.56,0,0,0,1.3,1.8l24.64,4A12.5,12.5,0,0,1,519.65,384.59Z"/><path fill="#0bb89c" d="M464.06,241.53c-3.34,19.19,30.1,41,31.49,50.72a139.1,139.1,0,0,1,1,19.57c-.34,17.16-3.25,34.13-4.5,51.3,0,0,16.14,8,26.18,3.61,0,0,9.34-47.78,11-72.18a56.61,56.61,0,0,0-.14-7.48,52.94,52.94,0,0,0-3-11.64c-7.1-19-20.9-34.77-29.63-52.9C496.49,222.53,468.74,214.61,464.06,241.53Z"/><path fill="#0bb89c" d="M492.53,250.29c15,8.76,34.51,13.85,48.45,24.17a11,11,0,0,1-2.39-5.46c.52,9.56-1.82,19.39-3.36,29-1.88,10.14-4.08,20.44-6.43,30.51,0,0,13.84,10.75,25.43,7.22,0,0,9.74-31.21,13.41-47.33,1.89-9.78,5.06-20.88.77-30.56-1.62-3.41-4.35-6.25-7.06-8.78-14.08-12.49-40.56-15.77-55.91-26.56Z"/><path fill="none" stroke="#eeeff2" stroke-linecap="round" stroke-linejoin="round" stroke-width=".88" d="M510.54,248.43c1.5,1.5,10.29,13.14,10.47,15"/><path fill="none" stroke="#eeeff2" stroke-linecap="round" stroke-linejoin="round" stroke-width=".88" d="M518.53,248.11c-.19,4-3.1,4.27-4.3,4.5"/><path fill="none" stroke="#eeeff2" stroke-linecap="round" stroke-linejoin="round" stroke-width=".88" d="M481.08,227.81c-2.93,2.7-7.65,20.7,0,30.59s25,16.65,27.66,30.59-8.24,74-8.24,74"/><path fill="none" stroke="#eeeff2" stroke-linecap="round" stroke-linejoin="round" stroke-width=".88" d="M493.45,356.75c.84.51,13.34,5.46,25.09,4.39"/><path fill="none" stroke="#eeeff2" stroke-linecap="round" stroke-linejoin="round" stroke-width=".88" d="M530.25,322.24c.93,1,13.86,8.42,24.89,9"/><path fill="#f2ad94" d="M585.47,198.61c-5.68,17.43-17.22,29.82-35.86,32.92-28.43,5.65-43.78-22-45.68-46.49l19.72-1.22c.49,13.49,6.29,34.2,23.4,31.33,13.29-1.38,20.44-9.71,25.13-21.69Z"/><path fill="#f2ad94" d="M584.89,200.08c.43-1.27,6.4-12,5.32-13.92s-3.13,2.82-3.71,2.58,2.92-4.57,1.54-5.64-3,4.35-4,3.89c-.54-.25,3.45-4.12,2-5.17s-3.91,4.17-4.6,4,2.93-4.29,2.14-5c-1.33-1.22-4.46,4.19-4.83,4.62s-.88,1.81-1.62,1.84,1.68-3.75.23-4.68c-2.14-1.36-5.56,12-5.56,12Z"/><path fill="#eb623d" d="M521,173.24c5.89,4.3,4,20.09,10.65,24.79,0,0-12.12,7.65-17,14.06,0,0-15.52-18.35-16.14-26.64S510.22,165.4,521,173.24Z"/><path fill="none" stroke="#f9a23b" stroke-linecap="round" stroke-linejoin="round" stroke-width=".66" d="M528.51,195.91c-1.73,1.2-9.78,6.44-15.32,12.69"/><path fill="#eb623d" d="M475.3,173.13c-6.26,6.72.65,48.75-8.34,57-5.65,5.18,48.1,6.43,55,1,3.75-2.91-5-20.19-4.9-23s4.31-9.29,3.56-16-2.25-20.47-4.95-21.37S485.22,162.48,475.3,173.13Z"/><path fill="none" stroke="#f9a23b" stroke-linecap="round" stroke-linejoin="round" stroke-width=".69" d="M517.52,179.05c2.29,3.47,6.9,11.82,3.58,17.94-1.37,2.51-5.34,6.65-4.66,10.47"/><ellipse cx="499.49" cy="147.67" fill="#402c2b" rx="12.11" ry="11.01"/><path fill="#402c2b" d="M494.94,142.16c-1.81.17-9.08.14-8.83-4.77s.64-6.64-3.42-6.68-9.84-.49-6.82-5.67-2.33-4.8-1.3-8c1.63-5,6.74.22,8.81,3s4.36-1.24,7.92.95.51,5.55,3.87,8.59,5.22-1,8.58,2,3.22,7.53-2.2,9.43A17.24,17.24,0,0,1,494.94,142.16Z"/><path fill="#f2ad94" d="M503.21,158.62v11a6.16,6.16,0,0,1-4.45,1.5,7.43,7.43,0,0,1-4.8-1.5l-1.23-10.85Z"/><path d="M503.21,162.75v3.91c-1.63-.6-5.25-2-5.45-3.57C497.58,161.8,500.89,162.32,503.21,162.75Z" style="mix-blend-mode:multiply" fill="#f2ad94"/><path fill="#f2ad94" d="M494,155.54a2.65,2.65,0,1,1-2.65-2.64A2.65,2.65,0,0,1,494,155.54Z"/><path d="M490.44,154.85a1.23,1.23,0,0,1,1.49.89" style="mix-blend-mode:multiply" fill="none" stroke="#f2ad94" stroke-linecap="round" stroke-linejoin="round" stroke-width=".44"/><path fill="#f2ad94" d="M499.52,142.32h0Z"/><path fill="#f2ad94" d="M508.49,149.65v6.93a13.67,13.67,0,0,1-.46,4.12c-.61,1.87-2,3.17-5,3.63a12.48,12.48,0,0,1-3.64-.2c-4-.75-7.23-3.5-7.23-7.55v-6.93a7.32,7.32,0,0,1,7.19-7.32C503.41,142.4,508.49,145.65,508.49,149.65Z"/><path fill="#402c2b" d="M497.48,140.56c-2.09.7-6.61,3.53-7.05,6.17s.44,8.81,2.2,8.37,1.77-4,2.65-5.29c1.76-2.64,12.13-.44,11.45-5.72C506,138.34,500.12,139.68,497.48,140.56Z"/><path fill="#0f0f0f" d="M501.43,151.81c0,.24-.41.53-1,.64s-1.12,0-1.17-.23.4-.52,1-.64S501.38,151.57,501.43,151.81Z"/><path fill="#0f0f0f" d="M507.12,152.35c-.07.23-.6.27-1.18.09s-1-.52-.92-.76.6-.27,1.18-.08S507.19,152.11,507.12,152.35Z"/><path d="M503.75,156.86h-.64a.66.66,0,0,1-.72-.65l.32-3.21a.67.67,0,0,1,.72-.54h0a.67.67,0,0,1,.71.54l.32,3.21A.65.65,0,0,1,503.75,156.86Z" style="mix-blend-mode:multiply" fill="#f2ad94"/><path fill="#0f0f0f" d="M500.78,154.88c0,.36-.14.66-.33.66s-.33-.3-.33-.66.15-.66.33-.66S500.78,154.51,500.78,154.88Z"/><path fill="#0f0f0f" d="M506.29,155c0,.37-.15.66-.33.66s-.34-.29-.34-.66.15-.66.34-.66S506.29,154.61,506.29,155Z"/><path fill="#fff" d="M503.15,158.49c.69,0,.71-.3,1.16-.31s.61.28.6.56a1.66,1.66,0,0,1-1.75,1.25c-.72,0-1.61-.47-1.65-1.08s.32-.71.58-.7S502.58,158.49,503.15,158.49Z"/><path d="M499.91,157.94a2.6,2.6,0,1,1-2.59-2.59A2.59,2.59,0,0,1,499.91,157.94Z" style="mix-blend-mode:multiply" fill="#f2ad94"/><path d="M508.49,155.69v.89a13.67,13.67,0,0,1-.46,4.12,2.59,2.59,0,0,1,.46-5Z" style="mix-blend-mode:multiply" fill="#f2ad94"/><path fill="none" stroke="#f9a23b" stroke-linecap="round" stroke-linejoin="round" stroke-width=".66" d="M492.2,171.62c1.56,1.53,9.18,2.95,14.47,0"/><rect width="96.27" height="62.57" x="513.18" y="174.62" fill="#7a7ebd" rx="6.03"/><rect width="96.27" height="62.57" x="513.18" y="174.62" fill="#7a7ebd" rx="6.03"/><path d="M607.4,234.81H523.19a6,6,0,0,1-6-6V178.26a6,6,0,0,1,1.18-3.58,6,6,0,0,0-5.16,6v50.51a6,6,0,0,0,6,6h84.21a6,6,0,0,0,4.85-2.45A6.38,6.38,0,0,1,607.4,234.81Z" style="mix-blend-mode:multiply" fill="#7a7ebd" opacity=".45"/><path fill="#7a7ebd" d="M601.79,243.31H506.61a7,7,0,0,1-7.05-7.05H608.84A7,7,0,0,1,601.79,243.31Z"/><path d="M504,236.26h-4.44a7,7,0,0,0,7.05,7.05h4.44A7,7,0,0,1,504,236.26Z" style="mix-blend-mode:multiply" fill="#7a7ebd" opacity=".45"/><circle cx="564.38" cy="205.9" r="5.28" style="mix-blend-mode:screen" fill="#7a7ebd"/><circle cx="564.38" cy="205.9" r="7.59" style="mix-blend-mode:screen" fill="#7a7ebd" stroke="#7a7ebd" stroke-linecap="round" stroke-linejoin="round" stroke-width=".31"/><path fill="#f2ad94" d="M517.88,229.92c-11,6.72-21.7,9-33.12,2.11-15.37-8.05-7.48-28.05.27-39.1l-16.45-11c-13.27,20.53-17.7,52.11,8.32,64.64,16.71,8.8,33.43,5.88,48.46-4.57Z"/><path fill="#f2ad94" d="M524,242.88c1.11-.76,12.34-5.68,12.65-7.88s-4.19.35-4.51-.19,5.09-1.88,4.63-3.56-5,1.63-5.57.65c-.29-.53,5.23-1.19,4.75-2.88s-5.63,1-6.07.39,4.92-1.65,4.73-2.69c-.32-1.77-6.09.65-6.64.77s-1.8.9-2.41.48,3.61-2,3-3.59c-.88-2.37-11.7,6.24-11.7,6.24Z"/><path fill="#eb623d" d="M479.22,170.7c-11.59,4.87-21.39,29.77-21.39,29.77,2.77,7.51,22.51,7,22.51,7a13.42,13.42,0,0,1,5.56-12.15C492.63,190.13,479.22,170.7,479.22,170.7Z"/><path fill="none" stroke="#f9a23b" stroke-linecap="round" stroke-linejoin="round" stroke-width=".66" d="M459.29,198.61c2,3.14,13.52,8.16,19.43,5.7"/><path fill="none" stroke="#f9a23b" stroke-linecap="round" stroke-linejoin="round" stroke-width=".66" d="M477.91,207.44c1.41,0,1.88,0,2.43,0S478.39,202.4,482,199"/><path fill="none" stroke="#f9a23b" stroke-linecap="round" stroke-linejoin="round" stroke-width=".66" d="M486.47,200.49s3.89,6.48,13.44,4.48"/><path fill="#f2ad94" d="M180.77,695.05c-39.42,4.94-85.4,18.16-120.27-9-19.53-15.69-29.14-40.24-30.41-65C28.4,564.17,85.17,531.31,132.56,516l15.84,51.17c-25.83,7.51-69.93,22.08-71.76,53.54,0,14.2,5.51,31.65,20.43,36.74,25.89,8.59,54.36.06,81.23-1Z"/><path fill="#f2ad94" d="M177.82,695.73c3.58-.63,36.82-.2,40-5.29s-10.74-3.83-10.92-5.51,14.66,1.06,15.41-3.6-14.28-1.63-14.48-4.65c-.11-1.6,14.26,2.93,15-1.77s-15-3.94-15.42-5.84,14,1.45,14.68-1.33c1.19-4.75-15.76-5.24-17.25-5.56s-5.45.22-6.48-1.49,11.12-.84,11.44-5.49c.48-6.86-35.86,2.28-35.86,2.28Z"/><path fill="#f2ad94" d="M141.58,695.05c39.42,4.94,85.39,18.16,120.26-9,19.53-15.69,29.14-40.24,30.42-65C294,564.17,237.18,531.31,189.79,516l-15.85,51.17c25.84,7.51,69.94,22.08,71.77,53.54,0,14.2-5.51,31.65-20.43,36.74-25.9,8.59-54.36.06-81.23-1Z"/><path fill="#f2ad94" d="M144.52,695.73c-3.58-.63-36.81-.2-40-5.29s10.75-3.83,10.93-5.51S100.75,686,100,681.33s14.28-1.63,14.49-4.65c.1-1.6-14.26,2.93-15-1.77s15-3.94,15.42-5.84-14,1.45-14.69-1.33C99.05,663,116,662.5,117.5,662.18s5.44.22,6.48-1.49-11.12-.84-11.45-5.49c-.47-6.86,35.87,2.28,35.87,2.28Z"/><path fill="#7a7ebd" d="M142.14,512.94,95.78,527.41a7.57,7.57,0,0,0-5.1,9l28.59,117.49a7.55,7.55,0,0,0,7.36,5.78h74.53a7.56,7.56,0,0,0,7.44-6.2l20.79-113c.63-3.41,4.11-10.58-2.83-13.19l-43.2-14.07a7.58,7.58,0,0,0-3.14-.68H144.39A7.82,7.82,0,0,0,142.14,512.94Z"/><path fill="#402c2b" d="M127.54,500.21c-3.25-2-30.74-59-8.47-88.26,21.17-27.78,54-25.58,54-25.58l-5.54,6.83s41.54.73,48.6,30.92-15.44,77.39-15.44,77.39Z"/><path fill="#f2ad94" d="M181.65,471.88l-.46,14.76-.1,3.46-.32,10.37-.34,11s-6.16,5.43-17.22,5.43a27.48,27.48,0,0,1-18-6.44l-.68-21.08L144,472.48Z"/><path d="M181.65,471.88l-.46,14.76-.1,3.46a29.49,29.49,0,0,1-17.75,6.19,30.46,30.46,0,0,1-18.85-6.87L144,472.48Z" style="mix-blend-mode:multiply" fill="#f2ad94"/><circle cx="130.25" cy="460.78" r="9.51" fill="#f2ad94" transform="rotate(-80.78 130.26 460.793)"/><path d="M127.09,458.3a4.42,4.42,0,0,1,5.36,3.21" style="mix-blend-mode:multiply" fill="none" stroke="#f2ad94" stroke-linecap="round" stroke-linejoin="round" stroke-width="1.59"/><circle cx="195.35" cy="460.78" r="9.51" fill="#f2ad94" transform="rotate(-13.28 195.403 460.865)"/><path d="M198.5,458.3a4.43,4.43,0,0,0-5.36,3.21" style="mix-blend-mode:multiply" fill="none" stroke="#f2ad94" stroke-linecap="round" stroke-linejoin="round" stroke-width="1.59"/><path fill="#f2ad94" d="M159.73,413.23h0Z"/><rect width="58.76" height="78.93" x="133.42" y="413.23" fill="#f2ad94" rx="29.38"/><path fill="#0f0f0f" d="M156.79,441c.16.86-1.45,1.88-3.6,2.29s-4,0-4.19-.82,1.45-1.89,3.6-2.29S156.63,440.12,156.79,441Z"/><path fill="#0f0f0f" d="M177.29,441.18c-.27.83-2.17,1-4.26.32s-3.57-1.87-3.3-2.7,2.16-1,4.25-.33S177.55,440.34,177.29,441.18Z"/><path d="M164,465.54h-2.31a2.35,2.35,0,0,1-2.57-2.33l1.15-11.55a2.45,2.45,0,0,1,2.58-2h0a2.44,2.44,0,0,1,2.57,2l1.16,11.55A2.36,2.36,0,0,1,164,465.54Z" style="mix-blend-mode:multiply" fill="#f2ad94"/><ellipse cx="152.72" cy="458.41" fill="#0f0f0f" rx="1.19" ry="2.38"/><ellipse cx="172.52" cy="458.74" fill="#0f0f0f" rx="1.19" ry="2.38"/><circle cx="145.6" cy="470.58" r="8.95" transform="rotate(-45 145.604 470.589)" style="mix-blend-mode:multiply" fill="#f2ad94"/><circle cx="179.32" cy="470.58" r="8.95" transform="rotate(-76.72 179.296 470.574)" style="mix-blend-mode:multiply" fill="#f2ad94"/><path fill="#fff" d="M169.88,473.65a5.34,5.34,0,0,1-2,3.38,8.09,8.09,0,0,1-5.29,1.83,9,9,0,0,1-5-1.67,4,4,0,0,1-1.86-2.84c-.14-2.54,1.36-3,2.41-2.92s2.07,1.19,4.44,1.15c2.86,0,3-1.21,4.83-1.24C169.76,471.28,169.94,472.49,169.88,473.65Z"/><path fill="#bd2a2c" d="M167.9,477a8.09,8.09,0,0,1-5.29,1.83,9,9,0,0,1-5-1.67c.86-1.17,2.88-2,5.23-2A6.82,6.82,0,0,1,167.9,477Z"/><path fill="#402c2b" d="M185.68,419.57c-2.68-20.68-23.78-15.85-33.29-12.68-7.52,2.5-23.78,12.68-25.36,22.19s1.58,31.7,7.92,30.12,6.34-14.27,9.51-19c3.44-5.16,15.21-7.25,25.59-9.23l4-6.77,2.7,9.74C181.88,431.9,186.48,425.73,185.68,419.57Z"/><path fill="none" stroke="#fff" stroke-linecap="round" stroke-linejoin="round" stroke-width=".92" d="M203.12,470.29a3.69,3.69,0,1,1-3.69-3.69A3.69,3.69,0,0,1,203.12,470.29Z"/><path fill="none" stroke="#fff" stroke-linecap="round" stroke-linejoin="round" stroke-width=".92" d="M130.66,470.29A3.69,3.69,0,1,1,127,466.6,3.69,3.69,0,0,1,130.66,470.29Z"/><polygon fill="#665655" points="138.47 513.9 145.08 507.74 162.07 516.92 154.52 538.2 138.47 513.9"/><polygon fill="#665655" points="187.24 513.9 180.63 507.74 163.63 516.92 171.18 538.2 187.24 513.9"/><line x1="94.53" x2="106.67" y1="532.62" y2="582.58" fill="none" stroke="#fff" stroke-linecap="round" stroke-linejoin="round" stroke-width=".82"/><line x1="98.22" x2="110.37" y1="532.62" y2="582.58" fill="none" stroke="#fff" stroke-linecap="round" stroke-linejoin="round" stroke-width=".82"/><line x1="226.99" x2="216.4" y1="532.38" y2="582.7" fill="none" stroke="#fff" stroke-linecap="round" stroke-linejoin="round" stroke-width=".82"/><line x1="223.29" x2="212.71" y1="532.5" y2="582.82" fill="none" stroke="#fff" stroke-linecap="round" stroke-linejoin="round" stroke-width=".82"/><polyline fill="none" stroke="#fff" stroke-linecap="round" stroke-linejoin="round" stroke-width=".82" points="164.14 591.2 160.04 579.71 155.11 591.61"/><rect width="244.08" height="152.67" x="39.13" y="585.02" fill="#665655" rx="6.33"/><rect width="155.42" height="37.81" x="83.46" y="699.87" style="mix-blend-mode:multiply" fill="#665655" opacity=".39"/><circle cx="161.17" cy="635.37" r="16.5" fill="none" stroke="#fff" stroke-linecap="round" stroke-linejoin="round" stroke-width=".6"/><path fill="#63595c" d="M186.31,737.64l-.21-2.33-1.51-83.14a6.41,6.41,0,0,0-6.4-6.29h-34a6.4,6.4,0,0,0-6.4,6.3l-1.35,81.26-1.66,17.86L133,770.74H189.4Zm-19.44,8.44a5.7,5.7,0,0,1-5.7,5.7h0a5.7,5.7,0,0,1-5.7-5.7v-16.8a5.7,5.7,0,0,1,5.7-5.7h0a5.7,5.7,0,0,1,5.7,5.7Z"/><rect width="107.02" height="5.91" x="107.66" y="767.61" fill="#665655" rx="1.53"/><rect width="31.5" height="17.1" x="200.4" y="710.08" fill="none" stroke="#fff" stroke-linecap="round" stroke-linejoin="round" stroke-width=".6"/><path fill="#63595c" d="M247,750.1h0a18.8,18.8,0,0,1,18.8,18.8v4.61a0,0,0,0,1,0,0h-37.6a0,0,0,0,1,0,0V768.9A18.8,18.8,0,0,1,247,750.1Z"/><path fill="none" stroke="#fff" stroke-linecap="round" stroke-linejoin="round" stroke-width=".33" d="M231.33,758.45a18.79,18.79,0,0,0,31.26,0"/><line x1="246.96" x2="246.96" y1="755.71" y2="766.8" fill="none" stroke="#fff" stroke-linecap="round" stroke-linejoin="round" stroke-width=".33"/><circle cx="246.96" cy="755.15" r="2.3" fill="#eb623d"/><path d="M247,768.82h0a18.79,18.79,0,0,1-16.26-9.36,18.77,18.77,0,0,0-2.54,9.44v4.61h37.6V768.9a18.77,18.77,0,0,0-2.54-9.44A18.79,18.79,0,0,1,247,768.82Z" style="mix-blend-mode:multiply" fill="#63595c" opacity=".37"/><path fill="#665655" d="M247,755.28h0a2,2,0,0,1-2-2v-2.89a2,2,0,0,1,2-2h0a2,2,0,0,1,2,2v2.89A2,2,0,0,1,247,755.28Z"/></g></svg>