<svg xmlns="http://www.w3.org/2000/svg" enable-background="new 0 0 1500 1025.4" viewBox="0 0 1500 1025.4"><path fill="#ebf5fc" d="M243,153.2c158.9-137,364.8-89.2,373.4-87c130,32.5,124.2,105.9,265.9,160.6c207,80,315.6-38.3,434.3,52.8
		c92.8,71.1,131.7,224.5,105,339.8c-49.2,213.4-332,337.3-546.5,308.4C670.3,900,616.4,744.7,389.4,748.6
		c-146.7,2.5-197,68.6-253.7,26.4C26.6,693.6,44.1,324.9,243,153.2z"/><path fill="#fbbd9d" d="M949.6,315.7l-3.1-0.6c0,0-23.3,7.8-22.8,3.1c0.6-6.1,22-11.7,23.9-11.7c3.3-0.3,23.6,1.7,26.4,3.1
								c2.8,1.4,20.3,17.8,20.3,17.8l-20.8,22.8c0,0-5.8,0.8-13.6-5.6c-3.9-3.3-9.7-8.9-9.7-8.9s0.3-1.7-0.3-2.2
								c-1.7-1.9-0.6-3.1-0.6-3.1c-1.7-0.3-2.8-1.7-3.1-3.1c0-0.8,0-1.7,0.6-2.2c1.4-1.4,1.9-1.1,1.9-1.1s-3.1-0.8-3.9-3.6
								c-0.6-2.8,3.3-3.9,3.3-3.9"/><path fill="#fbbd9d" d="M924.3,319.3c0,0.3,1.9,0.6,5.3,0.6c1.7,0,3.6-0.3,5.6-0.8c1.9-0.6,4.2-1.4,6.7-2.2
									c1.7-0.6,3.3-1.1,5-1.7h-0.3c7.2,1.1,12.2,1.7,12.5,1.4c0-0.3-5-1.4-12.2-2.8h-0.3h-0.3c-1.7,0.6-3.1,1.1-5,1.7
									c-2.2,0.8-4.4,1.4-6.4,2.2c-1.9,0.6-3.9,0.8-5.3,1.1C926.5,319.3,924.3,319,924.3,319.3z"/><path fill="#fbbd9d" d="M951.3,316.8c2.8,2.2,5,3.9,7.8,5.8c0.8,0.6,1.7,1.4,2.2,2.2c0.6,0.8,0.6,2.2,0,3.1
						c-0.6,0.6-1.7,0.8-2.5,0.8c-0.8,0-1.7-0.6-2.5-0.8c-2.8-1.4-6.4-3.3-9.2-5"/><path fill="#fbbd9d" d="M946.5,322.6c0,0,1.4,1.4,4.2,3.1c1.4,0.8,2.8,1.9,4.7,2.8c1.1,0.3,1.9,0.8,3.1,1.1c0.6,0,1.1,0,1.9,0
							c0.6-0.3,1.4-0.6,1.7-1.4c0.6-1.4,0-2.8-0.6-3.9c-0.8-0.8-1.7-1.7-2.5-2.2c-1.7-1.4-3.1-2.5-4.4-3.3c-2.5-1.9-4.2-2.8-4.4-2.5
							c0,0,1.4,1.4,3.9,3.3c1.4,1.1,2.8,2.2,4.2,3.3c0.8,0.6,1.7,1.4,2.2,2.2c0.6,0.8,0.8,1.9,0.6,2.5c-0.3,0.8-1.4,1.1-2.5,0.8
							c-1.1,0-1.9-0.6-3.1-0.8c-1.9-0.8-3.3-1.7-4.7-2.5C948.5,323.5,946.8,322.6,946.5,322.6z"/><path fill="#fbbd9d" d="M949.3,324.9c0,0-2.5-2.2-3.3-1.9c-1.1,0.3-2.5,0.3-3.1,2.2c-0.6,1.7,0.3,2.2,3.1,5.3"/><path fill="#fbbd9d" d="M949.3,324.9c2.2,1.9,4.2,3.3,6.4,5c0.8,0.6,1.4,1.1,1.9,1.9s0.6,1.9,0,2.8c-0.6,0.6-1.1,0.8-1.9,0.8
						c-0.8,0-1.4-0.3-1.9-0.8c-2.5-1.4-5.3-2.8-7.5-4.4"/><path fill="#fbbd9d" d="M943.2,326.8c0,0,0.6,1.9,3.1,3.9c1.1,1.1,2.5,2.2,4.2,3.1c0.8,0.6,1.7,1.1,2.8,1.4
							c1.1,0.3,2.2,0.8,3.3,0.8c0.6,0,1.4-0.3,1.9-1.1c0.6-0.6,0.6-1.4,0.3-1.9c-0.3-1.4-1.1-2.2-1.9-2.8c-1.4-1.4-2.8-2.5-4.2-3.3
							c-2.5-1.7-3.9-2.8-4.2-2.5c0,0,1.4,1.4,3.6,3.3c1.1,0.8,2.5,2.2,3.9,3.3c0.6,0.6,1.4,1.4,1.4,2.2c0.3,0.8-0.3,1.7-1.1,1.7
							c-0.8,0-1.9-0.3-3.1-0.8c-0.8-0.3-1.9-0.8-2.8-1.4c-1.7-0.8-3.1-1.9-4.2-2.8C944.3,328.2,943.2,326.5,943.2,326.8z"/><path fill="#fbbd9d" d="M986.5,332.1c-1.4,1.9-4.2,1.9-6.4,1.1s-3.9-2.2-6.1-3.3c-6.1-2.8-13.9-0.3-20-3.6
							c-0.8-0.6-1.7-1.1-1.4-2.2c0.3-0.8,1.4-1.1,2.2-1.4c7.5-1.1,15-2.5,22.5-3.6"/><path fill="#fbbd9d" d="M977.1,319.3c0,0-0.8,0-2.5,0.3c-1.7,0.3-3.9,0.6-6.7,0.8c-2.8,0.6-6.1,0.8-9.7,1.4
								c-0.8,0.3-1.9,0.3-2.8,0.6c-0.8,0.3-2.2,0-3.1,1.4c-0.6,0.6-0.3,1.7,0,2.2c0.3,0.6,0.8,0.8,1.4,1.1c1.1,0.6,1.9,0.8,3.1,1.1
								c4.4,1.1,8.6,0.6,12.2,1.1c1.9,0.3,3.6,0.6,5,1.1s2.8,1.4,3.9,2.2c2.5,1.4,5.3,1.7,6.7,1.1c1.7-0.6,1.9-1.7,1.9-1.7
								s-0.6,0.8-1.9,1.1c-1.4,0.6-3.6,0.3-6.1-1.4c-1.1-0.8-2.5-1.7-3.9-2.2c-1.7-0.8-3.3-1.1-5.3-1.4c-3.9-0.6-8.1-0.3-11.9-1.1
								c-1.1-0.3-1.9-0.6-2.8-1.1c-0.8-0.6-1.4-1.1-1.1-1.7s1.4-0.6,2.2-0.8s1.9-0.3,2.8-0.6c3.6-0.6,6.9-1.1,9.7-1.7s5-0.8,6.7-1.4
								C976.3,319.6,977.1,319.3,977.1,319.3z"/><path fill="#fbbd9d" d="M947.9,331.8c0,0-1.7-1.7-2.5-1.4c-0.8,0-1.9,0.3-2.2,1.7c-0.3,1.1,0.3,1.7,2.2,3.9"/><path fill="#fbbd9d" d="M947.9,331.8c1.7,1.4,3.1,2.5,4.7,3.9c0.6,0.6,1.1,0.8,1.4,1.4c0.3,0.6,0.3,1.4,0,1.9
						c-0.3,0.6-0.8,0.6-1.4,0.6c-0.6,0-1.1-0.3-1.7-0.6c-1.7-0.8-3.9-2.2-5.6-3.3"/><path fill="#fbbd9d" d="M943.2,333.2c0,0,0.6,1.4,2.2,3.1c0.8,0.8,1.9,1.7,3.1,2.2c0.6,0.3,1.4,0.8,2.2,1.1
							c0.8,0.3,1.7,0.6,2.5,0.6c0.6,0,1.1-0.3,1.4-0.8c0.3-0.6,0.3-1.1,0.3-1.7c-0.3-1.1-0.8-1.7-1.4-2.2c-1.1-0.8-2.2-1.7-3.1-2.2
							c-1.7-1.4-3.1-1.9-3.1-1.9s0.8,1.1,2.5,2.5c0.8,0.8,1.9,1.7,2.8,2.5c0.6,0.6,0.8,1.1,1.1,1.7c0,0.6-0.3,1.1-0.8,1.1
							c-0.6,0-1.4-0.3-2.2-0.6c-0.8-0.3-1.4-0.6-1.9-0.8c-1.4-0.6-2.2-1.4-3.1-1.9C944.3,334.3,943.5,333.2,943.2,333.2z"/><path fill="#fbbd9d" d="M965.7,339.9c0.3,0-0.3-2.5,0.6-5.3c0.8-2.8,2.8-4.4,2.5-4.7c0-0.3-2.5,1.1-3.6,4.2
						C964.3,337.4,965.4,339.9,965.7,339.9z"/><path fill="#fada73" d="M1144.9,302.9c10.8-5.6,21.4-6.7,33.1-7.2c13.6-0.3,32.5-2.2,47.2-0.8c0,0,45.8,3.6,46.1,38.1l-7.2,127.3
					l9.4,56.7l-133.1,3.9l0.8-66.7c-0.6,30,1.1-64.7,0.6-90c-1.9-18.6-10.8-20.8-12.5-33.1C1128,320.1,1135.2,307.9,1144.9,302.9z"/><path fill="#fde8ae" d="M1172.4,296.8c0,0-20.3-0.3-33.6,6.1c-13.3,6.7-86.1,51.1-86.1,51.1l-55.8-31.1l-29.5,27.8l64.2,42.2
					c12.5,8.3,28.3,10,42.2,3.9l72.2-28.6L1172.4,296.8z"/><path fill="#e7525c" d="M1311.4,865.3l12.5,50l21.4,36.7c1.7,2.8,0.6,6.1-2.2,7.5l0,0c-1.7,0.8-3.3,0.8-4.7,0
					c-9.7-5.3-44.7-24.5-45.6-28.1c-0.8-4.2-16.7-52-16.7-52L1311.4,865.3z"/><path fill="#fff" d="M1343,959.2l-51.1-31.4l0.6,2.2c0.6,1.9,1.7,3.3,3.1,4.4c4.2,2.8,15.8,10.3,42.5,25
					C1339.7,960,1341.6,960,1343,959.2L1343,959.2z" enable-background="new" opacity=".6"/><path fill="#fff" d="M1297.7,908.9c1.4,0.6,2.5,2.2,1.9,3.9c-0.6,1.4-2.2,2.5-3.6,1.9c-1.4-0.6-2.8-2.5-1.9-3.9
						c0.6-1.4,2.8-2.5,4.2-1.7" opacity=".6"/><path fill="#263238" d="M1325.8,940.6c0.3,0,0.8-2.8,3.3-5c2.5-2.2,5.6-2.2,5.3-2.8c0,0-0.8-0.3-1.9-0.3c-1.1,0.3-2.8,0.8-4.2,1.9
						c-1.4,1.1-2.2,2.8-2.5,3.9C1325.5,940,1325.5,940.6,1325.8,940.6z"/><path fill="#263238" d="M1331.1,946.4c0.3,0.3,1.4-1.9,3.9-3.3c2.2-1.4,4.7-1.7,4.7-1.9c0-0.3-2.5-0.6-5.3,1.1
						C1331.6,943.6,1330.8,946.4,1331.1,946.4z"/><path fill="#263238" d="M1316.9,933.9c0.3,0.3,1.9-3.1,5.6-5.6c3.3-2.5,6.9-3.3,6.9-3.9c0-0.3-3.9,0-7.5,2.8
						C1318,930.3,1316.6,933.9,1316.9,933.9z"/><path fill="#263238" d="M1311.6,919.2c0.3,0.3,2.8-1.7,6.1-2.8c3.6-1.1,6.7-1.1,6.7-1.4c0-0.3-3.1-0.8-6.9,0.3
						C1313.9,916.4,1311.6,918.9,1311.6,919.2z"/><path fill="#263238" d="M1307.7,904.5c0.3,0.3,2.5-2.2,6.4-3.1c3.9-0.8,6.9,0.3,6.9-0.3c0,0-0.6-0.6-1.9-0.8
						c-1.4-0.3-3.3-0.6-5.3,0c-1.9,0.6-3.6,1.4-4.7,2.5C1308,903.6,1307.5,904.5,1307.7,904.5z"/><path fill="#263238" d="M1313.3,898.6c0,0,0-0.8-0.6-1.9c-0.6-1.1-1.4-2.8-2.8-4.4c-0.8-0.8-1.7-1.9-3.3-1.9
						c-0.8-0.3-1.7,0.3-2.2,1.1c-0.3,0.8-0.3,1.7-0.3,2.5c0.8,3.1,4.4,5.6,8.1,5s6.4-3.6,6.9-6.7c0-0.8,0-1.7-0.6-2.5
						c-0.6-0.8-1.7-0.8-2.5-0.6c-1.4,0.6-2.2,1.7-2.8,2.5c-1.4,1.9-1.9,3.6-2.2,4.7c-0.3,1.1-0.3,1.9-0.3,1.9c0.3,0,0.6-2.8,3.3-6.1
						c0.6-0.8,1.4-1.9,2.5-2.2c0.6-0.3,1.1,0,1.4,0.3c0.3,0.3,0.3,1.1,0.3,1.7c-0.6,2.5-3.1,5.3-6.1,5.6c-3.1,0.6-6.1-1.7-6.9-4.2
						c-0.3-0.6-0.3-1.4,0-1.7c0.3-0.6,0.6-0.6,1.1-0.6c1.1,0,1.9,1.1,2.8,1.7C1312.5,895.9,1313,898.9,1313.3,898.6z"/><path fill="#e7525c" d="M1142.7,871.7l2.8,42c0,0-41.7,13.9-42,21.7l81.7,0.6l-1.7-65.6L1142.7,871.7z"/><path fill="#fff" d="M1170.8,909.5c1.7,0.3,2.8,2.2,2.5,3.6c-0.3,1.7-1.9,2.8-3.6,2.5c-1.7-0.3-3.1-2.5-2.5-3.9
									c0.6-1.7,2.8-2.8,4.2-2.2" opacity=".6"/><path fill="#fff" d="M1185.2,936.1l-0.3-6.7l-78.9,2.2c0,0-2.5,1.1-3.1,4.4H1185.2z" opacity=".6"/><path fill="#263238" d="M1144.4,913.4c0,0.3,1.9,0.6,3.9,1.7s3.1,2.8,3.3,2.8s-0.3-2.5-2.8-3.9
									C1146.6,912.5,1144.1,913.1,1144.4,913.4z"/><path fill="#263238" d="M1135.7,917.2c0,0.3,1.7,1.1,3.1,2.8s1.9,3.3,2.2,3.3c0.3,0,0.6-2.2-1.1-4.2
									C1138.2,917,1135.7,917,1135.7,917.2z"/><path fill="#263238" d="M1131.3,927.5c0.3,0,0.8-1.9-0.3-4.2c-1.1-2.2-3.1-3.1-3.1-2.5c-0.3,0.3,1.1,1.4,1.9,3.3
									C1130.7,925.9,1130.7,927.5,1131.3,927.5z"/><path fill="#263238" d="M1144.6,903.9c0.3,0.3,1.9-0.3,4.2-0.3s4.2,0.8,4.2,0.3c0.3-0.3-1.7-1.7-4.2-1.7
									C1146.3,902.2,1144.4,903.4,1144.6,903.9z"/><path fill="#263238" d="M1144.4,895.3c0,0.3,1.7,0.3,4.2-0.3c1.1-0.3,2.8-0.8,4.2-1.4c0.8-0.3,1.7-0.8,2.2-1.4
								c0.3-0.3,0.8-0.6,1.1-1.1c0.6-0.6,0.6-1.4,0-2.2c-0.6-0.6-1.1-0.8-1.7-0.8c-0.6,0-1.1,0-1.4,0.3c-0.8,0.3-1.7,0.6-2.5,0.8
								c-1.7,0.8-2.8,1.7-3.6,2.5c-1.9,1.9-2.5,3.3-2.2,3.3c0.3,0,1.1-1.1,3.1-2.8c0.8-0.8,2.2-1.7,3.6-2.2c0.8-0.3,1.4-0.6,2.2-0.8
								c0.8-0.3,1.7-0.3,1.9,0c0,0.3,0,0.3,0,0.6c-0.3,0.3-0.6,0.6-0.8,0.8c-0.8,0.6-1.4,0.8-2.2,1.4c-1.4,0.8-2.8,1.4-3.9,1.7
								C1145.8,895,1144.4,895,1144.4,895.3z"/><path fill="#263238" d="M1144.9,895.9c0.3,0,0.8-1.4,0.8-3.9c0-1.4-0.3-2.8-0.6-4.4c-0.3-0.8-0.6-1.7-1.1-2.5
								c-0.6-0.8-1.1-1.9-2.8-1.9c-0.8,0-1.4,0.6-1.7,1.1c-0.3,0.6-0.3,1.1-0.3,1.4c0,0.8,0,1.9,0,2.8c0.3,1.7,1.1,3.1,1.9,4.2
								c1.7,1.9,3.3,2.5,3.3,2.2c0-0.3-1.4-0.8-2.5-3.1c-0.6-1.1-1.1-2.2-1.4-3.9c0-0.8,0-1.7,0-2.5c0-0.8,0.3-1.7,0.8-1.4
								c0.3,0,1.1,0.6,1.4,1.4c0.6,0.8,0.8,1.4,1.1,2.2c0.6,1.4,0.8,2.8,0.8,4.2C1144.9,894.2,1144.6,895.9,1144.9,895.9z"/><g><polygon fill="#27265f" points="1142.7 506.9 1267.2 506 1327.5 900.9 1275.8 907.5 1209.7 582.7 1189.7 908.6 1189.7 909.7 1133.8 908.6"/></g><g><path fill="#263238" d="M1157.4,501.3c0,0,1.4,0.6,3.6,1.4c2.5,0.8,5.8,1.9,10.3,3.1c4.4,1.1,9.7,2.2,15.8,2.8
					c5.8,0.8,12.5,1.1,19.4,1.4c6.9,0,13.6-0.6,19.4-1.1c5.8-0.8,11.4-1.7,15.8-2.8s8.1-1.9,10.3-2.8c2.5-0.8,3.6-1.4,3.6-1.4
					s-1.4,0.3-3.9,0.8c-2.5,0.6-6.1,1.7-10.6,2.5c-4.4,0.8-9.7,1.9-15.6,2.5c-5.8,0.6-12.5,1.1-19.4,1.1c-6.9,0-13.3-0.6-19.4-1.1
					c-5.8-0.8-11.1-1.7-15.6-2.5c-4.4-0.8-8.1-1.9-10.3-2.5C1158.8,501.6,1157.4,501.3,1157.4,501.3z"/></g><g><path fill="#263238" d="M1225.8,217.1c1.7-4.4,3.3-9.2,4.2-13.9c0.8-4.7,0.6-9.7-1.4-14.2c-1.9-4.4-6.1-8.1-10.8-8.6
							c-3.1-0.6-6.1,0.3-8.9-0.6c-3.3-1.1-5.6-3.9-8.1-6.1c-4.2-3.3-9.4-5.6-14.7-5.8c-2.8-0.3-5.8,0.3-8.1,1.7
							c-2.5,1.4-4.4,3.9-4.4,6.7c-3.3-0.8-6.7-1.9-10.3-1.9c-3.3,0-6.9,0.8-9.4,3.3c-2.5,2.5-3.6,6.4-1.7,9.4
							c-2.8-1.4-6.7,0-8.3,2.8c-1.7,2.8-1.1,6.7,1.1,9.2c1.9,2.5,6.4,4.7,9.7,5s6.9,0.6,10-0.8"/><path fill="#fbbd9d" d="M1200.8,322.9L1200.8,322.9c-14.4,1.4-27-10-26.4-24.7c0.3-7.8,0.3-14.4,0.3-15.3
																c0,0-19.4-2.2-20.6-21.4c-1.1-19.2,0-63.6,0-63.6l0,0c22-10.6,47.8-8.6,67.8,5.3l3.1,1.9l-2.5,94.5
																C1222.2,311.5,1213,321.5,1200.8,322.9z"/><path fill="#aa6551" d="M1174.6,282.6c0,0,12.2,0.3,24.7-8.3c0,0-5.3,14.2-24.5,13.3L1174.6,282.6z"/><path fill="#fbbd9d" d="M1223.3,225.1c0.3-0.3,13.1-4.4,13.3,8.6c0.3,13.1-13.1,10.6-13.1,10.3
														C1223.5,243.7,1223.3,225.1,1223.3,225.1z"/><path fill="#fbbd9d" d="M1227.4,239c0,0,0.3,0.3,0.6,0.3c0.3,0.3,1.1,0.3,1.7,0c1.4-0.6,2.5-2.8,2.5-5.3
															c0-1.1-0.3-2.2-0.6-3.3c-0.6-0.8-1.1-1.7-1.7-1.7c-0.8-0.3-1.1,0.3-1.4,0.6c-0.3,0.3,0,0.6-0.3,0.6
															c0,0-0.3-0.3-0.3-0.8c0-0.3,0.3-0.6,0.6-0.8c0.3-0.3,0.8-0.3,1.4-0.3c1.1,0,1.9,1.1,2.5,1.9c0.6,1.1,0.8,2.2,0.8,3.6
															c0,2.8-1.4,5.3-3.3,5.8C1229.1,239.8,1228.3,239.6,1227.4,239C1227.4,239.6,1227.4,239,1227.4,239z"/><g><path fill="#263238" d="M1153.5,203.7c0,0,13.1,3.6,28.1-2.8c9.7-4.2,21.1-6.1,23.3-3.9c2.2,1.9,2.2,11.9,11.7,15.3
							c0,0-2.5,27.8,5,27.8c5.6,0,5.3-38.9,5.3-38.9l-17.8-10l-19.7-4.7l-18.6-1.1l-17.8,4.4L1153.5,203.7z"/></g></g><g><rect width="364" height="147.8" x="1080.2" y="411.6" fill="#fff"/><path fill="#058041" d="M1080.2,559.4c0,0,0-0.8,0-2.8c0-1.7,0-4.4,0-7.8c0-6.7,0-16.7,0-29.5c0-25.6,0-62.5,0.3-108.1
									l-0.3,0.3c92.5,0,221.4,0,364,0.3l0,0l-0.6-0.6c0,51.7,0,101.7,0,147.8l0.6-0.6c-105.6,0-196.4,0.3-260.9,0.3
									c-32.2,0-58.1,0-75.6,0.3c-8.9,0-15.6,0-20.3,0c-2.2,0-4.2,0-5.3,0C1080.7,559.4,1080.2,559.4,1080.2,559.4s0.6,0,1.7,0
									c1.1,0,2.8,0,5.3,0c4.7,0,11.4,0,20,0c17.5,0,43.3,0,75.6,0.3c64.7,0,155.6,0.3,261.2,0.3h0.6v-0.6c0-46.1,0-96.1,0-147.8
									V411h-0.6l0,0c-142.5,0-271.2,0-364,0.3h-0.3v0.3c0,45.8,0.3,82.8,0.3,108.4c0,12.8,0,22.5,0,29.5c0,3.3,0,5.8,0,7.5
									C1080.2,558.5,1080.2,559.4,1080.2,559.4z"/><path fill="#058041" d="M1443.9,431.6c0-0.3-81.4-0.6-181.7-0.6s-181.7,0.3-181.7,0.6c0,0.3,81.4,0.6,181.7,0.6
								S1443.9,431.8,1443.9,431.6z"/><path fill="#3db664" d="M1428.6,422.4c0,1.4,1.1,2.8,2.8,2.8c1.4,0,2.8-1.1,2.8-2.8s-1.1-2.8-2.8-2.8
								C1429.7,419.9,1428.6,421,1428.6,422.4z"/><path fill="#3db664" d="M1419.4,422.4c0,1.4,1.1,2.8,2.8,2.8c1.7,0,2.8-1.1,2.8-2.8s-1.1-2.8-2.8-2.8
								C1420.5,419.6,1419.4,421,1419.4,422.4z"/><path fill="#3db664" d="M1410.5,422.4c0,1.4,1.1,2.8,2.8,2.8c1.4,0,2.8-1.1,2.8-2.8s-1.1-2.8-2.8-2.8
								C1411.7,419.9,1410.5,421,1410.5,422.4z"/><rect width="87.8" height="87.8" x="1325.5" y="455.5" fill="#e7525c"/><rect width="87.8" height="87.8" x="1325.5" y="455.5" fill="#3db664"/><path fill="#058041" d="M1105.5,479.1c0,0.3,45.3,0.6,101.1,0.6c55.8,0,101.1-0.3,101.1-0.6c0-0.3-45.3-0.6-101.1-0.6
									C1150.8,478.5,1105.5,478.8,1105.5,479.1z"/><path fill="#058041" d="M1105.5,496.9c0,0.3,45.3,0.6,101.1,0.6c55.8,0,101.1-0.3,101.1-0.6c0-0.3-45.3-0.6-101.1-0.6
									C1150.8,496.3,1105.5,496.6,1105.5,496.9z"/><path fill="#058041" d="M1177.4,514.9c0,0,0.6,0,1.4,0c1.1,0,2.2,0,3.9,0c3.3,0,8.1,0,13.9,0.3c11.9,0,28.1,0,45.8,0.3
									c17.8,0,34.2,0,46.1-0.3c5.8,0,10.6,0,13.9-0.3c1.7,0,2.8,0,3.9,0c0.8,0,1.4,0,1.4,0s-0.6,0-1.4,0c-1.1,0-2.2,0-3.9,0
									c-3.3,0-8.1,0-13.9-0.3c-11.9,0-28.1,0-46.1-0.3c-17.8,0-34.2,0-45.8,0.3c-5.8,0-10.6,0-13.9,0.3c-1.7,0-2.8,0-3.9,0
									C1178,514.6,1177.4,514.9,1177.4,514.9z"/><g><path fill="#fde8ae" d="M1257.4,306.8c0,0,17.8,9.2,25.6,42c3.9,16.1,20,68.9,22.5,98.4c1.7,18.3-18.3,35.3-36.4,38.1
							c-0.3,0-0.6,0-0.8,0c-37.8,7.5-74.2-2.8-74.2-2.8l7.5-34.5c0,0,48.3-9.4,54.5-12.2l-18.6-73.9
							C1237.4,361.8,1223.3,310.1,1257.4,306.8z"/></g></g><g><path fill="#fbbd9d" d="M1199.7,451l-13.9-1.7c0,0-5.8-9.4-9.4-12.8c-3.6-3.3-23.1-12.5-23.1-12.5s-2.8,3.3,0,6.9
						c1.4,1.7,10.6,6.7,10.6,6.7l0,0c1.1,3.9-2.2,7.5-6.1,6.7c-5.6-1.1-12.2-2.2-13.1-2.2c-1.1,0-6.7-5.3-10.8-9.4
						c-2.5-2.5-6.9,0-5.8,3.3c0,0.3,0.3,0.6,0.6,0.8c0,0-6.1-0.3-0.6,7.8c0,0-1.1,7.5,3.1,10.8c0,0,1.9,8.9,4.7,11.9
						c2.8,3.1,30.3,8.9,30.3,8.9l28.6,2.8L1199.7,451z"/></g><g><path fill="#4854a3" d="M868.5,943.4H504.7c-30,0-54.2-24.2-54.2-54.2V85.6c0-30,24.2-54.2,54.2-54.2h363.7
					c30,0,54.2,24.2,54.2,54.2v803.5C922.6,919.2,898.5,943.4,868.5,943.4z"/><path fill="#fff" d="M866.5,930.6H507c-26.1,0-47.5-21.1-47.5-47.5V87c0-26.1,21.1-47.5,47.5-47.5h359.5
					c26.1,0,47.5,21.1,47.5,47.5v796C913.7,909.2,892.6,930.6,866.5,930.6z"/><path fill="#9bc6ea" d="M894,87.6v790.8c0,18.6-15,33.6-33.6,33.6H513.1c-18.6,0-33.6-15-33.6-33.6V87.6c0-18.6,15-33.6,33.6-33.6
					h58.1c3.3,0,6.1,1.9,7.5,4.7l6.1,12.2c2.8,5.6,8.6,9.2,15,9.2H774c6.4,0,11.9-3.6,15-9.2l6.1-12.2c1.4-2.8,4.4-4.7,7.5-4.7h58.1
					C879,54,894,69,894,87.6z"/><path fill="#dee1f1" d="M759.8,65.9H619.5c-3.3,0-5.8-2.8-5.8-5.8l0,0c0-3.3,2.8-5.8,5.8-5.8h140.3c3.3,0,5.8,2.8,5.8,5.8l0,0
					C765.6,63.1,763.1,65.9,759.8,65.9z"/><path fill="none" stroke="#6c89c5" stroke-dasharray="7.883" stroke-linecap="round" stroke-linejoin="round" stroke-miterlimit="10" stroke-width="2.779" d="M839.8,884.5H525.6c-11.7,0-21.4-9.4-21.4-21.4V750.8c0-11.7,9.4-21.4,21.4-21.4h314.3
				c11.7,0,21.4,9.4,21.4,21.4v112.3C861,875,851.5,884.5,839.8,884.5z"/><path fill="#fff" d="M822.9,506.3h-7.5c-0.8,0-1.4-0.6-1.4-1.4s0.6-1.4,1.4-1.4h7.5c2.2,0,4.4-0.6,6.4-1.4
					c0.6-0.3,1.4,0,1.7,0.6s0,1.4-0.6,1.7C828.2,505.7,825.7,506.3,822.9,506.3z M807.9,506.3h-7.5c-0.8,0-1.4-0.6-1.4-1.4
					s0.6-1.4,1.4-1.4h7.5c0.8,0,1.4,0.6,1.4,1.4C809.3,505.5,808.7,506.3,807.9,506.3z M792.9,506.3h-7.5c-0.8,0-1.4-0.6-1.4-1.4
					s0.6-1.4,1.4-1.4h7.5c0.8,0,1.4,0.6,1.4,1.4C794.3,505.5,793.7,506.3,792.9,506.3z M777.9,506.3h-7.5c-0.8,0-1.4-0.6-1.4-1.4
					s0.6-1.4,1.4-1.4h7.5c0.8,0,1.4,0.6,1.4,1.4C779.3,505.5,778.7,506.3,777.9,506.3z M762.9,506.3h-7.5c-0.8,0-1.4-0.6-1.4-1.4
					s0.6-1.4,1.4-1.4h7.5c0.8,0,1.4,0.6,1.4,1.4C764.3,505.5,763.4,506.3,762.9,506.3z M747.9,506.3h-7.5c-0.8,0-1.4-0.6-1.4-1.4
					s0.6-1.4,1.4-1.4h7.5c0.8,0,1.4,0.6,1.4,1.4C749,505.5,748.4,506.3,747.9,506.3z M732.6,506.3h-7.5c-0.8,0-1.4-0.6-1.4-1.4
					s0.6-1.4,1.4-1.4h7.5c0.8,0,1.4,0.6,1.4,1.4C734,505.5,733.4,506.3,732.6,506.3z M717.6,506.3h-7.5c-0.8,0-1.4-0.6-1.4-1.4
					s0.6-1.4,1.4-1.4h7.5c0.8,0,1.4,0.6,1.4,1.4C719,505.5,718.4,506.3,717.6,506.3z M702.6,506.3h-7.5c-0.8,0-1.4-0.6-1.4-1.4
					s0.6-1.4,1.4-1.4h7.5c0.8,0,1.4,0.6,1.4,1.4C704,505.5,703.4,506.3,702.6,506.3z M687.6,506.3h-7.5c-0.8,0-1.4-0.6-1.4-1.4
					s0.6-1.4,1.4-1.4h7.5c0.8,0,1.4,0.6,1.4,1.4C689,505.5,688.4,506.3,687.6,506.3z M672.6,506.3h-4.4c-1.1,0-2.2,0-3.3-0.3
					c-0.8,0-1.1-0.8-1.1-1.7c0-0.8,0.8-1.1,1.7-1.1c0.8,0.3,1.9,0.3,2.8,0.3h4.4c0.8,0,1.4,0.6,1.4,1.4
					C674,505.5,673.1,506.3,672.6,506.3z M658.1,503c-0.3,0-0.6,0-0.8-0.3c-2.2-1.7-3.9-3.9-5-6.4c-0.3-0.6,0-1.4,0.6-1.7
					c0.6-0.3,1.4,0,1.7,0.6c1.1,1.9,2.5,3.9,4.2,5.3c0.6,0.6,0.6,1.4,0.3,1.9C659,502.7,658.7,503,658.1,503z M835.7,499.9
					c-0.3,0-0.6,0-0.8-0.3c-0.6-0.6-0.6-1.4-0.3-1.9c1.4-1.9,2.5-3.9,2.8-6.1c0-0.8,0.8-1.1,1.7-1.1c0.8,0,1.1,0.8,1.1,1.7
					c-0.6,2.8-1.7,5.3-3.3,7.2C836.5,499.9,835.9,499.9,835.7,499.9z M652,489.6c-0.8,0-1.4-0.6-1.4-1.4v-7.5c0-0.8,0.6-1.4,1.4-1.4
					s1.4,0.6,1.4,1.4v7.5C653.4,489.1,652.8,489.6,652,489.6z M839,485.7c-0.8,0-1.4-0.6-1.4-1.4v-7.5c0-0.8,0.6-1.4,1.4-1.4
					c0.8,0,1.4,0.6,1.4,1.4v7.5C840.4,485.2,839.8,485.7,839,485.7z M652,474.6c-0.8,0-1.4-0.6-1.4-1.4v-7.5c0-0.8,0.6-1.4,1.4-1.4
					s1.4,0.6,1.4,1.4v7.5C653.4,474.1,652.8,474.6,652,474.6z M839,470.7c-0.8,0-1.4-0.6-1.4-1.4v-7.5c0-0.8,0.6-1.4,1.4-1.4
					c0.8,0,1.4,0.6,1.4,1.4v7.5C840.4,469.9,839.8,470.7,839,470.7z M652,459.6c-0.8,0-1.4-0.6-1.4-1.4v-7.5c0-0.8,0.6-1.4,1.4-1.4
					s1.4,0.6,1.4,1.4v7.5C653.4,459.1,652.8,459.6,652,459.6z M839,455.5c-0.8,0-1.4-0.6-1.4-1.4v-7.5c0-0.8,0.6-1.4,1.4-1.4
					c0.8,0,1.4,0.6,1.4,1.4v7.5C840.4,454.9,839.8,455.5,839,455.5z M652,444.6c-0.8,0-1.4-0.6-1.4-1.4v-7.5c0-0.8,0.6-1.4,1.4-1.4
					s1.4,0.6,1.4,1.4v7.5C653.4,444.1,652.8,444.6,652,444.6z M839,440.5c-0.8,0-1.4-0.6-1.4-1.4v-7.5c0-0.8,0.6-1.4,1.4-1.4
					c0.8,0,1.4,0.6,1.4,1.4v7.5C840.4,439.9,839.8,440.5,839,440.5z M652,429.6c-0.8,0-1.4-0.6-1.4-1.4v-7.5c0-0.8,0.6-1.4,1.4-1.4
					s1.4,0.6,1.4,1.4v7.5C653.4,429.1,652.8,429.6,652,429.6z M839,425.4c-0.8,0-1.4-0.6-1.4-1.4v-7.5c0-0.8,0.6-1.4,1.4-1.4
					c0.8,0,1.4,0.6,1.4,1.4v7.5C840.4,424.9,839.8,425.4,839,425.4z M652,414.6c-0.8,0-1.4-0.6-1.4-1.4v-0.8c0-2.5,0.6-4.7,1.4-6.9
					c0.3-0.6,1.1-1.1,1.7-0.6c0.6,0.3,1.1,1.1,0.6,1.7c-0.8,1.9-1.1,3.9-1.1,5.8v0.8C653.4,413.8,652.8,414.6,652,414.6z
					 M838.7,410.4c-0.6,0-1.1-0.6-1.4-1.1c-0.6-2.2-1.4-4.4-2.8-6.1c-0.6-0.6-0.3-1.4,0.3-1.9c0.6-0.6,1.4-0.3,1.9,0.3
					c1.7,2.2,2.8,4.7,3.3,7.2C840.1,409.6,839.6,410.2,838.7,410.4C839,410.4,838.7,410.4,838.7,410.4z M657.8,401.3
					c-0.3,0-0.8-0.3-1.1-0.6c-0.6-0.6-0.3-1.4,0.3-1.9c2.2-1.7,4.7-3.1,7.2-3.6c0.8-0.3,1.4,0.3,1.7,1.1c0.3,0.8-0.3,1.4-1.1,1.7
					c-2.2,0.6-4.4,1.7-6.1,3.1C658.4,401,658.1,401.3,657.8,401.3z M829.8,399.1c-0.3,0-0.3,0-0.6,0c-1.9-0.8-4.2-1.4-6.1-1.4h-0.6
					c-0.8,0-1.4-0.6-1.4-1.4c0-0.8,0.6-1.4,1.4-1.4h0.6c2.5,0,5,0.6,7.2,1.7c0.6,0.3,0.8,1.1,0.6,1.7
					C830.7,398.8,830.4,399.1,829.8,399.1z M814.8,397.7h-7.5c-0.8,0-1.4-0.6-1.4-1.4c0-0.8,0.6-1.4,1.4-1.4h7.5
					c0.8,0,1.4,0.6,1.4,1.4C816.2,396.8,815.7,397.7,814.8,397.7z M799.8,397.7h-7.5c-0.8,0-1.4-0.6-1.4-1.4c0-0.8,0.6-1.4,1.4-1.4
					h7.5c0.8,0,1.4,0.6,1.4,1.4C801.2,396.8,800.7,397.7,799.8,397.7z M784.8,397.7h-7.5c-0.8,0-1.4-0.6-1.4-1.4
					c0-0.8,0.6-1.4,1.4-1.4h7.5c0.8,0,1.4,0.6,1.4,1.4C786.2,396.8,785.7,397.7,784.8,397.7z M769.8,397.7h-7.5
					c-0.8,0-1.4-0.6-1.4-1.4c0-0.8,0.6-1.4,1.4-1.4h7.5c0.8,0,1.4,0.6,1.4,1.4C771.2,396.8,770.6,397.7,769.8,397.7z M754.8,397.7
					h-7.5c-0.8,0-1.4-0.6-1.4-1.4c0-0.8,0.6-1.4,1.4-1.4h7.5c0.8,0,1.4,0.6,1.4,1.4C756.2,396.8,755.4,397.7,754.8,397.7z
					 M739.8,397.7h-7.5c-0.8,0-1.4-0.6-1.4-1.4c0-0.8,0.6-1.4,1.4-1.4h7.5c0.8,0,1.4,0.6,1.4,1.4
					C740.9,396.8,740.4,397.7,739.8,397.7z M724.8,397.7h-7.5c-0.8,0-1.4-0.6-1.4-1.4c0-0.8,0.6-1.4,1.4-1.4h7.5
					c0.8,0,1.4,0.6,1.4,1.4C725.9,396.8,725.4,397.7,724.8,397.7z M709.5,397.7H702c-0.8,0-1.4-0.6-1.4-1.4c0-0.8,0.6-1.4,1.4-1.4
					h7.5c0.8,0,1.4,0.6,1.4,1.4C710.9,396.8,710.4,397.7,709.5,397.7z M694.5,397.7H687c-0.8,0-1.4-0.6-1.4-1.4
					c0-0.8,0.6-1.4,1.4-1.4h7.5c0.8,0,1.4,0.6,1.4,1.4C695.9,396.8,695.4,397.7,694.5,397.7z M679.5,397.7H672
					c-0.8,0-1.4-0.6-1.4-1.4c0-0.8,0.6-1.4,1.4-1.4h7.5c0.8,0,1.4,0.6,1.4,1.4C680.9,396.8,680.3,397.7,679.5,397.7z"/><path fill="#c1def0" d="M861,536v135c0,10.6-8.6,19.2-19.2,19.2H523.4c-10.6,0-19.2-8.6-19.2-19.2V536c0-10.6,8.6-19.2,19.2-19.2
					h318.7C852.6,516.9,861,525.5,861,536z"/><path fill="#fff" d="M628.1,676.1h-95c-6.9,0-12.2-5.6-12.2-12.2v-95c0-6.9,5.6-12.2,12.2-12.2h95c6.9,0,12.2,5.6,12.2,12.2v95
					C640.3,670.5,634.8,676.1,628.1,676.1z"/><path fill="#fff" d="M738.7,571.6h-82.8c-2.2,0-4.2-1.9-4.2-4.2l0,0c0-2.2,1.9-4.2,4.2-4.2h82.8c2.2,0,4.2,1.9,4.2,4.2l0,0
						C742.9,569.7,740.9,571.6,738.7,571.6z"/><path fill="#fff" d="M701.2,587.7h-45c-2.2,0-4.2-1.9-4.2-4.2l0,0c0-2.2,1.9-4.2,4.2-4.2h45c2.2,0,4.2,1.9,4.2,4.2l0,0
						C705.1,586,703.4,587.7,701.2,587.7z"/><path fill="#fff" d="M839.6,587.7H717.9c-2.2,0-4.2-1.9-4.2-4.2l0,0c0-2.2,1.9-4.2,4.2-4.2h121.7c2.2,0,4.2,1.9,4.2,4.2l0,0
						C843.4,586,841.8,587.7,839.6,587.7z"/><path fill="#fff" d="M725.6,604.1h-69.7c-2.2,0-4.2-1.9-4.2-4.2l0,0c0-2.2,1.9-4.2,4.2-4.2h69.7c2.2,0,4.2,1.9,4.2,4.2l0,0
						C729.8,602.2,727.9,604.1,725.6,604.1z"/><path fill="#fff" d="M784.8,604.1h-43.9c-2.2,0-4.2-1.9-4.2-4.2l0,0c0-2.2,1.9-4.2,4.2-4.2h43.9c2.2,0,4.2,1.9,4.2,4.2l0,0
						C789,602.2,787,604.1,784.8,604.1z"/><path fill="#fff" d="M839.6,604.1h-40.3c-2.2,0-4.2-1.9-4.2-4.2l0,0c0-2.2,1.9-4.2,4.2-4.2h40.3c2.2,0,4.2,1.9,4.2,4.2l0,0
						C843.4,602.2,841.8,604.1,839.6,604.1z"/><path fill="#fff" d="M839.6,620.2H656.2c-2.2,0-4.2-1.9-4.2-4.2l0,0c0-2.2,1.9-4.2,4.2-4.2h183.4c2.2,0,4.2,1.9,4.2,4.2l0,0
						C843.4,618.6,841.8,620.2,839.6,620.2z"/><path fill="#fff" d="M757,636.6H656.2c-2.2,0-4.2-1.9-4.2-4.2l0,0c0-2.2,1.9-4.2,4.2-4.2H757c2.2,0,4.2,1.9,4.2,4.2l0,0
						C760.9,634.7,759.3,636.6,757,636.6z"/><path fill="#fff" d="M839.6,636.6h-66.1c-2.2,0-4.2-1.9-4.2-4.2l0,0c0-2.2,1.9-4.2,4.2-4.2h66.1c2.2,0,4.2,1.9,4.2,4.2l0,0
						C843.4,634.7,841.8,636.6,839.6,636.6z"/><path fill="#fff" d="M715.4,652.7h-59.2c-2.2,0-4.2-1.9-4.2-4.2l0,0c0-2.2,1.9-4.2,4.2-4.2h59.2c2.2,0,4.2,1.9,4.2,4.2l0,0
						C719.5,651.1,717.6,652.7,715.4,652.7z"/><path fill="#fff" d="M790.7,652.7h-59.2c-2.2,0-4.2-1.9-4.2-4.2l0,0c0-2.2,1.9-4.2,4.2-4.2h59.2c2.2,0,4.2,1.9,4.2,4.2l0,0
						C794.8,651.1,792.9,652.7,790.7,652.7z"/><path fill="#fff" d="M839.6,652.7h-34.5c-2.2,0-4.2-1.9-4.2-4.2l0,0c0-2.2,1.9-4.2,4.2-4.2h34.5c2.2,0,4.2,1.9,4.2,4.2l0,0
						C843.4,651.1,841.8,652.7,839.6,652.7z"/><path fill="#fff" d="M738.7,669.1h-82.8c-2.2,0-4.2-1.9-4.2-4.2l0,0c0-2.2,1.9-4.2,4.2-4.2h82.8c2.2,0,4.2,1.9,4.2,4.2l0,0
						C742.9,667.2,740.9,669.1,738.7,669.1z"/><path fill="#fff" d="M839.6,571.6h-82.8c-2.2,0-4.2-1.9-4.2-4.2l0,0c0-2.2,1.9-4.2,4.2-4.2h82.8c2.2,0,4.2,1.9,4.2,4.2l0,0
						C843.4,569.7,841.8,571.6,839.6,571.6z"/><path fill="#658fc9" d="M861,536v5.6H504.2V536c0-10.6,8.6-19.2,19.2-19.2h318.7C852.6,516.9,861,525.5,861,536z"/><path fill="#dee1f1" d="M793.7,529.6c0,2.5-1.9,4.4-4.4,4.4c-2.5,0-4.4-1.9-4.4-4.4c0-2.5,1.9-4.4,4.4-4.4
							C791.8,525.2,793.7,527.4,793.7,529.6z"/><path fill="#dee1f1" d="M816.5,529.6c0,2.5-1.9,4.4-4.4,4.4c-2.5,0-4.4-1.9-4.4-4.4c0-2.5,1.9-4.4,4.4-4.4
							C814.6,525.2,816.5,527.4,816.5,529.6z"/><path fill="#dee1f1" d="M839,529.6c0,2.5-1.9,4.4-4.4,4.4c-2.5,0-4.4-1.9-4.4-4.4c0-2.5,1.9-4.4,4.4-4.4
							C837.1,525.2,839,527.4,839,529.6z"/><g><path fill="#fff" d="M614.8,506h-70.6c-11.1,0-20.3-9.2-20.3-20.3v-70.6c0-11.1,9.2-20.3,20.3-20.3h70.6
						c11.1,0,20.3,9.2,20.3,20.3v70.6C634.8,497.1,625.9,506,614.8,506z M544.2,397.4c-9.7,0-17.8,8.1-17.8,17.8v70.6
						c0,9.7,8.1,17.8,17.8,17.8h70.6c9.7,0,17.8-8.1,17.8-17.8v-70.6c0-9.7-8.1-17.8-17.8-17.8H544.2z"/><path fill="#fff" d="M562.5,468.5c-0.6,0-1.1-0.3-1.7-0.6L545,452.1c-0.3-0.3-0.6-1.1-0.6-1.7c0-0.6,0.3-1.1,0.6-1.7
							l15.6-15.6c0.8-0.8,2.2-0.8,3.1,0c0.8,0.8,0.8,2.2,0,3.1l-14.2,14.2l14.2,14.2c0.8,0.8,0.8,2.2,0,3.1
							C563.7,468.2,563.1,468.5,562.5,468.5z"/><path fill="#fff" d="M596.2,468.5c-0.6,0-1.1-0.3-1.7-0.6c-0.8-0.8-0.8-2.2,0-3.1l14.2-14.2l-14.2-14.2
							c-0.8-0.8-0.8-2.2,0-3.1s2.2-0.8,3.1,0l15.6,15.6c0.8,0.8,0.8,2.2,0,3.1L597.3,468C597.3,468.2,596.7,468.5,596.2,468.5z"/><path fill="#fff" d="M572,468.5c-0.3,0-0.6,0-0.8-0.3c-1.1-0.6-1.7-1.9-1.1-3.1l14.7-31.4c0.6-1.1,1.9-1.7,3.1-1.1
							c1.1,0.6,1.7,1.9,1.1,3.1l-14.7,31.4C573.7,468,572.8,468.5,572,468.5z"/></g><g><path fill="#658fc9" d="M861,131.5v220.9c0,11.9-9.7,21.7-21.7,21.7H525.9c-11.9,0-21.7-9.7-21.7-21.7V131.5
					c0-11.9,9.7-21.7,21.7-21.7h313.4C851.2,109.5,861,119.3,861,131.5z"/><circle cx="788.7" cy="179.6" r="51.7" fill="#fff"/><path fill="#fff" d="M714,373.8H525.9c-11.9,0-21.7-9.7-21.7-21.7v-34.7l82.2-142.5c4.2-7.5,15-7.5,19.4,0l62.2,107.5l46.1,80
					C716.5,366.3,715.9,370.7,714,373.8z"/><path fill="#fff" d="M795.1,373.8H615.3l52.8-91.4l28.3-49.2c3.9-6.7,13.6-6.7,17.5,0L795.1,373.8z"/></g></g><g><path fill="#3db664" d="M1090.7,297.1H834.3c-14.2,0-25.6-11.4-25.6-25.6l0,0c0-14.2,11.4-25.6,25.6-25.6h256.5
				c14.2,0,25.6,11.4,25.6,25.6l0,0C1116.3,285.7,1104.9,297.1,1090.7,297.1z"/><path fill="#f0f3f9" d="M1073.2,285.7c-8.6,0-15.8-7.2-15.8-15.8s7.2-15.8,15.8-15.8s15.8,7.2,15.8,15.8
						S1082.1,285.7,1073.2,285.7z M1073.2,258.5c-6.4,0-11.4,5-11.4,11.4c0,6.4,5,11.4,11.4,11.4s11.4-5,11.4-11.4
						C1084.6,263.5,1079.6,258.5,1073.2,258.5z"/><path fill="#f0f3f9" d="M1090.5,289.3c-0.6,0-1.1-0.3-1.7-0.6l-7.5-7.5c-0.8-0.8-0.8-2.2,0-3.1c0.8-0.8,2.2-0.8,3.1,0l7.5,7.5
						c0.8,0.8,0.8,2.2,0,3.1C1091.6,289,1091,289.3,1090.5,289.3z"/></g><g><path fill="#ffe47c" d="M684,993.9h-66.4c-10.8,0-19.4-8.9-19.4-19.4v-66.4c0-10.8,8.9-19.4,19.4-19.4H684
				c10.8,0,19.4,8.9,19.4,19.4v66.4C703.4,985,694.8,993.9,684,993.9z"/><path fill="#fff" d="M638.4,921.1l30.3,17.5c1.9,1.1,1.9,3.9,0,4.7l-30.3,17.5c-1.9,1.1-4.2-0.3-4.2-2.5v-35
				C633.9,921.4,636.4,920,638.4,921.1z"/></g><g><path fill="#ffe47c" d="M1052.9,718h-72.5c-11.9,0-21.4-9.4-21.4-21.4v-72.5c0-11.9,9.4-21.4,21.4-21.4h72.5
				c11.9,0,21.4,9.4,21.4,21.4v72.5C1074.3,708.6,1064.9,718,1052.9,718z"/><path fill="#fff" d="M1030.4,631.1c0,7.8-6.1,13.9-13.9,13.9s-13.9-6.1-13.9-13.9c0-7.8,6.1-13.9,13.9-13.9
				C1024.3,617.4,1030.4,623.6,1030.4,631.1z"/><path fill="#fff" d="M1045.7,678v20.6c0,1.9-1.4,3.3-3.3,3.3h-51.1c-1.9,0-3.3-1.4-3.3-3.3V678c0-15.8,12.8-28.9,28.9-28.9l0,0
				C1032.7,649.1,1045.7,662.2,1045.7,678z"/></g><g><path fill="#3db664" d="M994.3,326.8h-54.2c-2.2,0-4.2-1.9-4.2-4.2l0,0c0-2.2,1.9-4.2,4.2-4.2h54.2c2.2,0,4.2,1.9,4.2,4.2l0,0
				C998.2,324.9,996.5,326.8,994.3,326.8z"/><path fill="#3db664" d="M1048.5,326.8h-39.2c-2.2,0-4.2-1.9-4.2-4.2l0,0c0-2.2,1.9-4.2,4.2-4.2h39.2c2.2,0,4.2,1.9,4.2,4.2l0,0
				C1052.4,324.9,1050.7,326.8,1048.5,326.8z"/><path fill="#3db664" d="M962.9,344.6h-23.1c-2.2,0-4.2-1.9-4.2-4.2l0,0c0-2.2,1.9-4.2,4.2-4.2h23.1c2.2,0,4.2,1.9,4.2,4.2l0,0
				C967.1,342.9,965.4,344.6,962.9,344.6z"/><path fill="#3db664" d="M1048.5,344.6h-71.7c-2.2,0-4.2-1.9-4.2-4.2l0,0c0-2.2,1.9-4.2,4.2-4.2h71.7c2.2,0,4.2,1.9,4.2,4.2l0,0
				C1052.4,342.9,1050.7,344.6,1048.5,344.6z"/><path fill="#3db664" d="M1011.5,362.4h-71.4c-2.2,0-4.2-1.9-4.2-4.2l0,0c0-2.2,1.9-4.2,4.2-4.2h71.4c2.2,0,4.2,1.9,4.2,4.2l0,0
				C1015.4,360.7,1013.8,362.4,1011.5,362.4z"/><path fill="#3db664" d="M1048.5,362.4h-23.1c-2.2,0-4.2-1.9-4.2-4.2l0,0c0-2.2,1.9-4.2,4.2-4.2h23.1c2.2,0,4.2,1.9,4.2,4.2l0,0
				C1052.4,360.7,1050.7,362.4,1048.5,362.4z"/></g><g><path fill="#3db664" d="M411.1,630.5H221.1c-5.3,0-9.7-4.4-9.7-9.7v-96.4c0-5.3,4.4-9.7,9.7-9.7h190.1c5.3,0,9.7,4.4,9.7,9.7v96.4
				C420.8,626.1,416.4,630.5,411.1,630.5z"/><line x1="220.2" x2="411.9" y1="530.5" y2="530.5" fill="none" stroke="#fff" stroke-linecap="round" stroke-miterlimit="10" stroke-width="2.488"/><circle cx="406.9" cy="522.4" r="2.2" fill="#fff"/><circle cx="394.7" cy="522.4" r="2.2" fill="#fff"/><circle cx="382.8" cy="522.4" r="2.2" fill="#fff"/><path fill="#fff" d="M256.1,546h-32.5c-1.7,0-3.3-1.4-3.3-3.3l0,0c0-1.7,1.4-3.3,3.3-3.3h32.5c1.7,0,3.3,1.4,3.3,3.3l0,0
						C259.1,544.4,257.7,546,256.1,546z"/><path fill="#fff" d="M256.1,560.8h-32.5c-1.7,0-3.3-1.4-3.3-3.3l0,0c0-1.7,1.4-3.3,3.3-3.3h32.5c1.7,0,3.3,1.4,3.3,3.3l0,0
						C259.1,559.4,257.7,560.8,256.1,560.8z"/><path fill="#fff" d="M256.1,575.5h-32.5c-1.7,0-3.3-1.4-3.3-3.3l0,0c0-1.7,1.4-3.3,3.3-3.3h32.5c1.7,0,3.3,1.4,3.3,3.3l0,0
						C259.1,574.1,257.7,575.5,256.1,575.5z"/><path fill="#fff" d="M256.1,590.2h-32.5c-1.7,0-3.3-1.4-3.3-3.3l0,0c0-1.7,1.4-3.3,3.3-3.3h32.5c1.7,0,3.3,1.4,3.3,3.3l0,0
						C259.1,588.8,257.7,590.2,256.1,590.2z"/><path fill="#fff" d="M256.1,605.2h-32.5c-1.7,0-3.3-1.4-3.3-3.3l0,0c0-1.7,1.4-3.3,3.3-3.3h32.5c1.7,0,3.3,1.4,3.3,3.3l0,0
						C259.1,603.8,257.7,605.2,256.1,605.2z"/><path fill="#fff" d="M256.1,619.9h-32.5c-1.7,0-3.3-1.4-3.3-3.3l0,0c0-1.7,1.4-3.3,3.3-3.3h32.5c1.7,0,3.3,1.4,3.3,3.3l0,0
						C259.1,618.6,257.7,619.9,256.1,619.9z"/><path fill="#fff" d="M408.6,546h-140c-1.7,0-3.3-1.4-3.3-3.3l0,0c0-1.7,1.4-3.3,3.3-3.3h140c1.7,0,3.3,1.4,3.3,3.3l0,0
						C411.9,544.4,410.6,546,408.6,546z"/><path fill="#fff" d="M408.6,560.8h-140c-1.7,0-3.3-1.4-3.3-3.3l0,0c0-1.7,1.4-3.3,3.3-3.3h140c1.7,0,3.3,1.4,3.3,3.3l0,0
						C411.9,559.4,410.6,560.8,408.6,560.8z"/><path fill="#fff" d="M408.6,575.5h-140c-1.7,0-3.3-1.4-3.3-3.3l0,0c0-1.7,1.4-3.3,3.3-3.3h140c1.7,0,3.3,1.4,3.3,3.3l0,0
						C411.9,574.1,410.6,575.5,408.6,575.5z"/><path fill="#fff" d="M408.6,590.2h-140c-1.7,0-3.3-1.4-3.3-3.3l0,0c0-1.7,1.4-3.3,3.3-3.3h140c1.7,0,3.3,1.4,3.3,3.3l0,0
						C411.9,588.8,410.6,590.2,408.6,590.2z"/><path fill="#fff" d="M408.6,605.2h-140c-1.7,0-3.3-1.4-3.3-3.3l0,0c0-1.7,1.4-3.3,3.3-3.3h140c1.7,0,3.3,1.4,3.3,3.3l0,0
						C411.9,603.8,410.6,605.2,408.6,605.2z"/><path fill="#fff" d="M408.6,619.9h-140c-1.7,0-3.3-1.4-3.3-3.3l0,0c0-1.7,1.4-3.3,3.3-3.3h140c1.7,0,3.3,1.4,3.3,3.3l0,0
						C411.9,618.6,410.6,619.9,408.6,619.9z"/></g><g><circle cx="141.6" cy="400.2" r="86.1" fill="#4854a3"/><circle cx="141.6" cy="399.9" r="75" fill="#658fc9"/><path fill="#fff" d="M148.5,399.9c0,3.9-3.1,6.9-6.9,6.9c-3.9,0-6.9-3.1-6.9-6.9s3.1-6.9,6.9-6.9
				C145.5,393.2,148.5,396.3,148.5,399.9z"/><path fill="#fff" d="M141,398.8L141,398.8c-1.1,0.6-2.2,0.3-2.8-0.8l-22-39.7c-0.6-1.1-0.3-2.2,0.8-2.8l0,0
				c1.1-0.6,2.2-0.3,2.8,0.8l22,39.7C142.4,396.8,141.9,398.2,141,398.8z"/><path fill="#fff" d="M142.7,401L142.7,401c0.8-0.8,2.2-0.8,3.1,0l19.2,19.2c0.8,0.8,0.8,2.2,0,3.1l0,0c-0.8,0.8-2.2,0.8-3.1,0
				l-19.2-19.2C141.9,403.2,141.9,401.8,142.7,401z"/><line x1="142.1" x2="142.1" y1="340.1" y2="331.3" fill="none" stroke="#fff" stroke-linecap="round" stroke-miterlimit="10" stroke-width="5.557"/><line x1="201.6" x2="210.2" y1="400.4" y2="400.4" fill="none" stroke="#fff" stroke-linecap="round" stroke-miterlimit="10" stroke-width="5.557"/><line x1="141.3" x2="141.3" y1="459.9" y2="468.5" fill="none" stroke="#fff" stroke-linecap="round" stroke-miterlimit="10" stroke-width="5.557"/><line x1="81.6" x2="73" y1="399.6" y2="399.6" fill="none" stroke="#fff" stroke-linecap="round" stroke-miterlimit="10" stroke-width="5.557"/><g opacity=".5"><path fill="#4854a3" d="M112.1,349c-0.6,0-0.8-0.3-1.1-0.6l-4.4-7.5c-0.3-0.6-0.3-1.4,0.6-1.9c0.6-0.3,1.4-0.3,1.9,0.6l4.4,7.5
						c0.3,0.6,0.3,1.4-0.6,1.9C112.4,349,112.4,349,112.1,349z"/><path fill="#4854a3" d="M193.8,371.8c-0.6,0-0.8-0.3-1.1-0.6c-0.3-0.6-0.3-1.4,0.6-1.9l7.5-4.4c0.6-0.3,1.4-0.3,1.9,0.6
						c0.3,0.6,0.3,1.4-0.6,1.9l-7.5,4.4C194.4,371.5,194.1,371.8,193.8,371.8z"/><path fill="#4854a3" d="M175.5,461c-0.6,0-0.8-0.3-1.1-0.6l-4.4-7.5c-0.3-0.6-0.3-1.4,0.6-1.9c0.6-0.3,1.4-0.3,1.9,0.6l4.4,7.5
						c0.3,0.6,0.3,1.4-0.6,1.9C176,461,175.8,461,175.5,461z"/><path fill="#4854a3" d="M82.1,435.2c-0.6,0-0.8-0.3-1.1-0.6c-0.3-0.6-0.3-1.4,0.6-1.9l7.5-4.4c0.6-0.3,1.4-0.3,1.9,0.6
						c0.3,0.6,0.3,1.4-0.6,1.9l-7.5,4.4C82.4,435.2,82.1,435.2,82.1,435.2z"/></g><g opacity=".5"><path fill="#4854a3" d="M89.9,371c-0.3,0-0.6,0-0.6-0.3l-7.5-4.4c-0.6-0.3-0.8-1.1-0.6-1.9c0.3-0.6,1.1-0.8,1.9-0.6l7.5,4.4
						c0.6,0.3,0.8,1.1,0.6,1.9C90.7,370.7,90.5,371,89.9,371z"/><path fill="#4854a3" d="M172.2,349.6c-0.3,0-0.6,0-0.6-0.3c-0.6-0.3-0.8-1.1-0.6-1.9l4.4-7.5c0.3-0.6,1.1-0.8,1.9-0.6
						c0.6,0.3,0.8,1.1,0.6,1.9l-4.4,7.5C173,349.3,172.4,349.6,172.2,349.6z"/><path fill="#4854a3" d="M200.8,436c-0.3,0-0.6,0-0.6-0.3l-7.5-4.4c-0.6-0.3-0.8-1.1-0.6-1.9c0.3-0.6,1.1-0.8,1.9-0.6l7.5,4.4
						c0.6,0.3,0.8,1.1,0.6,1.9C201.9,435.7,201.3,436,200.8,436z"/><path fill="#4854a3" d="M106.9,460.5c-0.3,0-0.6,0-0.6-0.3c-0.6-0.3-0.8-1.1-0.6-1.9l4.4-7.5c0.3-0.6,1.1-0.8,1.9-0.6
						c0.6,0.3,0.8,1.1,0.6,1.9l-4.4,7.5C108,460.2,107.4,460.5,106.9,460.5z"/></g></g><g><path fill="#658fc9" d="M358.9,269.3H252.5c-10.8,0-19.4-8.6-19.4-19.4V143.2c0-10.8,8.6-19.4,19.4-19.4h106.4
				c10.8,0,19.4,8.6,19.4,19.4v106.4C378.3,260.4,369.4,269.3,358.9,269.3z"/><path fill="#fff" d="M330.8,179.8H330v-8.3c0-13.6-11.1-24.7-24.7-24.7c-13.6,0-24.7,11.1-24.7,24.7v8.3h-0.3
						c-3.9,0-6.9,3.1-6.9,6.9v31.4c0,3.9,3.1,6.9,6.9,6.9h50.6c3.9,0,6.9-3.1,6.9-6.9v-31.4C337.8,182.9,334.7,179.8,330.8,179.8z
						 M286.6,171.5c0-10.3,8.3-18.6,18.6-18.6s18.6,8.3,18.6,18.6v8.3h-37.2V171.5z"/><path fill="#658fc9" d="M313.6,195.9c0-5-4.4-8.9-9.7-8.1c-3.1,0.6-5.6,3.1-6.1,6.1c-0.8,3.6,1.1,6.9,3.9,8.6
						c0.6,0.3,0.8,1.1,0.8,1.7l-1.7,5.6c-0.8,3.1,1.4,6.1,4.7,6.1c3.3,0,5.6-3.1,4.7-6.1l-1.4-5.3c-0.3-0.6,0.3-1.4,0.8-1.7
						C311.9,201.5,313.6,199,313.6,195.9z"/><path fill="#fff" d="M334.7,236.2h-58.3c-1.7,0-3.1-1.4-3.1-3.1l0,0c0-1.7,1.4-3.1,3.1-3.1h58.3c1.7,0,3.1,1.4,3.1,3.1l0,0
					C337.8,234.8,336.4,236.2,334.7,236.2z"/><path fill="#fff" d="M334.7,246.2h-58.3c-1.7,0-3.1-1.4-3.1-3.1l0,0c0-1.7,1.4-3.1,3.1-3.1h58.3c1.7,0,3.1,1.4,3.1,3.1l0,0
					C337.8,244.8,336.4,246.2,334.7,246.2z"/></g><g><path fill="#658fc9" d="M1044.6,854.7v61.7c0,6.7-5.3,11.9-11.9,11.9H971c-6.7,0-11.9-5.3-11.9-11.9v-61.7
					c0-6.7,5.3-11.9,11.9-11.9h61.7"/><path fill="#fff" d="M984.6,911.1c-0.3,0-0.6,0-0.8,0c-1.4-0.3-2.2-1.9-1.9-3.3l13.1-45.8c0.3-1.4,1.9-2.2,3.3-1.9
						c1.4,0.3,2.2,1.9,1.9,3.3l-13.1,45.8C986.8,910.6,985.7,911.1,984.6,911.1z"/><path fill="#fff" d="M1006.3,911.1c-0.3,0-0.6,0-0.8,0c-1.4-0.3-2.2-1.9-1.9-3.3l13.1-45.8c0.3-1.4,1.9-2.2,3.3-1.9
						c1.4,0.3,2.2,1.9,1.9,3.3l-13.1,45.8C1008.5,910.6,1007.4,911.1,1006.3,911.1z"/><path fill="#fff" d="M1024.6,878.1h-45.8c-1.4,0-2.8-1.1-2.8-2.8c0-1.4,1.1-2.8,2.8-2.8h45.8c1.4,0,2.8,1.1,2.8,2.8
						C1027.4,876.7,1026.3,878.1,1024.6,878.1z"/><path fill="#fff" d="M1024.6,898.9h-45.8c-1.4,0-2.8-1.1-2.8-2.8c0-1.4,1.1-2.8,2.8-2.8h45.8c1.4,0,2.8,1.1,2.8,2.8
						C1027.4,897.8,1026.3,898.9,1024.6,898.9z"/></g><g><path fill="#dee1f1" d="M237.2,811.1c-0.6-3.3-0.6-6.9,0.3-10.3c3.1-11.4,6.4-32.8-1.1-56.1c-12.5-38.6-62.5-73.1-62.5-73.1
				s13.6,57,24.7,81.4c8.3,17.8,22.5,38.1,30.6,48.6c2.2,3.1,3.6,6.4,4.4,10c8.1,45,6.9,79.7,6.9,80.3l3.9,0.3
				C244.1,891.7,245.2,856.7,237.2,811.1z"/><path fill="#3db664" d="M277.2,774.7c10-31.4,14.7-68.6,14.7-68.6s-45.3,37.2-48.9,65.9c-2.2,17.5,0.6,31.7,3.1,40
				c1.1,3.6,1.4,7.2,1.1,10.8c-4.4,42.2-1.1,74.7-0.8,75.3l3.3-0.3c0-0.6-3.3-30.6,0.6-70.6c0.6-5.6,2.8-10.6,6.1-15
				C262.7,804.4,271.9,791.1,277.2,774.7z"/><path fill="#058041" d="M322.8,704.7c0,0-48.6,18.1-61.1,57.5c-7.8,24.2-4.2,46.4-1.1,57.8c0.8,3.3,0.8,6.7,0,10
				c-11.4,45.6-11.7,92.8-11.7,93.4h3.9c0-0.6,0.3-46.7,11.1-91.4c1.1-4.4,3.1-8.6,5.8-12.2c8.3-11.1,22.2-31.1,30.6-48.9
				C311.9,746.1,322.8,704.7,322.8,704.7z"/><path fill="#3db664" d="M237.2,871.7c-1.1-16.7-5.8-31.4-11.1-43.9c-1.1-2.5-1.4-5.3-1.1-8.1c0.6-5.3,0.8-13.3-1.1-23.6
				c-3.9-19.4-29.7-61.4-67-63.9c0,0,12.8,20.8,19.4,38.1c8.3,22,20.3,44.7,40.3,53.6c3.6,1.7,6.1,4.4,7.8,8.1
				c4.7,11.7,8.6,25.3,9.7,40L237.2,871.7z"/><path fill="#3db664" d="M211.9,957h61.7l16.1-97.8c0.8-4.4-2.5-8.3-6.9-8.3H203c-4.4,0-7.8,3.9-6.9,8.3L211.9,957z"/></g><g><polygon fill="#e7525c" points="355 925.6 341.4 975.9 385.5 979.8 394.7 932"/><path fill="#263238" d="M386.7,975.6c0,0.3-2.5,0-6.4-0.3c-3.9-0.3-9.4-0.8-15.6-1.7c-5.8-0.8-11.1-1.4-15.6-1.9
											c-3.9-0.6-6.4-0.8-6.4-1.1c0-0.3,2.5,0,6.4,0.3s9.4,0.8,15.6,1.7c5.8,0.8,11.1,1.4,15.6,1.9
											C384.4,975.3,386.7,975.6,386.7,975.6z"/><polyline fill="#fff" points="341.4 975.9 385.5 979.8 386.1 976.2 342.5 970.6 341.4 975.3" opacity=".6"/><path fill="#263238" d="M363.3,973.7c-0.3,0,1.7-8.6,4.2-19.2s5-19.2,5.3-18.9c0.3,0-1.7,8.6-4.2,19.2
								C365.8,965,363.6,973.7,363.3,973.7z"/><path fill="#263238" d="M384.4,975.3c-0.3,0,1.4-3.6,0-9.4c-0.6-2.8-2.2-6.1-4.7-8.9c-2.8-2.8-6.7-4.7-11.1-5
								c-4.4-0.6-8.6,0.6-11.9,2.8c-3.3,1.9-5.6,4.7-6.9,7.2c-2.8,5.3-2.5,9.2-2.8,8.9c0,0,0-0.3,0-0.6c0-0.6,0-1.1,0-1.9
								c0.3-1.7,0.8-4.2,2.2-6.7c1.4-2.8,3.6-5.6,6.9-7.8s7.8-3.3,12.5-2.8s8.9,2.5,11.7,5.3c2.8,2.8,4.2,6.4,5,9.2
								c0.6,3.1,0.3,5.6,0,6.9c-0.3,0.8-0.3,1.4-0.6,1.9C384.4,975.3,384.4,975.3,384.4,975.3z"/><path fill="#e7525c" d="M537.5,912l-3.1,44.7c0,0,44.5,14.7,44.7,23.1l-87,0.6l1.7-69.7L537.5,912z"/><path fill="#fff" d="M507.8,952c-1.7,0.3-2.8,2.2-2.5,3.9c0.3,1.7,2.2,3.1,3.9,2.5c1.7-0.3,3.3-2.5,2.8-4.2
									c-0.6-1.7-2.8-3.1-4.4-2.2" opacity=".6"/><path fill="#fff" d="M492.2,980.3l0.3-6.9l83.9,2.2c0,0,2.8,1.1,3.3,4.7H492.2z" opacity=".6"/><path fill="#263238" d="M535.9,956.1c0,0.6-2.2,0.6-4.2,1.9c-2.2,1.1-3.3,3.1-3.6,2.8c-0.3,0,0.3-2.5,3.1-4.2
									C533.4,955.3,536.1,955.9,535.9,956.1z"/><path fill="#263238" d="M545,960.3c0,0.3-1.7,1.1-3.3,2.8c-1.7,1.7-1.9,3.6-2.5,3.6c-0.3,0-0.6-2.5,1.4-4.4
									C542.5,960,545,960,545,960.3z"/><path fill="#263238" d="M549.8,971.4c-0.3,0-0.8-1.9,0.3-4.4c1.1-2.2,3.1-3.1,3.3-2.8c0.3,0.3-1.1,1.7-1.9,3.3
									C550.3,969.5,550.3,971.4,549.8,971.4z"/><path fill="#263238" d="M535.6,946.1c-0.3,0.3-2.2-0.3-4.4-0.3c-2.5,0-4.2,0.8-4.4,0.6c-0.3-0.3,1.7-1.9,4.4-1.9
									C533.6,944.2,535.6,945.6,535.6,946.1z"/><path fill="#263238" d="M535.9,937c0,0.3-1.7,0.3-4.4-0.3c-1.4-0.3-2.8-0.8-4.4-1.7c-0.8-0.3-1.7-0.8-2.5-1.4
								c-0.3-0.3-0.8-0.6-1.4-1.1c-0.6-0.6-0.6-1.7,0-2.2c0.6-0.6,1.4-0.8,1.9-0.8c0.6,0,1.1,0.3,1.7,0.3c0.8,0.3,1.9,0.6,2.8,1.1
								c1.7,0.8,3.1,1.7,3.9,2.8c1.9,1.9,2.5,3.6,2.5,3.6c-0.3,0-1.1-1.1-3.1-2.8c-1.1-0.8-2.2-1.7-3.9-2.2
								c-0.8-0.3-1.7-0.6-2.5-0.8s-1.7-0.3-1.9,0c0,0.3,0,0.3,0,0.6c0.3,0.3,0.6,0.6,0.8,0.8c0.8,0.6,1.4,1.1,2.2,1.4
								c1.4,0.8,3.1,1.4,4.2,1.7C534.2,936.7,535.9,936.7,535.9,937z"/><path fill="#263238" d="M535.3,937.5c-0.3,0-0.8-1.4-1.1-4.2c0-1.4,0.3-3.1,0.8-4.7c0.3-0.8,0.6-1.7,1.1-2.5
								c0.6-0.8,1.1-1.9,2.8-2.2c0.8,0,1.7,0.6,1.7,1.4c0.3,0.6,0.3,1.1,0.3,1.7c0,1.1,0,1.9,0,3.1c-0.3,1.9-1.1,3.3-1.9,4.4
								c-1.7,2.2-3.6,2.8-3.6,2.5c0-0.3,1.4-1.1,2.8-3.1c0.6-1.1,1.4-2.5,1.4-4.2c0-0.8,0-1.7,0-2.5c0-0.8-0.6-1.7-0.8-1.7
								c-0.6,0-1.1,0.6-1.7,1.4c-0.6,0.8-0.8,1.7-1.1,2.2c-0.6,1.7-0.8,3.1-1.1,4.4C535,935.9,535.6,937.5,535.3,937.5z"/><polygon fill="#27265f" points="537.5 523.8 405 522.7 341.1 943.1 396.1 950 466.4 604.4 487.5 951.1 487.5 952.3 547 951.1"/><path fill="#fbbd9d" d="M638.1,330.7c0,0,15.6-23.3,15.8-23.3l0,0c0,0,13.9-23.6,18.6-23.6c4.7,0,3.1,4.7-1.9,13.3
						c-4.2,7.5-4.7,11.9-4.7,11.9l11.4,6.9c0,0,7.8-3.1,8.1,4.2c0,2.5-0.6,5.3-1.4,9.7c-0.6,2.5-1.7,5.3-3.9,4.2
						c-1.1-0.6-1.9-1.4-1.9-2.8c-0.3-4.2,0.6-5.8,0-5.8c-0.6,0-8.3,22.2-8.3,22.2L638.1,330.7z"/><path fill="#fbbd9d" d="M669.2,312.4c1.1-0.8,2.5-1.7,3.6-2.2c1.4-0.6,2.8-0.8,4.2-0.6c0.8,0.3,1.7,0.6,2.2,1.1
						c0.8,0.8,0.8,2.2,0.6,3.6c-0.3,1.1-1.1,2.2-1.9,3.1"/><path fill="#fbbd9d" d="M664.2,307.6c1.1-0.8,2.2-1.7,3.6-1.9c1.1-0.6,2.5-0.8,3.9-0.6c0.8,0.3,1.7,0.6,2.2,1.1
						c0.8,0.8,0.8,2.2,0.3,3.3c-0.3,1.1-2.8,3.6-3.6,4.7"/><path fill="#fbbd9d" d="M643.4,317.4l-22.5,47.8l24.7,25.3l12.8-35.6c0,0,6.9,1.4,9.7-3.3c3.1-5,7.2-19.7,7.2-19.7L643.4,317.4z"/><path fill="#ec996f" d="M659.5,316.3c0.6,0.3,1.7-2.8,3.6-5.8c2.2-3.1,5-4.4,4.7-4.7c0-0.3-3.3,0.6-5.8,4.2
						C659.8,312.9,659.2,316,659.5,316.3z"/><path fill="#ec996f" d="M684.2,316.3c0,0-0.6-0.8-1.9-1.4c-1.4-0.6-3.6-0.6-5.8,0.6c-1.9,1.1-3.1,3.1-3.9,4.2
						c-0.6,1.4-0.8,2.2-0.8,2.2c0.3,0,0.8-0.6,1.7-1.7c0.8-1.1,1.9-2.5,3.6-3.6c1.7-0.8,3.6-1.1,4.7-0.8
						C683.4,316,684.2,316.5,684.2,316.3z"/><path fill="#ec996f" d="M675.9,309.6c0-0.3-3.3-0.6-6.1,2.2c-2.8,2.5-3.6,5.6-3.3,5.6c0.3,0.3,1.7-2.5,4.2-4.4
						C673.1,310.4,675.9,309.9,675.9,309.6z"/><path fill="#ec996f" d="M681.5,319.9c-0.3,0-0.6,1.4-1.4,2.8c-0.8,1.4-2.2,2.2-1.9,2.5c0,0.3,1.9,0,3.1-1.7
						C682.6,321.5,681.7,319.9,681.5,319.9z"/><path fill="#fbbd9d" d="M638.1,329.6c0,0-0.8-14.2,2.8-17.5c3.3-3.3,13.3,0,13.3,0"/><path fill="#ec996f" d="M655.6,305.4c-0.3-0.3-3.1,3.1-6.1,7.5c-3.1,4.4-5.3,8.1-5,8.1c0.3,0.3,3.1-3.1,6.1-7.5
						C653.7,309.3,655.9,305.7,655.6,305.4z"/><g><path fill="#fbbd9d" d="M414.2,318.5c0.3-1.9,0.8-4.2,1.4-6.7c0.6-2.2,1.7-4.4,2.8-6.4c1.7-2.2,3.9-5.3,5.6-6.7
					c2.2-1.7,1.1-5-1.1-5c-2.5,0-8.3,4.2-12.5,11.7c-4.2,7.5-6.4-5.8-7.5-10.6c-0.8-4.7-4.7-19.4-6.4-20.3c-2.5-1.4-4.4,1.1-3.3,5.8
					s3.3,19.2,0.8,19.7c-2.5,0.3-6.9-23.9-6.9-23.9s0-5.3-3.1-5c-5.3,0.6,1.4,26.1,2.2,28.6c0.6,1.7-2.2,2.2-2.8,0.3
					c-0.6-1.9-3.9-24.5-9.4-23.9c-4.2,0.6,5.3,21.1,3.6,26.1c-1.9,5-5.6-16.4-9.7-15.8c-1.4,0.3-2.5,0.6,1.4,12.5
					c1.9,5.8,9.4,33.1,9.4,33.1l-4.2,22.5l33.9,8.6L414.2,318.5z"/></g><g><path fill="#fbbd9d" d="M457.2,197.1L457,308.5l47.8,2.2l1.4-27.2c0,0,16.9,3.3,21.4-12.5c2.8-10,2.2-88.1,2.2-88.1L457.2,197.1
								z"/><path fill="#263238" d="M535.9,191.2c-7.5,2.2-9.2,14.4-9.2,14.4l-11.9,26.1c-6.1-4.7-14.2-4.4-15.6,6.1
								c-1.1,7.8,8.3,9.2,8.3,9.2c-5.6,9.4-9.2,16.9-17.2,26.1c-8.6,9.7-13.6,10.6-23.1,10.8h-10.6c0,0-5-16.7-14.4-58.1
								c-10.6-45.8,43.9-40,53.9-51.7C512.8,155.1,559.8,184.3,535.9,191.2z"/><path fill="#263238" d="M443.3,230.1c-8.9-5.8-9.7-22.5-4.4-32.5c5.3-10,15.8-16.7,27.2-16.9c1.4,0,3.1,0,4.4-0.6
					c1.9-0.8,3.3-2.8,4.7-4.4c7.8-10.3,15.6-20.3,30.3-20.3c2.5,0,5,0,9.2,2.2c2.2,1.1,5,5,5.6,7.2c2.8-1.4,5.6-2.5,8.6-3.1
					c3.1-0.6,6.4,0,8.6,2.2c2.2,1.9,3.1,5.8,1.4,8.3c5-0.3,9.7,3.9,10.3,8.6c0.8,5-6.1,8.3-6.9,8.6c0,0,3.9,8.1-5.3,12.8
					c-3.6,1.9-8.6-0.3-9.2-0.6"/></g><g><path fill="#4c8bc0" d="M408.6,314l-58.3,104.5c-3.3,8.9-1.4,20.6,4.4,27.8l-1.1-1.7c4.7,5.8,11.9,9.2,19.4,9.2h1.1
					c10,0,18.9-5.8,22.8-15l13.6-20.8L408.6,314z"/><path fill="#5692cd" d="M535.3,306.5c-11.4-5.8-22.8-7.2-35.3-7.5c-14.4-0.6-34.7-2.5-50.3-0.8c0,0-47.2-1.4-47.5,35.3l6.1,140.6
					l-10,60.3l141.7,4.2l-1.1-71.1c1.7-37-1.9-89.5-1.9-89.5c2.2-20,13.1-28.9,14.7-41.7C553.1,324.9,545.6,311.8,535.3,306.5z"/><path fill="#4c8bc0" d="M372.8,345.4c0,0-5.3,15.8-6.4,17.8c0,0-13.3,38.3-17.5,63.9l42.2-76.4
					C391.7,351.3,373.3,345.7,372.8,345.4z"/><path fill="#4c8bc0" d="M654,379.9l-32.8-21.4l-20.6,35.8c0,0-28.6-39.7-41.7-63.1c-11.9-21.4-27.5-27.2-35-28.9
						c-2.2-0.6-4.2,1.4-3.9,3.6l11.4,77.5c1.4,4.2,25,38.3,38.3,55.6c22,28.9,54.5,10.3,63.4-9.7C640.1,413.2,651.2,389.1,654,379.9
						z"/></g></g></svg>