<?xml version="1.0" encoding="utf-8"?>
<!-- Generator: Adobe Illustrator 25.0.0, SVG Export Plug-In . SVG Version: 6.00 Build 0)  -->
<svg version="1.1" id="Layer_1" xmlns="http://www.w3.org/2000/svg" xmlns:xlink="http://www.w3.org/1999/xlink" x="0px" y="0px"
	 viewBox="0 0 1456.5 1445.5" style="enable-background:new 0 0 1456.5 1445.5;" xml:space="preserve">
<style type="text/css">
	.st0{fill:#FFB839;}
	.st1{fill:#FFE088;}
	.st2{fill:#FFD469;}
	.st3{fill:#474756;}
	.st4{fill:#26262E;}
	.st5{fill:#545466;}
	.st6{fill:#C2ECFF;}
	.st7{fill:#DCE8F1;}
	.st8{fill:#4C4C5E;}
	.st9{fill:#616173;}
	.st10{fill:#BF66F1;}
	.st11{fill:#DF85DE;}
	.st12{fill:#EA3D5B;}
	.st13{fill:#FF6C85;}
	.st14{fill:#FFFFFF;}
	.st15{fill:#FF7BBA;}
	.st16{fill:#FF9FD1;}
	.st17{fill:#255BB8;}
	.st18{fill:#5576DB;}
	.st19{fill:#75D178;}
	.st20{fill:#94ED96;}
	.st21{fill:#E7F1F7;}
	.st22{fill:#7CDF82;}
	.st23{fill:#F2C0A7;}
	.st24{fill:#1352AB;}
	.st25{fill:#3A3A3A;}
	.st26{fill:#FF65A7;}
	.st27{fill:#F9AC3D;}
	.st28{fill:#04E0C2;}
	.st29{fill:#FED0B5;}
	.st30{fill:#CFDEE8;}
	.st31{fill:#3765C7;}
	.st32{fill:#E22951;}
	.st33{fill:#C5D4DD;}
</style>
<path class="st0" d="M694.1,1363.1l0,11.6l55.8,32.4l0-11.6L694.1,1363.1z"/>
<path class="st1" d="M694.1,1363.1l55.8,32.4l425.6-245.7l-55.8-32.4L694.1,1363.1z"/>
<path class="st0" d="M749.9,1395.5l0,11.6l24.7,0.6l0-5.5L749.9,1395.5z"/>
<path class="st0" d="M774.6,1402.2l0,5.5l406.2-234.5l0-5.5L774.6,1402.2z"/>
<path class="st2" d="M1175.4,1149.9l-425.5,245.7l24.7,6.7l406.2-234.5L1175.4,1149.9z"/>
<path class="st3" d="M724.4,1345.6l20.2,12l-5.5,3.2l-20.4-11.9L724.4,1345.6z M770.6,1318.8l35.4,20.7l-5.7,3.2l-35.2-20.7
	L770.6,1318.8z M786.2,1309.9l20.2,11.9l-5.7,3.2l-20.2-11.9L786.2,1309.9z M883.6,1277.3l15,8.7l-5.7,3.2l-15-8.7l-20.4-11.7
	l0.2-0.2l5.5-3.2L883.6,1277.3z M909.5,1238.7l20.2,12l-5.7,3.2l-20.4-11.7l0.2-0.2l5.5-3L909.5,1238.7z M924.7,1229.9l35.4,20.5
	l-5.7,3.2l-35.2-20.5L924.7,1229.9z M739.8,1336.7l35.2,20.6l-5.7,3.2l-35.2-20.7L739.8,1336.7z M709,1354.5l20.4,11.7l-5.7,3.4
	l-20.4-12L709,1354.5z M755.2,1327.7l20.4,12l-5.7,3.2l-20.4-11.9L755.2,1327.7z M801.6,1301l35.2,20.5l-5.7,3.4l-35.2-20.7
	L801.6,1301z M817,1292.1l20.2,11.9l-5.5,3.2l-20.4-11.9L817,1292.1z M832.3,1283.2l35.2,20.7l-5.7,3.2l-35.2-20.4L832.3,1283.2z
	 M847.7,1274.3l20.4,11.9l-5.7,3.2l-20.4-12L847.7,1274.3z M878.7,1256.5l20,12l-5.5,3.2l-20.2-11.7l5.5-3.2L878.7,1256.5z
	 M894.1,1247.6l35,20.7l-5.7,3.2l-35.2-20.5l0.2-0.2l5.5-3L894.1,1247.6z M1048.2,1158.7l35.2,20.4l-5.7,3.2l-35.2-20.5
	L1048.2,1158.7z M1001.8,1185.4l20.4,11.7l-5.7,3.4l-20.4-12L1001.8,1185.4z M971,1203.2l20.2,12l-5.5,3l-20.4-11.7L971,1203.2z
	 M955.6,1212.1l35.2,20.5l-5.7,3.2l-35-20.4L955.6,1212.1z M986.4,1194.3l35.2,20.4l-5.7,3.2l-35.2-20.4L986.4,1194.3z
	 M1017.2,1176.5l35.4,20.4l-5.7,3.2l-35.2-20.4L1017.2,1176.5z M1078.9,1140.9l35.2,20.5l-5.7,3.4l-35.2-20.7L1078.9,1140.9z
	 M1094.3,1132l20.4,11.9l-5.7,3.2l-20.4-11.9L1094.3,1132z M1145.1,1143.5l-5.7,3.2l-35.2-20.4l5.5-3.2L1145.1,1143.5z M940.3,1221
	l20.2,11.7l-5.7,3.2l-20.2-11.7L940.3,1221z M1032.8,1167.6l20.2,11.7l-5.7,3.5l-20.2-12L1032.8,1167.6z M1063.6,1149.8l20.4,11.7
	l-5.7,3.2l-20.4-11.7L1063.6,1149.8z"/>
<path class="st4" d="M878.7,183.7c9.5,5.5,17.2,18.8,17.2,29.8c0,5.4-2,9.3-5.1,11c-3.1,1.8-7.4,1.5-12.2-1.2l-116.2-67.1
	c-9.5-5.5-17.2-18.8-17.1-29.7c0-5.5,2-9.3,5.1-11.1c3.1-1.8,7.4-1.5,12.2,1.2L878.7,183.7L878.7,183.7z"/>
<path class="st5" d="M957.8,223.3c36.3,21,65.6,71.8,65.5,113.5l-2.1,750.1c-0.1,41.7-29.7,58.5-65.9,37.6L689.2,970.9
	c-36.3-21-65.6-71.7-65.5-113.5l2.1-750.1c0.1-41.7,29.6-58.5,65.9-37.6L957.8,223.3z M1006.9,1078.7l2.1-750.1
	c0.1-32.6-22.9-72.4-51.2-88.8l-25.2-14.6c-2.6-1.3-4.2-1.6-5.6-1.3c-3.4,1.6-4.5,3.7-4.6,6.7c0,12.2-8.2,17.1-18.3,11.8l-158-91.2
	c-10.6-6.4-18.7-20.5-19-32.3c0-7.1-4.5-14.9-10.2-18.2l-25.2-14.6c-28.4-16.4-51.5-3.2-51.6,29.4L638,865.7
	c1,18.8,5.9,33.9,13.4,47.6c3.2,5.9,6.9,11.6,11.1,17c6,7.8,12.9,14.6,20.2,19.9c1,0.7,2.1,1.5,3.2,2.2c1.1,0.7,2.2,1.4,3.4,2.1
	l266.1,153.6c20.3,11.1,36.8,8.2,45.3-4.9C1004.9,1095.9,1006.8,1088.1,1006.9,1078.7"/>
<path class="st6" d="M957.8,239.8c28.4,16.4,51.3,56.1,51.2,88.8l-2.1,750.1c0,9.4-2,17.2-5.4,23.1c-3.2,5-6.2,7.8-9.7,9.8
	c-9.1,5.2-21.4,4.7-35.1-2.8L689.2,954.4c-2.2-1.3-4.4-2.7-6.5-4.3c-7.3-5.3-14.2-12.1-20.2-19.9c-4.2-5.3-7.9-11-11.1-17
	c-2.9-5.4-5.4-11-7.5-16.7c-3.2-8.8-5.2-17.7-5.7-26.2l2-754.8c0.1-32.6,23.2-45.8,51.6-29.4l25.2,14.6c5.6,3.2,10.2,11.1,10.2,17.6
	c0.2,12.3,8.4,26.4,18.5,32.6l157.7,91c11,5.8,19.1,0.9,19.1-10.9c0.1-1.4,0.2-2.2,0.4-2.9c0.2-0.7,0.5-1.3,0.9-1.9
	c4.9-2.6,6.5-2.3,8.2-1.5L957.8,239.8L957.8,239.8z"/>
<path class="st7" d="M1076.8,305.7l-2.1,750.1c0,20.7-7.4,35.3-19.2,42.2l-53.5,31.1c11.8-6.8,19.1-21.4,19.2-42.1l2.1-750.1
	c0.1-41.7-29.2-92.5-65.5-113.5L691.7,69.7c-18.3-10.5-34.9-11.5-46.8-4.6L698.5,34c12-6.9,28.5-6,46.8,4.6l266.1,153.6
	C1047.6,213.2,1077,264,1076.8,305.7L1076.8,305.7z"/>
<path class="st8" d="M1054.6,448.4c2.6-1.5,4.9-1.6,6.6-0.7c1.7,1,2.7,3,2.7,6l0.1,38.7c0,5.9-4.1,13.1-9.3,16.1
	c-5.1,3-9.3,0.6-9.3-5.3l-0.1-38.7C1045.3,458.6,1049.5,451.4,1054.6,448.4L1054.6,448.4z"/>
<path class="st9" d="M1037.6,421.7l-0.1-38.8c0-5.9,4.1-13.1,9.3-16.1c2.6-1.5,4.9-1.6,6.6-0.7l7.6,4.4c-1.7-1-4-0.8-6.6,0.7
	c-5.1,3-9.3,10.2-9.3,16.1l0.1,38.7c0,2.9,1.1,5,2.7,6l-7.6-4.4C1038.7,426.7,1037.6,424.7,1037.6,421.7z M1061.2,447.8
	c-1.7-1-4-0.8-6.6,0.7c-5.1,3-9.3,10.2-9.3,16.1l0.1,38.7c0,2.9,1.1,5,2.7,6l-7.6-4.4c-1.7-1-2.7-3-2.7-6l-0.1-38.7
	c0-5.9,4.1-13.1,9.3-16.1c2.6-1.5,4.9-1.6,6.6-0.7L1061.2,447.8L1061.2,447.8z"/>
<path class="st8" d="M1054.4,371.3c2.6-1.5,4.9-1.6,6.6-0.7s2.7,3,2.7,6l0.1,38.7c0,5.9-4.1,13.1-9.3,16.1s-9.3,0.6-9.3-5.3
	l-0.1-38.7C1045.1,381.5,1049.3,374.3,1054.4,371.3z"/>
<path class="st3" d="M856.3,184.1c3.8,2.2,6.8,7.4,6.8,11.7c0,2.1-0.8,3.7-2,4.4c-1.2,0.7-2.9,0.6-4.8-0.5l-70.5-40.9
	c-3.7-2.2-6.8-7.4-6.8-11.7c0-2.2,0.8-3.7,2-4.4c1.2-0.7,2.9-0.6,4.8,0.5L856.3,184.1L856.3,184.1z M897,209.2
	c4.1,2.4,7.5,8.2,7.5,12.9c0,4.8-3.4,6.7-7.5,4.3c-4.1-2.4-7.5-8.2-7.5-12.9C889.5,208.7,892.9,206.8,897,209.2z M876.6,197.4
	c4.1,2.4,7.5,8.2,7.5,12.9c0,4.8-3.4,6.7-7.5,4.3s-7.5-8.2-7.5-12.9C869.1,196.9,872.4,195,876.6,197.4z M765.5,128.3
	c4.1,2.4,7.5,8.2,7.5,12.9c0,4.8-3.4,6.7-7.5,4.3c-4.1-2.4-7.5-8.2-7.5-12.9C758,127.9,761.3,125.9,765.5,128.3z M745,116.5
	c4.1,2.4,7.5,8.2,7.5,12.9c0,4.8-3.4,6.7-7.5,4.3s-7.5-8.2-7.5-12.9C737.5,116.1,740.9,114.1,745,116.5z"/>
<path class="st8" d="M738,334.4c-1.5,0-2.9-0.4-4.4-1.3l-67.1-38.8c-4.3-2.5-7.6-8.2-7.6-13.2l0.2-77.1c0-4.6,2.8-7.7,6.9-7.7
	c1.5,0,2.9,0.4,4.4,1.3l67.1,38.8c4.3,2.5,7.6,8.2,7.6,13.2l-0.2,77.1C744.8,331.3,742,334.4,738,334.4L738,334.4z"/>
<path class="st10" d="M740.7,249.6l-0.2,77.1c0,1.8-0.7,3.1-1.7,3.7l-20.4,11.8c1-0.6,1.7-1.9,1.7-3.7l0.2-77.1
	c0-3.7-2.6-8.2-5.8-10l-67.1-38.8c-1.6-0.9-3.1-1-4.1-0.4l20.4-11.8c1.1-0.6,2.5-0.5,4.1,0.4l67.1,38.8
	C738.1,241.4,740.7,245.9,740.7,249.6L740.7,249.6z"/>
<path class="st11" d="M714.6,251.4c3.2,1.8,5.8,6.3,5.8,10l-0.2,77.1c0,3.7-2.6,5.2-5.8,3.3l-67.1-38.8c-3.2-1.8-5.8-6.3-5.8-10
	l0.2-77.1c0-3.7,2.6-5.2,5.8-3.3L714.6,251.4L714.6,251.4z"/>
<path class="st8" d="M738,482.9c-1.5,0-2.9-0.4-4.4-1.3l-67.1-38.8c-4.3-2.5-7.6-8.2-7.6-13.2l0.2-77.1c0-4.6,2.8-7.7,6.9-7.7
	c1.5,0,2.9,0.4,4.4,1.3l67.1,38.8c4.3,2.5,7.6,8.2,7.6,13.2l-0.2,77.1C744.8,479.7,742,482.9,738,482.9L738,482.9z"/>
<path class="st12" d="M740.7,398.1l-0.2,77.1c0,1.8-0.7,3.1-1.7,3.7l-20.4,11.8c1-0.6,1.7-1.9,1.7-3.7l0.2-77.1
	c0-3.7-2.6-8.2-5.8-10l-67.1-38.8c-1.6-0.9-3.1-1-4.1-0.4l20.4-11.8c1.1-0.6,2.5-0.5,4.1,0.4L735,388
	C738.1,389.9,740.7,394.4,740.7,398.1L740.7,398.1z"/>
<path class="st13" d="M714.6,399.9c3.2,1.8,5.8,6.3,5.8,10l-0.2,77.1c0,3.7-2.6,5.2-5.8,3.3l-67.1-38.8c-3.2-1.8-5.8-6.3-5.8-10
	l0.2-77.1c0-3.7,2.6-5.2,5.8-3.3L714.6,399.9z"/>
<path class="st14" d="M712.4,435.4c-0.1,0.5-0.1,1-0.3,1.4l3.3,5.3l-3,3.5l-4-4.5c-0.4,0.1-0.8,0.2-1.1,0.2l0.2,5.2l-5.3-1.8
	l-1.5-5.7c-0.5-0.3-0.9-0.7-1.3-1.1l-2.9,2.1l-4.6-6.1l1.9-3.5c-0.3-0.6-0.6-1.2-0.8-1.8l-4.4-2.2l-1.1-6.8l4.2,0.7
	c0.1-0.5,0.1-1,0.2-1.4l-3.3-5.3l3-3.5l4,4.4c0.4-0.1,0.7-0.2,1.1-0.2l-0.2-5.2l5.4,1.8l1.5,5.6c0.5,0.3,0.9,0.7,1.4,1.1l2.9-2.1
	l4.6,6.1l-1.9,3.5c0.3,0.6,0.6,1.2,0.8,1.8l4.4,2.2l1.1,6.8L712.4,435.4L712.4,435.4z M705.6,432.8c1.4-1.5,0.8-5-1.2-7.7
	c-0.7-1-1.6-1.7-2.4-2.2c-1.4-0.8-2.8-0.8-3.7,0.2c-1.3,1.6-0.8,5,1.2,7.7c0.7,1,1.6,1.7,2.4,2.2
	C703.4,433.8,704.8,433.8,705.6,432.8 M685.7,440.5c-0.1,0.7-0.2,1.4-0.4,2.1l4.9,7.8l-4.5,5.3l-6-6.6c-0.5,0.2-1.1,0.3-1.7,0.4
	l0.4,7.8l-8-2.7l-2.2-8.4c-0.7-0.5-1.3-1-2-1.6l-4.4,3.2l-6.8-9.1l2.8-5.3c-0.4-0.9-0.8-1.7-1.2-2.6l-6.6-3.3l-1.6-10.1l6.2,1
	c0.1-0.7,0.2-1.4,0.4-2.1l-4.9-7.8l4.5-5.2l6,6.6c0.5-0.2,1.1-0.3,1.7-0.3l-0.4-7.8l8,2.7l2.3,8.4c0.7,0.5,1.4,1,2,1.6l4.4-3.1
	l6.8,9.1l-2.8,5.3c0.4,0.9,0.8,1.7,1.2,2.6l6.6,3.3l1.6,10.1L685.7,440.5L685.7,440.5z M675.7,436.6c2-2.3,1.1-7.5-1.9-11.5
	c-1.1-1.5-2.3-2.6-3.6-3.3c-2.1-1.2-4.2-1.2-5.4,0.2c-2,2.3-1.2,7.4,1.8,11.5c1.1,1.5,2.3,2.6,3.5,3.3
	C672.3,438.1,674.4,438.1,675.7,436.6"/>
<path class="st8" d="M738,631.4c-1.5,0-2.9-0.4-4.4-1.3l-67.1-38.8c-4.3-2.5-7.6-8.2-7.6-13.2l0.2-77.1c0-4.6,2.8-7.7,6.9-7.7
	c1.5,0,2.9,0.4,4.4,1.3l67.1,38.8c4.3,2.5,7.6,8.2,7.6,13.2l-0.2,77.1C744.8,628.2,742,631.4,738,631.4L738,631.4z"/>
<path class="st0" d="M740.7,546.5l-0.2,77.1c0,1.8-0.7,3.1-1.7,3.7l-20.4,11.8c1-0.6,1.7-1.9,1.7-3.7l0.2-77.1c0-3.7-2.6-8.2-5.8-10
	l-67.1-38.8c-1.6-0.9-3.1-1-4.1-0.4l20.4-11.8c1.1-0.6,2.5-0.5,4.1,0.4l67.1,38.8C738.1,538.4,740.7,542.8,740.7,546.5L740.7,546.5z
	"/>
<path class="st1" d="M714.6,548.3c3.2,1.8,5.8,6.3,5.8,10l-0.2,77.1c0,3.7-2.6,5.2-5.8,3.3L647.2,600c-3.2-1.8-5.8-6.3-5.8-10
	l0.2-77.1c0-3.7,2.6-5.2,5.8-3.3L714.6,548.3z"/>
<path class="st8" d="M738,779.8c-1.5,0-2.9-0.4-4.4-1.3l-67.1-38.8c-4.3-2.5-7.6-8.2-7.6-13.2l0.2-77.1c0-4.6,2.8-7.7,6.9-7.7
	c1.5,0,2.9,0.4,4.4,1.3l67.1,38.8c4.3,2.5,7.6,8.2,7.6,13.2l-0.2,77.1C744.8,776.7,742,779.8,738,779.8L738,779.8z"/>
<path class="st15" d="M740.7,695l-0.2,77.1c0,1.8-0.7,3.1-1.7,3.7l-20.4,11.8c1-0.6,1.7-1.9,1.7-3.7l0.2-77.1c0-3.7-2.6-8.2-5.8-10
	L647.5,658c-1.6-0.9-3.1-1-4.1-0.4l20.4-11.8c1.1-0.6,2.5-0.5,4.1,0.4L735,685C738.1,686.8,740.7,691.3,740.7,695z"/>
<path class="st16" d="M714.6,696.8c3.2,1.8,5.8,6.3,5.8,10l-0.2,77.1c0,3.7-2.6,5.2-5.8,3.3l-67.1-38.8c-3.2-1.8-5.8-6.3-5.8-10
	l0.2-77.1c0-3.7,2.6-5.2,5.8-3.3L714.6,696.8z"/>
<path class="st14" d="M681.9,691.3c10.1,5.8,18.3,20,18.2,31.6c0,11.6-17.5,30.4-18.4,31.4c-0.9-2-18.2-41-18.2-52.6
	C663.6,690.1,671.8,685.4,681.9,691.3z M681.8,724.6c6.2,3.6,11.3,0.7,11.3-6.4c0-7.2-5-15.9-11.3-19.5c-6.2-3.6-11.3-0.7-11.3,6.5
	C670.6,712.3,675.6,721,681.8,724.6"/>
<path class="st8" d="M857.4,403.5c-1.5,0-2.9-0.4-4.4-1.3l-67.1-38.8c-4.3-2.5-7.6-8.2-7.6-13.2l0.2-77.1c0-4.6,2.8-7.7,6.9-7.7
	c1.5,0,2.9,0.4,4.4,1.3l67.1,38.8c4.3,2.5,7.6,8.2,7.6,13.2l-0.2,77.1C864.3,400.3,861.5,403.5,857.4,403.5z"/>
<path class="st17" d="M860.2,318.6l-0.2,77.1c0,1.8-0.7,3.1-1.7,3.7l-20.4,11.8c1-0.6,1.7-1.9,1.7-3.7l0.2-77.1
	c0-3.7-2.6-8.2-5.8-10l-67.1-38.8c-1.6-0.9-3.1-1-4.1-0.4l20.4-11.8c1.1-0.6,2.5-0.5,4.1,0.4l67.1,38.8
	C857.6,310.5,860.2,315,860.2,318.6L860.2,318.6z"/>
<path class="st18" d="M834.1,320.5c3.2,1.8,5.8,6.3,5.8,10l-0.2,77.1c0,3.7-2.6,5.2-5.8,3.3l-67.1-38.8c-3.2-1.8-5.8-6.3-5.8-10
	l0.2-77.1c0-3.7,2.6-5.2,5.8-3.3L834.1,320.5z"/>
<path class="st8" d="M857.4,848.9c-1.5,0-2.9-0.4-4.4-1.3l-67.1-38.8c-4.3-2.5-7.6-8.2-7.6-13.2l0.2-77.1c0-4.6,2.8-7.7,6.9-7.7
	c1.5,0,2.9,0.4,4.4,1.3l67.1,38.8c4.3,2.5,7.6,8.2,7.6,13.2l-0.2,77.1C864.3,845.7,861.5,848.9,857.4,848.9z"/>
<path class="st17" d="M860.2,764l-0.2,77.1c0,1.8-0.7,3.1-1.7,3.7l-20.4,11.8c1-0.6,1.7-1.9,1.7-3.7l0.2-77.1c0-3.7-2.6-8.2-5.8-10
	l-67.1-38.8c-1.6-0.9-3.1-1-4.1-0.4l20.4-11.8c1.1-0.6,2.5-0.5,4.1,0.4l67.1,38.8C857.6,755.9,860.2,760.4,860.2,764L860.2,764z"/>
<path class="st18" d="M839.8,775.9l-0.2,57.5l-0.1,19.6c0,3.7-2.6,5.2-5.8,3.3l-67.2-38.8c-3.2-1.8-5.8-6.3-5.8-10l0-10.3l0.2-66.8
	c0-3.7,2.6-5.2,5.8-3.3l67.2,38.8C837.3,767.7,839.8,772.2,839.8,775.9z"/>
<path class="st8" d="M976.9,472.6c-1.5,0-2.9-0.4-4.4-1.3l-67.1-38.8c-4.3-2.5-7.6-8.2-7.6-13.2l0.2-77.1c0-4.6,2.8-7.7,6.9-7.7
	c1.5,0,2.9,0.4,4.4,1.3l67.1,38.8c4.3,2.5,7.6,8.2,7.6,13.2l-0.2,77.1C983.8,469.4,980.9,472.6,976.9,472.6z"/>
<path class="st19" d="M979.6,387.7l-0.2,77.1c0,1.8-0.7,3.1-1.7,3.7l-20.4,11.8c1-0.6,1.7-1.9,1.7-3.7l0.2-77.1
	c0-3.7-2.6-8.2-5.8-10l-67.1-38.8c-1.6-0.9-3.1-1-4.1-0.4l20.4-11.8c1.1-0.6,2.5-0.5,4.1,0.4l67.1,38.8
	C977.1,379.5,979.7,384,979.6,387.7L979.6,387.7z"/>
<path class="st20" d="M953.5,389.5c3.2,1.8,5.8,6.3,5.8,10l-0.2,77.1c0,3.7-2.6,5.2-5.8,3.3l-67.1-38.8c-3.2-1.8-5.8-6.3-5.8-10
	l0.2-77.1c0-3.7,2.6-5.2,5.8-3.3L953.5,389.5z"/>
<path class="st8" d="M976.9,917.9c-1.5,0-2.9-0.4-4.4-1.3l-67.1-38.8c-4.3-2.5-7.6-8.2-7.6-13.2l0.2-77.1c0-4.6,2.8-7.7,6.9-7.7
	c1.5,0,2.9,0.4,4.4,1.3l67.1,38.8c4.3,2.5,7.6,8.2,7.6,13.2l-0.2,77.1C983.8,914.8,980.9,917.9,976.9,917.9z"/>
<path class="st19" d="M979.6,833.1l-0.2,77.1c0,1.8-0.7,3.1-1.7,3.7l-20.4,11.8c1-0.6,1.7-1.9,1.7-3.7l0.2-77.1
	c0-3.7-2.6-8.2-5.8-10l-67.1-38.8c-1.6-0.9-3.1-1-4.1-0.4l20.4-11.8c1.1-0.6,2.5-0.5,4.1,0.4l67.1,38.8
	C977.1,824.9,979.7,829.4,979.6,833.1L979.6,833.1z"/>
<path class="st20" d="M953.5,834.9c3.2,1.8,5.8,6.3,5.8,10l-0.2,77.1c0,3.7-2.6,5.2-5.8,3.3l-67.1-38.8c-3.2-1.8-5.8-6.3-5.8-10
	l0.2-77.1c0-3.7,2.6-5.2,5.8-3.3L953.5,834.9z"/>
<path class="st14" d="M910.1,833.5c0.4,0.2,0.7,0.5,1.1,1l27.9,37.1c1.2,1.6,1.2,3.5,0,3.7l-28,4.9c-0.3,0-0.7-0.1-1.1-0.3
	c-1-0.6-2-2-1.9-3.3l0.1-42C908.1,833.3,909.1,832.9,910.1,833.5L910.1,833.5z"/>
<path class="st8" d="M976.9,1066.4c-1.5,0-2.9-0.4-4.4-1.3l-67.1-38.8c-4.3-2.5-7.6-8.2-7.6-13.2L898,936c0-4.6,2.8-7.7,6.9-7.7
	c1.5,0,2.9,0.4,4.4,1.3l67.1,38.8c4.3,2.5,7.6,8.2,7.6,13.2l-0.2,77.1C983.8,1063.2,980.9,1066.4,976.9,1066.4z"/>
<path class="st10" d="M979.6,981.6l-0.2,77.1c0,1.8-0.7,3.1-1.7,3.7l-20.4,11.8c1-0.6,1.7-1.9,1.7-3.7l0.2-77.1
	c0-3.7-2.6-8.2-5.8-10l-67.1-38.8c-1.6-0.9-3.1-1-4.1-0.4l20.4-11.8c1.1-0.6,2.5-0.5,4.1,0.4l67.1,38.8
	C977.1,973.4,979.7,977.9,979.6,981.6L979.6,981.6z"/>
<path class="st11" d="M953.5,983.4c3.2,1.8,5.8,6.3,5.8,10l-0.2,77.1c0,3.7-2.6,5.2-5.8,3.3l-67.1-38.8c-3.2-1.8-5.8-6.3-5.8-10
	l0.2-77.1c0-3.7,2.6-5.2,5.8-3.3L953.5,983.4z"/>
<path class="st14" d="M915.1,1030.8c2.2,1.3,4,4.3,4,6.9c0,2.6-1.8,3.6-4,2.4c-2.3-1.3-4-4.3-4-6.9
	C911,1030.5,912.8,1029.5,915.1,1030.8L915.1,1030.8z M945.5,1008c1.7,1,2.5,2.4,2.1,4.2c-0.7,3.2-1.4,6.4-2.1,9.6
	c-0.9,4.2-1.8,8.4-2.7,12.5c-0.3,1.2-0.5,1.2-1.7,0.6c-9.7-5.6-19.5-11.2-29.2-16.9c-0.5-0.3-1-0.6-1.5-0.7c-1-0.2-1.5,0.5-1.4,1.7
	c0.1,1.1,0.8,2.1,1.9,2.7l31.6,18.3c1.2,0.7,1.9,2.1,1.9,3.4c0,1.3-0.8,1.8-2,1.1l-31.5-18.1c-4-2.3-7.2-8.7-5.2-12.6
	c0.2-0.4,0.5-0.8,0.8-1c0.6-0.3,0.6-1,0.4-2c-1.1-7.2-2.2-14.3-3.4-21.5c-0.7-4.2-1.4-8.4-2.1-12.6c-0.1-0.5-0.4-1.1-0.7-1.6
	c-3.2-4.4-6.4-8.8-9.6-13.2c-1.2-1.7-1.5-3.8-0.6-4.6c0.4-0.3,0.8-0.3,1.3-0.1c0.3,0.2,0.6,0.5,0.9,0.9c3.8,5.2,7.6,10.4,11.4,15.6
	c0.2,0.3,0.4,0.8,0.4,1.1c0.5,3,1,6,1.4,9c0.3,1.6,0.2,1.6,1.6,2.4l34.3,19.8c0.3,0.2,0.6,0.4,1,0.6l1,0.6
	C944.5,1007.5,945,1007.8,945.5,1008L945.5,1008z M943,1014.7c0.2-1.1,0.5-2.2,0.7-3.4c-0.6-0.3-1.1-0.7-1.7-1
	c-0.7-0.4-1.3-0.8-2-1.1c-0.1-0.1-0.4,0.1-0.4,0.3c-0.4,2.3-0.8,4.5-1.1,6.8c-0.1,0.5,0,0.8,0.5,1.1l0,0c0.4,0.2,0.8,0.4,1.2,0.7
	c0.4,0.2,0.8,0.5,1.2,0.7c0.5,0.3,0.6,0.1,0.7-0.4C942.5,1017.3,942.8,1016,943,1014.7 M908.8,999.5c0,0.2,0.3,0.7,0.5,0.8
	c0.6,0.4,1.2,0.7,1.8,1l1.5,0.9c-0.4-3.2-0.8-6.1-1.2-9.1c0-0.2-0.3-0.6-0.4-0.7c-0.6-0.4-1.3-0.8-2-1.2c-0.5-0.3-1-0.6-1.5-0.9
	c0,0.2-0.1,0.3-0.1,0.5C907.8,993.7,908.3,996.6,908.8,999.5 M914.5,1001c0.3,2.5,0.3,2.4,2.3,3.6c0.3,0.1,0.5,0.3,0.8,0.4
	c0.1,0.1,0.3,0.2,0.4,0.3c0.4,0.2,0.5,0.1,0.5-0.4c-0.2-2.6-0.4-5.3-0.6-7.9c0-0.3-0.3-0.8-0.5-0.9c-0.6-0.4-1.3-0.8-1.9-1.2
	c-0.6-0.4-1.2-0.7-1.9-1.1C913.9,996.4,914.2,998.7,914.5,1001 M935.5,1015.5c0.6,0.3,0.7,0.1,0.8-0.5c0.2-1.2,0.4-2.3,0.6-3.4
	c0.2-1.2,0.4-2.5,0.6-3.9c-0.7-0.4-1.3-0.8-2-1.1c-0.4-0.3-0.9-0.5-1.3-0.8c-0.1,0-0.1-0.1-0.2-0.1c-0.7-0.4-0.9-0.2-1,0.6
	c-0.2,2.3-0.4,4.5-0.6,6.8c0,0.5,0.1,0.8,0.6,1.1l0,0c0.4,0.2,0.9,0.5,1.3,0.7c0.3,0.2,0.7,0.4,1,0.6
	C935.4,1015.4,935.4,1015.4,935.5,1015.5 M912.8,1014c0.5,0.3,0.9,0.5,1.4,0.8c-0.4-3.2-0.8-6.2-1.2-9.2c0-0.2-0.2-0.6-0.4-0.6
	c-0.6-0.4-1.2-0.7-1.8-1.1c-0.5-0.3-0.9-0.5-1.4-0.8c0.5,3.3,1,6.3,1.5,9.3c0,0.2,0.3,0.6,0.4,0.7
	C911.8,1013.4,912.2,1013.7,912.8,1014 M940.2,1028.1c0.4-2.1,0.9-4.2,1.4-6.5c-0.6-0.4-1.2-0.7-1.8-1c-0.4-0.2-0.7-0.4-1.1-0.6
	c-0.5-0.3-0.7-0.2-0.8,0.4c-0.3,1.8-0.6,3.6-0.9,5.4c-0.1,0.6-0.2,1.3-0.3,2.1c0.5,0.3,1,0.5,1.4,0.8c0.3,0.2,0.5,0.3,0.8,0.5
	c0.1,0,0.1,0.1,0.2,0.1c0.6,0.3,0.8,0.2,0.9-0.5C940,1028.5,940.1,1028.3,940.2,1028.1 M924.5,1001.2c0-0.7-0.2-1.1-0.8-1.5
	c0,0-0.1,0-0.1-0.1c-0.4-0.2-0.9-0.5-1.3-0.7c-0.5-0.3-0.9-0.6-1.4-0.8l-0.1,0c-0.5-0.3-0.7-0.2-0.6,0.5c0.2,2.5,0.4,5,0.6,7.5
	c0,0.6,0.2,1,0.7,1.3l0.1,0c0.8,0.4,1.5,0.8,2.2,1.3l0.1,0.1c0.5,0.3,0.7,0.1,0.6-0.4c0-1.2,0-2.4,0-3.6
	C924.5,1003.5,924.5,1002.3,924.5,1001.2 M934.9,1023.5c0.3-1.7,0.5-3.4,0.8-5.2c-0.5-0.3-1-0.6-1.5-0.9c-0.6-0.3-1.2-0.7-1.7-1
	c-0.1-0.1-0.4,0.2-0.4,0.3c-0.2,2.4-0.4,4.8-0.7,7.3c0,0.4,0.1,0.8,0.5,1l0,0l0.1,0.1c0.2,0.1,0.3,0.2,0.5,0.3
	c0.1,0.1,0.3,0.2,0.4,0.3c0.3,0.1,0.5,0.3,0.7,0.4c0.3,0.1,0.6,0,0.7-0.3C934.7,1025.1,934.8,1024.3,934.9,1023.5 M930.9,1004.6
	c0-0.5-0.1-0.8-0.6-1.1c-1-0.5-2-1.1-2.9-1.7c-0.5-0.3-0.6,0-0.6,0.5c0,1.2,0,2.4,0,3.6c0,1.2,0,2.5,0,3.7c0,0.5,0.1,0.9,0.6,1.2
	l0.1,0c0.3,0.2,0.6,0.4,1,0.5c0.4,0.2,0.8,0.5,1.2,0.7l0,0c0.4,0.2,0.6,0.1,0.7-0.3C930.4,1009.3,930.6,1007,930.9,1004.6
	 M918.2,1017.1l1.1,0.6l-0.4-8.4c0-0.3-0.3-0.9-0.4-1c-0.5-0.3-1.1-0.7-1.6-1c-0.5-0.3-1.1-0.6-1.6-0.9c0.4,3.2,0.8,6.2,1.3,9.3
	c0,0.2,0.2,0.5,0.4,0.6C917.3,1016.6,917.7,1016.8,918.2,1017.1 M929.8,1016c0.1-1.1,0.1-1.1-1-1.8c-0.3-0.2-0.6-0.3-0.8-0.5
	c-0.2-0.1-0.3-0.2-0.5-0.3c0,0-0.1-0.1-0.1-0.1c-0.5-0.3-0.7-0.1-0.7,0.5c0,1.2,0,2.3,0,3.5l0,1.3c0,0.5,0,0.9,0,1.4
	c0,2.1-0.2,1.6,1.6,2.7l0.1,0.1c0.6,0.3,0.8,0.2,0.9-0.5C929.4,1020.3,929.6,1018.2,929.8,1016 M924.5,1016.2c0-1.2,0-2.5,0-3.7
	c0-0.5-0.2-0.9-0.6-1.1l-0.1,0c-0.3-0.2-0.7-0.4-1-0.5c-0.4-0.2-0.7-0.4-1.1-0.6l-0.1,0c-0.4-0.3-0.6-0.1-0.6,0.5
	c0.2,2.1,0.3,4.2,0.5,6.3c0.2,2,0.2,2.3,1.3,2.9c0.2,0.1,0.5,0.3,0.9,0.5c0.5,0.3,0.7,0.2,0.7-0.4
	C924.4,1018.7,924.5,1017.5,924.5,1016.2 M935.3,1042.5c2.3,1.3,4,4.3,4,7c0,2.6-1.8,3.6-4,2.3c-2.3-1.3-4.1-4.4-4-6.9
	C931.2,1042.2,933,1041.2,935.3,1042.5z"/>
<path class="st14" d="M780.9,311.7l0,4.1l-5.9-3.4l-0.1,35.5l5.9,3.4l0,4.1l-9.6-5.5l0.1-43.7L780.9,311.7z M788.5,346.1
	c1.7,1,3.2,3.4,3.2,5.4c0,2-1.4,2.8-3.2,1.8s-3.1-3.4-3.1-5.5C785.3,345.9,786.7,345.1,788.5,346.1L788.5,346.1z M800.4,353
	c1.7,1,3.2,3.4,3.2,5.4s-1.4,2.8-3.2,1.8c-1.8-1-3.1-3.4-3.1-5.5C797.2,352.7,798.6,352,800.4,353L800.4,353z M812.2,359.8
	c1.7,1,3.2,3.4,3.2,5.4c0,2-1.4,2.8-3.2,1.8c-1.8-1-3.1-3.4-3.1-5.5C809.1,359.6,810.5,358.8,812.2,359.8L812.2,359.8z M829.6,339.8
	l-0.1,43.7l-9.6-5.5l0-4.1l5.9,3.4l0.1-35.5l-5.9-3.4l0-4.1L829.6,339.8z"/>
<path class="st14" d="M907,395.7l0,5.4l-14.5-0.8l0,0.5l14.4,16l0,5.4l-19.3-21.4l0-5.9L907,395.7z M933.2,404.5L915.3,438l-4.1-2.4
	l17.9-33.5L933.2,404.5z M937.3,413.2l19.3,21.4l0,5.9l-19.3-0.9l0-5.4l14.5,0.7l0-0.5l-14.4-15.8L937.3,413.2z"/>
<path class="st14" d="M661.7,255.1c4.3,2.5,7.9,6.4,10.8,11.8l-3,2c-2.5-4.2-4.6-6.6-7.9-8.5c-5.5-3.2-10-1.3-10,5.4
	c0,6.7,4.5,14.1,9.6,17c2.9,1.7,5,2,7.9,0.6l3,5.3c-3,2.1-6.6,1.9-10.8-0.6c-8.3-4.8-14.7-15.2-14.6-25
	C646.7,253.9,652.7,250,661.7,255.1z M687.2,274.2l0,8.6l7.6,4.4l0,4.3l-7.6-4.4l0,8.7l-3.6-2.1l0-8.7l-7.6-4.4l0-4.3l7.6,4.4l0-8.6
	L687.2,274.2z M709.9,287.3l0,8.6l7.6,4.4l0,4.3l-7.6-4.4l0,8.7l-3.6-2.1l0-8.7l-7.6-4.4l0-4.3l7.6,4.4l0-8.6L709.9,287.3z"/>
<path class="st14" d="M839.7,833.4l-0.1,19.6c0,3.7-2.6,5.2-5.8,3.3l-67.2-38.8c-3.2-1.8-5.8-6.3-5.8-10l0-10.3
	c2.3-2.2,4.7-3.8,7.3-5.2c0.4-0.2,0.9-0.5,1.5-0.3c0.2,0.1,0.4,0.2,0.7,0.3c1,0.6,1.9,1.8,2.6,2.8c2.5,4,3.7,8.1,5.8,12.1
	c1.7,3.5,4.7,7.4,7.8,9.3c0.4,0.3,0.9,0.5,1.4,0.7c3,1.1,4.9-0.5,6.5-2.1c6.5-6.5,13-13,19.5-19.5c1.1-1.1,2.7-2.2,4.8-0.9
	c0.1,0.1,0.2,0.1,0.3,0.2c1.8,1.2,3.1,3.4,4.1,5.4C828.7,810.9,834.2,821.7,839.7,833.4z M789.9,769.9c4.7,2.7,8.5,9.3,8.5,14.7
	c0,5.4-3.9,7.6-8.6,4.9s-8.5-9.3-8.5-14.7C781.3,769.3,785.2,767.1,789.9,769.9z"/>
<g>
	<path class="st14" d="M686.3,607.3c0,0.4,0,0.7-0.1,1c-0.5,2.8-2.8,3.7-5.5,2.1c-2.7-1.6-5-5.1-5.4-8.4c-0.1-0.4-0.1-0.8-0.1-1.1
		L686.3,607.3L686.3,607.3z"/>
	<path class="st14" d="M689.2,607.8c0.6,0.3,1,1.1,1,1.6c0,0.6-0.4,0.9-1,0.5l-2.9-1.7c0.1-0.3,0.1-0.7,0.1-1l-11.1-6.4
		c0,0.4,0,0.8,0.1,1.1l-3-1.7c-0.6-0.3-1-1-1-1.6c0-0.6,0.4-0.9,1-0.5L689.2,607.8L689.2,607.8z M681,540.4
		c12.7,7.3,23.1,25.2,23.1,40c0,8.2-3.2,14-8.8,15.8c-2.2,0.7-4,2.4-5.1,4.9l-0.9,0.2l-8.4-4.8c0.5,0.3,1,0,1-0.5l0-1.1l6.8,3.9
		c1.2-2.4,3.2-4.1,5.5-4.9c5.1-1.7,8.1-7,8.1-14.5c0-13.6-9.6-30-21.2-36.7c-1.5-0.9-3-1.6-4.6-2.1c-8.2-2.8-14.7,1.1-16.3,9.7
		c-1.5,8.1,1.2,18.5,7.2,27.8c2.4,3.7,4.4,7.7,5.7,11.7l6.9,4l0,1.1c0,0.6,0.4,1.3,1,1.6l-8.5-4.9l-0.9-1.2
		c-1.2-3.8-3.1-7.7-5.5-11.4c-6.5-10.1-9.5-21.4-7.8-30.3c1.7-9.3,8.9-13.5,17.8-10.5C677.7,538.7,679.4,539.5,681,540.4L681,540.4z
		"/>
	<path class="st14" d="M681.9,572.5l-0.1,22.3l0,1.1c0,0.6-0.4,0.8-1,0.5c-0.6-0.3-1-1.1-1-1.6l0-1.1l0.1-22.3L681.9,572.5
		L681.9,572.5z"/>
	<path class="st14" d="M685.4,572.4c0.5,0.3,1,1.1,1,1.6c0,0.6-0.4,0.8-1,0.5l-3.6-2.1l-1.9-1.1l-3.6-2.1c-0.5-0.3-1-1-1-1.6
		c0-0.6,0.4-0.8,1-0.5L685.4,572.4L685.4,572.4z"/>
</g>
<path class="st15" d="M567.7,872l-0.1,21.6c0,2-1.3,4-3.9,5.5l-81.6,47.4c-5.3,3.1-13.9,3.1-19.2,0l-82.1-47.4c-2.7-1.6-4-3.6-4-5.6
	l0.1-21.6c0,2,1.4,4.1,4,5.6l82.1,47.4c5.3,3.1,13.9,3.1,19.2,0l81.6-47.4C566.4,876,567.7,874,567.7,872L567.7,872z"/>
<path class="st21" d="M563.7,866.4c5.3,3.1,5.3,8.1,0.1,11.1L482.1,925c-5.3,3.1-13.9,3.1-19.2,0l-82.1-47.4
	c-5.3-3.1-5.4-8.1-0.1-11.1l81.6-47.4c5.3-3.1,13.9-3.1,19.2,0L563.7,866.4z"/>
<path class="st22" d="M567.7,841l-0.1,21.6c0,2-1.3,4-3.9,5.5l-81.6,47.4c-5.3,3.1-13.9,3.1-19.2,0l-82.1-47.4c-2.7-1.6-4-3.6-4-5.6
	l0.1-21.6c0,2,1.4,4.1,4,5.6l82.1,47.4c5.3,3.1,13.9,3.1,19.2,0l81.6-47.4C566.4,845.1,567.7,843.1,567.7,841L567.7,841z"/>
<path class="st21" d="M563.7,835.4c5.3,3.1,5.3,8.1,0.1,11.1L482.1,894c-5.3,3.1-13.9,3.1-19.2,0l-82.1-47.4
	c-5.3-3.1-5.4-8.1-0.1-11.1l81.6-47.4c5.3-3.1,13.9-3.1,19.2,0L563.7,835.4z"/>
<path class="st23" d="M567.7,810.1l-0.1,21.6c0,2-1.3,4-3.9,5.5l-81.6,47.4c-5.3,3.1-13.9,3.1-19.2,0l-82.1-47.4
	c-2.7-1.6-4-3.6-4-5.6l0.1-21.6c0,2,1.4,4.1,4,5.6l82.1,47.4c5.3,3.1,13.9,3.1,19.2,0l81.6-47.4
	C566.4,814.1,567.7,812.1,567.7,810.1L567.7,810.1z"/>
<path class="st21" d="M563.7,804.5c5.3,3.1,5.3,8.1,0.1,11.1L482.1,863c-5.3,3.1-13.9,3.1-19.2,0l-82.1-47.4
	c-5.3-3.1-5.4-8.1-0.1-11.1l81.6-47.4c5.3-3.1,13.9-3.1,19.2,0L563.7,804.5z"/>
<path class="st24" d="M495.5,771.1l0,10.6L493,791l0-10.6L495.5,771.1z M442.2,782.3l0,10.6l-4.8-9l0-10.6L442.2,782.3z
	 M523.9,790.2l0,10.6l-13.2,5.4l0-10.6L523.9,790.2z M428.3,798.8l0,10.6l-14.3-4.4l0-10.6L428.3,798.8z"/>
<path class="st24" d="M489.3,800.4l0,10.6c0-3-2.1-5.9-5.7-8c-2-1.2-4.5-2.1-7.4-2.7c-10.3-2-21.2,1.1-24.6,7c-0.7,1.2-1,2.4-1,3.6
	l0-10.6c0-1.2,0.3-2.4,1-3.6c3.4-5.9,14.4-9,24.6-7c2.9,0.6,5.4,1.5,7.4,2.7C487.2,794.5,489.3,797.4,489.3,800.4L489.3,800.4z
	 M511.5,800.2l0,10.6c0,0.5,0,1.1-0.1,1.6l0-10.6C511.4,801.2,511.5,800.7,511.5,800.2L511.5,800.2z M428.2,810.8l0-10.6
	c0,1.6,0.3,3.2,0.8,4.8l0,10.6C428.5,814,428.2,812.4,428.2,810.8z M520.5,815.3l0,10.6l-16-1.5l0-10.6L520.5,815.3z"/>
<path class="st24" d="M525.7,806.2l0,10.6l-5.2,9l0-10.6L525.7,806.2z M504.5,813.8l0,10.6c-2,1.7-4.3,3.3-7,4.6l0-10.6
	C500.2,817,502.5,815.5,504.5,813.8z M438.8,816.3l0,10.6l-15.5,2.7l0-10.6L438.8,816.3z"/>
<path class="st24" d="M423.3,819l0,10.6l-7.4-8.6l0-10.6L423.3,819z M446.8,820.3l0,10.6c-2.2-0.9-4.2-1.8-6-2.8
	c-0.7-0.4-1.3-0.8-1.9-1.2l0-10.6c0.6,0.4,1.3,0.8,1.9,1.2C442.6,818.5,444.6,819.5,446.8,820.3z M477.9,824l0,10.6
	c-3.4,0.4-6.9,0.6-10.4,0.4l0-10.6C471,824.5,474.6,824.4,477.9,824z M487.4,831.6l0,10.6l-9.5-7.6l0-10.6L487.4,831.6z"/>
<path class="st24" d="M502.3,827.3l0,10.6l-14.8,4.3l0-10.6L502.3,827.3z M467.5,824.3l0,10.6l-7.7,8.3l0-10.6L467.5,824.3z"/>
<path class="st18" d="M497.5,818.4l4.8,9l-14.8,4.3l-9.5-7.6c-3.4,0.4-6.9,0.6-10.4,0.4l-7.7,8.3l-15.6-3.1l2.6-9.3
	c-2.2-0.9-4.2-1.8-6-2.8c-0.7-0.4-1.3-0.8-1.9-1.2l-15.5,2.7l-7.4-8.6l13.2-5.4c-0.7-2-0.9-4-0.7-6.1l-14.3-4.4l5.3-9.1l16,1.5
	c2.1-1.8,4.4-3.3,7-4.6l-4.8-9l14.8-4.3l9.5,7.6c3.4-0.4,6.9-0.5,10.5-0.4l7.6-8.3l15.7,3.1l-2.5,9.3c2.1,0.8,4.1,1.7,6,2.8
	c0.6,0.4,1.3,0.7,1.8,1.1l15.6-2.7l7.4,8.6l-13.2,5.4c0.7,2,0.9,4,0.7,6.1l14.4,4.5l-5.2,9l-16-1.5
	C502.5,815.5,500.2,817,497.5,818.4L497.5,818.4z M463.7,811c10.1,2,21.2-1.1,24.6-7c2.4-4.2,0.3-8.7-4.7-11.6
	c-2-1.2-4.5-2.1-7.4-2.7c-10.3-2-21.2,1.1-24.6,7c-2.4,4.2-0.4,8.6,4.7,11.6C458.2,809.5,460.7,810.4,463.7,811"/>
<path class="st24" d="M459.8,832.6l0,10.6l-15.6-3.1l0-10.6L459.8,832.6z"/>
<path class="st15" d="M1313,1304.1l-0.1,21.6c0,2-1.3,4-3.9,5.5l-81.6,47.4c-5.3,3.1-13.9,3.1-19.2,0l-82.1-47.4
	c-2.7-1.6-4-3.6-4-5.6l0.1-21.6c0,2,1.4,4.1,4,5.6l82.1,47.4c5.3,3.1,13.9,3.1,19.2,0l81.6-47.4
	C1311.7,1308.1,1313,1306.1,1313,1304.1z"/>
<path class="st21" d="M1309,1298.5c5.3,3.1,5.3,8.1,0.1,11.1l-81.6,47.4c-5.3,3.1-13.9,3.1-19.2,0l-82.1-47.4
	c-5.3-3.1-5.4-8.1-0.1-11.1l81.6-47.4c5.3-3.1,13.9-3.1,19.2,0L1309,1298.5z"/>
<path class="st22" d="M1313,1273.1l-0.1,21.6c0,2-1.3,4-3.9,5.5l-81.6,47.4c-5.3,3.1-13.9,3.1-19.2,0l-82.1-47.4
	c-2.7-1.6-4-3.6-4-5.6l0.1-21.6c0,2,1.4,4.1,4,5.6l82.1,47.4c5.3,3.1,13.9,3.1,19.2,0l81.6-47.4
	C1311.7,1277.1,1313,1275.1,1313,1273.1z"/>
<path class="st21" d="M1309,1267.5c5.3,3.1,5.3,8.1,0.1,11.1l-81.6,47.4c-5.3,3.1-13.9,3.1-19.2,0l-82.1-47.4
	c-5.3-3.1-5.4-8.1-0.1-11.1l81.6-47.4c5.3-3.1,13.9-3.1,19.2,0L1309,1267.5z"/>
<path class="st23" d="M1313,1242.1l-0.1,21.6c0,2-1.3,4-3.9,5.5l-81.6,47.4c-5.3,3.1-13.9,3.1-19.2,0l-82.1-47.4
	c-2.7-1.6-4-3.6-4-5.6l0.1-21.6c0,2,1.4,4.1,4,5.6l82.1,47.4c5.3,3.1,13.9,3.1,19.2,0l81.6-47.4
	C1311.7,1246.2,1313,1244.2,1313,1242.1z"/>
<path class="st21" d="M1309,1236.5c5.3,3.1,5.3,8.1,0.1,11.1l-81.6,47.4c-5.3,3.1-13.9,3.1-19.2,0l-82.1-47.4
	c-5.3-3.1-5.4-8.1-0.1-11.1l81.6-47.4c5.3-3.1,13.9-3.1,19.2,0L1309,1236.5z"/>
<path class="st24" d="M1240.9,1203.1l0,10.6l-2.5,9.3l0-10.6L1240.9,1203.1z M1187.6,1214.4l0,10.6l-4.8-9l0-10.6L1187.6,1214.4z
	 M1269.2,1222.3l0,10.6l-13.2,5.4l0-10.6L1269.2,1222.3z M1173.6,1230.9l0,10.6l-14.3-4.4l0-10.6L1173.6,1230.9z"/>
<path class="st24" d="M1234.6,1232.5l0,10.6c0-3-2.1-5.9-5.7-8c-2-1.2-4.5-2.1-7.4-2.7c-10.3-2-21.2,1.1-24.6,7
	c-0.7,1.2-1,2.4-1,3.6l0-10.6c0-1.2,0.3-2.4,1-3.6c3.4-5.9,14.4-9,24.6-7c2.9,0.6,5.4,1.5,7.4,2.7
	C1232.5,1226.5,1234.6,1229.4,1234.6,1232.5z M1256.8,1232.2l0,10.6c0,0.5,0,1.1-0.1,1.6l0-10.6
	C1256.7,1233.3,1256.8,1232.8,1256.8,1232.2z M1173.5,1242.9l0-10.6c0,1.6,0.3,3.2,0.8,4.8l0,10.6
	C1173.8,1246.1,1173.5,1244.5,1173.5,1242.9z M1265.8,1247.4l0,10.6l-16-1.5l0-10.6L1265.8,1247.4z"/>
<path class="st24" d="M1271,1238.3l0,10.6l-5.2,9l0-10.6L1271,1238.3z M1249.8,1245.8l0,10.6c-2,1.7-4.3,3.3-7,4.6l0-10.6
	C1245.5,1249.1,1247.8,1247.6,1249.8,1245.8z M1184.1,1248.3l0,10.6l-15.5,2.7l0-10.6L1184.1,1248.3z"/>
<path class="st24" d="M1168.6,1251.1l0,10.6l-7.4-8.6l0-10.6L1168.6,1251.1z M1192.1,1252.4l0,10.6c-2.2-0.9-4.2-1.8-6-2.8
	c-0.7-0.4-1.3-0.8-1.9-1.2l0-10.6c0.6,0.4,1.3,0.8,1.9,1.2C1187.9,1250.6,1189.9,1251.6,1192.1,1252.4z M1223.3,1256.1l0,10.6
	c-3.4,0.4-6.9,0.6-10.4,0.4l0-10.6C1216.3,1256.6,1219.9,1256.5,1223.3,1256.1z"/>
<path class="st24" d="M1232.8,1263.7l0,10.6l-9.5-7.6l0-10.6L1232.8,1263.7z"/>
<path class="st24" d="M1247.6,1259.4l0,10.6l-14.8,4.3l0-10.6L1247.6,1259.4z M1212.8,1256.4l0,10.6l-7.7,8.3l0-10.6L1212.8,1256.4z
	"/>
<path class="st18" d="M1242.8,1250.5l4.8,9l-14.8,4.3l-9.5-7.6c-3.4,0.4-6.9,0.6-10.4,0.4l-7.7,8.3l-15.6-3.1l2.6-9.3
	c-2.2-0.9-4.2-1.8-6-2.8c-0.7-0.4-1.3-0.8-1.9-1.2l-15.5,2.7l-7.4-8.6l13.2-5.4c-0.7-2-0.9-4-0.7-6.1l-14.3-4.4l5.3-9.1l16,1.5
	c2.1-1.8,4.4-3.3,6.9-4.6l-4.8-9l14.8-4.3l9.5,7.6c3.4-0.4,6.9-0.5,10.5-0.4l7.6-8.3l15.7,3.1l-2.5,9.3c2.1,0.8,4.1,1.7,6,2.8
	c0.6,0.4,1.3,0.7,1.8,1.1l15.6-2.7l7.4,8.6l-13.2,5.4c0.7,2,0.9,4,0.7,6.1l14.4,4.5l-5.2,9l-16-1.5
	C1247.8,1247.6,1245.5,1249.1,1242.8,1250.5L1242.8,1250.5z M1209,1243c10.1,2,21.2-1.1,24.6-7c2.4-4.2,0.3-8.7-4.7-11.6
	c-2-1.2-4.5-2.1-7.4-2.7c-10.3-2-21.2,1.1-24.6,7c-2.4,4.2-0.4,8.6,4.7,11.6C1203.5,1241.5,1206.1,1242.5,1209,1243"/>
<path class="st24" d="M1205.1,1264.7l0,10.6l-15.6-3.1l0-10.6L1205.1,1264.7z"/>
<path class="st7" d="M237.6,797.1l-0.1,18.1c0,9.2-6.1,18.4-18.1,25.4c-24.3,14.1-63.9,14.1-88.4,0c-12.3-7.1-18.4-16.4-18.4-25.7
	l0.1-18.1c0,9.3,6.1,18.6,18.4,25.7c24.5,14.1,64,14.1,88.4,0C231.6,815.5,237.6,806.3,237.6,797.1L237.6,797.1z"/>
<path class="st21" d="M219.2,771.3c24.5,14.1,24.6,37,0.3,51.2c-24.3,14.1-63.9,14.1-88.4,0c-24.4-14.1-24.6-37-0.3-51.2
	C155.2,757.2,194.7,757.2,219.2,771.3L219.2,771.3z"/>
<path class="st25" d="M214.4,805.5l-4.5,2.6l-10.2-5.9l-5,2.5l2,1.2c3.5,2,5.3,3.9,5.6,5.6c0.3,1.7-0.7,3.3-3,4.6
	c-1.5,0.9-3.2,1.4-5.1,1.7c-2,0.3-4.1,0.2-6.3-0.3c-2.3-0.5-4.5-1.3-6.8-2.6c-1.7-1-3.2-2.1-4.4-3.3c-1.2-1.2-2-2.4-2.3-3.6l6.6-1.2
	c0.2,0.9,0.8,1.9,1.6,2.8c0.9,1,2,1.8,3.2,2.5c1.4,0.8,2.8,1.3,4.2,1.5c1.4,0.1,2.6-0.1,3.6-0.7c1-0.6,1.4-1.3,1.1-2.1
	c-0.3-0.8-1.5-1.8-3.6-3l-6.2-3.6l15-7.2L214.4,805.5L214.4,805.5z M185.5,788.4c1.8,1.1,3.1,2.1,3.9,3.3c0.8,1.1,1,2.2,0.7,3.3
	c-0.3,1.1-1.2,2-2.7,2.9c-1.3,0.8-2.8,1.3-4.5,1.7c-1.7,0.4-4.1,0.5-7.2,0.4l-10.9-0.2l10.6,6.1l-4.6,2.7l-18.5-10.7l3.7-2.1
	l18.3,0.3c1.9,0,3.5-0.1,4.5-0.2c1-0.2,1.9-0.5,2.6-0.9c1-0.6,1.4-1.2,1.2-1.9c-0.2-0.7-0.9-1.4-2.2-2.2c-1.1-0.6-2.3-1.1-3.5-1.3
	c-1.3-0.3-2.7-0.3-4-0.2l-1.5-3.9c2.4-0.3,4.9-0.2,7.3,0.3C181,786.2,183.4,787.1,185.5,788.4L185.5,788.4z"/>
<path class="st7" d="M190.7,894.5l-0.1,18.1c0,9.2-6.1,18.4-18.1,25.4c-24.3,14.1-63.9,14.1-88.4,0c-12.3-7.1-18.4-16.4-18.4-25.7
	l0.1-18.1c0,9.3,6.1,18.6,18.4,25.7c24.5,14.1,64,14.1,88.4,0C184.6,912.8,190.6,903.7,190.7,894.5z"/>
<path class="st21" d="M172.2,868.7c24.5,14.1,24.6,37,0.3,51.2c-24.3,14.1-63.9,14.1-88.4,0c-24.4-14.1-24.6-37-0.3-51.2
	C108.2,854.6,147.8,854.6,172.2,868.7z"/>
<path class="st25" d="M160.5,904.7c-1,1.6-2.8,3.2-5.4,4.7c-2.5,1.5-5.3,2.5-8.1,3.2c-2.8,0.6-5.4,0.7-8.1,0.4
	c-2.6-0.3-4.9-1.1-6.9-2.3c-2-1.2-3.4-2.5-3.9-4c-0.6-1.5-0.4-3.1,0.6-4.7c1-1.6,2.8-3.2,5.4-4.7c2.6-1.5,5.3-2.6,8.1-3.2
	c2.8-0.6,5.5-0.7,8.1-0.4c2.6,0.3,4.9,1.1,6.9,2.3c2,1.2,3.3,2.5,3.9,4C161.7,901.5,161.5,903.1,160.5,904.7L160.5,904.7z
	 M142.2,908.8c2.1-0.3,4.5-1.2,7.2-2.7c2.7-1.5,4.2-2.9,4.6-4.2c0.4-1.2-0.1-2.3-1.6-3.2s-3.3-1.2-5.4-0.9c-2.1,0.2-4.5,1.1-7.2,2.7
	c-2.7,1.6-4.2,2.9-4.6,4.2c-0.4,1.2,0.1,2.3,1.6,3.1C138.2,908.7,140,909,142.2,908.8 M142.4,888l-4.5,2.6l-10.2-5.9l-5,2.5l2,1.2
	c3.5,2,5.3,3.9,5.6,5.6c0.2,1.7-0.7,3.3-3,4.6c-1.5,0.9-3.2,1.4-5.2,1.7c-2,0.3-4.1,0.2-6.3-0.3s-4.5-1.3-6.7-2.6
	c-1.7-1-3.2-2.1-4.4-3.3c-1.2-1.2-2-2.4-2.3-3.6l6.5-1.2c0.3,0.9,0.8,1.9,1.6,2.8c0.8,0.9,1.9,1.7,3.2,2.5c1.4,0.8,2.8,1.3,4.2,1.5
	c1.4,0.1,2.6-0.1,3.6-0.7c1-0.6,1.4-1.3,1.1-2.1c-0.3-0.8-1.5-1.8-3.6-3l-6.3-3.6l15-7.2L142.4,888L142.4,888z"/>
<path class="st7" d="M362.3,869.5l-0.1,18.1c0,9.2-6.1,18.4-18.1,25.4c-24.3,14.1-63.9,14.1-88.4,0c-12.3-7.1-18.4-16.4-18.4-25.7
	l0.1-18.1c0,9.3,6.1,18.6,18.4,25.7c24.5,14.1,64,14.1,88.4,0C356.2,887.8,362.2,878.7,362.3,869.5z"/>
<path class="st21" d="M343.8,843.7c24.5,14.1,24.6,37,0.3,51.2c-24.3,14.1-63.9,14.1-88.4,0c-24.4-14.1-24.6-37-0.3-51.2
	C279.8,829.6,319.4,829.6,343.8,843.7z"/>
<path class="st26" d="M336.8,847.5l-8.4,4.9c-16.1-9.3-42.3-9.3-58.3,0c-16,9.3-15.9,24.5,0.2,33.8s42.3,9.3,58.3,0l8.5,4.9
	c-20.6,12-54.3,12-75.1,0c-20.8-12-20.9-31.5-0.2-43.5C282.3,835.5,316,835.5,336.8,847.5z"/>
<path class="st25" d="M330.8,874.2l-4.5,2.6l-10.2-5.9l-5,2.5l2,1.2c3.5,2,5.3,3.9,5.6,5.6c0.3,1.7-0.7,3.3-3,4.6
	c-1.5,0.9-3.2,1.4-5.2,1.7s-4.1,0.2-6.3-0.3c-2.3-0.5-4.5-1.3-6.7-2.6c-1.7-1-3.2-2.1-4.4-3.3c-1.2-1.2-2-2.4-2.3-3.6l6.5-1.2
	c0.3,0.9,0.8,1.9,1.6,2.8c0.8,0.9,1.9,1.7,3.2,2.5c1.4,0.8,2.8,1.3,4.2,1.5c1.4,0.1,2.6-0.1,3.6-0.7c1-0.6,1.4-1.3,1.1-2.1
	c-0.3-0.8-1.5-1.8-3.6-3l-6.3-3.6l15-7.2L330.8,874.2z M311.9,863.3l-3.7,2.1l-29.8,6.8l-6.1-3.5l28.5-6.4l-8.1-4.7l-4,2.3l-5-2.9
	l8.6-5L311.9,863.3z"/>
<path class="st27" d="M165.3,873.1l-8.4,4.9c-16.1-9.3-42.3-9.3-58.3,0s-15.9,24.5,0.2,33.8l-8.4,4.9c-20.8-12-20.9-31.5-0.2-43.5
	C110.8,861.1,144.5,861.1,165.3,873.1L165.3,873.1z"/>
<path class="st28" d="M218.6,778l-9.4,5.5c-18-10.4-47.2-10.4-65.1,0l-9.4-5.5C157.7,764.6,195.3,764.6,218.6,778z"/>
<path class="st17" d="M529.8,1066.9v24.9c0,1.4-0.9,2.8-2.7,3.8l-79.2,46.1c-3.7,2.1-9.6,2-13.1,0l-79.8-46.1
	c-1.8-1.1-2.7-2.4-2.7-3.8v-24.9c0,1.4,0.9,2.8,2.7,3.8l79.8,46.1c3.7,2,9.6,2.1,13.3,0l79.1-46.1
	C528.9,1069.7,529.8,1068.3,529.8,1066.9z"/>
<path class="st18" d="M527.1,1063.2c3.6,2.1,3.7,5.5,0,7.7l-79.2,46c-3.7,2.1-9.6,2.1-13.2,0l-79.8-46.1c-3.6-2.1-3.7-5.5,0-7.7
	l79.2-46c3.7-2.1,9.6-2.1,13.2,0L527.1,1063.2L527.1,1063.2z"/>
<path class="st14" d="M484.8,1077.7l-8.2,4.7l8.4,4.8l-4.1,2.4l-8.4-4.8l-8.2,4.8l-3.9-2.2l8.2-4.8l-8.4-4.8l4.1-2.4l8.4,4.8
	l8.2-4.7L484.8,1077.7z M460,1063.4l-8.2,4.7l8.4,4.8l-4.1,2.4l-8.4-4.8l-8.2,4.8l-3.9-2.3l8.2-4.8l-8.3-4.8l4.1-2.4l8.3,4.8
	l8.2-4.7L460,1063.4z M436.2,1044.9c4.7,2.7,6.9,6,6.6,9.9l-6.9,0.2c-0.1-3.1-1.3-5.1-5-7.2c-6-3.5-15.1-3.9-21.5-0.1
	c-6.3,3.7-5.9,9.2-0.3,12.4c3.1,1.8,6.3,2.7,12.3,2.8l-0.1,3.9c-6.9,0.2-12.5-1-17.2-3.7c-9.1-5.2-9.6-13-0.4-18.4
	C412.7,1039.6,426.3,1039.2,436.2,1044.9L436.2,1044.9z"/>
<path class="st12" d="M612.5,1218.7v24.9c0,1.4-0.9,2.8-2.7,3.8l-79.2,46.1c-3.7,2.1-9.6,2-13.1,0l-79.8-46.1
	c-1.8-1.1-2.7-2.4-2.7-3.8v-24.9c0,1.4,0.9,2.8,2.7,3.8l79.8,46.1c3.7,2,9.6,2.1,13.3,0l79.1-46.1
	C611.5,1221.4,612.5,1220.1,612.5,1218.7z"/>
<path class="st13" d="M609.7,1214.9c3.6,2.1,3.7,5.5,0,7.7l-79.2,46c-3.7,2.1-9.6,2.1-13.2,0l-79.8-46.1c-3.6-2.1-3.7-5.5,0-7.7
	l79.2-46c3.7-2.1,9.6-2.1,13.2,0L609.7,1214.9L609.7,1214.9z"/>
<path class="st14" d="M543,1249.1l-8.7,5.1l-49.2-28.4l8.7-5.1L543,1249.1z M562.7,1237.6l-8.6,5l-49.2-28.4l8.6-5L562.7,1237.6z
	 M582.5,1226.2l-8.7,5.1l-49.2-28.4l8.7-5.1L582.5,1226.2z M499.7,1198.9c3.4,1.9,3.4,5.4,0,7.3c-3.5,2-9.2,1.9-12.6,0
	c-3.5-2-3.5-5.2,0-7.3C490.5,1197,496.1,1196.9,499.7,1198.9L499.7,1198.9z M519.3,1187.5c3.4,1.9,3.4,5.4,0,7.3
	c-3.5,2-9.2,1.9-12.6,0c-3.5-2-3.5-5.2,0-7.3C510.2,1185.6,515.8,1185.4,519.3,1187.5L519.3,1187.5z M479.9,1210.4
	c3.4,1.9,3.5,5.3,0,7.3c-3.4,2-9.1,1.9-12.5,0c-3.5-2-3.5-5.2,0-7.2C470.8,1208.4,476.4,1208.3,479.9,1210.4z"/>
<path class="st23" d="M371.7,1179.7v24.9c0,1.4-0.9,2.8-2.7,3.8l-79.2,46.1c-3.7,2.1-9.6,2-13.1,0l-79.8-46.1
	c-1.8-1.1-2.7-2.4-2.7-3.8v-24.9c0,1.4,0.9,2.8,2.7,3.8l79.8,46.1c3.7,2,9.6,2.1,13.3,0l79.1-46.1
	C370.7,1182.4,371.7,1181,371.7,1179.7z"/>
<path class="st29" d="M368.9,1175.9c3.6,2.1,3.7,5.5,0,7.7l-79.2,46c-3.7,2.1-9.6,2.1-13.2,0l-79.8-46.1c-3.6-2.1-3.7-5.5,0-7.7
	l79.2-46c3.7-2.1,9.6-2.1,13.2,0L368.9,1175.9L368.9,1175.9z"/>
<path class="st14" d="M301.3,1179.9l13.7,21.5l-6.7,3.9l-37.1-7.9l6.1-3.6l27.7,5.9l0.6-0.3l-10.5-15.9L301.3,1179.9z M319.7,1171.3
	l-73,15.4l-5.4-3.1l73.1-15.4L319.7,1171.3z M293.2,1155.7l-6.1,3.5l-27.5-6l-0.6,0.3l10.3,16l-6.1,3.6l-13.8-21.4l6.7-3.9
	L293.2,1155.7z"/>
<path class="st30" d="M296.4,1029.5v24.9c0,1.4-0.9,2.8-2.7,3.8l-79.2,46.1c-3.7,2.1-9.6,2-13.1,0l-79.8-46.1
	c-1.8-1.1-2.7-2.4-2.7-3.8v-24.9c0,1.4,0.9,2.8,2.7,3.8l79.8,46.1c3.7,2,9.6,2.1,13.3,0l79.1-46.1
	C295.5,1032.3,296.4,1030.9,296.4,1029.5z"/>
<path class="st21" d="M293.7,1025.7c3.6,2.1,3.7,5.5,0,7.7l-79.2,46c-3.7,2.1-9.6,2.1-13.2,0l-79.8-46.1c-3.6-2.1-3.7-5.5,0-7.7
	l79.2-46c3.7-2.1,9.6-2.1,13.2,0L293.7,1025.7L293.7,1025.7z"/>
<path class="st17" d="M244.2,1050.6c-8.3,4.8-19.2,7.8-30.8,8.5l-1.1,0.1c-15.2,0.8-30.2-2.4-41-8.6c-10.8-6.3-16.3-14.9-15-23.7
	l0.1-0.6c1.3-6.7,6.4-13.1,14.7-17.9c8.3-4.8,19.2-7.8,30.8-8.5l1.1-0.1c7.6-0.4,15.1,0.2,22.1,1.7c1.2,0.3,2.4,0.6,3.6,0.9
	c1.3,0.3,2.7,0.7,4,1.2c1.6,0.5,3.2,1.1,4.7,1.7c2.2,0.9,4.4,2,6.5,3.2c10.8,6.3,16.3,14.9,15,23.7l-0.1,0.6
	C257.6,1039.5,252.5,1045.8,244.2,1050.6L244.2,1050.6z M213.6,1057.6c10.5-0.7,20.2-3.4,27.8-7.6l-17.6-10.2
	c-4.2,2.4-8.5,4.5-13,6.3C212.9,1049.8,213.9,1053.8,213.6,1057.6 M243.2,1049c7.2-4.4,11.8-10.1,13-16.2
	c-6.7,0.2-13.4-0.3-19.7-1.6c-3.1,2.5-6.7,5.1-10.9,7.6L243.2,1049 M172,1010c-7.2,4.4-11.8,10.1-13,16.2c6.7-0.2,13.4,0.3,19.7,1.6
	c3.1-2.5,6.7-5.1,10.9-7.6L172,1010 M201.7,1001.4c-10.5,0.7-20.2,3.4-27.9,7.6l17.6,10.2c4.2-2.4,8.5-4.5,13-6.3
	C202.3,1009.2,201.4,1005.3,201.7,1001.4 M166.6,1044.9c0.3,0.2,0.6,0.5,0.9,0.7c-0.8-4.5,2.7-10.4,9.7-16.6
	c-6.1-1.1-12.3-1.6-18.4-1.4l0,0.2c-0.1,0.9-0.1,1.8,0,2.6l0,0.4c0.1,0.9,0.2,1.8,0.4,2.6l0.1,0.4c0.3,0.9,0.5,1.7,0.9,2.6l0.2,0.3
	c0.4,0.9,0.9,1.7,1.4,2.6l0.2,0.3c0.6,0.9,1.2,1.7,1.9,2.5l0.2,0.2c0.7,0.8,1.5,1.6,2.4,2.4L166.6,1044.9 M210.6,1057.8l0.4,0
	c0.4-3.6-0.5-7.3-2.4-10.7c-10.6,4.1-20.9,6.1-28.6,5.7c0.4,0.2,0.8,0.3,1.2,0.5l0.2,0.1c1.4,0.5,2.8,1,4.2,1.4l0.4,0.1
	c1.4,0.4,2.9,0.8,4.3,1.1l0.4,0.1c1.5,0.3,3,0.6,4.5,0.8l0.5,0.1c1.5,0.2,3,0.4,4.5,0.5l0.6,0.1c1.5,0.1,3.1,0.2,4.6,0.2l0.6,0
	C207.5,1057.9,209.1,1057.8,210.6,1057.8 M204.7,1001.2l-0.4,0c-0.4,3.6,0.5,7.3,2.4,10.7c10.6-4.1,20.9-6.1,28.6-5.7
	c-0.4-0.2-0.8-0.3-1.2-0.5l-0.2-0.1c-1.4-0.5-2.8-1-4.2-1.4l-0.4-0.1c-1.4-0.4-2.9-0.8-4.3-1.1l-0.4-0.1c-1.5-0.3-2.9-0.6-4.4-0.8
	l-0.5-0.1c-1.5-0.2-3-0.4-4.5-0.5l-0.6-0.1c-1.5-0.1-3-0.2-4.6-0.2l-0.7,0C207.7,1001.1,206.2,1001.2,204.7,1001.2 M248.6,1014.1
	c-0.3-0.2-0.6-0.5-0.9-0.7c0.8,4.5-2.7,10.4-9.7,16.6c6.1,1.1,12.3,1.6,18.4,1.4l0-0.2c0.1-0.9,0.1-1.8,0-2.7l0-0.4
	c-0.1-0.9-0.2-1.8-0.4-2.7l-0.1-0.3c-0.2-0.9-0.6-1.8-0.9-2.6l-0.1-0.3c-0.4-0.9-0.9-1.8-1.4-2.6l-0.2-0.2c-0.6-0.9-1.2-1.7-1.9-2.5
	l-0.2-0.2c-0.8-0.8-1.6-1.7-2.4-2.4L248.6,1014.1 M217.8,1022.5l23.3-13.6c-6.5-2.8-19.8-0.9-33.4,4.4
	C210,1016.8,213.4,1019.9,217.8,1022.5 M243,1010l-23.3,13.6c4.6,2.5,9.9,4.5,15.8,5.8C244.5,1021.5,247.8,1013.8,243,1010
	 M172.3,1049l23.3-13.6c-4.6-2.6-9.9-4.5-15.8-5.8C170.7,1037.5,167.5,1045.2,172.3,1049 M174.2,1050c6.5,2.8,19.7,0.9,33.4-4.4
	c-2.3-3.4-5.7-6.5-10.1-9.1L174.2,1050 M197.5,1034.3l8.3-4.8l-14.3-8.3c-3.9,2.3-7.2,4.7-10.2,7
	C187.3,1029.7,192.8,1031.7,197.5,1034.3 M207.6,1028.4l8.3-4.8c-4.5-2.7-8-5.9-10.5-9.3c-4.2,1.7-8.2,3.7-12.1,5.9L207.6,1028.4
	 M207.6,1030.6l-8.3,4.8c4.5,2.7,8,5.9,10.5,9.3c4.2-1.7,8.2-3.7,12.1-5.9L207.6,1030.6 M217.8,1024.7l-8.3,4.8l14.3,8.3
	c3.9-2.3,7.3-4.7,10.2-7C227.9,1029.3,222.5,1027.3,217.8,1024.7"/>
<path class="st3" d="M898.9,1145l0,9.5c0,2.2-1.4,4.3-4.2,5.9l-8.3,4.8l0-9.5l8.2-4.8C897.5,1149.3,898.9,1147.1,898.9,1145
	L898.9,1145z"/>
<path class="st31" d="M886.4,1155.7l0,9.5l-211.9-122.3l0-9.5L886.4,1155.7z"/>
<path class="st5" d="M894.6,1139c5.7,3.3,5.7,8.6,0.1,11.9l-8.3,4.8l-211.9-122.3l8.3-4.8c5.7-3.3,14.9-3.3,20.6,0L894.6,1139z"/>
<path class="st32" d="M705.4,1034.5c2.5,1.4,2.5,3.8,0,5.2c-2.5,1.4-6.5,1.4-9,0c-2.5-1.4-2.5-3.8,0-5.2
	C698.9,1033,702.9,1033,705.4,1034.5z"/>
<path class="st0" d="M718.6,1042.1c2.5,1.4,2.5,3.8,0,5.2c-2.5,1.4-6.5,1.4-9,0c-2.5-1.4-2.5-3.8,0-5.2
	C712.1,1040.6,716.1,1040.6,718.6,1042.1z"/>
<path class="st19" d="M731.8,1049.7c2.5,1.4,2.5,3.8,0,5.2c-2.5,1.4-6.5,1.4-9,0c-2.5-1.4-2.5-3.8,0-5.2
	C725.3,1048.3,729.3,1048.3,731.8,1049.7z"/>
<path class="st33" d="M886.4,1155.7l0,9.5L745.7,1247l0-9.5L886.4,1155.7z"/>
<path class="st30" d="M745.7,1237.4l0,9.5l-211.9-122.3l0-9.5L745.7,1237.4z"/>
<path class="st21" d="M886.4,1155.7l-140.7,81.7l-211.9-122.3l140.7-81.7L886.4,1155.7z"/>
<path class="st33" d="M656.3,1099.3l-5.4,3.1l-33.6-19.4l5.4-3.1L656.3,1099.3z M683.4,1172.6l-5.3,3.1l-110.5-63.8l5.4-3.1
	L683.4,1172.6z M661.1,1140.5l-5.3,3.1l-71.6-41.3l5.4-3.1L661.1,1140.5z M728.8,1160.4l-5.3,3.1l-122.7-70.8l5.3-3.1L728.8,1160.4z
	 M808.4,1187.1l-5.3,3.1l-144.9-83.7l5.3-3.1L808.4,1187.1z M775.2,1206.4l-5.3,3.1L661.6,1147l5.3-3.1L775.2,1206.4z M735.9,1126
	l-5.4,3.1l-96.6-55.8l5.4-3.1L735.9,1126z M779.3,1151l-5.4,3.1l-38.3-22.1l5.4-3.1L779.3,1151z M791.8,1196.7l-5.3,3.1l-55.8-32.2
	l5.4-3.1L791.8,1196.7z M825,1177.4l-5.4,3.1l-35.8-20.7l5.4-3.1L825,1177.4z"/>
<path class="st33" d="M688.1,1079.2l-5.4,3.1l-32.2-18.6l5.3-3.1L688.1,1079.2z M841.6,1167.8l-5.3,3.1l-149.1-86.1l5.4-3.1
	L841.6,1167.8z"/>
<path class="st33" d="M858.2,1158.2l-5.3,3.1L667.2,1054l5.4-3.1L858.2,1158.2z M730.6,1199.9l-5.4,3.1l-38.9-22.4l5.4-3.1
	L730.6,1199.9z"/>
</svg>
