<svg xmlns="http://www.w3.org/2000/svg" viewBox="0 0 1399.54 2172.25"><g data-name="Layer 2"><g data-name="Layer 1"><g opacity=".7"><path fill="#bac1e3" d="M1296.58,0H471.1C406.69,0,347.94,52.22,339.88,116.63L222.37,1055.72c-8.06,64.41,37.62,116.63,102,116.63h825.48c64.41,0,123.16-52.22,131.22-116.63l117.51-939.09C1406.67,52.22,1361,0,1296.58,0Z"/><path fill="#97a0cc" d="M1296.58,0H471.1C406.69,0,347.94,52.22,339.88,116.63H1398.61C1406.67,52.22,1361,0,1296.58,0Z"/></g><g opacity=".7"><path fill="#fcd86d" d="M819.89,185.13H502.25c-21,0-40.2,17.05-42.83,38.07l-59.9,478.64c-2.63,21,12.28,38.07,33.31,38.07H750.47c21,0,40.21-17,42.84-38.07L853.2,223.2C855.83,202.18,840.92,185.13,819.89,185.13Z"/><path fill="#fc746d" d="M819.89,185.13H502.25c-21,0-40.2,17.05-42.83,38.07l-3.68,29.37H849.52l3.68-29.37C855.83,202.18,840.92,185.13,819.89,185.13Z"/></g><g opacity=".7"><path fill="#fff" d="M928.44,361.77H728.14c-15.63,0-29.89,12.67-31.85,28.3L667.78,617.94c-2,15.63,9.13,28.3,24.76,28.3h200.3c15.63,0,29.89-12.67,31.85-28.3L953.2,390.07C955.16,374.44,944.07,361.77,928.44,361.77Z"/><path fill="#fc746d" d="M928.44,361.77H728.14c-15.63,0-29.89,12.67-31.85,28.3l-2.73,21.83H950.47l2.73-21.83C955.16,374.44,944.07,361.77,928.44,361.77Z"/></g><path fill="#423345" d="M31,1994.55S6.74,2006,2.88,2020.35s16.57,25.13,30.17,35.23,45.42,33.56,56.68,35.36,20.42-.58,6.39-18.7-32.3-53.19-34.33-64.11S38.65,1991.87,31,1994.55Z"/><path fill="#e8ac97" d="M50.7,1967.84s-6.22,12.82-11.47,25.31c-2.42,5.75-1.36,9.85,3.47,13,3.21,2.07,9.76.59,11.58-2.76L68,1978.07Z"/><path fill="#423345" d="M496.12,2090.58s-21.26,16.32-22,31.21,21.54,21,37,28,51.54,23.1,62.92,22.46,19.82-4.93,2.25-19.63-42.9-45.08-47.21-55.32S503,2086.33,496.12,2090.58Z"/><path fill="#e8ac97" d="M509.68,2060.29s-3.34,13.85-5.81,27.17c-1.13,6.14.77,9.91,6.16,11.93,3.57,1.34,9.66-1.5,10.72-5.16l8-27.64Z"/><path fill="#fcd86d" d="M188.5,1233.33l-71,43.67s-40.57,92.13-20,202.78c12.7,68.18-3,138.06-40.74,196.24-53.83,83-98.4,206.45,8.39,311.51,0,0,95.72-169.69,150.84-255.27s161-188.55,161-188.55Z"/><path fill="#e8ac97" d="M588.9,566.87s27.83-4,39.68-26.35,28.87-44.39,30.6-53.86-8.84-14.87-17.89-5.82a214.44,214.44,0,0,1-19.6,17s9-26.5,20.68-33,17.88-15.52,14-20.9-20.47-1.51-20.47-1.51-10.77-2.8-19.6,3.66c-8,5.87-57.24,38.11-45.1,87Z"/><path fill="#636b96" d="M252.27,550.19s31.29-42.45,317-36.17c0,0,23.52,26.74,20.05,52.84L393.68,659Z"/><path fill="#fcd86d" d="M435.86,1120.7A342.18,342.18,0,0,1,386.28,894c3.26-24.84,8.55-49.81,16.83-72.57,25.09-69,2.7-160.24-11.75-205.8-6-18.79-.24-39.09-18.6-46.23-119-46.33-239-48.62-296.38-42.69a65.93,65.93,0,0,0-55.75,44.25C9.32,604,3.8,654.87,40.51,711.18c63.82,97.9,86.3,315.46,86.3,315.46-87,187.73-23,251.26,22.91,272.46A72.36,72.36,0,0,1,190.85,1352c18.53,105.21,73.67,186.59,123.67,241.35,51.82,56.74,78.55,132.14,70.81,208.59-29,287.09,144,271.22,144,271.22C674.52,1588.49,521.46,1256.44,435.86,1120.7Z"/><path fill="#636b96" d="M233.41,1053.84c68.53,54.39,176.41,16.69,176.41,16.69l.07-.08A342.72,342.72,0,0,1,386.28,894c3.26-24.84,8.55-49.81,16.83-72.57,25.09-69,2.7-160.24-11.75-205.8-6-18.79-.24-39.09-18.6-46.23-119-46.33-239-48.62-296.38-42.69a65.93,65.93,0,0,0-55.75,44.25C9.32,604,3.8,654.87,40.51,711.18c63.82,97.9,86.3,315.46,86.3,315.46S164.88,999.45,233.41,1053.84Z"/><path fill="#636b96" d="M719.3,540S636.81,627.26,592,688.83c-12.93,17.76-33.89,12.19-51.4-1.09-44.63-33.85-90.61-75-136.73-104.2-83.91-53.07-156,22.73-125.37,117.18,27,83.3,94.13,179.84,260.24,180.21A133.45,133.45,0,0,0,645.1,828.36c39.39-51.85,105.56-158.52,125.69-258.21Z"/><path fill="#e8ac97" d="M86.11,525.82s102.34-14.8,119.74-170l52.22,15.23,52.21,111S258.65,489.36,285,542.5l39.35,10.35s-54.68,66.4-185.94,38.39C138.41,591.24,83.12,579.06,86.11,525.82Z"/><path fill="#e8ac97" d="M719.37,542.84s1.84-30.32,14.93-44.1,15.63-20.45,19.07-24.82,9.65,3,9.88,9.19,16.08-11,26.19-14.7,20.68-.23,22.51,5.28c0,0,13.56-2.52,19.3,4.14s-1.15,11-7.81,12.63c0,0,14-1.14,13.78,8s-11.48,12.18-11.48,12.18,3.67,12.41-5.52,18.15S786,561.91,773.59,568.11,723.28,566.51,719.37,542.84Z"/><path fill="#423345" d="M369.73,329.81s86.32-21.44,16.7-104.84S198.6,240.2,198.6,240.2,54.07,328,188.34,429.15c0,0,63.56-9.23,84-27.66S369.73,329.81,369.73,329.81Z"/><path fill="#fcc9b8" d="M232.32,347.23s-3.55-18.71-30.64-15.48S185.55,412.06,230.07,404c0,0,4.83,29.67,15.48,38.38s56.77,43.55,80,42.9,56.77-101.93,44.19-155.47c0,0-12.58-4.84-56.12-5.16S253,355.94,245.87,362.71,232.32,347.23,232.32,347.23Z"/><path d="M314.52,1593.29c-50-54.75-105.14-136.13-123.67-241.34a70.86,70.86,0,0,0-12.35-29c.32,1.11,136,477.89-174.75,555,7.15,37.09,25.66,74.33,61.42,109.5,0,0,95.72-169.69,150.84-255.27,28.72-44.58,71.13-93.77,105.25-130.78C319,1598.77,316.91,1595.92,314.52,1593.29Z" style="mix-blend-mode:multiply" fill="#fce1b3"/><path d="M435.86,1120.7A332.43,332.43,0,0,1,408,1065.47c.66,1.65,1.2,3.34,1.89,5l-.07.08s-83.29,29.06-150-.79c77.53,50.61,301.59,227.4,329.36,595.46l0,.27C585.58,1400.44,494.76,1214.1,435.86,1120.7Z" style="mix-blend-mode:multiply" fill="#fce1b3"/><path d="M743.91,566.85v0c-87.8,450.68-466.7,53.91-466.7,53.91h0c-7.79,22.55-8.3,50.32,1.3,79.94,27,83.3,94.13,179.84,260.24,180.21A133.45,133.45,0,0,0,645.1,828.36c39.39-51.85,105.56-158.52,125.69-258.21l-1.4-.82C762.76,570.78,753.14,570.05,743.91,566.85Z" style="mix-blend-mode:multiply" fill="#d7cdd7"/><path d="M285,542.5l.38.1c12,2.78,24.17,6,36.42,9.58l2.55.67,0,0c16.06,4.76,32.26,10.19,48.45,16.48l.06,0a117.59,117.59,0,0,1,31,14.13c19.81,12.54,39.59,27.32,59.25,42.75l126.25-59.43c1.23-9.27-1-18.58-4.32-26.78-21.5,21.87-82.4,34-118.82,3.07C435.12,516.71,389,518,376.06,519c-46.36,4.41-75.62,10.76-94,16.59C282.91,537.82,283.79,540.06,285,542.5Z" style="mix-blend-mode:multiply" fill="#d7cdd7"/><g opacity=".7"><path fill="#fff" d="M1126.49,719.14H874.56a14,14,0,0,0-13.48,12,10.34,10.34,0,0,0,10.48,12h251.93a14,14,0,0,0,13.48-12A10.34,10.34,0,0,0,1126.49,719.14Z"/><path fill="#fc746d" d="M1141.64,779.06H867.06a14,14,0,0,0-13.48,12,10.36,10.36,0,0,0,10.48,12h274.58a14,14,0,0,0,13.48-12A10.34,10.34,0,0,0,1141.64,779.06Z"/><path fill="#fff" d="M1134.14,839H859.57a14,14,0,0,0-13.49,12,10.36,10.36,0,0,0,10.49,12h274.57a14,14,0,0,0,13.48-12A10.35,10.35,0,0,0,1134.14,839Z"/><path fill="#fff" d="M1126.64,898.9H852.07a14,14,0,0,0-13.49,12,10.36,10.36,0,0,0,10.49,12h274.57a14,14,0,0,0,13.49-12A10.36,10.36,0,0,0,1126.64,898.9Z"/><path fill="#fff" d="M1119.14,958.82H844.57a14,14,0,0,0-13.48,12,10.34,10.34,0,0,0,10.48,12h274.57a14,14,0,0,0,13.49-12A10.36,10.36,0,0,0,1119.14,958.82Z"/><path fill="#fff" d="M1005.12,1018.75h-168a14,14,0,0,0-13.48,12,10.34,10.34,0,0,0,10.48,12h168a14,14,0,0,0,13.48-12A10.34,10.34,0,0,0,1005.12,1018.75Z"/></g><g opacity=".7"><path fill="#bac1e3" d="M1136.46,1243.29H804.33c-25.92,0-49.56,21-52.8,46.93l-47.28,377.85C701,1694,719.39,1715,745.3,1715h332.14c25.92,0,49.55-21,52.8-46.93l47.28-377.85C1180.76,1264.3,1162.38,1243.29,1136.46,1243.29Z"/><path fill="#fc746d" d="M1136.46,1243.29H804.33c-25.92,0-49.56,21-52.8,46.93l-4.53,36.2h426l4.53-36.2C1180.76,1264.3,1162.38,1243.29,1136.46,1243.29Z"/></g></g></g></svg>