<svg xmlns="http://www.w3.org/2000/svg" enable-background="new 0 0 2500 2500" viewBox="0 0 2500 2500"><path fill="#dbdee4" d="M608.29,1852.36c-0.34,0-0.67-0.08-0.97-0.26l-247.36-142.82c-10.01-5.78-15.53-13.58-15.55-21.97
			c-0.01-8.34,5.43-16.1,15.31-21.85l335.24-192.11c0.94-0.54,2.12-0.21,2.66,0.72c0.53,0.94,0.21,2.13-0.72,2.66l-335.23,192.11
			c-8.62,5.01-13.37,11.57-13.36,18.46c0.02,6.94,4.84,13.55,13.6,18.61l247.36,142.82c0.93,0.54,1.25,1.73,0.72,2.66
			C609.62,1852.01,608.96,1852.36,608.29,1852.36z"/><path fill="#dbdee4" d="M758.46,1041.54c-0.34,0-0.68-0.09-0.98-0.27L624,963.23c-4.75-2.76-7.71-7.89-7.71-13.39V631.5
			c0-1.08,0.88-1.95,1.95-1.95s1.95,0.87,1.95,1.95v318.33c0,4.12,2.21,7.96,5.77,10.02l133.48,78.05c0.93,0.54,1.24,1.74,0.7,2.67
			C759.78,1041.19,759.13,1041.54,758.46,1041.54z"/><path d="M578.63,1347.39c-28.38,16.39-28.53,42.91-0.33,59.29l1014.62,589.64c28.2,16.39,73.98,16.39,102.36,0l531.35-306.77
			c28.38-16.39,28.53-42.91,0.33-59.29l-1014.62-589.64c-28.2-16.39-73.98-16.39-102.36,0L578.63,1347.39z" opacity=".1"/><path fill="#bec4cd" d="M2209.24,1599.99c0,10.7-7.16,21.54-21.4,29.73l-531.41,306.76c-8.56,4.94-18.67,8.41-29.44,10.33
			c-6.93,1.33-14.24,1.99-21.47,1.99c-7.23,0-14.39-0.59-21.39-1.84c-10.99-1.92-21.32-5.39-29.95-10.48L539.54,1346.86
			c-14.09-8.12-21.1-18.74-21.1-29.36l-0.3-123.8c0,10.7,7.01,21.39,21.03,29.44l1014.65,589.69c8.78,5.16,19.18,8.63,30.32,10.48
			c7.01,1.25,14.16,1.77,21.39,1.77c7.23,0,14.46-0.66,21.47-1.99c10.7-1.92,20.73-5.39,29.22-10.25l531.26-306.76
			c14.31-8.34,21.4-19.03,21.4-29.95L2209.24,1599.99z"/><path fill="#dbdee4" d="M1627,1823.08v123.72c-6.93,1.33-14.24,1.99-21.47,1.99c-7.23,0-14.39-0.59-21.39-1.84v-123.65
			c7.01,1.25,14.16,1.77,21.39,1.77C1612.76,1825.08,1619.99,1824.41,1627,1823.08z"/><path fill="#373b42" d="M1605.09,1950.74c-19.64,0-38.06-4.45-51.93-12.55L538.53,1348.56c-14.21-8.21-22.04-19.24-22.04-31.07
			l-0.33-123.63c0-0.04,0-0.08,0-0.13v-0.01v0c0-1.07,0.87-1.95,1.95-1.95l0,0c1.07,0,1.95,0.87,1.95,1.95v0.13
			c0.05,10.44,7.19,20.25,20.09,27.64l1014.65,589.64c13.3,7.76,31.14,12.02,50.28,12.02c0.14,0,0.29,0,0.44,0
			c18.73-0.06,36.37-4.34,49.68-12.02l531.32-306.77c13.17-7.68,20.43-17.71,20.43-28.23c0-1.08,0.87-1.95,1.95-1.95l0,0
			c1.07,0,1.95,0.87,1.95,1.95l0.33,123.83c0,12.02-7.95,23.2-22.38,31.48l-531.38,306.77c-13.96,8.03-32.38,12.48-51.88,12.55
			C1605.39,1950.74,1605.24,1950.74,1605.09,1950.74z M520.1,1207.97l0.29,109.5c0,10.38,7.13,20.22,20.09,27.7l1014.64,589.64
			c13.29,7.76,31.01,12.02,49.96,12.02c0.14,0,0.29,0,0.43,0c18.84-0.06,36.58-4.34,49.95-12.03l531.39-306.77
			c13.17-7.56,20.42-17.54,20.42-28.1l-0.29-109.71c-3.69,6.53-9.97,12.49-18.51,17.48l-531.33,306.78
			c-13.89,8.02-32.22,12.48-51.62,12.54c-0.15,0-0.3,0-0.46,0c-19.82,0-38.36-4.45-52.25-12.55L538.2,1224.86
			C529.89,1220.09,523.76,1214.33,520.1,1207.97z"/><line x1="2154.15" x2="2154.15" y1="1525.3" y2="1649.18" fill="#fff"/><path fill="#373b42" d="M2154.16,1651.13c-1.07,0-1.95-0.87-1.95-1.95V1525.3c0-1.08,0.88-1.95,1.95-1.95c1.07,0,1.95,0.87,1.95,1.95
			v123.88C2156.1,1650.26,2155.23,1651.13,2154.16,1651.13z"/><path fill="#373b42" d="M778.07,1418.86c-0.08,5.17-1.85,8.87-4.78,10.56l-10.84,6.31c2.93-1.77,4.7-5.4,4.78-10.56
						c0-10.41-7.32-23.05-16.34-28.3l-78.96-45.58c-4.63-2.62-8.71-2.85-11.72-1.16l10.84-6.31c3.01-1.7,7.09-1.47,11.72,1.16
						l78.96,45.58C770.74,1395.81,778.07,1408.45,778.07,1418.86z"/><path fill="#373b42" d="M762.44,1437.68c-0.66,0-1.31-0.34-1.68-0.96c-0.55-0.92-0.25-2.11,0.66-2.66
						c2.42-1.46,3.78-4.63,3.85-8.92c0-9.71-6.9-21.65-15.38-26.58l-78.95-45.58c-3.81-2.15-7.28-2.56-9.78-1.14
						c-0.94,0.52-2.12,0.21-2.65-0.73c-0.53-0.93-0.21-2.12,0.71-2.66l10.84-6.3c3.76-2.13,8.6-1.72,13.66,1.15l78.98,45.59
						c9.72,5.64,17.32,18.81,17.32,29.98c0,0.01,0,0.02,0,0.03c-0.08,5.78-2.13,10.12-5.76,12.22l-10.84,6.31
						C763.11,1437.59,762.78,1437.68,762.44,1437.68z M668.33,1347.66c1.48,0.42,3,1.06,4.55,1.93l78.98,45.59
						c9.72,5.65,17.32,18.82,17.32,29.98c-0.02,1.71-0.22,3.29-0.59,4.73l3.72-2.17c2.4-1.38,3.75-4.54,3.81-8.89
						c-0.01-9.75-6.9-21.67-15.38-26.6l-78.95-45.58c-3.8-2.14-7.28-2.56-9.78-1.14L668.33,1347.66z M778.07,1418.86h0.05H778.07z"/><path fill="#fff" d="M750.86,1396.88c9.06,5.23,16.37,17.89,16.34,28.3c-0.03,10.41-7.39,14.6-16.44,9.37l-78.98-45.61
						c-9.06-5.23-16.37-17.89-16.34-28.3c0.03-10.41,7.39-14.6,16.44-9.37L750.86,1396.88z"/><path fill="#373b42" d="M758.12,1438.76c-2.6,0-5.44-0.84-8.34-2.52l-78.98-45.61c-9.74-5.62-17.35-18.8-17.31-29.99
						c0.02-5.74,2.07-10.08,5.79-12.21c3.72-2.15,8.55-1.74,13.58,1.16l78.98,45.61l0,0c9.74,5.63,17.34,18.8,17.31,29.99
						c-0.02,5.74-2.06,10.07-5.78,12.21C761.79,1438.31,760.01,1438.76,758.12,1438.76z M664.53,1350.97
						c-1.23,0-2.34,0.27-3.31,0.83c-2.46,1.42-3.81,4.56-3.83,8.85c-0.03,9.76,6.87,21.69,15.37,26.6l78.98,45.61
						c3.76,2.17,7.22,2.59,9.69,1.16c2.46-1.42,3.82-4.56,3.83-8.85c0.03-9.76-6.86-21.7-15.36-26.61l-78.98-45.61
						C668.62,1351.64,666.44,1350.97,664.53,1350.97z"/><path fill="#373b42" d="M539.52,1163.88c-28.38,16.39-28.53,42.91-0.33,59.29l1014.62,589.64c28.2,16.39,73.98,16.39,102.36,0
			l531.35-306.77c28.38-16.39,28.53-42.91,0.33-59.29L1173.23,857.11c-28.2-16.39-73.98-16.39-102.36,0L539.52,1163.88z"/><path fill="#373b42" d="M1604.92,1826.99c-18.89,0-37.76-4.16-52.1-12.49L538.2,1224.86c-14.22-8.26-22.04-19.35-22.02-31.23
			c0.02-11.96,7.96-23.12,22.36-31.44l531.34-306.77c28.87-16.66,75.66-16.65,104.32,0l1014.62,589.63
			c14.22,8.27,22.04,19.36,22.02,31.23c-0.02,11.96-7.96,23.12-22.36,31.43l-531.35,306.77
			C1642.72,1822.83,1623.81,1826.99,1604.92,1826.99z M1122.11,846.77c-18.18,0-36.39,4.01-50.28,12.02L540.5,1165.57
			c-13.15,7.59-20.4,17.56-20.41,28.07c-0.02,10.43,7.12,20.32,20.09,27.85l1014.62,589.64c27.58,16.04,72.63,16.04,100.41,0
			l531.35-306.77c13.14-7.59,20.39-17.55,20.41-28.06c0.02-10.43-7.12-20.32-20.09-27.86L1172.24,858.8
			C1158.45,850.78,1140.29,846.77,1122.11,846.77z M539.52,1163.88h0.05H539.52z"/><path fill="#fff" d="M528.02,1193.65c0,7.33,5.88,14.99,16.11,20.94l1014.63,589.64c12.15,7.07,28.53,10.96,46.17,10.96
			c17.57,0,34.01-3.9,46.3-10.96l531.32-306.77c10.44-6.01,16.44-13.74,16.44-21.2c0-7.33-5.88-14.99-16.11-20.94L1168.25,865.67
			c-12.15-7.07-28.53-10.96-46.17-10.96c-17.57,0-34.01,3.9-46.3,10.96l-531.32,306.77
			C534.03,1178.46,528.02,1186.18,528.02,1193.65z"/><path fill="#373b42" d="M1604.94,1817.14c-17.95,0-34.7-3.99-47.15-11.23L543.15,1216.27c-10.85-6.3-17.08-14.55-17.08-22.62
			c0-8.17,6.35-16.52,17.42-22.89l531.32-306.77c12.59-7.24,29.37-11.23,47.27-11.23c17.95,0,34.69,3.99,47.15,11.23l1014.63,589.64
			c10.86,6.3,17.09,14.55,17.09,22.62c0,8.17-6.35,16.51-17.42,22.89l-531.32,306.77
			C1639.62,1813.15,1622.84,1817.14,1604.94,1817.14z M1122.09,856.66c-17.23,0-33.33,3.8-45.32,10.71l-531.32,306.77
			c-9.83,5.66-15.47,12.77-15.47,19.51c0,6.65,5.52,13.66,15.14,19.25l1014.64,589.64c11.86,6.9,27.91,10.7,45.18,10.7
			c17.22,0,33.32-3.8,45.32-10.71l531.32-306.77c9.83-5.67,15.47-12.78,15.47-19.52c0-6.65-5.52-13.66-15.14-19.25L1167.27,867.36
			C1155.41,860.46,1139.36,856.66,1122.09,856.66z"/><path fill="#373b42" d="M988.16,978.1c-7.84,4.59-207.42,120.53-216.67,125.91c-14.8,8.59-38.94,8.59-53.79,0.04l-27.02-15.64
				c9.26-5.38,259.79-150.93,270.34-157.06l27.02,15.59C1002.88,955.54,1002.96,969.51,988.16,978.1z"/><path fill="#373b42" d="M744.57,1112.39c-10.07,0-20.15-2.21-27.85-6.64l-27.02-15.64c-0.6-0.35-0.97-0.99-0.97-1.69
				c0-0.69,0.37-1.34,0.97-1.69c9.26-5.38,259.78-150.93,270.34-157.06c0.61-0.35,1.35-0.35,1.96,0l27.02,15.59
				c7.84,4.53,12.15,10.68,12.16,17.31c0,6.59-4.26,12.7-12.02,17.2l0,0c-5.63,3.29-110,63.93-171.91,99.91l-44.76,26.01
				C764.79,1110.16,754.68,1112.39,744.57,1112.39z M694.56,1088.42l24.11,13.95c14.34,8.25,37.6,8.22,51.85-0.04l44.76-26.01
				c61.91-35.97,166.28-96.61,171.91-99.9c0,0,0,0,0.01,0c6.5-3.77,10.08-8.69,10.08-13.83c-0.01-5.19-3.63-10.13-10.21-13.95
				l-26.04-15.02C942.03,944.65,723.55,1071.58,694.56,1088.42z"/><path fill="#fff" d="M786.8,1070.99c-6.15,0-11.9-1.36-16.19-3.83c-3.86-2.23-5.98-5.01-5.99-7.85c0-2.8,2.07-5.54,5.82-7.73
					l167.89-97.56c4.27-2.48,10.01-3.84,16.19-3.84c6.19,0,11.98,1.37,16.28,3.86c3.81,2.2,5.91,4.96,5.91,7.78
					c0.01,2.81-2.07,5.57-5.85,7.76l-167.89,97.56C798.72,1069.62,792.97,1070.99,786.8,1070.99z"/><path fill="#fff" d="M743.27,1096.28c-6.15,0-11.9-1.36-16.18-3.83c-3.86-2.22-5.98-5.01-5.98-7.85
					c-0.01-2.8,2.07-5.55,5.85-7.75c4.27-2.48,10.01-3.84,16.19-3.84c6.19,0,11.98,1.37,16.28,3.86c3.81,2.2,5.91,4.96,5.91,7.78
					c0.01,2.81-2.07,5.57-5.85,7.77C755.21,1094.91,749.45,1096.28,743.27,1096.28z"/><path fill="#1fb6ff" d="M743.25,1091.56c-3.66,0-7.07-0.81-9.62-2.28c-2.29-1.32-3.55-2.98-3.56-4.66c0-1.66,1.23-3.3,3.48-4.6
					c2.54-1.47,5.95-2.28,9.63-2.28c3.68,0,7.12,0.81,9.68,2.3c2.26,1.31,3.51,2.95,3.51,4.63c0,1.67-1.23,3.31-3.48,4.62
					C750.35,1090.75,746.92,1091.56,743.25,1091.56z"/><path fill="#373b42" d="M1707.26,1839.19c5.85-3.38,10.58-0.6,10.6,6.13c0.02,6.81-4.68,14.95-10.53,18.32
					c-6,3.47-10.73,0.77-10.75-6.04C1696.56,1850.88,1701.26,1842.66,1707.26,1839.19z"/><path fill="#373b42" d="M1751.05,1813.91c5.85-3.38,10.58-0.6,10.6,6.13c0.02,6.81-4.68,14.95-10.53,18.32
					c-6,3.47-10.73,0.77-10.75-6.04C1740.36,1825.6,1745.05,1817.37,1751.05,1813.91z"/><path fill="#373b42" d="M1794.85,1788.62c5.85-3.38,10.58-0.6,10.6,6.13c0.02,6.81-4.68,14.95-10.53,18.32
					c-6,3.47-10.73,0.77-10.75-6.04C1784.15,1800.31,1788.84,1792.09,1794.85,1788.62z"/><path fill="#373b42" d="M2069.41,1630.12c5.85-3.38,10.58-0.6,10.6,6.13c0.02,6.81-4.68,14.95-10.53,18.32
					c-6,3.47-10.73,0.77-10.75-6.04C2058.71,1641.81,2063.41,1633.59,2069.41,1630.12z"/><path fill="#373b42" d="M2113.2,1604.84c5.85-3.38,10.58-0.6,10.6,6.13c0.02,6.81-4.68,14.95-10.53,18.32
					c-6,3.47-10.73,0.77-10.75-6.04C2102.5,1616.53,2107.2,1608.3,2113.2,1604.84z"/><path fill="#373b42" d="M1990.12,1700.62c5.99-3.46,10.84-11.86,10.82-18.75c-0.02-6.88-4.9-9.67-10.89-6.21l-116.01,66.98
				c-5.99,3.46-10.83,11.85-10.81,18.74c0.02,6.88,4.89,9.68,10.88,6.22L1990.12,1700.62z"/><line x1="1487.96" x2="1487.96" y1="1774.54" y2="1898.05" fill="#fff"/><path fill="#373b42" d="M1487.96,1900c-1.07,0-1.95-0.87-1.95-1.95v-123.51c0-1.08,0.88-1.95,1.95-1.95s1.95,0.87,1.95,1.95v123.51
			C1489.91,1899.12,1489.03,1900,1487.96,1900z"/><line x1="598.73" x2="598.73" y1="1257.78" y2="1381.28" fill="#fff"/><path fill="#373b42" d="M598.73,1383.23c-1.07,0-1.95-0.87-1.95-1.95v-123.5c0-1.08,0.88-1.95,1.95-1.95s1.95,0.87,1.95,1.95v123.5
			C600.68,1382.36,599.8,1383.23,598.73,1383.23z"/><path fill="#f0f2f5" d="M1248.24,1676.86c9.82,5.67,17.74,19.4,17.71,30.68s-8.01,15.83-17.83,10.16l-190.7-110.12
				c-9.82-5.67-17.74-19.4-17.71-30.68s8.01-15.83,17.83-10.16L1248.24,1676.86z"/><path fill="#373b42" d="M1248.01,1688.15c-4.26-2.46-7.7-0.43-7.72,4.46c-0.01,4.96,3.4,10.88,7.66,13.34
					c4.37,2.52,7.81,0.56,7.83-4.4C1255.8,1696.66,1252.38,1690.68,1248.01,1688.15z"/><path fill="#f0f2f5" d="M1372.69,1274.67c-9.5-12.5-15.21-27.96-15.17-40.99l0.97-355.39c0.02-3.73-1.15-7.81-3.04-11.61
											l-95.61,55.58c1.88,3.79,3.06,7.87,3.06,11.61l-1.02,355.39c0,13.03,5.72,28.44,15.21,40.94l26.16,34.55
											c11.39,15.07,18.27,33.58,18.27,49.18c-0.05,4.31-1.55,7.36-4.02,8.82l95.6-55.58c2.47-1.45,4.02-4.46,4.02-8.82
											c0.05-15.6-6.83-34.11-18.22-49.18L1372.69,1274.67z"/><path fill="#373b42" d="M1317.5,1424.69c-0.67,0-1.32-0.35-1.68-0.97c-0.54-0.93-0.23-2.12,0.69-2.66
											c1.94-1.14,3.02-3.68,3.06-7.16c0-15.24-6.68-33.18-17.87-47.99l-26.16-34.55c-9.78-12.86-15.61-28.61-15.61-42.12
											l1.01-355.39c0-3.27-0.98-6.99-2.85-10.74c-0.46-0.92-0.12-2.04,0.76-2.55l95.6-55.58c0.48-0.27,1.04-0.34,1.54-0.18
											c0.52,0.15,0.95,0.51,1.19,1c2.15,4.32,3.27,8.64,3.25,12.49l-0.97,355.38c-0.05,12.69,5.47,27.57,14.77,39.8l26.21,34.5
											c11.7,15.49,18.66,34.31,18.62,50.36c0,4.87-1.77,8.6-4.98,10.5l-95.6,55.58
											C1318.17,1424.6,1317.84,1424.69,1317.5,1424.69z M1262.36,923.05c1.63,3.73,2.48,7.44,2.48,10.82l-1.01,355.39
											c0,12.68,5.54,27.54,14.82,39.76l26.16,34.55c11.69,15.46,18.66,34.28,18.66,50.36c-0.02,1.16-0.12,2.26-0.32,3.28
											l88.96-51.72c1.96-1.16,3.05-3.69,3.05-7.13c0.05-15.23-6.62-33.18-17.82-48l-26.21-34.5
											c-9.79-12.89-15.61-28.66-15.56-42.18l0.97-355.38c0.02-2.71-0.66-5.74-1.97-8.85L1262.36,923.05z"/><path fill="#bec4cd" d="M1249.19,910.16c7.58,4.38,13.72,15,13.69,23.71l-0.99,355.39c-0.04,13.01,5.68,28.45,15.19,40.96
												l26.18,34.52c11.39,15.05,18.28,33.59,18.24,49.2c-0.02,8.71-6.2,12.23-13.81,7.83L1195.52,1357
												c-18.81-10.86-34.01-37.15-33.95-58.77l1.18-422.18c0.02-8.71,6.2-12.23,13.81-7.84L1249.19,910.16z"/><path fill="#373b42" d="M1313.88,1425.62c-2.24,0-4.68-0.73-7.17-2.17l-112.17-64.76c-19.32-11.15-34.99-38.28-34.93-60.46
												l1.18-422.18c0.02-4.92,1.79-8.65,5-10.5c3.26-1.86,7.41-1.51,11.73,0.98l72.64,41.94l0,0
												c8.25,4.77,14.69,15.93,14.67,25.4l-0.99,355.39c-0.04,12.67,5.49,27.54,14.79,39.77l26.18,34.52
												c11.71,15.48,18.68,34.31,18.63,50.38c-0.02,4.91-1.79,8.64-5,10.49C1317.07,1425.22,1315.53,1425.62,1313.88,1425.62z
												 M1170.38,868.27c-0.97,0-1.87,0.22-2.63,0.66c-1.96,1.13-3.05,3.66-3.05,7.13l-1.18,422.18
												c-0.06,20.94,14.73,46.54,32.98,57.08l112.17,64.76c3.07,1.77,5.86,2.12,7.84,0.98c1.96-1.13,3.05-3.66,3.05-7.13
												c0.05-15.25-6.62-33.2-17.84-48.02l-26.18-34.52c-9.8-12.89-15.62-28.64-15.59-42.14l0.99-355.39
												c0.02-8.08-5.68-17.96-12.72-22.02l-72.64-41.94C1173.7,868.82,1171.92,868.27,1170.38,868.27z"/><path fill="#fff" d="M1384.39,1076.97l-47.91,27.87c2.24-1.29,2.92-5.03,1.09-9.58l-17.2-42.14
													c-1.77-4.35-2.72-8.7-2.65-12.64l0.07-77.38c0-4.62-3.19-10.19-7.2-12.51l-19.86-11.43l47.92-27.87l19.86,11.5
													c3.94,2.24,7.2,7.88,7.2,12.44l-0.14,77.44c0,3.87,0.95,8.29,2.72,12.57l17.19,42.14
													C1387.32,1071.94,1386.64,1075.68,1384.39,1076.97z"/><path fill="#373b42" d="M1336.48,1106.79c-0.67,0-1.32-0.35-1.69-0.97c-0.53-0.93-0.22-2.12,0.71-2.66l0.02-0.01
													c1.22-0.72,1.72-3.47,0.24-7.16l-17.19-42.13c-1.9-4.68-2.86-9.32-2.79-13.41l0.07-77.34c0-3.91-2.86-8.87-6.23-10.82
													l-19.87-11.42c-0.6-0.35-0.97-0.99-0.97-1.69s0.37-1.34,0.97-1.69l47.92-27.86c0.61-0.35,1.36-0.35,1.96,0l19.87,11.49
													c4.51,2.57,8.18,8.9,8.18,14.12l-0.14,77.45c0,3.61,0.91,7.81,2.57,11.83l17.19,42.15c2.13,5.29,1.36,10.11-1.91,12
													l-47.88,27.84c-0.02,0.01-0.02,0.02-0.04,0.03C1337.15,1106.7,1336.82,1106.79,1336.48,1106.79z M1294.61,939.16
													l16.95,9.74c4.58,2.65,8.18,8.89,8.18,14.2l-0.07,77.38c-0.06,3.61,0.81,7.72,2.51,11.91l17.19,42.14
													c0.81,2.01,1.2,3.95,1.2,5.69l42.85-24.92c0.01,0,0.01,0,0.01,0c1.24-0.71,1.75-3.46,0.26-7.16l-17.19-42.14
													c-1.84-4.47-2.86-9.2-2.86-13.31l0.14-77.45c0-3.83-2.91-8.85-6.22-10.74l-18.9-10.93L1294.61,939.16z"/><path fill="#373b42" d="M1310.62,950.61c3.95,2.28,7.19,7.9,7.18,12.49l-0.11,77.41c-0.01,3.89,0.93,8.28,2.7,12.6
													l17.18,42.13c2.94,7.19-0.51,12.34-6.2,9.06l-40.95-23.62l0.29-141.53L1310.62,950.61z"/><path fill="#373b42" d="M1334.66,1107.26c-1.34,0-2.79-0.43-4.26-1.28l-40.96-23.63c-0.6-0.35-0.97-0.99-0.97-1.69
													l0.29-141.53c0-0.7,0.37-1.34,0.97-1.69c0.61-0.34,1.34-0.34,1.95,0l19.91,11.47c0,0,0,0,0,0
													c4.58,2.65,8.16,8.87,8.15,14.17l-0.11,77.41c-0.02,3.65,0.87,7.75,2.56,11.85l17.18,42.14
													c1.95,4.77,1.55,9.15-1.05,11.41C1337.29,1106.81,1336.03,1107.26,1334.66,1107.26z M1292.37,1079.54l39.98,23.06
													c0.69,0.4,2.41,1.23,3.42,0.36c1.01-0.89,1.45-3.45,0-7l-17.18-42.13c-1.88-4.57-2.86-9.19-2.85-13.34l0.11-77.4
													c0.01-3.9-2.83-8.84-6.21-10.79l-17-9.8L1292.37,1079.54z"/><path fill="#bec4cd" d="M2030.38,941.52c0.34,133.68-93.52,296.42-209.93,363.63c-116.32,67.16-210.96,13.24-211.35-120.4
												c-0.39-133.73,93.65-296.6,209.97-363.76C1935.49,753.79,2030,807.79,2030.38,941.52z"/><path fill="#373b42" d="M1725.94,1336.08c-20.44,0-39.32-4.76-55.99-14.35c-40.31-23.19-62.61-71.84-62.8-136.97
												c-0.38-134.13,94.25-298.07,210.95-365.45c57.08-32.95,110.85-38.25,151.42-14.91c40.31,23.2,62.62,71.9,62.81,137.12
												l0,0c0.34,134.1-94.27,297.98-210.91,365.32C1787.78,1326.26,1755.27,1336.08,1725.94,1336.08z M1913.58,793.96
												c-28.64,0-60.48,9.64-93.53,28.72c-115.62,66.76-209.38,229.19-209,362.07c0.18,63.68,21.79,111.13,60.85,133.6
												c39.35,22.64,91.76,17.34,147.58-14.89c115.55-66.71,209.29-229.08,208.96-361.94l0,0
												c-0.18-63.77-21.8-111.27-60.86-133.75C1951.54,798.55,1933.32,793.96,1913.58,793.96z"/><path fill="#f0f2f5" d="M1860.12,976.62l-88.61,161.66l-131.64-54.03c16.8-70.4,58.46-142.34,111.25-191.95L1860.12,976.62z"/><path fill="#373b42" d="M1771.51,1140.23c-0.25,0-0.5-0.05-0.74-0.14l-131.64-54.03c-0.89-0.37-1.38-1.32-1.16-2.26
											c16.92-70.9,58.72-143.03,111.82-192.92c0.71-0.65,1.76-0.71,2.53-0.12l108.99,84.32c0.75,0.59,0.97,1.64,0.51,2.48
											l-88.61,161.66C1772.86,1139.86,1772.2,1140.23,1771.51,1140.23z M1642.16,1083.08l128.48,52.74l86.96-158.68
											l-106.35-82.28C1699.67,943.82,1659.02,1013.95,1642.16,1083.08z"/><path fill="#fff" d="M1878.67,1018.33c0.12,41.59-29.08,92.22-65.3,113.13c-36.19,20.89-65.63,4.12-65.75-37.46
												c-0.12-41.6,29.14-92.27,65.32-113.17C1849.16,959.93,1878.55,976.74,1878.67,1018.33z"/><path fill="#373b42" d="M1783.97,1142.42c-6.59,0-12.69-1.54-18.09-4.64c-12.97-7.47-20.15-23.01-20.2-43.77
												c-0.12-42.16,29.62-93.68,66.3-114.86c18.18-10.5,35.38-12.15,48.43-4.64c12.97,7.47,20.15,23.03,20.21,43.82l0,0
												c0.12,42.14-29.6,93.65-66.27,114.82C1803.67,1139.31,1793.32,1142.42,1783.97,1142.42z M1842.33,973.77
												c-8.67,0-18.34,2.94-28.41,8.75c-35.6,20.55-64.47,70.56-64.35,111.47c0.05,19.31,6.53,33.66,18.25,40.4
												c11.82,6.8,27.63,5.15,44.57-4.63c35.58-20.55,64.44-70.53,64.32-111.43c0,0,0,0,0,0c-0.05-19.34-6.53-33.7-18.25-40.45
												C1853.68,975.14,1848.24,973.77,1842.33,973.77z"/><path fill="#1fb6ff" d="M1847.77,1036.16c0.06,21.98-15.37,48.74-34.51,59.79c-19.13,11.04-34.68,2.18-34.75-19.79
												c-0.06-21.99,15.4-48.76,34.52-59.81C1832.18,1005.3,1847.71,1014.18,1847.77,1036.16z"/><path fill="#bec4cd" d="M1295.74,577.12c-22.45-13.04-53.36-11.17-87.64,8.64c-23.6,13.59-45.66,33.94-64.37,58.04
														c-19.75,25.47-35.81,55.07-46.05,85.22c-7.92,23.38-12.32,47.04-12.27,69.32c0.06,38.73,13.81,66.07,35.87,78.89
														l-61.83-35.92c-22.06-12.82-35.76-40.1-35.87-78.89c-0.06-22.23,4.35-45.83,12.27-69.1
														c10.18-30.15,26.19-59.74,45.99-85.27c18.7-24.15,40.76-44.56,64.42-58.2c34.27-19.81,65.25-21.67,87.64-8.64
														L1295.74,577.12z"/><path fill="#dbdee4" d="M1143.74,643.8c-19.75,25.47-35.81,55.07-46.05,85.22l-61.83-35.7
													c10.18-30.15,26.19-59.74,45.99-85.27L1143.74,643.8z"/><path fill="#373b42" d="M1121.29,879.17c-0.33,0-0.67-0.08-0.98-0.26l0,0c-0.02-0.01-0.03-0.02-0.05-0.03l-61.77-35.89
														c-23.69-13.78-36.77-42.4-36.84-80.57c-0.21-78.69,55.26-174.81,123.64-214.28c33.78-19.5,65.59-22.56,89.58-8.6
														l61.82,35.92c0,0,0,0,0,0c0.93,0.54,1.24,1.74,0.7,2.66c-0.54,0.94-1.74,1.24-2.67,0.71l-0.08-0.05
														c-22.7-13.16-53.1-10.09-85.59,8.65c-67.37,38.88-121.97,133.49-121.69,210.89c0.07,36.74,12.46,64.16,34.9,77.21
														c0.93,0.54,1.24,1.74,0.7,2.66C1122.61,878.82,1121.96,879.17,1121.29,879.17z M1201.56,534.82
														c-16.6,0-35.09,5.6-54.31,16.69c-67.3,38.84-121.9,133.45-121.69,210.9c0.07,36.73,12.46,64.15,34.9,77.2l43.06,25.02
														c-13.01-15.63-20-38.41-20.05-66.3c-0.27-78.64,55.19-174.77,123.64-214.27c24.78-14.3,48.5-19.75,68.84-16.15
														l-43.04-25.01C1223.62,537.5,1213.04,534.82,1201.56,534.82z"/><path fill="#373b42" d="M1208.1,585.73c68.04-39.28,123.28-7.75,123.5,70.43c0.22,78.08-54.66,173.19-122.7,212.48
														c-67.95,39.23-123.28,7.75-123.5-70.33C1085.18,720.12,1140.15,624.96,1208.1,585.73z"/><path fill="#373b42" d="M1153.67,887.52c-12.08,0-23.26-2.82-33.13-8.5c-23.82-13.7-36.99-42.36-37.1-80.71
														c-0.22-78.64,55.26-174.77,123.68-214.27l0,0c33.62-19.42,65.35-22.53,89.32-8.73c23.82,13.71,37,42.42,37.1,80.84
														c0.22,78.59-55.26,174.67-123.68,214.17C1190.09,881.75,1170.96,887.52,1153.67,887.52z M1209.07,587.41
														c-67.34,38.88-121.95,133.49-121.73,210.89c0.11,36.89,12.59,64.36,35.14,77.34c22.74,13.09,53.08,9.99,85.44-8.69
														c67.34-38.88,121.95-133.44,121.73-210.79c-0.11-36.97-12.59-64.49-35.15-77.47
														C1271.8,565.62,1241.44,568.72,1209.07,587.41L1209.07,587.41z"/><g><path fill="#fff" d="M1360.33,876.44l-72.68-41.96c-3.83-2.18-7.27-2.42-9.79-0.97l-95.6,55.57
														c2.47-1.45,5.96-1.21,9.79,0.97l72.63,41.96c4.34,2.49,8.15,7.04,10.66,12.09l95.61-55.58
														C1368.44,883.48,1364.64,878.93,1360.33,876.44z"/><path fill="#373b42" d="M1275.34,946.05c-0.19,0-0.38-0.03-0.56-0.08c-0.51-0.15-0.94-0.52-1.18-1
														c-2.47-4.97-6.07-9.08-9.88-11.26l-72.63-41.97c-3.04-1.72-5.89-2.09-7.8-0.99l-0.03,0.02l0,0l-0.01,0.01
														c-0.94,0.54-2.12,0.22-2.66-0.7c-0.54-0.93-0.23-2.12,0.69-2.66c0.01,0,0.01,0,0.01-0.01h0.01
														c0.02-0.01,0.03-0.02,0.05-0.03l95.54-55.55c3.23-1.86,7.39-1.52,11.74,0.96l72.69,41.97
														c4.43,2.56,8.58,7.26,11.38,12.9c0.46,0.92,0.12,2.04-0.76,2.55l-95.6,55.58
														C1276.02,945.96,1275.68,946.05,1275.34,946.05z M1189.86,886.93c1.04,0.35,2.09,0.83,3.16,1.44l72.63,41.97
														c3.97,2.27,7.71,6.24,10.45,11.07l92.23-53.62c-2.41-4.24-5.61-7.71-8.98-9.65c0,0,0,0,0,0l-72.68-41.96
														c-3.1-1.76-5.87-2.11-7.84-0.97L1189.86,886.93z"/></g><g><path fill="#fff" d="M1507.91,715.38c-20.86-12.14-49.67-10.4-81.57,8.01c-63.23,36.49-114.44,125.1-114.18,197.89
														c0.06,36.04,12.85,61.48,33.39,73.43l-210.89-122.56c-20.54-11.95-33.33-37.33-33.39-73.43
														c-0.19-72.79,50.96-161.4,114.18-197.89c31.9-18.41,60.71-20.15,81.57-8.01L1507.91,715.38z"/><path fill="#373b42" d="M1345.54,996.66c-0.34,0-0.67-0.08-0.98-0.26l0,0c-0.01-0.01-0.02-0.02-0.03-0.02l-210.86-122.54
														c-22.1-12.86-34.29-39.54-34.36-75.11c-0.2-73.29,51.46-162.82,115.16-199.58c31.52-18.18,61.17-21.01,83.53-8.01
														l210.8,122.51c0.03,0.02,0.06,0.03,0.09,0.05c0.93,0.54,1.24,1.74,0.7,2.66c-0.54,0.93-1.73,1.24-2.67,0.71l0,0
														c-21.11-12.29-49.38-9.44-79.61,8.01c-62.68,36.17-113.47,124.18-113.21,196.19c0.06,34.13,11.57,59.61,32.4,71.75
														l0.02,0.01c0,0,0,0,0,0c0.93,0.54,1.24,1.74,0.7,2.66C1346.87,996.32,1346.21,996.66,1345.54,996.66z M1266.92,586.99
														c-15.43,0-32.62,5.21-50.5,15.53c-62.62,36.14-113.41,124.15-113.21,196.2c0.06,34.14,11.57,59.62,32.42,71.75
														l192.79,112.04c-11.82-14.55-18.18-35.58-18.22-61.23c-0.26-73.25,51.4-162.78,115.16-199.57
														c22.8-13.16,44.67-18.27,63.44-15.18l-192.77-112.02C1287.41,589.49,1277.59,586.99,1266.92,586.99z"/><g><path fill="#373b42" d="M1426.35,723.37c63.34-36.57,114.76-7.22,114.97,65.56c0.21,72.68-50.88,161.22-114.22,197.79
														c-63.25,36.52-114.76,7.22-114.96-65.47C1311.93,848.47,1363.1,759.89,1426.35,723.37z"/><path fill="#373b42" d="M1375.69,1004.43c-11.27,0-21.7-2.63-30.91-7.93c-22.21-12.78-34.5-39.5-34.6-75.25
														c-0.21-73.25,51.47-162.78,115.2-199.57l0.97,1.69l-0.97-1.69c31.34-18.1,60.92-20.99,83.28-8.12
														c22.22,12.78,34.51,39.55,34.61,75.37c0.21,73.2-51.46,162.68-115.19,199.47
														C1409.63,999.05,1391.8,1004.43,1375.69,1004.43z M1477.78,709.55c-15.43,0-32.6,5.2-50.45,15.51
														c-62.65,36.17-113.45,124.18-113.25,196.19c0.1,34.29,11.69,59.82,32.64,71.87c21.12,12.16,49.32,9.28,79.4-8.09
														c62.65-36.18,113.45-124.14,113.24-196.09c-0.1-34.37-11.7-59.94-32.65-72C1498.13,712,1488.36,709.55,1477.78,709.55z
														"/></g></g><g><path fill="#1fb6ff" d="M1618.62,1283.12l-267.8-313.78l-1.13-1.18c-12.16-13.19-13.97-35.29-14.02-46.96
											c-0.2-64.02,46.71-145.29,102.45-177.45c14.26-8.23,27.99-12.6,39.66-12.6c1.72,0,3.33,0.1,4.9,0.29l369.5,7.34
											C1710.75,856.63,1545.17,1097.2,1618.62,1283.12z"/><path fill="#373b42" d="M1618.61,1285.07c-0.56,0-1.1-0.24-1.48-0.69l-268.85-314.87c-12.56-13.62-14.51-36.11-14.56-48.3
											c-0.2-64.65,47.16-146.68,103.42-179.14c14.57-8.41,28.62-12.86,40.63-12.86c1.8,0,3.5,0.1,5.14,0.31l369.29,7.32
											c0.81,0.02,1.53,0.54,1.8,1.3c0.27,0.77,0.03,1.63-0.59,2.14c-130.07,108.38-308.33,351.4-232.99,542.12
											c0.35,0.89,0.01,1.9-0.81,2.39C1619.31,1284.98,1618.96,1285.07,1618.61,1285.07z M1477.77,733.11
											c-11.33,0-24.7,4.27-38.68,12.34c-55.2,31.85-101.67,112.33-101.48,175.75c0.05,11.63,1.86,33.03,13.5,45.65l1.1,1.15
											l260.77,305.53c-65.25-189.01,105.78-424.2,233.96-532.88l-364.31-7.24C1480.94,733.2,1479.4,733.11,1477.77,733.11z"/></g><g><path fill="#373b42" d="M2009.92,953.3c0.33,120.69-84.46,267.61-189.52,328.26c-52.87,30.53-100.77,33.41-135.32,13.28
														l-56.76-32.94c34.62,20.06,82.45,17.24,135.32-13.28c105.06-60.65,189.86-207.57,189.52-328.33
														c-0.13-59.98-21.34-102.17-55.48-122.03l56.76,32.94C1988.58,851.06,2009.71,893.26,2009.92,953.3z"/><path fill="#373b42" d="M1735.01,1309.72c-18.6,0-35.79-4.37-50.92-13.19l-56.74-32.94c-0.01,0-0.01,0-0.01,0h-0.01
														c-0.93-0.54-1.24-1.73-0.7-2.66c0.53-0.94,1.74-1.25,2.66-0.71l0.05,0.03c35.51,20.55,82.87,15.82,133.33-13.31
														c104.29-60.21,188.88-206.73,188.55-326.64c-0.13-57.23-19.48-99.96-54.49-120.34l-0.02-0.02c-0.01,0,0,0-0.01,0
														c-0.93-0.54-1.24-1.74-0.7-2.67c0.53-0.94,1.73-1.25,2.67-0.71l56.75,32.94c36.21,21.05,56.26,65.01,56.46,123.78
														c0,0,0,0,0,0c0.33,121.11-85.13,269.12-190.5,329.95C1790.91,1300.84,1761.51,1309.72,1735.01,1309.72z
														 M1652.54,1273.71l33.51,19.45c35.4,20.63,82.78,15.92,133.36-13.29c104.28-60.2,188.86-206.7,188.55-326.56l0,0
														c-0.2-57.33-19.55-100.1-54.52-120.42l-33.54-19.47c22.77,23.98,35.09,60.9,35.2,106.87
														c0.33,121.15-85.13,269.19-190.5,330.02C1723.96,1273.78,1685.16,1281.72,1652.54,1273.71z"/><path fill="#f0f2f5" d="M1990.32,769.41c-43.74-25.43-104.39-21.87-171.34,16.77
														c-133.04,76.82-240.58,263.12-240.18,416.01c0.27,75.94,27.04,129.35,70.31,154.5l-56.76-32.94
														c-43.2-25.16-70.04-78.56-70.24-154.5c-0.47-152.96,107.07-339.2,240.11-416.01c66.95-38.64,127.6-42.27,171.34-16.84
														L1990.32,769.41z"/><path fill="#373b42" d="M1649.12,1358.65c-0.33,0-0.67-0.08-0.98-0.26l0,0c0,0-0.01-0.01-0.02-0.01l-56.73-32.93
														c-45.73-26.63-71.03-82.1-71.22-156.19c-0.47-153.29,107.67-340.67,241.08-417.7c65.44-37.78,126.98-43.75,173.3-16.84
														l56.76,33.01c0.93,0.54,1.24,1.74,0.7,2.66c-0.54,0.94-1.73,1.24-2.67,0.71c-45.09-26.21-105.24-20.25-169.39,16.77
														c-132.3,76.39-239.61,262.25-239.2,414.32c0.25,72.67,24.87,126.94,69.3,152.8l0.04,0.02c0.01,0,0,0,0.01,0
														c0.93,0.54,1.24,1.74,0.7,2.66C1650.44,1358.31,1649.79,1358.65,1649.12,1358.65z M1870.34,722.03
														c-32.79,0-69.26,11.04-107.14,32.9c-132.33,76.41-239.61,262.27-239.13,414.32c0.19,72.65,24.79,126.92,69.27,152.83
														l30.69,17.81c-30.42-30.14-46.96-77.82-47.17-137.68c-0.4-153.31,107.77-340.7,241.15-417.71
														c52.93-30.55,103.36-40.28,145.2-28.6l-30.62-17.8C1914.13,727.36,1893.12,722.03,1870.34,722.03z"/><g><path fill="#fff" d="M1818.99,786.21c133.13-76.86,241.2-15.07,241.64,137.85c0.43,152.87-106.94,339-240.07,415.86
														c-133.04,76.81-241.29,15.17-241.72-137.7C1578.4,1049.3,1685.95,863.02,1818.99,786.21z M1820.39,1281.59
														c105.07-60.66,189.86-207.57,189.52-328.31c-0.34-120.73-85.69-169.47-190.76-108.8
														c-105.03,60.64-189.9,207.65-189.56,328.38C1629.94,1293.6,1715.37,1342.23,1820.39,1281.59"/><path fill="#373b42" d="M1712.46,1375.01c-23.32,0-44.89-5.43-63.91-16.38c-46.01-26.47-71.45-82.02-71.67-156.42
														c-0.43-153.31,107.73-340.69,241.13-417.7l0,0c65.19-37.63,126.58-43.69,172.87-17.05
														c46.01,26.48,71.47,82.09,71.69,156.58c0.43,153.26-107.7,340.57-241.04,417.55
														C1783.09,1363.8,1745.96,1375.01,1712.46,1375.01z M1818.99,786.21l0.97,1.69
														c-132.31,76.39-239.61,262.25-239.18,414.32c0.21,72.94,24.97,127.3,69.72,153.05
														c45.09,25.95,105.14,19.89,169.08-17.03c132.26-76.36,239.52-262.16,239.1-414.17
														c-0.21-73.04-24.97-127.45-69.74-153.21c-45.04-25.93-105.05-19.87-168.98,17.04L1818.99,786.21z M1735.05,1309.71
														c-18.48,0-35.56-4.31-50.63-12.98c-36.45-20.97-56.61-64.96-56.78-123.87c-0.34-121.15,85.14-269.22,190.54-330.07
														c51.59-29.79,100.2-34.57,136.88-13.46c36.46,20.98,56.63,65,56.79,123.94c0.34,121.12-85.11,269.16-190.49,330
														C1790.95,1300.84,1761.56,1309.71,1735.05,1309.71z M1904.46,820.27c-25.81,0-54.53,8.7-84.33,25.9
														c-104.33,60.23-188.93,206.78-188.59,326.69c0.16,57.45,19.64,100.25,54.82,120.5c35.46,20.4,82.7,15.62,133.05-13.45
														l0.97,1.69l-0.97-1.69c104.3-60.22,188.89-206.74,188.54-326.62c-0.16-57.5-19.64-100.32-54.84-120.58
														C1938.67,824.4,1922.26,820.27,1904.46,820.27z"/></g></g><g opacity=".6"><path fill="#1fb6ff" d="M1435.52,1624.96c-24.63,14.33-24.67,37.44-0.11,51.6c24.56,14.17,64.47,14.05,89.1-0.28
			c24.64-14.34,24.67-37.45,0.11-51.62C1500.05,1610.49,1460.16,1610.62,1435.52,1624.96"/></g><g><line x1="1943.11" x2="1537.64" y1="1356.7" y2="1595.15" fill="#fff"/><path fill="#373b42" d="M1537.64,1597.1c-0.67,0-1.32-0.34-1.68-0.96c-0.54-0.93-0.24-2.12,0.69-2.67l405.47-238.45
			c0.93-0.55,2.12-0.24,2.67,0.69c0.54,0.93,0.24,2.12-0.69,2.67l-405.47,238.45C1538.31,1597.01,1537.97,1597.1,1537.64,1597.1z"/></g><g><line x1="1885.76" x2="1575.78" y1="1435.73" y2="1618.02" fill="#fff"/><path fill="#373b42" d="M1575.78,1619.97c-0.67,0-1.32-0.34-1.68-0.96c-0.54-0.93-0.24-2.12,0.69-2.67l309.98-182.29
			c0.94-0.55,2.12-0.24,2.67,0.69c0.54,0.93,0.24,2.12-0.69,2.67l-309.98,182.29C1576.45,1619.88,1576.11,1619.97,1575.78,1619.97z"/></g><g opacity=".6"><path fill="#1fb6ff" d="M1553.57,1693.33c-24.63,14.33-24.67,37.44-0.11,51.6c24.56,14.17,64.47,14.05,89.1-0.28
			c24.64-14.34,24.67-37.45,0.11-51.62C1618.11,1678.87,1578.21,1678.99,1553.57,1693.33"/></g><g><line x1="2061.16" x2="1655.69" y1="1425.07" y2="1663.52" fill="#fff"/><path fill="#373b42" d="M1655.69,1665.47c-0.67,0-1.32-0.34-1.68-0.96c-0.54-0.93-0.24-2.12,0.69-2.67l405.47-238.45
			c0.93-0.55,2.12-0.24,2.67,0.69c0.54,0.93,0.24,2.12-0.69,2.67l-405.47,238.45C1656.37,1665.38,1656.02,1665.47,1655.69,1665.47z"/></g><g><line x1="2003.81" x2="1693.83" y1="1504.1" y2="1686.39" fill="#fff"/><path fill="#373b42" d="M1693.84,1688.34c-0.67,0-1.32-0.34-1.68-0.96c-0.54-0.93-0.24-2.12,0.69-2.67l309.98-182.29
			c0.94-0.55,2.12-0.24,2.67,0.69c0.54,0.93,0.24,2.12-0.69,2.67l-309.98,182.29C1694.51,1688.25,1694.17,1688.34,1693.84,1688.34z"/></g><g opacity=".1"><path d="M847.85,2076.33c0.54,95.36-132.38,172.61-296.91,172.67c-82.32,0-156.93-19.31-211.02-50.54
				c-54.09-31.23-87.68-74.38-87.94-122.07c-0.18-31.49,14.41-60.86,39.68-86.24l258.32,86.24L847.85,2076.33z"/></g><g><polygon fill="#fff" points="889.18 1929.25 889.18 1852.94 591.3 1853 590.9 1929.31"/><path fill="#373b42" d="M590.9,1931.26c-0.52,0-1.01-0.21-1.38-0.57c-0.37-0.37-0.57-0.86-0.57-1.39l0.4-76.31
								c0.01-1.07,0.88-1.94,1.95-1.94l297.88-0.06c0.52,0,1.01,0.21,1.38,0.57s0.57,0.86,0.57,1.38v76.31
								c0,1.08-0.88,1.95-1.95,1.95L590.9,1931.26z M889.18,1929.25h0.05H889.18z M593.25,1854.95l-0.39,72.41l294.38-0.06v-72.41
								L593.25,1854.95z"/><line x1="851.92" x2="851.92" y1="1929.25" y2="1852.94" fill="#fff"/><path fill="#373b42" d="M851.92,1931.19c-1.07,0-1.95-0.87-1.95-1.95v-76.31c0-1.08,0.88-1.95,1.95-1.95
								c1.07,0,1.95,0.87,1.95,1.95v76.31C853.87,1930.32,852.99,1931.19,851.92,1931.19z"/><line x1="814.66" x2="814.66" y1="1929.25" y2="1852.94" fill="#fff"/><path fill="#373b42" d="M814.66,1931.19c-1.07,0-1.95-0.87-1.95-1.95v-76.31c0-1.08,0.88-1.95,1.95-1.95s1.95,0.87,1.95,1.95
								v76.31C816.61,1930.32,815.74,1931.19,814.66,1931.19z"/><line x1="777.4" x2="777.4" y1="1929.25" y2="1852.94" fill="#fff"/><path fill="#373b42" d="M777.4,1931.19c-1.07,0-1.95-0.87-1.95-1.95v-76.31c0-1.08,0.88-1.95,1.95-1.95s1.95,0.87,1.95,1.95
								v76.31C779.35,1930.32,778.47,1931.19,777.4,1931.19z"/><line x1="740.14" x2="740.14" y1="1929.25" y2="1852.94" fill="#fff"/><path fill="#373b42" d="M740.14,1931.19c-1.07,0-1.95-0.87-1.95-1.95v-76.31c0-1.08,0.88-1.95,1.95-1.95s1.95,0.87,1.95,1.95
								v76.31C742.09,1930.32,741.21,1931.19,740.14,1931.19z"/><g><line x1="702.88" x2="702.88" y1="1929.25" y2="1852.94" fill="#fff"/><path fill="#373b42" d="M702.88,1931.19c-1.07,0-1.95-0.87-1.95-1.95l-0.01-76.31c0-1.08,0.88-1.95,1.95-1.95
								s1.95,0.87,1.95,1.95l0.01,76.31C704.83,1930.32,703.96,1931.19,702.88,1931.19z"/></g><g><line x1="665.62" x2="665.62" y1="1929.25" y2="1852.94" fill="#fff"/><path fill="#373b42" d="M665.62,1931.19c-1.07,0-1.95-0.87-1.95-1.95v-76.31c0-1.08,0.88-1.95,1.95-1.95s1.95,0.87,1.95,1.95
								v76.31C667.57,1930.32,666.69,1931.19,665.62,1931.19z"/></g><g><line x1="628.36" x2="628.36" y1="1929.25" y2="1852.94" fill="#fff"/><path fill="#373b42" d="M628.36,1931.19c-1.07,0-1.95-0.87-1.95-1.95v-76.31c0-1.08,0.88-1.95,1.95-1.95s1.95,0.87,1.95,1.95
								v76.31C630.31,1930.32,629.44,1931.19,628.36,1931.19z"/></g><g><polygon fill="#fff" points="591.3 1853 590.5 2063.04 589.42 1964.68 590.22 1680.46"/><path fill="#373b42" d="M590.5,2064.99c-1.07,0-1.93-0.86-1.95-1.93l-1.08-98.37l0.81-284.24c0-1.07,0.88-1.95,1.95-1.95l0,0
								c1.07,0,1.94,0.86,1.95,1.94l1.08,172.54c0,0.01,0,0.01,0,0.02l-0.81,210.04C592.44,2064.12,591.58,2064.99,590.5,2064.99
								L590.5,2064.99z"/></g><g><path fill="#fff" d="M590.22,1718.61l1.08,172.54l-258.32-86.24C384.17,1753.38,479.94,1718.62,590.22,1718.61z"/><path fill="#373b42" d="M591.31,1893.11c-0.21,0-0.42-0.03-0.62-0.1l-258.32-86.24c-0.64-0.21-1.13-0.74-1.28-1.4
								c-0.16-0.65,0.04-1.34,0.51-1.82c53.22-53.59,152.32-86.88,258.63-86.88c1.07,0,1.94,0.86,1.95,1.94l1.08,172.55
								c0.01,0.63-0.3,1.22-0.81,1.59C592.11,1892.98,591.71,1893.11,591.31,1893.11z M336.61,1804.07l252.73,84.37l-1.05-167.88
								C485.2,1720.97,389.31,1752.82,336.61,1804.07z"/></g><g><polygon fill="#373b42" points="591.3 1891.16 590.5 2063.04 332.18 2050.98 332.99 1804.92"/><path fill="#373b42" d="M590.5,2064.99c-0.03,0-0.06,0-0.09,0l-258.31-12.06c-1.04-0.05-1.86-0.91-1.86-1.95l0.8-246.06
								c0-0.62,0.3-1.21,0.81-1.58c0.5-0.36,1.16-0.46,1.75-0.27l258.32,86.24c0.8,0.27,1.34,1.02,1.33,1.86l-0.81,171.88
								c0,0.53-0.22,1.04-0.61,1.41C591.48,2064.8,590.99,2064.99,590.5,2064.99z M334.14,2049.12L588.56,2061l0.79-168.44
								l-254.42-84.94L334.14,2049.12z"/></g><g><path fill="#1fb6ff" d="M801.29,1731.02c54.06,31.21,87.62,74.32,87.89,121.92L591.3,1853l-1.08-172.54
								C672.57,1680.46,747.19,1699.78,801.29,1731.02z"/><path fill="#373b42" d="M591.31,1854.95c-1.07,0-1.94-0.86-1.95-1.94l-1.08-172.54c0-0.52,0.2-1.02,0.56-1.39
								c0.37-0.37,0.87-0.57,1.39-0.57c79.98,0,155.29,18.05,212.04,50.82l0,0c57.05,32.94,88.61,76.83,88.87,123.6
								c0,0.52-0.2,1.02-0.56,1.39s-0.87,0.57-1.39,0.57L591.31,1854.95z M592.19,1682.41l1.05,168.64l293.96-0.06
								c-1.12-44.6-31.9-86.53-86.89-118.29C744.6,1700.54,670.76,1682.71,592.19,1682.41z"/></g><g><path fill="#bec4cd" d="M889.16,1929.83L888.42,2063c0.53,88.96-115.07,162.02-264.04,171.5c-10.84,0.84-21.79,1.16-32.95,1.16
								c-11.58,0-22.95-0.42-34.11-1.16c-68.75-4.53-130.33-22.53-176.87-49.37c-54.11-31.27-87.7-74.43-87.91-122.12l0.74-133.7
								c0.32,47.69,33.9,90.86,88.01,122.12c46.22,26.64,107.59,44.74,176.02,49.38c11.47,0.74,23.16,1.16,34.95,1.16
								c10.84,0,21.58-0.31,32.11-1.05C773.36,2091.64,889.06,2018.68,889.16,1929.83z"/></g><g><path fill="#dbdee4" d="M624.39,2100.9v133.6c-10.84,0.84-21.79,1.16-32.95,1.16c-11.58,0-22.95-0.42-34.11-1.16v-133.7
							c11.47,0.74,23.16,1.16,34.95,1.16C603.12,2101.96,613.86,2101.64,624.39,2100.9z"/></g><g><path fill="#373b42" d="M591.47,2237.6c-79.96,0-155.25-18.04-211.99-50.8c-57.08-32.95-88.66-76.9-88.92-123.74l0.81-133.75
								c0.01-1.07,0.88-1.94,1.95-1.94l0,0c1.07,0,1.94,0.87,1.95,1.94c0.25,45.4,31.13,88.16,86.96,120.39
								c56.16,32.42,130.75,50.28,210.02,50.28c0.01,0,0.02,0,0.02,0c105.46-0.04,203.57-32.87,256.07-85.68
								c24.95-25.11,38.36-53.67,38.88-82.74l0.02-2.32c0.01-1.07,0.88-1.94,1.95-1.94l0,0c1.07,0,1.94,0.87,1.95,1.94
								c0.01,0.79,0,1.58-0.02,2.37l-0.79,131.39c0.18,30.9-13.66,61.26-40.02,87.78C797.11,2204.29,697.93,2237.56,591.47,2237.6z
								 M295.1,1956.53l-0.64,106.52c0.25,45.38,31.14,88.14,86.97,120.37c56.16,32.42,130.75,50.28,210.04,50.28
								c105.47-0.04,203.58-32.87,256.08-85.68c25.61-25.76,39.05-55.17,38.89-85.03l0.63-104.4c-5.87,20.57-18.02,40.4-35.95,58.45
								c-53.19,53.52-152.38,86.79-258.83,86.83c-0.01,0-0.02,0-0.02,0c-79.95,0-155.22-18.04-211.97-50.8
								C334.42,2026.59,305.02,1993.01,295.1,1956.53z"/></g><g><path fill="#fff" d="M889.18,1929.25c0.54,95.36-132.38,172.61-296.91,172.67c-82.32,0-156.93-19.31-211.02-50.54
								c-54.09-31.23-87.68-74.38-87.94-122.07c-0.18-31.49,14.41-60.86,39.68-86.24l258.32,86.24L889.18,1929.25z"/><path fill="#373b42" d="M592.25,2103.87c-79.95,0-155.22-18.04-211.97-50.8c-57.08-32.95-88.65-76.9-88.91-123.74
								c-0.18-30.7,13.74-61,40.24-87.62c0.52-0.52,1.32-0.7,1.99-0.48l258.02,86.14l297.56-0.06c1.07,0,1.94,0.86,1.95,1.94
								c0.18,30.93-13.67,61.29-40.03,87.8c-53.19,53.52-152.38,86.79-258.83,86.83C592.26,2103.87,592.25,2103.87,592.25,2103.87z
								 M333.52,1845.31c-25.2,25.66-38.42,54.68-38.25,83.99c0.25,45.4,31.13,88.16,86.96,120.39
								c56.16,32.42,130.75,50.28,210.02,50.28c0.01,0,0.02,0,0.02,0c105.46-0.04,203.57-32.87,256.07-85.68
								c25.06-25.21,38.47-53.9,38.89-83.1l-295.92,0.06c-0.21,0-0.42-0.03-0.62-0.1L333.52,1845.31z"/></g></g><g><path fill="#f0f2f5" d="M812.64,274.08c-5.41-3.18-12.97-2.75-21.31,2.06L314.68,551.73c-16.49,9.53-29.9,32.65-29.9,51.63
				l0.86,308.78c0.09,9.45,3.35,16.07,8.76,19.16l-32.8-19.07c-5.33-3.09-8.68-9.71-8.76-19.16l-0.86-308.78
				c0-18.99,13.4-42.1,29.9-51.63l476.66-275.58c8.33-4.81,15.89-5.24,21.3-2.06L812.64,274.08z"/><path fill="#373b42" d="M294.4,933.24c-0.33,0-0.66-0.08-0.97-0.26c-0.07-0.04-0.14-0.08-0.21-0.13l-32.6-18.96
				c-6.18-3.59-9.65-10.99-9.73-20.83l-0.86-308.79c0-19.56,13.85-43.48,30.87-53.32l476.66-275.59c8.71-5.02,16.97-5.76,23.27-2.05
				l32.69,19.01c0.04,0.02,0.08,0.05,0.11,0.06c0.92,0.54,1.23,1.74,0.69,2.67c-0.56,0.93-1.73,1.24-2.66,0.7l-0.01,0c0,0,0,0,0,0
				l-0.08-0.05c-5.04-2.91-11.88-2.15-19.26,2.11L315.65,553.41c-15.94,9.22-28.92,31.63-28.92,49.95l0.85,308.77
				c0.08,8.34,2.78,14.5,7.61,17.37l0.19,0.11c0.93,0.54,1.24,1.73,0.71,2.66C295.73,932.89,295.07,933.24,294.4,933.24z
				 M771.95,254.9c-3.76,0-7.99,1.29-12.43,3.86L282.85,534.34c-15.94,9.22-28.92,31.63-28.92,49.95l0.86,308.77
				c0.08,8.39,2.84,14.6,7.79,17.47l23.31,13.56c-1.4-3.36-2.15-7.38-2.2-11.93l-0.85-308.79c0-19.56,13.85-43.48,30.87-53.32
				l476.66-275.58c4.07-2.36,8.06-3.77,11.79-4.22l-23.29-13.54C776.83,255.49,774.5,254.9,771.95,254.9z"/></g><g><path fill="#fff" d="M791.34,276.15c16.51-9.53,29.99-1.91,30.04,17.06L822.26,602c0.05,18.97-13.34,42.11-29.85,51.64
				l-13.82,7.98l0.15,53.76l-54.23-22.54L315.71,929.21c-16.51,9.53-29.99,1.91-30.04-17.06l-0.87-308.79
				c-0.05-18.97,13.34-42.11,29.85-51.64L791.34,276.15z"/><path fill="#373b42" d="M302.27,935.28c-3.19,0-6.16-0.75-8.79-2.27c-6.27-3.6-9.72-11.01-9.75-20.86l-0.87-308.79
				c-0.05-19.56,13.77-43.49,30.82-53.33l476.7-275.58l0,0c8.67-5.01,16.9-5.74,23.22-2.12c6.26,3.6,9.72,11.01,9.75,20.86
				L824.2,602c0.05,19.56-13.77,43.49-30.82,53.33l-12.85,7.42l0.15,52.63c0,0.65-0.32,1.26-0.87,1.62
				c-0.54,0.37-1.24,0.43-1.83,0.18l-53.35-22.17L316.69,930.9C311.64,933.81,306.74,935.28,302.27,935.28z M792.32,277.84
				l-476.7,275.58c-15.97,9.22-28.93,31.63-28.87,49.95l0.87,308.79c0.02,8.4,2.79,14.61,7.8,17.49c5.06,2.9,11.92,2.17,19.32-2.11
				l408.79-236.37c0.53-0.3,1.17-0.34,1.72-0.11l51.53,21.42l-0.14-50.83c0-0.7,0.37-1.34,0.97-1.69l13.82-7.98
				c15.97-9.22,28.93-31.63,28.87-49.95l-0.86-308.79c-0.03-8.4-2.79-14.61-7.8-17.49C806.58,272.81,799.72,273.57,792.32,277.84z"/></g><g><path fill="#dbdee4" d="M1730.77,2184.24c-0.66,0-1.31-0.34-1.68-0.95c-0.55-0.93-0.25-2.12,0.68-2.67l507.81-303.83
			c5.48-3.19,8.49-7.3,8.48-11.59c-0.01-4.32-3.06-8.46-8.61-11.67l-162.75-93.96c-0.93-0.54-1.25-1.73-0.72-2.66
			c0.54-0.94,1.74-1.25,2.67-0.71l162.75,93.96c6.8,3.93,10.55,9.27,10.56,15.04c0.01,5.73-3.69,11.04-10.4,14.95l-507.8,303.81
			C1731.46,2184.15,1731.11,2184.24,1730.77,2184.24z"/></g><g><path fill="#dbdee4" d="M1455.78,2093.83c-0.33,0-0.65-0.08-0.96-0.25l-441.75-248.72c-10.73-6.2-16.64-14.54-16.65-23.51
			c-0.01-8.91,5.81-17.2,16.39-23.35l134.96-78.43c0.93-0.54,2.12-0.23,2.67,0.71c0.54,0.93,0.23,2.12-0.7,2.66l-134.96,78.43
			c-9.33,5.42-14.46,12.51-14.45,19.98c0.02,7.52,5.23,14.67,14.69,20.13l441.73,248.71c0.94,0.53,1.26,1.72,0.74,2.65
			C1457.12,2093.47,1456.45,2093.83,1455.78,2093.83z"/></g><g><path fill="#fff" d="M1436.61,2105.95c-14.1-8.14-14.18-21.34-0.17-29.48s36.8-8.14,50.9,0c14.1,8.14,14.17,21.34,0.16,29.47
				C1473.49,2114.08,1450.7,2114.08,1436.61,2105.95z"/><path fill="#dbdee4" d="M1462.07,2113.96c-9.56,0-19.13-2.11-26.44-6.33l0,0c-7.47-4.31-11.59-10.17-11.6-16.48
				c-0.01-6.27,4.05-12.09,11.42-16.38c14.54-8.44,38.24-8.44,52.85,0c7.46,4.31,11.58,10.16,11.59,16.47
				c0.01,6.27-4.04,12.09-11.42,16.38C1481.21,2111.85,1471.64,2113.96,1462.07,2113.96z M1437.58,2104.26
				c13.53,7.81,35.47,7.82,48.93,0c6.13-3.56,9.49-8.18,9.49-13c-0.01-4.86-3.43-9.51-9.64-13.1c-13.54-7.82-35.49-7.82-48.94,0
				c-6.12,3.56-9.49,8.17-9.49,13C1427.94,2096.01,1431.36,2100.67,1437.58,2104.26L1437.58,2104.26z"/><g><path fill="#1fb6ff" d="M1461.88,2081.91c5.5,0,10.81,1.25,14.59,3.43c3.03,1.75,4.78,3.9,4.78,5.9c0,1.98-1.7,4.1-4.68,5.83
				c-3.75,2.18-9.04,3.43-14.53,3.43c-5.49,0-10.8-1.25-14.58-3.43c-3.04-1.75-4.78-3.91-4.78-5.91c0-1.98,1.7-4.1,4.68-5.83
				C1451.1,2083.16,1456.39,2081.91,1461.88,2081.91z"/></g></g><g><path fill="#373b42" d="M1337.79,2011.27c5.9,0,11.61,1.34,15.67,3.69c3.26,1.88,5.13,4.19,5.13,6.34c0,2.12-1.83,4.41-5.03,6.27
			c-4.02,2.34-9.71,3.68-15.61,3.68c-5.9,0-11.6-1.34-15.66-3.68c-3.26-1.88-5.13-4.2-5.14-6.35c0-2.12,1.83-4.4,5.03-6.26
			C1326.2,2012.61,1331.89,2011.27,1337.79,2011.27z"/></g><g><path fill="#fff" d="M1766.93,2186.55c14.1-8.14,14.18-21.34,0.17-29.48s-36.8-8.14-50.9,0c-14.1,8.14-14.17,21.34-0.16,29.47
				S1752.83,2194.69,1766.93,2186.55z"/><path fill="#dbdee4" d="M1741.46,2194.56c-9.57,0-19.13-2.11-26.39-6.33c-7.38-4.29-11.43-10.1-11.42-16.38
				c0.01-6.31,4.13-12.16,11.59-16.47c14.62-8.44,38.32-8.44,52.85,0c7.37,4.29,11.43,10.1,11.42,16.37
				c-0.01,6.32-4.13,12.17-11.6,16.48l0,0C1760.6,2192.45,1751.02,2194.56,1741.46,2194.56z M1741.69,2152.89
				c-8.86,0-17.74,1.96-24.51,5.87c-6.21,3.59-9.63,8.24-9.64,13.1c-0.01,4.82,3.36,9.44,9.49,13c13.43,7.81,35.39,7.81,48.93,0l0,0
				c6.21-3.59,9.64-8.24,9.65-13.11c0.01-4.82-3.36-9.44-9.49-13C1759.4,2154.85,1750.55,2152.89,1741.69,2152.89z M1766.93,2186.55
				h0.05H1766.93z"/><g><path fill="#1fb6ff" d="M1741.65,2162.51c-5.5,0-10.81,1.25-14.59,3.43c-3.03,1.75-4.78,3.9-4.78,5.9c0,1.98,1.7,4.1,4.68,5.83
				c3.75,2.18,9.04,3.43,14.53,3.43c5.49,0,10.81-1.25,14.58-3.43c3.04-1.75,4.78-3.91,4.78-5.91c0-1.98-1.7-4.1-4.68-5.83
				C1752.44,2163.76,1747.14,2162.51,1741.65,2162.51z"/></g></g><g><path fill="#373b42" d="M1865.75,2091.88c-5.9,0-11.61,1.34-15.67,3.69c-3.26,1.88-5.13,4.19-5.13,6.34c0,2.12,1.83,4.41,5.03,6.27
			c4.02,2.34,9.71,3.68,15.61,3.68c5.9,0,11.6-1.34,15.66-3.68c3.26-1.88,5.13-4.2,5.14-6.35c0-2.12-1.83-4.4-5.03-6.26
			C1877.33,2093.22,1871.65,2091.88,1865.75,2091.88z"/></g><g><path fill="#373b42" d="M541.94,1551.29c-5.9,0-11.61,1.34-15.67,3.69c-3.26,1.88-5.13,4.19-5.13,6.34c0,2.12,1.83,4.41,5.03,6.27
			c4.02,2.34,9.71,3.68,15.61,3.68c5.9,0,11.6-1.34,15.66-3.68c3.26-1.88,5.13-4.2,5.14-6.35c0-2.12-1.83-4.4-5.03-6.26
			C553.53,1552.63,547.84,1551.29,541.94,1551.29z"/></g><g><path fill="#373b42" d="M670.05,974.74c-5.9,0-11.61,1.34-15.67,3.69c-3.26,1.88-5.13,4.19-5.13,6.34c0,2.12,1.83,4.41,5.03,6.27
			c4.02,2.34,9.71,3.68,15.61,3.68c5.9,0,11.6-1.34,15.66-3.68c3.26-1.88,5.13-4.2,5.14-6.35c0-2.12-1.83-4.4-5.03-6.26
			C681.63,976.08,675.94,974.74,670.05,974.74z"/></g><g><path fill="#fff" d="M701.39,1156.6l-8.06-4.67l5.15-2.98c2.24-1.29,2.24-3.38,0.04-4.67l-14.05-8.17c-2.24-1.29-5.81-1.29-8.06,0
			l-5.15,2.98l-8.06-4.67c-3.31-1.95-8.72-1.95-12.07-0.04l-71.49,41.28c-3.35,1.95-3.35,5.08-0.04,6.99l38.19,22.22
			c3.31,1.91,8.72,1.91,12.07-0.04l71.49-41.24C704.7,1161.64,704.7,1158.51,701.39,1156.6z"/><path fill="#373b42" d="M623.79,1208.25c-2.51,0-5.01-0.56-6.97-1.69l-38.19-22.22c-2.19-1.26-3.44-3.14-3.45-5.15
			c0-2.02,1.27-3.92,3.49-5.22l71.49-41.28c3.97-2.27,10.13-2.25,14.03,0.05l7.07,4.1l4.18-2.41c2.84-1.64,7.13-1.64,10.01,0
			l14.06,8.17c1.67,0.97,2.63,2.44,2.62,4.02c-0.01,1.59-0.98,3.06-2.67,4.02l-2.23,1.29l5.15,2.98l0,0
			c2.19,1.27,3.45,3.14,3.45,5.15c0,2.02-1.26,3.92-3.48,5.21l-71.5,41.25C628.87,1207.67,626.32,1208.25,623.79,1208.25z
			 M657.14,1134.89c-1.83,0-3.66,0.39-5.04,1.18l-71.48,41.27c-0.97,0.56-1.55,1.25-1.55,1.83c0.01,0.57,0.56,1.24,1.51,1.78
			l38.19,22.22c2.72,1.57,7.36,1.56,10.1-0.03l71.5-41.25c0.96-0.56,1.54-1.25,1.54-1.83c0-0.57-0.56-1.24-1.5-1.78l-8.06-4.67
			c-0.6-0.35-0.97-0.99-0.97-1.69c0-0.7,0.37-1.34,0.97-1.69l5.15-2.98c0.56-0.32,0.71-0.61,0.72-0.66
			c-0.01-0.05-0.14-0.32-0.69-0.64l-14.06-8.16c-1.61-0.94-4.47-0.94-6.1,0l-5.15,2.97c-0.61,0.35-1.36,0.35-1.95,0l-8.06-4.67
			C660.85,1135.29,659,1134.89,657.14,1134.89z"/></g><g><path fill="#373b42" d="M623.59,1195.39c-0.34,0-0.68-0.09-0.99-0.27l-24.18-14.23c-0.93-0.54-1.23-1.74-0.69-2.67
			c0.55-0.93,1.74-1.23,2.67-0.69l24.18,14.23c0.93,0.54,1.23,1.74,0.69,2.67C624.91,1195.04,624.25,1195.39,623.59,1195.39z"/></g><g><path fill="#373b42" d="M637.21,1186.94c-0.34,0-0.68-0.09-0.99-0.27l-24.19-14.23c-0.93-0.54-1.23-1.74-0.69-2.67
			c0.55-0.93,1.74-1.23,2.67-0.69l24.19,14.23c0.93,0.54,1.23,1.74,0.69,2.67C638.53,1186.6,637.87,1186.94,637.21,1186.94z"/></g><g><path fill="#373b42" d="M650.83,1178.5c-0.34,0-0.68-0.09-0.99-0.27L625.65,1164c-0.93-0.54-1.23-1.74-0.69-2.67
			c0.55-0.93,1.74-1.24,2.67-0.69l24.18,14.23c0.93,0.54,1.23,1.74,0.69,2.67C652.14,1178.16,651.49,1178.5,650.83,1178.5z"/></g><g><polygon fill="#bec4cd" points="415.97 650.91 416.46 822.23 346.63 862.54 346.15 691.22"/></g><g><polygon fill="#1fb6ff" points="530.81 523.35 531.29 755.93 461.47 796.25 460.98 563.66"/></g><g><polygon fill="#bec4cd" points="645.64 577.1 646.12 689.63 576.3 729.95 575.81 617.41"/></g><g><polygon fill="#1fb6ff" points="760.42 350.16 760.91 623.36 691.13 663.65 690.64 390.45"/></g></svg>