<svg xmlns="http://www.w3.org/2000/svg" enable-background="new 0 0 3000 3000" viewBox="0 0 3000 3000"><path fill="#f9f8f4" d="M2597,1064.8h-365.9c-26.4,0-47.8,21.4-47.8,47.8v478.6c0,26.4,21.4,47.8,47.8,47.8H2597      c26.4,0,47.8-21.4,47.8-47.8v-478.6C2644.8,1086.3,2623.4,1064.8,2597,1064.8z"/><rect width="461.6" height="263.2" x="2183.3" y="1209.2" fill="#e8e5d9"/><path fill="#e8e5d9" d="M2295.6,1133.7c0,19.7-16,35.7-35.7,35.7s-35.7-16-35.7-35.7c0-19.7,16-35.7,35.7-35.7    S2295.6,1114,2295.6,1133.7z"/><path fill="#e8e5d9" d="M2295.6,1537.1c0,19.7-16,35.7-35.7,35.7s-35.7-16-35.7-35.7s16-35.7,35.7-35.7S2295.6,1517.4,2295.6,1537.1z    "/><circle cx="2353.1" cy="1537.1" r="35.7" fill="#e8e5d9"/><path fill="#e8e5d9" d="M2602.7,1537.1c0,19.7-16,35.7-35.7,35.7c-19.7,0-35.7-16-35.7-35.7s16-35.7,35.7-35.7    C2586.8,1501.5,2602.7,1517.4,2602.7,1537.1z"/><path fill="#e8e5d9" d="M2329.4,1146.4h171.8c6.2,0,11.3-5.1,11.3-11.3s-5.1-11.3-11.3-11.3h-171.8c-6.2,0-11.3,5.1-11.3,11.3     S2323.2,1146.4,2329.4,1146.4z"/><path fill="#f9f8f4" d="M2369.9,1272.2c18.2,0,31.8,11.1,31.8,32.4c0,21.3-13.6,32.4-31.8,32.4c-18.2,0-32-11.1-32-32.4     C2337.9,1283.3,2351.7,1272.2,2369.9,1272.2z M2360.6,1304.5c0,9,3.4,13,9.2,13c5.7,0,9.4-4,9.4-13c0-9.2-3.6-13.2-9.4-13.2     C2364,1291.3,2360.6,1295.3,2360.6,1304.5z M2436.4,1274.3l31.6,0l-73.8,134.9l-31.6,0L2436.4,1274.3z M2460.9,1346.5     c18.2,0,31.8,10.9,31.8,32.4c0,21.3-13.6,32.4-31.8,32.4c-18.2,0-31.8-11.1-31.8-32.4C2429.1,1357.4,2442.7,1346.5,2460.9,1346.5     z M2451.6,1378.9c0,9,3.5,13,9.2,13c5.7,0,9.4-4,9.4-13c0-9-3.6-13.2-9.4-13.2C2455,1365.6,2451.6,1369.9,2451.6,1378.9z"/><path fill="#f9f8f4" d="M768.9,790.7H403c-26.4,0-47.8,21.4-47.8,47.8v478.6c0,26.4,21.4,47.8,47.8,47.8h365.9     c26.4,0,47.8-21.4,47.8-47.8V838.5C816.7,812.1,795.3,790.7,768.9,790.7z"/><rect width="461.6" height="263.2" x="355.2" y="935" fill="#e8e5d9"/><rect width="154.6" height="24" x="407.3" y="1297.1" fill="#e8e5d9" transform="rotate(-180 484.599 1309.1)"/><rect width="217.7" height="24" x="407.3" y="1244.8" fill="#e8e5d9"/><rect width="108.8" height="24" x="655.8" y="1244.8" fill="#e8e5d9"/><path fill="#e8e5d9" d="M467.5,859.5c0,19.7-16,35.7-35.7,35.7s-35.7-16-35.7-35.7s16-35.7,35.7-35.7S467.5,839.8,467.5,859.5z"/><path fill="#e8e5d9" d="M501.3,872.2h171.8c6.2,0,11.3-5.1,11.3-11.3c0-6.2-5.1-11.3-11.3-11.3H501.3c-6.2,0-11.3,5.1-11.3,11.3    C490,867.1,495.1,872.2,501.3,872.2z"/><path fill="#c1bcae" d="M514.4,1085.1c0,0,46.4,49.1,44.7,58.8c-1.7,9.7-21.2,16.6-21.2,16.6s-51.9-57.6-50.3-62.8     C489.2,1092.6,514.4,1085.1,514.4,1085.1z"/><path fill="#d6d2c4" d="M514.8,1092.4c0,0,42.1,44.7,40.3,54.9c-1.8,10.2-22.5,17.5-22.5,17.5s-22.5-42.9-53.4-66.2     C480.9,1093.2,514.8,1092.4,514.8,1092.4z"/><path fill="#c1bcae" d="M533.2,1113c-2.6,8.4-6.5,21-11.2,33.9c-9.5-14.5-24.6-34.7-42.6-48.3c1.6-5.4,35.5-6.2,35.5-6.2     S523.7,1101.9,533.2,1113z"/><path fill="#c1bcae" d="M479.9,1092c3.4,11.9,2.6,22.5-1.6,23.7c-4.2,1.2-10.4-7.5-13.8-19.3c-3.4-11.9-2.6-22.5,1.6-23.7     C470.4,1071.5,476.6,1080.1,479.9,1092z"/><path fill="#d6d2c4" d="M528.2,1048.7l-57.5,16.2c-4.2,1.2-4.2,14.5,0.1,29.6c4.3,15.2,11.2,26.5,15.4,25.3l57.5-16.2L528.2,1048.7z     "/><path fill="#f7f5eb" d="M677.4,1035.9c-12.9-45.8-30-81.2-38.8-81.1l-0.1-0.2c0,0-0.2,0.1-0.4,0.2c-0.1,0-0.2,0-0.3,0     c-0.7,0.2-1.2,0.7-1.7,1.3c-4.5,3-15.5,12-36.4,36.8c-25.6,30.4-70.5,55.5-71.4,55.8c-4.3,1.2-4.2,14.5,0.1,29.6     c4.3,15.2,11.2,26.5,15.4,25.3c1-0.3,52.5-2.7,89.9,9.8c31.1,10.4,45.2,12.1,50.5,12.3c0.7,0.2,1.3,0.3,1.9,0.1     c0,0,0.1-0.1,0.1-0.1c0.5,0,0.7-0.1,0.7-0.1l-0.1-0.3C694.3,1120.8,690.3,1081.7,677.4,1035.9z"/><path fill="#d6d2c4" d="M685.1,1121.2c-6.6,1.9-20.2-25.3-32-62.8c-1.5-4.6-2.9-9.5-4.3-14.4c-1.4-4.8-2.6-9.6-3.8-14.3     c-9.6-38.3-12.2-68.6-5.6-70.5c7.4-2.1,23.7,32.4,36.3,77.2C688.3,1081.1,692.5,1119.1,685.1,1121.2z"/><path fill="#f9f8f4" d="M672.2,1050.9l-19.1,7.6c-1.5-4.6-2.9-9.5-4.3-14.4c-1.4-4.8-2.6-9.6-3.8-14.3l20.4-3.3L672.2,1050.9z"/><path fill="#d6d2c4" d="M660.1,1055.6l-7,2.8c-1.5-4.6-2.9-9.4-4.3-14.4c-1.4-4.8-2.6-9.6-3.8-14.3l13.1-2.1L660.1,1055.6z" opacity=".5"/><path fill="#c1bcae" d="M672.5,1037.6c1.9,6.7,1.7,12.7-0.3,13.3c-2.1,0.6-5.3-4.4-7.2-11.1c-1.9-6.7-1.7-12.7,0.3-13.3     C667.4,1025.9,670.6,1030.9,672.5,1037.6z"/><g><circle cx="587.3" cy="1694" r="115.8" fill="#f9f8f4" transform="rotate(-2.993 587.234 1693.932) scale(.99996)"/><rect width="33.9" height="64.4" x="532.9" y="1673.5" fill="#e8e5d9" transform="rotate(-.836 549.85 1705.677)"/><path fill="#e8e5d9" d="M648.8,1692.9l-0.3,0l-0.2-11.1c-0.1-5.9-4.9-10.6-10.8-10.5l-29.9,0.4c0,0,11.9-17.1,11.8-28    c-0.1-9.7-0.8-22.6-15.1-22.4c0,0-5.2,3.3-5,17.9c0.2,13.5-27.3,33.9-27.3,33.9l1,66.5c0,0,6.2,5.6,15.7,5.4l43.3-0.6    c6.1-0.1,11-5.1,10.9-11.3l-0.1-6.7c3.6-0.1,6.5-3,6.4-6.6l-0.1-7.8c2.2,0,3.9-1.8,3.9-4l-0.2-11.3    C652.8,1694.6,651,1692.9,648.8,1692.9z"/></g><g><path fill="#f9f8f4" d="M2220.8,2087c0.7,64,53.2,115.2,117.2,114.5c64-0.7,115.2-53.2,114.5-117.2c-0.7-64-53.2-115.2-117.2-114.5   C2271.3,1970.6,2220.1,2023,2220.8,2087z"/><path fill="#e8e5d9" d="M2403.6,2042.2c-28-34.4-66.9,5.7-66.9,5.7s-38.9-40.1-66.9-5.7c-18.8,23.1,26.6,99.2,66.9,111.6   C2377,2141.4,2422.3,2065.2,2403.6,2042.2z"/></g><g><path fill="#f9f8f4" d="M2033,2547.5c-84.5,2.1-1072.1-34.5-1377.2,34.9c-189.2,43,212.7,92.4,475.2,99.3   c650.7,17.3,613.8-36.6,1087.2-36.2C2509,2645.7,2430.4,2537.9,2033,2547.5z"/><path fill="#d6d2c4" d="M1037.7,2604.4c-91.5,0-166-74.5-166-166.1V481c0-91.6,74.5-166.1,166-166.1h928.7     c91.5,0,166,74.5,166,166.1v1957.4c0,91.6-74.5,166.1-166,166.1H1037.7z"/><path fill="#f9f8f4" d="M2092.2,481v1957.4c0,69.5-56.4,125.9-125.9,125.9h-928.7c-69.5,0-125.9-56.4-125.9-125.9V481     c0-69.6,56.4-125.9,125.9-125.9h928.7C2035.9,355,2092.2,411.4,2092.2,481z"/><rect width="466.7" height="414.9" x="992.4" y="1472.4" fill="#e8e5d9"/><rect width="304.3" height="393.5" x="1565.8" y="594.2" fill="#e8e5d9"/><rect width="996.4" height="230.4" x="1021" y="2232.1" fill="#e8e5d9"/></g><g><path fill="#e5baac" d="M1910.4,1172.6c0,0,240.8,336.9,111.3,423.8c-77.8,52.2-312-304.9-309.2-344.7    C1715.3,1211.8,1910.4,1172.6,1910.4,1172.6z"/><path fill="#47271f" d="M1581.8,461.5c-272.1,19.9-110.4,165.9-304.3,277.5c-193.9,111.6-370.1-16-311.9,192.2    c-99.4,55.8-217.3,145.5-129.2,232.2c137.3,135.1,216,112.2,216,112.2s-81.1,403,320.8,288.7c302.9-86.2,254.8-313.9,267.3-440.5    c49.3-15.5,79.6-47.6,79-101.2C1716.9,785.3,1794.5,446,1581.8,461.5z"/><path fill="#f5b501" d="M1941.5,1141.9c63.4,76.4-109.5,226.7-141.6,205.9c-32-20.9-144.3-391.8-144.3-391.8l66.7,3.1    C1722.3,959,1856.1,1038.9,1941.5,1141.9z"/><path fill="#47271f" d="M1593.2,2550l1.9,14.3h378.3c-10.8-399.9-29.2-782.3-29.2-782.3h-445.7l93.6,760.5L1593.2,2550z"/><polygon fill="#5e3f35" points="1606.8 2564.3 1716.5 1774 1148.1 1774 1191 2564.3"/><path fill="#ffca03" d="M1655.6,955.9l-203.4,3c-183.9,332.4-330.3,693.5-317.9,845.1c13.7,168.7,803,140.5,827.9,0    C1978.2,1714.2,1756,1178.7,1655.6,955.9z"/><path fill="#f5b501" d="M1962.3,1804.1c-25,140.5-814.2,168.7-828,0c-4.1-51.5,9.9-127.1,37.6-217.5    c63.8,47.6,143.2,80.2,237.3,69.9c208.9-22.8,343.9-239.5,397.4-344C1892.7,1527.4,1972,1749.2,1962.3,1804.1z" opacity=".5"/><path fill="#f5b501" d="M1474.7,981.3c-0.1,21.7,42.5,91.3,91.3,91.6c48.8,0.3,85.3-68.9,85.4-90.5c0.1-21.7-39.3-39.5-88.1-39.8       C1514.5,942.4,1474.9,959.7,1474.7,981.3z"/><path fill="#f4caba" d="M1502.6,975.7c0,0,27.9,82.6,66,82.8c38.1,0.2,55.1-81,55.1-81s-5.3-37.5-9.1-65.2        c-2.3-16.8-4.1-30.5-4.3-32.8l-95.5-0.6l-5.4,42.7L1502.6,975.7z"/><path fill="#e5baac" d="M1509.4,921.7c15.2,15.6,33.1,26.3,47.5,26.4c17.5,0.1,40.4-15.1,57.7-35.7c-2.3-16.8-4.1-30.5-4.3-32.8        l-95.5-0.6L1509.4,921.7z"/><path fill="#f4caba" d="M1718.5,710c-10.8-21-30.3-15-41.4-9.2c-0.5-45-5.8-79.3-5.8-79.3c-0.4-2.4-1.1-4.7-2.3-6.9          c-22.4-40.4-185.7-41.9-218.8-4.7c-3.2,3.4-5.1,7.4-5.7,11.6c0,0-5,34.5-5.1,79.6c-10.9-5.8-31-12.5-42,8.9          c-15.3,29.9,19.1,74.3,48.2,73.1c11.3,66,83.6,127.1,112.3,127.1c37,0,102.6-61.1,113.6-127          C1700.3,783.2,1733.7,739.5,1718.5,710z"/><path fill="#e5baac" d="M1676.9,730.6l-5.4,52.6c0,0,13.5-1.9,19.2-5.8L1676.9,730.6z"/><path fill="#e5baac" d="M1440.1,730.6l5.4,52.6c0,0-9.3,1.2-19.7-5.5L1440.1,730.6z"/><path fill="#eaefee" d="M1559.6,857.5c-23.5,0-37.2-19.8-37.4-20.1c-2.2-3.2-2.1-8.3,0.1-11.4c2.2-3.1,78.6-2.3,80.2,1.5          c1.6,3.8,0.8,8.7-1.8,11.1C1585,852.8,1571.1,857.5,1559.6,857.5z"/><path fill="#47271f" d="M1552.4,779.7c-4-9,1.9-19.1,2.1-19.6c1.2-2,3.7-2.7,5.7-1.5c2,1.2,2.7,3.7,1.5,5.7           c-1.1,2-3.5,8-1.6,12.2c1.5,3,5.3,5,11.4,5.9c2.3,0.3,3.9,2.4,3.5,4.8c-0.3,2.3-2.5,3.9-4.8,3.5c-9-1.3-15-4.9-17.7-10.6           C1552.5,780,1552.4,779.9,1552.4,779.7z"/><path fill="#47271f" d="M1630.9,725.6c0,7.3-5,13.2-11.2,13.2c-6.2,0-11.2-5.9-11.2-13.2c0-7.3,5-13.3,11.2-13.3          c1.7,0,3.4,0.5,4.8,1.3c-2.2,0.7-3.8,3-3.8,5.8c0,3.3,2.3,6,5.1,6c2.1,0,3.9-1.5,4.6-3.6          C1630.7,723.1,1630.9,724.3,1630.9,725.6z"/><path fill="#47271f" d="M1515.6,723.9c0,7.3-5,13.2-11.2,13.2c-6.2,0-11.2-5.9-11.2-13.2c0-7.3,5-13.3,11.2-13.3          c1.7,0,3.4,0.5,4.8,1.3c-2.2,0.7-3.8,3-3.8,5.8c0,3.3,2.3,6,5.1,6c2.1,0,3.9-1.5,4.6-3.6          C1515.4,721.4,1515.6,722.7,1515.6,723.9z"/><path fill="#e5baac" d="M1709.6,736c0.8,0,1.6-0.5,1.9-1.3c7-17.8-10.9-28.3-11-28.4c-1-0.6-2.2-0.2-2.8,0.7           c-0.6,1-0.2,2.2,0.7,2.8c0.6,0.4,15,8.9,9.3,23.4c-0.4,1.1,0.1,2.2,1.2,2.6C1709.1,736,1709.4,736,1709.6,736z"/><path fill="#e5baac" d="M1403.7,736.2c-0.8,0-1.6-0.5-1.9-1.3c-7-17.8,10.9-28.3,11-28.4c1-0.6,2.2-0.2,2.8,0.7           c0.6,1,0.2,2.2-0.7,2.8c-0.6,0.4-15,8.9-9.3,23.4c0.4,1.1-0.1,2.2-1.2,2.6C1404.2,736.1,1404,736.2,1403.7,736.2z"/><path fill="#47271f" d="M1530.2,698.8c0,0-42.6-2.1-46.9-6.3c-4.3-4.2,9.1-13.1,27.9-8.3C1530,688.9,1535.1,698.7,1530.2,698.8          z"/><path fill="#47271f" d="M1596.7,698.8c0,0,42.6-2.1,46.9-6.3c4.3-4.2-9.1-13.1-27.9-8.3          C1596.9,688.9,1591.8,698.7,1596.7,698.8z"/><path fill="#47271f" d="M1589.7,591.3c0,0-68.1,81-151.4,80.2c-26.1-53.8-2.7-106.5,66-137.7c68.7-31.3,145.5,27.3,166.9,57.5     c21.5,30.2,8.6,91.5,8.6,91.5S1596,673.4,1589.7,591.3z"/><g><path fill="#f4caba" d="M1898.1,1025c0,0,157,394.4,161.9,456c5.2,65.3-124.9,139.9-180.5,44.5c-51.3-87.9-54.8-465-54.8-465        L1898.1,1025z"/><path fill="#e5baac" d="M1932,1107.5c-24.9,14.7-66.4,32.2-105.7,17.7c-1.3-39.2-1.5-64.8-1.5-64.8l73.3-35.5        C1898.1,1024.9,1912.3,1058.9,1932,1107.5z"/><path fill="#d1950f" d="M1860.3,902l18.3,72.3l-17.3,13l15.1,53.8c0,0,29.7,14.1,15.8,32.7c-13.9,18.6-62.4,12.6-62.4,12.6       s-48.3-176.9-39.6-186.2C1799,890.9,1860.3,902,1860.3,902z"/><path fill="#f5b501" d="M1853.5,917.9l12.1,53.7l-18.3,13.7l16.1,56.8c0,0,31.5,15,16.8,34.6c-14.7,19.6-66.1,13.1-66.1,13.1       s-1.8-114.7-42.4-196.6C1781,883.4,1853.5,917.9,1853.5,917.9z"/><path fill="#f5b501" d="M1744.9,887.6c8.5,27.9,7.3,53-2.7,56.1c-10,3-25-17.1-33.5-45c-8.5-27.9-7.3-53,2.7-56.1       C1721.4,839.6,1736.4,859.7,1744.9,887.6z"/><path fill="#d1950f" d="M1856.9,782.9l-135.2,41.3c-10,3.1-9.3,34.4,1.6,70.1c10.9,35.6,27.8,62.1,37.8,59l135.2-41.3       L1856.9,782.9z"/><path fill="#f5b501" d="M2178,767.9l-7.2-23.7L2113,555c0,0-23.9,10.2-90.1,92.5c-58.9,73.2-163.9,134.8-166,135.4       c-10,3.1-9.3,34.4,1.6,70.1c10.9,35.6,27.8,62.1,37.8,59c2.3-0.7,124.2-8.9,213,18.6c101,31.3,126.4,26.4,126.4,26.4       L2178,767.9z"/><path fill="#d1950f" d="M2209,745.3c-33.9-111-77.7-195.9-97.9-189.8c-20.2,6.2-9.1,101.1,24.8,212.1       c33.9,111,77.7,195.9,97.9,189.8C2254,951.2,2242.9,856.3,2209,745.3z"/><path fill="#ffca03" d="M2197.4,780.8l-44.9,18.8c-3.7-10.9-7.3-22.2-10.9-33.8c-3.5-11.4-6.7-22.6-9.7-33.5l48-8.8L2197.4,780.8       z"/><path fill="#f5b501" d="M2197.6,749.4c4.8,15.8,4.8,29.9-0.2,31.4c-4.9,1.5-12.8-10.1-17.6-25.9c-4.8-15.8-4.8-29.9,0.2-31.4       C2184.9,722,2192.8,733.6,2197.6,749.4z"/><g><path fill="#f4caba" d="M1924.7,1084.6c-22,8.8-88.4,17-94.4-7.5c-2.8-11.5,5.7-17.7,13.4-19.8c-9.5,0.3-20.3,0-21-14.4        c-0.5-10.3,4.5-15,20.5-18c-6.2,0.3-21.4-0.7-22.1-11.4c-1.2-18,13.2-20.5,18.7-22c-3.7,0.1-6.2-5.5-5.9-12.4        c0.3-8.6-2-17.3,23.4-20.5c8.4-1.1,10.7-6.5,22.1-5.4c8.8,0.8,18,0.7,24.8,4.8C1937,978,1944.2,1076.8,1924.7,1084.6z"/><path fill="#d3a89c" d="M1873.5,1052.6c-13.3,0.7-29,4-28.9,4.7c0.1,0.7,25.2-3,40.2-2.1c0.7,0.1,1.4-0.5,1.4-1.3      c0-0.7-0.5-1.4-1.3-1.4C1881.4,1052.4,1877.5,1052.4,1873.5,1052.6z"/><path fill="#d3a89c" d="M1871.8,1020.1c-13.3,0.7-29,4-28.9,4.7c0.1,0.7,25.2-3,40.2-2.1c0.7,0,1.4-0.5,1.4-1.3      c0-0.7-0.5-1.4-1.3-1.4C1879.8,1019.9,1875.8,1019.9,1871.8,1020.1z"/><path fill="#d3a89c" d="M1870.1,987.6c-13.3,0.7-29,4-28.9,4.7c0.1,0.7,25.2-3,40.2-2.1c0.7,0,1.4-0.5,1.4-1.3      c0-0.7-0.5-1.4-1.3-1.4C1878.1,987.4,1874.1,987.4,1870.1,987.6z"/></g><path fill="#f4caba" d="M1786,995.1c1-3.1,17.5-49.7,36.4-46.5c18.9,3.2-8.3,76.9-6.7,77.6c1.6,0.7-1.6,57.5-2.5,56.8     C1799.7,1073.9,1775.1,1027.4,1786,995.1z"/><path fill="#fff" d="M1801.6,964.2c0,0,7.7,3.3,8.1,3c0.4-0.3,7.7-15.3,7.9-16.8C1817.8,948.8,1809.3,951.9,1801.6,964.2z" opacity=".5"/></g><g><path fill="#f5b501" d="M1954.5,1512l-897.6,336.2c-82.8,31-125,123.7-94,206.5c31,82.8,123.7,125,206.5,94l897.6-336.2      c82.9-31,125-123.7,94-206.5C2130,1523.1,2037.4,1481,1954.5,1512z M2060.7,1795.5l-897.6,336.2c-36.8,13.8-75.7,11.3-108.8-3.7      c-33.1-15.1-60.5-42.8-74.3-79.6c-27.6-73.6,9.7-155.6,83.3-183.2l897.6-336.2c36.8-13.8,75.7-11.3,108.8,3.7      c33.1,15.1,60.5,42.8,74.3,79.6C2171.6,1685.9,2134.3,1767.9,2060.7,1795.5z"/><path fill="#f9d980" d="M2144.1,1612.3c27.6,73.6-9.7,155.6-83.3,183.2l-897.6,336.2c-36.8,13.8-75.7,11.3-108.8-3.7      c-33.1-15.1-60.5-42.8-74.3-79.6c-27.6-73.6,9.7-155.6,83.3-183.2l897.6-336.2c36.8-13.8,75.7-11.3,108.8,3.7      C2102.9,1547.8,2130.3,1575.5,2144.1,1612.3z"/><path fill="#f5b501" d="M1147.8,2019.8l28.4-10.6c7.7-2.9,16.2,1,19.1,8.7c2.9,7.7-1,16.2-8.7,19.1l-28.4,10.6       c-7.7,2.9-16.2-1-19.1-8.7C1136.3,2031.2,1140.2,2022.7,1147.8,2019.8z"/><path fill="#f5b501" d="M1492.1,1890.6l28.4-10.6c7.7-2.9,16.2,1,19.1,8.7c2.9,7.7-1,16.2-8.7,19.1l-28.4,10.6       c-7.7,2.9-16.2-1-19.1-8.7C1480.6,1902.1,1484.4,1893.5,1492.1,1890.6z"/><path fill="#f5b501" d="M1227.9,1989.8l211.1-79.2c7.7-2.9,16.2,1,19.1,8.7c2.9,7.7-1,16.2-8.7,19.1l-211.1,79.2       c-7.7,2.9-16.2-1-19.1-8.7C1216.4,2001.2,1220.3,1992.6,1227.9,1989.8z"/><path fill="#f5b501" d="M1399.5,1867.3l-270.8,101.6c-7.7,2.9-16.2-1-19.1-8.7c-2.9-7.7,1-16.2,8.7-19.1l270.8-101.6       c7.7-2.9,16.2,1,19.1,8.7C1411.1,1855.9,1407.2,1864.4,1399.5,1867.3z"/><path fill="#f5b501" d="M1556.2,1808.5l-104.9,39.4c-7.7,2.9-16.2-1-19.1-8.7s1-16.2,8.7-19.1l104.9-39.4c7.7-2.9,16.2,1,19.1,8.7       C1567.7,1797.1,1563.8,1805.7,1556.2,1808.5z"/><path fill="#f5b501" d="M1713.3,1862.6c-30.9,11.6-60.9,5.3-72.8-23.4l37.3-14c5.2,10.7,14.1,13.4,24,9.7       c10.2-3.8,14.9-11.4,11.7-19.8c-10-26.6-76.5,14.7-95.3-36.5c-10.2-27.2,6.4-50.8,36.5-62.1c31.3-11.8,58.3-4.1,70,22.8       l-37.9,14.2c-4.1-9-12.7-12.1-22.2-8.7c-8.5,2.9-13.2,9.6-9.8,18.6c9.4,25,76.2-13,94.3,35.2       C1758.2,1822.8,1746.9,1850,1713.3,1862.6z"/><path fill="#f5b501" d="M1831.3,1684.6l-53.1,19.9l10.9,29.1l46.9-17.6l10.1,27l-46.9,17.6l11.8,31.5l53.1-19.9l10.5,28.1       l-88.1,33.1l-54-143.8l88.1-33.1L1831.3,1684.6z"/><path fill="#f5b501" d="M1966.1,1767.7c-40.8,15.3-85.4-2.8-101.6-46c-16.2-43.2,5.6-86,46.3-101.3c41-15.4,84.9,2.7,101.1,45.9       C2028.2,1709.5,2006.9,1752.4,1966.1,1767.7z M1954.1,1735.7c22.9-8.6,31.7-30.8,22.2-56c-9.6-25.6-30.6-36.2-53.6-27.6       c-23.4,8.8-32,30.5-22.4,56.1C1909.8,1733.4,1930.8,1744.5,1954.1,1735.7z"/><path fill="#f4caba" d="M1171.7,1269.7c0,0-106.5,240.8-82,331c30.1,110.7,290.9,398.1,290.9,398.1l70.7-43.6l-194.9-390.7     l94.2-249.2L1171.7,1269.7z"/><path fill="#d3a89c" d="M1120.3,1588.8c0,0,104.2-35.4,136.2-24.3C1256.5,1564.6,1190.4,1606.4,1120.3,1588.8z"/><path fill="#f5b501" d="M1133.6,1280.6c-50.2,85.7,190.6,132.2,217.1,104.7S1456,958.7,1456,958.7l-66.1,5.1     C1389.9,963.8,1238.4,1101.7,1133.6,1280.6z"/><path fill="#f4caba" d="M1388.1,2088.4L1388.1,2088.4c-3.3-6.8-6.9-17.1-10.8-32.6c0,0,0.1,0.1,0.2,0.3c-2.2-7.7-4-15.8-5.3-24       c-2.3-14.2-3.2-24.7-3.5-32.2c0,0,0-0.1,0-0.1c-0.3-11,0.7-15.4,0.7-15.4s61.5-50.5,84.5-34.9c26.9,18.2,102.2,24.1,88.5,44.7       c-13.7,20.6-61.4,0.1-61.4,0.1s0.4,0.5,1.1,1.5c4.2,6,19.4,29,25.7,53.7l0,0c1.7,6.9,2.7,13.9,2.6,20.7c0,1.2-0.1,2.4-0.1,3.6       c-0.2,2.1-0.4,4.2-0.9,6.3c-0.1,0.3-0.1,0.7-0.2,1c-0.2,1-0.5,2.1-0.8,3.1l0,0.1c0,0,0,0-0.1,0c-1.5,2.4-4.1,4.8-8.4,6.7       c-13.9,6-20.3-4.1-20.3-4.1s-0.2,11.8-12.1,14.9c-12.7,3.3-14.7-6.2-14.7-6.2s-4.2,12-14.2,14.3c-10.6,2.4-12.8-8.8-12.8-8.8       s-1.7,8.9-14.1,11.9C1400.3,2115.7,1388.1,2088.4,1388.1,2088.4z"/></g><g><polygon fill="#f9f8f4" points="2227.7 660.2 2312.5 550.4 2333 572.9"/><polygon fill="#e8e5d9" points="2253.9 732.7 2478.5 623.3 2493.4 678"/><polygon fill="#f9f8f4" points="2261.6 815.7 2414.8 821.9 2409.2 861.9"/></g></g><g><path fill="#e8e5d9" d="M1059.8,432.7h220.2c19.9,0,36.1,16.2,36.1,36.1v82.8c0,16.5-11.1,30.4-26.2,34.7L1301,632l-78.8-44.3h-162.4   c-19.9,0-36.1-16.2-36.1-36.1v-82.8C1023.6,448.9,1039.8,432.7,1059.8,432.7z"/><path fill="#d6d2c4" d="M1125.2,504.8c0,10-8.1,18.1-18.1,18.1s-18.1-8.1-18.1-18.1c0-10,8.1-18.1,18.1-18.1    S1125.2,494.8,1125.2,504.8z"/><path fill="#d6d2c4" d="M1186.2,504.8c0,10-8.1,18.1-18.1,18.1s-18.1-8.1-18.1-18.1c0-10,8.1-18.1,18.1-18.1    S1186.2,494.8,1186.2,504.8z"/><path fill="#d6d2c4" d="M1248.1,504.8c0,10-8.1,18.1-18.1,18.1s-18.1-8.1-18.1-18.1c0-10,8.1-18.1,18.1-18.1    S1248.1,494.8,1248.1,504.8z"/></g></svg>