<svg xmlns="http://www.w3.org/2000/svg" xmlns:xlink="http://www.w3.org/1999/xlink" enable-background="new 0 0 3000 2500" viewBox="0 0 3000 2500"><rect width="2918.6" height="2432.2" x="40.7" y="33.9" fill="none"/><g opacity=".17"><ellipse cx="1521.6" cy="1975.8" fill="#4c0000" opacity="0" rx="407.2" ry="134.6" transform="matrix(.9977 -.06738 .06738 .9977 -129.673 107.019)"/><ellipse cx="1527.8" cy="1973.6" fill="#4a0101" opacity=".038" rx="397.3" ry="131.3" transform="matrix(.9977 -.06738 .06738 .9977 -129.513 107.432)"/><ellipse cx="1534" cy="1971.5" fill="#480202" opacity=".077" rx="387.5" ry="128.1" transform="matrix(.9977 -.06738 .06738 .9977 -129.354 107.846)"/><ellipse cx="1540.3" cy="1969.3" fill="#460303" opacity=".115" rx="377.6" ry="124.8" transform="matrix(.9977 -.06738 .06738 .9977 -129.194 108.26)"/><ellipse cx="1546.5" cy="1967.2" fill="#440404" opacity=".154" rx="367.8" ry="121.5" transform="matrix(.9977 -.06738 .06738 .9977 -129.035 108.673)"/><ellipse cx="1552.7" cy="1965" fill="#420505" opacity=".192" rx="357.9" ry="118.3" transform="matrix(.9977 -.06738 .06738 .9977 -128.875 109.087)"/><ellipse cx="1558.9" cy="1962.8" fill="#400606" opacity=".231" rx="348.1" ry="115" transform="matrix(.9977 -.06738 .06738 .9977 -128.716 109.5)"/><ellipse cx="1565.1" cy="1960.7" fill="#3e0606" opacity=".269" rx="338.2" ry="111.8" transform="rotate(-3.864 1565.053 1960.633) scale(.99997)"/><ellipse cx="1571.3" cy="1958.5" fill="#3c0707" opacity=".308" rx="328.4" ry="108.5" transform="matrix(.9977 -.06738 .06738 .9977 -128.397 110.328)"/><ellipse cx="1577.5" cy="1956.4" fill="#3a0808" opacity=".346" rx="318.5" ry="105.3" transform="scale(.99997) rotate(-3.864 1577.541 1956.4)"/><ellipse cx="1583.7" cy="1954.2" fill="#380909" opacity=".385" rx="308.7" ry="102" transform="matrix(.9977 -.06738 .06738 .9977 -128.078 111.155)"/><ellipse cx="1589.9" cy="1952.1" fill="#360a0a" opacity=".423" rx="298.8" ry="98.8" transform="matrix(.9977 -.06738 .06738 .9977 -127.918 111.569)"/><ellipse cx="1596.2" cy="1949.9" fill="#340b0b" opacity=".462" rx="288.9" ry="95.5" transform="matrix(.9977 -.06738 .06738 .9977 -127.759 111.982)"/><ellipse cx="1602.4" cy="1947.7" fill="#330c0c" opacity=".5" rx="279.1" ry="92.2" transform="matrix(.9977 -.06738 .06738 .9977 -127.6 112.396)"/><ellipse cx="1608.6" cy="1945.6" fill="#310d0d" opacity=".538" rx="269.2" ry="89" transform="matrix(.9977 -.06738 .06738 .9977 -127.44 112.81)"/><ellipse cx="1614.8" cy="1943.4" fill="#2f0e0e" opacity=".577" rx="259.4" ry="85.7" transform="matrix(.9977 -.06738 .06738 .9977 -127.28 113.223)"/><ellipse cx="1621" cy="1941.3" fill="#2d0f0f" opacity=".615" rx="249.5" ry="82.5" transform="matrix(.9977 -.06738 .06738 .9977 -127.12 113.637)"/><ellipse cx="1627.2" cy="1939.1" fill="#2b1010" opacity=".654" rx="239.7" ry="79.2" transform="matrix(.9977 -.06738 .06738 .9977 -126.961 114.05)"/><ellipse cx="1633.4" cy="1937" fill="#291111" opacity=".692" rx="229.8" ry="76" transform="matrix(.9977 -.06738 .06738 .9977 -126.802 114.464)"/><ellipse cx="1639.6" cy="1934.8" fill="#271212" opacity=".731" rx="220" ry="72.7" transform="matrix(.9977 -.06738 .06738 .9977 -126.642 114.878)"/><ellipse cx="1645.9" cy="1932.6" fill="#251212" opacity=".769" rx="210.1" ry="69.4" transform="matrix(.9977 -.06738 .06738 .9977 -126.483 115.292)"/><ellipse cx="1652.1" cy="1930.5" fill="#231313" opacity=".808" rx="200.2" ry="66.2" transform="matrix(.9977 -.06738 .06738 .9977 -126.323 115.705)"/><ellipse cx="1658.3" cy="1928.3" fill="#211414" opacity=".846" rx="190.4" ry="62.9" transform="matrix(.9977 -.06738 .06738 .9977 -126.163 116.119)"/><ellipse cx="1664.5" cy="1926.2" fill="#1f1515" opacity=".885" rx="180.5" ry="59.7" transform="matrix(.9977 -.06738 .06738 .9977 -126.004 116.533)"/><ellipse cx="1670.7" cy="1924" fill="#1d1616" opacity=".923" rx="170.7" ry="56.4" transform="rotate(-3.864 1670.65 1923.948) scale(.99997)"/><ellipse cx="1676.9" cy="1921.8" fill="#1b1717" opacity=".962" rx="160.8" ry="53.2" transform="matrix(.9977 -.06738 .06738 .9977 -125.685 117.36)"/><ellipse cx="1683.1" cy="1919.7" fill="#191818" rx="151" ry="49.9" transform="matrix(.9977 -.06738 .06738 .9977 -125.525 117.774)"/></g><linearGradient id="a" x1="1640.967" x2="1503.306" y1="1910.369" y2="1910.369" gradientUnits="userSpaceOnUse"><stop offset="0" stop-color="#7f7f7f"/><stop offset="1" stop-color="#e9e9e9"/></linearGradient><path fill="url(#a)" d="M1854.7,1927.1c0,21-11.6,40.2-30.2,50l-181.9,95.7c-16.4,8.6-36.4,6.2-50.3-6L1403,1899.9
			c-14.8-13-11.9-36.8,5.5-46l124.2-65.3c7.1-3.7,12.9-9.3,16.9-15.9c4-6.6,6.2-14.3,6.2-22.4c0-2.6-0.3-5-0.9-7.4l222.3,131.2
			l0.1,0c8.8,5.9,19,9.8,29.9,11l11.1,1.2c10.4,1.2,19.5,6.1,26,13.4C1850.7,1907,1854.7,1916.6,1854.7,1927.1z"/><linearGradient id="b" x1="2133.498" x2="1395.935" y1="770.335" y2="1836.811" gradientUnits="userSpaceOnUse"><stop offset="0" stop-color="#7f7f7f"/><stop offset=".611" stop-color="#5b5b5b"/><stop offset=".776" stop-color="#fff"/><stop offset="1" stop-color="#444"/></linearGradient><path fill="url(#b)" d="M1623.7,464.9l883.5,219.7c36.2,2.8,67.9,90.6,54.2,124.2l-438.3,1082.6c-12.2,30.2-47.7,43.5-76.7,28.7
			l-866.6-441.3c-27.1-12.8-72.7-77.7-60.6-105.1L1549,509.5C1561.9,480.3,1591.8,462.4,1623.7,464.9z"/><linearGradient id="c" x1="1223.356" x2="1938.154" y1="-145.973" y2="1271.609" gradientUnits="userSpaceOnUse"><stop offset="0" stop-color="#7f7f7f"/><stop offset="1" stop-color="#444"/></linearGradient><path fill="url(#c)" d="M1594.7,408.6l892.2,270.3c36.2,2.8,59.2,40,45.5,73.6l-438.3,1082.6c-12.2,30.2-47.7,43.5-76.7,28.7
			l-866.6-441.3c-27.1-12.8-39-44.9-26.9-72.3l396.1-897C1532.9,424,1562.9,406.1,1594.7,408.6z"/><linearGradient id="d" x1="1240.94" x2="1935.955" y1="-111.023" y2="1267.325" gradientUnits="userSpaceOnUse"><stop offset="0" stop-color="#3abaf9"/><stop offset="1" stop-color="#267ebd"/></linearGradient><path fill="url(#d)" d="M2042.5,1848.8c-5.4,0-10.7-1.3-15.6-3.8l-866.8-441.4l-0.3-0.1c-16.9-8-24.2-27.6-16.6-44.7l396.1-897
			c8.7-19.6,28.1-32.3,49.5-32.3c1.4,0,2.8,0.1,4.2,0.2l892.2,270.3c10.5,0.8,19.6,6.4,25.1,15.3c5.5,8.9,6.4,19.6,2.5,29.3
			l-438.3,1082.6C2069.2,1840.3,2056.7,1848.8,2042.5,1848.8z"/><linearGradient id="e" x1="1531.804" x2="1696.021" y1="1578.636" y2="1904.309" gradientUnits="userSpaceOnUse"><stop offset="0" stop-color="#7f7f7f"/><stop offset="1" stop-color="#e9e9e9"/></linearGradient><path fill="url(#e)" d="M1777.2,1863.4L1555,1732.2l-45.7-26.9l0,0c-14.6-4.8-26.5-16-32-30.8l-21.2-57.6l268.5,139.4l27.6,75.1
			C1757.1,1844.6,1765.9,1855.7,1777.2,1863.4z"/><linearGradient id="f" x1="1712.831" x2="1508.286" y1="1801.102" y2="2023.886" gradientUnits="userSpaceOnUse"><stop offset="0" stop-color="#7f7f7f"/><stop offset="1" stop-color="#e9e9e9"/></linearGradient><path fill="url(#f)" d="M1854.7,1916.4c0,21-11.6,40.2-30.2,50l-181.9,95.7c-16.4,8.6-36.4,6.2-50.3-6L1403,1889.3
			c-14.8-13-11.9-36.8,5.5-46l124.2-65.3c7.1-3.7,12.9-9.3,16.9-15.9c4-6.6,6.2-14.3,6.2-22.4c0-2.6-0.3-5-0.9-7.4l222.3,131.2
			l0.1,0c8.8,5.9,19,9.8,29.9,11l11.1,1.2c10.4,1.2,19.5,6.1,26,13.4C1850.7,1896.4,1854.7,1906,1854.7,1916.4z"/><g opacity=".38"><ellipse cx="1952.4" cy="1596.1" fill="#4c0000" opacity="0" rx="400.8" ry="192.9" transform="rotate(-66.239 1952.47 1596.147)"/><ellipse cx="1952.4" cy="1596.1" fill="#4a0101" opacity=".038" rx="391.1" ry="188.2" transform="rotate(-66.239 1952.47 1596.147)"/><ellipse cx="1952.4" cy="1596.1" fill="#480202" opacity=".077" rx="381.4" ry="183.5" transform="rotate(-66.239 1952.47 1596.147)"/><ellipse cx="1952.4" cy="1596.1" fill="#460303" opacity=".115" rx="371.7" ry="178.8" transform="rotate(-66.239 1952.47 1596.147)"/><ellipse cx="1952.4" cy="1596.1" fill="#440404" opacity=".154" rx="362" ry="174.2" transform="rotate(-66.239 1952.47 1596.147)"/><ellipse cx="1952.4" cy="1596.1" fill="#420505" opacity=".192" rx="352.3" ry="169.5" transform="rotate(-66.239 1952.47 1596.147)"/><ellipse cx="1952.4" cy="1596.1" fill="#400606" opacity=".231" rx="342.6" ry="164.8" transform="rotate(-66.239 1952.47 1596.147)"/><ellipse cx="1952.4" cy="1596.1" fill="#3e0606" opacity=".269" rx="332.9" ry="160.2" transform="rotate(-66.239 1952.47 1596.147)"/><ellipse cx="1952.4" cy="1596.1" fill="#3c0707" opacity=".308" rx="323.2" ry="155.5" transform="rotate(-66.239 1952.47 1596.147)"/><ellipse cx="1952.4" cy="1596.1" fill="#3a0808" opacity=".346" rx="313.5" ry="150.8" transform="rotate(-66.239 1952.47 1596.147)"/><ellipse cx="1952.4" cy="1596.1" fill="#380909" opacity=".385" rx="303.8" ry="146.2" transform="rotate(-66.239 1952.47 1596.147)"/><ellipse cx="1952.4" cy="1596.1" fill="#360a0a" opacity=".423" rx="294.1" ry="141.5" transform="rotate(-66.239 1952.47 1596.147)"/><ellipse cx="1952.4" cy="1596.1" fill="#340b0b" opacity=".462" rx="284.4" ry="136.8" transform="rotate(-66.239 1952.47 1596.147)"/><ellipse cx="1952.4" cy="1596.1" fill="#330c0c" opacity=".5" rx="274.7" ry="132.2" transform="rotate(-66.239 1952.47 1596.147)"/><ellipse cx="1952.4" cy="1596.1" fill="#310d0d" opacity=".538" rx="265" ry="127.5" transform="rotate(-66.239 1952.47 1596.147)"/><ellipse cx="1952.4" cy="1596.1" fill="#2f0e0e" opacity=".577" rx="255.3" ry="122.8" transform="rotate(-66.239 1952.47 1596.147)"/><ellipse cx="1952.4" cy="1596.1" fill="#2d0f0f" opacity=".615" rx="245.6" ry="118.2" transform="rotate(-66.239 1952.47 1596.147)"/><ellipse cx="1952.4" cy="1596.1" fill="#2b1010" opacity=".654" rx="235.9" ry="113.5" transform="rotate(-66.239 1952.47 1596.147)"/><ellipse cx="1952.4" cy="1596.1" fill="#291111" opacity=".692" rx="226.2" ry="108.8" transform="rotate(-66.239 1952.47 1596.147)"/><ellipse cx="1952.4" cy="1596.1" fill="#271212" opacity=".731" rx="216.5" ry="104.2" transform="rotate(-66.239 1952.47 1596.147)"/><ellipse cx="1952.4" cy="1596.1" fill="#251212" opacity=".769" rx="206.8" ry="99.5" transform="rotate(-66.239 1952.47 1596.147)"/><ellipse cx="1952.4" cy="1596.1" fill="#231313" opacity=".808" rx="197.1" ry="94.8" transform="rotate(-66.239 1952.47 1596.147)"/><ellipse cx="1952.4" cy="1596.1" fill="#211414" opacity=".846" rx="187.4" ry="90.2" transform="rotate(-66.239 1952.47 1596.147)"/><ellipse cx="1952.4" cy="1596.1" fill="#1f1515" opacity=".885" rx="177.7" ry="85.5" transform="rotate(-66.239 1952.47 1596.147)"/><ellipse cx="1952.4" cy="1596.1" fill="#1d1616" opacity=".923" rx="168" ry="80.8" transform="rotate(-66.239 1952.47 1596.147)"/><ellipse cx="1952.4" cy="1596.1" fill="#1b1717" opacity=".962" rx="158.3" ry="76.2" transform="rotate(-66.239 1952.47 1596.147)"/><ellipse cx="1952.4" cy="1596.1" fill="#191818" rx="148.6" ry="71.5" transform="rotate(-66.239 1952.47 1596.147)"/></g><g opacity=".21"><ellipse cx="859" cy="1919.7" fill="#4c0000" opacity="0" rx="129.6" ry="400.8" transform="rotate(-88.382 858.967 1919.69)"/><ellipse cx="867.2" cy="1919.3" fill="#4a0101" opacity=".038" rx="126.5" ry="391.1" transform="rotate(-88.382 867.199 1919.284)"/><ellipse cx="875.4" cy="1918.9" fill="#480202" opacity=".077" rx="123.3" ry="381.4" transform="rotate(-88.382 875.43 1918.879)"/><ellipse cx="883.7" cy="1918.5" fill="#460303" opacity=".115" rx="120.2" ry="371.7" transform="rotate(-88.382 883.662 1918.473)"/><ellipse cx="891.9" cy="1918.1" fill="#440404" opacity=".154" rx="117" ry="362" transform="rotate(-88.382 891.894 1918.067)"/><ellipse cx="900.1" cy="1917.7" fill="#420505" opacity=".192" rx="113.9" ry="352.3" transform="rotate(-88.382 900.126 1917.661)"/><ellipse cx="908.4" cy="1917.3" fill="#400606" opacity=".231" rx="110.8" ry="342.6" transform="rotate(-88.382 908.357 1917.255)"/><ellipse cx="916.6" cy="1916.8" fill="#3e0606" opacity=".269" rx="107.6" ry="332.9" transform="rotate(-88.382 916.59 1916.85)"/><ellipse cx="924.8" cy="1916.4" fill="#3c0707" opacity=".308" rx="104.5" ry="323.2" transform="rotate(-88.382 924.82 1916.444)"/><ellipse cx="933.1" cy="1916" fill="#3a0808" opacity=".346" rx="101.4" ry="313.5" transform="rotate(-88.382 933.053 1916.038)"/><ellipse cx="941.3" cy="1915.6" fill="#380909" opacity=".385" rx="98.2" ry="303.8" transform="rotate(-88.382 941.284 1915.632)"/><ellipse cx="949.5" cy="1915.2" fill="#360a0a" opacity=".423" rx="95.1" ry="294.1" transform="rotate(-88.382 949.516 1915.226)"/><ellipse cx="957.7" cy="1914.8" fill="#340b0b" opacity=".462" rx="92" ry="284.4" transform="rotate(-88.382 957.748 1914.82)"/><ellipse cx="966" cy="1914.4" fill="#330c0c" opacity=".5" rx="88.8" ry="274.7" transform="rotate(-88.382 965.98 1914.414)"/><ellipse cx="974.2" cy="1914" fill="#310d0d" opacity=".538" rx="85.7" ry="265" transform="rotate(-88.382 974.211 1914.009)"/><ellipse cx="982.4" cy="1913.6" fill="#2f0e0e" opacity=".577" rx="82.5" ry="255.3" transform="rotate(-88.382 982.443 1913.603)"/><ellipse cx="990.7" cy="1913.2" fill="#2d0f0f" opacity=".615" rx="79.4" ry="245.6" transform="rotate(-88.382 990.675 1913.197)"/><ellipse cx="998.9" cy="1912.8" fill="#2b1010" opacity=".654" rx="76.3" ry="235.9" transform="rotate(-88.382 998.907 1912.791)"/><ellipse cx="1007.1" cy="1912.4" fill="#291111" opacity=".692" rx="73.1" ry="226.2" transform="rotate(-88.382 1007.138 1912.385)"/><ellipse cx="1015.4" cy="1912" fill="#271212" opacity=".731" rx="70" ry="216.5" transform="rotate(-88.382 1015.37 1911.98)"/><ellipse cx="1023.6" cy="1911.6" fill="#251212" opacity=".769" rx="66.9" ry="206.8" transform="rotate(-88.382 1023.602 1911.574)"/><ellipse cx="1031.8" cy="1911.2" fill="#231313" opacity=".808" rx="63.7" ry="197.1" transform="rotate(-88.382 1031.833 1911.168)"/><ellipse cx="1040.1" cy="1910.8" fill="#211414" opacity=".846" rx="60.6" ry="187.4" transform="rotate(-88.382 1040.065 1910.762)"/><ellipse cx="1048.3" cy="1910.4" fill="#1f1515" opacity=".885" rx="57.5" ry="177.7" transform="rotate(-88.382 1048.297 1910.356)"/><ellipse cx="1056.5" cy="1909.9" fill="#1d1616" opacity=".923" rx="54.3" ry="168" transform="rotate(-88.382 1056.529 1909.95)"/><ellipse cx="1064.8" cy="1909.5" fill="#1b1717" opacity=".962" rx="51.2" ry="158.3" transform="rotate(-88.382 1064.76 1909.544)"/><ellipse cx="1073" cy="1909.1" fill="#191818" rx="48" ry="148.6" transform="rotate(-88.382 1072.992 1909.139)"/></g><g opacity=".38"><ellipse cx="1425.9" cy="835.6" fill="#4c0000" opacity="0" rx="400.8" ry="192.9" transform="rotate(-66.239 1425.997 835.665)"/><ellipse cx="1425.9" cy="835.6" fill="#4a0101" opacity=".038" rx="391.1" ry="188.2" transform="rotate(-66.239 1425.997 835.665)"/><ellipse cx="1425.9" cy="835.6" fill="#480202" opacity=".077" rx="381.4" ry="183.5" transform="rotate(-66.239 1425.997 835.665)"/><ellipse cx="1425.9" cy="835.6" fill="#460303" opacity=".115" rx="371.7" ry="178.8" transform="rotate(-66.239 1425.997 835.665)"/><ellipse cx="1425.9" cy="835.6" fill="#440404" opacity=".154" rx="362" ry="174.2" transform="rotate(-66.239 1425.997 835.665)"/><ellipse cx="1425.9" cy="835.6" fill="#420505" opacity=".192" rx="352.3" ry="169.5" transform="rotate(-66.239 1425.997 835.665)"/><ellipse cx="1425.9" cy="835.6" fill="#400606" opacity=".231" rx="342.6" ry="164.8" transform="rotate(-66.239 1425.997 835.665)"/><ellipse cx="1425.9" cy="835.6" fill="#3e0606" opacity=".269" rx="332.9" ry="160.2" transform="rotate(-66.239 1425.997 835.665)"/><ellipse cx="1425.9" cy="835.6" fill="#3c0707" opacity=".308" rx="323.2" ry="155.5" transform="rotate(-66.239 1425.997 835.665)"/><ellipse cx="1425.9" cy="835.6" fill="#3a0808" opacity=".346" rx="313.5" ry="150.8" transform="rotate(-66.239 1425.997 835.665)"/><ellipse cx="1425.9" cy="835.6" fill="#380909" opacity=".385" rx="303.8" ry="146.2" transform="rotate(-66.239 1425.997 835.665)"/><ellipse cx="1425.9" cy="835.6" fill="#360a0a" opacity=".423" rx="294.1" ry="141.5" transform="rotate(-66.239 1425.997 835.665)"/><ellipse cx="1425.9" cy="835.6" fill="#340b0b" opacity=".462" rx="284.4" ry="136.8" transform="rotate(-66.239 1425.997 835.665)"/><ellipse cx="1425.9" cy="835.6" fill="#330c0c" opacity=".5" rx="274.7" ry="132.2" transform="rotate(-66.239 1425.997 835.665)"/><ellipse cx="1425.9" cy="835.6" fill="#310d0d" opacity=".538" rx="265" ry="127.5" transform="rotate(-66.239 1425.997 835.665)"/><ellipse cx="1425.9" cy="835.6" fill="#2f0e0e" opacity=".577" rx="255.3" ry="122.8" transform="rotate(-66.239 1425.997 835.665)"/><ellipse cx="1425.9" cy="835.6" fill="#2d0f0f" opacity=".615" rx="245.6" ry="118.2" transform="rotate(-66.239 1425.997 835.665)"/><ellipse cx="1425.9" cy="835.6" fill="#2b1010" opacity=".654" rx="235.9" ry="113.5" transform="rotate(-66.239 1425.997 835.665)"/><ellipse cx="1425.9" cy="835.6" fill="#291111" opacity=".692" rx="226.2" ry="108.8" transform="rotate(-66.239 1425.997 835.665)"/><ellipse cx="1425.9" cy="835.6" fill="#271212" opacity=".731" rx="216.5" ry="104.2" transform="rotate(-66.239 1425.997 835.665)"/><ellipse cx="1425.9" cy="835.6" fill="#251212" opacity=".769" rx="206.8" ry="99.5" transform="rotate(-66.239 1425.997 835.665)"/><ellipse cx="1425.9" cy="835.6" fill="#231313" opacity=".808" rx="197.1" ry="94.8" transform="rotate(-66.239 1425.997 835.665)"/><ellipse cx="1425.9" cy="835.6" fill="#211414" opacity=".846" rx="187.4" ry="90.2" transform="rotate(-66.239 1425.997 835.665)"/><ellipse cx="1425.9" cy="835.6" fill="#1f1515" opacity=".885" rx="177.7" ry="85.5" transform="rotate(-66.239 1425.997 835.665)"/><ellipse cx="1425.9" cy="835.6" fill="#1d1616" opacity=".923" rx="168" ry="80.8" transform="rotate(-66.239 1425.997 835.665)"/><ellipse cx="1425.9" cy="835.6" fill="#1b1717" opacity=".962" rx="158.3" ry="76.2" transform="rotate(-66.239 1425.997 835.665)"/><ellipse cx="1425.9" cy="835.6" fill="#191818" rx="148.6" ry="71.5" transform="rotate(-66.239 1425.997 835.665)"/></g><g opacity=".17"><ellipse cx="1835.8" cy="1790" fill="#4c0000" opacity="0" rx="147.2" ry="335.2" transform="rotate(-81.726 1835.814 1789.938)"/><ellipse cx="1835.8" cy="1790" fill="#4a0101" opacity=".038" rx="143.7" ry="327.1" transform="rotate(-81.726 1835.814 1789.938)"/><ellipse cx="1835.8" cy="1790" fill="#480202" opacity=".077" rx="140.1" ry="319" transform="rotate(-81.726 1835.814 1789.938)"/><ellipse cx="1835.8" cy="1790" fill="#460303" opacity=".115" rx="136.6" ry="310.9" transform="rotate(-81.726 1835.814 1789.938)"/><ellipse cx="1835.8" cy="1790" fill="#440404" opacity=".154" rx="133" ry="302.8" transform="rotate(-81.726 1835.814 1789.938)"/><ellipse cx="1835.8" cy="1790" fill="#420505" opacity=".192" rx="129.4" ry="294.7" transform="rotate(-81.726 1835.814 1789.938)"/><ellipse cx="1835.8" cy="1790" fill="#400606" opacity=".231" rx="125.9" ry="286.5" transform="rotate(-81.726 1835.814 1789.938)"/><ellipse cx="1835.8" cy="1790" fill="#3e0606" opacity=".269" rx="122.3" ry="278.4" transform="rotate(-81.726 1835.814 1789.938)"/><ellipse cx="1835.8" cy="1790" fill="#3c0707" opacity=".308" rx="118.7" ry="270.3" transform="rotate(-81.726 1835.814 1789.938)"/><ellipse cx="1835.8" cy="1790" fill="#3a0808" opacity=".346" rx="115.2" ry="262.2" transform="rotate(-81.726 1835.814 1789.938)"/><ellipse cx="1835.8" cy="1790" fill="#380909" opacity=".385" rx="111.6" ry="254.1" transform="rotate(-81.726 1835.814 1789.938)"/><ellipse cx="1835.8" cy="1790" fill="#360a0a" opacity=".423" rx="108" ry="246" transform="rotate(-81.726 1835.814 1789.938)"/><ellipse cx="1835.8" cy="1790" fill="#340b0b" opacity=".462" rx="104.5" ry="237.9" transform="rotate(-81.726 1835.814 1789.938)"/><ellipse cx="1835.8" cy="1790" fill="#330c0c" opacity=".5" rx="100.9" ry="229.7" transform="rotate(-81.726 1835.814 1789.938)"/><ellipse cx="1835.8" cy="1790" fill="#310d0d" opacity=".538" rx="97.4" ry="221.6" transform="rotate(-81.726 1835.814 1789.938)"/><ellipse cx="1835.8" cy="1790" fill="#2f0e0e" opacity=".577" rx="93.8" ry="213.5" transform="rotate(-81.726 1835.814 1789.938)"/><ellipse cx="1835.8" cy="1790" fill="#2d0f0f" opacity=".615" rx="90.2" ry="205.4" transform="rotate(-81.726 1835.814 1789.938)"/><ellipse cx="1835.8" cy="1790" fill="#2b1010" opacity=".654" rx="86.7" ry="197.3" transform="rotate(-81.726 1835.814 1789.938)"/><ellipse cx="1835.8" cy="1790" fill="#291111" opacity=".692" rx="83.1" ry="189.2" transform="rotate(-81.726 1835.814 1789.938)"/><ellipse cx="1835.8" cy="1790" fill="#271212" opacity=".731" rx="79.5" ry="181.1" transform="rotate(-81.726 1835.814 1789.938)"/><ellipse cx="1835.8" cy="1790" fill="#251212" opacity=".769" rx="76" ry="173" transform="rotate(-81.726 1835.814 1789.938)"/><ellipse cx="1835.8" cy="1790" fill="#231313" opacity=".808" rx="72.4" ry="164.8" transform="rotate(-81.726 1835.814 1789.938)"/><ellipse cx="1835.8" cy="1790" fill="#211414" opacity=".846" rx="68.8" ry="156.7" transform="rotate(-81.726 1835.814 1789.938)"/><ellipse cx="1835.8" cy="1790" fill="#1f1515" opacity=".885" rx="65.3" ry="148.6" transform="rotate(-81.726 1835.814 1789.938)"/><ellipse cx="1835.8" cy="1790" fill="#1d1616" opacity=".923" rx="61.7" ry="140.5" transform="rotate(-81.726 1835.814 1789.938)"/><ellipse cx="1835.8" cy="1790" fill="#1b1717" opacity=".962" rx="58.2" ry="132.4" transform="rotate(-81.726 1835.814 1789.938)"/><ellipse cx="1835.8" cy="1790" fill="#191818" rx="54.6" ry="124.3" transform="rotate(-81.726 1835.814 1789.938)"/></g><g opacity=".17"><ellipse cx="690" cy="1192.2" fill="#4c0000" opacity="0" rx="107.9" ry="335.2" transform="rotate(-81.726 689.996 1192.16)"/><ellipse cx="682.2" cy="1190.4" fill="#4a0101" opacity=".038" rx="105.3" ry="327.1" transform="rotate(-81.726 682.166 1190.433)"/><ellipse cx="674.3" cy="1188.7" fill="#480202" opacity=".077" rx="102.7" ry="319" transform="rotate(-81.726 674.336 1188.706)"/><ellipse cx="666.5" cy="1187" fill="#460303" opacity=".115" rx="100.1" ry="310.9" transform="rotate(-81.726 666.507 1186.98)"/><ellipse cx="658.7" cy="1185.3" fill="#440404" opacity=".154" rx="97.5" ry="302.8" transform="rotate(-81.726 658.677 1185.253)"/><ellipse cx="650.8" cy="1183.5" fill="#420505" opacity=".192" rx="94.9" ry="294.7" transform="rotate(-81.726 650.848 1183.526)"/><ellipse cx="643" cy="1181.8" fill="#400606" opacity=".231" rx="92.2" ry="286.5" transform="rotate(-81.726 643.018 1181.799)"/><ellipse cx="635.2" cy="1180.1" fill="#3e0606" opacity=".269" rx="89.6" ry="278.4" transform="rotate(-81.726 635.188 1180.072)"/><ellipse cx="627.4" cy="1178.4" fill="#3c0707" opacity=".308" rx="87" ry="270.3" transform="rotate(-81.726 627.359 1178.345)"/><ellipse cx="619.5" cy="1176.6" fill="#3a0808" opacity=".346" rx="84.4" ry="262.2" transform="rotate(-81.726 619.53 1176.618)"/><ellipse cx="611.7" cy="1174.9" fill="#380909" opacity=".385" rx="81.8" ry="254.1" transform="rotate(-81.726 611.7 1174.891)"/><ellipse cx="603.9" cy="1173.2" fill="#360a0a" opacity=".423" rx="79.2" ry="246" transform="rotate(-81.726 603.87 1173.164)"/><ellipse cx="596" cy="1171.4" fill="#340b0b" opacity=".462" rx="76.6" ry="237.9" transform="rotate(-81.726 596.04 1171.437)"/><ellipse cx="588.2" cy="1169.7" fill="#330c0c" opacity=".5" rx="74" ry="229.7" transform="rotate(-81.726 588.21 1169.71)"/><ellipse cx="580.4" cy="1168" fill="#310d0d" opacity=".538" rx="71.4" ry="221.6" transform="rotate(-81.726 580.381 1167.984)"/><ellipse cx="572.5" cy="1166.3" fill="#2f0e0e" opacity=".577" rx="68.7" ry="213.5" transform="rotate(-81.726 572.552 1166.257)"/><ellipse cx="564.7" cy="1164.5" fill="#2d0f0f" opacity=".615" rx="66.1" ry="205.4" transform="rotate(-81.726 564.722 1164.53)"/><ellipse cx="556.9" cy="1162.8" fill="#2b1010" opacity=".654" rx="63.5" ry="197.3" transform="rotate(-81.726 556.892 1162.803)"/><ellipse cx="549.1" cy="1161.1" fill="#291111" opacity=".692" rx="60.9" ry="189.2" transform="rotate(-81.726 549.063 1161.076)"/><ellipse cx="541.2" cy="1159.4" fill="#271212" opacity=".731" rx="58.3" ry="181.1" transform="rotate(-81.726 541.233 1159.35)"/><ellipse cx="533.4" cy="1157.6" fill="#251212" opacity=".769" rx="55.7" ry="173" transform="rotate(-81.726 533.404 1157.622)"/><ellipse cx="525.6" cy="1155.9" fill="#231313" opacity=".808" rx="53.1" ry="164.8" transform="rotate(-81.726 525.574 1155.895)"/><ellipse cx="517.7" cy="1154.2" fill="#211414" opacity=".846" rx="50.5" ry="156.7" transform="rotate(-81.726 517.744 1154.169)"/><ellipse cx="509.9" cy="1152.4" fill="#1f1515" opacity=".885" rx="47.8" ry="148.6" transform="rotate(-81.726 509.915 1152.442)"/><ellipse cx="502.1" cy="1150.7" fill="#1d1616" opacity=".923" rx="45.2" ry="140.5" transform="rotate(-81.726 502.085 1150.715)"/><ellipse cx="494.3" cy="1149" fill="#1b1717" opacity=".962" rx="42.6" ry="132.4" transform="rotate(-81.726 494.256 1148.988)"/><ellipse cx="486.4" cy="1147.3" fill="#191818" rx="40" ry="124.3" transform="rotate(-81.726 486.426 1147.261)"/></g><linearGradient id="g" x1="1822.751" x2="1371.775" y1="924.244" y2="1181.164" gradientTransform="matrix(.9785 .2198 -.09166 .9999 116.436 -297.325)" gradientUnits="userSpaceOnUse"><stop offset="0" stop-color="#303030"/><stop offset="1" stop-color="#727272"/></linearGradient><path fill="url(#g)" d="M1207.2,470.2L861,1218.8c-9.8,25.6,18.2,90.9,44.6,103.1l984.8,455.3c27.3,12.6,56.7,2.3,67.8-23.6
			L2346,840c13.2-31.2-4.4-99.2-38.5-108.4L1296.2,426.8C1257.8,416.4,1220.9,434.4,1207.2,470.2z"/><linearGradient id="h" x1="1821.738" x2="1370.762" y1="922.979" y2="1179.898" gradientTransform="matrix(.9785 .2198 -.09166 .9999 116.436 -297.325)" gradientUnits="userSpaceOnUse"><stop offset="0" stop-color="#444"/><stop offset=".117" stop-color="#767676"/><stop offset=".36" stop-color="#fff"/><stop offset=".718" stop-color="#5c5c5c"/><stop offset="1" stop-color="#7f7f7f"/></linearGradient><path fill="url(#h)" d="M1206.4,468.7l-346.3,748.6c-9.8,25.6,18.2,90.9,44.6,103.1l984.8,455.3c27.3,12.6,56.7,2.3,67.8-23.6
			l388-913.6c13.2-31.2-4.4-99.2-38.5-108.4L1295.3,425.3C1256.9,414.9,1220,433,1206.4,468.7z"/><linearGradient id="i" x1="1434.914" x2="1757.649" y1="1619.891" y2="337.672" gradientTransform="matrix(.9785 .2198 -.09166 .9999 116.436 -297.325)" gradientUnits="userSpaceOnUse"><stop offset="0" stop-color="#303030"/><stop offset="1" stop-color="#727272"/></linearGradient><path fill="url(#i)" d="M1193.6,433.4l-332.2,782.4c-9.8,25.6,4.1,57.2,30.5,69.3l984.8,455.3c27.3,12.6,56.7,2.3,67.8-23.6
			l388-913.6c13.2-31.2-7.2-70.7-41.3-79.9L1282.5,390C1244.1,379.7,1207.2,397.7,1193.6,433.4z"/><linearGradient id="j" x1="1442.639" x2="1750.51" y1="1589.129" y2="365.965" gradientTransform="matrix(.9785 .2198 -.09166 .9999 116.436 -297.325)" gradientUnits="userSpaceOnUse"><stop offset="0" stop-color="#cbcbcb"/><stop offset="1" stop-color="#f4f4f4"/></linearGradient><path fill="url(#j)" d="M2308,789.7l-40.9,96.4l-347,817.1c-4.9,11.5-16.6,17.2-29.1,14.4c-2.1-0.5-4.2-1.1-6.2-2.1L900,1260.3
			c-5.9-2.7-10.5-7.6-13.2-13.6c-2.7-5.9-3-12.2-1-17.8l304.2-716.5l28.2-66.3c8.9-23.4,32.9-35.9,58.1-30.2
			c0.6,0.1,1.2,0.3,1.8,0.5l1008.5,333.2l0.8,0.2c8.1,2.2,15.1,7.9,19.2,15.8C2310.6,773.5,2311.2,782.2,2308,789.7z"/><linearGradient id="k" x1="1440.556" x2="1758.618" y1="1619.71" y2="356.058" gradientTransform="matrix(.9785 .2198 -.09166 .9999 116.436 -297.325)" gradientUnits="userSpaceOnUse"><stop offset="0" stop-color="#fdfdff"/><stop offset="1" stop-color="#727272"/></linearGradient><path fill="url(#k)" d="M2331.9,760.4c4.7,13.1,5,27.4-0.4,40.3l-388,913.6c-11,25.9-40.5,36.2-67.8,23.6L891,1282.6
			c-14.2-6.6-24.8-18.8-30-32.7c4.8,14.9,15.8,28.2,30.9,35.2l984.8,455.3c27.3,12.6,56.7,2.3,67.8-23.6l388-913.6
			C2338.2,789.5,2337.5,774.1,2331.9,760.4z"/><path fill="#fff" stroke="#ccc" stroke-miterlimit="10" stroke-width="8.929" d="M2157.8,983.7l-47.7,106.8c-7.2,16.2-25.3,23-42.7,16.2l-261.4-101.3l-633-245.4
			c-14.1-5.5-21.4-22.6-15-35.3l29.5-79.4c9.1-18,29.7-25.7,49.9-18.5l646.2,229.8l257.1,90.8
			C2155.6,952.8,2163.8,970.2,2157.8,983.7z"/><linearGradient id="l" x1="1811.424" x2="2162.818" y1="843.406" y2="843.406" gradientTransform="matrix(.9785 .2198 -.09166 .9999 116.436 -297.325)" gradientUnits="userSpaceOnUse"><stop offset="0" stop-color="#ffe500"/><stop offset="1" stop-color="#ff9d00"/></linearGradient><path fill="url(#l)" d="M2157.8,983.7l-47.7,106.8c-7.2,16.2-25.3,23-42.7,16.2l-261.4-101.3l62.2-154.3l272.7,96.4
			C2155.6,952.8,2163.8,970.2,2157.8,983.7z"/><polygon fill="#fff" stroke="#ccc" stroke-miterlimit="10" stroke-width="8.929" points="1147 829.5 2053.1 1184.9 1870.1 1598.4 968.6 1212.7"/><polygon fill="#e6e6e6" points="1124.3 880 2030.5 1240.7 2009.8 1282.2 1105.4 914.8"/><polygon fill="#e6e6e6" points="1094.8 945.7 2000.9 1306.3 1980.2 1347.8 1075.8 980.4"/><polygon fill="#e6e6e6" points="1065.3 1011.4 1971.4 1372 1950.7 1413.5 1046.3 1046.1"/><polygon fill="#e6e6e6" points="1035.7 1077 1941.8 1437.7 1921.1 1479.2 1016.7 1111.7"/><polygon fill="#e6e6e6" points="1006.2 1142.7 1912.3 1503.3 1891.6 1544.8 987.2 1177.4"/><line x1="1578.8" x2="1401.4" y1="997.5" y2="1397.9" fill="#fff" stroke="#ccc" stroke-miterlimit="10" stroke-width="8.929"/><path fill="#c1c1c1" d="M1341.1,948.2l-157-62.7c-3.4-1.3-5.5-5.2-4.6-8.7l0,0c0.8-3.4,4.3-5.1,7.6-3.7l157,62.7
			c3.4,1.3,5.5,5.2,4.6,8.7l0,0C1347.9,947.8,1344.5,949.5,1341.1,948.2z"/><path fill="#c1c1c1" d="M1324.1,988.4l-157-62.7c-3.4-1.3-5.5-5.2-4.6-8.7l0,0c0.8-3.4,4.3-5.1,7.6-3.7l157,62.7
			c3.4,1.3,5.5,5.2,4.6,8.7l0,0C1330.9,988.1,1327.5,989.7,1324.1,988.4z"/><path fill="#c1c1c1" d="M1304.9,1022l-157-62.7c-3.4-1.3-5.5-5.2-4.6-8.7l0,0c0.8-3.4,4.3-5.1,7.6-3.7l157,62.7
			c3.4,1.3,5.5,5.2,4.6,8.7l0,0C1311.7,1021.6,1308.3,1023.3,1304.9,1022z"/><path fill="#c1c1c1" d="M1294.5,1055.2l-157-62.7c-3.4-1.3-5.5-5.2-4.6-8.7l0,0c0.8-3.4,4.3-5.1,7.6-3.7l157,62.7
			c3.4,1.3,5.5,5.2,4.6,8.7l0,0C1301.3,1054.8,1297.8,1056.5,1294.5,1055.2z"/><path fill="#c1c1c1" d="M1280.5,1088.3l-157-62.7c-3.4-1.3-5.5-5.2-4.6-8.7l0,0c0.8-3.4,4.3-5.1,7.6-3.7l157,62.7
			c3.4,1.3,5.5,5.2,4.6,8.7l0,0C1287.3,1087.9,1283.9,1089.6,1280.5,1088.3z"/><path fill="#c1c1c1" d="M1266.6,1121.3l-157-62.7c-3.4-1.3-5.5-5.2-4.6-8.7l0,0c0.8-3.4,4.3-5.1,7.6-3.7l157,62.7
			c3.4,1.3,5.5,5.2,4.6,8.7l0,0C1273.4,1121,1270,1122.7,1266.6,1121.3z"/><path fill="#c1c1c1" d="M1250.2,1152.2l-157-62.7c-3.4-1.3-5.5-5.2-4.6-8.7l0,0c0.8-3.4,4.3-5.1,7.6-3.7l157,62.7
			c3.4,1.3,5.5,5.2,4.6,8.7l0,0C1257,1151.8,1253.5,1153.5,1250.2,1152.2z"/><path fill="#c1c1c1" d="M1236.2,1185.2l-157-62.7c-3.4-1.3-5.5-5.2-4.6-8.7l0,0c0.8-3.4,4.3-5.1,7.6-3.7l157,62.7
			c3.4,1.3,5.5,5.2,4.6,8.7l0,0C1243,1184.9,1239.6,1186.6,1236.2,1185.2z"/><path fill="#c1c1c1" d="M1222.3,1218.3l-157-62.7c-3.4-1.3-5.5-5.2-4.6-8.7l0,0c0.8-3.4,4.3-5.1,7.6-3.7l157,62.7
			c3.4,1.3,5.5,5.2,4.6,8.7l0,0C1229.1,1218,1225.7,1219.6,1222.3,1218.3z"/><path fill="#c1c1c1" d="M1205.9,1249.1l-157-62.7c-3.4-1.3-5.5-5.2-4.6-8.7l0,0c0.8-3.4,4.3-5.1,7.6-3.7l157,62.7
			c3.4,1.3,5.5,5.2,4.6,8.7l0,0C1212.7,1248.8,1209.3,1250.5,1205.9,1249.1z"/><path fill="#c1c1c1" d="M1191.9,1282.2l-157-62.7c-3.4-1.3-5.5-5.2-4.6-8.7l0,0c0.8-3.4,4.3-5.1,7.6-3.7l157,62.7
			c3.4,1.3,5.5,5.2,4.6,8.7l0,0C1198.7,1281.9,1195.3,1283.5,1191.9,1282.2z"/><path fill="#c1c1c1" d="M1790.6,1123.7l-157-62.7c-3.4-1.3-5.5-5.2-4.6-8.7l0,0c0.8-3.4,4.3-5.1,7.6-3.7l157,62.7
			c3.4,1.3,5.5,5.2,4.6,8.7l0,0C1797.4,1123.4,1794,1125.1,1790.6,1123.7z"/><path fill="#c1c1c1" d="M1389.2,644.9l-157-62.7c-3.4-1.3-5.5-5.2-4.6-8.7l0,0c0.8-3.4,4.3-5.1,7.6-3.7l157,62.7
			c3.4,1.3,5.5,5.2,4.6,8.7l0,0C1396,644.6,1392.6,646.3,1389.2,644.9z"/><path fill="#c1c1c1" d="M1964.6,1111.9l-157-62.7c-3.4-1.3-5.5-5.2-4.6-8.7l0,0c0.8-3.4,4.3-5.1,7.6-3.7l157,62.7
			c3.4,1.3,5.5,5.2,4.6,8.7l0,0C1971.4,1111.6,1967.9,1113.2,1964.6,1111.9z"/><path fill="#c1c1c1" d="M1773.6,1164l-157-62.7c-3.4-1.3-5.5-5.2-4.6-8.7l0,0c0.8-3.4,4.3-5.1,7.6-3.7l157,62.7
			c3.4,1.3,5.5,5.2,4.6,8.7l0,0C1780.4,1163.6,1777,1165.3,1773.6,1164z"/><path fill="#c1c1c1" d="M1754.4,1197.5l-157-62.7c-3.4-1.3-5.5-5.2-4.6-8.7l0,0c0.8-3.4,4.3-5.1,7.6-3.7l157,62.7
			c3.4,1.3,5.5,5.2,4.6,8.7l0,0C1761.2,1197.2,1757.8,1198.9,1754.4,1197.5z"/><path fill="#c1c1c1" d="M1744,1230.8l-157-62.7c-3.4-1.3-5.5-5.2-4.6-8.7l0,0c0.8-3.4,4.3-5.1,7.6-3.7l157,62.7
			c3.4,1.3,5.5,5.2,4.6,8.7l0,0C1750.8,1230.4,1747.3,1232.1,1744,1230.8z"/><path fill="#c1c1c1" d="M1730,1263.8l-157-62.7c-3.4-1.3-5.5-5.2-4.6-8.7l0,0c0.8-3.4,4.3-5.1,7.6-3.7l157,62.7
			c3.4,1.3,5.5,5.2,4.6,8.7l0,0C1736.8,1263.5,1733.4,1265.2,1730,1263.8z"/><path fill="#c1c1c1" d="M1716.1,1296.9l-157-62.7c-3.4-1.3-5.5-5.2-4.6-8.7l0,0c0.8-3.4,4.3-5.1,7.6-3.7l157,62.7
			c3.4,1.3,5.5,5.2,4.6,8.7l0,0C1722.9,1296.6,1719.5,1298.2,1716.1,1296.9z"/><path fill="#c1c1c1" d="M1702.4,1337.2l-157-62.7c-3.4-1.3-5.5-5.2-4.6-8.7l0,0c0.8-3.4,4.3-5.1,7.6-3.7l157,62.7
			c3.4,1.3,5.5,5.2,4.6,8.7l0,0C1709.2,1336.9,1705.8,1338.6,1702.4,1337.2z"/><path fill="#c1c1c1" d="M1685.5,1377.5l-157-62.7c-3.4-1.3-5.5-5.2-4.6-8.7l0,0c0.8-3.4,4.3-5.1,7.6-3.7l157,62.7
			c3.4,1.3,5.5,5.2,4.6,8.7l0,0C1692.3,1377.1,1688.8,1378.8,1685.5,1377.5z"/><path fill="#c1c1c1" d="M1666.2,1411.1l-157-62.7c-3.4-1.3-5.5-5.2-4.6-8.7l0,0c0.8-3.4,4.3-5.1,7.6-3.7l157,62.7
			c3.4,1.3,5.5,5.2,4.6,8.7l0,0C1673,1410.7,1669.6,1412.4,1666.2,1411.1z"/><path fill="#c1c1c1" d="M1655.8,1444.3l-157-62.7c-3.4-1.3-5.5-5.2-4.6-8.7l0,0c0.8-3.4,4.3-5.1,7.6-3.7l157,62.7
			c3.4,1.3,5.5,5.2,4.6,8.7l0,0C1662.6,1443.9,1659.2,1445.6,1655.8,1444.3z"/><path fill="#c1c1c1" d="M1641.9,1477.3l-157-62.7c-3.4-1.3-5.5-5.2-4.6-8.7l0,0c0.8-3.4,4.3-5.1,7.6-3.7l157,62.7
			c3.4,1.3,5.5,5.2,4.6,8.7l0,0C1648.7,1477,1645.2,1478.7,1641.9,1477.3z"/><path fill="#7a7a7a" d="M1238.6,731.1c2.8,3.8,7.7,8,14,10.5c9.3,3.6,17.1,1.4,20.6-4.9c3.3-5.9,1.4-10.7-6.3-17.7
				c-9.5-8.1-13.6-16.2-8.7-25.1c5.4-9.8,18.5-13.5,32.2-8.1c7.2,2.8,11.6,6.4,13.8,9.2l-6.2,5.6c-1.7-2-5.3-5.7-11.7-8.2
				c-9.6-3.8-16.1-0.1-18.5,4.2c-3.3,5.9-0.6,10.4,7.3,17.6c9.6,8.8,12.8,16.3,7.7,25.5c-5.4,9.7-18,14.9-34.6,8.4
				c-6.8-2.7-13.2-7.3-15.7-11L1238.6,731.1z"/><path fill="#7a7a7a" d="M1360.6,755.2l-27.3-10.7l-12.5,22.6l30.5,12l-3.8,6.8l-39.5-15.5l34.8-62.8l38,14.9l-3.8,6.8L1348,718
				l-11,19.8l27.3,10.7L1360.6,755.2z"/><path fill="#7a7a7a" d="M1459.1,790.8c-12,21.6-33,27.3-51,20.2c-18.6-7.3-24.5-25.3-13.9-44.3c11-19.9,32.1-27.5,50.9-20.1
				C1464.3,754.1,1469.4,772.2,1459.1,790.8z M1404,770.4c-7.4,13.4-6,28.6,8.3,34.2c14.4,5.7,29.1-3,37-17.2
				c6.9-12.5,6.8-28.4-8.3-34.3C1426,747.2,1411.6,756.6,1404,770.4z"/><linearGradient id="m" x1="1149.352" x2="2295.443" y1="564.924" y2="564.924" gradientTransform="matrix(.9785 .2198 -.09166 .9999 116.436 -297.325)" gradientUnits="userSpaceOnUse"><stop offset="0" stop-color="#ffe500"/><stop offset="1" stop-color="#ff9d00"/></linearGradient><path fill="url(#m)" d="M2308,789.7l-40.9,96.4l-1077-373.7l28.2-66.3c8.9-23.4,32.9-35.9,58.1-30.2c0.6,0.1,1.2,0.3,1.8,0.5
			l1008.5,333.2l0.8,0.2c8.1,2.2,15.1,7.9,19.2,15.8C2310.6,773.5,2311.2,782.2,2308,789.7z"/><g><linearGradient id="n" x1="-1849.783" x2="-1938.799" y1="-13467.887" y2="-13598.443" gradientTransform="matrix(-1.0454 -.2133 .2134 -1.0454 1470.502 -13450.376)" gradientUnits="userSpaceOnUse"><stop offset="0" stop-color="#7f7f7f"/><stop offset="1" stop-color="#444"/></linearGradient><path fill="url(#n)" d="M358.5,1096.5c-0.2,1-0.3,2-0.5,3c-0.1,0.5-0.1,0.9-0.2,1.4c0,0.2-0.1,0.4-0.1,0.6c0,0.4-0.1,0.7-0.1,1.1
					c-0.1,1-0.2,2.1-0.3,3.1c-0.1,1.1-0.1,2.1-0.2,3.2c0,0,0,0.1,0,0.1c0,0,0,0.1,0,0.1c0,1-0.1,2-0.1,3.1c0,1.1,0,2.2,0,3.4
					c0,0.4,0,0.8,0,1.2c0,0.2,0,0.5,0,0.7c0,0.5,0,1,0,1.5c0,1.2,0.1,2.3,0.2,3.5c0.1,0.8,0.1,1.7,0.2,2.5c0,0.2,0,0.3,0,0.5
					c0,0.2,0,0.3,0,0.5c0.1,1.1,0.2,2.3,0.4,3.4c0.1,1.1,0.3,2.3,0.5,3.4c0,0.2,0.1,0.4,0.1,0.6c0,0.2,0.1,0.3,0.1,0.5
					c0.1,0.7,0.2,1.4,0.3,2.1c0.2,1.1,0.4,2.2,0.6,3.3c0.2,0.8,0.3,1.6,0.5,2.3c0,0.1,0.1,0.3,0.1,0.4c0,0.2,0.1,0.3,0.1,0.5
					c0.2,1.1,0.5,2.2,0.8,3.3c0.3,1.2,0.6,2.4,0.9,3.6c0,0.2,0.1,0.4,0.2,0.5c0.1,0.2,0.1,0.5,0.2,0.7c0.3,1,0.5,1.9,0.8,2.9
					c0.4,1.2,0.8,2.4,1.1,3.6c0.2,0.6,0.4,1.2,0.6,1.8c0.1,0.2,0.1,0.5,0.2,0.7c0.4,1,0.8,2,1.1,3.1c0.6,1.5,1.1,3,1.7,4.5
					c0.1,0.2,0.2,0.5,0.3,0.7c0.9,2.2,1.8,4.3,2.8,6.4c0,0,0,0,0,0l0,0c0.7,1.4,1.3,2.8,2,4.2c0.6,1.1,1.1,2.2,1.7,3.3
					c0,0,0,0,0,0.1c0,0,0,0,0,0c0.6,1.1,1.2,2.2,1.8,3.3c0.6,1.1,1.2,2.1,1.9,3.2c0.1,0.2,0.2,0.3,0.3,0.5c0.1,0.2,0.2,0.3,0.3,0.5
					c0.4,0.7,0.9,1.4,1.3,2.1c0.7,1.1,1.4,2.1,2.1,3.1c0.2,0.3,0.4,0.6,0.7,0.9c0.2,0.2,0.3,0.5,0.5,0.7c0.4,0.5,0.7,1,1,1.5
					c0.7,1,1.5,2,2.3,3c0.3,0.4,0.7,0.8,1,1.3c0.2,0.2,0.3,0.4,0.5,0.6c0.3,0.3,0.5,0.6,0.8,0.9c0.8,0.9,1.5,1.8,2.3,2.6
					c0.6,0.6,1.1,1.2,1.7,1.8c0.1,0.1,0.2,0.2,0.3,0.3c0.1,0.1,0.2,0.2,0.3,0.3c0.8,0.8,1.5,1.5,2.3,2.3c0.8,0.7,1.5,1.4,2.3,2.1
					c0.2,0.2,0.4,0.3,0.5,0.5c0.6,0.5,1.2,1,1.7,1.5c0.8,0.6,1.5,1.2,2.3,1.8c0.5,0.4,1,0.7,1.5,1.1c0.1,0.1,0.2,0.2,0.4,0.3
					c0.1,0.1,0.3,0.2,0.4,0.3c0.8,0.5,1.5,1.1,2.3,1.6c0.8,0.5,1.5,1,2.3,1.5c0.1,0.1,0.3,0.2,0.4,0.2c0.1,0.1,0.2,0.1,0.3,0.2
					c0.5,0.3,1,0.6,1.6,0.9c0.8,0.4,1.6,0.8,2.4,1.2c0.4,0.2,0.8,0.3,1.2,0.5c0.2,0.1,0.3,0.2,0.5,0.2c0.2,0.1,0.5,0.2,0.8,0.3
					c0.9,0.4,1.8,0.7,2.6,1c0.5,0.2,1.1,0.3,1.6,0.5c0.2,0.1,0.4,0.1,0.6,0.2c0.2,0.1,0.4,0.1,0.5,0.2c1,0.3,1.9,0.5,2.9,0.7
					c0.4,0.1,0.8,0.1,1.3,0.2c0.3,0.1,0.7,0.1,1,0.1c0.3,0,0.7,0.1,1,0.2c1.2,0.1,2.5,0.2,3.7,0.2l0.1,0c0.3,0,0.5,0,0.8-0.1
					c1.2,0,2.5-0.1,3.7-0.2c0.1,0,0.2-0.1,0.3-0.1c1.8-0.3,3.5-0.7,5.2-1.2L778,1116.7c-1.7,0.6-3.4,1-5.2,1.2
					c-1.3,0.2-2.6,0.3-4,0.3c-0.3,0-0.5,0.1-0.8,0.1c-1.6,0-3.2-0.1-4.8-0.4c-0.3,0-0.6-0.1-1-0.2c-1.6-0.3-3.1-0.6-4.7-1.1
					c-0.2-0.1-0.4-0.1-0.6-0.2c-1.6-0.5-3.3-1.1-5-1.8c-0.2-0.1-0.3-0.1-0.5-0.2c-1.7-0.8-3.4-1.6-5.2-2.6c-0.1-0.1-0.2-0.1-0.3-0.2
					c-1.8-1.1-3.6-2.2-5.4-3.6c-0.1-0.1-0.2-0.2-0.4-0.3c-1.8-1.4-3.7-2.8-5.5-4.4c-1.9-1.6-3.7-3.4-5.4-5.2
					c-0.1-0.1-0.2-0.2-0.3-0.3c-1.6-1.7-3.2-3.5-4.8-5.4c-0.2-0.2-0.3-0.4-0.5-0.6c-1.5-1.8-2.9-3.7-4.3-5.7
					c-0.2-0.2-0.3-0.5-0.5-0.7c-1.4-2-2.8-4.1-4.1-6.2c-0.1-0.2-0.2-0.3-0.3-0.5c-1.4-2.3-2.8-4.6-4-7c0,0,0,0,0-0.1
					c-1.3-2.5-2.6-5-3.8-7.5l0,0c-1.1-2.3-2.1-4.7-3-7.1c-0.6-1.5-1.1-3-1.7-4.5c-0.5-1.3-0.9-2.5-1.4-3.8c-0.2-0.6-0.4-1.2-0.6-1.8
					c-0.7-2.1-1.4-4.3-1.9-6.4c-0.1-0.2-0.1-0.5-0.2-0.7c-0.7-2.6-1.4-5.2-1.9-7.9c0-0.1-0.1-0.3-0.1-0.4c-0.5-2.6-1-5.2-1.4-7.7
					c0-0.2-0.1-0.3-0.1-0.5c-0.4-2.6-0.7-5.3-1-7.9c0-0.2,0-0.3,0-0.5c-0.2-2.5-0.4-5-0.4-7.5c0-0.2,0-0.5,0-0.7
					c-0.1-2.6,0-5.1,0.1-7.6c0,0,0-0.1,0-0.1c0.1-2.5,0.3-5,0.6-7.5c0-0.2,0-0.4,0.1-0.6c0.3-2.5,0.7-4.9,1.2-7.2
					c0.5-2.4,1.1-4.6,1.7-6.7c0.1-0.2,0.1-0.4,0.2-0.6c0.6-2,1.3-3.8,2-5.6c0.1-0.2,0.2-0.5,0.3-0.7c0.7-1.7,1.5-3.3,2.4-4.9
					c0.2-0.3,0.3-0.6,0.5-0.9c0.8-1.4,1.7-2.8,2.6-4.1c0.1-0.1,0.2-0.3,0.3-0.4c1.1-1.4,2.2-2.8,3.4-4c0.2-0.2,0.3-0.3,0.5-0.5
					c1-1,2-1.9,3-2.7c0.4-0.3,0.8-0.6,1.2-0.9c0.9-0.6,1.8-1.2,2.8-1.8c0.4-0.2,0.8-0.5,1.2-0.7c1.3-0.7,2.7-1.3,4.1-1.8l0,0l0,0
					l0,0l-335.7,110.1c-1.4,0.5-2.8,1.1-4.1,1.8c-0.4,0.2-0.8,0.4-1.2,0.7c-1,0.5-1.9,1.1-2.8,1.8c-0.4,0.3-0.8,0.6-1.2,0.9
					c-1,0.8-2.1,1.7-3,2.7c-0.2,0.2-0.3,0.3-0.5,0.5c0,0-0.1,0.1-0.1,0.1c-1.1,1.2-2.2,2.4-3.2,3.8c0,0-0.1,0.1-0.1,0.1
					c-0.1,0.1-0.2,0.3-0.3,0.4c-0.6,0.9-1.2,1.7-1.8,2.7c-0.3,0.5-0.5,1-0.8,1.4c-0.2,0.3-0.3,0.6-0.5,0.9c-0.1,0.3-0.3,0.5-0.4,0.8
					c-0.5,1-1,2-1.5,3c-0.2,0.4-0.3,0.7-0.5,1.1c-0.1,0.2-0.2,0.5-0.3,0.7c-0.2,0.4-0.3,0.7-0.5,1.1c-0.4,0.9-0.7,1.9-1,2.9
					c-0.2,0.5-0.3,1.1-0.5,1.7c-0.1,0.2-0.1,0.4-0.2,0.6c-0.1,0.2-0.1,0.5-0.2,0.7c-0.3,0.9-0.5,1.9-0.8,2.9c-0.2,1-0.5,2-0.7,3
					c0,0.1,0,0.1,0,0.2C358.9,1094.6,358.7,1095.6,358.5,1096.5z"/><linearGradient id="o" x1="-1949.651" x2="-1822.951" y1="-13968.075" y2="-13968.075" gradientTransform="rotate(-168.464 189.188 -6601.07)" gradientUnits="userSpaceOnUse"><stop offset="0" stop-color="#7f7f7f"/><stop offset="1" stop-color="#444"/></linearGradient><path fill="url(#o)" d="M734.7,1103.4c-30.3-26.8-48.2-80.4-40-119.8c8.1-39.3,39.3-49.5,69.5-22.7c30.2,26.8,48.1,80.4,40,119.7
						C796.1,1120,764.9,1130.2,734.7,1103.4z"/><linearGradient id="p" x1="-1939.818" x2="-1995.935" y1="-13888.86" y2="-13971.165" gradientTransform="rotate(-168.464 189.188 -6601.07)" gradientUnits="userSpaceOnUse"><stop offset="0" stop-color="#fbfbfb"/><stop offset="1" stop-color="#e5e5e5"/></linearGradient><path fill="url(#p)" d="M727.2,1004c-0.1,0.6-0.2,1.2-0.3,1.9c0,0.3-0.1,0.6-0.1,0.9c0,0.1,0,0.2,0,0.4c0,0.2-0.1,0.4-0.1,0.7
					c-0.1,0.6-0.1,1.3-0.2,1.9c0,0.6-0.1,1.3-0.1,2c0,0,0,0,0,0.1c0,0,0,0,0,0.1c0,0.6,0,1.2-0.1,1.9c0,0.7,0,1.4,0,2.1
					c0,0.2,0,0.5,0,0.7c0,0.1,0,0.3,0,0.4c0,0.3,0,0.6,0,0.9c0,0.7,0.1,1.4,0.1,2.1c0,0.5,0.1,1,0.1,1.6c0,0.1,0,0.2,0,0.3
					c0,0.1,0,0.2,0,0.3c0.1,0.7,0.1,1.4,0.2,2.1c0.1,0.7,0.2,1.4,0.3,2.1c0,0.1,0,0.3,0.1,0.4c0,0.1,0,0.2,0.1,0.3
					c0.1,0.4,0.1,0.9,0.2,1.3c0.1,0.7,0.2,1.3,0.4,2c0.1,0.5,0.2,1,0.3,1.4c0,0.1,0,0.2,0.1,0.3c0,0.1,0,0.2,0.1,0.3
					c0.1,0.7,0.3,1.3,0.5,2c0.2,0.7,0.4,1.5,0.6,2.2c0,0.1,0.1,0.2,0.1,0.3c0,0.1,0.1,0.3,0.1,0.4c0.2,0.6,0.3,1.2,0.5,1.8
					c0.2,0.7,0.5,1.4,0.7,2.2c0.1,0.4,0.2,0.7,0.4,1.1c0,0.1,0.1,0.3,0.1,0.4c0.2,0.6,0.5,1.2,0.7,1.9c0.3,0.9,0.7,1.8,1,2.7
					c0.1,0.1,0.1,0.3,0.2,0.4c0.5,1.3,1.1,2.6,1.7,3.9l0,0l0,0c0.4,0.9,0.8,1.7,1.2,2.6c0.3,0.7,0.7,1.4,1.1,2c0,0,0,0,0,0
					c0,0,0,0,0,0c0.4,0.7,0.7,1.4,1.1,2c0.4,0.7,0.8,1.3,1.1,1.9c0.1,0.1,0.1,0.2,0.2,0.3c0.1,0.1,0.1,0.2,0.2,0.3
					c0.3,0.4,0.5,0.9,0.8,1.3c0.4,0.6,0.8,1.3,1.3,1.9c0.1,0.2,0.3,0.4,0.4,0.6c0.1,0.1,0.2,0.3,0.3,0.4c0.2,0.3,0.4,0.6,0.6,0.9
					c0.5,0.6,0.9,1.2,1.4,1.8c0.2,0.3,0.4,0.5,0.6,0.8c0.1,0.1,0.2,0.3,0.3,0.4c0.2,0.2,0.3,0.4,0.5,0.6c0.5,0.5,0.9,1.1,1.4,1.6
					c0.3,0.4,0.7,0.7,1,1.1c0.1,0.1,0.1,0.1,0.2,0.2c0.1,0.1,0.1,0.1,0.2,0.2c0.5,0.5,0.9,0.9,1.4,1.4c0.5,0.4,0.9,0.9,1.4,1.3
					c0.1,0.1,0.2,0.2,0.3,0.3c0.4,0.3,0.7,0.6,1.1,0.9c0.5,0.4,0.9,0.8,1.4,1.1c0.3,0.2,0.6,0.5,0.9,0.7c0.1,0.1,0.1,0.1,0.2,0.2
					c0.1,0.1,0.2,0.1,0.3,0.2c0.5,0.3,0.9,0.6,1.4,1c0.5,0.3,0.9,0.6,1.4,0.9c0.1,0,0.2,0.1,0.2,0.1c0.1,0,0.1,0.1,0.2,0.1
					c0.3,0.2,0.6,0.4,1,0.5c0.5,0.3,1,0.5,1.5,0.8c0.2,0.1,0.5,0.2,0.7,0.3c0.1,0,0.2,0.1,0.3,0.1c0.2,0.1,0.3,0.1,0.5,0.2
					c0.5,0.2,1.1,0.4,1.6,0.6c0.3,0.1,0.7,0.2,1,0.3c0.1,0,0.2,0.1,0.3,0.1c0.1,0,0.2,0.1,0.3,0.1c0.6,0.2,1.2,0.3,1.8,0.4
					c0.3,0.1,0.5,0.1,0.8,0.1c0.2,0,0.4,0.1,0.6,0.1c0.2,0,0.4,0.1,0.6,0.1c0.8,0.1,1.5,0.1,2.2,0.1l0,0c0.2,0,0.3,0,0.5,0
					c0.8,0,1.5,0,2.3-0.2c0.1,0,0.1,0,0.2,0c1.1-0.2,2.1-0.4,3.2-0.7l175-59c-1,0.3-2.1,0.6-3.2,0.8c-0.8,0.1-1.6,0.2-2.4,0.2
					c-0.2,0-0.3,0-0.5,0c-1,0-1.9-0.1-2.9-0.2c-0.2,0-0.4-0.1-0.6-0.1c-0.9-0.2-1.9-0.4-2.9-0.6c-0.1,0-0.2-0.1-0.3-0.1
					c-1-0.3-2-0.7-3-1.1c-0.1,0-0.2-0.1-0.3-0.1c-1-0.5-2.1-1-3.1-1.6c-0.1,0-0.1-0.1-0.2-0.1c-1.1-0.6-2.2-1.4-3.3-2.2
					c-0.1-0.1-0.1-0.1-0.2-0.2c-1.1-0.8-2.2-1.7-3.4-2.7c-1.1-1-2.2-2.1-3.3-3.2c-0.1-0.1-0.1-0.1-0.2-0.2c-1-1.1-2-2.2-2.9-3.3
					c-0.1-0.1-0.2-0.3-0.3-0.4c-0.9-1.1-1.8-2.3-2.6-3.5c-0.1-0.1-0.2-0.3-0.3-0.4c-0.9-1.2-1.7-2.5-2.5-3.8
					c-0.1-0.1-0.1-0.2-0.2-0.3c-0.9-1.4-1.7-2.8-2.5-4.3c0,0,0,0,0,0c-0.8-1.5-1.6-3-2.3-4.6l0,0c-0.7-1.4-1.3-2.9-1.9-4.3
					c-0.4-0.9-0.7-1.8-1-2.7c-0.3-0.8-0.6-1.5-0.8-2.3c-0.1-0.4-0.2-0.7-0.4-1.1c-0.4-1.3-0.8-2.6-1.2-3.9c0-0.1-0.1-0.3-0.1-0.4
					c-0.4-1.6-0.8-3.2-1.2-4.8c0-0.1,0-0.2-0.1-0.3c-0.3-1.6-0.6-3.2-0.9-4.7c0-0.1,0-0.2,0-0.3c-0.2-1.6-0.4-3.2-0.6-4.8
					c0-0.1,0-0.2,0-0.3c-0.1-1.5-0.2-3.1-0.3-4.6c0-0.1,0-0.3,0-0.4c0-1.6,0-3.1,0-4.6c0,0,0,0,0-0.1c0.1-1.5,0.2-3.1,0.4-4.6
					c0-0.1,0-0.2,0-0.4c0.2-1.5,0.4-3,0.7-4.4c0.3-1.4,0.7-2.8,1-4.1c0-0.1,0.1-0.2,0.1-0.4c0.4-1.2,0.8-2.3,1.2-3.4
					c0.1-0.1,0.1-0.3,0.2-0.4c0.4-1,0.9-2,1.5-3c0.1-0.2,0.2-0.3,0.3-0.5c0.5-0.9,1-1.7,1.6-2.5c0.1-0.1,0.1-0.2,0.2-0.3
					c0.7-0.9,1.4-1.7,2.1-2.4c0.1-0.1,0.2-0.2,0.3-0.3c0.6-0.6,1.2-1.1,1.9-1.6c0.2-0.2,0.5-0.4,0.7-0.5c0.6-0.4,1.1-0.8,1.7-1.1
					c0.2-0.1,0.5-0.3,0.7-0.4c0.8-0.4,1.6-0.8,2.5-1.1l0,0l0,0l0,0l-175,59c-0.9,0.3-1.7,0.7-2.5,1.1c-0.2,0.1-0.5,0.3-0.7,0.4
					c-0.6,0.3-1.1,0.7-1.7,1.1c-0.2,0.2-0.5,0.3-0.7,0.5c-0.6,0.5-1.3,1-1.9,1.6c-0.1,0.1-0.2,0.2-0.3,0.3c0,0,0,0-0.1,0.1
					c-0.7,0.7-1.3,1.5-2,2.3c0,0,0,0.1-0.1,0.1c-0.1,0.1-0.1,0.2-0.2,0.3c-0.4,0.5-0.8,1.1-1.1,1.6c-0.2,0.3-0.3,0.6-0.5,0.9
					c-0.1,0.2-0.2,0.3-0.3,0.5c-0.1,0.2-0.2,0.3-0.3,0.5c-0.3,0.6-0.6,1.2-0.9,1.8c-0.1,0.2-0.2,0.5-0.3,0.7
					c-0.1,0.1-0.1,0.3-0.2,0.4c-0.1,0.2-0.2,0.4-0.3,0.7c-0.2,0.6-0.4,1.2-0.6,1.8c-0.1,0.3-0.2,0.7-0.3,1c0,0.1-0.1,0.2-0.1,0.3
					c0,0.1-0.1,0.3-0.1,0.4c-0.2,0.6-0.3,1.2-0.5,1.8c-0.1,0.6-0.3,1.2-0.4,1.8c0,0,0,0.1,0,0.1
					C727.4,1002.8,727.3,1003.4,727.2,1004z"/><path fill="#898989" d="M926.9,1016.4c-18.5-16.4-29.4-49.1-24.4-73.1c5-24,24-30.2,42.4-13.9c18.4,16.3,29.4,49.1,24.4,73.1
						C964.3,1026.5,945.3,1032.7,926.9,1016.4z"/><g><linearGradient id="q" x1="852.508" x2="1669.761" y1="895.715" y2="895.715" gradientTransform="rotate(8.27 1373.262 1308.515)" gradientUnits="userSpaceOnUse"><stop offset="0" stop-color="#7f7f7f"/><stop offset="1" stop-color="#444"/></linearGradient><path fill="url(#q)" d="M1734.2,823.4c17.7,205.3-152.7,398.7-380.5,432.1c-227.8,33.4-426.9-105.9-444.6-311.3
						c-17.7-205.2,152.7-398.6,380.5-432C1517.5,478.9,1716.5,618.2,1734.2,823.4z M1347.8,1186.7
						c185.7-27.2,324.5-184.8,310.1-352.1c-14.4-167.2-176.6-280.9-362.3-253.7c-185.7,27.2-324.5,184.9-310.1,352.1
						C999.9,1100.4,1162.1,1213.9,1347.8,1186.7"/><linearGradient id="r" x1="3332.151" x2="3395.893" y1="334.567" y2="967.086" gradientTransform="scale(-1 1) rotate(8.505 -996.922 -30606.33)" gradientUnits="userSpaceOnUse"><stop offset="0" stop-color="#fbfbfb"/><stop offset="1" stop-color="#e5e5e5"/></linearGradient><path fill="url(#r)" d="M1713,758.1c-17.7-205.2-216.7-344.6-444.6-311.1C1040.6,480.3,870.2,673.8,888,879
						c17.7,205.4,216.7,344.6,444.5,311.2C1560.3,1156.9,1730.8,963.4,1713,758.1z M964.2,867.8
						c-14.4-167.2,124.4-324.9,310.1-352.1c155-22.7,293.7,52.8,343.7,175.6c9.8,24.3,16.2,50.4,18.6,78.1
						c14.5,167.3-124.3,324.9-310,352.1c-141.8,20.8-269.9-40.5-328.9-145.1C979.4,944,967.7,907.3,964.2,867.8z"/><linearGradient id="s" x1="1184.821" x2="1295.731" y1="563.665" y2="1132.875" gradientTransform="rotate(8.27 1373.262 1308.515)" gradientUnits="userSpaceOnUse"><stop offset="0" stop-color="#3abaf9"/><stop offset="1" stop-color="#267ebd"/></linearGradient><path fill="url(#s)" d="M1326.6,1121.5c-141.8,20.8-269.9-40.5-328.9-145.1c-9.9-24.3-16.3-50.4-18.6-77.9
				c-14.5-167.3,124.3-324.9,310.1-352.1c141.7-20.8,269.7,40.5,328.8,144.9c9.8,24.3,16.2,50.4,18.6,78.1
				C1651.1,936.6,1512.3,1094.3,1326.6,1121.5z" opacity=".51"/></g></g><g><g opacity=".17"><ellipse cx="2150.6" cy="1130.4" fill="#4c0000" opacity="0" rx="307.8" ry="190.1"/><ellipse cx="2150.6" cy="1130.4" fill="#4a0101" opacity=".038" rx="300.4" ry="185.5"/><ellipse cx="2150.6" cy="1130.4" fill="#480202" opacity=".077" rx="292.9" ry="180.9"/><ellipse cx="2150.6" cy="1130.4" fill="#460303" opacity=".115" rx="285.5" ry="176.3"/><ellipse cx="2150.6" cy="1130.4" fill="#440404" opacity=".154" rx="278" ry="171.7"/><ellipse cx="2150.6" cy="1130.4" fill="#420505" opacity=".192" rx="270.6" ry="167.1"/><ellipse cx="2150.6" cy="1130.4" fill="#400606" opacity=".231" rx="263.1" ry="162.5"/><ellipse cx="2150.6" cy="1130.4" fill="#3e0606" opacity=".269" rx="255.7" ry="157.9"/><ellipse cx="2150.6" cy="1130.4" fill="#3c0707" opacity=".308" rx="248.2" ry="153.3"/><ellipse cx="2150.6" cy="1130.4" fill="#3a0808" opacity=".346" rx="240.8" ry="148.7"/><ellipse cx="2150.6" cy="1130.4" fill="#380909" opacity=".385" rx="233.3" ry="144.1"/><ellipse cx="2150.6" cy="1130.4" fill="#360a0a" opacity=".423" rx="225.9" ry="139.5"/><ellipse cx="2150.6" cy="1130.4" fill="#340b0b" opacity=".462" rx="218.4" ry="134.9"/><ellipse cx="2150.6" cy="1130.4" fill="#330c0c" opacity=".5" rx="211" ry="130.3"/><ellipse cx="2150.6" cy="1130.4" fill="#310d0d" opacity=".538" rx="203.5" ry="125.7"/><ellipse cx="2150.6" cy="1130.4" fill="#2f0e0e" opacity=".577" rx="196.1" ry="121.1"/><ellipse cx="2150.6" cy="1130.4" fill="#2d0f0f" opacity=".615" rx="188.6" ry="116.5"/><ellipse cx="2150.6" cy="1130.4" fill="#2b1010" opacity=".654" rx="181.2" ry="111.9"/><ellipse cx="2150.6" cy="1130.4" fill="#291111" opacity=".692" rx="173.7" ry="107.3"/><ellipse cx="2150.6" cy="1130.4" fill="#271212" opacity=".731" rx="166.3" ry="102.7"/><ellipse cx="2150.6" cy="1130.4" fill="#251212" opacity=".769" rx="158.8" ry="98.1"/><ellipse cx="2150.6" cy="1130.4" fill="#231313" opacity=".808" rx="151.4" ry="93.5"/><ellipse cx="2150.6" cy="1130.4" fill="#211414" opacity=".846" rx="143.9" ry="88.9"/><ellipse cx="2150.6" cy="1130.4" fill="#1f1515" opacity=".885" rx="136.5" ry="84.3"/><ellipse cx="2150.6" cy="1130.4" fill="#1d1616" opacity=".923" rx="129" ry="79.7"/><ellipse cx="2150.6" cy="1130.4" fill="#1b1717" opacity=".962" rx="121.6" ry="75.1"/><ellipse cx="2150.6" cy="1130.4" fill="#191818" rx="114.1" ry="70.5"/></g><polygon fill="#9f9fa0" points="2079.9 1051.8 2110.2 1102.5 2042.4 1072.7 2012.1 1022.1"/><polygon fill="#b3b3b4" points="2460.2 776 2490.5 826.7 2474.2 902.7 2443.9 852"/><path fill="#818183" d="M2183.4,1118.3c0.9,2.3,1.9,4.5,3,6.7l30.3,50.7c-1.1-2.2-2-4.4-3-6.7c-0.3-0.7-0.5-1.4-0.8-2.1
					c-0.6-1.6-1.2-3.2-1.7-4.8c-0.3-0.9-0.6-1.8-0.9-2.7c-0.3-1-0.6-2-0.8-3c-0.3-1-0.5-2-0.8-3.1c-0.2-1-0.5-2-0.7-3
					c-0.2-0.8-0.3-1.7-0.5-2.5c-0.5-2.9-1-5.8-1.3-8.7c0-0.3-0.1-0.7-0.1-1c-0.2-2.3-0.4-4.6-0.5-6.8c0-0.8-0.1-1.6-0.1-2.4
					c0-1.8,0-3.6,0-5.3c0-0.7,0-1.4,0-2.2c0.1-2.1,0.2-4.2,0.4-6.2c0-0.3,0-0.6,0.1-0.8c0.2-2.3,0.5-4.6,0.8-6.9
					c0.1-0.7,0.3-1.5,0.4-2.2c0.3-1.5,0.5-3,0.8-4.6c0.2-0.9,0.4-1.8,0.6-2.6c0.3-1.4,0.6-2.7,1-4.1c0.2-0.9,0.5-1.8,0.7-2.8
					c0.4-1.3,0.7-2.6,1.1-3.9c0.3-0.9,0.6-1.9,0.9-2.8c0.4-1.3,0.9-2.6,1.3-3.9c0.5-1.3,1-2.7,1.5-4c1.6-4,3.4-8,5.4-11.9
					c0.1-0.2,0.3-0.5,0.4-0.7c1.7-3.3,3.6-6.6,5.5-9.9c0.4-0.7,0.8-1.4,1.3-2.1c2.1-3.4,4.4-6.7,6.7-9.9c0.6-0.8,1.2-1.5,1.8-2.3
					c1.9-2.4,3.8-4.9,5.9-7.2c1.2-1.4,2.5-2.8,3.8-4.2c2-2.2,4.1-4.4,6.3-6.6c0.6-0.6,1.2-1.2,1.8-1.8c2.9-2.7,5.9-5.4,9-7.9
					c2.6-2.1,5.3-4.1,8.1-6.1c1.4-1,2.7-2,4.1-3c4.2-2.9,8.6-5.6,13.2-8.1c3.9-2.1,7.8-4,11.7-5.8c0.8-0.3,1.5-0.7,2.3-1
					c3.4-1.5,6.8-2.8,10.2-4c0.5-0.2,0.9-0.4,1.4-0.5c4.1-1.4,8.2-2.6,12.3-3.7c0.3-0.1,0.5-0.1,0.8-0.2c3.6-0.9,7.3-1.7,10.9-2.3
					c0.9-0.2,1.9-0.3,2.8-0.5c3.5-0.5,7-1,10.5-1.3c0.2,0,0.5-0.1,0.7-0.1c3.8-0.3,7.6-0.4,11.3-0.4c0.6,0,1.2,0,1.8,0
					c3.6,0.1,7.2,0.3,10.7,0.6c0.6,0.1,1.2,0.1,1.8,0.2c3.5,0.4,7,0.9,10.5,1.6c0.5,0.1,1,0.2,1.6,0.3c3.5,0.7,7.1,1.6,10.5,2.6
					c0.2,0.1,0.5,0.2,0.7,0.2c3.2,1,6.4,2.1,9.5,3.4c0.5,0.2,1.1,0.4,1.6,0.6c3.1,1.3,6.2,2.7,9.2,4.3c0.8,0.4,1.6,0.9,2.4,1.3
					c2.2,1.2,4.4,2.5,6.5,3.9c1.1,0.7,2.1,1.4,3.2,2.1c1.6,1.1,3.2,2.4,4.8,3.6c1.6,1.2,3.2,2.5,4.7,3.8c2.4,2.1,4.7,4.2,6.9,6.5
					c0.1,0.1,0.1,0.1,0.2,0.2c2.4,2.5,4.6,5.2,6.7,7.9c0.5,0.7,1.1,1.4,1.6,2.1c2.1,2.8,4.1,5.7,5.9,8.8l-30.3-50.7
					c-1.8-3.1-3.8-6-5.9-8.8c-0.5-0.7-1-1.4-1.6-2.1c-2.1-2.7-4.4-5.4-6.7-7.9c0-0.1-0.1-0.1-0.2-0.2c-1.7-1.8-3.5-3.5-5.3-5.2
					c-0.5-0.4-1-0.8-1.5-1.2c-1.5-1.3-3.1-2.6-4.7-3.8c-1-0.8-1.9-1.6-2.9-2.4c-0.6-0.4-1.2-0.8-1.9-1.2c-1-0.7-2.1-1.4-3.2-2.1
					c-1-0.6-1.9-1.3-2.9-1.9c-1.2-0.7-2.4-1.3-3.7-2c-0.8-0.4-1.6-0.9-2.4-1.3c-0.4-0.2-0.8-0.5-1.3-0.7c-2.3-1.1-4.6-2.2-6.9-3.2
					c-0.3-0.1-0.7-0.3-1-0.4c-0.5-0.2-1.1-0.4-1.6-0.6c-1.3-0.5-2.6-1.1-4-1.6c-1.8-0.7-3.7-1.2-5.6-1.8c-0.2-0.1-0.5-0.2-0.7-0.2
					c-0.1,0-0.2-0.1-0.3-0.1c-2.2-0.6-4.3-1.2-6.5-1.7c-1.2-0.3-2.4-0.5-3.6-0.8c-0.5-0.1-1-0.2-1.6-0.3c-0.4-0.1-0.9-0.2-1.3-0.3
					c-2.2-0.4-4.4-0.7-6.6-1c-0.9-0.1-1.7-0.2-2.6-0.3c-0.6-0.1-1.2-0.1-1.8-0.2c-0.8-0.1-1.5-0.2-2.3-0.2c-2.3-0.2-4.6-0.3-6.9-0.4
					c-0.5,0-1,0-1.6,0c-0.6,0-1.2,0-1.8,0c-1.2,0-2.5,0-3.7,0c-2.4,0.1-4.9,0.2-7.3,0.4c-0.1,0-0.2,0-0.3,0c-0.2,0-0.5,0.1-0.7,0.1
					c-2.3,0.2-4.7,0.4-7,0.7c-1.2,0.2-2.4,0.4-3.5,0.6c-0.9,0.1-1.9,0.3-2.8,0.5c-0.7,0.1-1.5,0.2-2.2,0.4c-2.9,0.5-5.8,1.2-8.7,1.9
					c-0.3,0.1-0.5,0.1-0.8,0.2c-0.1,0-0.1,0-0.2,0c-3.9,1-7.7,2.1-11.6,3.4c-0.2,0.1-0.4,0.2-0.6,0.2c-0.5,0.2-0.9,0.4-1.4,0.5
					c-3.4,1.2-6.8,2.6-10.2,4.1c-0.8,0.3-1.5,0.6-2.3,1c-0.5,0.2-1.1,0.4-1.6,0.7c-3.4,1.6-6.8,3.3-10.1,5.1
					c-4.6,2.5-8.9,5.2-13.2,8.1c-1.4,1-2.7,2-4.1,3c-2.8,2-5.5,4-8.1,6.1c-0.3,0.3-0.7,0.5-1,0.7c-2.8,2.3-5.5,4.7-8.1,7.2
					c-0.6,0.6-1.2,1.2-1.8,1.8c-1.2,1.1-2.4,2.3-3.5,3.4c-1,1-1.9,2.1-2.8,3.1c-1.3,1.4-2.6,2.8-3.8,4.2c-0.6,0.7-1.3,1.4-1.8,2.1
					c-1.4,1.7-2.7,3.4-4,5.2c-0.6,0.8-1.2,1.5-1.8,2.3c-0.2,0.3-0.4,0.5-0.6,0.8c-1.8,2.5-3.6,5.1-5.3,7.7c-0.3,0.5-0.6,1-0.9,1.5
					c-0.4,0.7-0.9,1.4-1.3,2.1c-0.8,1.3-1.6,2.5-2.3,3.8c-1.1,2-2.2,4-3.2,6.1c-0.1,0.3-0.3,0.5-0.4,0.8c-0.1,0.1-0.1,0.2-0.2,0.3
					c-1.2,2.3-2.2,4.7-3.3,7c-0.7,1.5-1.3,3.1-1.9,4.6c-0.3,0.8-0.6,1.5-0.9,2.3c-0.2,0.6-0.4,1.1-0.6,1.7c-0.5,1.3-0.9,2.6-1.4,3.9
					c-0.2,0.5-0.3,0.9-0.5,1.4c-0.2,0.5-0.3,0.9-0.4,1.4c-0.4,1.3-0.8,2.6-1.1,3.9c-0.2,0.6-0.3,1.1-0.5,1.7
					c-0.1,0.4-0.2,0.7-0.3,1.1c-0.3,1.3-0.7,2.7-1,4.1c-0.1,0.6-0.3,1.2-0.4,1.9c-0.1,0.3-0.1,0.5-0.1,0.8c-0.3,1.5-0.6,3.1-0.8,4.6
					c-0.1,0.6-0.2,1.2-0.3,1.8c0,0.1,0,0.3,0,0.4c-0.3,2.3-0.6,4.6-0.8,6.9c0,0,0,0.1,0,0.1c0,0.2,0,0.5,0,0.7
					c-0.2,2.1-0.3,4.2-0.4,6.2c0,0.2,0,0.4,0,0.7c0,0.5,0,1,0,1.5c0,1.8,0,3.6,0,5.3c0,0.4,0,0.9,0,1.3c0,0.4,0.1,0.7,0.1,1.1
					c0.1,2.3,0.3,4.6,0.5,6.8c0,0.3,0,0.6,0.1,0.8c0,0.1,0,0.1,0,0.2c0.3,2.9,0.8,5.8,1.3,8.7c0.1,0.3,0.1,0.7,0.2,1
					c0.1,0.5,0.2,1,0.3,1.5c0.2,1,0.4,2,0.7,3c0.2,1,0.5,2.1,0.8,3.1c0.3,1,0.6,2,0.8,3c0.2,0.5,0.3,1,0.4,1.5
					c0.1,0.4,0.3,0.8,0.4,1.2c0.5,1.6,1.1,3.2,1.7,4.8C2182.9,1116.9,2183.1,1117.6,2183.4,1118.3z"/><defs><path id="t" d="M2221,1183.9l-30.3-50.7c-1.6-2.6-3-5.3-4.4-8.2l30.3,50.7
							C2218,1178.5,2219.5,1181.2,2221,1183.9z" enable-background="new"/></defs><clipPath id="u"><use overflow="visible" xlink:href="#t"/></clipPath><g clip-path="url(#u)"><path fill="#818183" d="M2186.4,1125l30.3,50.7c1.4,2.8,2.8,5.5,4.4,8.2l-30.3-50.7C2189.2,1130.5,2187.7,1127.8,2186.4,1125"/></g><defs><path id="v" d="M2067,1281.8l-30.3-50.7c2,3.4,4.1,6.6,6.2,9.9l30.3,50.7
							C2071.1,1288.4,2069,1285.1,2067,1281.8z" enable-background="new"/></defs><clipPath id="w"><use overflow="visible" xlink:href="#v"/></clipPath><g clip-path="url(#w)"><path fill="#818183" d="M2042.9,1240.9l30.3,50.7c-2.1-3.2-4.2-6.5-6.2-9.9l-30.3-50.7
							C2038.7,1234.4,2040.8,1237.7,2042.9,1240.9"/></g><polygon fill="#e8e8ea" points="2120.3 1212.4 2150.6 1263.1 2073.2 1291.6 2042.9 1240.9"/><defs><path id="x" d="M2588.1,880.5l30.3,50.7c3.5,5.9,6.9,12,9.9,18.4c4.8,9.9,8.9,20.1,12.4,30.4l-30.3-50.7
							c-3.4-10.3-7.6-20.5-12.4-30.4C2594.9,892.5,2591.6,886.4,2588.1,880.5z" enable-background="new"/></defs><clipPath id="y"><use overflow="visible" xlink:href="#x"/></clipPath><g clip-path="url(#y)"><path fill="#b3b3b4" d="M2588.1,880.5l30.3,50.7c3.5,5.9,6.9,12,9.9,18.4c4.8,9.9,8.9,20.1,12.4,30.4l-30.3-50.7
							c-3.4-10.3-7.6-20.5-12.4-30.4C2594.9,892.5,2591.6,886.4,2588.1,880.5"/></g><polygon fill="#ededef" points="2610.4 929.3 2640.7 980 2574 1030.6 2543.8 979.9"/><path fill="#b3b3b4" d="M2211.2,1310.3L2211.2,1310.3l-30.3-50.7c-1.2-0.6-2.3-1.2-3.5-1.8c-3.1-1.6-6.1-3.3-9.1-5
					c-0.9-0.5-1.7-1-2.6-1.5c-4-2.4-7.9-5-11.6-7.7c-1.1-0.8-2.2-1.6-3.3-2.4c-1.4-1.1-2.8-2.1-4.2-3.2c-1.2-0.9-2.4-1.9-3.5-2.9
					c-1.4-1.1-2.7-2.3-4-3.4c-1-0.9-2-1.8-3-2.7c-2-1.8-3.9-3.7-5.7-5.6c-0.8-0.8-1.6-1.6-2.4-2.5c-2.6-2.7-5.1-5.5-7.6-8.4
					l30.3,50.7c2.4,2.9,5,5.7,7.6,8.4c0.8,0.8,1.6,1.6,2.4,2.5c1.9,1.9,3.8,3.8,5.7,5.6c0.5,0.5,1,1,1.5,1.4c0.5,0.5,1,0.9,1.5,1.3
					c1.3,1.2,2.7,2.3,4,3.4c1.2,1,2.3,2,3.5,2.9c1.4,1.1,2.8,2.2,4.2,3.2c0.8,0.6,1.6,1.2,2.4,1.8c0.3,0.2,0.6,0.4,0.9,0.6
					c3.8,2.7,7.7,5.2,11.6,7.7c0.3,0.2,0.6,0.4,0.9,0.6c0.5,0.3,1.1,0.6,1.7,0.9c3,1.7,6,3.4,9.1,5c0.5,0.3,1.1,0.6,1.6,0.9
					C2209.9,1309.7,2210.5,1310,2211.2,1310.3L2211.2,1310.3L2211.2,1310.3z"/><path fill="#a4a4a6" d="M2575.2,1110.4c0.2-1.4,0.5-2.9,0.7-4.3c0.1-0.7,0.2-1.4,0.3-2.1c0.4-2.9,0.8-5.7,1.1-8.6
					c0.1-0.8,0.2-1.6,0.3-2.4c0-0.4,0-0.7,0.1-1.1c0.4-4,0.6-8.1,0.8-12.1c0-0.1,0-0.2,0-0.3c0-0.4,0-0.8,0-1.2
					c0.1-3.7,0.1-7.4,0-11.2c0-0.6,0-1.2,0-1.7c0-0.6-0.1-1.1-0.1-1.7c-0.2-4.4-0.5-8.7-0.9-13.1c0-0.1,0-0.2,0-0.3c0,0,0-0.1,0-0.1
					c0-0.2-0.1-0.5-0.1-0.7c-0.3-2.8-0.7-5.7-1.1-8.5c-0.2-1-0.4-2-0.5-3c-0.3-1.5-0.5-3-0.8-4.5c-0.2-1-0.4-2-0.6-3l-30.3-50.7
					c0.5,2.5,1,5,1.4,7.5c0.2,1,0.4,2,0.5,3c0.4,2.8,0.8,5.7,1.1,8.5c0,0.3,0.1,0.5,0.1,0.7c0,0.1,0,0.2,0,0.4
					c0.5,4.3,0.7,8.7,0.9,13.1c0,1.1,0.1,2.3,0.1,3.4c0.1,3.7,0.1,7.4,0,11.2c0,0.5,0,1,0,1.5c-0.1,4-0.4,8-0.8,12.1
					c-0.1,1.2-0.2,2.3-0.4,3.5c-0.3,2.9-0.6,5.7-1.1,8.6c-0.3,2.1-0.6,4.3-0.9,6.4l0,0l0,0L2575.2,1110.4z"/><path fill="#bdbdbf" d="M2324.5,1276.8c-1,0.2-1.9,0.3-2.9,0.5c-3.5,0.6-7.1,1.2-10.6,1.7c-1.3,0.2-2.6,0.4-3.8,0.5
					c-3.3,0.4-6.7,0.7-10,1c-0.8,0.1-1.7,0.2-2.5,0.2c-4,0.3-7.9,0.5-11.8,0.6c-3.2,0.1-6.4,0.1-9.6,0.1l30.3,50.7c3,0,6,0,9,0
					c0.2,0,0.4,0,0.6,0c3.9-0.1,7.9-0.3,11.8-0.6c0.2,0,0.3,0,0.5,0c0.7,0,1.3-0.1,2-0.2c3.3-0.3,6.7-0.6,10-1
					c0.6-0.1,1.2-0.1,1.7-0.2c0.7-0.1,1.4-0.2,2.1-0.3c3.5-0.5,7.1-1,10.6-1.7c0.7-0.1,1.4-0.2,2.1-0.3c0.2,0,0.5-0.1,0.7-0.2
					c4.8-0.9,9.7-2,14.5-3.2c0.5-0.1,0.9-0.2,1.4-0.3c0.6-0.2,1.2-0.4,1.8-0.5c5.2-1.4,10.4-2.8,15.6-4.5l-30.3-50.7
					c-5.2,1.7-10.4,3.2-15.6,4.5c-1.1,0.3-2.1,0.6-3.2,0.8C2334.2,1274.8,2329.3,1275.8,2324.5,1276.8z"/><path fill="#e0e0e2" d="M2488.4,1179c-1.2,1.5-2.5,2.9-3.7,4.4c-1.1,1.3-2.2,2.6-3.4,3.9c-1.3,1.5-2.7,2.9-4.1,4.4
					c-1.2,1.2-2.3,2.5-3.5,3.7c-0.3,0.3-0.6,0.6-0.9,0.9c-2.9,3-6,5.9-9,8.8c-1,0.9-2,1.8-3,2.7c-2.8,2.5-5.6,5-8.4,7.4
					c-1.1,0.9-2.1,1.9-3.2,2.8l30.3,50.7c0.5-0.4,1-0.9,1.6-1.3c0.6-0.5,1.1-1,1.7-1.5c2.9-2.4,5.7-4.9,8.5-7.4c1-0.9,2-1.8,3-2.7
					c3.1-2.9,6.1-5.8,9-8.8c0.2-0.2,0.5-0.5,0.8-0.7c0.1-0.1,0.1-0.1,0.2-0.2c1.2-1.2,2.3-2.5,3.5-3.7c1.4-1.5,2.7-2.9,4.1-4.4
					c1.1-1.3,2.2-2.6,3.3-3.9c1.2-1.4,2.4-2.8,3.6-4.2c0.1-0.1,0.1-0.1,0.2-0.2c3.5-4.2,6.8-8.6,10.1-13c0.3-0.5,0.7-0.9,1.1-1.4
					c0.3-0.4,0.6-0.9,0.9-1.3c2.6-3.6,5.1-7.3,7.6-11l-30.3-50.7c-2.4,3.7-5,7.4-7.6,11c-0.6,0.9-1.3,1.8-2,2.7
					C2495.3,1170.4,2491.9,1174.8,2488.4,1179z"/><path fill="#9a9a9c" d="M2261.9,1402L2261.9,1402l-30.3-50.7c-4.4-0.5-8.8-1.2-13.2-1.9c-1.8-0.3-3.6-0.5-5.4-0.8
					c-4.6-0.8-9.1-1.7-13.7-2.8c-0.8-0.2-1.6-0.3-2.3-0.5c-5.3-1.2-10.5-2.6-15.7-4.2c-1.8-0.5-3.5-1.1-5.2-1.7
					c-3.9-1.2-7.8-2.5-11.6-3.9l0,0l0,0l0,0l30.3,50.7c0.9,0.3,1.8,0.6,2.7,1c2.9,1,6,1.9,8.9,2.9c1.7,0.6,3.5,1.2,5.2,1.7
					c0.2,0.1,0.5,0.2,0.7,0.2c4.9,1.4,9.8,2.7,14.8,3.9c0.1,0,0.2,0,0.2,0c0.8,0.2,1.5,0.3,2.3,0.5c4,0.9,8.1,1.8,12.2,2.5
					c0.5,0.1,1,0.1,1.5,0.2c1.8,0.3,3.6,0.6,5.4,0.8c2.6,0.4,5.2,0.9,7.9,1.2C2258.4,1401.6,2260.1,1401.8,2261.9,1402L2261.9,1402
					L2261.9,1402z"/><polygon fill="#d6d6d8" points="2273.3 1281.3 2303.5 1332 2261.9 1402 2231.6 1351.3"/><path fill="#c2c2c4" d="M2585.9,1156.7l30.3,50.7c1.3-2.5,2.6-5,3.9-7.6c0.8-1.6,1.5-3.3,2.3-4.9c1.2-2.4,2.3-4.9,3.4-7.3
					c0.5-1.2,1.1-2.3,1.6-3.5c1.5-3.4,2.9-6.9,4.3-10.3c0.7-1.7,1.3-3.4,2-5.2c0.8-2.2,1.5-4.4,2.3-6.7c0.8-2.2,1.6-4.5,2.3-6.7
					c0.2-0.7,0.5-1.3,0.7-2c1.4-4.3,2.7-8.7,3.9-13.1l-30.3-50.7c-1.4,5.1-2.9,10.1-4.6,15.1c-0.7,2.3-1.6,4.5-2.3,6.7
					c-1.4,3.9-2.8,7.9-4.3,11.8c-1.8,4.6-3.9,9.2-5.9,13.8c-1.1,2.5-2.3,4.9-3.4,7.3C2590.1,1148.4,2588.1,1152.6,2585.9,1156.7z"/><polygon fill="#c6c6c8" points="2616.2 1207.4 2585.9 1156.7 2508 1152.3 2538.3 1203"/><polygon fill="#b3b3b4" points="2401.2 1325 2431.5 1375.7 2388 1318.9 2357.7 1268.2"/><polygon fill="#b3b3b4" points="2449.1 1218 2479.4 1268.7 2497.8 1339.3 2467.5 1288.6"/><defs><path id="z" d="M2467.5,1288.6l30.3,50.7c-10.3,7-21.1,13.7-32.3,19.9c-11.2,6.2-22.6,11.6-34,16.6
							l-30.3-50.7c11.4-4.9,22.8-10.4,34-16.6C2446.5,1302.3,2457.2,1295.6,2467.5,1288.6z" enable-background="new"/></defs><clipPath id="A"><use overflow="visible" xlink:href="#z"/></clipPath><g clip-path="url(#A)"><path fill="#e0e0e2" d="M2467.5,1288.6l30.3,50.7c-10.3,7-21.1,13.7-32.3,19.9c-7.7,4.3-15.5,8.2-23.3,11.8l-30.3-50.7
							c7.8-3.6,15.6-7.5,23.3-11.8C2446.5,1302.3,2457.2,1295.6,2467.5,1288.6"/><path fill="#dbdbdd" d="M2411.9,1320.2l30.3,50.7c-3.6,1.7-7.1,3.2-10.7,4.8l-30.3-50.7
							C2404.8,1323.5,2408.4,1321.9,2411.9,1320.2"/></g><g><linearGradient id="B" x1="6888.956" x2="7446.751" y1="-984.142" y2="-984.142" gradientTransform="rotate(51.737 2636.323 -4970.867)" gradientUnits="userSpaceOnUse"><stop offset="0" stop-color="#fbfbfb"/><stop offset="1" stop-color="#e5e5e5"/></linearGradient><path fill="url(#B)" d="M2164.5,1335.6l16.4-76c-23.3-11.4-43.9-27.2-60.6-47.1l-77.4,28.5c-6-8.9-11.4-18.4-16.2-28.3
						c-4.9-9.9-9-20.1-12.4-30.4l66.6-50.6c-5.7-26.1-5.9-53.1-1.2-79.8l-67.8-29.8c3.1-11.3,6.9-22.4,11.2-33.5
						c4.5-11.4,9.7-22.7,15.6-33.8l77.8,4.4c15.6-24.1,35.3-46.5,58.9-65.7l-18.5-70.6c10.4-7.1,21.1-13.8,32.4-19.9
						c11.2-6.2,22.6-11.7,33.9-16.5l43.5,56.8c28.3-9.2,56.9-13.5,84.5-13.1l41.7-70.1c23.3,2.7,45.8,7.9,67,15.8l-16.3,76
						c23.2,11.4,43.8,27.2,60.6,47.1l77.4-28.5c5.9,8.9,11.3,18.3,16.2,28.3c4.8,9.9,8.9,20.1,12.4,30.4l-66.6,50.6
						c5.6,26.1,5.7,53,1.1,79.8l67.8,29.8c-3.1,11.3-6.8,22.6-11.2,33.6c-4.5,11.4-9.7,22.6-15.5,33.6l-77.9-4.3
						c-15.7,24.1-35.4,46.5-58.9,65.7l18.4,70.6c-10.3,7-21.1,13.7-32.3,19.9c-11.2,6.2-22.6,11.6-34,16.6l-43.5-56.8
						c-28.4,9.3-57,13.5-84.5,13.1l-41.7,70C2208.3,1348.7,2185.7,1343.4,2164.5,1335.6z M2186.4,1125
						c29.9,61.5,110.6,80.5,180.2,42.2c34.8-19.1,60.3-49,73.3-81.7c12.9-32.6,13.5-68.2-1.4-98.9c-29.9-61.6-110.6-80.5-180.2-42.3
						c-34.9,19.1-60.3,49-73.3,81.8C2172,1058.7,2171.4,1094.3,2186.4,1125"/></g><g><path fill="#fff" d="M2442,848.3c0.8,0.4,1.6,0.8,2.4,1.3l15.8-73.6c-0.8-0.3-1.7-0.5-2.5-0.8L2442,848.3z"/><path fill="#fff" d="M2608.5,925.7l-66.6,50.6c5.6,26.1,5.7,53,1.1,79.8l2.3,1c4.1-25.9,3.9-51.9-1.5-77.1l66.6-50.6
						c-3.4-10.3-7.6-20.5-12.4-30.4c-0.5-1-1-1.9-1.6-2.9C2601.1,905.7,2605.2,915.6,2608.5,925.7z"/><path fill="#fff" d="M2273.3,1281.3c27.5,0.4,56.1-3.8,84.5-13.1l43.5,56.8c11.4-4.9,22.8-10.4,34-16.6
						c11.2-6.1,22-12.8,32.3-19.9l-18.4-70.6c23.5-19.2,43.2-41.5,58.9-65.7l77.9,4.3c5.8-11,11-22.2,15.5-33.6
						c4.4-11.1,8.1-22.3,11.2-33.6l-2.6-1.2c-2.9,10.5-6.4,20.9-10.5,31.1c-4.5,11.4-9.7,22.6-15.5,33.6l-77.9-4.3
						c-15.7,24.1-35.4,46.5-58.9,65.7l18.4,70.6c-10.3,7-21.1,13.7-32.3,19.9c-11.2,6.2-22.6,11.6-34,16.6l-43.5-56.8
						c-28.4,9.3-57,13.5-84.5,13.1l-41.7,70c-22.4-2.5-44.1-7.5-64.6-14.8l-0.6,2.9c21.2,7.8,43.8,13.1,67.1,15.7L2273.3,1281.3z"/><path fill="#fff" d="M2184.5,1121.3c0.5,1.1,1.1,2.1,1.6,3.1c-14.6-30.6-14.1-65.9-1.2-98.4c13-32.8,38.4-62.6,73.3-81.8
						c68.4-37.5,147.4-19.9,178.6,39.2c-0.1-0.2-0.2-0.4-0.3-0.6c-29.9-61.6-110.6-80.5-180.2-42.3c-34.9,19.1-60.3,49-73.3,81.8
						C2170.1,1055,2169.5,1090.6,2184.5,1121.3z"/><path fill="#fff" d="M2078,1048.2l-65.1-28.6c-0.2,0.8-0.5,1.7-0.8,2.5l65.5,28.8C2077.7,1050,2077.8,1049.1,2078,1048.2z"/><path fill="#fff" d="M2178.5,1258.3l0.5-2.4c-23.3-11.4-43.9-27.2-60.6-47.1l-77.4,28.5c-5.4-8-10.2-16.5-14.6-25.3
						c0.1,0.2,0.2,0.5,0.3,0.7c4.8,9.9,10.2,19.4,16.2,28.3l77.4-28.5C2136.4,1231.7,2156.2,1247,2178.5,1258.3z"/></g></g><g><linearGradient id="C" x1="385.015" x2="341.57" y1="2014.987" y2="2165.069" gradientTransform="matrix(.9778 .1963 -.03329 .9913 814.893 -673.837)" gradientUnits="userSpaceOnUse"><stop offset="0" stop-color="#ffca85"/><stop offset="1" stop-color="#d88d35"/></linearGradient><path fill="url(#C)" d="M1358.9,1576l-174.3,373.9c-2.6,5.5-6.9,9.2-12.1,11c-6.9,2.4-15.4,1.3-22.9-3.7l-407.4-240.5
			c-8.2-5.4-12.7-15-11.6-23.6c0.2-2,0.8-4,1.7-5.9l156.6-328.5c2.3-4.9,6.1-8.4,10.8-10.3c5.7-2.3,12.5-2.2,19.2,0.8l423.7,188.9
			c10.1,4.5,16.9,14.1,18.3,24C1361.5,1566.7,1361,1571.6,1358.9,1576z"/><linearGradient id="D" x1="406.305" x2="284.207" y1="2036.045" y2="2351.465" gradientTransform="matrix(.9778 .1963 -.03329 .9913 814.893 -673.837)" gradientUnits="userSpaceOnUse"><stop offset="0" stop-color="#fbfbfb"/><stop offset="1" stop-color="#e5e5e5"/></linearGradient><polygon fill="url(#D)" points="915.6 1409.8 989.7 1234.8 1390.5 1410.3 1302 1579.7 984.8 1675.6"/><line x1="1000.7" x2="1315.7" y1="1338" y2="1466.6" fill="none" stroke="#ccc" stroke-linecap="round" stroke-linejoin="round" stroke-miterlimit="10" stroke-width="5.587"/><line x1="989.1" x2="1304.1" y1="1363.4" y2="1492" fill="none" stroke="#ccc" stroke-linecap="round" stroke-linejoin="round" stroke-miterlimit="10" stroke-width="5.587"/><line x1="977.5" x2="1292.5" y1="1388.8" y2="1517.4" fill="none" stroke="#ccc" stroke-linecap="round" stroke-linejoin="round" stroke-miterlimit="10" stroke-width="5.587"/><line x1="965.9" x2="1280.9" y1="1414.2" y2="1542.8" fill="none" stroke="#ccc" stroke-linecap="round" stroke-linejoin="round" stroke-miterlimit="10" stroke-width="5.587"/><line x1="954.3" x2="1269.3" y1="1439.6" y2="1568.2" fill="none" stroke="#ccc" stroke-linecap="round" stroke-linejoin="round" stroke-miterlimit="10" stroke-width="5.587"/><line x1="942.7" x2="1257.7" y1="1465" y2="1593.5" fill="none" stroke="#ccc" stroke-linecap="round" stroke-linejoin="round" stroke-miterlimit="10" stroke-width="5.587"/><line x1="931.1" x2="1246.1" y1="1490.4" y2="1618.9" fill="none" stroke="#ccc" stroke-linecap="round" stroke-linejoin="round" stroke-miterlimit="10" stroke-width="5.587"/><line x1="919.5" x2="1234.5" y1="1515.8" y2="1644.3" fill="none" stroke="#ccc" stroke-linecap="round" stroke-linejoin="round" stroke-miterlimit="10" stroke-width="5.587"/><line x1="907.9" x2="1222.9" y1="1541.1" y2="1669.7" fill="none" stroke="#ccc" stroke-linecap="round" stroke-linejoin="round" stroke-miterlimit="10" stroke-width="5.587"/><linearGradient id="E" x1="343.553" x2="217.293" y1="2184.795" y2="2510.964" gradientTransform="matrix(.9778 .1963 -.03329 .9913 814.893 -673.837)" gradientUnits="userSpaceOnUse"><stop offset="0" stop-color="#ffca85"/><stop offset="1" stop-color="#d88d35"/></linearGradient><path fill="url(#E)" d="M1358.9,1576l-174.3,373.9c-5.9,12.7-21.8,16-35,7.3l-407.4-240.5c-10.1-6.7-14.5-19.7-10-29.5l156.6-328.5
			c2.3-4.9,6.1-8.4,10.8-10.3l85.1,327.3l376-113.7C1361.5,1566.7,1361,1571.6,1358.9,1576z"/><linearGradient id="F" x1="288.529" x2="215.051" y1="2312" y2="2501.816" gradientTransform="matrix(.9778 .1963 -.03329 .9913 814.893 -673.837)" gradientUnits="userSpaceOnUse"><stop offset="0" stop-color="#ffca85"/><stop offset="1" stop-color="#d88d35"/></linearGradient><path fill="url(#F)" d="M1172.5,1960.8c-6.9,2.4-15.4,1.3-22.9-3.7l-407.4-240.5c-8.2-5.4-12.7-15-11.6-23.6l271.5-111.3
			c18.8-7.7,42.6,5.1,50,27L1172.5,1960.8z"/></g><g><linearGradient id="G" x1="34651.75" x2="35277.004" y1="4936.556" y2="4936.556" gradientTransform="matrix(.582 -.0046 -.0457 .6083 -19398.213 -2368.669)" gradientUnits="userSpaceOnUse"><stop offset="0" stop-color="#ff8500"/><stop offset="1" stop-color="#fff200"/></linearGradient><path fill="url(#G)" d="M724.2,666.2c-100.8,7.9-181.9-72-181.2-178.4c0.7-106.5,82.9-199.2,183.7-207.1
			c100.8-7.9,181.9,72,181.2,178.4C907.2,565.5,824.9,658.3,724.2,666.2z"/><linearGradient id="H" x1="19841.545" x2="19556.504" y1="-1071.167" y2="-810.505" gradientTransform="rotate(4.289 -8419.918 -253928.372)" gradientUnits="userSpaceOnUse"><stop offset="0" stop-color="#ff8500"/><stop offset="1" stop-color="#fff200"/></linearGradient><path fill="url(#H)" d="M693.2,648.7c-100.8,7.9-181.9-71.9-181.2-178.4c0.1-13.7,1.5-27.1,4.2-40.2c17.9-88.7,91.7-160,179.5-167
			c78.7-6.2,145.5,41.2,170.5,113.1c7,20.1,10.8,42.1,10.6,65.3C876.2,548,794,640.8,693.2,648.7z"/><path fill="#fff" d="M866.3,376.2c-17.9,88.7-91.7,160-179.5,166.9c-78.7,6.2-145.5-41.2-170.5-113c17.9-88.7,91.7-160,179.5-167
			C774.5,256.9,841.2,304.4,866.3,376.2z" opacity=".26"/><polygon fill="#fff" points="634.4 393 646.7 514.7 772.3 472.7 769.1 436 673.8 469.1 664.9 382.4"/></g></svg>