<svg xmlns="http://www.w3.org/2000/svg" fill="none" viewBox="0 0 3000 3000"><path fill="#494752" d="M1283.27 1748.51c8.84-140.18 17.68-308.93 12.75-360.94v-.61c0-94.55 28.57-136.69 57.96-159.5 114.07-80.37 269.67-49.54 317.56-32.07 72.15 26.52 87.36 210.07 87.36 210.07l33.5 343.05h-509.13Z"/><path fill="#494752" d="M1792.4 1753.64h-509.13a5.583 5.583 0 0 1-3.7-1.64c-.45-.54-.79-1.16-1-1.83-.21-.67-.29-1.38-.23-2.08 8.43-135.45 17.47-307.9 12.54-360.1v-1.03c0-78.72 19.53-132.16 60.02-163.41 0-.05.02-.1.06-.14.04-.04.09-.06.14-.06 115.31-81.4 271.73-51.18 322.29-32.68 74.41 27.13 90.03 206.77 90.64 214.38l33.51 342.84c.02 1.5-.49 2.95-1.44 4.11-.46.53-1.03.95-1.67 1.24-.64.28-1.33.42-2.03.4Zm-503.58-10.27h497.82l-32.88-337.3c-3.06-31.89-8.56-63.5-16.45-94.55-16.44-62.48-39.67-101.12-67.41-111.19-27.75-10.07-75.64-20.35-131.14-20.35h-1.23c-70.3 0-132.58 18.09-180.47 51.59-13.97 10.89-55.9 43.78-55.9 155.39 4.93 52.41-3.91 221.37-12.34 356.41Z"/><path fill="#fff" d="m1583.16 1161.07-15.42-149.02-92.29 2.26 4.32 152.72s-24.66 13.56-24.46 22.81c.21 9.25 10.69 22.61 69.27 21.17 58.58-1.43 80.37-17.47 80.16-29.18-.21-7.2-19.11-9.25-21.58-20.76Z"/><path fill="#494752" d="M1514.3 1216.36c-44.39 0-63.72-8.02-64.13-26.31-.2-10.07 15.21-20.55 24.46-25.9l-4.31-149.63c.04-1.36.55-2.67 1.44-3.7.47-.51 1.04-.92 1.68-1.2.63-.29 1.32-.44 2.02-.45l92.08-2.26h.2c1.25.04 2.45.51 3.39 1.33.94.83 1.56 1.96 1.75 3.19l15.42 148.82c1.03 3.9 5.75 6.57 10.27 9.04 4.53 2.47 11.1 6.17 11.31 12.54-.2 4.93-2.34 9.59-5.96 12.95-6.99 7.6-26.52 20.14-79.34 21.37l-10.28.21Zm-33.5-197.12 4.11 147.58a5.353 5.353 0 0 1-2.67 4.73c-13.36 7.4-21.79 15.62-21.79 18.29.41 17.68 48.3 16.45 63.92 16.04 52.21-1.24 68.45-14.19 72.15-18.09 1.6-1.47 2.68-3.42 3.08-5.55a33.648 33.648 0 0 0-5.96-3.91c-5.75-3.28-13.77-7.6-15.41-16.23v-.62l-15.21-144.08-82.22 1.84Z"/><path fill="#fff" d="M1547.19 1090.98c-19.53 15.83-42.75 24.87-67.62 24.25-64.34-1.64-114.49-67.21-112.23-146.343 2.26-79.133 56.11-141.823 120.45-140.179 64.33 1.644 114.48 67.007 112.22 146.14-1.02 36.382-13.36 70.502-32.06 95.162"/><path fill="#494752" d="M1482.03 1120.37h-2.67c-27.95-.82-54.88-13.36-75.84-35.56-27.55-28.98-42.76-71.32-41.32-115.923 2.26-82.011 58.79-147.167 125.59-145.317 28.16.616 55.08 13.154 76.05 35.353 27.54 29.187 42.75 71.323 41.31 116.131-1.03 35.766-12.95 71.526-33.09 98.046-.41.54-.91.99-1.49 1.34-.58.34-1.23.57-1.89.66a5.097 5.097 0 0 1-3.81-.98c-.54-.4-1-.91-1.34-1.49a5.094 5.094 0 0 1-.56-3.89c.17-.66.46-1.27.87-1.81 18.91-24.87 30.21-58.37 31.03-92.082 1.24-42.136-12.74-81.805-38.43-108.731-19.32-20.554-43.17-31.654-68.86-32.27h-2.26c-60.43 0-110.79 60.223-112.84 135.452-1.23 41.931 12.74 81.601 38.44 108.731 19.32 20.35 43.16 31.65 68.85 32.27 25.69.62 45.02-7.4 64.13-23.02a5.183 5.183 0 0 1 3.72-1.17c1.35.12 2.6.76 3.47 1.79a5.256 5.256 0 0 1 1.09 3.86 5.37 5.37 0 0 1-1.91 3.54c-20.35 16.23-43.78 25.07-68.24 25.07Z"/><path fill="#494752" d="M1435.79 1032.61c-1.19.06-2.36-.31-3.29-1.03-4.94-4.11-21.38-17.88-21.38-28.78 0-7.398 5.14-10.686 10.28-13.77a49.289 49.289 0 0 0 19.52-21.787c4.32-8.427 2.27-16.443 1.03-21.787a15.007 15.007 0 0 1-.82-6.372c.1-.652.33-1.277.67-1.839a4.96 4.96 0 0 1 3.13-2.231 4.954 4.954 0 0 1 1.96-.041c1.27.155 2.43.8 3.24 1.797a4.94 4.94 0 0 1 1.07 3.547c.25.88.46 1.772.62 2.672 1.44 5.961 4.11 17.06-1.65 28.776a58.598 58.598 0 0 1-23.22 25.898c-4.73 2.877-5.55 3.697-5.55 5.137 0 1.44 9.25 14.18 17.47 20.76.55.4 1.01.91 1.35 1.5.34.59.56 1.24.63 1.92.08.67.02 1.36-.18 2.01-.2.65-.54 1.25-.98 1.77-.48.57-1.07 1.03-1.75 1.35-.67.32-1.41.49-2.15.5ZM1479.57 1115.23c6.26.04 12.52-.45 18.7-1.44 7.76-1.7 15.39-3.96 22.82-6.78 3.49-1.64 26.1-16.03 26.1-16.03a68.95 68.95 0 0 1-31.04 26.92c-20.96 9.05-36.17 9.87-36.17 9.87l-.41-12.54Z"/><path fill="#494752" d="M1479.98 1132.91c-1.27 0-2.51-.43-3.5-1.23a5.23 5.23 0 0 1-1.2-1.68c-.28-.64-.43-1.33-.44-2.02l-.41-12.54c-.04-.72.07-1.43.32-2.1.25-.67.63-1.29 1.12-1.81a5.969 5.969 0 0 1 3.7-1.44c5.91.06 11.82-.36 17.67-1.23 7.34-1.7 14.55-3.89 21.58-6.58 2.27-.82 14.8-8.63 25.49-15.62.99-.6 2.14-.86 3.29-.75 1.15.11 2.23.59 3.08 1.37.83.78 1.36 1.81 1.51 2.94.15 1.12-.09 2.26-.68 3.23a72.237 72.237 0 0 1-33.3 29.18c-21.58 9.25-37.41 10.28-38.03 10.28h-.2Zm4.93-12.74v1.85c4.19-.58 8.32-1.54 12.33-2.88-4.08.65-8.2.99-12.33 1.03ZM1571.65 1013.9c.88 4.57 2.83 8.88 5.69 12.55 2.85 3.68 6.54 6.64 10.75 8.62l3.29-6.16c-8.02-.62-15.21-3.91-19.73-15.01Z"/><path fill="#494752" d="m1588.09 1040.21-2.26-.62a34.857 34.857 0 0 1-12.58-10.04 35.01 35.01 0 0 1-6.74-14.62c-.25-1.28-.01-2.6.67-3.71a5.135 5.135 0 0 1 3.03-2.25c1.2-.41 2.51-.33 3.66.2 1.15.54 2.04 1.5 2.51 2.68 4.11 9.86 10.07 11.51 15.21 11.92.86.11 1.7.41 2.44.87.75.46 1.38 1.07 1.87 1.8.42.76.63 1.6.63 2.47 0 .86-.21 1.71-.63 2.46l-3.29 5.96c-.39.87-1.03 1.6-1.83 2.11-.81.51-1.74.78-2.69.77ZM1403.64 970.226c4.86-.451 8.17-7.689 7.38-16.166s-5.36-14.984-10.23-14.533c-4.86.45-8.16 7.688-7.37 16.166.78 8.477 5.36 14.984 10.22 14.533ZM1493.66 967.677c4.86-.451 8.16-7.689 7.37-16.166-.78-8.478-5.36-14.984-10.22-14.534-4.86.451-8.17 7.689-7.38 16.167.79 8.477 5.36 14.984 10.23 14.533Z"/><path fill="#494752" d="M1624.88 960.46c.62 84.68-49.74 97.02-49.74 97.02s21.58-54.06 0-82.221c-10.69-13.565-39.05-104.209-17.88-119.83 21.17-15.622 31.24-15.005 57.96 17.676 26.72 32.681 9.46 61.868 9.66 87.355Z"/><path fill="#494752" d="M1575.14 1062.61c-.75.05-1.5-.1-2.19-.42a4.56 4.56 0 0 1-1.71-1.43c-.6-.69-1.01-1.53-1.19-2.43-.18-.9-.13-1.83.16-2.7.2-.62 20.35-51.8.82-77.288-9.45-12.127-30.42-75.844-25.9-108.526 1.24-8.632 4.32-15.004 9.05-18.498 24.87-18.088 38.23-14.388 64.95 18.498 20.76 25.693 16.65 49.125 13.15 69.679-1.42 6.9-2.18 13.921-2.26 20.965.62 87.77-51.59 101.54-53.85 101.95l-1.03.2Zm3.91-211.909c-5.76 0-11.31 3.494-18.71 9.044-2.46 1.644-4.31 5.755-4.93 11.51-4.11 29.187 15.62 90.233 23.84 100.921 17.06 21.993 9.87 57.754 4.32 75.844 13.77-8.22 36.58-30.83 36.17-87.56.03-7.602.86-15.18 2.47-22.609 3.29-19.527 6.78-39.464-11.1-61.457-15.21-18.704-23.84-25.693-32.06-25.693Z"/><path fill="#494752" d="M1439.69 789.244h82.01a86.95 86.95 0 0 1 61.48 25.466 86.959 86.959 0 0 1 25.46 61.478 41.904 41.904 0 0 1-12.28 29.65 41.912 41.912 0 0 1-29.65 12.281h-172.03a41.929 41.929 0 0 1-41.93-41.931 86.959 86.959 0 0 1 25.46-61.478 86.95 86.95 0 0 1 61.48-25.466Z"/><path fill="#494752" d="M1566.72 923.257h-172.04a47.08 47.08 0 0 1-33.29-13.786 47.092 47.092 0 0 1-13.78-33.283 92.257 92.257 0 0 1 27.03-65.052 92.296 92.296 0 0 1 65.05-27.03h82.01a92.26 92.26 0 0 1 65.05 27.03 92.257 92.257 0 0 1 27.03 65.052c0 6.181-1.21 12.302-3.58 18.013a47.055 47.055 0 0 1-43.48 29.056Zm-127.03-128.874a81.996 81.996 0 0 0-57.78 24.02 81.992 81.992 0 0 0-24.02 57.785c0 9.758 3.87 19.116 10.77 26.016a36.797 36.797 0 0 0 26.02 10.776h172.04c4.83 0 9.61-.952 14.07-2.801a36.754 36.754 0 0 0 11.94-7.975 36.757 36.757 0 0 0 10.78-26.016 81.812 81.812 0 0 0-23.96-57.845 81.81 81.81 0 0 0-57.85-23.96h-82.01Z"/><path fill="#fff" d="M1575.14 975.259c9.05-15.826 25.28-24.459 39.06-19.732 13.77 4.728 21.58 26.104 13.77 46.043-7.81 19.94-26.72 31.65-42.14 26.1-3.2-1.16-6.13-2.98-8.57-5.36a23.891 23.891 0 0 1-5.61-8.41"/><path fill="#494752" d="M1593.64 1034.25a29.8 29.8 0 0 1-9.45-1.64 29.854 29.854 0 0 1-10.39-6.52 29.764 29.764 0 0 1-6.88-10.13c-.3-.62-.47-1.29-.5-1.98-.03-.68.09-1.37.34-2 .25-.64.63-1.22 1.12-1.7.49-.49 1.07-.86 1.71-1.11a5.13 5.13 0 0 1 3.95-.07c.63.25 1.2.62 1.69 1.09.49.47.88 1.03 1.14 1.66 1.02 2.49 2.52 4.76 4.43 6.67 1.91 1.91 4.18 3.41 6.67 4.42 12.95 4.53 28.78-5.96 35.56-23.427 3.91-9.866 4.11-20.554.41-28.365a18.243 18.243 0 0 0-4.37-6.569 18.208 18.208 0 0 0-6.73-4.119c-10.89-3.905-24.66 3.289-32.68 17.266-.3.615-.72 1.162-1.25 1.604a4.942 4.942 0 0 1-5.74.451 5.345 5.345 0 0 1-2.05-6.988c10.48-18.293 29.39-27.543 45.22-21.993a29.608 29.608 0 0 1 10.18 6.257 29.747 29.747 0 0 1 6.88 9.775c4.73 10.483 4.73 23.843-.21 36.588-7.4 18.5-23.63 30.83-39.05 30.83Z"/><path fill="#494752" d="M1589.32 1018.42a5.32 5.32 0 0 1-3.1-1.15c-.88-.7-1.53-1.66-1.83-2.75-.32-1.28-.14-2.64.52-3.78a5.106 5.106 0 0 1 2.98-2.39c13.36-3.9 18.91-13.153 17.26-29.186a4.866 4.866 0 0 1 .08-2.045 5.03 5.03 0 0 1 .9-1.836c.43-.543.97-.99 1.57-1.312a4.938 4.938 0 0 1 1.97-.562 5.129 5.129 0 0 1 3.69 1.136 5.103 5.103 0 0 1 1.86 3.386c2.88 26.719-11.71 36.589-24.46 40.289l-1.44.2Z"/><path fill="#fff" d="M1460.66 1076.18c12.71 0 23.02-6.53 23.02-14.59 0-8.06-10.31-14.6-23.02-14.6-12.72 0-23.03 6.54-23.03 14.6 0 8.06 10.31 14.59 23.03 14.59Z"/><path fill="#494752" d="M1460.66 1081.32c-15.83 0-28.37-8.63-28.37-19.73s12.54-19.53 28.37-19.53c15.82 0 28.15 8.63 28.15 19.53 0 10.89-12.33 19.73-28.15 19.73Zm0-28.98c-10.28 0-18.09 4.93-18.09 9.25 0 4.31 7.81 9.45 18.09 9.45 10.27 0 17.88-4.93 17.88-9.45 0-4.53-7.61-9.25-17.88-9.25ZM1454.49 927.163c77.99 0 141.21-33.865 141.21-75.64 0-41.774-63.22-75.639-141.21-75.639-77.99 0-141.21 33.865-141.21 75.639 0 41.775 63.22 75.64 141.21 75.64Z"/><path fill="#494752" d="M1454.49 932.301c-38.64 0-74.82-8.016-102.16-22.815-27.33-14.799-44.19-35.764-44.19-57.963 0-22.198 15.62-42.752 44.19-57.962 28.58-15.21 63.52-22.815 102.16-22.815 38.64 0 74.82 8.016 102.15 22.815 27.34 14.799 43.99 35.764 43.99 57.962 0 22.199-15.62 42.753-43.99 57.963-28.36 15.21-63.71 22.815-102.15 22.815Zm0-151.278c-75.02 0-136.07 31.653-136.07 70.5 0 38.848 61.05 70.501 136.07 70.501s135.86-31.653 135.86-70.501c0-38.847-60.84-70.5-135.86-70.5Z"/><path fill="#494752" d="M1398.17 913.391c52.33 0 94.76-36.165 94.76-80.778 0-44.612-42.43-80.777-94.76-80.777-52.33 0-94.75 36.165-94.75 80.777 0 44.613 42.42 80.778 94.75 80.778Z"/><path fill="#494752" d="M1398.17 918.53c-55.08 0-99.89-38.436-99.89-85.916 0-47.481 44.81-85.711 99.89-85.711 55.09 0 100.1 38.436 100.1 85.711 0 47.274-44.81 85.916-100.1 85.916Zm0-161.35c-49.33 0-89.61 33.914-89.61 75.434 0 41.519 40.28 75.639 89.61 75.639s89.82-33.915 89.82-75.639c0-41.725-40.28-75.434-89.82-75.434ZM1604.74 1029.11c-12.95-3.49-28.98 5.76-32.27-5.34l-.82-126-13.16-10.894 1.65 142.644c0 10.69-9.25 20.97-19.74 18.71-63.51-12.34-160.11-8.43-158.88 1.44 6.37 52.2 55.09 84.88 100.51 87.14 25.49 1.44 49.54-7.6 69.89-24.25l21.78-21.99c6.89-9.16 12.82-19.01 17.68-29.39l13.36-32.07Z"/><path fill="#494752" d="M1487.17 1142.16h-5.34c-46.04-2.26-98.46-35.35-105.45-91.67-.13-1.15.03-2.32.46-3.4a7.003 7.003 0 0 1 2.01-2.77c12.13-11.3 106.47-11.92 162.58-.82 1.42.24 2.88.17 4.27-.22a9.681 9.681 0 0 0 3.75-2.04 14.836 14.836 0 0 0 5.55-11.51l-1.65-142.648c0-.951.27-1.884.78-2.686a4.94 4.94 0 0 1 2.1-1.836 4.934 4.934 0 0 1 5.55.617l13.16 10.893a5.776 5.776 0 0 1 1.85 3.906l.82 125.174c.82 1.44 2.67 1.64 10.69.82 5.86-.95 11.84-.89 17.67.21.73.21 1.4.57 1.97 1.07.57.5 1.02 1.11 1.32 1.81.57 1.29.65 2.76.21 4.11l-13.36 32.27h-.21a167.47 167.47 0 0 1-18.09 30.21c0 .21-.2.41-.41.62l-21.99 21.99c0 .21-.21.21-.21.41-20.55 16.65-43.98 25.49-68.03 25.49Zm-100.3-91.06c7.19 49.54 54.26 78.52 95.57 80.58 23.23 1.43 46.04-6.58 65.98-22.82l21.38-21.58c6.54-8.8 12.19-18.24 16.85-28.16l10.69-25.69c-2.62 0-5.23.2-7.81.61-8.02.83-18.91 2.06-21.99-8.83-.19-.46-.26-.95-.21-1.44l-.82-123.533-2.88-2.261 1.65 131.344a25.922 25.922 0 0 1-9.25 19.73 19.79 19.79 0 0 1-7.83 4.07c-2.89.74-5.9.83-8.82.24-60.43-11.92-139.98-8.01-152.51-2.26Z"/><path fill="#fff" d="M1429.41 1048.64h60.23s-11.31 26.1-30.22 26.51c-18.91.41-30.01-26.51-30.01-26.51Z"/><path fill="#494752" d="M1459.01 1080.29c-21.79 0-33.91-28.57-34.32-29.8-.3-.77-.42-1.59-.35-2.41.07-.82.33-1.62.76-2.32.49-.69 1.13-1.26 1.88-1.65.75-.39 1.59-.6 2.43-.61h60.23c.82-.01 1.63.19 2.35.58.72.4 1.33.98 1.76 1.68.49.67.81 1.46.92 2.28a5 5 0 0 1-.31 2.45c-.61 1.23-12.74 29.18-34.73 29.8h-.62Zm-21.17-26.51c4.52 7.4 12.13 16.23 21.17 16.23h.41c9.66-.2 17.27-9.45 21.58-16.23h-43.16ZM2124.76 1753.64H106.139a5.128 5.128 0 0 1-5.139-5.13c0-1.37.541-2.67 1.505-3.64a5.15 5.15 0 0 1 3.634-1.5H2124.76a5.14 5.14 0 0 1 5.14 5.14 5.14 5.14 0 0 1-5.14 5.13Z"/><path fill="#fff" d="M877.33 2268.73 457.614 2033.8l399.984-80.37 420.122 154.98-400.39 160.32Z"/><path fill="#494752" d="M877.33 2273.87c-.862.01-1.712-.2-2.466-.62l-419.716-234.93a5.326 5.326 0 0 1-2.152-2.26 5.386 5.386 0 0 1-.52-3.09c.216-1 .718-1.93 1.448-2.66a5.377 5.377 0 0 1 2.663-1.45l400.189-80.57h2.672l420.122 155.19c1 .31 1.86.95 2.45 1.8.6.86.89 1.88.84 2.92a5.075 5.075 0 0 1-.92 2.87 5.12 5.12 0 0 1-2.37 1.86l-400.39 160.32-1.85.62Zm-405.122-237.81 405.533 226.92 385.799-154.37-406.353-149.84-384.979 77.29Z"/><path fill="#87BF2E" d="M829.234 2142.94c95.808 0 173.476-30.46 173.476-68.03 0-37.58-77.668-68.04-173.476-68.04-95.809 0-173.477 30.46-173.477 68.04 0 37.57 77.668 68.03 173.477 68.03Z"/><path fill="#87BF2E" d="M829.233 2148.08c-100.099 0-178.41-32.07-178.41-73.17 0-41.11 78.311-73.18 178.41-73.18 100.099 0 178.617 32.27 178.617 73.18 0 40.9-78.518 73.17-178.617 73.17Zm0-136.07c-91.055 0-168.133 28.78-168.133 62.9s77.078 62.89 168.133 62.89 168.338-28.77 168.338-62.89c0-34.12-77.078-62.9-168.338-62.9Z"/><path fill="#fff" d="M979.072 1804.62H697.069l268.437 48.3 13.566-48.3Z"/><path fill="#494752" d="M965.507 1858.06h-1.028l-268.232-48.51a5.12 5.12 0 0 1-2.86-2 5.166 5.166 0 0 1-.917-3.38 5.113 5.113 0 0 1 1.452-3.17c.84-.86 1.953-1.4 3.148-1.52h282.002c.804-.04 1.603.13 2.322.49a4.7 4.7 0 0 1 1.789 1.57c.494.63.827 1.37.97 2.15.143.79.092 1.6-.148 2.37l-13.565 48.3a5.141 5.141 0 0 1-4.933 3.7Zm-210.886-48.3 207.186 37.41 10.482-37.41H754.621Z"/><path fill="#fff" d="M412.6 1041.44s-26.515 78.93 39.053 118.6c65.568 39.67 194.236 12.33 223.423-56.73l110.582-312.421-7.194-4.111a145.526 145.526 0 0 0-188.687 38.436C510.438 930.451 516.398 1111.33 412.6 1041.44Z"/><path fill="#494752" d="M527.704 1183.47c-29.804 0-57.552-6.37-78.517-19.11-68.651-41.11-41.725-123.74-41.519-124.56a6.368 6.368 0 0 1 3.288-3.29c.758-.2 1.547-.25 2.323-.14.776.1 1.523.36 2.199.76 19.527 13.15 35.353 17.47 48.508 13.15 26.104-8.43 41.519-50.561 59.607-99.48 15.416-42.342 33.092-90.233 62.074-128.669a150.865 150.865 0 0 1 195.469-39.875l6.989 4.111a4.937 4.937 0 0 1 2.261 6.166L679.804 1104.96v.41c-12.332 29.18-43.369 53.85-84.683 67.41a220.782 220.782 0 0 1-67.417 10.69Zm-112.02-134.01a131.955 131.955 0 0 0-3.083 36.38c2.055 30.83 16.237 54.26 41.725 69.68 34.119 20.55 88.177 23.43 137.507 7.4 38.642-12.54 67.212-34.94 78.311-61.46l109.142-308.31-3.288-2.056a140.797 140.797 0 0 0-182.11 37.203c-28.159 37.203-45.424 84.478-60.84 125.997-18.704 51.386-35.148 95.786-65.979 105.856-14.799 4.73-31.653 1.23-51.385-10.69Z"/><path fill="#87BF2E" d="M735.139 807.972c18.14-18.141 21.849-43.844 8.284-57.41-13.565-13.565-39.268-9.856-57.409 8.285-18.141 18.14-21.85 43.844-8.285 57.409 13.566 13.565 39.269 9.856 57.41-8.284Z"/><path fill="#87BF2E" d="M698.92 829.325a33.712 33.712 0 0 1-24.87-9.661c-15.622-15.621-11.922-44.602 8.221-64.745 20.143-20.143 49.125-23.843 64.746-8.222 15.621 15.621 11.921 44.603-8.222 64.746-11.716 11.716-26.515 17.882-39.875 17.882Zm23.226-82.011c-10.688 0-22.815 5.138-32.681 15.004-16.032 16.033-19.732 38.642-8.221 50.152 11.51 11.511 34.119 7.811 50.152-8.221 16.032-16.032 19.937-38.642 8.427-50.358a24.868 24.868 0 0 0-17.677-6.577Z"/><path fill="#F56C49" d="M971.879 1748.51s77.691-430.82 21.582-487.55c-34.326-38.23-77.695-75.84-95.166-86.33-161.761-95.37-370.385-29.8-455.069 28.37-45.835 32.68-60.634 133.6-60.634 133.6l106.47 411.91h482.817Z"/><path fill="#F56C49" d="M976.195 1753.64H485.157l-107.704-416.83v-1.03c.617-4.32 15.827-103.39 62.896-137.1 39.258-26.92 112.636-60.02 200.814-72.55 68.034-9.66 168.338-9.66 259.804 44.19 18.088 10.69 62.073 49.12 96.399 87.15 24.254 24.87 28.154 115.31 11.514 269.05-12.336 113.67-31.657 221.78-31.863 222.81l-.822 4.31Zm-483.228-10.27h474.595c3.7-21.17 20.143-117.37 31.037-217.88 20.351-187.86 6.371-245.41-8.633-260.83h-.205c-33.709-37.41-76.667-75.02-94.138-85.3-88.794-52.41-186.632-52.21-253.022-42.75-86.532 12.13-158.266 44.6-196.497 70.71-40.903 29.39-56.524 118.59-58.168 129.08l105.031 406.97Z"/><path fill="#fff" d="m697.07 1109.27 40.697-156.62 92.905 17.06-29.804 162.38c41.931 10.69 45.014 16.85 45.014 16.85l-47.48 312.63-141.413-336.68s35.764-3.49 40.081-15.62Z"/><path fill="#494752" d="M798.402 1466.71a5.155 5.155 0 0 1-2.825-.84 5.121 5.121 0 0 1-1.902-2.24l-141.413-336.89a4.52 4.52 0 0 1 .206-4.52c.413-.69.982-1.27 1.66-1.7a5.275 5.275 0 0 1 2.245-.77c15.621-1.64 33.709-6.78 35.764-12.12l40.492-156.214a5.347 5.347 0 0 1 5.961-3.905l92.904 17.06a4.731 4.731 0 0 1 3.289 2.261 4.719 4.719 0 0 1 .822 3.7l-28.776 157.858c19.116 4.93 40.492 11.92 43.575 18.29.452.96.596 2.04.411 3.08l-47.274 312.63a5.13 5.13 0 0 1-4.522 4.32h-.617ZM664.184 1129l131.957 313.66L840.333 1151c-3.289-2.06-13.155-6.99-40.698-13.98a5.34 5.34 0 0 1-3.905-5.96l28.981-157.24-83.244-15.21-39.464 151.9v.41c-4.111 11.51-25.692 16.44-37.819 18.08Z"/><path fill="#fff" d="M746.4 1033.43c17.06 20.14 39.053 33.29 64.334 36.58 65.363 8.43 127.231-53.64 138.124-138.531 10.894-84.889-33.297-160.322-98.66-168.75-65.362-8.427-127.23 53.441-138.123 138.33-4.933 39.053 1.849 77.283 16.648 106.671"/><path fill="#494752" d="M822.656 1075.97c-4.111 0-8.427-.41-12.538-.82-25.693-3.29-49.125-16.65-67.623-38.23a5.15 5.15 0 0 1-1.255-3.75 5.194 5.194 0 0 1 1.768-3.55 5.196 5.196 0 0 1 3.755-1.25 5.17 5.17 0 0 1 3.542 1.77c16.854 19.73 38.025 31.86 61.046 34.74 30.009 3.9 60.223-7.82 85.3-32.69 25.076-24.87 41.93-61.453 47.069-101.328 10.688-81.805-31.654-154.978-94.138-162.994-30.009-3.905-60.224 7.605-85.095 32.681-24.87 25.076-42.135 61.251-47.274 101.332-4.727 36.175 1.233 73.995 16.238 103.589.588 1.24.681 2.65.26 3.95a5.318 5.318 0 0 1-2.521 3.04 5.335 5.335 0 0 1-3.944.26 5.338 5.338 0 0 1-3.045-2.52c-15.826-31.447-22.198-71.322-17.265-109.758 5.55-42.136 23.226-80.161 50.152-107.087 26.926-26.926 60.635-40.08 93.727-35.764 68.24 8.838 114.486 87.149 103.182 174.71-5.344 42.136-23.227 80.159-50.153 107.089-23.842 23.84-52.207 36.58-81.188 36.58Z"/><path fill="#494752" d="M861.297 980.398a4.937 4.937 0 0 1-4.728-3.289 5.141 5.141 0 0 1 3.083-6.577c6.783-2.467 24.871-11.1 28.16-21.171.411-3.083-.206-3.7-5.344-6.988-5.139-3.289-16.444-10.483-19.938-29.393-2.261-13.566 3.494-24.254 6.372-30.009l1.439-2.672c.076-.65.28-1.278.602-1.848a4.92 4.92 0 0 1 4.947-2.468 4.93 4.93 0 0 1 4.522 5.549 15.202 15.202 0 0 1-2.261 6.167c-2.672 4.933-7.194 13.36-5.344 23.637 2.467 14.182 9.249 18.498 15.005 22.198 5.755 3.7 11.921 7.605 10.071 17.882 0 .206-.205.411-.205.617-4.933 16.854-31.448 26.926-34.531 28.159l-1.85.206ZM810.734 1070.01a140.91 140.91 0 0 1-18.704-4.31 199.957 199.957 0 0 1-21.993-10.9c-3.289-2.46-23.638-21.37-23.638-21.37a70.936 70.936 0 0 0 26.926 33.71c19.732 12.95 34.942 16.44 34.942 16.44l2.467-13.57Z"/><path fill="#494752" d="M808.267 1088.72h-1.027c-.617-.21-16.444-3.7-36.792-17.06a78.717 78.717 0 0 1-28.982-36.38 5.558 5.558 0 0 1 .19-3.34 5.517 5.517 0 0 1 2.072-2.62 4.87 4.87 0 0 1 3.192-.78c1.121.11 2.171.6 2.974 1.39 9.66 9.05 21.17 19.32 23.226 20.76 6.622 4 13.566 7.44 20.76 10.28a97.412 97.412 0 0 0 17.676 4.11c.69.08 1.349.33 1.921.73.573.39 1.042.92 1.368 1.53.426.55.737 1.18.913 1.85.177.67.216 1.37.114 2.06l-2.466 13.36a4.985 4.985 0 0 1-.783 1.88 4.896 4.896 0 0 1-1.478 1.41c-.851.56-1.856.85-2.878.82Zm-24.048-20.97a117.455 117.455 0 0 0 20.143 9.25l.411-2.88a106.41 106.41 0 0 1-14.593-3.7l-5.961-2.67ZM734.478 947.306a31.45 31.45 0 0 1-20.348 19.937l-2.056-6.988c8.016.616 15.827-1.85 22.404-12.949Z"/><path fill="#494752" d="M714.129 972.382a4.736 4.736 0 0 1-2.261-.617 4.943 4.943 0 0 1-2.466-2.878l-2.261-7.194a4.926 4.926 0 0 1 .822-4.727 5.14 5.14 0 0 1 4.522-1.85c5.344.411 11.716-.411 17.471-10.482a5.547 5.547 0 0 1 6.783-2.056 5.344 5.344 0 0 1 2.672 6.372 36.803 36.803 0 0 1-23.638 23.226l-1.644.206Z"/><path fill="#fff" d="M737.356 905.581c-6.577-18.499-21.582-30.215-36.175-27.337-14.594 2.877-26.31 24.459-21.582 46.863 4.727 22.404 21.582 38.025 38.231 34.737a25.49 25.49 0 0 0 16.648-12.538"/><path fill="#494752" d="M713.307 965.393c-17.471 0-34.12-16.443-38.847-39.258a54.675 54.675 0 0 1 3.289-33.709c4.727-10.483 12.743-17.265 22.404-19.115 16.854-3.495 34.531 9.249 41.93 30.42a4.927 4.927 0 0 1-.097 3.965 4.935 4.935 0 0 1-2.986 2.612 5.139 5.139 0 0 1-6.577-3.083c-5.756-16.238-18.499-26.309-30.215-23.843-6.372 1.233-11.716 5.961-15.21 13.36a46.455 46.455 0 0 0-2.467 27.337c4.111 19.732 18.499 33.504 32.27 30.626a20.557 20.557 0 0 0 13.361-10.072 5.144 5.144 0 0 1 3.173-2.9 5.146 5.146 0 0 1 4.267.527c.631.39 1.17.913 1.579 1.532a5.127 5.127 0 0 1 .657 4.248 5.137 5.137 0 0 1-1.044 1.938 31.03 31.03 0 0 1-19.937 14.799 25.522 25.522 0 0 1-5.55.616Z"/><path fill="#fff" d="M918.026 763.552c-36.997-23.021-77.9-25.899-98.043-8.633-20.143-14.799-57.757-5.961-88.383 21.582-30.626 27.542-40.08 40.286-40.08 67.828 0 9.455 0 33.504 9.66 33.915l10.894-.411c11.099 8.016 19.732 23.431 25.281 41.108 7.4-13.771 22.815-38.436 37.82-52.208a128.663 128.663 0 0 0 23.021-16.443 122.102 122.102 0 0 0 23.637-28.981 131.956 131.956 0 0 0 38.025 35.353c19.115 11.921 48.713 16.238 71.528 18.499 18.088 1.849 19.116 31.858 19.116 31.858s18.498-26.103 21.17-58.373c2.672-32.27-11.921-58.991-53.646-85.094Z"/><path fill="#494752" d="M737.355 924.079h-.617a5.134 5.134 0 0 1-4.316-3.494c-5.344-17.265-13.155-30.42-21.993-37.614l-9.044.411h-.616c-14.388-.616-14.388-26.72-14.388-39.053 0-30.009 8.427-41.725 41.725-71.734 33.297-30.009 68.651-37.408 91.671-24.048 23.021-16.238 64.54-12.127 100.921 10.688 40.697 25.282 58.99 54.674 56.113 89.822-2.878 35.147-21.377 59.812-22.199 60.84a4.928 4.928 0 0 1-5.549 2.055 5.133 5.133 0 0 1-3.7-4.727c0-.206-1.233-25.487-14.593-26.926-21.788-2.261-53.236-6.577-73.584-19.321a136.664 136.664 0 0 1-34.942-30.625 130.523 130.523 0 0 1-20.555 23.637 135.228 135.228 0 0 1-23.637 17.06c-14.593 13.771-29.598 38.025-36.175 50.357a5.346 5.346 0 0 1-4.522 2.672Zm-25.281-51.385a3.893 3.893 0 0 1 2.877 1.028c11.099 7.81 18.499 20.965 23.432 33.092 8.221-13.771 20.76-32.27 33.092-43.78l1.028-.617a126.614 126.614 0 0 0 22.198-16.032 124.15 124.15 0 0 0 22.815-27.543 5.151 5.151 0 0 1 1.716-1.858 5.15 5.15 0 0 1 2.395-.814 5.55 5.55 0 0 1 4.522 2.261 126.61 126.61 0 0 0 36.586 33.914c18.499 11.511 48.303 15.622 69.062 17.677 12.744 1.439 18.704 12.538 21.376 22.199a119.623 119.623 0 0 0 13.361-43.986c2.466-31.037-14.183-57.346-51.386-80.367-34.325-21.376-72.967-25.282-91.671-9.044a5.345 5.345 0 0 1-6.372.206c-18.499-13.36-53.646-4.317-82.011 21.171-32.886 29.803-38.436 38.847-38.436 64.128 0 25.282 4.111 28.571 4.727 28.776l10.483-.411h.206ZM716.596 948.95a4.732 4.732 0 0 1-2.261-.617c-12.127-5.755-25.282-18.499-18.088-46.247a5.549 5.549 0 0 1 6.372-3.699 5.34 5.34 0 0 1 3.7 6.371c-4.522 17.266-.617 28.16 12.538 34.326a5.346 5.346 0 0 1-2.261 9.866Z"/><path fill="#494752" d="M838.595 891.43c1.66-9.044-.977-17.106-5.89-18.008-4.913-.902-10.241 5.699-11.901 14.743-1.66 9.044.977 17.106 5.89 18.008 4.913.901 10.241-5.699 11.901-14.743ZM915.998 907.347c1.66-9.044-.977-17.107-5.89-18.008-4.913-.902-10.241 5.699-11.9 14.743-1.66 9.043.977 17.106 5.889 18.007 4.913.902 10.241-5.698 11.901-14.742ZM841.153 1033.02a21.957 21.957 0 0 1-13.566-4.94 21.102 21.102 0 0 1-6.426-6.86 21.155 21.155 0 0 1-2.823-8.96c-.616-10.69 8.016-18.913 8.838-19.941a5.34 5.34 0 0 1 3.906-1.233 4.936 4.936 0 0 1 3.699 1.85c8.633 10.894 17.677 16.234 27.337 16.234h.412c.924 0 1.832.25 2.628.72a5.08 5.08 0 0 1 1.893 1.96c.484.81.721 1.75.685 2.7a4.939 4.939 0 0 1-.89 2.64c-.411.62-9.455 13.57-22.199 15.42l-3.494.41Zm-10.277-28.78a14.393 14.393 0 0 0-2.261 7.61c.217 1.65.811 3.24 1.738 4.63a10.9 10.9 0 0 0 3.606 3.38 11.695 11.695 0 0 0 4.241 2.29c1.557.46 3.193.59 4.803.38 3.383-.61 6.52-2.18 9.044-4.52a47.045 47.045 0 0 1-21.171-13.77Z"/><path fill="#fff" d="m1596.52 1427.66-509.54-7.2-127.845 455.28 509.335-31.25 128.05-416.83Z"/><path fill="#494752" d="M959.134 1880.87a5.906 5.906 0 0 1-4.111-1.85 4.93 4.93 0 0 1-1.024-2.25 4.932 4.932 0 0 1 .202-2.47l127.849-455.28c.32-1.1 1-2.06 1.93-2.73.93-.67 2.06-1.01 3.21-.97l509.33 7.2c.8-.04 1.6.13 2.32.49.72.36 1.33.9 1.79 1.56a4.928 4.928 0 0 1 .82 4.52l-128.05 416.84a5.334 5.334 0 0 1-1.8 2.58c-.84.66-1.86 1.05-2.93 1.12l-509.33 31.24h-.206Zm131.756-455.27-124.973 444.59 498.643-30.63 124.97-406.97-498.64-6.99Z"/><path fill="#fff" d="m697.069 1804.62 235.551 42.34 117.77-424.44 36.59-2.06-127.846 455.28-32.886-5.76-229.179-39.87v-25.49Z"/><path fill="#494752" d="M959.134 1880.87h-1.028l-261.86-45.63a5.112 5.112 0 0 1-3.113-1.76 5.152 5.152 0 0 1-1.203-3.37v-25.49c-.042-.76.105-1.51.428-2.19.323-.68.812-1.27 1.422-1.72a5.085 5.085 0 0 1 1.92-1.06c.71-.22 1.457-.27 2.191-.17l231.028 41.72 116.541-420.12c.33-1.02.95-1.92 1.8-2.58.84-.66 1.86-1.05 2.93-1.12l36.58-2.06c.83-.08 1.67.05 2.44.37.76.33 1.44.85 1.95 1.5.51.66.85 1.44.98 2.26.13.82.06 1.67-.23 2.45l-127.844 455.27a5.16 5.16 0 0 1-1.849 2.68 5.18 5.18 0 0 1-3.083 1.02Zm-256.927-55.08 253.227 43.98 124.766-443.76-25.7 1.44-116.948 420.95a5.338 5.338 0 0 1-2.289 2.96 5.378 5.378 0 0 1-3.672.74l-229.384-41.32v15.01ZM775.587 1121.4c-27.337 0-50.975-6.37-70.501-18.91a5.55 5.55 0 0 1-1.439-7.19 5.114 5.114 0 0 1 3.295-2.23c.67-.14 1.36-.14 2.029 0 .67.13 1.305.4 1.87.79 22.61 14.8 51.796 20.14 86.944 16.03a5.09 5.09 0 0 1 2.018.14c.656.18 1.27.49 1.806.92.535.42.982.94 1.313 1.53.332.6.542 1.25.618 1.93.086.68.037 1.36-.144 2.02a5.044 5.044 0 0 1-.913 1.8c-.42.54-.944.99-1.538 1.32a5.24 5.24 0 0 1-1.927.62 229.22 229.22 0 0 1-23.431 1.23Z"/><path fill="#494752" d="M766.749 1139.08a111.054 111.054 0 0 1-65.979-20.97 5.139 5.139 0 0 1-1.819-7.59c.435-.6.995-1.1 1.642-1.46a5.046 5.046 0 0 1 2.103-.65c.739-.06 1.482.05 2.179.3.696.25 1.329.66 1.856 1.18 24.459 17.47 52.413 22.81 85.299 16.44a4.901 4.901 0 0 1 2.018-.03c.668.13 1.301.4 1.861.78a4.978 4.978 0 0 1 2.082 3.36 5.145 5.145 0 0 1-.827 3.83 5.123 5.123 0 0 1-3.284 2.13 138.078 138.078 0 0 1-27.131 2.68Z"/><path fill="#F56C49" d="M648.768 1848.19c-11.715 7.2-91.465 31.45-103.798 42.14-16.854 15-44.397 83.45-54.468 98.04-75.434-54.67-169.983-196.7-181.493-268.64-17.677-111.61 73.583-383.13 73.583-383.13 54.469 25.49 164.845 50.56 221.985 56.32 0 0-85.916 242.74-73.173 287.96 10.483 36.79 88.794 129.29 117.364 167.31Z"/><path fill="#F56C49" d="m491.734 1995.57-4.11-3.09c-75.64-54.67-171.627-196.91-183.549-271.93-7.605-47.07 2.672-126.2 30.215-235.55 20.348-81.19 43.163-149.43 43.369-150.04l1.85-5.55 5.344 2.46c51.796 24.26 160.939 49.95 220.34 55.91l6.372.62-2.055 6.16c-23.843 67.01-83.245 249.12-73.173 284.88 8.016 28.16 59.196 92.91 93.11 135.66 9.455 11.72 17.471 21.99 23.432 29.8l3.494 4.53-4.727 3.08c-5.139 3.08-18.91 8.02-40.698 16.03-21.787 8.02-56.112 19.94-62.484 25.69-10.072 8.84-25.693 41.32-36.998 64.75-7.193 15-12.949 26.72-16.648 32.27l-3.084 4.32Zm-106.059-651.98c-12.538 38.64-87.355 274.81-71.528 375.32 11.099 70.09 102.976 206.98 174.915 261.86 3.495-5.96 8.017-15.62 13.155-26.11 12.949-27.13 27.748-57.75 39.464-68.03 7.399-6.58 31.859-15.62 65.773-27.95 12.744-4.53 26.104-9.25 33.504-12.34-5.345-7.19-12.127-15.41-19.527-24.87-36.381-46.04-86.327-109.14-94.96-139.15-5.55-19.73 5.139-74.82 31.859-163.82 16.032-53.64 33.298-104.2 39.258-121.26-59.196-6.79-159.294-30.63-211.913-53.65Z"/><path fill="#fff" d="M616.703 1796.4a5.357 5.357 0 0 1-2.288-.57 5.239 5.239 0 0 1-1.823-1.49c-8.838-11.71-20.76-25.69-33.298-40.49-25.076-29.6-48.919-57.55-52.824-71.53-9.866-35.15 19.732-127.64 39.258-188.69a682.531 682.531 0 0 0 7.4-23.02c26.926-86.53-98.249-256.92-99.482-258.77a5.135 5.135 0 0 1-.976-3.81 5.153 5.153 0 0 1 2.004-3.39c.539-.4 1.154-.7 1.807-.86a5.007 5.007 0 0 1 2.002-.11c.668.09 1.311.32 1.892.66.58.35 1.088.8 1.493 1.34 5.344 7.19 129.696 176.36 101.126 268.03-2.261 6.78-4.728 14.59-7.4 23.02-18.087 56.32-48.302 150.66-39.258 182.72 3.289 11.72 28.57 41.52 50.769 67.83 12.538 14.8 24.665 28.98 33.503 40.7a5.342 5.342 0 0 1-.822 7.4c-.918.61-1.982.97-3.083 1.03Z"/><path fill="#494752" d="m635.202 1900.81-.411.62a234.49 234.49 0 0 1-11.716 15.21 274.43 274.43 0 0 1-28.775 29.39 270.665 270.665 0 0 1-35.97 27.13c-30.831 19.32-57.963 26.31-67.829 15.21-9.866-11.1-2.261-29.6 13.566-52.62a261.26 261.26 0 0 1 40.903-45.42 290.68 290.68 0 0 1 36.586-27.34c30.626-19.11 57.552-25.9 67.212-14.8 9.66 11.1 2.466 29.6-13.566 52.62Z"/><path fill="#494752" d="M505.299 1998.85c-8.016 0-14.388-2.46-18.499-7.19-9.866-11.1-5.138-32.47 12.949-58.78a254.77 254.77 0 0 1 41.931-46.25 260.609 260.609 0 0 1 36.997-27.95c34.737-21.79 62.485-26.93 73.995-13.98 11.51 12.95 5.139 32.68-13.155 58.99-.205.2-.411.41-.411.62a360.401 360.401 0 0 1-11.921 15.62 310.693 310.693 0 0 1-29.392 30.01 291.81 291.81 0 0 1-36.792 27.54c-22.199 13.98-41.52 21.37-55.702 21.37Zm128.874-150.86c-10.688 0-27.748 5.34-49.946 19.32a258.289 258.289 0 0 0-35.764 26.92 246.81 246.81 0 0 0-40.081 44.4c-14.593 21.17-20.143 39.26-13.977 46.25 6.166 6.99 27.954 4.93 61.252-16.03a284.105 284.105 0 0 0 63.512-55.5 203.62 203.62 0 0 0 11.305-14.8l.411-.41c0-.05.021-.11.06-.15a.249.249 0 0 1 .145-.06c14.594-21.17 20.143-39.46 13.977-46.45-2.055-2.26-5.755-3.49-10.894-3.49Z"/><path fill="#fff" d="m636.025 1958.98 92.083 16.65a18.13 18.13 0 0 0 13.588-1.29 18.114 18.114 0 0 0 8.816-10.43l1.644-6.16c1.353-4.5.883-9.35-1.309-13.5a17.86 17.86 0 0 0-10.407-8.7l-123.736-40.9"/><path fill="#494752" d="M733.451 1981.59c-2.153.04-4.3-.24-6.372-.82l-92.082-16.65a5.164 5.164 0 0 1-3.284-2.13 5.154 5.154 0 0 1-.827-3.83 4.926 4.926 0 0 1 5.961-4.11l92.288 16.65h.617c3.216.96 6.682.61 9.646-.96a12.773 12.773 0 0 0 6.18-7.47l1.85-5.96a12.955 12.955 0 0 0-8.427-15.83l-123.942-40.9a5.26 5.26 0 0 1-1.777-.99c-.52-.45-.946-.99-1.252-1.61a5.12 5.12 0 0 1-.259-3.98 4.72 4.72 0 0 1 .926-1.75c.43-.52.963-.93 1.566-1.22.602-.3 1.259-.46 1.928-.47.669-.02 1.334.1 1.952.36l123.941 40.9c2.861.89 5.519 2.34 7.822 4.25a22.792 22.792 0 0 1 5.599 6.93 22.8 22.8 0 0 1 1.584 17.39l-1.85 5.96a22.833 22.833 0 0 1-8.213 11.72 22.821 22.821 0 0 1-13.575 4.52Z"/><path fill="#fff" d="m788.124 2024.55-2.878 4.31-1.644 1.65a11.516 11.516 0 0 1-13.361 1.44l-67.417-46.46-10.072 11.93-3.288 3.9-17.677 20.76 53.235 36.59a14.54 14.54 0 0 1 5.55 7.19 15.403 15.403 0 0 1-1.644 14.59l-3.083 4.32a11.086 11.086 0 0 1-6.794 4.45c-2.745.57-5.606.08-8.005-1.37 0 0-94.344-53.23-133.191-102.15 0 0-7.4-4.52-19.527-12.54-12.127-8.01-32.475-21.58-54.263-37.41a261.26 261.26 0 0 1 40.903-45.42 290.763 290.763 0 0 1 36.587-27.34c6.577 8.84 10.688 13.98 10.688 13.98s19.321 12.54 37.819 22.2l4.728 2.26 5.96 2.88c20.966 9.45 36.998 18.08 48.097 24.25 15.827 8.84 17.266 11.92 26.926 19.53l29.598 23.63 39.053 30.83a15.852 15.852 0 0 1 6.381 10.24c.694 4.12-.271 8.35-2.681 11.76Z"/><path fill="#494752" d="M716.802 2094.64c-2.989.01-5.917-.85-8.427-2.47-3.7-2.05-94.755-53.65-134.013-102.56l-18.91-12.13c-18.293-12.13-36.586-24.67-54.468-37.62a5.12 5.12 0 0 1-2.017-3.24c-.23-1.3.051-2.64.783-3.74a254.77 254.77 0 0 1 41.931-46.25 260.609 260.609 0 0 1 36.997-27.95 5.124 5.124 0 0 1 6.989 1.23l10.071 13.15c3.7 2.47 20.554 13.16 36.792 21.59l4.522 2.26 5.755 2.67c20.76 9.25 36.792 17.88 48.508 24.46 7.725 4 14.909 8.98 21.376 14.8l6.166 5.14 68.651 54.46a20.965 20.965 0 0 1 8.397 13.48 20.986 20.986 0 0 1-3.464 15.51l-3.083 4.31c-.64.98-1.4 1.88-2.261 2.67a16.395 16.395 0 0 1-9.457 4.16c-3.517.33-7.048-.48-10.069-2.31h-.206l-63.718-43.57-24.254 28.57 48.508 33.3a21.968 21.968 0 0 1 7.605 9.66c1.237 3.17 1.66 6.6 1.229 9.97a20.363 20.363 0 0 1-3.695 9.35l-3.083 4.31a15.795 15.795 0 0 1-5.736 5.03 15.941 15.941 0 0 1-7.419 1.76Zm-205.541-160.12c16.237 11.72 33.092 23.23 49.946 34.33l19.321 12.33 1.439 1.23c37.614 47.69 130.519 100.51 131.546 100.92.621.43 1.321.74 2.06.9.738.16 1.502.18 2.247.04a5.66 5.66 0 0 0 2.091-.82 5.78 5.78 0 0 0 1.618-1.56l3.083-4.31a10.487 10.487 0 0 0 1.234-9.87 11.331 11.331 0 0 0-3.7-4.93l-53.235-36.59a4.714 4.714 0 0 1-2.056-3.49 5.953 5.953 0 0 1 1.028-4.11l31.037-36.38a4.91 4.91 0 0 1 3.226-1.78 4.97 4.97 0 0 1 3.557.95l67.417 46.25a5.962 5.962 0 0 0 6.989-.82l.822-1.03 3.083-4.32a10.475 10.475 0 0 0 1.69-7.85 10.521 10.521 0 0 0-4.362-6.74h-.206l-68.65-54.47-6.578-5.75a91.03 91.03 0 0 0-19.526-13.57c-11.511-6.37-27.543-15-47.686-24.05l-6.166-2.87-4.727-2.47c-18.705-9.66-37.615-21.99-38.437-22.4l-1.233-1.24-7.81-10.28a281.877 281.877 0 0 0-31.859 24.46 258.09 258.09 0 0 0-37.203 40.29Z"/><path fill="#fff" d="m682.478 1996.39 82.627 58.78a10.924 10.924 0 0 0 8.021 1.45c2.76-.58 5.19-2.2 6.778-4.53l3.083-4.32a15.564 15.564 0 0 0 2.493-5.56c.457-2 .515-4.07.172-6.1a15.568 15.568 0 0 0-2.175-5.69 15.494 15.494 0 0 0-4.189-4.43l-78.928-56.94"/><path fill="#494752" d="M770.86 2061.96a18.015 18.015 0 0 1-8.427-2.26h-.206l-82.627-58.79a5.14 5.14 0 0 1-2.053-5.35c.15-.67.428-1.29.819-1.84.392-.56.888-1.03 1.462-1.39a5.101 5.101 0 0 1 1.88-.72c.668-.11 1.352-.1 2.013.05.661.15 1.286.43 1.839.82l82.422 58.58a5.735 5.735 0 0 0 4.237.75 5.725 5.725 0 0 0 3.574-2.39l3.083-4.32a9.658 9.658 0 0 0 1.644-7.81 9.79 9.79 0 0 0-1.396-3.96 9.886 9.886 0 0 0-2.92-3.03l-78.928-56.93a4.958 4.958 0 0 1-2.094-3.37 4.95 4.95 0 0 1 1.067-3.83c.366-.55.846-1.03 1.408-1.39a4.757 4.757 0 0 1 1.855-.69 4.707 4.707 0 0 1 3.725 1.06l78.928 56.93a20.58 20.58 0 0 1 5.661 5.81 20.612 20.612 0 0 1 2.972 7.55 22.197 22.197 0 0 1-3.495 15.62l-3.083 4.32a16.02 16.02 0 0 1-5.87 4.93 16.059 16.059 0 0 1-7.49 1.65Z"/><path fill="#fff" d="m656.989 2013.04 84.272 60.22a10.873 10.873 0 0 0 8.021 1.44 10.86 10.86 0 0 0 6.778-4.52l2.878-4.32a15.623 15.623 0 0 0 2.664-11.66 15.664 15.664 0 0 0-2.174-5.7 15.76 15.76 0 0 0-4.19-4.43l-80.572-60.01"/><path fill="#494752" d="M747.018 2080.04c-3.053.01-6.045-.85-8.633-2.46h-.206l-84.272-60.43a5.155 5.155 0 0 1-2.106-3.34 5.184 5.184 0 0 1 .873-3.86 5.177 5.177 0 0 1 7.194-1.23l84.066 60.22a5.787 5.787 0 0 0 4.237.76 5.78 5.78 0 0 0 3.574-2.4l3.083-4.32a10.682 10.682 0 0 0 1.707-7.95c-.5-2.77-2.074-5.23-4.379-6.85l-80.572-60.01a5.157 5.157 0 0 1-2.004-3.39 5.135 5.135 0 0 1 .976-3.81c.39-.55.885-1.03 1.459-1.39a5.1 5.1 0 0 1 1.881-.72c.669-.12 1.354-.1 2.015.05a5.02 5.02 0 0 1 1.839.83l80.572 60.22a20.97 20.97 0 0 1 8.398 13.48 20.956 20.956 0 0 1-3.465 15.5l-3.083 4.32a16.474 16.474 0 0 1-5.771 4.96 16.487 16.487 0 0 1-7.383 1.82Z"/><path fill="#fff" d="M933.237 1733.5c-1.363 0-2.67-.54-3.633-1.5a5.15 5.15 0 0 1-1.505-3.64v-367.3c0-42.96 36.586-102.36 38.23-104.83a5.151 5.151 0 0 1 3.16-2.24 5.136 5.136 0 0 1 3.829.6c.582.34 1.088.79 1.489 1.33s.687 1.15.841 1.81c.154.65.173 1.33.055 1.99-.118.67-.37 1.3-.741 1.86-.205.61-36.586 59.4-36.586 99.48v367.3c0 1.37-.542 2.67-1.505 3.64a5.15 5.15 0 0 1-3.634 1.5Z"/><path fill="#494752" d="M774.559 1202.79a221.3 221.3 0 0 1-98.454-23.43 5.13 5.13 0 0 1-2.503-2.93 5.141 5.141 0 0 1 .242-3.85 4.91 4.91 0 0 1 1.146-1.65 4.86 4.86 0 0 1 1.709-1.06 4.988 4.988 0 0 1 1.989-.29c.676.04 1.336.22 1.939.53 49.535 24.26 100.715 28.78 156.006 13.77a5.179 5.179 0 0 1 3.909.43c.592.33 1.114.76 1.537 1.29a5.146 5.146 0 0 1 .498 5.69 5.1 5.1 0 0 1-1.288 1.53 5.04 5.04 0 0 1-1.779.93 251.912 251.912 0 0 1-64.951 9.04ZM782.164 1280.69c-21.993 0-46.041-6.78-72.556-20.14a5.315 5.315 0 0 1-2.521-3.04 5.357 5.357 0 0 1 .26-3.95 5.336 5.336 0 0 1 3.044-2.52c1.3-.42 2.711-.33 3.944.26 44.808 22.82 82.011 25.08 113.665 6.78a5.178 5.178 0 0 1 1.918-.6 5.212 5.212 0 0 1 2.003.18c.649.19 1.255.51 1.781.93.526.43.963.95 1.286 1.55.674 1.17.858 2.57.512 3.87a5.154 5.154 0 0 1-2.362 3.12 100.678 100.678 0 0 1-50.974 13.56ZM784.424 1348.93a79.287 79.287 0 0 1-40.697-11.71 4.964 4.964 0 0 1-1.489-1.33 4.962 4.962 0 0 1-.841-1.81 4.917 4.917 0 0 1 .686-3.85 5.098 5.098 0 0 1 3.114-2.36c1.308-.35 2.7-.17 3.874.51 20.965 12.33 42.547 13.56 66.39 3.49.601-.3 1.259-.47 1.93-.49a4.71 4.71 0 0 1 4.647 3.17 5.1 5.1 0 0 1 .075 3.94 5.052 5.052 0 0 1-1.09 1.69c-.471.49-1.034.88-1.657 1.15a87.874 87.874 0 0 1-34.942 7.6ZM857.598 1572.97a24.69 24.69 0 0 1-13.646-4.25 24.69 24.69 0 0 1-8.994-11.11 24.661 24.661 0 0 1 5.477-26.81 24.707 24.707 0 0 1 12.632-6.7 24.73 24.73 0 0 1 14.222 1.44 24.667 24.667 0 0 1 11.037 9.09 24.656 24.656 0 0 1-3.154 31.19 24.618 24.618 0 0 1-8.072 5.34 24.742 24.742 0 0 1-9.502 1.81Zm0-39.05c-2.836.04-5.598.92-7.937 2.52a14.429 14.429 0 0 0-5.208 6.5 14.403 14.403 0 0 0-.735 8.3 14.36 14.36 0 0 0 3.984 7.31 14.41 14.41 0 0 0 7.369 3.88c2.786.54 5.668.24 8.285-.85a14.366 14.366 0 0 0 6.424-5.3 14.378 14.378 0 0 0 2.412-7.97c0-1.91-.379-3.8-1.115-5.56a14.485 14.485 0 0 0-3.172-4.69 14.337 14.337 0 0 0-4.738-3.1 14.353 14.353 0 0 0-5.569-1.04ZM730.161 1572.97a24.66 24.66 0 0 1-13.703-4.15 24.665 24.665 0 0 1 8.891-44.7c4.785-.95 9.744-.47 14.251 1.4a24.67 24.67 0 0 1 11.069 9.09 24.638 24.638 0 0 1 4.157 13.7 24.867 24.867 0 0 1-24.665 24.66Zm0-39.05c-2.846 0-5.627.84-7.993 2.43a14.362 14.362 0 0 0-5.3 6.45 14.398 14.398 0 0 0-.818 8.32 14.362 14.362 0 0 0 3.937 7.36 14.447 14.447 0 0 0 7.367 3.94c2.791.55 5.684.27 8.313-.82a14.371 14.371 0 0 0 6.457-5.3 14.376 14.376 0 0 0 2.425-7.99 14.4 14.4 0 0 0-4.214-10.18 14.419 14.419 0 0 0-10.174-4.21ZM854.926 1682.32a24.926 24.926 0 0 1-13.894-4.1 24.866 24.866 0 0 1-9.249-11.16 24.865 24.865 0 0 1 5.352-27.19 24.86 24.86 0 0 1 12.784-6.82 24.96 24.96 0 0 1 14.414 1.46 24.894 24.894 0 0 1 11.152 9.25 24.884 24.884 0 0 1 4.106 13.9 24.867 24.867 0 0 1-24.665 24.66Zm0-39.26a14.59 14.59 0 0 0-13.628 8.87 14.584 14.584 0 0 0 3.03 15.97 14.602 14.602 0 0 0 7.469 4.05c2.836.58 5.781.31 8.459-.79 2.679-1.1 4.97-2.97 6.583-5.38a14.573 14.573 0 0 0 2.475-8.12c0-3.84-1.509-7.52-4.202-10.25a14.626 14.626 0 0 0-10.186-4.35ZM727.283 1682.32a24.926 24.926 0 0 1-13.894-4.1 24.864 24.864 0 0 1-9.248-11.16 24.858 24.858 0 0 1 5.351-27.19 24.86 24.86 0 0 1 12.785-6.82 24.96 24.96 0 0 1 14.414 1.46 24.897 24.897 0 0 1 11.151 9.25 24.868 24.868 0 0 1 4.106 13.9 24.888 24.888 0 0 1-7.283 17.38 24.87 24.87 0 0 1-17.382 7.28Zm0-39.26a14.61 14.61 0 0 0-6.092.57 14.478 14.478 0 0 0-5.325 3.01 14.593 14.593 0 0 0-4.905 10.91c0 2.07.437 4.1 1.282 5.99.846 1.88 2.08 3.56 3.623 4.93a14.621 14.621 0 0 0 5.325 3.01c1.968.62 4.044.81 6.092.56a14.58 14.58 0 0 0 9.185-4.8c2.37-2.67 3.68-6.12 3.68-9.69 0-3.57-1.31-7.01-3.68-9.69a14.628 14.628 0 0 0-9.185-4.8ZM996.338 2167.6c-70.706 0-124.147-20.96-124.147-48.91 0-27.96 53.441-48.92 124.147-48.92 70.702 0 124.352 21.17 124.352 48.92 0 27.74-53.44 48.91-124.352 48.91Zm0-87.56c-31.242 0-60.429 4.53-82.422 12.54-21.993 8.02-31.448 17.06-31.448 26.11 0 18.29 46.658 38.64 113.87 38.64 31.242 0 60.632-4.32 82.422-12.34 21.79-8.01 31.65-17.06 31.65-26.3 0-18.3-46.86-38.65-114.072-38.65Z"/><path fill="#F56C49" d="M889.456 2215.7c24.179 0 43.78-8.83 43.78-19.73s-19.601-19.73-43.78-19.73c-24.179 0-43.78 8.83-43.78 19.73s19.601 19.73 43.78 19.73Z"/><path fill="#F56C49" d="M889.663 2221.05c-27.954 0-48.919-10.69-48.919-25.08 0-14.39 20.965-24.87 48.919-24.87 27.954 0 48.713 10.69 48.713 24.87 0 14.18-20.965 25.08-48.713 25.08Zm0-39.67c-23.637 0-38.642 8.63-38.642 14.59 0 5.96 15.005 14.8 38.642 14.8s38.436-8.63 38.436-14.8-15.004-14.59-38.436-14.59Z"/><path fill="#494752" d="M458.847 1926.09c-2.405.02-4.787-.47-6.989-1.44a30.56 30.56 0 0 1-13.565-10.68c-8.222-11.31-8.222-24.67-.206-30.42 4.111-3.09 9.661-3.5 15.416-1.24a31.22 31.22 0 0 1 13.36 10.69 30.035 30.035 0 0 1 6.166 16.24c.338 2.66-.013 5.36-1.021 7.84a15.573 15.573 0 0 1-4.734 6.34 13.784 13.784 0 0 1-8.427 2.67Zm-12.333-34.94a4.282 4.282 0 0 0-2.466.62c-2.878 2.05-2.261 9.45 2.672 16.03a19.941 19.941 0 0 0 8.838 7.4c.865.42 1.814.64 2.775.64.961 0 1.91-.22 2.775-.64a5.744 5.744 0 0 0 1.644-5.34 20.308 20.308 0 0 0-4.111-10.69 21.133 21.133 0 0 0-8.838-7.4l-3.289-.62ZM383.414 1823.12c-2.403 0-4.781-.49-6.988-1.44a31.222 31.222 0 0 1-13.361-10.69c-8.221-11.3-8.427-24.66-.411-30.42 8.016-5.76 20.76-1.64 28.982 9.46a29.978 29.978 0 0 1 6.166 16.03c.411 6.16-1.644 11.51-5.961 14.39a12.985 12.985 0 0 1-8.427 2.67Zm-12.127-34.94a4.272 4.272 0 0 0-2.466.61c-2.878 2.06-2.261 9.46 2.466 16.03a21.139 21.139 0 0 0 8.838 7.4c.901.43 1.883.64 2.878.64.994 0 1.977-.21 2.877-.64a6.378 6.378 0 0 0 1.489-2.57c.286-.97.339-1.99.156-2.98a20.351 20.351 0 0 0-4.111-10.48c-3.905-5.34-8.838-8.01-12.127-8.01ZM1350.42 1577.43c6.48-35.28-9-67.68-34.57-72.38-25.57-4.69-51.54 20.11-58.02 55.39-6.47 35.28 9 67.69 34.57 72.38 25.57 4.69 51.55-20.1 58.02-55.39Z"/><path fill="#494752" d="M1297.87 1637.51c-2.36.03-4.71-.24-6.99-.82-13.98-2.47-25.69-12.33-33.09-27.34-7.4-15-8.84-32.68-5.55-50.76 3.29-18.09 11.51-34.33 23.22-45.43 11.72-11.1 26.52-16.65 40.7-14.18 28.16 5.14 45.43 40.28 38.64 78.31-6.37 34.74-31.03 60.22-56.93 60.22Zm11.1-128.87c-9.05 0-18.3 4.11-26.31 11.92-8.02 7.81-17.47 23.84-20.35 39.88-2.88 16.03-1.23 31.65 4.93 44.39 6.17 12.75 14.8 19.94 25.49 21.79 22.61 4.11 46.04-18.7 51.8-51.18 5.96-32.48-7.61-62.07-30.22-66.39l-5.34-.41Z"/><path fill="#fff" d="M2266.99 1153.2c15.08-1.93 24.79-23.21 21.67-47.53-3.11-24.32-17.87-42.47-32.96-40.54-15.08 1.93-24.79 23.22-21.67 47.54 3.11 24.32 17.87 42.47 32.96 40.53Z"/><path fill="#494752" d="M2265.35 1156.55c-8.02 0-16.03-4.32-22.61-12.34-6.58-8.01-11.51-20.14-13.15-32.88-3.7-27.55 7.81-50.98 26.1-53.24 18.29-2.26 35.35 17.47 38.85 45.02 3.49 27.54-8.02 50.97-26.31 53.23l-2.88.21Zm-6.78-88.39h-1.65c-12.12 1.44-19.94 20.56-17.26 41.73a56.596 56.596 0 0 0 10.89 27.54c5.14 6.17 10.89 9.25 16.44 8.63 12.13-1.64 19.94-20.76 17.27-41.93-2.67-21.17-14.18-35.97-25.69-35.97Z"/><path fill="#fff" d="M2268.02 1065.08c1.03 4.11-.41 31.04-1.23 51.59-1.65 38.03-26.52 39.67-24.87 51.8 1.64 12.12 42.96 25.69 42.96 25.69"/><path fill="#494752" d="m2284.88 1199.3-1.65-.41c-10.48-3.29-44.6-15.62-46.45-29.81-1.03-7.19 3.7-11.71 8.43-16.03 4.73-4.31 15.41-15 16.44-36.58v-7.2c.82-15.82 1.85-39.46 1.23-42.96-.31-1.3-.1-2.68.6-3.83.69-1.16 1.8-1.99 3.1-2.33a4.83 4.83 0 0 1 2-.15c.67.09 1.31.32 1.89.66a4.939 4.939 0 0 1 2.28 3.19c1.03 3.7.62 16.65-.82 45.83v7.2c-1.24 25.69-12.33 36.38-19.73 43.57-3.91 3.7-5.55 5.55-5.35 7.4.21 1.85 19.53 14.8 39.67 21.38 1.27.42 2.33 1.32 2.94 2.52.62 1.19.74 2.57.35 3.85-.34 1.05-1 1.97-1.88 2.63-.88.67-1.95 1.04-3.05 1.07Z"/><path fill="#fff" d="m2597.3 1368.25-64.54-213.76-116.54 21.38 23.02 208.01c25.9 29.8 163.4-.42 158.06-15.63Z"/><path fill="#494752" d="M2487.75 1401.55c-20.35 0-42.35-2.88-52.42-14.39a7.06 7.06 0 0 1-1.23-2.87l-23.02-208.01a4.93 4.93 0 0 1 .92-3.62 4.94 4.94 0 0 1 3.19-1.93l116.54-21.38c1.27-.2 2.58.06 3.67.74 1.1.68 1.91 1.73 2.29 2.96l64.34 213.77c1.64 4.72-1.03 9.24-8.02 13.36-14.39 8.22-47.89 16.64-79.75 19.93-8.81.96-17.66 1.44-26.51 1.44Zm-43.58-19.94c9.25 8.64 33.91 11.72 67.21 8.64 42.75-4.32 75.85-16.04 80.57-21.38l-62.89-208.42-107.29 19.53 22.4 201.63Z"/><path fill="#fff" d="M2441.09 1301.66c-82.01 10.48-159.71-67.21-173.27-173.68-13.57-106.47 41.72-201.229 123.73-211.711 82.01-10.483 159.5 67.212 173.27 173.681 6.17 48.71-2.26 96.81-20.96 133.81"/><path fill="#494752" d="M2426.08 1307.83c-35.97 0-71.32-15.83-100.92-45.43-33.5-33.71-55.7-81.19-62.48-133.81-6.79-52.62 2.67-104 26.72-145.109 24.05-41.108 60.22-67.007 101.54-72.351 84.47-10.893 164.84 69.062 178.82 178 6.16 47.89-1.65 97.84-21.38 136.89a5.239 5.239 0 0 1-3.03 2.58c-.65.21-1.33.29-2.01.23-.68-.05-1.34-.24-1.95-.55a5.239 5.239 0 0 1-2.58-3.03c-.21-.64-.29-1.33-.23-2.01.05-.68.24-1.34.55-1.95 18.91-37.2 26.31-84.89 20.55-130.72-13.36-103.595-88.38-179.44-167.51-169.368-38.03 4.933-71.32 28.981-93.93 67.623-22.61 38.645-31.86 88.175-25.29 138.535 6.58 50.36 27.55 95.78 59.41 127.64 31.85 31.86 69.88 46.45 108.11 41.52 1.36-.16 2.74.22 3.81 1.07 1.08.85 1.78 2.09 1.95 3.45.16 1.36-.23 2.74-1.07 3.82a5.201 5.201 0 0 1-3.46 1.94c-5.18.64-10.39.98-15.62 1.03Z"/><path fill="#87BF2E" d="M2506.86 886.876c200.81 140.594 70.29 314.684 45.84 333.594-14.8 11.51-17.48 10.89-32.69 18.5-19.93 9.86-72.35-93.11-82.01-104.01-15.21-17.06-129.49-65.56-129.49-65.56s-39.46-15.01-42.75-55.5c-3.29-40.491 89.2-199.58 241.1-127.024Z"/><path fill="#87BF2E" d="M2516.93 1244.72c-15.62 0-36.17-29.18-68.65-83.65-6.37-10.9-11.92-20.14-14.18-22.61-11.72-13.36-95.99-50.98-127.44-64.34-2.87-1.02-42.54-17.06-46.04-59.81-2.05-25.074 29.19-86.531 80.99-122.295 35.14-24.254 92.69-45.63 167.31-9.661l.82.412c72.97 50.974 110.58 111.608 112.22 180.054 2.06 82.63-50.97 150.04-66.18 161.76a102.34 102.34 0 0 1-23.23 14.18l-10.27 4.73c-1.67.82-3.5 1.24-5.35 1.23Zm-85.91-371.204c-35.15 0-63.31 12.949-83.66 26.926-50.36 34.942-78.11 92.905-76.46 113.048 3.08 37 39.05 50.97 39.46 51.18h.21c11.71 4.93 115.72 49.54 131.13 67.01 2.88 2.87 7.2 10.27 15.42 24.04 8.22 13.78 23.02 38.44 35.35 55.09 19.12 26.1 25.08 23.43 25.28 23.43l10.49-4.93a84.052 84.052 0 0 0 21.17-12.75c14.39-11.09 64.13-74.81 62.28-153.53-1.44-64.956-37.62-122.713-107.5-171.632-26.93-12.743-51.39-17.882-73.17-17.882Z"/><path fill="#494752" d="M2893.69 2268.73s-31.24-508.71-47.28-597.1c-16.03-88.38-8.83-178-130.31-275.63-68.44-49.12-366.48-63.92-431.43 101.95-16.65 28.16-29.6 67.01-32.48 123.74-.41 8.01-34.94 647.04-34.94 647.04h676.44Z"/><path fill="#494752" d="M2893.69 2273.87h-676.44c-.69-.01-1.38-.16-2.02-.44a5.26 5.26 0 0 1-1.68-1.21c-.93-1-1.45-2.32-1.44-3.7.41-6.37 34.53-639.23 34.95-647.04 2.67-51.38 13.36-92.49 32.88-125.79 22.41-56.52 73.59-98.04 148.61-120.24 106.47-31.66 243.77-17.06 290.63 16.44a.204.204 0 0 1 .21.21c104.41 83.86 115.31 162.37 126 238.22 1.85 13.36 3.7 27.13 6.16 40.49 15.83 87.56 46.87 592.58 47.28 597.51.03.71-.08 1.43-.33 2.1-.24.67-.62 1.28-1.11 1.8-.48.52-1.05.92-1.68 1.21-.64.28-1.33.43-2.02.44Zm-671.09-10.28h665.54c-3.5-55.08-31.86-508.92-46.66-590.93-2.47-13.56-4.32-27.54-6.37-40.9-10.28-74-20.97-150.25-122.09-231.65-39.88-28.36-169.16-48.09-281.59-14.8-50.16 14.8-115.52 46.87-142.03 114.7l-.41.61c-18.71 31.86-29.19 71.53-31.66 121.27-.41 7.61-31.24 579.63-34.73 641.7Z"/><path fill="#fff" d="m1999.17 1467.33-41.93 90.64a10.092 10.092 0 0 0-1.36 7.31c.5 2.52 1.94 4.76 4.03 6.25l3.91 2.68c1.52 1.09 3.24 1.86 5.06 2.28 1.82.42 3.7.46 5.54.14 1.84-.33 3.6-1.02 5.17-2.04 1.56-1.01 2.91-2.33 3.96-3.88l48.51-87.35"/><path fill="#494752" d="M1972.04 1582.02c-3.97 0-7.84-1.22-11.1-3.5l-4.11-2.87c-3.06-2.2-5.2-5.46-5.99-9.14-.8-3.69-.2-7.53 1.68-10.8l42.13-90.65a5.134 5.134 0 0 1 2.89-2.62 5.12 5.12 0 0 1 3.9.16c1.22.58 2.16 1.61 2.62 2.88.46 1.27.4 2.67-.16 3.9l-42.13 90.85c0 .21-.21.41-.21.62a4.27 4.27 0 0 0-.71 1.65c-.13.59-.14 1.2-.02 1.79.11.6.35 1.16.68 1.66.34.51.78.94 1.28 1.27l3.91 2.88a9.258 9.258 0 0 0 12.54-2.06l48.3-87.15c.3-.62.73-1.16 1.25-1.6.52-.45 1.13-.77 1.79-.97.66-.19 1.35-.25 2.03-.16.68.09 1.33.32 1.92.68.6.31 1.12.75 1.54 1.29a4.863 4.863 0 0 1 1.01 3.81c-.1.67-.34 1.31-.7 1.88l-48.3 87.56c-.12.11-.2.26-.21.42-3 4.14-7.5 6.94-12.54 7.81l-3.29.41Z"/><path fill="#fff" d="m2049.53 1475.55-31.04 95.16a9.923 9.923 0 0 0-.44 7.34 9.851 9.851 0 0 0 4.76 5.61l4.11 2.26c1.65.9 3.45 1.47 5.32 1.67 1.86.19 3.75.02 5.54-.51 1.8-.54 3.47-1.43 4.92-2.61a14.11 14.11 0 0 0 3.54-4.3l37.82-92.5"/><path fill="#494752" d="M2033.71 1592.71c-3.23.03-6.41-.74-9.25-2.27l-4.12-2.26a14.851 14.851 0 0 1-7.15-8.34 14.8 14.8 0 0 1 .58-10.98l30.83-94.96c.21-.65.56-1.24 1-1.76.45-.52 1-.94 1.61-1.24.61-.31 1.27-.49 1.95-.54.68-.05 1.37.04 2.02.25a5.223 5.223 0 0 1 3.54 4.57c.05.68-.04 1.36-.26 2.01l-31.03 94.96c-.08.08-.13.18-.17.29-.03.1-.05.22-.04.33-.28.55-.45 1.15-.5 1.77-.06.62.02 1.25.21 1.84.19.59.49 1.14.9 1.61.4.48.89.87 1.45 1.15l4.11 2.26a9.065 9.065 0 0 0 6.77.72 9.068 9.068 0 0 0 5.36-4.21l37.61-92.29a5.215 5.215 0 0 1 2.8-2.85 5.215 5.215 0 0 1 6.83 2.77c.54 1.27.55 2.7.03 3.98l-37.82 92.7c0 .21-.2.21-.2.41a19.117 19.117 0 0 1-7.13 7.42c-3.01 1.78-6.44 2.7-9.93 2.66Z"/><path fill="#fff" d="m2031.65 1475.34-34.12 94.14a10.04 10.04 0 0 0-.63 7.34c.72 2.45 2.34 4.52 4.53 5.81l4.12 2.47a14.37 14.37 0 0 0 10.81 1.43 14.39 14.39 0 0 0 8.71-6.57l48.92-100.51"/><path fill="#494752" d="M2012.74 1592.09c-3.41.04-6.76-.89-9.66-2.67l-4.32-2.26a15.187 15.187 0 0 1-6.83-8.71 15.21 15.21 0 0 1 .87-11.03l33.92-93.72a5.106 5.106 0 0 1 2.66-2.8c1.22-.55 2.61-.61 3.86-.15 1.26.45 2.29 1.38 2.88 2.58.58 1.21.68 2.59.26 3.86l-33.92 94.14c-.2.2-.2.41-.41.41a5.146 5.146 0 0 0 1.85 6.37l4.32 2.47a9.259 9.259 0 0 0 12.33-3.08l48.71-100.31a5.36 5.36 0 0 1 3.05-2.52c1.3-.42 2.71-.33 3.94.26 1.18.62 2.08 1.67 2.5 2.93a5.09 5.09 0 0 1-.24 3.85l-48.92 100.51h-.2a19.34 19.34 0 0 1-7 7.17 19.41 19.41 0 0 1-9.65 2.7Z"/><path fill="#fff" d="M2037.4 1438.34a262.144 262.144 0 0 0-32.27 10.9c-14.18 6.37-71.93 45.83-71.93 45.83a9.864 9.864 0 0 0-5.16 5.33 9.87 9.87 0 0 0 .02 7.42l1.64 4.31c1.42 3.5 4.15 6.29 7.61 7.79s7.37 1.58 10.89.23l88.38-46.66"/><path fill="#494752" d="M1943.06 1526.32c-2.7.06-5.37-.5-7.81-1.65-2.32-.98-4.42-2.42-6.18-4.21-1.77-1.8-3.16-3.93-4.1-6.27l-1.64-4.52a15.003 15.003 0 0 1-.16-10.97c1.34-3.55 3.96-6.46 7.35-8.15 5.14-3.49 58.38-39.67 72.56-45.83a231.31 231.31 0 0 1 32.89-11.31 5.3 5.3 0 0 1 2.02-.13c.68.09 1.34.32 1.93.66.59.34 1.11.8 1.52 1.35.42.54.72 1.16.9 1.82.17.66.22 1.35.13 2.03-.1.68-.32 1.33-.66 1.92-.35.59-.8 1.11-1.35 1.53-.54.41-1.16.72-1.82.89a229.228 229.228 0 0 0-31.45 10.48c-13.57 6.17-70.71 45.02-71.12 45.22l-.82.41a5.387 5.387 0 0 0-2.47 6.38l1.85 4.31c.38 1.12 1 2.15 1.82 3 .81.85 1.81 1.51 2.91 1.94 1.06.49 2.21.76 3.37.79 1.17.04 2.33-.16 3.41-.59l88.18-46.45a4.988 4.988 0 0 1 3.83-.41c.63.19 1.22.51 1.73.93.5.43.92.95 1.22 1.53.33.6.53 1.25.61 1.92.07.68.01 1.36-.18 2.01-.19.65-.51 1.25-.94 1.78-.42.52-.95.96-1.54 1.28l-88.38 46.66h-.62c-2.19 1.04-4.57 1.6-6.99 1.65Z"/><path fill="#fff" d="M1543.28 1760.22c.21 0 31.66-68.44 31.66-68.65 0-.21 9.86-25.69 15.62-37.2 5.75-11.51 6.16-13.77 15.41-10.9 9.25 2.88 6.58 34.74 4.94 41.32l-15.01 81.39"/><path fill="#494752" d="M1595.9 1771.32h-.82c-.67-.1-1.32-.33-1.9-.69-.58-.36-1.07-.83-1.46-1.39-.38-.56-.65-1.19-.78-1.86a4.91 4.91 0 0 1 .03-2.02l14.8-81.39a.62.62 0 0 1 .2-.42c2.26-8.63 2.26-32.47-1.64-34.94-3.91-2.46-5.14-1.64-9.05 8.02h-.2c-5.55 10.89-14.39 34.12-15.21 36.38l-25.49 55.7c-3.49 7.61-5.96 13.16-6.37 13.57a5.156 5.156 0 0 1-2.75 2.26 5.135 5.135 0 0 1-6.22-2.44 5.07 5.07 0 0 1-.48-3.52c0-.21 0-.21 6.57-14.19 8.22-18.29 23.64-51.59 25.08-54.67 1.44-3.08 10.07-26.51 15.62-37.61 5.55-11.1 7.61-18.09 21.79-13.57s9.45 42.14 8.22 47.28l-14.8 81.18c-.23 1.2-.87 2.28-1.81 3.07-.93.78-2.11 1.23-3.33 1.25Z"/><path fill="#fff" d="M1533.42 1738.64c0-.21 3.08-45.43 3.08-45.84 0-.41 1.44-27.33 3.5-40.08 2.05-12.74 1.85-15 11.51-15s16.85 31.04 17.06 37.82l10.68 82.01"/><path fill="#494752" d="M1579.25 1762.69c-1.26.01-2.48-.45-3.43-1.28a5.133 5.133 0 0 1-1.7-3.24l-10.49-82.01a.62.62 0 0 0-.2-.42c-.21-8.83-7.61-31.65-11.92-32.88-4.32-1.24-5.35 0-6.38 10.27v.42c-2.05 12.53-3.49 37.4-3.49 39.25 0 1.85 0 .41-2.67 39.26-.21 3.91-.41 6.58-.41 6.79-.03.67-.19 1.33-.47 1.95-.29.61-.69 1.16-1.18 1.62-.5.46-1.08.81-1.72 1.05-.63.23-1.3.34-1.98.31-.67-.03-1.34-.19-1.95-.47-.61-.28-1.16-.69-1.62-1.18-.46-.5-.81-1.08-1.05-1.71a5.19 5.19 0 0 1-.31-1.99l.62-6.98c.61-11.1 2.46-36.59 2.46-38.65 0-2.05 1.65-28.36 3.7-40.69 2.06-12.34 1.65-19.53 16.45-19.53 15.62 0 21.78 37 22.19 42.55l10.49 81.8c.11.67.09 1.35-.06 2-.16.66-.45 1.28-.86 1.81-.4.54-.91.99-1.5 1.33-.58.33-1.23.54-1.9.62h-.62Z"/><path fill="#fff" d="m2019.93 1506.79-501.11 215.61-111.4-473.36 510.36-54.88 102.15 312.63Z"/><path fill="#494752" d="m1518.82 1727.54-2.46-.41a6.327 6.327 0 0 1-2.67-3.49l-111.41-473.37c-.25-1.42.04-2.89.82-4.11a5.617 5.617 0 0 1 3.7-2.26l510.36-54.88a4.938 4.938 0 0 1 5.35 3.5l102.36 312.62c.41 1.23.34 2.57-.19 3.76a5.21 5.21 0 0 1-2.69 2.62l-501.11 215.61c-.64.31-1.35.45-2.06.41Zm-105.23-473.98 108.73 461.85 491.24-211.5-99.48-304.2-500.49 53.85Z"/><path fill="#87BF2E" d="m1827.34 1458.28-281.8 135.25-12.12-309.55 249.73 89.21 44.19 85.09Z"/><path fill="#87BF2E" d="m1540.61 1601.54-12.54-324.96 258.78 92.29 47.48 91.67-293.72 141Zm-1.64-310.16 11.3 294.13 270.08-129.49-40.69-78.72-240.69-85.92Z"/><path fill="#494752" d="M1832.89 1548.72a6.144 6.144 0 0 1-3.29-1.03l-134.83-106.67a4.727 4.727 0 0 1-1.44-5.97l83.86-188.07c.27-.65.69-1.23 1.22-1.7.54-.46 1.18-.79 1.86-.97.66-.3 1.39-.42 2.11-.35.73.08 1.42.34 2 .76l120.86 73.18c.94.59 1.66 1.47 2.03 2.52.37 1.04.38 2.18.03 3.23l-69.48 221.58c-.29.77-.76 1.47-1.37 2.04-.6.57-1.33.99-2.12 1.24l-1.44.21Zm-128.67-113.25 126 99.48 66.18-210.48-112.22-68.03-79.96 179.03Z"/><path fill="#fff" d="M2217.25 1657.66s-133.19-48.72-170.6-78.73c-5.34-4.31-9.04-10.68-13.15-16.64-2.95-4.11-5.7-8.37-8.22-12.75-4.43-7.64-8.41-15.53-11.92-23.64-.62-1.64-1.44-3.08-2.06-4.72h-.2l-12.34-9.66-13.77-10.69-.82-.62-10.89-8.43-9.46-7.6c-2.19-1.63-3.9-3.84-4.93-6.37a15.96 15.96 0 0 1-1.3-8.37c.32-2.86 1.41-5.58 3.15-7.87l3.49-4.52c1.29-1.68 2.9-3.1 4.74-4.15a16 16 0 0 1 5.97-2.01 16.048 16.048 0 0 1 11.9 3.28l4.73 2.67 11.1 6.79 65.77 39.46-61.87-37.2-7.81-22s60.23-40.9 105.03 15.62c4.73 5.97 159.5 93.53 159.5 93.53"/><path fill="#494752" d="m2217.25 1662.79-1.85-.41c-5.34-2.05-134.42-49.33-171.83-79.34a58.187 58.187 0 0 1-11.72-13.97l-2.46-3.7c-2.88-4.11-5.76-8.63-8.43-13.16-4.6-7.82-8.72-15.92-12.33-24.25-.57-1.2-1.05-2.43-1.44-3.7l-46.66-35.97a19.527 19.527 0 0 1-6.37-8.43 21.165 21.165 0 0 1-1.69-11.02c.44-3.76 1.87-7.34 4.16-10.35l3.49-4.53c3.39-4.46 8.4-7.39 13.95-8.16 5.55-.77 11.17.68 15.65 4.05l7.19 4.32-3.08-8.63a4.885 4.885 0 0 1-.05-3.35 4.937 4.937 0 0 1 2.1-2.61c.62-.41 64.54-42.55 111.82 16.65 6.78 5.96 98.04 58.37 158.06 92.28.6.33 1.12.76 1.55 1.29.42.53.74 1.13.93 1.78.19.65.25 1.33.18 2a5.13 5.13 0 0 1-.6 1.92 5.386 5.386 0 0 1-3.09 2.41c-1.3.38-2.69.25-3.9-.35-46.87-26.52-156.21-88.8-160.94-94.76-35.97-45.22-82.22-24.05-94.96-16.85l5.96 16.44 60.22 36.18c.58.35 1.09.81 1.49 1.36.4.54.69 1.16.85 1.82.17.66.2 1.34.1 2.01-.11.67-.34 1.32-.69 1.9a5.22 5.22 0 0 1-1.36 1.49c-.55.4-1.17.69-1.82.85-.66.16-1.35.19-2.02.09-.67-.1-1.31-.33-1.89-.68l-81.6-48.92c-.21-.21-.41-.21-.41-.41a11.298 11.298 0 0 0-15.42 2.05l-3.49 4.52a10.907 10.907 0 0 0-1.24 11.1 9.771 9.771 0 0 0 3.29 4.32l47.69 37.2c.65.52 1.21 1.14 1.64 1.85l1.85 4.73c3.37 8 7.28 15.76 11.72 23.22 2.43 4.27 5.11 8.39 8.02 12.34l2.46 3.9c2.67 4.33 5.92 8.27 9.66 11.72 36.18 28.98 167.72 77.28 169.16 77.69 1.25.51 2.24 1.48 2.78 2.71.54 1.23.57 2.62.1 3.87-.34 1-.97 1.87-1.81 2.49-.85.63-1.87.98-2.92 1Z"/><path fill="#494752" d="M2620.94 1648s-169.58 266.99-248.92 414.16a476.52 476.52 0 0 1-72.14-6.16c-85.09-13.98-154.57-53.03-203.28-125.38l-7.4-11.52c52.21-116.74 195.47-421.15 195.47-421.15"/><path fill="#494752" d="M2372.02 2067.3c-24.5-.3-48.96-2.36-73.17-6.17-89.82-14.8-159.29-57.75-206.57-127.64-2.26-3.49-4.93-7.4-7.4-11.71a4.936 4.936 0 0 1-.41-4.73c51.59-115.51 194.03-418.07 195.47-421.15a5.133 5.133 0 0 1 2.85-3.11c.66-.29 1.38-.43 2.11-.42.72.01 1.44.18 2.09.48a5.12 5.12 0 0 1 2.75 3.19c.21.69.27 1.43.17 2.14-.09.72-.34 1.41-.72 2.03-1.44 3.08-141.82 301.33-194.23 418.48 2.05 3.29 3.9 6.17 5.96 9.05 46.04 68.44 111.4 108.73 199.78 123.32a472.77 472.77 0 0 0 68.24 5.76c79.14-146.14 246.03-408.82 247.68-411.5a5.144 5.144 0 0 1 6.99-1.64c1.14.76 1.95 1.93 2.26 3.27.31 1.34.09 2.74-.62 3.92-1.64 2.68-170.39 268.44-248.7 413.55-.4.87-1.04 1.6-1.84 2.11a4.9 4.9 0 0 1-2.69.77Z"/><path fill="#fff" d="M2096.6 1930.61c-5.34 11.31-8.63 17.48-9.25 16.86-24.25-22.4-294.95-164.23-294.95-164.23s-80.37-73.79-119.21-97.42c-38.85-23.64-73.38-46.25-73.38-46.25-2.9-2.27-6.57-3.31-10.23-2.88-3.66.42-7 2.27-9.3 5.14l-3.29 3.7a14.206 14.206 0 0 0-2.9 10.33c.42 3.69 2.28 7.06 5.16 9.4 0 0 38.44 31.86 51.39 52.62 12.95 20.76-19.32 39.05-42.34 34.53-23.02-4.52-69.48-30.01-69.48-30.01l-15-63.51c-.51-1.54-1.32-2.96-2.39-4.18a12.012 12.012 0 0 0-3.82-2.92c-1.45-.71-3.04-1.12-4.65-1.2-1.62-.09-3.24.15-4.76.69l-3.91 1.44a8.634 8.634 0 0 0-4.86 4.14 8.65 8.65 0 0 0-.69 6.35s-3.49 49.12 13.77 85.71c17.27 36.58 205.34 104 205.34 104s225.48 267.82 400.81 339.76c63.92 26.31 135.65-40.9 201.22-136.68-85.09-13.98-154.57-53.03-203.28-125.39Z"/><path fill="#494752" d="M2127.43 2203.57a80.962 80.962 0 0 1-30.83-6.16c-168.75-69.27-386.01-321.47-401.63-340.17-8.01-2.88-50.97-18.5-95.37-37.82-24.66-10.9-100.1-43.58-111.81-68.24-16.45-35.15-14.6-80.57-14.18-87.56-.7-3.26-.18-6.67 1.44-9.58 1.63-2.91 4.25-5.13 7.39-6.25l4.11-1.44c4.33-1.47 9.06-1.18 13.16.82 4.19 1.98 7.44 5.52 9.04 9.87-.01.11.01.22.04.33.04.11.09.2.17.29l14.18 61.45c9.25 4.73 46.66 24.26 66.19 28.16 12.94 2.67 30-3.29 36.58-12.74 1.56-1.98 2.45-4.4 2.52-6.92.08-2.52-.66-4.99-2.11-7.06-12.33-19.73-49.94-50.97-50.35-51.38a18.971 18.971 0 0 1-4.79-5.68c-1.2-2.19-1.96-4.6-2.23-7.08-.26-2.49-.04-5 .67-7.4.71-2.39 1.89-4.63 3.47-6.56l3.08-3.91c3.15-3.93 7.72-6.46 12.73-7.04 5-.57 10.03.85 13.99 3.96 2.88 1.85 36.18 23.64 72.97 46.04s112.02 90.64 119.42 97.43c16.85 8.83 248.91 130.72 290.84 161.14l5.96-11.72c.38-.79.96-1.47 1.68-1.97s1.56-.82 2.43-.9c.91-.03 1.81.16 2.64.56.82.39 1.53.97 2.09 1.7 46.04 68.44 111.4 108.73 199.78 123.32.83.16 1.61.49 2.29.99.67.5 1.23 1.15 1.62 1.89.3.81.41 1.68.3 2.54a5.31 5.31 0 0 1-.92 2.39c-65.57 96.2-124.76 144.7-176.56 144.7Zm-635.12-547.76c-.84-.07-1.69.07-2.47.41l-3.9 1.23c-.81.36-1.48.98-1.89 1.76-.41.79-.54 1.69-.37 2.56.17.6.23 1.22.2 1.85 0 .41-3.29 48.3 13.36 83.24 13.36 28.37 150.66 82.63 202.46 101.33.86.28 1.64.78 2.26 1.44 2.06 2.67 226.51 267.62 398.55 338.32 52.41 21.38 116.33-21.78 190.53-128.25-83.04-15.42-148.19-55.3-193.62-119.01-5.34 10.68-6.57 11.51-9.04 11.92-.8.11-1.61.06-2.39-.16-.77-.21-1.5-.57-2.13-1.08-18.71-17.47-200.41-114.69-293.93-163.61a2.01 2.01 0 0 1-1.02-.82c-.83-.61-80.37-73.58-118.4-96.6-38.02-23.02-73.17-46.25-73.58-46.45h-.41a8.816 8.816 0 0 0-6.42-1.91 8.82 8.82 0 0 0-5.91 3.14l-3.09 3.9a8.867 8.867 0 0 0-1.9 6.42 8.865 8.865 0 0 0 3.14 5.92c1.64 1.43 39.46 32.88 52.62 53.85 2.52 3.79 3.82 8.28 3.71 12.84-.11 4.56-1.62 8.97-4.33 12.64-8.84 12.75-30.01 20.35-47.07 16.86-23.64-4.73-69.06-29.39-70.91-30.42-.67-.3-1.26-.76-1.73-1.33-.46-.57-.79-1.24-.94-1.96l-14.8-63.31a7.196 7.196 0 0 0-3.5-3.9 8.24 8.24 0 0 0-3.08-.82ZM2273.57 1114.62c6.24 0 11.31-9.3 11.31-20.76 0-11.47-5.07-20.76-11.31-20.76s-11.3 9.29-11.3 20.76c0 11.46 5.06 20.76 11.3 20.76ZM2301.11 1225.4h-3.9c-.68-.1-1.33-.33-1.92-.69-.59-.35-1.09-.82-1.5-1.38-.4-.55-.69-1.18-.84-1.85-.16-.67-.18-1.36-.06-2.04a4.997 4.997 0 0 1 2.08-3.36c.56-.38 1.2-.65 1.86-.78a4.91 4.91 0 0 1 2.02.03c1.44.21 5.76.41 8.02-1.44.49-.35.9-.81 1.18-1.34.29-.54.45-1.13.46-1.74-.03-.74.11-1.48.4-2.17.28-.69.71-1.3 1.26-1.81.55-.5 1.2-.88 1.91-1.11.7-.22 1.45-.29 2.19-.2.74.09 1.45.34 2.08.73.64.39 1.18.91 1.59 1.53.41.62.68 1.33.79 2.06.11.74.06 1.49-.15 2.2-.16 2.01-.74 3.95-1.7 5.72-.95 1.77-2.26 3.32-3.85 4.56a21.347 21.347 0 0 1-11.92 3.08Z"/><path fill="#fff" d="M2377.57 1110.09c-4.72-24.04 4.32-46.24 22-52.2 17.67-5.96 43.78 9.86 52.82 37.2 9.05 27.34.62 54.88-19.53 61.66-8.42 2.88-17.47 1.44-25.89-3.08"/><path fill="#494752" d="M2423.82 1163.33a42.523 42.523 0 0 1-19.32-5.14 5.114 5.114 0 0 1-2.47-3.07c-.39-1.31-.24-2.72.42-3.92.65-1.2 1.75-2.09 3.06-2.47 1.31-.39 2.72-.24 3.92.42 3.24 1.96 6.85 3.21 10.61 3.67 3.76.46 7.57.12 11.18-1 8.22-2.67 14.39-9.87 17.47-19.73a56.502 56.502 0 0 0-1.03-35.36 58.536 58.536 0 0 0-20.55-28.98c-8.63-5.96-17.88-7.81-25.9-5.14-15 5.14-22.81 24.67-18.7 46.66.24 1.31-.03 2.66-.75 3.77a5.121 5.121 0 0 1-3.16 2.19c-1.36.25-2.76-.04-3.91-.81a5.32 5.32 0 0 1-2.25-3.3c-5.14-26.92 5.55-51.38 25.48-58.17 11.31-3.9 23.64-1.44 35.15 6.38a67.565 67.565 0 0 1 24.25 34.12 66.112 66.112 0 0 1 1.24 41.72c-4.11 13.15-12.75 22.61-24.05 26.31a30.913 30.913 0 0 1-10.69 1.85Z"/><path fill="#494752" d="M2424.03 1143.6a5.624 5.624 0 0 1-2.88-.82c-.56-.39-1.03-.89-1.39-1.46-.37-.58-.61-1.22-.73-1.88-.11-.67-.09-1.36.06-2.02.15-.66.43-1.29.83-1.84 10.48-15.21 7.6-30.62-8.43-46.86a5.34 5.34 0 0 1-1.39-3.6c0-1.33.49-2.61 1.39-3.6.48-.49 1.05-.89 1.69-1.16a5.124 5.124 0 0 1 4.02 0c.63.27 1.21.67 1.69 1.16 13.56 13.78 26.31 35.15 9.45 59.82-.46.71-1.1 1.3-1.86 1.7-.75.39-1.6.59-2.45.56ZM2377.58 1115.23h-.42l-143.46-8.01c-1.37-.09-2.64-.7-3.55-1.73a5.125 5.125 0 0 1-1.28-3.72c.08-1.36.7-2.64 1.72-3.54a5.133 5.133 0 0 1 3.72-1.29l143.47 8.02c1.38.1 2.67.74 3.59 1.77.92 1.04 1.4 2.39 1.34 3.78a5.124 5.124 0 0 1-5.13 4.72Z"/><path fill="#fff" d="m1804.31 1772.45-96.69 105.15 26.33 24.21 96.69-105.15-26.33-24.21Z"/><path fill="#494752" d="M1734.02 1908.42c-.62.02-1.24-.1-1.8-.34a4.13 4.13 0 0 1-1.48-1.1l-26.31-24.26c-.52-.43-.95-.96-1.25-1.57-.3-.6-.48-1.26-.52-1.93-.04-.68.06-1.35.3-1.99.23-.63.59-1.21 1.06-1.7l96.81-105.03a5.712 5.712 0 0 1 3.49-1.85c1.36.04 2.67.55 3.7 1.44l26.31 24.25c.5.44.91.97 1.19 1.57.29.6.44 1.26.45 1.93.07.66 0 1.34-.21 1.98a4.85 4.85 0 0 1-1.02 1.72l-96.81 105.23c-.47.51-1.05.92-1.68 1.2-.64.29-1.32.44-2.02.45h-.21Zm-18.9-29.6 18.7 17.26 89.82-97.63-18.7-17.26-89.82 97.63Z"/><path fill="#F56C49" d="M1787.69 1873.53c9.94-15.6 2.01-38.44-17.71-51-19.72-12.57-43.77-10.1-53.71 5.5-9.94 15.61-2.01 38.45 17.71 51.01 19.72 12.57 43.77 10.1 53.71-5.51Z"/><path fill="#F56C49" d="M1760.75 1893.41a54.164 54.164 0 0 1-29.19-8.84c-21.99-13.97-30.83-40.08-19.32-57.96 11.51-17.88 38.85-21.17 60.84-6.99 21.99 14.19 30.83 40.08 19.32 57.97-6.58 10.48-18.5 15.82-31.65 15.82Zm-16.86-72.55c-9.66 0-18.29 3.9-23.02 11.3-8.43 13.16-1.03 32.89 16.24 43.78 17.26 10.89 38.23 9.46 46.66-3.9 8.42-13.36 1.02-32.89-16.24-43.78a44.172 44.172 0 0 0-23.64-7.4Z"/><path fill="#494752" d="M1752.32 1857.24h-.82a6.05 6.05 0 0 1-2.29-1.12c-.68-.53-1.23-1.2-1.62-1.97l-9.04-20.34a4.99 4.99 0 0 1-.43-1.97c-.02-.68.1-1.35.35-1.98.25-.63.62-1.21 1.09-1.69.47-.49 1.04-.88 1.66-1.15a5.13 5.13 0 0 1 3.95-.07c.63.25 1.2.62 1.69 1.09.49.47.87 1.03 1.14 1.65l5.76 13.16 6.99-7.81c.44-.51.99-.91 1.6-1.2a4.85 4.85 0 0 1 1.95-.46 4.942 4.942 0 0 1 3.64 1.45c1 .91 1.6 2.17 1.68 3.52.07 1.34-.38 2.66-1.27 3.68l-12.13 13.56a5.505 5.505 0 0 1-3.9 1.65ZM2588.25 1722.4l-207.8 331.33c-34.12 10.9-93.31 11.51-137.5 0"/><path fill="#fff" d="M2314.68 2067.3c-24.57.13-49.07-2.7-72.97-8.43a4.97 4.97 0 0 1-1.84-.88c-.55-.41-1.01-.93-1.35-1.52-.35-.6-.57-1.25-.66-1.93-.08-.69-.03-1.38.15-2.04.34-1.3 1.18-2.42 2.33-3.11 1.15-.69 2.53-.9 3.84-.59 41.72 10.69 98.25 10.9 132.98.62l206.78-329.69c.34-.61.81-1.14 1.37-1.56.55-.42 1.19-.72 1.87-.88.68-.17 1.38-.2 2.07-.08.69.11 1.34.37 1.93.74a5.143 5.143 0 0 1 1.39 7.33l-207.59 331.33a4.762 4.762 0 0 1-2.88 2.06c-18.09 5.75-42.34 8.63-67.42 8.63Z"/><path fill="#F56C49" d="m1338.65 1361.1-15.01 7.19 7.15 14.92 15.01-7.19-7.15-14.92ZM1376.05 1278.06l-16.37-3.01-2.99 16.28 16.37 3 2.99-16.27ZM1407.27 1351.76l-16.38-3.01-2.98 16.27 16.37 3.01 2.99-16.27ZM1645.63 1194.91l-16.37-3-2.99 16.27 16.37 3.01 2.99-16.28ZM1444.72 1208.97l-16.49-2.33-2.31 16.38 16.48 2.33 2.32-16.38ZM1717.87 1657.13l-15.02 7.19 7.15 14.92 15.02-7.19-7.15-14.92ZM1775.52 1707.43l-15.91-4.92-4.89 15.8 15.91 4.93 4.89-15.81Z"/><path fill="#fff" d="M1503.41 938.878a5.167 5.167 0 0 1-3.79-1.141 5.13 5.13 0 0 1-1.86-3.483 5.135 5.135 0 0 1 1.14-3.784 5.152 5.152 0 0 1 3.48-1.869c30.42-5.549 54.06-21.376 63.1-33.709.39-.555.89-1.028 1.46-1.392a5.09 5.09 0 0 1 1.88-.723 5.107 5.107 0 0 1 3.85.882 4.89 4.89 0 0 1 1.41 1.466c.36.58.59 1.229.69 1.905.1.677.05 1.366-.13 2.024-.19.658-.5 1.271-.94 1.799-10.48 14.388-35.97 31.859-69.26 37.82l-1.03.205ZM1470.11 799.727h-.62a5.344 5.344 0 0 1-4.52-5.755c1.65-16.238-5.55-28.776-11.1-32.476a4.976 4.976 0 0 1-1.43-1.366 4.87 4.87 0 0 1-.78-1.82 4.724 4.724 0 0 1 0-1.981c.13-.653.39-1.273.77-1.821a5.137 5.137 0 0 1 6.99-1.644c9.25 6.166 17.68 22.609 15.83 42.135a5.176 5.176 0 0 1-1.64 3.371 5.174 5.174 0 0 1-3.5 1.357ZM2144.08 930.862h-250.96l-64.13 65.568v-65.568h-51.18a45.42 45.42 0 0 1-32.12-13.304 45.426 45.426 0 0 1-13.31-32.12v-87.972a45.426 45.426 0 0 1 13.31-32.12 45.421 45.421 0 0 1 32.12-13.305h366.27c12.05 0 23.6 4.786 32.12 13.305a45.426 45.426 0 0 1 13.31 32.12v87.972a45.426 45.426 0 0 1-13.31 32.12 45.42 45.42 0 0 1-32.12 13.304Z"/><path fill="#494752" d="m1828.99 1001.57-2.06-.41a5.18 5.18 0 0 1-2.25-1.905 5.064 5.064 0 0 1-.83-2.825v-60.429h-46.04a50.586 50.586 0 0 1-35.76-14.81 50.578 50.578 0 0 1-14.81-35.753v-87.972c0-6.64 1.31-13.215 3.85-19.35a50.643 50.643 0 0 1 10.96-16.404 50.583 50.583 0 0 1 35.76-14.809h366.27a50.549 50.549 0 0 1 35.75 14.809 50.671 50.671 0 0 1 10.97 16.404 50.577 50.577 0 0 1 3.84 19.35v87.972c0 6.64-1.3 13.215-3.84 19.349a50.65 50.65 0 0 1-10.97 16.404 50.549 50.549 0 0 1-35.75 14.81h-248.7l-62.69 63.923a5.562 5.562 0 0 1-3.7 1.646Zm-51.18-244.39a40.276 40.276 0 0 0-28.49 11.799 40.266 40.266 0 0 0-11.8 28.487v87.972a40.265 40.265 0 0 0 11.8 28.486 40.277 40.277 0 0 0 28.49 11.8h51.18a5.128 5.128 0 0 1 5.13 5.138v53.03l55.3-56.524a5.07 5.07 0 0 1 1.68-1.202 5.086 5.086 0 0 1 2.01-.442h250.97c10.69 0 20.93-4.245 28.49-11.8a40.307 40.307 0 0 0 11.8-28.486v-87.972a40.308 40.308 0 0 0-11.8-28.487 40.293 40.293 0 0 0-28.49-11.799h-366.27Z"/><path fill="#494752" d="M1987.46 825.42h-186.02c-1.36 0-2.67-.542-3.63-1.506a5.156 5.156 0 0 1-1.51-3.633 5.362 5.362 0 0 1 5.14-5.139h186.02a5.38 5.38 0 0 1 3.58 1.562c.95.953 1.51 2.23 1.56 3.577 0 1.363-.54 2.67-1.51 3.633a5.128 5.128 0 0 1-3.63 1.506ZM1934.63 878.449h-133.19a5.364 5.364 0 0 1-5.14-5.138c0-1.363.55-2.67 1.51-3.634a5.132 5.132 0 0 1 3.63-1.505h133.19c1.37 0 2.67.542 3.64 1.505a5.15 5.15 0 0 1 0 7.267 5.15 5.15 0 0 1-3.64 1.505ZM2133.6 825.42h-117.78c-1.36 0-2.67-.542-3.63-1.506a5.114 5.114 0 0 1-1.51-3.633c0-1.363.54-2.67 1.51-3.633a5.128 5.128 0 0 1 3.63-1.506h117.78c1.36 0 2.67.542 3.63 1.506.96.963 1.51 2.27 1.51 3.633s-.55 2.67-1.51 3.633a5.128 5.128 0 0 1-3.63 1.506Z"/></svg>