<svg xmlns="http://www.w3.org/2000/svg" enable-background="new 0 0 50 50" viewBox="0 0 50 50"><path fill="#83BD57" d="M20.4,28.7l-4.9,11.9c-0.2,0.5-0.8,0.8-1.3,0.5l-9.3-3.9c-0.5-0.2-0.8-0.8-0.5-1.3l5.3-12.8l10.3,4.2
			C20.4,27.6,20.6,28.2,20.4,28.7z"/><path fill="#FFCA67" d="M28.2,17c-0.5,0.5-1.6,1.9-2.8,3.9c-0.3,0.5-1.7,2.6-1.7,2.6c-0.8,1.1-1.1,3.5-1.1,3.5
				c-0.5,1.4-3.2,0.5-2.7-3.7c0,0,0-0.1,0.1-0.3L9.8,27.3c-1,0.4-2.1-0.1-2.5-1c-0.4-1,0.1-2.1,1-2.5l-1.5,0.6c-0.9,0.4-2-0.1-2.4-1
				c-0.4-1,0.1-2.1,1-2.5l0.9-0.4c-1,0.4-2.1-0.1-2.5-1c-0.4-0.9,0.1-2.1,1-2.5l2.4-1c-1.1,0.5-2.3-0.2-2.6-1.4
				C4.5,13.8,5,13,5.8,12.6l10.6-4.4c0,0,2.8-1.3,4.7-0.7c0.8,0.2,1.6,0.2,2.3-0.1l0.6-0.3L28.2,17z"/><path fill="#F5B948" d="M7.1 16.2c1.8-1 4.6-2.2 6.6-2.7C11.9 14.4 9 15.6 7.1 16.2zM6.3 20.6c2.4-1.3 6.2-2.8 8.9-3.7C12.7 18.2 8.9 19.8 6.3 20.6zM8.3 23.8c2.2-1.2 5.8-2.7 8.3-3.4C14.3 21.6 10.7 23.1 8.3 23.8z"/><path fill="#9A7EAA" d="M40.3,14.5L30,18.7c-0.5,0.2-1.1,0-1.3-0.5L23.8,6.2c-0.2-0.5,0-1.1,0.5-1.3l9.3-3.9
				c0.5-0.2,1.1,0,1.3,0.5L40.3,14.5z"/><path fill="#FFCA67" d="M45.2,26.7c-0.5,0.6-0.8,1.4-0.8,2.2v0.7H33.7c-0.3-0.7-1.1-2.2-2.5-4.1c-0.3-0.4-1.8-2.5-1.8-2.5
			c-0.7-1.2-2.8-2.4-2.8-2.4c-0.8-0.8,0.4-1.7,0.4-1.7s1.5-0.8,4.1,0.6c0,0,0.1,0.1,0.2,0.1V8.5c0-1,0.8-1.9,1.9-1.9
			c1.1,0,1.9,0.8,1.9,1.9V6.9c0-1,0.8-1.9,1.9-1.9c1.1,0,1.9,0.8,1.9,1.9v1c0-1.1,0.8-1.9,1.9-1.9c1,0,1.9,0.8,1.9,1.9v2.6
			c0-1.2,1.1-2.1,2.3-1.8c0.9,0.2,1.5,1,1.5,1.9v11.5C46.3,22.1,46.5,25.2,45.2,26.7z"/><path fill="#F5B948" d="M42.6 10.4c.2 2 .2 5.1 0 7.1C42.3 15.5 42.3 12.4 42.6 10.4zM38.8 7.9c.2 2.7.2 6.9 0 9.6C38.5 14.7 38.5 10.6 38.8 7.9zM35 8.6c.2 2.5.2 6.4 0 8.9C34.8 14.9 34.8 11.1 35 8.6z"/><path fill="#59B1E3" d="M46.3,30.6v10.1c0,0.5-0.4,1-1,1H31.5V30.6c0-0.6,0.5-1,1-1h12.9C45.9,29.6,46.3,30,46.3,30.6z"/><path fill="#FFCA67" d="M41.4,42.2c-0.4,1-1.5,1.4-2.5,1L38,42.9c1,0.4,1.4,1.5,1,2.5c-0.4,0.9-1.5,1.4-2.5,1l-2.4-1
			c2.3,1,0.9,4.4-1.5,3.4L22,44.4c0,0-2.9-1-3.9-2.8c-0.4-0.7-1-1.2-1.7-1.6l-0.6-0.3l4.1-9.9c2.8-0.2,4.3-0.8,7.7-1.4
			c1.4-0.2,3.3-1.7,3.3-1.7c1.5-0.4,1.4,1,1.4,1s0.2,1.7-2.1,3.5c0,0-0.1,0-0.2,0.1l10.2,4.2c1,0.4,1.4,1.5,1,2.4
			c-0.4,1-1.5,1.4-2.5,1l1.5,0.6C41.3,40.1,41.8,41.2,41.4,42.2z"/><path fill="#F5B948" d="M34.3 45.4c-1.9-.5-4.8-1.7-6.6-2.7C29.7 43.2 32.5 44.4 34.3 45.4zM38 42.8c-2.6-.8-6.4-2.4-8.9-3.7C31.8 40 35.6 41.6 38 42.8zM38.9 39.1c-2.4-.7-6-2.2-8.3-3.4C33.1 36.4 36.6 37.9 38.9 39.1z"/></svg>