<svg xmlns="http://www.w3.org/2000/svg" data-name="Layer 1" viewBox="0 0 64 64"><rect width="34" height="28" x="15" y="9" fill="#4f73a6"/><path fill="#ffcb52" d="M41,18.37l-.824-.139A15.034,15.034,0,0,1,32,14h0a15.034,15.034,0,0,1-8.176,4.231L23,18.37h0a17.848,17.848,0,0,0,7.489,12.52L32,32l1.885-1.458A17.818,17.818,0,0,0,41,18.382Z"/><path fill="#5a6c80" d="M31.584,27a.993.993,0,0,1-.6-.2L28.4,24.871l1.2-1.6,1.709,1.275,3.3-5.348,1.7,1.051-3.875,6.277a1,1,0,0,1-.851.475Z"/><rect width="2" height="4" x="31" y="2" fill="#7cb2f8"/><rect width="4" height="2" x="53" y="22" fill="#7cb2f8"/><rect width="4" height="2" x="7" y="22" fill="#7cb2f8"/><rect width="2" height="4" x="10" y="4" fill="#7cb2f8" transform="rotate(-45 11 6)"/><rect width="4" height="2" x="51" y="5" fill="#7cb2f8" transform="rotate(-45 53 6)"/><path fill="#ffc780" d="M60.324,39.707,60.09,39.5a1.982,1.982,0,0,0-2.635,0l-9.33,8.323a9.935,9.935,0,0,1-2.907,1.8L38.094,52.5a1.982,1.982,0,0,1-2.147-.443l-2.057-2.07,7.723-3.265a5.665,5.665,0,0,0,1.97-1.982,2,2,0,0,0-2.05-3l-10.714,1.9a9.91,9.91,0,0,0-3.545,1.369l-3.9,2.453A9.9,9.9,0,0,1,18.1,48.984H11V60l8.058-.811a9.9,9.9,0,0,1,3.724.335l3.8,1.092A9.926,9.926,0,0,0,29.312,61h5.409a9.9,9.9,0,0,0,4.116-.9l9.823-4.489a9.953,9.953,0,0,0,3.63-2.831l8.269-10.316A2.01,2.01,0,0,0,60.324,39.707Z"/><path fill="#6c8099" d="M10,62H3V47h7a1,1,0,0,1,1,1V61A1,1,0,0,1,10,62Z"/><rect width="2" height="2" x="6" y="56" fill="#485666"/></svg>