<svg xmlns="http://www.w3.org/2000/svg" data-name="Layer 1" viewBox="0 0 1500 1500"><defs><clipPath id="a"><path fill="none" d="M1212.83 492.4C1079.8 452 1031.41 447 901.46 288.64S422.26 179 320.74 416.56 292.31 873.42 414.14 914s174.11 80.37 241.37 236.19c54 125 293.75 126.67 386.69 6.12 170-220.47 159.12-109.16 240.34-273.63s66.92-348.8-69.71-390.28Z"/></clipPath></defs><ellipse cx="725.67" cy="1257.83" fill="#26292c" opacity=".31" rx="630.04" ry="45.41"/><path fill="#26292c" d="M1212.83 492.4c-133-40.38-179.76-29.5-309.72-187.88S423.92 194.88 322.4 432.44 226 821.34 347.84 862 522 942.33 589.21 1098.15c54 125 353.94 185.19 446.89 64.64 170-220.46 174.7-134.34 255.9-298.79s57.46-330.12-79.17-371.6Z" opacity=".08"/><g clip-path="url(#a)"><path fill="#26292c" d="M187.45 481.75h39.1v736.51h-39.1z" opacity=".23"/><path fill="#26292c" d="M328.44 676.79h281.97v623.72H328.44z" opacity=".08"/><path fill="#26292c" d="M328.44 676.79h39.1v623.72h-39.1z" opacity=".23"/><path fill="#26292c" d="M530.6 703.36h40.46v16.79H530.6zM462.48 703.36h40.46v16.79h-40.46zM530.6 764.5h40.46v16.8H530.6zM462.48 764.5h40.46v16.8h-40.46zM394.36 764.5h40.46v16.8h-40.46zM530.6 825.65h40.46v16.79H530.6zM394.36 825.65h40.46v16.79h-40.46zM462.48 856.22h40.46v16.79h-40.46zM530.6 886.8h40.46v16.79H530.6zM462.48 917.37h40.46v16.79h-40.46zM530.6 947.94h40.46v16.79H530.6zM394.36 947.94h40.46v16.79h-40.46zM530.6 1004.44h40.46v16.79H530.6zM462.48 1004.44h40.46v16.79h-40.46zM530.6 1065.59h40.46v16.79H530.6zM462.48 1065.59h40.46v16.79h-40.46zM394.36 1065.59h40.46v16.79h-40.46zM530.6 1126.73h40.46v16.79H530.6zM394.36 1126.73h40.46v16.79h-40.46zM462.48 1157.31h40.46v16.79h-40.46zM394.36 1157.31h40.46v16.79h-40.46zM530.6 1187.88h40.46v16.79H530.6zM462.48 1218.45h40.46v16.79h-40.46zM530.6 1249.02h40.46v16.79H530.6zM394.36 1249.02h40.46v16.79h-40.46z" opacity=".08"/><path fill="#26292c" d="M1165.24 751.81h281.97v623.72h-281.97z" opacity=".15"/><path fill="#26292c" d="M1003.11 676.79h39.1v623.72h-39.1z" opacity=".23"/><path fill="#26292c" d="M602.56 380.12h378.33v920.39H602.56z" opacity=".15"/><path fill="#26292c" d="M602.56 380.12h39.1v920.39h-39.1z" opacity=".23"/><path fill="#26292c" d="M881.95 424.2h59.09v24.52h-59.09zM782.47 424.2h59.09v24.52h-59.09zM881.95 513.49h59.09v24.52h-59.09zM782.47 513.49h59.09v24.52h-59.09zM682.99 513.49h59.09v24.52h-59.09zM881.95 602.78h59.09v24.52h-59.09zM682.99 602.78h59.09v24.52h-59.09zM782.47 647.42h59.09v24.52h-59.09zM881.95 692.07h59.09v24.53h-59.09zM782.47 736.71h59.09v24.52h-59.09zM881.95 781.36h59.09v24.52h-59.09zM682.99 781.36h59.09v24.52h-59.09zM881.95 863.87h59.09v24.52h-59.09zM782.47 863.87h59.09v24.52h-59.09zM881.95 953.16h59.09v24.52h-59.09zM782.47 953.16h59.09v24.52h-59.09zM682.99 953.16h59.09v24.52h-59.09zM881.95 1042.45h59.09v24.52h-59.09zM682.99 1042.45h59.09v24.52h-59.09zM782.47 1087.09h59.09v24.52h-59.09zM682.99 1087.09h59.09v24.52h-59.09zM881.95 1131.74h59.09v24.52h-59.09zM782.47 1176.38h59.09v24.52h-59.09zM881.95 1221.02h59.09v24.52h-59.09zM682.99 1221.02h59.09v24.52h-59.09z" opacity=".08"/><path fill="#26292c" d="M1197.37 448.72h38.32v851.79h-38.32z" opacity=".23"/><path fill="#26292c" d="M1471.2 489.52h57.91v22.7h-57.91zM1373.7 489.52h57.91v22.7h-57.91zM1471.2 572.15h57.91v22.7h-57.91zM1373.7 572.15h57.91v22.7h-57.91zM1276.2 572.15h57.91v22.7h-57.91zM1471.2 654.79h57.91v22.7h-57.91zM1276.2 654.79h57.91v22.7h-57.91zM1373.7 696.1h57.91v22.7h-57.91zM1471.2 737.42h57.91v22.69h-57.91zM1373.7 778.74h57.91v22.7h-57.91zM1471.2 820.05h57.91v22.69h-57.91zM1276.2 820.05h57.91v22.69h-57.91zM1471.2 896.41h57.91v22.69h-57.91zM1373.7 896.41h57.91v22.69h-57.91zM1471.2 979.05h57.91v22.69h-57.91zM1373.7 979.05h57.91v22.69h-57.91zM1276.2 979.05h57.91v22.69h-57.91zM1471.2 1061.68h57.91v22.69h-57.91zM1276.2 1061.68h57.91v22.69h-57.91zM1373.7 1103h57.91v22.7h-57.91zM1276.2 1103h57.91v22.7h-57.91zM1471.2 1144.31h57.91v22.7h-57.91zM1373.7 1185.63h57.91v22.69h-57.91zM1471.2 1226.95h57.91v22.7h-57.91zM1276.2 1226.95h57.91v22.7h-57.91zM-.96 719.53h238.81v580.98H-.96z" opacity=".08"/><path fill="#26292c" d="M-.96 719.53h24.68v580.98H-.96z" opacity=".23"/><path fill="#26292c" d="M175.4 747.36h37.3v15.48h-37.3zM112.6 747.36h37.3v15.48h-37.3zM175.4 803.72h37.3v15.48h-37.3zM112.6 803.72h37.3v15.48h-37.3zM49.81 803.72h37.3v15.48h-37.3zM175.4 860.08h37.3v15.48h-37.3zM49.81 860.08h37.3v15.48h-37.3zM112.6 888.26h37.3v15.48h-37.3zM175.4 916.44h37.3v15.48h-37.3zM112.6 944.62h37.3v15.48h-37.3zM175.4 972.8h37.3v15.48h-37.3zM49.81 972.8h37.3v15.48h-37.3zM175.4 1024.89h37.3v15.48h-37.3zM112.6 1024.89h37.3v15.48h-37.3zM175.4 1081.25h37.3v15.48h-37.3zM112.6 1081.25h37.3v15.48h-37.3zM49.81 1081.25h37.3v15.48h-37.3zM175.4 1137.61h37.3v15.48h-37.3zM49.81 1137.61h37.3v15.48h-37.3zM112.6 1165.79h37.3v15.48h-37.3zM49.81 1165.79h37.3v15.48h-37.3zM175.4 1193.97h37.3v15.48h-37.3zM112.6 1222.16h37.3v15.48h-37.3zM175.4 1250.34h37.3v15.48h-37.3zM49.81 1250.34h37.3v15.48h-37.3z" opacity=".08"/><path fill="#fff" d="M850.41 142.98h22.14v1182.03h-22.14z"/><path fill="#fff" d="M340.16 795.09h30.55v1034.22h-30.55z" transform="rotate(-90 355.435 1312.195)"/><path fill="#fff" d="M513.05 148.94h22.14v1170.11h-22.14z"/><path fill="#fff" d="M350.78 799.09h9.32v989.71h-9.32z" transform="rotate(90 355.435 1293.945)"/><path fill="#fff" d="M342.23-360.93h26.41V673.29h-26.41z" transform="rotate(-90 355.435 156.185)"/><path fill="#fff" d="M350.77-321.01h9.32v990.13h-9.32z" transform="rotate(90 355.435 174.045)"/><path fill="#fff" d="M850.5 142.98h22.14v1182.03H850.5zM1187.86 148.94H1210v1170.11h-22.14z"/><path fill="#fff" d="M1352.33 795.09h30.55v1034.22h-30.55z" transform="rotate(-90 1367.605 1312.195)"/><path fill="#fff" d="M1362.95 799.09h9.32v989.71h-9.32z" transform="rotate(90 1367.61 1293.95)"/><path fill="#fff" d="M1354.41-360.93h26.41V673.29h-26.41z" transform="rotate(-90 1367.61 156.18)"/><path fill="#fff" d="M1362.95-321.02h9.32v990.13h-9.32z" transform="rotate(90 1367.61 174.05)"/><path fill="#fff" d="M873.1-683.65h13.2v2082.76h-13.2z" transform="rotate(-90 879.705 357.725)"/><path fill="#fff" d="M873.1-331.58h13.2v2082.76h-13.2z" transform="rotate(-90 879.705 709.805)"/><path fill="#fff" d="M873.1 20.5h13.2v2082.76h-13.2z" transform="rotate(-90 879.705 1061.875)"/></g><path fill="#26292c" d="M1402.29 1280.36a2.08 2.08 0 0 1 0 4.16M275.46 1284.52a2.08 2.08 0 0 1 0-4.16" opacity=".31"/><path fill="#fff" d="M450.76 404.5h464.97v828.76H450.76z" transform="rotate(-.11 712.773 854.913)"/><path fill="#fc0" d="m450.51 1234.77-1.57-830.84L916 403l1.57 830.83ZM451 406l1.57 826.68 462.89-.93-1.57-826.68Z"/><path fill="#fc0" d="M736.57 1277.82 505.51 1280l-37.78.35a59.12 59.12 0 0 1-59.3-59.09l-.17-85.78-.12-62.56-.38-199.27-.83-441.06A59.22 59.22 0 0 1 466 373.27l16.91.1 251.93 1.46.06 29.56v5.33l-136.13.28-44.49.23-52.56.29h-1.43a58.62 58.62 0 0 0-34.06 11.89A59.32 59.32 0 0 0 450 441.05a58.93 58.93 0 0 0-7.39 28.79l.71 378.68.52 287.71v8.73a58.64 58.64 0 0 0 7.53 28.76 59.14 59.14 0 0 0 51.77 30.28l233.2.48V1259.41Z"/><path fill="#e5bb07" d="M500.29 410.57a58.62 58.62 0 0 0-34.06 11.89A59.63 59.63 0 0 0 450 441l.77 404.08a137.92 137.92 0 0 1 14.57-5.08c.48-.19 1-.35 1.43-.52L466.71 462v-13.4a38.32 38.32 0 0 1 33.58-38.03Zm0 0a58.62 58.62 0 0 0-34.06 11.89A59.63 59.63 0 0 0 450 441l.77 404.08a137.92 137.92 0 0 1 14.57-5.08c.48-.19 1-.35 1.43-.52L466.71 462v-13.4a38.32 38.32 0 0 1 33.58-38.03Zm441.84 603.16L942 566.65V411.2a38.37 38.37 0 0 0-38.38-38.37l-413.34.07c-1.4 0-2.77 0-4.13.14-1.1.09-2.18.19-3.26.33a59.21 59.21 0 0 0-51.84 58.77l.07 423.18v365.47a59.21 59.21 0 0 0 55.2 59.07c1.36.13 2.71.15 4 .15h15.07l398.33-.08a38.35 38.35 0 0 0 38.33-38.35Zm-35.62 0v151.61a38.37 38.37 0 0 1-38.34 38.36l-363 .06a38.39 38.39 0 0 1-38.38-38.38v-58.66l-.07-267.28-.01-377.44v-13.4a38.32 38.32 0 0 1 33.58-38 35.57 35.57 0 0 1 4.76-.31h49.23l313.78-.06a38.37 38.37 0 0 1 37.8 31.93 38 38 0 0 1 .54 6.43V566.7ZM500.29 410.57a58.62 58.62 0 0 0-34.06 11.89A59.63 59.63 0 0 0 450 441l.77 404.08a137.92 137.92 0 0 1 14.57-5.08c.48-.19 1-.35 1.43-.52L466.71 462v-13.4a38.32 38.32 0 0 1 33.58-38.03Z"/><path fill="#fc0" d="m638.18 1259.67 98.55-.2a17.9 17.9 0 0 0 17.86-17.93 17.89 17.89 0 0 0-17.93-17.85l-98.55.19a17.91 17.91 0 0 0-17.86 17.94 17.9 17.9 0 0 0 17.93 17.85ZM905.86 461.94H466v-37.29a15.26 15.26 0 0 1 15.26-15.26H890.6a15.26 15.26 0 0 1 15.26 15.26Z"/><path fill="#fc0" d="M906.9 463H465v-38.35a16.32 16.32 0 0 1 16.3-16.3h409.3a16.32 16.32 0 0 1 16.3 16.3Zm-439.82-2.1h437.74v-36.25a14.24 14.24 0 0 0-14.22-14.22H481.3a14.24 14.24 0 0 0-14.22 14.22Z"/><path fill="#fff" d="M550.1 435.66a8.07 8.07 0 1 1 8.07 8.07 8.07 8.07 0 0 1-8.07-8.07ZM519 435.66a8.08 8.08 0 1 1 8.07 8.07 8.08 8.08 0 0 1-8.07-8.07ZM488 435.66a8.07 8.07 0 1 1 8.07 8.07 8.07 8.07 0 0 1-8.07-8.07ZM867.4 429.76l3.99-3.99 5.71 5.71 5.71-5.71 3.99 3.99-5.7 5.71 5.7 5.71-3.99 3.99-5.71-5.71-5.71 5.71-3.99-3.99 5.71-5.71-5.71-5.71z"/><path fill="#08a742" d="M1029.92 539.81v400.57c0 7.14-5.38 12.94-12 12.94H556.08c-6.64 0-12-5.8-12-12.94V539.81c0-18.53 14-33.56 31.17-33.56h423.51c17.24 0 31.16 15.03 31.16 33.56Z"/><path fill="#fc0" d="M1017.91 954.36H556.08c-7.2 0-13.06-6.27-13.06-14V539.81c0-19.08 14.45-34.6 32.21-34.6h423.53c17.76 0 32.2 15.52 32.2 34.6v400.57c.04 7.71-5.85 13.98-13.05 13.98ZM575.23 507.29c-16.61 0-30.12 14.59-30.12 32.52v400.57c0 6.56 4.92 11.9 11 11.9h461.83c6.05 0 11-5.34 11-11.9V539.81c0-17.93-13.51-32.52-30.12-32.52Z"/><path fill="#26292c" d="M1029.92 539.81v35.88H544.06v-35.88c0-18.54 14-33.56 31.17-33.56h423.53c17.24 0 31.16 15.02 31.16 33.56Z" opacity=".15"/><path fill="#fc0" d="M1031 576.73H543v-36.92c0-19.08 14.45-34.6 32.21-34.6h423.55c17.76 0 32.2 15.52 32.2 34.6Zm-485.85-2.09h483.77v-34.83c0-17.93-13.51-32.52-30.12-32.52H575.23c-16.61 0-30.12 14.59-30.12 32.52Z"/><path fill="#fff" d="M593.06 541a8.27 8.27 0 1 0-8.27 8.26 8.27 8.27 0 0 0 8.27-8.26ZM631.32 541a8.27 8.27 0 1 0-8.27 8.26 8.27 8.27 0 0 0 8.27-8.26ZM669.58 541a8.27 8.27 0 1 0-8.27 8.26 8.27 8.27 0 0 0 8.27-8.26ZM1013 541.08a23.53 23.53 0 1 0-23.53 23.53 23.52 23.52 0 0 0 23.53-23.53Z"/><path fill="#fc0" d="M989.48 565.65a24.57 24.57 0 1 1 24.57-24.57 24.6 24.6 0 0 1-24.57 24.57Zm0-47.06a22.49 22.49 0 1 0 22.52 22.49 22.52 22.52 0 0 0-22.52-22.49Z"/><path fill="#26292c" d="M999.82 553.2a1.79 1.79 0 0 1-1.26-.53l-20.46-20.45a1.78 1.78 0 0 1 2.52-2.52l20.45 20.46a1.76 1.76 0 0 1 0 2.51 1.73 1.73 0 0 1-1.25.53Z" opacity=".31"/><path fill="#26292c" d="M979.36 553.2a1.79 1.79 0 0 1-1.26-3l20.46-20.46a1.78 1.78 0 1 1 2.51 2.52l-20.45 20.45a1.77 1.77 0 0 1-1.26.49Z" opacity=".31"/><rect width="430.03" height="116.77" x="576.52" y="610.7" fill="#fff" rx="12.94"/><path fill="#fc0" d="M993.61 728.51H589.46a14 14 0 0 1-14-14v-90.87a14 14 0 0 1 14-14h404.15a14 14 0 0 1 14 14v90.89a14 14 0 0 1-14 13.98ZM589.46 611.74a11.92 11.92 0 0 0-11.9 11.9v90.89a11.92 11.92 0 0 0 11.9 11.9h404.15a11.92 11.92 0 0 0 11.9-11.9v-90.89a11.92 11.92 0 0 0-11.9-11.9Z"/><path fill="#26292c" d="M611.72 636.85h13.62v73.7h-13.62z"/><path fill="#fc0" d="M634.51 661.27h13.63v49.28h-13.63z"/><path fill="#26292c" d="M657.3 678.73h13.63v31.82H657.3z"/><path fill="#fc0" d="M680.09 646.01h13.63v64.54h-13.63z"/><path fill="#26292c" d="M839.17 636.82a4.41 4.41 0 0 1 4.42-4.41h55.69a4.42 4.42 0 0 1 4.43 4.41 4.42 4.42 0 0 1-4.43 4.42h-55.69a4.42 4.42 0 0 1-4.42-4.42ZM839.17 650.16a4.42 4.42 0 0 1 4.42-4.42h37.34a4.42 4.42 0 0 1 4.43 4.42 4.42 4.42 0 0 1-4.43 4.42h-37.34a4.42 4.42 0 0 1-4.42-4.42ZM892.67 650.16a4.42 4.42 0 0 1 4.41-4.42h20.81a4.42 4.42 0 0 1 4.42 4.42 4.42 4.42 0 0 1-4.42 4.42h-20.81a4.42 4.42 0 0 1-4.41-4.42ZM839.17 684.79a4.42 4.42 0 0 1 4.42-4.42h45a4.42 4.42 0 0 1 4.42 4.42 4.42 4.42 0 0 1-4.42 4.42h-45a4.42 4.42 0 0 1-4.42-4.42ZM839.17 698.13a4.43 4.43 0 0 1 4.42-4.43h37.34a4.43 4.43 0 0 1 4.43 4.43 4.42 4.42 0 0 1-4.43 4.41h-37.34a4.42 4.42 0 0 1-4.42-4.41ZM910.49 684.79a4.43 4.43 0 0 1 4.43-4.42h37.34a4.42 4.42 0 0 1 4.42 4.42 4.42 4.42 0 0 1-4.42 4.42h-37.34a4.43 4.43 0 0 1-4.43-4.42Z" opacity=".31"/><path fill="#26292c" d="M702.88 661.27h13.63v49.28h-13.63z"/><path fill="#fc0" d="M725.67 643.49h13.62v67.06h-13.62z"/><path fill="#26292c" d="M748.46 685.9h13.63v24.65h-13.63zM827.79 643.49A17.76 17.76 0 1 0 810 661.25a17.76 17.76 0 0 0 17.79-17.76Z"/><path fill="#fc0" d="M827.79 691.46A17.76 17.76 0 1 0 810 709.22a17.76 17.76 0 0 0 17.79-17.76Z"/><rect width="429.64" height="180.38" x="576.91" y="745.37" fill="#fff" rx="12.94"/><path fill="#fc0" d="M993.61 926.79H589.85a14 14 0 0 1-14-14V758.31a14 14 0 0 1 14-14h403.76a14 14 0 0 1 14 14v154.5a14 14 0 0 1-14 13.98ZM589.85 746.41a11.92 11.92 0 0 0-11.9 11.9v154.5a11.92 11.92 0 0 0 11.9 11.9h403.76a11.92 11.92 0 0 0 11.9-11.9v-154.5a11.92 11.92 0 0 0-11.9-11.9Z"/><path fill="#26292c" d="M849.53 775H644.86a6.89 6.89 0 0 1-6.89-6.89 6.88 6.88 0 0 1 6.89-6.89h204.67a6.89 6.89 0 0 1 6.89 6.89 6.9 6.9 0 0 1-6.89 6.89Z"/><path fill="#fc0" d="M746.83 795.92H607a6.88 6.88 0 0 1-6.9-6.92 6.88 6.88 0 0 1 6.89-6.89h139.84a6.89 6.89 0 0 1 6.89 6.89 6.89 6.89 0 0 1-6.89 6.92Z"/><path fill="#26292c" d="M849.53 817.31H644.86a6.88 6.88 0 0 1-6.89-6.88 6.88 6.88 0 0 1 6.89-6.89h204.67a6.89 6.89 0 0 1 6.89 6.89 6.89 6.89 0 0 1-6.89 6.88Z"/><path fill="#fc0" d="M746.83 838.27H607a6.89 6.89 0 0 1-6.89-6.89 6.88 6.88 0 0 1 6.89-6.89h139.83a6.89 6.89 0 0 1 6.89 6.89 6.9 6.9 0 0 1-6.89 6.89Z"/><path fill="#26292c" d="M849.53 858.05H644.86a6.89 6.89 0 0 1-6.89-6.89 6.89 6.89 0 0 1 6.89-6.89h204.67a6.9 6.9 0 0 1 6.89 6.89 6.9 6.9 0 0 1-6.89 6.89Z"/><path fill="#fc0" d="M746.83 879H607a6.88 6.88 0 0 1-6.89-6.89 6.88 6.88 0 0 1 6.89-6.89h139.83a6.89 6.89 0 0 1 6.89 6.89 6.89 6.89 0 0 1-6.89 6.89Z"/><path fill="#26292c" d="M849.53 898.38H644.86a6.89 6.89 0 0 1-6.89-6.89 6.89 6.89 0 0 1 6.89-6.89h204.67a6.9 6.9 0 0 1 6.89 6.89 6.9 6.9 0 0 1-6.89 6.89Z"/><path fill="#fc0" d="M746.83 919.33H607a6.88 6.88 0 0 1-6.89-6.89 6.88 6.88 0 0 1 6.89-6.89h139.83a6.89 6.89 0 0 1 6.89 6.89 6.89 6.89 0 0 1-6.89 6.89Z"/><path fill="#fcb295" d="M201.37 1215.11c-.14-3.36-19.77-15-20.76-14.06-3 3-13.39 15.25-12.89 18.25s10.77 19.47 13.53 16.46c2.38-2.6 20.26-17.4 20.12-20.65Z"/><path fill="#fcb295" d="M180.43 1237.11a2.74 2.74 0 0 1-.78-.12c-4.21-1.25-12.42-14.66-12.9-17.53-.64-3.86 11.16-17.16 13.17-19.11.6-.6 1.55-.3 2.46.06 3.86 1.53 19.82 10.88 20 14.66.11 2.39-5.21 7.62-15.73 17.07-2.16 1.94-4 3.61-4.64 4.28a2 2 0 0 1-1.58.69Zm.6-35.1c-4.19 4.18-12.69 15-12.34 17.13.41 2.47 8.32 15 11.52 16 .25.06.29 0 .32 0 .67-.74 2.48-2.37 4.77-4.43 4.5-4 15-13.49 15.09-15.52-.25-2.34-16.16-12.5-19.39-13.19Zm.26-.26Z"/><path fill="#26292c" d="M169.31 1214.4s-17.31 5.91-18.31 19.88c0 0 35.6 26.32 50.45 34 0 0 17-5.77 6.59-15.53s-19.84-19.88-19.84-19.88-17.2-3.38-18.89-18.47Z"/><path fill="#fcb295" d="M388.26 1214.7c-2.49-2.27-24.59 3.51-24.6 4.9 0 4.24 1.45 20.24 3.93 22s24.81-2 24.6-6.06c-.19-3.54-1.52-18.66-3.93-20.84Z"/><path fill="#fcb295" d="M370.52 1243a7.08 7.08 0 0 1-3.5-.58c-3.17-2.25-4.36-20-4.34-22.8 0-.85.88-1.31 1.78-1.7 3.8-1.67 21.66-6.46 24.47-3.92 3.13 2.85 4.24 21.33 4.24 21.51.06 1.15-.76 2.18-2.51 3.15-4.23 2.34-14.51 4.34-20.14 4.34Zm-5.87-23c0 5.92 1.78 19.59 3.51 20.81 1.56 1 16.41-.82 21.81-4 1-.59 1.25-1 1.24-1.17-.3-6-1.84-18.55-3.6-20.15s-20.24 2.67-22.96 4.51Zm0-.37Z"/><path fill="#26292c" d="M365.23 1237s-8 16.51 1.3 27c0 0 43.74-6.82 59.65-12 0 0 7.84-16.15-6.42-15.6s-28.08.14-28.08.14-14.52 9.86-26.45.46ZM395.4 1220.63l-15.72 1.59-20.68 2.12h-.05a1.37 1.37 0 0 0-.2-.52s0 0-.11-.1c-1.8-4.07.17-38 .37-66.16.16-35.08-15.1-84.48-17.62-118.94-.26-2.89-.47-5.57-.67-8-1.4-17.31-15.05-50.65-26.18-79.24-1.6-4.17-3.19-8.24-4.64-12.1-7.2-19.23-12.05-34.48-9-37.93 7.93-9 52.65-74.75 79.6-44.4 30.8 34.77 35.9 125.55 35.9 174.49s-13.19 140.24-21 189.19Z"/><path fill="#26292c" d="M367 1155.71c-6-51.26 11.75-105.35-10.1-154.39-6.13-13.76-16.07-27.88-15.09-43.59.46-7.78 5.51-16.64 1.08-24.16-7.88-13.4-22.77-4.38-29.68 4.84a2.51 2.51 0 0 0-2.47.21c-.26.2-.57.36-.83.57 1.45 3.86 3 7.93 4.64 12.1 11.13 28.59 24.78 61.93 26.18 79.24.2 2.47.41 5.15.67 8 3 34.46 7.86 80.15 11.62 115.08 4.71 43.82 3.47 66.36 5.63 70 .11 0 .11.1.11.1a1.37 1.37 0 0 1 .2.52h.05l20.71-2.12c2.07-27.29-9.67-39.56-12.72-66.4Z"/><path fill="#26292c" d="M309.82 1064.84c-5.51 48.63-77.7 137.94-114.94 159.5 0 0-23.64-14.39-22.71-16.92 6-16.22 21.74-35.41 31.4-66.65 17.24-55.75 32.94-73 33.1-105.35.36-65-16.18-97.47.1-145.13 1.14-3.35 2.42-6.69 3.87-10.2 3.45-8.24 18.13-21.69 23.79-31.17.83-1.34 48.9 6 66.37 24.68 1.85 1.96-12.42 115.71-20.98 191.24Z"/><path fill="#26292c" d="M246 920.49c-.82-6.66-2.73-23.34-9.22-30.2-16.28 47.66.26 80.11-.1 145.13-.16 32.3-58.52 155.78-64.5 172-.93 2.53 4.69 6 10.05 8.76 4.79-3.92 26.57-78.6 41.1-106.88 14.43-28.08 25.51-54.76 24.94-86.87-.1-3.29-.31-6.59-.57-9.89a442.53 442.53 0 0 0-1.7-92.05Z"/><path fill="#fcb295" d="M344.34 768.09a66 66 0 0 0 2 14.47 61 61 0 0 0 14 26.91c11 12.19 29.71 22.46 61.28 24.11 20.56 1 72.74-43.2 82.34-57.38 3.18-4.68-13.49-5.09-13.49-5.09-6.35-3.13-69.61 19.1-76.72 16-2.27-1-8.42-9.65-16.49-21.1-1.39-1.91-2.84-4-4.33-6-16.24-22.85-34.49-47.55-50.52-53.24s1.93 61.32 1.93 61.32Z"/><path fill="#fcb295" d="M422.33 834.58h-.73c-27.78-1.45-48.62-9.67-62-24.44a61.79 61.79 0 0 1-14.25-27.33 67.66 67.66 0 0 1-2-14.57c-1.61-6.07-14-53.9-5.65-61.6a4.71 4.71 0 0 1 5.06-.77c15.92 5.66 33.92 29.58 51 53.6l1.49 2.08q1.46 2 2.83 4c6.89 9.78 14 19.88 16.1 20.78 3.25 1.4 21.87-3.7 38.3-8.19 21.29-5.82 34.63-9.29 38.23-7.94 2.51.08 12.72.57 14.4 3.84a2.6 2.6 0 0 1-.3 2.78c-10.04 14.77-61.52 57.75-82.48 57.76Zm-81.66-127.15a2.24 2.24 0 0 0-1.62.63c-6.37 5.89 2.35 45.15 6.24 59.77v.26a65.58 65.58 0 0 0 2 14.24 60 60 0 0 0 13.8 26.48c13 14.36 33.36 22.37 60.6 23.79 19.85 1 71.48-42.17 81.48-57 .33-.49.23-.69.18-.78-.79-1.54-7.31-2.64-12.89-2.77l-.41-.1c-2.81-1.39-21.81 3.8-37.06 8-22.22 6.07-36 9.66-39.6 8.1-2.48-1.08-7.77-8.47-16.92-21.44l-2.83-4-1.49-2.09c-16.89-23.76-34.67-47.42-50.05-52.88a4.36 4.36 0 0 0-1.43-.21Z"/><path fill="#08a742" d="M365.25 807.52a4.69 4.69 0 0 1-4.89-1c-11.18-10.46-11.64-14.17-14-24a68.87 68.87 0 0 1-2-14.48s-1.24-4-2.83-10.15c-4-14.58-10.36-41-8.35-51.72.67-3.76 2.37-5.62 5.46-4.54A74.15 74.15 0 0 1 357.06 712h.05c10.87 8 22.26 19.22 33.23 31.94 10.05 11.7-11.84 59.36-25.09 63.58Z"/><path fill="#26292c" d="M295.71 651.22c-5.38-14-25.73-30.07-40.23-18.15-8.31 6.82-9.46 20.28-10.44 30.15-.74 7.36-.46 14.88-1.73 22.19-.95 5.43-2.38 11.22-5.83 15.68s-19.67 14.47-15.81 1.68c.62-2.07-1.78-3.24-3.41-2.86-10.38 2.42-8.64 18.4-3.51 25 8 10.25 28 10.16 39.67 9.55 13.57-.7 21.38-8.71 25.42-21.4 3.08-9.7 3.43-20 5.63-29.89 2.26-10.23 9.09-19.18 10.26-29.44a2.51 2.51 0 0 0-.05-.68 2.33 2.33 0 0 0 .03-1.83ZM379.26 755.42c-1.28-11.53-15.5-34.87-22.15-43.42h-.05c-6.39-4.69-9.76-2.11-15.58-4.17-3.09-1.08-7.65-5.36-8.32-1.6 6.95 16.43 7.62 34.05 8.35 51.72 1.59 6.14 2.83 10.15 2.83 10.15a68.87 68.87 0 0 0 2 14.48c2.37 9.84 2.83 13.55 14 24a4.69 4.69 0 0 0 4.89 1c.88-7 1.19-14.12 1.81-21.18 1.26-14.4 13.77-16.6 12.22-30.98Z"/><path fill="#08a742" d="M386.87 867h-.1c-1.19.37-10.15 3.14-23.64 6.08-16 3.45-38.29 7.17-61.57 7.42a178.64 178.64 0 0 1-41-3.76c-1.24-.26-2.42-.57-3.61-.88-.72-.15-1.39-.36-2.11-.56-1.24-.31-2.42-.67-3.6-1-1.7-.52-3.4-1-5.1-1.65l-.42-.16c-1.75-.62-3.55-1.33-5.31-2.11l-1.13-.46c1.44-2.79 3.25-5.93 5.26-9.33.51-.87 1.08-1.8 1.6-2.73 1.33-2.27 2.72-4.58 4.12-7.06.56-1 1.18-2.06 1.75-3.09l1.08-2c.72-1.34 1.44-2.72 2.16-4.12 1.19-2.32 2.32-4.74 3.4-7.21.52-1.13 2.27-5.67 2.27-5.67s5.56-33.12 5.41-37.4c-.05-1.7-.21-3.4-.41-5.1-.41-3.35-1-6.8-1.75-10.36-6.24-31-19.78-67.8 16.22-79.13a73.9 73.9 0 0 1 15.77-3h.05a151.19 151.19 0 0 1 22.82-.15 217.15 217.15 0 0 1 23.5 10.15c2.67 1.34 5.46 2.83 8.19 4.43 1.65.93 3.34 1.9 4.94 2.93 13 8.14 20.61 22.37 20.15 33.49-.31 7.73-3.61 13.6-7.73 18.8-3.25 4.18-6.6 7.48-9.12 10.83-4.48 5.87-6.59 11.9-2 22.92a11.72 11.72 0 0 0 .78 1.75c.25.62.56 1.24.87 1.86 2.47 4.89 4.9 10 7.27 15.15 1.13 2.47 2.21 4.94 3.29 7.41 3.61 8.25 7 16.23 9.69 23.08.41 1 .82 2 1.24 3 .09.3.2.56.3.81.47 1.19.93 2.37 1.35 3.45.92 2.32 1.75 4.39 2.41 6.14l2.71 7.23Z"/><path fill="#26292c" d="M292.31 794.84c-3.22 10.95-18.49 6.28-28.15 43.89-.05-1.7 2-50.84 1.75-52.54-.41-3.36-1-6.81-1.75-10.36a54.51 54.51 0 0 1 11.39-14.38c14.94-14.11-1.89-50-1.89-50 39.34 34.75 22.06 71.8 18.65 83.39Z"/><path fill="#fcb295" d="M327.56 682.44V697s3.9 7.17 0 7.95c-8.59 1.72-21-11.68-21-11.68v-19.53Z"/><path fill="#fcb295" d="M326 706.05c-8.78 0-19.63-11.62-20.12-12.15l-.26-.28v-21.35l22.94 9.51v14.94c.56 1.09 2.5 5.14 1.39 7.51a2.9 2.9 0 0 1-2.18 1.64 9.4 9.4 0 0 1-1.77.18Zm-18.42-13.21c1.8 1.87 12.52 12.55 19.81 11.11a1 1 0 0 0 .78-.55c.57-1.21-.51-4.22-1.46-6l-.11-.48v-13.83l-19-7.88Z"/><path fill="#fcb295" d="M332.71 640s7.73 15.67 9.66 30.27c1.37 10.36-17.6 24-33.06 9.44s-11.16-36.92-11.16-36.92Z"/><path fill="#fcb295" d="M324.18 687.11c-5.46 0-10.9-2.26-15.54-6.65-15.67-14.79-11.5-37.58-11.46-37.81l.14-.74 36-2.9.29.59c.08.16 7.82 16 9.75 30.58.71 5.31-3.3 11.31-9.73 14.6a20.63 20.63 0 0 1-9.45 2.33ZM299 643.75c-.55 3.92-2.34 22.7 11 35.28 6.73 6.35 15.21 7.85 22.73 4 5.62-2.87 9.27-8.17 8.69-12.6-1.68-12.67-7.87-26.36-9.28-29.36Z"/><path fill="#26292c" d="M327.81 629.48c-12.7-7.81-31.92-7-40.39 10.56-3.77 7.8 1.73 22.37 6.57 29.76 3.8 5.81 11 10.55 14.79 2.87 2.93-5.89 2.45-11.35 2-17.64a28.24 28.24 0 0 1 0-6c3.05-4.14 7.19-7.06 11.84-7.09 1.18 1.18 12.9 13.88 18.69 5.31 14.69-21.84-11.51-16.55-13.5-17.77Z"/><path fill="#fcb295" d="M312.27 656.62s-6.22-2.89-7.46 2.09 3.3 7.95 5.7 7 3.2-7 1.76-9.09Z"/><path fill="#26292c" d="M513.48 731.8h38.85v38.85h-38.85z" transform="rotate(145.61 532.883 751.236)"/><path fill="#fff" d="M509.13 725.44h38.85v38.85h-38.85z" transform="rotate(145.61 528.555 744.861)"/><path fill="#26292c" d="m523.23 773.23-23.05-33.68 33.68-23 23 33.68Zm-20.31-33.17 20.83 30.44 30.43-20.83-20.83-30.44Z"/><path fill="#26292c" d="M521.14 684a95.33 95.33 0 1 0 106.4-82.83A95 95 0 0 0 521.14 684Zm24.84 3.1a70.3 70.3 0 1 1 61.08 78.45A70.29 70.29 0 0 1 546 687.11Z"/><path fill="#fc0" d="M514.12 679.1a95.33 95.33 0 1 0 106.4-82.83 95 95 0 0 0-106.4 82.83Zm24.88 3.09a70.3 70.3 0 1 1 61 78.46 70.29 70.29 0 0 1-61-78.46Z"/><path fill="#ffebde" d="M539 682.19a70.3 70.3 0 1 0 78.45-61.07A70.3 70.3 0 0 0 539 682.19Z" opacity=".16"/><path fill="#fff" d="M550.79 691.83a5.94 5.94 0 0 0 10.74-2.68 50.74 50.74 0 0 1 56.54-44 5.93 5.93 0 1 0 1.46-11.76 62.59 62.59 0 0 0-69.77 54.31 5.88 5.88 0 0 0 1.03 4.13Z"/><path fill="#26292c" d="M352.05 879.71a26.36 26.36 0 0 0 36.73 6.42L535.71 783l-30.31-43.21L358.47 843a26.37 26.37 0 0 0-6.42 36.71Z"/><path fill="#fc0" d="M346.28 871.49a26.36 26.36 0 0 0 36.72 6.43l146.94-103.19-30.31-43.16L352.7 834.76a26.35 26.35 0 0 0-6.42 36.73Z"/><path fill="#fff" d="M522.86 787.83c-3.11-1.11-6.39 1.28-8.17 3.64a16.43 16.43 0 0 0-2.08 2.38c-1-3.67-2.93-7.18-6.07-8.63-2.58-1.19-4.57-.45-4.78 1.78-.12 1.28 1.27 2.88 1.78 4.13C504.72 794 505.6 797 505 800c-.84 3.83-.43.88-.89-.92a25.35 25.35 0 0 0-2-5.55c-1.13-2.2-5.34-8.92-9.34-8-4.65 1 0 6.95 1.19 8.86.84 1.39 4.27 6.52 3.59 8.2a11.06 11.06 0 0 1-1.66-3.17c-.9-1.7-1.9-3.79-3.9-4.93-2.67-1.53-5.68-1.28-5.88 1.52-.15 1.93 2.81 4.83 3.84 6.39l1.8 2.93c.84 2.07.42 2-1.25-.35-1.38-1-2.73-2.56-4-3.64a2 2 0 0 0-2.33 0c-2.78 2.81 2 8 4.37 10.37 3.28 3.36 8.36 7.32 14 6.37 6.47-1.09 9.56-5.82 10.64-11.42a2.24 2.24 0 0 0 .45-.71c.56-1.48 1.07-3 1.6-4.55a12.85 12.85 0 0 1 3.4-3.78c1.59-1.2 3.61-1.79 5.13-3.06 2.24-2.03 2.13-5.64-.9-6.73Z"/><path fill="#26292c" d="M500.73 819.07c-4.17 0-8.51-2.28-12.94-6.81-2.17-2.23-7.94-8.13-4.36-11.75a3 3 0 0 1 3.67 0l.52.47c-1.32-1.66-2.67-3.48-2.55-5.13a3.44 3.44 0 0 1 1.76-2.9 5.85 5.85 0 0 1 5.31.45c-1.35-2.08-3-4.91-2.19-7a3.29 3.29 0 0 1 2.56-1.91c5.36-1.13 10.22 8.15 10.42 8.55a18.19 18.19 0 0 1 .83 1.81 24.32 24.32 0 0 0-1.14-3.31 10.66 10.66 0 0 0-.66-1.22 6 6 0 0 1-1.19-3.37 3.43 3.43 0 0 1 1.64-2.77 4.94 4.94 0 0 1 4.53.19c3.14 1.45 5 4.6 6 7.48q.43-.48.87-.9l.16-.16c2.06-2.76 5.77-5.11 9.19-3.87a4.41 4.41 0 0 1 3 3.42 5.2 5.2 0 0 1-1.86 4.85 15.2 15.2 0 0 1-2.89 1.76 16 16 0 0 0-2.28 1.32 12 12 0 0 0-3.14 3.5l-.39 1.19c-.37 1.08-.75 2.16-1.13 3.2a3.07 3.07 0 0 1-.46.8c-1.39 6.8-5.33 10.93-11.39 12a11.11 11.11 0 0 1-1.89.11Zm-15.55-17.24a.65.65 0 0 0-.36.07c-1.46 1.48 0 4.51 4.38 9 4.62 4.73 9 6.78 13.11 6.09 5.33-.9 8.64-4.48 9.84-10.64l.05-.27.18-.2a1.38 1.38 0 0 0 .26-.39c.39-1 .75-2.1 1.12-3.16l.48-1.38a13.65 13.65 0 0 1 3.76-4.25 16 16 0 0 1 2.57-1.51 13.48 13.48 0 0 0 2.52-1.52 3.28 3.28 0 0 0 1.19-3 2.48 2.48 0 0 0-1.72-1.91c-2.49-.9-5.34 1-7 3.3l-.13.17a15.52 15.52 0 0 0-2 2.23l-1.19 1.62-.55-1.93c-.8-2.86-2.41-6.57-5.53-8a3.17 3.17 0 0 0-2.73-.28 1.48 1.48 0 0 0-.66 1.25 5.07 5.07 0 0 0 .92 2.18 12.15 12.15 0 0 1 .79 1.49c1.14 2.77 2.21 6 1.48 9.37-.45 2-.62 2.67-1.56 2.64s-1-.93-1-1.7a10.74 10.74 0 0 0-.22-1.83 23.71 23.71 0 0 0-1.94-5.34c-1.67-3.25-5.36-8.18-8.25-7.52-.95.2-1.11.59-1.16.72-.54 1.32 1.44 4.3 2.38 5.74.24.36.45.67.6.92l.37.59c2.51 4 3.95 6.86 3.29 8.49l-.54 1.34-1.05-1a8.53 8.53 0 0 1-1.64-2.92c-.09-.23-.16-.41-.21-.51l-.17-.33c-.81-1.54-1.72-3.28-3.35-4.21-1.38-.79-2.86-1-3.69-.58A1.47 1.47 0 0 0 487 796c-.08 1 1.46 2.95 2.48 4.21.48.6.91 1.14 1.2 1.58l1.82 3c.48 1.16.95 2.32 0 2.83s-1.7-.45-2.8-2a21.53 21.53 0 0 1-2.44-2.18c-.51-.5-1-1-1.49-1.41a1.07 1.07 0 0 0-.59-.2Z"/><path fill="#fcb295" d="M259.67 886.75c35.71-1.37 74.22-25.25 93.83-39.94 7.73-5.84 12.35-9.93 12.35-9.93.1-1.53.45-18.61.45-18.61-2 0-55.42 19.52-82.54 23.71a36.46 36.46 0 0 1-14.27-.72c-3.48-1 2-30.63 8.9-41.89 3.08-5 13.8-70.66 9.05-77.48-6.61-9.49-20.76-9.35-27.57 0-13.09 18-19.69 27.4-34 57.69-.05.15-.16.28-.21.44-18.2 38.1-.81 108.06 34.01 106.73Z"/><path fill="#fcb295" d="M258.69 887.75c-10.25 0-19.59-6-27.05-17.29-15.79-24-18.95-65.6-6.91-90.89l.14-.28c14.38-30.34 20.87-39.7 34.2-58a18.54 18.54 0 0 1 14.93-7.45 17.39 17.39 0 0 1 14.26 7.48c4.86 7-5.69 73.13-9 78.56-7.09 11.61-11.4 38.47-9.36 40.49a35.91 35.91 0 0 0 13.75.64c19.69-3 53.06-14.12 71-20.07 8.9-3 11.05-3.65 11.69-3.65h1v1c0 .7-.35 17.12-.45 18.65v.41l-.3.27c-.05 0-4.73 4.18-12.41 10-12.06 9-54.48 38.62-94.38 40.15h-1Zm15.1-172a16.28 16.28 0 0 0-13.13 6.65C247.41 740.64 241 750 226.72 780a1.15 1.15 0 0 1-.15.29c-11.85 24.89-8.75 65.63 6.71 89.11 5.1 7.74 13.83 16.91 26.35 16.39C299 884.26 341 855 352.91 846c6.49-4.9 10.82-8.6 12-9.61.1-2.45.33-13.18.41-16.89-1.81.54-5.71 1.84-10.06 3.28-18 6-51.46 17.09-71.32 20.15a37.92 37.92 0 0 1-14.7-.75 2.09 2.09 0 0 1-1.32-1.38c-2.12-5.54 3.3-31.55 9.66-42 3.1-5.06 13.52-70 9.08-76.41A15.43 15.43 0 0 0 274 715.8Z"/><path fill="#fcb295" d="M382.93 826.09c3.79.31 12.21 2.2 12.55-1.6.16-1.79-4.66-3.4-7.05-3.62-11.85-1.07-6.06-2.66 1.81-1.47 4.08.62 5.61-1.88 1.81-4.31-5.9-3.77-14.17-2.69-20.93 0l.05-.06a10.32 10.32 0 0 0 2.75-4.22c.61-2.59-1.85-2.4-3.47-1.49-3 1.66-6.6 8.74-8.06 11.64-3.35 4.65-7.32 13.58-3.15 17.56 2.39 2.27 4.21.21 7.05 0 3.47-.2 13.53 4.81 16.88 2.44 4.46-3.16-7-3.91-5-6.63.72-1 17.14 2.72 11.66-3.43-1.19-1.32-9.95-3.53-6.9-4.81Z"/><path fill="#fcb295" d="M380.59 842.63c-2.45 0-5.54-.92-8.55-1.81-2.33-.69-4.57-1.4-5.68-1.28a9.92 9.92 0 0 0-2.29.51c-1.63.53-3.47 1.11-5.5-.82-4.56-4.35-.76-13.53 2.95-18.73 2.2-4.37 5.48-10.38 8.45-12 1.28-.74 3.07-1.1 4.17-.27a2.51 2.51 0 0 1 .74 2.83 7.22 7.22 0 0 1-.87 2c4.92-1.45 12.53-2.65 18.57 1.22 3 1.92 2.74 3.69 2.49 4.36-.46 1.21-1.87 1.79-3.75 1.86 2.44.71 5.32 2.07 5.14 4.1a3 3 0 0 1-1.13 2.12c-2.08 1.67-6.59 1.09-10.21.63l-.65-.09c.75.37 1.68.77 2.36 1 2 .83 3.19 1.36 3.75 2s1.9 2.13 1.16 3.61c-1 2-4.66 1.84-9.79 1.44a14.3 14.3 0 0 0-2.8-.16 12.66 12.66 0 0 0 2.3 1.2c1.85.81 3.59 1.58 3.74 3a2.8 2.8 0 0 1-1.44 2.37 5.38 5.38 0 0 1-3.16.91Zm-14.08-5.06a25.75 25.75 0 0 1 6.09 1.37c3.51 1 8.31 2.46 10 1.26.56-.4.63-.61.63-.61a9.28 9.28 0 0 0-2.58-1.41c-1.7-.74-3.3-1.45-3.64-2.72a1.94 1.94 0 0 1 .38-1.68c.52-.69 1.47-.65 4.7-.4 1.85.14 7.45.57 7.88-.35 0 0 .07-.39-.86-1.44a16.92 16.92 0 0 0-3.05-1.49c-3-1.28-4.76-2.06-4.76-3.39 0-.46.21-1.09 1.24-1.53l.22-.09h.25c.66 0 1.47.15 2.35.27 2.91.37 7.3.94 8.73-.21a1 1 0 0 0 .4-.77c0-.68-3.34-2.29-6.16-2.55-7-.63-7.32-1.35-7.55-1.88l-.23-.53.37-.6c1.23-1.6 9.37-.43 9.45-.41 1.72.25 2.72-.15 2.85-.5s-.26-1.09-1.71-2c-6.86-4.39-16.3-1.41-20 .08l-4.42 1.76 3.36-3.37a9.19 9.19 0 0 0 2.54-3.81c.12-.5.07-.76 0-.81a2.51 2.51 0 0 0-2 .41c-1.84 1-4.38 4.73-7.55 11v.11l-.19.26c-3.44 4.77-6.74 13-3.27 16.27 1.18 1.14 2 .86 3.54.38a11.34 11.34 0 0 1 2.77-.6Z"/><path fill="#08a742" d="M282.53 797.35c2.09-5 17.24-40.87 11-64.52-2.84-10.77-13.12-32.58-26.92-30-22.11 4.16-36.15 45.06-45 75.17 16.91 15.44 35.71 23.16 60.92 19.35Z"/><path fill="#fcb295" d="m359.89 821.13 4.89-1.55v16.47l-1 2-4.48 3s-6.78-3.93-5.15-9.69a27.93 27.93 0 0 1 5.74-10.23Z"/><path fill="#08a742" d="m720.8 1003.65 132.17-.19a14.07 14.07 0 0 1 14.08 14l.18 123.7a14.07 14.07 0 0 1-14 14.08l-132.17.19a14.05 14.05 0 0 1-14.08-14l-.18-123.7a14.06 14.06 0 0 1 14-14.08Z"/><path fill="#fff" d="M865.1 1082v61.32a10.71 10.71 0 0 1-10.68 10.68H720.66a10.71 10.71 0 0 1-10.66-10.67V1126l23.26-25.9a5.09 5.09 0 0 1 7.49-.13l30.74 31.78a5.11 5.11 0 0 0 7.44-.09l63.18-68.92a5.16 5.16 0 0 1 7.78.25Z"/><circle cx="755.3" cy="1043.48" r="19.35" fill="#fff"/><path fill="#08a742" d="m512.64 1008.2 130.8.15a13.9 13.9 0 0 1 13.89 13.92l-.14 122.42a13.9 13.9 0 0 1-13.92 13.89l-130.8-.14a13.92 13.92 0 0 1-13.9-13.93l.14-122.42a13.91 13.91 0 0 1 13.93-13.89Z"/><path fill="#08a742" d="m643.28 1159.54-130.79-.15a14.89 14.89 0 0 1-14.85-14.89l.14-122.41a14.88 14.88 0 0 1 14.87-14.84l130.8.14a14.88 14.88 0 0 1 14.84 14.89l-.13 122.41a14.89 14.89 0 0 1-14.88 14.85Zm-130.65-150.39a13 13 0 0 0-13 12.94l-.14 122.42a13 13 0 0 0 13 13l130.8.15a13 13 0 0 0 13-13l.14-122.41a13 13 0 0 0-13-13l-130.79-.15Z"/><path fill="#fff" d="m624.12 1108.88 5.55-16-9.77-4.37a42.5 42.5 0 0 0-.88-14.82l9.2-5.48-7.37-15.21-10 3.83a42.85 42.85 0 0 0-11.09-9.87l2.63-10.38-16-5.55-4.37 9.77a42.78 42.78 0 0 0-14.82.88l-5.48-9.2-15.22 7.37 3.83 10a42.69 42.69 0 0 0-9.87 11.09l-10.38-2.63-5.55 16 9.77 4.37a42.78 42.78 0 0 0 .88 14.82L526 1099l7.37 15.22 10-3.83a42.83 42.83 0 0 0 11.09 9.87l-2.62 10.38 16 5.55 4.38-9.78a42.46 42.46 0 0 0 14.81-.87l5.48 9.2 15.21-7.37-3.82-10a42.83 42.83 0 0 0 9.87-11.09Zm-57 3.57a30.53 30.53 0 1 1 38.88-18.83 30.54 30.54 0 0 1-38.91 18.83Z"/><path fill="#26292c" d="m1053.13 820.72-.49 457.55 119.51.03.3-610.53-119.51-.03.19 152.98z"/><path fill="#fc0" d="M1052 666.79h121.43v1l-.3 611.48h-121.42v-1l.48-457.55Zm119.51 1.93h-117.59l.19 152-.49 456.59h117.6Z"/><path fill="#fff" d="M1066.65 1171.15h10.26v38.08h-10.26z" transform="rotate(-89.94 1071.774 1190.193)"/><path fill="#fff" d="M1074.93 1198.42h10.25v54.73h-10.25z" transform="rotate(-89.94 1080.102 1225.792)"/><path fill="#fff" d="m1052.81 1124.02 38.07.04.01-10.25-38.07-.04-.01 10.25zM1052.77 1159.6l54.72.06.02-10.25-54.74-.06v10.25zM1052.88 1052.74l38.08.04v-10.25l-38.07-.04-.01 10.25z"/><path fill="#fff" d="M1075.08 1055.87h10.25v54.73h-10.25z" transform="rotate(-89.94 1080.253 1083.232)"/><path fill="#fff" d="M1066.87 957.32h10.25v38.08h-10.25z" transform="rotate(-89.94 1071.973 976.36)"/><path fill="#fff" d="M1075.16 984.59h10.25v54.72h-10.25z" transform="rotate(-89.94 1080.235 1011.955)"/><path fill="#fff" d="m1053.04 910.18 38.06.05.02-10.25-38.08-.05v10.25z"/><path fill="#fff" d="M1075.24 913.31h10.25v54.73h-10.25z" transform="rotate(-89.94 1080.298 940.677)"/><path fill="#fff" d="M1067.03 814.76h10.25v38.08h-10.25z" transform="rotate(-89.93 1072.184 833.795)"/><path fill="#fff" d="M1075.31 842.03h10.25v54.73h-10.25z" transform="rotate(-90 1079.34 869.51)"/><path fill="#fff" d="m1053.18 767.63 38.08.04.01-10.26-38.07-.04-.02 10.26zM1053.15 792.98h54.73v10.26h-54.73zM1053.23 721.71h54.72v10.25h-54.72z"/></svg>