<svg xmlns="http://www.w3.org/2000/svg" enable-background="new 0 0 600 500" viewBox="0 0 600 500"><path fill="#c6e2fa" d="M538.8 75.3h-47.5c-.2 0-.4-.2-.4-.4s.2-.4.4-.4h47.5c.2 0 .4.2.4.4s-.2.4-.4.4zM538.8 98.9h-47.5c-.2 0-.4-.2-.4-.4s.2-.4.4-.4h47.5c.2 0 .4.2.4.4s-.2.4-.4.4zM530.1 87.1h-67.3c-.2 0-.4-.2-.4-.4s.2-.4.4-.4h67.3c.2 0 .4.2.4.4s-.2.4-.4.4z"/><path fill="#c6e2fa" d="M501 75.3c-.2 0-.4-.2-.4-.4v-10c0-.2.2-.4.4-.4s.4.2.4.4v10c0 .2-.2.4-.4.4zM517.7 87.1c-.2 0-.4-.2-.4-.4V74.9c0-.2.2-.4.4-.4s.4.2.4.4v11.8c0 .2-.2.4-.4.4zM505 98.5c-.2 0-.4-.2-.4-.4V86.7c0-.2.2-.4.4-.4s.4.2.4.4v11.4c0 .2-.2.4-.4.4z"/><path fill="#d2e4ff" d="M78.4 439.8H328l144.4-2.5c29-12.4 53.5-33.7 67.8-59.8 17.6-32 19.8-70.6 5.9-103.9-7-16.8-19.8-38.8-37.8-47.1-29.1-13.4-57.7-29.2-80.6-52-25.3-25.2-47.4-53.7-74.9-76.6-27.4-22.9-62.1-40.1-97.7-37-41 3.6-76 34.1-94.8 70.7-12.8 25-19.2 52.8-22.4 80.6-2.8 24.4 1.4 53.6-20.1 70.9-7.1 5.7-16.3 8.9-24.6 13.2-29.3 14.9-48.8 44.5-49.4 74.9-.6 25.9 12.7 51.8 34.6 68.6z" opacity=".3"/><path fill="#d2e4ff" d="M440.9 68.4v191.4c0 4.8-4.1 8.7-9.3 8.7H209.3c-5.1 0-9.3-3.9-9.3-8.7V68.4c0-4.8 4.1-8.7 9.3-8.7h222.4c5.1 0 9.2 3.9 9.2 8.7z"/><path fill="#fff" d="M222.4 238.7h33.4v4h-33.4zM222.4 246h33.4v4h-33.4zM231.2 253.4h15.9v4h-15.9z"/><path d="M422.9 185.1H332c-4.2 0-7.6-3.4-7.6-7.6V86.6c0-4.2 3.4-7.6 7.6-7.6h90.9c4.2 0 7.6 3.4 7.6 7.6v90.9c0 4.2-3.4 7.6-7.6 7.6zM305.8 88.9v86.4c0 5.4-4.4 9.8-9.8 9.8h-96v-106h96c5.4 0 9.8 4.3 9.8 9.8z" opacity=".1"/><path fill="#060405" d="M146.6 439.8c0-.9-1.3-88.1-22.5-105.8-3-2.5-6.3-3.5-9.8-2.9-18.1 3-29.4 40.5-31.6 105.8-.1 2.5-.1 2.8-.2 2.9l-.9-.3.5.2-.5-.1c0-.2.1-1.3.1-2.7 1.3-38.1 7.3-102.6 32.5-106.7 3.8-.6 7.4.4 10.7 3.2 21.5 18 22.8 102.9 22.8 106.6l-1.1-.2z"/><path fill="#0461fd" d="M187.5 422.1v-4h-22.4c-.3 7.2-.9 21.2-1 21.2h36.5c1.2-12-13.1-17.2-13.1-17.2z"/><path fill="#060405" d="M200.1 434.1c.5 1.6.7 3.3.5 5.2h-36.5c.1 0 .2-2.2.4-5.2h35.6z"/><path fill="#ff7545" d="M256.5 422.5v-4h-22.4c-.3 7.2-.9 21.2-1 21.2h36.5c1.2-12-13.1-17.2-13.1-17.2z"/><path fill="#060405" d="M269 434.5c.5 1.6.7 3.3.5 5.2H233c.1 0 .2-2.2.4-5.2H269z"/><path fill="#fff" d="M196.6 222.7s4.5 5 4.9 8.3c.4 3.3-5.5 4.5-5.5 4.5s-23.9 52.5-42.7 56.3c-9.3 1.9-31.5-22.1-31.5-22.1l28.3-11.4 4.2 4L187 228s-3.9-10.7 0-9.8c3.9.9 3.2 5.4 3.2 5.4s7.7-14.6 11.9-12.5c4.1 2-5.5 11.6-5.5 11.6z"/><path fill="#060405" d="M152.2 292.4c-10 0-29.9-21.4-30.8-22.4-.1-.1-.2-.3-.1-.4 0-.2.1-.3.3-.4l28.3-11.4c.2-.1.4 0 .5.1l3.8 3.7 32.2-33.7c-.7-1.8-2.7-7.9-1.1-9.7.3-.3.8-.7 1.8-.5 2.4.5 3.3 2.3 3.6 4 2.3-4 7.9-12.9 11.6-11 .7.4 1.2.9 1.3 1.7.5 3.2-4.8 8.8-6.3 10.4 1.1 1.2 4.4 5.3 4.7 8.2.4 3.3-4.5 4.7-5.7 5-2 4.2-24.6 52.6-42.9 56.4-.4-.1-.8 0-1.2 0zm-29.6-22.6c3.2 3.4 20.8 21.5 29.5 21.5.4 0 .7 0 1.1-.1 18.3-3.8 42.1-55.5 42.3-56 .1-.1.2-.3.4-.3.1 0 5.4-1.1 5.1-3.9-.3-3.1-4.7-8-4.8-8-.2-.2-.2-.5 0-.7 1.9-1.9 6.8-7.3 6.4-9.9-.1-.4-.3-.7-.7-1-2.7-1.4-8.3 6.8-11.2 12.3-.1.2-.4.3-.6.2-.2-.1-.4-.3-.3-.6 0-.2.6-4.1-2.8-4.8-.6-.1-.7.1-.8.2-1 1.1.3 6.1 1.4 9 .1.2 0 .4-.1.5l-32.8 34.2c-.2.2-.5.2-.7 0l-4-3.8-27.4 11.2z"/><path fill="#ff7545" d="M134.2 232.4c1.2.4 15.7 13.2 19 25.2 1.3 2.3-19.6 14.1-20.9 11.8l-7.2-15.6 9.1-21.4z"/><path fill="#fff" d="M146.2 369.4c-64.1 23.4-98.9-24.6-100.8-68.6-1.9-44.3 10.9-69 26.6-70.3 13.9-1.2 25.6 18.6 27.7 28.9 2.1 10.3 17 69.1 36.3 77.6 19.3 8.6 10.2 32.4 10.2 32.4z"/><path fill="#060405" d="M114.3 376c-13.3 0-25.4-3.5-35.9-10.5-19.5-13-32.3-37.8-33.5-64.6-2-47.2 12.1-69.6 27.1-70.9 14.2-1.2 26.1 18.7 28.2 29.3 2.7 13.4 17.6 69.1 36 77.3 19.5 8.6 10.6 32.7 10.5 32.9l-.1.2-.2.1c-11.2 4.2-22 6.2-32.1 6.2zM73.2 231H72c-14 1.2-28.1 23.5-26.1 69.8 1.1 26.6 13.8 51 33 63.9 18.2 12.1 41.3 13.6 66.9 4.3.8-2.4 7.6-23.6-10-31.5-18.8-8.3-33.9-64.5-36.6-78-2-9.9-12.9-28.5-26-28.5z"/><path fill="#060405" d="M130.1 309.9s54-10.1 70.5-.8c10.6 6 58.3 110.4 58.3 110.4.2 2.9-29.5 4.7-29.6 1.8L177.8 344l-38.3 11.8-21.6-26.2 12.2-19.7z"/><path fill="#ff7545" d="M90.1 224c-6.2 1.9-17.2 8.2-21.7 14.4-9.8 23.7 23.2 105.1 23.2 105.1l62.6-26.2s-10.5-22.2-11.9-30.1c-2.3-12.5.6-39.3-4.5-50.5-2.9-6.2-14.4-11.3-21.3-13-5.5-1.2-19.9-1.6-26.4.3z"/><path fill="#fff" d="M141.1 295.2c-.5-.8-13.9 3.7-13.9 3.7s-45.6 37-63.3 25.4c-11.2-7.4-9.6-47.5-9.6-47.5l26.3-3.9v25l44.4-10s1.4-6.9 4.6-6c3.2.9 1.8 3.6 1.8 3.6s12-.4 14.5 6c3.3 8.2-3.8 5.1-4.8 3.7z"/><path fill="#060405" d="M72.6 327c-3.4 0-6.4-.7-8.9-2.4-11.3-7.4-9.9-46.3-9.8-48v-.4l27.3-4.1V297l43.5-9.8c.3-1.1 1.2-4.6 3.1-5.7.6-.4 1.3-.5 2-.3 1.1.3 1.9.9 2.2 1.7.3.7.2 1.4.1 1.9 2.7 0 12 .5 14.2 6.3 1.2 3.2 1.2 5.2-.3 6-1.6.8-4.5-.6-5.3-1.6-1.1-.1-7.5 1.8-13.3 3.7-2.2 1.9-34.5 27.8-54.8 27.8zm-17.7-49.9c-.1 4.3-.9 40 9.3 46.7 17.2 11.3 62.3-25 62.7-25.4l.2-.1c13.7-4.6 14.2-3.8 14.4-3.5.4.7 2.9 2 4.1 1.4.9-.5.8-2.1-.2-4.7-2.3-6-13.9-5.7-14-5.7h-.8l.4-.8s.5-1 .1-1.8c-.2-.5-.8-.9-1.6-1.1-.4-.1-.8-.1-1.2.2-1.5.9-2.5 4.2-2.8 5.4l-.1.3-45.3 10.2v-25l-25.2 3.9zm85.8 18.3z"/><path fill="#ff7545" d="M70.1 236.5s9.2 2.4 11.1 15.3c2 13.4.1 27.4.1 27.4-1.1 2.5-28.2 2.4-28.2 0 0-.4 3-29.5 17-42.7z"/><path fill="#060405" d="M67.7 281.5c-5.2 0-10.3-.3-12.7-.8-1.7-.4-2.5-.8-2.5-1.5h1c.7.9 10.5 1.7 19.7 1.2 5.4-.3 7.2-1 7.5-1.3.2-1.3 1.8-14.6-.1-27.2l1-.1c2 13.3.1 27.4.1 27.6v.1c-.6 1.4-7.3 2-14 2z"/><path fill="#ff7545" d="M187.5 422.5v-4h-22.4c-.3 7.2-.9 21.2-1 21.2h36.5c1.2-12-13.1-17.2-13.1-17.2z"/><path fill="#060405" d="M200.1 434.5c.5 1.6.7 3.3.5 5.2h-36.5c.1 0 .2-2.2.4-5.2h35.6zM90.1 339.7c-.1.7 4.4 14.5 16 18.1 11.6 3.5 30.7-5.7 30.7-5.7l26.8 69.1c.3 2 25.8-.3 25.5-2.4 0 0-5.7-95.9-21.5-110.3-10.7-9.7-72.6 15.3-77.5 31.2z"/><path fill="#060405" d="M112.8 439.4c0-.8-1.3-75.2-21.5-92.4-3.3-2.8-6.9-3.9-10.9-3.4-18.1 2.6-29.4 35.7-31.6 93.2-.1 2.4-.1 2.5-.2 2.6l-.9-.4.5.2-.5-.1c0-.2.1-1.1.1-2.3 1.3-33.6 7.3-90.5 32.4-94.2 4.2-.6 8.1.6 11.6 3.6 20.5 17.5 21.8 90.1 21.8 93.2h-.8z"/><path fill="#060405" d="M140.4 248.7h1v17.4h-1z" transform="rotate(-1.83 140.851 257.427) scale(1.00001)"/><path fill="#fff" d="M106.6 236.5c-5.8 3-19.4-11.2-19.4-11.2l-.5-35.2 17.8 20.7s2 7.5 4.8 11.8c2.2 3.3.9 12-2.7 13.9z"/><path fill="#060405" d="M104.8 237.4c-6.6 0-17.4-11.2-17.9-11.7l-.1-.1-.5-36.7 18.8 22c0 .1 2 7.5 4.7 11.7 1.2 1.9 1.4 5.6.5 9.1-.7 2.7-2 4.6-3.5 5.5-.6 0-1.3.2-2 .2zm-17-12.3c3.8 4 14.2 13.2 18.6 10.9 1.3-.7 2.3-2.4 3-4.8.8-3.1.7-6.6-.4-8.3-2.6-4.1-4.5-10.8-4.8-11.8l-16.9-19.6.5 33.6z"/><path fill="#fff" d="M87.5 190.6c.3.4 3 28.6 20 26.7 17-1.9 12.6-37 5-44.8-7.6-7.8-23.1-.8-23.1-.8l-5 12.3 3.1 6.6z"/><path fill="#060405" d="M106 217.9c-9.3 0-15.9-9.2-18.8-26.3-.1-.4-.1-.7-.1-.8l-3.2-6.8 5.2-12.6.2-.1c.6-.3 15.9-7 23.6.9 5.7 5.8 9.2 24.8 5.1 36.3-2 5.5-5.6 8.8-10.4 9.3-.6.1-1.1.1-1.6.1zm-18.1-27.5c.1.1.1.3.2 1.1 3 17.7 9.6 26.4 19.3 25.4 4.5-.5 7.7-3.4 9.6-8.6 3.9-11 .5-29.8-4.9-35.3-6.8-7-20.6-1.5-22.3-.8L84.9 184l3 6.4z"/><ellipse cx="101.6" cy="190.8" fill="#060405" rx="1.2" ry="1.7" transform="rotate(-2.204 101.636 190.85) scale(1.00004)"/><ellipse cx="112.9" cy="190.7" fill="#060405" rx="1.2" ry="1.7" transform="rotate(-2.204 112.862 190.756) scale(1.00004)"/><path fill="#060405" d="m107.3 201.5-.6-.8c.4-.3.9-.4 1.3-.4h.3c.4-.1.6-.2.7-.4 0-.2-.3-.5-.5-.7-1.7-1.8-2.5-4.5-1.9-6.9l1 .2c-.5 2.1.1 4.4 1.6 5.9.4.4.9.9.8 1.7-.1.6-.7 1-1.5 1.2h-.3c-.4 0-.7.1-.9.2zM105.4 210.2c-.5 0-1-.1-1.5-.3-.9-.4-1.7-1.2-2-2.1l.9-.4c.3.7.8 1.3 1.5 1.6.7.3 1.5.3 2.2 0l.4.9c-.5.2-1 .3-1.5.3z"/><path fill="#060405" d="M120 178.3c-6.7 2.2-24.8-1.9-25.3.6s-1.6 17.7-2.8 15.8c-2.2-3.5-3-9.3-3.1.7.1 3.8-1 18.1-1 18.1-.6-1.8-3.9-5.4-6.1-9.2-4-6.7-1.6-24.6-1.6-24.6s-4.6-3.9-2.8-7.9c1.8-4.1 30.8-20.5 36.7-19.8 5.7.6 2.6 9.9 2.3 10.6.5-.6 4.8-5.8 6.7-2.1 2.8 6.3 4 15.3-3 17.8z"/><path fill="#fff" d="M225.1 292.3c.5 2.1-.7 4.2-2.8 4.7l-62.9 15.6c1-.3 1.9-.9 2.4-1.8s.7-1.9.4-2.9c-.5-2.1-2.6-3.4-4.7-2.9l62.9-15.6c2-.4 4.1.9 4.7 2.9z"/><path fill="#fff" d="M162.1 307.9c.3 1 .1 2.1-.4 2.9s-1.3 1.5-2.4 1.8l-50.9 12.6c-2.1.5-4.2-.8-4.7-2.8-.5-2.1.7-4.2 2.8-4.7l50.9-12.6c2.1-.6 4.2.7 4.7 2.8z"/><path fill="#060405" d="M103.2 322.5c-.6-2.3.8-4.7 3.2-5.3l50.9-12.6c1.1-.3 2.3-.1 3.3.5s1.7 1.6 2 2.7c.3 1.1.1 2.3-.5 3.3s-1.6 1.7-2.7 2l-50.9 12.6c-2.4.6-4.7-.9-5.3-3.2zm55.1-17c-.3 0-.5 0-.8.1l-50.9 12.6c-1.8.5-2.9 2.3-2.5 4.1.5 1.8 2.3 2.9 4.1 2.5l50.9-12.6c.9-.2 1.6-.8 2.1-1.5.5-.8.6-1.7.4-2.6-.2-.9-.8-1.6-1.5-2.1-.6-.4-1.2-.5-1.8-.5z"/><path fill="#060405" d="M225.1 292.3c.5 2.1-.7 4.2-2.8 4.7l-62.9 15.6c1-.3 1.9-.9 2.4-1.8s.7-1.9.4-2.9c-.5-2.1-2.6-3.4-4.7-2.9l62.9-15.6c2-.4 4.1.9 4.7 2.9z"/><path fill="#060405" d="M159.3 313.1c-.2 0-.4-.2-.5-.4-.1-.3.1-.5.4-.6.9-.2 1.6-.8 2.1-1.5.5-.8.6-1.7.4-2.6-.2-.9-.8-1.6-1.5-2.1-.8-.5-1.7-.6-2.6-.4-.3.1-.5-.1-.6-.4-.1-.3.1-.5.4-.6l62.9-15.6c2.4-.6 4.7.9 5.3 3.2.6 2.3-.8 4.7-3.2 5.3L159.5 313l-.2.1zm.9-8.2c.1.1.3.1.4.2 1 .6 1.7 1.6 2 2.7.3 1.1.1 2.3-.5 3.3-.1.1-.2.2-.2.4l60.2-14.9c1.9-.5 2.9-2.3 2.5-4.1-.5-1.8-2.3-2.9-4.1-2.5l-60.3 14.9z"/><path fill="#fff" d="m222.5 232.7-61.4 15.2c-1.6.4-2.7 1.7-2.8 3.3l-2.5 49.4c-.1 2.4 2.1 4.3 4.5 3.7l61.4-15.2c1.6-.4 2.7-1.7 2.8-3.3l2.5-49.4c.1-2.5-2.1-4.3-4.5-3.7z"/><path fill="#060405" d="M159.5 304.9c-.9 0-1.9-.3-2.6-.9-1-.8-1.6-2.1-1.5-3.4l2.5-49.4c.1-1.8 1.4-3.4 3.1-3.8l61.4-15.2c1.3-.3 2.6 0 3.6.8s1.6 2.1 1.5 3.4l-2.5 49.4c-.1 1.8-1.4 3.4-3.1 3.8l-61.4 15.2c-.4.1-.7.1-1 .1zm63.1-71.8-61.4 15.2c-1.4.3-2.3 1.5-2.4 2.9l-2.5 49.4c-.1 1 .4 1.9 1.1 2.6.8.6 1.8.9 2.7.6l61.4-15.2c1.4-.3 2.3-1.5 2.4-2.9l2.5-49.4c.1-1-.4-1.9-1.1-2.6-.7-.6-1.7-.8-2.7-.6zM155.9 309.4c.1.6-.2 1.2-.8 1.3l-7.8 1.9c-.6.1-1.2-.2-1.3-.8-.1-.6.2-1.2.8-1.3l7.8-1.9c.6-.1 1.2.3 1.3.8zM143.9 312.4c.1.6-.2 1.2-.8 1.3l-5.4 1.3c-.6.1-1.2-.2-1.3-.8-.1-.6.2-1.2.8-1.3l5.4-1.3c.6-.1 1.1.2 1.3.8z"/><path fill="#060405" d="M199.9 270.1c-.5 3.5-3.4 7-6.4 7.8-3 .8-5.1-1.4-4.6-4.9.5-3.5 3.4-7 6.4-7.8 3.1-.8 5.1 1.4 4.6 4.9z"/><path fill="#6193f6" d="M301.2 83.3v86.4c0 5.4-4.4 9.8-9.8 9.8H163.8c-5.4 0-9.8-4.4-9.8-9.8V83.3c0-5.5 4.4-9.8 9.8-9.8h127.6c5.4 0 9.8 4.4 9.8 9.8z"/><circle cx="168.1" cy="83.7" r="2.5" fill="#fff"/><circle cx="176.1" cy="83.7" r="2.5" fill="#fff"/><circle cx="184" cy="83.7" r="2.5" fill="#fff"/><path fill="#fff" d="M211.4 98.7h-14.3c-.6 0-1-.5-1-1 0-.6.5-1 1-1h14.3c.6 0 1 .5 1 1 0 .6-.4 1-1 1zM190.6 98.7H172c-.6 0-1-.5-1-1 0-.6.5-1 1-1h18.6c.6 0 1 .5 1 1 .1.6-.4 1-1 1zM241.6 107.1H228c-.6 0-1-.5-1-1 0-.6.5-1 1-1h13.5c.6 0 1 .5 1 1 .1.5-.4 1-.9 1zM222.3 107.1h-14.6c-.6 0-1-.5-1-1 0-.6.5-1 1-1h14.6c.6 0 1 .5 1 1s-.4 1-1 1zM201.8 107.1h-22.5c-.6 0-1-.5-1-1 0-.6.5-1 1-1h22.5c.6 0 1 .5 1 1s-.5 1-1 1zM279.9 115.4h-40.1c-.6 0-1-.5-1-1 0-.6.5-1 1-1h40.1c.6 0 1 .5 1 1 .1.5-.4 1-1 1zM235.2 115.4h-18.3c-.6 0-1-.5-1-1 0-.6.5-1 1-1h18.3c.6 0 1 .5 1 1s-.4 1-1 1zM210.2 115.4h-31c-.6 0-1-.5-1-1 0-.6.5-1 1-1h31c.6 0 1 .5 1 1s-.4 1-1 1zM234.8 123.7h-55.5c-.6 0-1-.5-1-1 0-.6.5-1 1-1h55.5c.6 0 1 .5 1 1 0 .6-.4 1-1 1zM279.9 132.1h-43.5c-.6 0-1-.5-1-1 0-.6.5-1 1-1h43.5c.6 0 1 .5 1 1 .1.5-.4 1-1 1zM227.1 132.1h-16.9c-.6 0-1-.5-1-1 0-.6.5-1 1-1h16.9c.6 0 1 .5 1 1s-.4 1-1 1zM205 132.1h-25.7c-.6 0-1-.5-1-1 0-.6.5-1 1-1H205c.6 0 1 .5 1 1s-.5 1-1 1zM228.5 140.4h-10.9c-.6 0-1-.5-1-1 0-.6.5-1 1-1h10.9c.6 0 1 .5 1 1s-.4 1-1 1zM212 140.4h-32.7c-.6 0-1-.5-1-1 0-.6.5-1 1-1H212c.6 0 1 .5 1 1s-.5 1-1 1zM216.9 148.7h-18.3c-.6 0-1-.5-1-1 0-.6.5-1 1-1h18.3c.6 0 1 .5 1 1 0 .6-.4 1-1 1zM193.3 148.7H172c-.6 0-1-.5-1-1 0-.6.5-1 1-1h21.3c.6 0 1 .5 1 1 .1.6-.4 1-1 1zM243.1 157h-21.7c-.6 0-1-.5-1-1 0-.6.5-1 1-1h21.7c.6 0 1 .5 1 1 0 .6-.5 1-1 1zM215 157h-36.4c-.6 0-1-.5-1-1 0-.6.5-1 1-1H215c.6 0 1 .5 1 1 0 .6-.4 1-1 1zM237.3 165.4h-31.7c-.6 0-1-.5-1-1 0-.6.5-1 1-1h31.7c.6 0 1 .5 1 1 .1.5-.4 1-1 1zM198.9 165.4h-20.4c-.6 0-1-.5-1-1 0-.6.5-1 1-1h20.4c.6 0 1 .5 1 1s-.4 1-1 1zM416.9 179.3H326c-4.2 0-7.6-3.4-7.6-7.6V80.9c0-4.2 3.4-7.6 7.6-7.6h90.9c4.2 0 7.6 3.4 7.6 7.6v90.9c-.1 4.1-3.5 7.5-7.6 7.5z"/><circle cx="351.9" cy="106.9" r="23.2" fill="#6193f6"/><path fill="#fff" d="M356.5 96.2s3.1 9.1 3.1 11c0 4.1-4.3 2.8-4.3 2.8l-4-.2-2.2-1.2-1.2-2.2s-.6-4.7-.4-4.8c.2-.1 1.4-5.9 1.6-6s2.7-.4 3-.3c.3-.1 4.4.9 4.4.9z"/><path fill="#efc102" d="M362.3 123.9s-3.5-9.8-10.3-9.5c-6.8.4-8.6 9.5-8.6 9.5s8.6 5 18.9 0z"/><path fill="#fff" d="M352.9 110.5c.1.2 1.4 5.8.2 6.6-.6.4-1.8.4-2.8.3-.8-.1-1.5-.7-1.7-1.5l-.4-5.3h4.7z"/><path fill="#060405" d="M350.1 99s-.5 8.4 1.8 9c2.3.5 3.2-2 4.8-1.5 1.6.5 2.8.8 2.8.8s.7 3.8-2.2 4.8c-2.9 1-8.2.2-9.2-1.4s-3.6-19 1.5-20.3c5.1-1.3 2.1 1.9 2.1 1.9s4.4-3.7 4.8-2.2c.4 1.5-.6 2.7-.6 2.7s4.8-.3 2.2 2.8c-2.6 3.1-7.3 1.6-8 3.4z"/><path fill="#060405" d="M355.6 105.2c-.1 0-.1 0 0 0v-1c-.1 0-.1-.1-.1-.2s-.1-.2-.2-.3l-.1-.2c-.3-.6-.5-1.3-.5-2l1 .1c0 .5.1 1 .3 1.5l.1.1c.1.1.2.3.2.4.1.3.2.6.1.9-.1.4-.4.7-.8.7z"/><ellipse cx="353.2" cy="101.3" fill="#181659" rx=".4" ry=".6" transform="rotate(-6.975 353.014 101.291)"/><ellipse cx="356.9" cy="100.6" fill="#181659" rx=".5" ry=".6" transform="rotate(-6.975 356.735 100.554)"/><path fill="#fff" d="M355.8 109.8c-.2 0-.4 0-.6-.1l.2-1c.6.1 1.3 0 1.8-.5l.7.7c-.6.6-1.3.9-2.1.9z"/><path fill="#d2e4ff" d="M412.6 95.6v7.5c0 1.2-1 2.3-2.3 2.3h-24.6c-1.2 0-2.3-1-2.3-2.3v-7.5c0-1.2 1-2.3 2.3-2.3h24.6c1.3 0 2.3 1 2.3 2.3zM412.6 111v7.5c0 1.2-1 2.3-2.3 2.3h-24.6c-1.2 0-2.3-1-2.3-2.3V111c0-1.2 1-2.3 2.3-2.3h24.6c1.3.1 2.3 1.1 2.3 2.3zM334.6 136.6h81.1v3.2h-81.1zM334.6 146.9h81.1v3.2h-81.1zM334.6 157.2h81.1v3.2h-81.1z"/><path fill="#efc102" d="M256.1 232.8h-33.9c-1.9 0-3.5-1.6-3.5-3.5v-30.6c0-1.9 1.6-3.5 3.5-3.5h33.9c1.9 0 3.5 1.6 3.5 3.5v30.6c-.1 2-1.6 3.5-3.5 3.5z"/><path fill="#fff" d="M228.6 224.6c-.6-.6-.6-1.5 0-2.1l18.9-18.9c.6-.6 1.5-.6 2.1 0 .6.6.6 1.5 0 2.1l-18.9 18.9c-.6.6-1.5.6-2.1 0z"/><path fill="#fff" d="m247.5 224.6-18.9-18.9c-.6-.6-.6-1.5 0-2.1.6-.6 1.5-.6 2.1 0l18.9 18.9c.6.6.6 1.5 0 2.1-.6.6-1.5.6-2.1 0zM273.5 238.7h33.4v4h-33.4zM273.5 246h33.4v4h-33.4zM282.3 253.4h15.9v4h-15.9z"/><path fill="#efc102" d="M307.2 232.8h-33.9c-1.9 0-3.5-1.6-3.5-3.5v-30.6c0-1.9 1.6-3.5 3.5-3.5h33.9c1.9 0 3.5 1.6 3.5 3.5v30.6c0 2-1.6 3.5-3.5 3.5z"/><path fill="#fff" d="M279.7 224.6c-.6-.6-.6-1.5 0-2.1l18.9-18.9c.6-.6 1.5-.6 2.1 0 .6.6.6 1.5 0 2.1l-18.9 18.9c-.6.6-1.5.6-2.1 0z"/><path fill="#fff" d="m298.6 224.6-18.9-18.9c-.6-.6-.6-1.5 0-2.1.6-.6 1.5-.6 2.1 0l18.9 18.9c.6.6.6 1.5 0 2.1-.5.6-1.5.6-2.1 0z"/><path fill="#6193f6" d="M444 251.9H330.5c-3.3 0-6-2.7-6-6v-44.8c0-3.3 2.7-6 6-6H444c3.3 0 6 2.7 6 6v44.8c-.1 3.3-2.8 6-6 6z"/><path fill="#fff" d="M343.4 222.8h13.4v16.9h-13.4zM364 214.1h13.4v25.6H364zM384.7 217.8h13.4v22h-13.4z"/><path fill="#060405" d="m458 295-.7 127.5h16l15.2-85.3 13 85.3h16l1.5-129.2z"/><path fill="#fff" d="M407 181.8c.5 2.4 4.3 6.6 4.3 6.6-.4 0-4.6 49.7 3.7 52.8 8.3 3.1 32.3-5.4 32.3-5.4l-7.1-23.4-8.2 1.9-11.4-29.3 1.7-11.2s-6.3-20.6-7.6-20.2c-1.3.4-1.2 17.9-1.2 17.9s-7 7.9-6.5 10.3z"/><path fill="#060405" d="M419.8 242.3c-2 0-3.7-.2-5-.7-8.6-3.2-4.5-50.5-4-53.1-.8-.9-3.7-4.3-4.2-6.6-.5-2.5 5.1-9 6.5-10.6 0-17.7 1.2-18.1 1.6-18.2.5-.1 1.7-.5 8.2 20.5v.1l-1.7 11.2 11.1 28.7 8.3-1.9L448 236l-.4.2c-1 .3-17.6 6.1-27.8 6.1zm-8.1-53.4c-.9 4.8-3.7 49.1 3.5 51.8 7.4 2.8 28.2-4.1 31.5-5.3l-6.8-22.5-8.2 1.8-11.6-29.7 1.7-11.2c-2.6-8.4-5.7-17.6-6.9-19.5-.5 1.9-.9 9.8-.8 17.1v.2l-.1.1c-2.7 3-6.8 8.3-6.4 9.9.5 2.3 4.1 6.3 4.1 6.3l.8.8h-.8z"/><path fill="#fff" d="M483.1 193.7c.7-4.6 1.7-11.9 1.5-13.7-.2-2.2-6.5-.7-7.1-6.7-.6-6 17.5-31.7 23-30.2s17 15.8 16.8 16.1c-.1.3-15.5 21.9-16.5 32.7l-17.7 1.8z"/><path fill="#060405" d="M482.5 194.3c.3-2.2 1.8-12.2 1.6-14.2 0-.5-.7-.7-1.9-1.1-1.9-.6-4.9-1.6-5.3-5.6-.5-5.1 11-22.2 18.2-28.3 2.3-2 4.1-2.8 5.4-2.4 5.7 1.5 16.7 15.3 17.2 16.3l.1.2-.1.3s-.1.2-.3.4c-16.6 24.3-16.1 32.3-16.2 32.5l-18.7 1.9zm13.3-48.4c-7.5 6.3-18.3 23-17.9 27.4.3 3.4 2.7 4.1 4.6 4.8 1.3.4 2.5.8 2.6 1.9.2 1.6-.6 7.6-1.4 13.2l16.7-1.6c1.1-8.9 11.2-24.8 16.4-32.3-1.2-1.9-11.4-14.2-16.4-15.6-1.4-.4-3.6 1.3-4.6 2.2z"/><path fill="#b580d8" d="M521.3 195.8c-11.7-7.4-34.5-8.6-51.7-4.4-4.5 1.1-30.9 16.4-30.9 16.4-4.5 2.6-1.2 26.7 5.3 30.6l13.4-2-2.6 65.6c.3 2.9 66.8-1.9 66.5-4.8 0 0-4.8-34.7-3.1-46.3.8-5.2 10.2-50.6 3.1-55.1z"/><path fill="#fff" d="M511.8 272.6c.9 3.5 4.3 8.1 4.1 8.7-.2.6-.2.8-.6 1.5-.4.7-1.9 4.1.6 4.2 2.5.1 7.2-6 6.7-8-.6-2-.4-4.5 3.2-5.7 0 0 28.8-16.8 29.9-23.5 1.2-6.7-13.2-23.6-13.6-24.3l-19.7 13.8 10.2 10.1-14.2 14.8c0 .1-7.6 4.8-6.6 8.4z"/><path fill="#060405" d="M515.9 287.6c-1 0-1.5-.5-1.7-.8-.8-1.4.6-4 .6-4.1.3-.5.3-.7.4-1l.1-.3c-.1-.3-.6-1.3-1.1-2.2-1-1.8-2.4-4.2-2.9-6.3-1.1-3.9 6-8.4 6.8-8.8l13.8-14.4-10.2-10.2 20.7-14.5.3.5c.1.1.5.7 1 1.4 5.8 7.5 13.5 18 12.6 23.3-1.2 6.9-29 23.2-30.2 23.9h-.1c-2.6.8-3.6 2.6-2.9 5.1.4 1.6-1.5 4.2-2.1 4.9-1.4 1.6-3.5 3.5-5.1 3.5zm7.2-48.1 10.1 10-14.6 15.3c-2 1.2-7.1 5-6.4 7.8.5 1.9 1.9 4.3 2.8 6.1 1.1 1.9 1.4 2.5 1.2 2.9l-.1.4c-.1.4-.2.7-.5 1.2-.4.7-1.1 2.4-.6 3.1 0 .1.2.3.8.3 1 0 2.7-1.3 4.3-3.3 1.5-1.9 2-3.5 1.9-4.1-.9-3 .4-5.3 3.5-6.3 9.9-5.8 28.8-18 29.7-23.1 1-5.4-9.1-18.3-12.4-22.5-.4-.5-.7-.8-.8-1.1l-18.9 13.3z"/><path fill="#b580d8" d="M520.6 195.4c1.7.5 16.2 19.1 23.3 30.5 1.2 1-19.7 20-20.9 19 0 0-9.7-8.3-12.8-12.5-2.7-3.9 10.4-37 10.4-37z"/><path fill="#060405" d="M501.9 187.2s-6.5 2.1-8-8.1c-1.6-10.2 15.5-25.4 12.9-25.9s-16.8-5.3-16.3-8.8c.5-3.5 4.2-3.1 4.2-3.1s-4.7-9 5.9-9.9c10.7-1 28.9 18.3 26.1 27.9-2.9 9.6-24 20-24.8 27.9z"/><path fill="#6193f6" d="M457.3 425.3v-2.8h16c.2 5.1.6 15.1.7 15.1h-26c-.9-8.5 9.3-12.3 9.3-12.3z"/><path fill="#060405" d="M448.4 433.9c-.3 1.1-.5 2.4-.4 3.7h26s-.1-1.5-.3-3.7h-25.3z"/><path fill="#6193f6" d="M501.5 425.3v-2.8h16c.2 5.1.6 15.1.7 15.1h-26c-.8-8.5 9.3-12.3 9.3-12.3z"/><path fill="#060405" d="M492.6 433.9c-.3 1.1-.5 2.4-.4 3.7h26s-.1-1.5-.3-3.7h-25.3zM490.4 155.2c-.2 1 .3 1.6 1.2 1.4.9-.2 1.9-1.1 2.1-2 .3-1-.3-1.6-1.2-1.5-.9.2-1.8 1.1-2.1 2.1zM481.7 166.8c-.1-.3.1-.5.3-.6.3-.1.5.1.6.3.3 1 1.4 1.8 2.5 1.7.3 0 .5.2.5.5s-.2.5-.5.5c-1.4.2-2.9-.9-3.4-2.4zM457 237.5c-.1 0-.3-.1-.4-.2-.2-.2-.2-.5 0-.7 4-3.9 7.1-8.8 9-14 .1-.3.4-.4.6-.3.3.1.4.4.3.6-1.9 5.4-5.1 10.4-9.2 14.4-.1.1-.2.2-.3.2zM519.5 242.1h-.1c-.3-.1-.4-.3-.4-.6l2.5-12.3c.1-.3.3-.4.6-.4.3.1.4.3.4.6l-2.5 12.3c-.1.2-.3.4-.5.4zM490.3 120.8c-7.7 2.5-15.7 1.2-22-2.9l3.9-5.3-.9-.7-.9-.7-4 5.4c-4.1-3.1-7.2-7.5-8.9-12.7-4.4-13.7 3.2-28.4 16.9-32.8 13.7-4.4 28.4 3.2 32.8 16.9 4.4 13.7-3.1 28.4-16.9 32.8z"/><path fill="#060405" d="m455.6 127.6 1.7 1.3 13.6-18.3-1.7-1.3z"/><path fill="#fff" d="m476.3 100.4-8-3.6c-.4-.2-.7-.6-.7-1v-.2c0-.5.3-.8.7-1l8-3.6c.3-.1.7-.1.9.2.4.4.3 1.1-.3 1.3l-7.3 3.2 7.3 3.2c.6.2.7.9.3 1.3-.2.2-.6.3-.9.2zM479.6 102.4l5.3-15.6c.3-1 1.9-.6 1.6.6l-5.3 15.6c-.4 1-2 .5-1.6-.6zM488.8 100.2c-.4-.4-.3-1.1.3-1.3l7.3-3.2-7.3-3.2c-.6-.2-.7-.9-.3-1.3.3-.3.6-.3.9-.2l8 3.6c.4.2.7.6.7 1v.2c0 .5-.3.8-.7 1l-8 3.6c-.2.1-.6.1-.9-.2z"/><path fill="#6193f6" d="M324 398.7c-4.1 1.4-11.2 1.9-15.5-7.5-4.4-9.4.9-26-6.8-33.4 0 0 9 .2 17 8.1 8.1 7.9 18.3 28.2 5.3 32.8z"/><path fill="#6193f6" d="M348.4 377.4c-1.9 7.4-6.3 12.8-14.2 11.8-5.6-.7-14.1-4.1-13.8-17.7.3-13.5 15.9-29.9 11.3-42.8.3.2 10.4 5.6 15.2 19.2 0 0 .2.6.2.7 3 9.2 3.3 21.9 1.3 28.8z"/><path fill="#060405" d="M334 368.3h1v45.1h-1z"/><path fill="#6193f6" d="M368.6 357.8c-3.4 3.2-4.2 8.3-4.5 13.7v.7c-.4 8.4.4 15.6-3.8 21.7-4.4 6.5-10.4 5.9-14 4.7-12.7-4.4-3.2-24.5 5.3-32.8 8-7.7 17-8 17-8z"/><path fill="#060405" d="M328.2 399.2h34.7v1h-34.7z" transform="rotate(-63.812 345.516 399.695)"/><path fill="#060405" d="M324.3 382.3h1V417h-1z" transform="rotate(-26.224 324.719 399.638)"/><path fill="#fff" d="M343.1 439.8h-14c-.8 0-1.6-.6-1.7-1.4l-5.6-24.3c-.2-1 .6-2 1.7-2l25.5-.1c1.1 0 1.9 1 1.7 2l-5.8 24.3c-.2.9-.9 1.5-1.8 1.5z"/><path fill="#060405" d="M343.1 440.3h-14c-1.1 0-2-.8-2.2-1.9l-5.6-24.3c-.2-1.4.8-2.6 2.2-2.6l25.4.1c1.4 0 2.4 1.2 2.2 2.6l-5.8 24.3c-.1 1-1.1 1.8-2.2 1.8zm0-1c.6 0 1.1-.4 1.2-1l5.8-24.3c.1-.7-.4-1.4-1.2-1.4l-25.4-.1c-.8 0-1.3.7-1.2 1.4l5.6 24.3c.1.6.6 1.1 1.2 1.1h14z"/><path fill="#fff" d="M364.1 371.5v.7l-3.3 1.7-.3-.6 3.6-1.8zM360.6 393.4c-.1.2-.2.4-.4.6l-1.4-1.7.5-.4 1.3 1.5zM347 348.6l-5 4.4-.4-.5 5.3-4.6c-.1.1.1.7.1.7zM326.3 365.2l-.4.5-3.6-3.2c.1-.2.2-.4.2-.7l3.8 3.4zM348.5 376.7c-.1.2-.1.4-.2.7-.6-.4-1.7-1.2-3.5-2.6l.3-.6c1.3 1 2.6 1.9 3.4 2.5z"/><path fill="#c6e2fa" d="M292.5 302.4H245c-.2 0-.4-.2-.4-.4s.2-.4.4-.4h47.5c.2 0 .4.2.4.4s-.2.4-.4.4zM292.5 326H245c-.2 0-.4-.2-.4-.4s.2-.4.4-.4h47.5c.2 0 .4.2.4.4s-.2.4-.4.4zM283.8 314.2h-67.3c-.2 0-.4-.2-.4-.4s.2-.4.4-.4h67.3c.2 0 .4.2.4.4s-.2.4-.4.4z"/><path fill="#c6e2fa" d="M254.7 302.4c-.2 0-.4-.2-.4-.4v-10c0-.2.2-.4.4-.4s.4.2.4.4v10c0 .3-.2.4-.4.4zM271.4 314.2c-.2 0-.4-.2-.4-.4V302c0-.2.2-.4.4-.4s.4.2.4.4v11.8c0 .2-.2.4-.4.4zM258.7 325.6c-.2 0-.4-.2-.4-.4v-11.4c0-.2.2-.4.4-.4s.4.2.4.4v11.4c0 .2-.2.4-.4.4zM450.2 350.8h-47.5c-.2 0-.4-.2-.4-.4s.2-.4.4-.4h47.5c.2 0 .4.2.4.4s-.2.4-.4.4zM450.2 374.4h-47.5c-.2 0-.4-.2-.4-.4s.2-.4.4-.4h47.5c.2 0 .4.2.4.4s-.2.4-.4.4zM441.6 362.6h-67.3c-.2 0-.4-.2-.4-.4s.2-.4.4-.4h67.3c.2 0 .4.2.4.4s-.2.4-.4.4z"/><path fill="#c6e2fa" d="M412.5 350.8c-.2 0-.4-.2-.4-.4v-10c0-.2.2-.4.4-.4s.4.2.4.4v10c-.1.2-.2.4-.4.4zM429.2 362.6c-.2 0-.4-.2-.4-.4v-11.8c0-.2.2-.4.4-.4s.4.2.4.4v11.8c-.1.2-.2.4-.4.4zM416.5 374c-.2 0-.4-.2-.4-.4v-11.4c0-.2.2-.4.4-.4s.4.2.4.4v11.4c-.1.2-.2.4-.4.4zM153.9 109.3h-47.5c-.2 0-.4-.2-.4-.4s.2-.4.4-.4h47.5c.2 0 .4.2.4.4s-.2.4-.4.4zM153.9 132.8h-47.5c-.2 0-.4-.2-.4-.4s.2-.4.4-.4h47.5c.2 0 .4.2.4.4s-.2.4-.4.4zM145.3 121.1H78.1c-.2 0-.4-.2-.4-.4s.2-.4.4-.4h67.3c.2 0 .4.2.4.4s-.3.4-.5.4z"/><path fill="#c6e2fa" d="M116.2 109.3c-.2 0-.4-.2-.4-.4v-10c0-.2.2-.4.4-.4s.4.2.4.4v10c0 .2-.2.4-.4.4zM132.9 121.1c-.2 0-.4-.2-.4-.4v-11.8c0-.2.2-.4.4-.4s.4.2.4.4v11.8c0 .2-.2.4-.4.4zM120.2 132.5c-.2 0-.4-.2-.4-.4v-11.4c0-.2.2-.4.4-.4s.4.2.4.4v11.4c0 .2-.2.4-.4.4z"/></svg>