<svg xmlns="http://www.w3.org/2000/svg" enable-background="new 0 0 3000 3000" viewBox="0 0 3000 3000"><path fill="#ffcd5c" d="M500.1 1965.83h879.74v152.12H500.1z"/><path fill="#d8776a" d="m658.98 1965.83-71.33 152.12H500.1v-33.45l55.65-118.67zM867.37 1965.83l-71.25 152.12h-103.3l71.32-152.12zM1075.83 1965.83l-71.32 152.12h-103.3l71.32-152.12zM1284.23 1965.83l-71.33 152.12h-103.3l71.32-152.12zM1379.84 1985.93v132.02h-61.85zM594.19 2117.98h88.52v449.08h-88.52z"/><path fill="#ea907f" d="M594.19 2145.81h63.62v421.25h-63.62z"/><path fill="#d8776a" d="M1173.29 2117.98h88.52v449.08h-88.52z"/><path fill="#ea907f" d="M1173.29 2145.81h63.63v421.25h-63.63z"/><path fill="#43b5d5" d="M500.1 1965.83h879.74v40.57H500.1z" opacity=".44"/><g><path fill="#ffcd5c" d="M1196.19 2544.29h-194.25c-11.5 0-20.06-8.4-17.6-17.27l90.67-326.98c1.81-6.53 9.13-11.18 17.6-11.18h12.92c8.46 0 15.79 4.65 17.6 11.18l90.67 326.98c2.45 8.87-6.11 17.27-17.61 17.27z"/><path fill="#e9e9f2" d="M1198.04 2470.24h-197.96l9.15-33.09h179.66zM1172.87 2379.4h-147.62l9.15-33h129.32z"/><path fill="#f4b442" d="M1258.15 2572.22H939.97v-53.96c0-1.06.86-1.92 1.92-1.92h314.35c1.06 0 1.92.86 1.92 1.92v53.96z"/><path fill="#d89935" d="M1210.84 2516.31H987.28l3.14-11.23h217.28z"/></g><g><path fill="#e9e9f2" d="m1944.86 2573.74-927.8 153.94 299.76 51.1 1293.56-205.25zM1334.42 2571.94l-781.97 57.33 228.09 44.51 806.78-101.95z"/><path fill="#b8b8d1" d="M2684.84 2575.96h-270.46c-2.28 0-4.12-1.85-4.12-4.12s1.85-4.12 4.12-4.12h270.46c2.28 0 4.12 1.85 4.12 4.12s-1.85 4.12-4.12 4.12zM2378.32 2575.96H315.16c-2.28 0-4.12-1.85-4.12-4.12s1.85-4.12 4.12-4.12h2063.16a4.12 4.12 0 0 1 0 8.24z"/></g><g><path fill="#d9d9e7" d="M2604.45 238.38H395.55c-15.08 0-27.31 12.23-27.31 27.31V395.2h2263.52V265.69c0-15.08-12.23-27.31-27.31-27.31z"/><path fill="#e9e9f2" d="M1039.34 363.35a5.44 5.44 0 0 1-5.44-5.44V234.65c0-7.42-6.01-13.43-13.43-13.43H586.39c-7.42 0-13.43 6.01-13.43 13.43v123.26a5.44 5.44 0 0 1-5.44 5.44H368.24v1226.22c0 26.7 21.64 48.34 48.34 48.34h2166.83c26.7 0 48.34-21.64 48.34-48.34V363.35H1039.34z"/><path fill="#d9d9e7" d="m611.28 581.33 697.38 2.91c48.36.2 87.39 39.56 87.19 87.9l-2.91 697.38c-.2 48.36-39.56 87.39-87.92 87.19l-697.38-2.91c-48.34-.2-87.38-39.56-87.17-87.92l2.91-697.38c.2-48.34 39.56-87.37 87.9-87.17z"/><path fill="#e9e9f2" d="M482.43 267.42c-17.55 0-31.83 14.28-31.83 31.83s14.28 31.83 31.83 31.83 31.83-14.28 31.83-31.83-14.28-31.83-31.83-31.83zm0 61.38c-4.82 0-9.08-6.19-11.39-15.07 3.53.64 7.34 1.04 11.39 1.04 4.05 0 7.86-.39 11.39-1.04-2.31 8.88-6.57 15.07-11.39 15.07zm0-16.33c-4.25 0-8.3-.45-12-1.21-.36-1.73-.64-3.54-.84-5.42h25.67c-.2 1.88-.48 3.68-.84 5.42-3.69.75-7.73 1.21-11.99 1.21zm0-42.76c4.82 0 9.08 6.19 11.39 15.07-3.53-.64-7.34-1.04-11.39-1.04-4.05 0-7.86.39-11.39 1.04 2.31-8.88 6.57-15.07 11.39-15.07zm0 16.33c4.25 0 8.3.45 12 1.21.36 1.76.65 3.6.85 5.51h-25.69c.2-1.91.49-3.75.85-5.51 3.69-.76 7.74-1.21 11.99-1.21zm-15.19 6.76c-3.08.11-5.55 2.6-5.55 5.7v1.6c0 3.11 2.48 5.6 5.56 5.7.16 1.68.43 3.28.72 4.84-8.88-2.31-15.07-6.57-15.07-11.39s6.19-9.08 15.07-11.39c-.3 1.6-.57 3.22-.73 4.94zm30.37 13.04c3.18 0 5.75-2.57 5.75-5.74v-1.6c0-3.17-2.57-5.73-5.73-5.74-.17-1.7-.44-3.31-.73-4.9 8.88 2.31 15.07 6.57 15.07 11.39s-6.19 9.08-15.07 11.39c.28-1.55.55-3.13.71-4.8zm13.53-13.28c-3.07-3.18-8.26-5.72-14.78-7.24-1.52-6.51-4.06-11.71-7.24-14.78 10.91 2.55 19.47 11.12 22.02 22.02zm-35.4-22.01c-3.18 3.07-5.72 8.26-7.24 14.78-6.51 1.52-11.71 4.06-14.78 7.24 2.55-10.91 11.12-19.48 22.02-22.02zm-22.02 35.4c3.07 3.18 8.26 5.72 14.78 7.24 1.52 6.51 4.06 11.71 7.24 14.78-10.9-2.55-19.47-11.12-22.02-22.02zm35.4 22.01c3.18-3.07 5.72-8.26 7.24-14.78 6.51-1.52 11.71-4.06 14.78-7.24-2.55 10.91-11.11 19.48-22.02 22.02z"/><circle cx="2388.63" cy="299.25" r="18.8" fill="#e9e9f2"/><circle cx="2464.93" cy="299.25" r="18.8" fill="#e9e9f2"/><circle cx="2541.23" cy="299.25" r="18.8" fill="#c8c8dc"/><path fill="#c8c8dc" d="M2305.06 1048.84h136.33v41.84h-136.33z" transform="matrix(-1 -.00418 .00418 -1 4741.953 2149.425)"/><path fill="#d9d9e7" d="M2049.42 1047.97h232.57v41.84h-232.57z" transform="matrix(-1 -.00418 .00418 -1 4326.916 2146.823)"/><path fill="#d9d9e7" d="M1780.5 1046.87h245.84v41.84H1780.5z" transform="matrix(-1 -.00418 .00418 -1 3802.365 2143.534)"/><path fill="#c8c8dc" d="M2176.84 1142.98h264.15v41.84h-264.15z" transform="matrix(-1 -.00418 .00418 -1 4612.95 2337.452)"/><path fill="#d9d9e7" d="M1959.07 1141.93h194.7v41.84h-194.7z" transform="matrix(-1 -.00418 .00418 -1 4107.965 2334.286)"/><path fill="#c8c8dc" d="M1780.11 1141.1H1936v41.84h-155.89z" transform="matrix(-1 -.00418 .00418 -1 3711.234 2331.798)"/><path fill="#d9d9e7" d="M2024.18 1236.83h293.72v41.84h-293.72z" transform="matrix(-1 -.00418 .00418 -1 4336.811 2524.556)"/><path fill="#d9d9e7" d="M1779.71 1235.65h221.4v41.84h-221.4z" transform="matrix(-1 -.00418 .00418 -1 3775.554 2521.037)"/></g><g><path fill="#c8c8dc" d="M736.41 1130c5.89 28.55 17.14 55.06 32.49 78.64l-41.16 49.77.09.1-.09.12 57.86 58.15 49.59-41.46c5.98 3.93 12.15 7.61 18.51 10.96a223.94 223.94 0 0 0 22.8 10.64 226.62 226.62 0 0 0 37.06 11.15l1 10.92h.03l4.85 53.3h81.86l4.85-53.3h.03l.97-10.92c27.76-5.79 53.53-16.69 76.59-31.58.63-.37 1.22-.75 1.82-1.16l49.62 41.46 57.83-58.15-.09-.12.09-.1-41.16-49.77c15.35-23.58 26.57-50.09 32.52-78.64l64.09-5.92v-82.48l-64.09-5.92c-5.95-28.55-17.17-55.06-32.52-78.64l41.16-49.77-.09-.09.09-.12-57.83-58.15-49.62 41.46c-.6-.41-1.19-.79-1.82-1.17-23.06-14.89-48.84-25.78-76.59-31.57l-.97-10.92h-.03l-4.85-53.3h-81.86l-4.85 53.3h-.03l-1 10.92a224.968 224.968 0 0 0-37.06 11.15c-7.8 3.12-15.44 6.67-22.8 10.61-6.36 3.37-12.53 7.05-18.51 10.99l-49.59-41.46-57.86 58.15.09.12-.09.09 41.16 49.77c-15.35 23.58-26.6 50.09-32.49 78.64l-64.15 5.92v82.48l64.15 5.9zm94.51-47.16c0-71.87 57.95-130.11 129.47-130.11 1.23 0 2.48.03 3.7.03 69.79 1.99 125.8 59.44 125.8 130.08 0 71.87-57.98 130.11-129.5 130.11-70.29 0-127.46-56.25-129.44-126.39 0-1.24-.03-2.5-.03-3.72z"/><path fill="#b8b8d1" d="M609.18 1060.66s-.1 0-.28.03c.16.06.28-.03.28-.03zM1085.76 1275.11c-66.52 30.85-119.06 6.3-119.06 6.3l-5.84 90.49 40.53.32 5.91-64.58c27.52-5.74 54.16-16.52 78.46-32.53zM736.31 1036.04c25.34-69.09 79.76-89.07 79.76-89.07l-59.54-68.14-28.89 28.57 41.25 49.86c-15.4 23.63-26.66 50.18-32.58 78.78zM1184.48 1130.08c-25.34 69.09-79.75 89.07-79.75 89.07l59.54 68.14 28.89-28.57-41.26-49.86c15.4-23.62 26.66-50.18 32.58-78.78zM1007.18 857.85c68.74 25.47 88.62 80.16 88.62 80.16l67.8-59.84-28.43-29.03-49.61 41.46c-23.5-15.49-49.93-26.8-78.38-32.75zM757.19 1287.96l28.43 29.03 49.61-41.46c5.94 3.93 12.1 7.57 18.43 10.97 6.47 3.45 13.14 6.6 19.98 9.42 12.78 5.32 26.13 9.45 39.97 12.36-13.87-5.15-25.75-11.46-35.87-18.28a155.963 155.963 0 0 1-22.1-18.01c-22.82-22.33-30.65-43.86-30.65-43.86l-67.8 59.83zM768.86 1209.07c-30.69-66.86-6.27-119.66-6.27-119.66l-90.04-5.87-.32 40.73 64.25 5.94c5.72 27.65 16.45 54.43 32.38 78.86zM1151.93 957.06c30.69 66.86 6.27 119.66 6.27 119.66l90.04 5.87.32-40.73-64.25-5.94c-5.72-27.65-16.45-54.43-32.38-78.86zM835.02 890.56c66.52-30.85 119.06-6.3 119.06-6.3l5.84-90.5-40.53-.32-5.91 64.57c-27.51 5.76-54.15 16.54-78.46 32.55z"/><path fill="#b8b8d1" d="M1181.24 728.17c-.28-1.39-.63-2.71-.97-4.04a92.23 92.23 0 0 0-10.02-24.08c-.56-.9-1.11-1.74-1.67-2.58-.07-.14-.14-.21-.21-.35l16.29-19.63-.07-.07.07-.07-22.83-22.83v-.07l-19.56 16.36c-.28-.14-.49-.35-.77-.49-.9-.56-1.81-1.18-2.78-1.67-.21-.14-.49-.28-.7-.42-2.16-1.25-4.38-2.44-6.68-3.55-5.01-2.44-10.37-4.38-15.87-5.78-.07 0-.07 0-.14-.07-1.32-.35-2.64-.7-4.04-.97l-.42-4.32-1.88-21.02h-32.29l-1.95 21.02-.42 4.32c-5.01 1.04-9.88 2.58-14.62 4.38-1.74.7-3.55 1.46-5.22 2.37-3.76 1.81-7.52 3.83-11.07 6.19l-19.56-16.36-22.83 22.9v.14l16.22 19.63v.07c-.77 1.18-1.46 2.37-2.23 3.55a87.955 87.955 0 0 0-5.57 11.21v.07a78.651 78.651 0 0 0-2.92 8c-.84 2.64-1.53 5.36-2.09 8.07v.07h-.07l-25.26 2.3v32.57l25.33 2.37v.07c.9 4.18 2.02 8.21 3.48 12.25a94.734 94.734 0 0 0 9.12 18.44c.07.07.14.21.21.28l-.07.07-16.15 19.56v.07l19.14 19.21 3.69 3.76 19.56-16.36c2.37 1.53 4.8 2.99 7.31 4.32 2.92 1.53 5.92 2.92 8.98 4.18 4.52 1.81 9.19 3.2 13.99 4.25.21.07.42.07.63.14v.14l.42 4.18 1.95 21.02h32.29l1.88-21.02.42-4.32h.07c6.96-1.46 13.57-3.76 19.84-6.75 3.48-1.67 6.96-3.55 10.3-5.71.28-.14.49-.28.77-.42l19.56 16.36 11.48-11.62 11.34-11.34-.07-.07h.07l-16.22-19.56-.07-.07c5.29-8.14 9.4-17.26 11.9-26.87.35-1.39.7-2.78.97-4.18l25.26-2.37v-32.57l-25.25-2.29zm-88.39 69.95c-27.77 0-50.32-22.2-51.09-49.9v-1.46c0-28.33 22.83-51.36 51.09-51.36.49 0 .97.07 1.46.07 27.49.77 49.62 23.45 49.62 51.29 0 28.39-22.9 51.36-51.08 51.36z"/><path fill="#d9d9e7" d="M1143.93 746.75c0 28.4-22.9 51.36-51.09 51.36-27.77 0-50.32-22.2-51.09-49.9v-1.46c0-28.33 22.83-51.36 51.09-51.36.49 0 .97.07 1.46.07 27.5.76 49.63 23.45 49.63 51.29z"/><path fill="#a7a7c6" d="M954.23 738.01s-.04 0-.11.01c.06.03.11-.01.11-.01zM1142.31 822.64c-26.25 12.17-46.98 2.49-46.98 2.49l-2.31 35.71 15.99.13 2.33-25.48c10.87-2.27 21.38-6.53 30.97-12.85zM1004.4 728.3c10-27.26 31.47-35.15 31.47-35.15l-23.5-26.89-11.4 11.27 16.28 19.68c-6.07 9.32-10.51 19.8-12.85 31.09zM1181.27 765.41c-10 27.26-31.47 35.15-31.47 35.15l23.5 26.89 11.4-11.28-16.28-19.68c6.07-9.31 10.51-19.79 12.85-31.08zM1111.3 657.98c27.13 10.05 34.97 31.63 34.97 31.63l26.76-23.62-11.22-11.46-19.58 16.36c-9.27-6.1-19.7-10.57-30.93-12.91zM1012.64 827.71l11.22 11.46 19.58-16.36c2.34 1.55 4.78 2.99 7.27 4.33 2.55 1.36 5.19 2.61 7.88 3.72 5.04 2.1 10.31 3.73 15.78 4.88-5.47-2.03-10.16-4.52-14.16-7.21-3.38-2.28-6.27-4.7-8.72-7.11-9.01-8.81-12.1-17.31-12.1-17.31l-26.75 23.6zM1017.25 796.58c-12.11-26.39-2.47-47.22-2.47-47.22l-35.53-2.32-.13 16.08 25.36 2.34c2.25 10.91 6.48 21.48 12.77 31.12zM1168.42 697.13c12.11 26.39 2.47 47.22 2.47 47.22l35.53 2.32.13-16.07-25.36-2.34c-2.25-10.92-6.48-21.49-12.77-31.13zM1043.36 670.89c26.25-12.17 46.98-2.49 46.98-2.49l2.31-35.71-15.99-.13-2.33 25.48c-10.86 2.27-21.38 6.53-30.97 12.85z"/><path fill="#c8c8dc" d="m970.36 1151.28-.13 29.88c18.63-2.13 36.78-9.23 52.32-21.3l-21.15-21.22c-9.44 6.64-20.08 10.85-31.04 12.64z"/><path fill="#a7a7c6" d="M1040.33 1142.32c12.26-15.36 19.54-33.37 21.84-51.88l-30.02-.13a74.218 74.218 0 0 1-12.96 30.79l21.14 21.22z"/><path fill="#c8c8dc" d="m914.39 1138.28-21.31 21.03c15.44 12.2 33.53 19.44 52.13 21.74l.12-29.87a74.968 74.968 0 0 1-30.94-12.9z"/><path fill="#a7a7c6" d="m1040.86 1013.48-21.31 21.03a73.993 73.993 0 0 1 12.7 30.9l30.02.13a103.64 103.64 0 0 0-21.41-52.06z"/><path fill="#c8c8dc" d="M875.99 1012.78c-12.26 15.36-19.54 33.37-21.84 51.88l30.02.13c1.89-10.9 6.2-21.45 12.96-30.8l-21.14-21.21z"/><path fill="#a7a7c6" d="m1001.93 1016.83 21.31-21.03c-15.44-12.2-33.53-19.45-52.14-21.75l-.12 29.87a74.838 74.838 0 0 1 30.95 12.91z"/><path fill="#c8c8dc" d="m884.06 1089.69-30.02-.13c2.15 18.53 9.28 36.59 21.42 52.06l21.31-21.03a74.036 74.036 0 0 1-12.71-30.9zM945.96 1003.82l.12-29.87c-18.63 2.14-36.78 9.23-52.32 21.3l21.13 21.21a74.772 74.772 0 0 1 31.07-12.64z"/></g><g><path fill="#d89935" d="m1996.6 2319.68 68.14-26.22h417.73l-50.95 110.33z"/><path fill="#d89935" d="m2482.47 2577.43-50.95 26.22v-283.97l50.95-26.22z"/><path fill="#c8c8dc" d="m2458.76 2243.2 2.95-31.08 42.14-19.11-26.2-9.5c-4.88-1.76-10.32-.8-14.28 2.55l-30.68 25.92a14.488 14.488 0 0 0-4.9 13.65l3.62 19.86-113.9 107.83-13.7-4.97a9.757 9.757 0 0 0-9.63 1.72l-20.7 17.49a9.782 9.782 0 0 0-3.31 9.21l.95 5.23 31.42-14.23 17.16 12.27-1.99 20.97-28.43 12.9 17.68 6.41c3.29 1.19 6.96.54 9.63-1.72l20.7-17.49a9.782 9.782 0 0 0 3.31-9.21l-2.61-14.34 125.35-94.27 18.98 6.88c4.88 1.76 10.32.8 14.28-2.55l30.68-25.92c3.96-3.35 5.82-8.54 4.9-13.65l-1.41-7.75-46.56 21.09-25.45-18.19z"/><path fill="#b8b8d1" d="m2425.74 2261.72-91.35 84.54c-4.05 3.74-4.42 10.02-.84 14.26 3.57 4.23 9.83 4.92 14.2 1.55l98.62-75.93c4.65-3.58 5.36-10.34 1.55-14.85l-7.27-8.61c-3.82-4.51-10.6-4.95-14.91-.96z"/><path fill="#c8c8dc" d="m2254.49 2392.25 24.11 19.83-7.74 45.62 22.54-16.4a14.47 14.47 0 0 0 5.87-13.26l-4.31-39.93c-.56-5.16-3.82-9.61-8.57-11.7l-18.48-8.11-25.64-154.73 11.78-8.57a9.764 9.764 0 0 0 3.96-8.95l-2.91-26.94a9.8 9.8 0 0 0-5.78-7.9l-4.86-2.14-5.78 34-19.77 7.35-16.27-13.38 5.22-30.78-15.21 11.07a9.764 9.764 0 0 0-3.96 8.95l2.91 26.94a9.771 9.771 0 0 0 5.78 7.89l13.34 5.86 8 156.64-16.32 11.87a14.47 14.47 0 0 0-5.87 13.26l4.31 39.93c.56 5.16 3.82 9.61 8.57 11.7l7.21 3.17 8.57-50.39 29.3-10.9z"/><path fill="#b8b8d1" d="m2257.62 2354.51-18.96-123.02c-.84-5.45-5.84-9.27-11.34-8.67-5.51.59-9.57 5.4-9.23 10.9l7.75 124.23c.37 5.86 5.57 10.23 11.44 9.6l11.21-1.21c5.87-.64 10.02-6.02 9.13-11.83z"/><path fill="#c8c8dc" d="m2340.65 2234.19-19.31-25.5a11.32 11.32 0 0 0-10.45-4.41l-31.62 4.02a11.3 11.3 0 0 0-9.01 6.89l-12.31 29.52a11.462 11.462 0 0 0 1.44 11.3l5.99 7.89 1.43 11.21c.49 3.86 2.98 7.15 6.54 8.66l13.84 5.84 16.86 91.34c.76 4.11 4.57 6.91 8.7 6.38l7.18-.91c4.12-.52 7.12-4.19 6.82-8.36l-.17-2.37 4.96-.63c1-.13 1.81-.88 2.01-1.87l1.56-7.63c.32-1.59-1.01-3.03-2.61-2.83l-6.77.86-.42-5.99 7.37-.94a2.36 2.36 0 0 0 2.04-2.65l-1.44-11.33-.49-3.87-.19-1.52c-.17-1.3-1.35-2.22-2.64-2.05l-6.16.78-.42-5.99 5.83-.74a2.36 2.36 0 0 0 2.04-2.65l-.39-3.03c-.17-1.3-1.35-2.22-2.64-2.05l-5.39.69-.55-7.84 4.96-.63a2.36 2.36 0 0 0 2.04-2.65l-.38-2.97-.31-2.41-.38-2.97c-.17-1.3-1.35-2.22-2.64-2.05l-4.22.54 2.28-16.26 11.94-9.11c3.07-2.35 4.65-6.16 4.16-10.02l-1.43-11.21 3.81-9.14c1.53-3.79.98-8.09-1.46-11.34zm-40.37 13.04c-6.91.88-13.23-4.04-14.12-10.99-.88-6.95 4-13.29 10.92-14.17 6.91-.88 13.23 4.04 14.12 10.99.88 6.95-4.01 13.29-10.92 14.17z"/><path fill="#b8b8d1" d="m2296.87 2304.94 12.05 69.63c.53 3.08 3.39 5.2 6.48 4.81 3.09-.39 5.32-3.16 5.07-6.28l-5.76-70.43c-.27-3.32-3.25-5.75-6.54-5.33l-6.29.8c-3.3.42-5.58 3.52-5.01 6.8z"/><path fill="#ffcd5c" d="m2430.03 2319.68 52.44-26.22 28.35 35.12-49.07 38.87z"/><path fill="#a7a7c6" d="M2223.18 2299v-.08l-19.69-1.83c-.87-4.29-2.14-8.41-3.81-12.3 0-.08 0-.16-.08-.16-.71-1.83-1.59-3.65-2.46-5.4-.16-.32-.32-.63-.48-.95-.87-1.67-1.83-3.26-2.78-4.76-.16-.24-.24-.4-.4-.63l12.62-15.32v-.08l-17.78-17.86-15.24 12.78c-.24-.16-.4-.32-.56-.4-.63-.4-1.27-.72-1.91-1.11-.32-.16-.64-.4-.95-.56-1.59-.87-3.18-1.75-4.76-2.54-.32-.16-.56-.24-.87-.4-1.67-.79-3.41-1.51-5.16-2.14-.32-.16-.56-.24-.79-.32-1.83-.63-3.65-1.19-5.48-1.67-.32-.08-.56-.16-.87-.24-.95-.24-1.83-.56-2.78-.71l-.32-3.41-1.51-16.35h-25.17l-1.83 19.77c-3.97.79-7.78 1.98-11.43 3.41-2.38.95-4.76 2.06-6.99 3.26-.48.24-.87.48-1.27.71-1.19.64-2.3 1.35-3.41 2.06-.32.24-.71.4-1.03.64l-15.24-12.78-17.78 17.86v.08l-.08.08 12.7 15.32c-4.13 6.35-7.3 13.34-9.21 20.96-.32 1.03-.56 2.06-.79 3.17l-19.77 1.83v25.41l19.77 1.83c.48 2.06.95 4.05 1.59 6.03 0 .16.08.4.16.56.48 1.59 1.03 3.18 1.67 4.76.4.95.79 1.91 1.19 2.94.4.71.71 1.43 1.03 2.14.79 1.67 1.67 3.26 2.54 4.76.08.16.16.24.24.32.48.95.95 1.83 1.51 2.7l-12.54 15.24v.08l14.21 14.29 3.57 3.73 15.24-12.78c.64.4 1.35.72 1.98 1.11.48.32 1.03.63 1.51.95.79.4 1.43.87 2.22 1.27 1.98 1.11 4.05 2.06 6.11 2.94a78.53 78.53 0 0 0 12.31 3.81c-.16-.08-.32-.16-.4-.24.08.08.24.08.4.16v.08l.32 3.25 1.51 16.43h25.17l1.83-19.77c5.08-1.11 9.92-2.78 14.53-4.84.64-.32 1.27-.63 1.91-.87.87-.48 1.83-.95 2.7-1.43 1.19-.63 2.38-1.35 3.65-2.14.24-.16.48-.24.79-.48.16-.08.32-.16.56-.32l15.24 12.78 13.5-13.58 4.37-4.29-.08-.08v-.08l-12.62-15.24c4.76-7.3 8.18-15.4 10-24.21l19.69-1.83v-21.44l.08-3.89h-.1zm-88.67 57.55c-24.29 0-44.06-19.45-44.7-43.66v-1.27c0-24.85 20.01-45.01 44.7-45.01h1.35c24.13.71 43.51 20.56 43.51 45.01-.01 24.85-20.09 44.93-44.86 44.93z"/><path fill="#d9d9e7" d="M2179.36 2311.62c0 24.85-20.09 44.93-44.85 44.93-24.29 0-44.06-19.45-44.7-43.66v-1.27c0-24.85 20.01-45.01 44.7-45.01h1.35c24.13.71 43.5 20.56 43.5 45.01z"/><path fill="#b8b8d1" d="M2160.13 2307.25h10.37a36.382 36.382 0 0 0-7.47-18.14l-7.34 7.37a26.02 26.02 0 0 1 4.44 10.77zM2156.92 2282.97a35.932 35.932 0 0 0-18.05-7.51v10.42c3.78.64 7.45 2.12 10.71 4.46l7.34-7.37zM2155.7 2326.71l7.33 7.37a36.35 36.35 0 0 0 7.47-18.13h-10.37c-.63 3.8-2.11 7.48-4.43 10.76zM2112.19 2282.98l7.33 7.37c3.26-2.33 6.93-3.82 10.71-4.45v-10.42c-6.43.76-12.69 3.26-18.04 7.5zM2112.18 2340.22a35.932 35.932 0 0 0 18.05 7.51v-10.42a25.58 25.58 0 0 1-10.71-4.46l-7.34 7.37zM2113.4 2296.49l-7.33-7.37a36.35 36.35 0 0 0-7.47 18.13h10.37c.64-3.8 2.11-7.49 4.43-10.76zM2138.88 2337.31v10.42c6.43-.77 12.69-3.28 18.04-7.51l-7.33-7.37a25.818 25.818 0 0 1-10.71 4.46zM2108.97 2315.94h-10.37c.77 6.46 3.26 12.76 7.47 18.14l7.33-7.37c-2.32-3.27-3.8-6.96-4.43-10.77z"/><path fill="#a7a7c6" d="M2391.42 2331.46v-.08l-19.69-1.83c-.87-4.29-2.14-8.41-3.81-12.3 0-.08 0-.16-.08-.16-.71-1.83-1.59-3.65-2.46-5.4-.16-.32-.32-.63-.48-.95-.87-1.67-1.83-3.26-2.78-4.76-.16-.24-.24-.4-.4-.63l12.62-15.32v-.08l-17.78-17.86-15.24 12.78c-.24-.16-.4-.32-.56-.4-.63-.4-1.27-.72-1.91-1.11-.32-.16-.64-.4-.95-.56-1.59-.87-3.18-1.75-4.76-2.54-.32-.16-.56-.24-.87-.4-1.67-.79-3.41-1.51-5.16-2.14-.32-.16-.56-.24-.79-.32-1.83-.63-3.65-1.19-5.48-1.67-.32-.08-.56-.16-.87-.24-.95-.24-1.83-.56-2.78-.71l-.32-3.41-1.51-16.35h-25.17l-1.83 19.77c-3.97.79-7.78 1.98-11.43 3.41-2.38.95-4.76 2.06-6.99 3.26-.48.24-.87.48-1.27.71-1.19.64-2.3 1.35-3.41 2.06-.32.24-.71.4-1.03.64l-15.24-12.78-17.78 17.86v.08l-.08.08 12.7 15.32c-4.13 6.35-7.3 13.34-9.21 20.96-.32 1.03-.56 2.06-.79 3.17l-19.77 1.83v25.41l19.77 1.83c.48 2.06.95 4.05 1.59 6.03 0 .16.08.4.16.56.48 1.59 1.03 3.18 1.67 4.76.4.95.79 1.91 1.19 2.94.4.71.71 1.43 1.03 2.14.79 1.67 1.67 3.26 2.54 4.76.08.16.16.24.24.32.48.95.95 1.83 1.51 2.7l-12.54 15.24v.08l14.21 14.29 3.57 3.73 15.24-12.78c.64.4 1.35.72 1.98 1.11.48.32 1.03.63 1.51.95.79.4 1.43.87 2.22 1.27 1.98 1.11 4.05 2.06 6.11 2.94a78.53 78.53 0 0 0 12.31 3.81c-.16-.08-.32-.16-.4-.24.08.08.24.08.4.16v.08l.32 3.25 1.51 16.43h25.17l1.83-19.77c5.08-1.11 9.92-2.78 14.53-4.84.64-.32 1.27-.63 1.91-.87.87-.48 1.83-.95 2.7-1.43 1.19-.63 2.38-1.35 3.65-2.14.24-.16.48-.24.79-.48.16-.08.32-.16.56-.32l15.24 12.78 13.5-13.58 4.37-4.29-.08-.08v-.08l-12.62-15.24c4.76-7.3 8.18-15.4 10-24.21l19.69-1.83v-21.44l.08-3.89h-.1zm-88.68 57.56c-24.29 0-44.06-19.45-44.7-43.66v-1.27c0-24.85 20.01-45.01 44.7-45.01h1.35c24.13.71 43.51 20.56 43.51 45.01-.01 24.84-20.09 44.93-44.86 44.93z"/><path fill="#d9d9e7" d="M2347.59 2344.08c0 24.85-20.09 44.93-44.85 44.93-24.29 0-44.06-19.45-44.7-43.66v-1.27c0-24.85 20.01-45.01 44.7-45.01h1.35c24.13.72 43.5 20.56 43.5 45.01z"/><path fill="#b8b8d1" d="M2328.36 2339.72h10.37a36.382 36.382 0 0 0-7.47-18.14l-7.34 7.37c2.33 3.28 3.81 6.96 4.44 10.77zM2325.15 2315.44a35.932 35.932 0 0 0-18.05-7.51v10.42c3.78.64 7.45 2.12 10.71 4.46l7.34-7.37zM2323.93 2359.17l7.33 7.37a36.35 36.35 0 0 0 7.47-18.13h-10.37c-.63 3.8-2.11 7.49-4.43 10.76zM2280.42 2315.44l7.33 7.37c3.26-2.33 6.93-3.82 10.71-4.46v-10.42c-6.43.78-12.69 3.28-18.04 7.51zM2280.41 2372.68a35.932 35.932 0 0 0 18.05 7.51v-10.42a25.58 25.58 0 0 1-10.71-4.46l-7.34 7.37zM2281.64 2328.95l-7.33-7.37a36.35 36.35 0 0 0-7.47 18.13h10.37c.63-3.8 2.1-7.49 4.43-10.76zM2307.11 2369.77v10.42c6.43-.77 12.69-3.28 18.04-7.51l-7.33-7.37a25.687 25.687 0 0 1-10.71 4.46zM2277.2 2348.41h-10.37c.77 6.46 3.26 12.76 7.47 18.14l7.33-7.37c-2.32-3.28-3.8-6.97-4.43-10.77z"/><path fill="#ffcd5c" d="M1996.6 2319.68h434.93v283.97H1996.6z"/><path fill="#d89935" d="M2273.73 2496.23c.6 2.58-22.36 10.12-51.28 16.86s-52.86 10.1-53.46 7.53c-.6-2.58 22.36-10.12 51.28-16.86 28.92-6.73 52.86-10.1 53.46-7.53zM2310.07 2448.23c.93 2.48-24.57 14.35-56.95 26.53s-59.39 20.04-60.32 17.56c-.93-2.48 24.57-14.35 56.95-26.53 32.39-12.18 59.39-20.04 60.32-17.56z"/><path fill="#f4b442" d="M2431.52 2421.82v181.82h-434.96v-58.3c151.34 33.13 370.23 9.37 434.96-123.52z" opacity=".5"/><path fill="#f4b442" d="M2461.75 2367.45H1975.9l20.7-47.77h433.43z"/></g><g><path fill="#ffcd5c" d="M1887.97 2380.28c12.74-9.44 45.2 179.64 34.63 183.66-10.57 4.03-314.45 11.06-339.37-.01-24.92-11.08-26.43-61.27 15.1-69.78 41.54-8.51 128.63-23.66 155.06-56.83 0 0 1.78-32.79 8.56-36.94 6.77-4.15 95.43 2.56 126.02-20.1z"/><path fill="#111968" d="M1931.36 2539.27c.3 5.29.38 28.74-9.14 30.61-9.52 1.87-348.32 4.18-350.32 0s-2.66-19.7-3.66-22.67c-1-2.97 363.12-7.94 363.12-7.94zM1701.38 2472.77c-.86-.33 1.02-7.08 3.53-17.99 1.2-5.44 2.64-11.97 3.18-19.08.13-1.77.16-3.57.06-5.33-.1-1.75-.37-3.49-.9-4.91-.27-.7-.6-1.29-.97-1.72-.37-.43-.75-.69-1.23-.88-.48-.19-1.1-.29-1.83-.27-.74.03-1.59.17-2.38.37-1.56.44-2.87 1.2-3.92 2.31-1.05 1.1-1.86 2.55-2.45 4.16-1.17 3.24-1.5 6.95-1.53 10.46 0 7.09 1.12 13.65 2.17 19.07 1.1 5.44 2.24 9.82 3.05 12.82.4 1.46.72 2.62.94 3.44.2.8.3 1.1.23 1.29-.06.08-.22.18-.5.04-.25-.11-.55-.35-.87-.67-.63-.66-1.36-1.72-2.15-3.14-1.58-2.84-3.44-7.13-5.16-12.64-1.68-5.52-3.36-12.23-3.71-20.11-.12-3.93.02-8.2 1.51-12.67.75-2.22 1.92-4.51 3.74-6.48 1.8-1.99 4.32-3.45 6.91-4.15 1.3-.34 2.57-.56 3.96-.6 1.39-.03 2.91.16 4.38.76 1.47.58 2.82 1.6 3.76 2.77.96 1.17 1.58 2.43 2.01 3.64.83 2.42 1.06 4.7 1.12 6.84.05 2.15-.08 4.18-.3 6.13-.45 3.9-1.21 7.47-2.04 10.77-.84 3.29-1.76 6.3-2.68 9.01-3.69 10.86-7.12 17.07-7.93 16.76zM1692.03 2478.04c-.43.12-1.29-1.42-2.6-4.23-1.32-2.81-3.08-6.91-5.48-11.82-1.2-2.45-2.57-5.1-4.16-7.83-1.59-2.73-3.42-5.55-5.59-8.17-.53-.67-1.13-1.26-1.7-1.9-.61-.56-1.2-1.2-1.85-1.69-.63-.56-1.31-.97-1.97-1.42-.69-.35-1.37-.75-2.07-.93-1.39-.45-2.75-.52-4.16-.17-.35.13-.7.25-1.06.37-.36.12-.7.37-1.06.54-.74.33-1.39.86-1.93 1.33-1.1 1.01-1.57 1.99-1.63 3.23-.06 1.25.38 2.81 1.11 4.32 1.49 3.06 3.84 5.93 6.2 8.49 4.81 5.14 9.87 9.29 14.14 12.69 4.3 3.39 7.91 6 10.39 7.81 1.21.89 2.16 1.58 2.84 2.08.64.51.93.71.95.92-.01.1-.11.25-.38.3-.27.06-.63.06-1.06-.01-.88-.13-2.09-.49-3.57-1.08-2.96-1.18-7.04-3.26-11.83-6.27-4.76-3.04-10.3-6.92-15.79-12.27-2.71-2.72-5.48-5.75-7.61-9.85-1.02-2.06-1.93-4.48-1.86-7.38.04-1.43.39-2.96 1.06-4.31.66-1.36 1.61-2.52 2.62-3.45 1.04-.92 2.08-1.7 3.24-2.26.58-.29 1.12-.62 1.74-.84.63-.22 1.26-.43 1.88-.62 2.61-.66 5.46-.45 7.83.41 2.41.84 4.37 2.2 5.99 3.65.86.7 1.55 1.49 2.28 2.24.66.78 1.35 1.54 1.93 2.34 2.38 3.15 4.17 6.34 5.66 9.36 1.48 3.03 2.66 5.92 3.63 8.58 1.94 5.32 3.06 9.75 3.66 12.85.61 3.09.64 4.88.21 4.99z"/><path fill="#f4b442" d="M1617.65 2489.14c-12.82 3.93 10.86 14.07 43.08 11.18 32.22-2.89 80.55-16.11 98.94-43.99 14.68-22.27-.21-36.97-.21-36.97s-23.48 29.84-56.72 46.07c-28.58 13.95-56.47 14.93-85.09 23.71z"/><path fill="#171c80" d="m1909.63 2396.67-174.94 21.11-186.55-893.06 239.12-17.11z"/><path fill="#111968" d="m1704.12 1569.76 24.05 98.54 41.52.6 30.61-17.96-22.83-110.24z"/><path fill="#111968" d="m1548.17 1524.76 186.5 893.04 106.5-12.86c-63.77-106.11-210.79-407.52-213.5-738.48-.56-72.18-10.69-118.25-26.54-145.48l-52.96 3.78z"/><path fill="#111968" d="M1747.6 2008.74c1.42-2.85 17.47 2.3 35.85 11.49 18.38 9.19 32.12 18.95 30.7 21.8-1.42 2.85-17.48-2.3-35.85-11.49-18.38-9.2-32.12-18.95-30.7-21.8zM1709.42 1996.41c2.27-2.23 19.81 11.89 39.18 31.54s33.24 37.4 30.98 39.63c-2.27 2.23-19.81-11.89-39.18-31.54s-33.24-37.39-30.98-39.63z"/><g><path fill="#ffcd5c" d="M1449.13 2379.94c12.74-9.44 28.04 179.98 17.47 184.01-10.57 4.03-314.45 11.06-339.37-.01-24.92-11.08-26.43-61.27 15.1-69.78 41.54-8.51 128.63-23.66 155.06-56.83 0 0 1.78-32.79 8.56-36.94s112.59 2.2 143.18-20.45z"/><path fill="#111968" d="M1475.36 2539.27c.3 5.29.38 28.74-9.14 30.61-9.52 1.87-348.32 4.18-350.32 0s-2.66-19.7-3.66-22.67c-1-2.97 363.12-7.94 363.12-7.94zM1245.38 2472.77c-.86-.33 1.02-7.08 3.53-17.99 1.2-5.44 2.64-11.97 3.18-19.08.13-1.77.16-3.57.07-5.33-.1-1.75-.37-3.49-.9-4.91-.27-.7-.6-1.29-.97-1.72-.37-.43-.75-.69-1.23-.88-.48-.19-1.1-.29-1.83-.27-.74.03-1.59.17-2.38.37-1.56.44-2.87 1.2-3.92 2.31-1.05 1.1-1.86 2.55-2.45 4.16-1.17 3.24-1.5 6.95-1.53 10.46 0 7.09 1.12 13.65 2.17 19.07 1.1 5.44 2.24 9.82 3.05 12.82.4 1.46.72 2.62.94 3.44.2.8.3 1.1.23 1.29-.06.08-.22.18-.5.04-.25-.11-.55-.35-.87-.67-.63-.66-1.36-1.72-2.15-3.14-1.58-2.84-3.44-7.13-5.16-12.64-1.68-5.52-3.36-12.23-3.71-20.11-.12-3.93.02-8.2 1.51-12.67.75-2.22 1.92-4.51 3.74-6.48 1.8-1.99 4.32-3.45 6.91-4.15 1.3-.34 2.57-.56 3.96-.6 1.39-.03 2.91.16 4.38.76 1.47.58 2.82 1.6 3.76 2.77.96 1.17 1.58 2.43 2.01 3.64.83 2.42 1.06 4.7 1.12 6.84.05 2.15-.08 4.18-.3 6.13-.45 3.9-1.21 7.47-2.04 10.77-.84 3.29-1.76 6.3-2.68 9.01-3.7 10.86-7.13 17.07-7.94 16.76zM1236.03 2478.04c-.43.12-1.29-1.42-2.6-4.23-1.32-2.81-3.08-6.91-5.48-11.82-1.2-2.45-2.57-5.1-4.16-7.83-1.59-2.73-3.42-5.55-5.59-8.17-.53-.67-1.13-1.26-1.7-1.9-.61-.56-1.2-1.2-1.85-1.69-.63-.56-1.31-.97-1.97-1.42-.69-.35-1.37-.75-2.07-.93-1.39-.45-2.75-.52-4.16-.17-.35.13-.7.25-1.06.37-.36.12-.7.37-1.06.54-.74.33-1.39.86-1.93 1.33-1.1 1.01-1.57 1.99-1.63 3.23-.06 1.25.38 2.81 1.11 4.32 1.49 3.06 3.84 5.93 6.2 8.49 4.81 5.14 9.87 9.29 14.14 12.69 4.3 3.39 7.91 6 10.39 7.81 1.21.89 2.16 1.58 2.84 2.08.64.51.93.71.95.92-.01.1-.11.25-.38.3-.27.06-.63.06-1.06-.01-.88-.13-2.09-.49-3.57-1.08-2.96-1.18-7.04-3.26-11.83-6.27-4.76-3.04-10.3-6.92-15.79-12.27-2.71-2.72-5.48-5.75-7.61-9.85-1.02-2.06-1.93-4.48-1.86-7.38.04-1.43.39-2.96 1.06-4.31.66-1.36 1.61-2.52 2.62-3.45 1.04-.92 2.08-1.7 3.24-2.26.58-.29 1.12-.62 1.74-.84.63-.22 1.26-.43 1.88-.62 2.61-.66 5.46-.45 7.83.41 2.41.84 4.37 2.2 5.99 3.65.86.7 1.55 1.49 2.28 2.24.66.78 1.35 1.54 1.93 2.34 2.38 3.15 4.17 6.34 5.66 9.36 1.49 3.03 2.66 5.92 3.63 8.58 1.94 5.32 3.06 9.75 3.66 12.85.61 3.09.64 4.88.21 4.99z"/><path fill="#f4b442" d="M1161.65 2489.14c-12.82 3.93 10.86 14.07 43.08 11.18 32.22-2.89 80.55-16.11 98.94-43.99 14.68-22.27-3.97-32.54-3.97-32.54s-19.72 25.41-52.95 41.64c-28.6 13.95-56.48 14.93-85.1 23.71z"/><g><path fill="#171c80" d="m1473.23 2412.09-184.09-1.93-40.58-571.19 213.62-353.34 290.03 34.44L1466.65 1866z"/><path fill="#111968" d="m1527.05 1540.7-26.66 85.5 18.72 32.42h46.07l63.92-92.68zM1351.55 1891.31c2.38-2.11 15.37 8.62 29.02 23.99s22.78 29.53 20.4 31.64c-2.38 2.11-15.37-8.62-29.02-23.99-13.65-15.36-22.78-29.53-20.4-31.64zM1320.68 1865.68c2.93-1.23 13.98 18.39 24.67 43.84 10.69 25.44 16.98 47.07 14.04 48.3-2.93 1.23-13.98-18.39-24.67-43.84-10.69-25.44-16.98-47.06-14.04-48.3z"/></g></g><g><path fill="#a7a7c6" d="m1528.22 628.35 21.18-42.08 69.71-3.77-31.63-27.72a21.869 21.869 0 0 0-21.47-4.24l-57.34 19.62a21.845 21.845 0 0 0-14.37 16.5l-5.8 29.9-219.22 89.17-16.54-14.5a14.739 14.739 0 0 0-14.49-2.86l-38.69 13.24c-5 1.71-8.68 5.95-9.7 11.14l-1.53 7.87 51.97-2.79 17.4 26.66-14.29 28.39-47.04 2.55 21.34 18.71c3.98 3.48 9.49 4.57 14.49 2.86l38.69-13.24c5-1.71 8.68-5.95 9.7-11.14l4.19-21.59 227.89-63.84 22.9 20.08c5.9 5.15 14.07 6.77 21.47 4.24l57.34-19.62c7.4-2.53 12.87-8.82 14.37-16.5l2.27-11.66-77.02 4.14-25.78-39.52z"/><path fill="#9898b7" d="m1471.64 636.29-174.76 68.79c-7.74 3.05-11.7 11.67-9 19.58 2.71 7.91 11.12 12.3 19.11 9.96l180.27-52.7c8.51-2.49 13.21-11.61 10.32-20.03l-5.51-16.09c-2.88-8.43-12.18-12.76-20.43-9.51z"/><path fill="#fca993" d="M1452.35 767.4c-5.11-5.06-8.23-8.19-8.23-8.19-33.99 2.54-31.64-23.1-79.18-19.85-9.16-3.02-3.87-10.34 2.02-11.5 12.04-2.37 17.88-5.19 31.17-8.59-17.09-18.45-28.62-33.65-45.71-52.1 5.5-12.27 15.35-3.73 17.6-2.25 8.8 5.79 6.33 6.27 14.33 13.12-10.22-14.35-2.98-.53-12.02-14.41-6.7-10.3 5.31-14.74 7.21-13.04 8.63 7.72 15.68 14.04 24.31 21.76-6.41-10.43-14.3-20.88-14.85-22.77-2.14-7.37 6.48-9.93 7.92-8.59 7.35 6.81 16.03 16.7 21.68 22.38-3.61-7.42-9.98-10.82-13.59-18.24 6.48-4.29 13.46.38 18.04 4.68 19.02 17.82 39.05 36.43 58.07 54.25 0 0 6.69 6.4 16.63 17.47-.62.57-42.17 42.1-45.4 45.87z"/><path fill="#d8776a" d="M1386.45 680.56c-.8.67-4.62-2.58-8.52-7.25-3.9-4.68-6.41-9.01-5.61-9.68.8-.67 4.62 2.58 8.52 7.25 3.9 4.68 6.41 9.01 5.61 9.68zM1404.05 672.81c-.79.69-3.34-.94-5.69-3.64s-3.62-5.45-2.83-6.13c.79-.69 3.34.94 5.69 3.64s3.62 5.45 2.83 6.13zM1418.61 663.38c-.79.69-3.34-.94-5.69-3.64s-3.62-5.45-2.83-6.13c.79-.69 3.34.94 5.69 3.64s3.62 5.45 2.83 6.13zM1420.24 666.42c.7.78-4.45 6.55-11.51 12.89-7.05 6.34-13.34 10.86-14.04 10.08s4.45-6.55 11.51-12.89c7.05-6.34 13.34-10.85 14.04-10.08z"/><path fill="#1996f2" d="M1693.66 897.57c32.54 81.91 17.01 184.64 23.89 285.16-20.5 40.2-92.16 62.54-105.35 6.88-22.6-117.05-49.06-242.09-40.28-281.68 34.52-51.19 109.22-41.88 121.74-10.36z"/><g><path fill="#1996f2" d="M1438.63 763.36s199.06 244.16 238.44 202.96c96.79-101.28-191.4-264.45-191.4-264.45l-47.04 61.49z"/><path fill="#115ace" d="M1595.28 925.6c-.53-.26-.48-1.51.07-3.58.28-1.03.68-2.27 1.21-3.7.55-1.4 1.34-2.91 2.2-4.61.44-.84.91-1.72 1.39-2.64.55-.87 1.13-1.78 1.72-2.71.61-.93 1.24-1.9 1.89-2.89.64-1 1.43-1.93 2.18-2.93.77-.99 1.56-2 2.37-3.03.82-1.02 1.73-1.99 2.63-3.01.91-1 1.82-2.05 2.8-3.05 1-.98 2.01-1.98 3.04-2.98l1.54-1.48c.53-.47 1.06-.93 1.59-1.39 1.06-.91 2.1-1.81 3.12-2.7 2.13-1.67 4.15-3.32 6.19-4.73 1.02-.71 2.01-1.4 2.98-2.07.97-.66 1.95-1.25 2.88-1.84 1.86-1.18 3.66-2.17 5.31-3.06 6.64-3.5 11.26-4.71 11.8-3.66 1.12 2.08-13.78 12.09-29.48 27.14-7.87 7.49-14.34 14.85-18.88 20.38-1.12 1.39-2.23 2.61-3.13 3.72-.88 1.13-1.69 2.08-2.4 2.84-1.44 1.51-2.49 2.25-3.02 1.98z"/></g></g><g><path fill="#fca993" d="M1271.21 1113.14c-2.32-6.8-3.78-10.98-3.78-10.98 17.13-29.47 7.5-44.79 11.33-93.94-4.37-2.54-8.48-.58-11.15 4.79-5.7 11.44-10.2 23.38-15.48 35.47-9.14-23.43-19.47-48.45-28.6-71.88-3.22.55-5.15 3.49-5.75 6.11-.6 2.62-.3 5.36.05 8.02a251.17 251.17 0 0 0 6.08 31c-8.45-15.46-14.15-26.75-22.7-40.95-2.37.93-4.84 3.78-5.07 6.32-.23 2.54 1.06 7.09 1.76 9.54 3.18 11.13 5.79 20.24 8.97 31.37-6.59-10.32-14.57-20.42-21.16-30.74-1.95.27-4.11 3.04-4.51 4.97-.4 1.93-.1 3.96.48 5.85 2.92 9.59 8.03 21.72 10.67 29.28-5.1-6.48-11.07-12.67-16.18-19.16-6.69 3.95.17 11.25 2.03 17.24 7.73 24.89 15.74 51.04 23.47 75.92 0 0 2.84 8.81 8.46 22.58.78-.29 56.28-19.55 61.08-20.81z"/><path fill="#d8776a" d="M1226.9 1028.26c-.96.41-2.88-1.93-4.28-5.22-1.4-3.3-1.76-6.3-.8-6.71.96-.41 2.88 1.93 4.28 5.22 1.4 3.29 1.76 6.3.8 6.71zM1210.33 1036.48c-.96.41-2.88-1.93-4.28-5.22s-1.76-6.3-.8-6.71 2.88 1.93 4.28 5.22c1.41 3.3 1.76 6.3.8 6.71z"/><ellipse cx="1192.95" cy="1039.49" fill="#d8776a" rx="1.89" ry="6.48" transform="rotate(-23.055 1192.95 1039.505)"/><path fill="#d8776a" d="M1197.72 1048.86c-.39-.97 6.41-4.66 15.19-8.23 8.79-3.58 16.23-5.69 16.62-4.73.39.97-6.41 4.66-15.19 8.23-8.79 3.59-16.23 5.7-16.62 4.73z"/><path fill="#1996f2" d="M1273.57 1099.03s132.79 285.67 78.54 303.11c-133.37 42.88-154.39-287.64-154.39-287.64l75.85-15.47z"/><path fill="#1996f2" d="M1332.9 1404.92c62.07 0 158.22-86.41 201.2-178.26 27.59-58.95 17.17-122.51 10.52-155.17-105.53 55.45-273.52 202.13-282.77 231.72-18.42 58.92 37.13 101.71 71.05 101.71z"/><path fill="#115ace" d="M1342.78 1300.69c-.59.04-1.31-1.57-2.1-4.49-.4-1.46-.81-3.25-1.24-5.32-.48-2.07-1.06-4.42-1.61-7.02-2.29-10.39-5.67-24.64-10.16-40.22-8.92-31.18-18.5-55.84-16.37-56.85 1.06-.51 4.92 5.09 9.67 14.85 2.36 4.88 4.97 10.79 7.53 17.49 1.32 3.33 2.52 6.9 3.83 10.58.59 1.86 1.2 3.75 1.81 5.67.61 1.92 1.22 3.88 1.76 5.88 4.59 15.94 7.13 30.84 7.92 41.7.18 2.72.34 5.18.38 7.34-.02 2.17-.09 4.05-.2 5.58-.23 3.07-.63 4.77-1.22 4.81z"/><path fill="#1965f2" d="M1495.96 1289.64c-48.28 64.81-115.62 115.27-163.04 115.27-15.49 0-35.53-8.91-50.96-24.22 102.79-13.59 135.91-35.35 214-91.05z" opacity=".5"/></g><g><path fill="#1996f2" d="M1461.73 1511.75c88.05 54.59 249.96 50.35 319.15-6.72-19.82-219.63-67.91-415.21-156.32-459.17-12.12-6.02-63.88 16.18-76.64 21.07-21.77 8.34-94.06 439.94-86.19 444.82z"/><path fill="#115ace" d="M1434.21 1355.84c-.35-.48.67-2 2.77-4.3.53-.58 1.12-1.2 1.78-1.87.33-.33.67-.68 1.03-1.04.34-.38.7-.77 1.07-1.18 1.49-1.62 3.2-3.43 5.12-5.39 1.85-2.05 3.88-4.28 6.09-6.64 2.15-2.42 4.45-5 6.87-7.72 2.38-2.77 4.87-5.67 7.46-8.68 1.27-1.52 2.57-3.07 3.89-4.65.66-.78 1.33-1.57 2-2.37.66-.81 1.32-1.62 1.99-2.43 21.45-26.04 38.02-48.03 40.03-46.7.99.65-1.93 7.03-7.79 16.6s-14.72 22.31-25.63 35.56c-.68.83-1.36 1.65-2.03 2.47-.69.8-1.38 1.6-2.07 2.39-1.38 1.57-2.73 3.13-4.06 4.65-2.72 3-5.41 5.85-8 8.53-2.67 2.62-5.18 5.12-7.63 7.37-2.5 2.21-4.83 4.25-7 6.06-2.25 1.74-4.31 3.28-6.14 4.59-.46.33-.9.64-1.33.94-.44.29-.88.55-1.29.8-.83.5-1.6.95-2.3 1.33-2.8 1.55-4.49 2.16-4.83 1.68zM1731.71 1227.06c-.58.1-1.5-1.63-2.66-4.82-.58-1.59-1.21-3.55-1.9-5.83-.69-2.28-1.62-4.83-2.51-7.68-3.62-11.38-8.96-26.94-15.95-43.73-13.83-33.67-28.71-59.35-26.76-60.65.97-.66 6.1 4.99 12.74 15.2 6.63 10.2 14.87 24.94 21.94 42.17.87 2.16 1.74 4.29 2.59 6.39.78 2.13 1.54 4.23 2.29 6.29 1.55 4.11 2.75 8.17 3.95 12.03 1.24 3.84 2.11 7.59 2.99 11.06.42 1.74.86 3.42 1.2 5.05.31 1.64.6 3.21.89 4.71.52 3.01 1.05 5.71 1.31 8.13.25 2.42.41 4.51.49 6.22.17 3.44-.02 5.36-.61 5.46z"/><path fill="#171c80" d="M1495.95 1377.71s128.66-244.32 137.15-327.6c0 0 13.43.7 19.47 9.87s-78.09 316.64-114.75 344.03l-41.87-26.3z"/><path fill="#111968" d="M1512.62 1345.34c13.59 13.65 32.46 22.07 45.74 26.62-7.68 16.23-14.69 27.66-20.53 32.03l-41.87-26.25s6.52-12.36 16.66-32.4zM1609.94 1229.27c-4.18 13.59-8.48 27.17-12.85 40.51l-17.4-21.39-12.66-15.55c4.92-10.76 9.84-21.64 14.63-32.58 2.58-5.84 5.1-11.68 7.62-17.52l20.66 46.53z"/><path fill="#171c80" d="M1540.7 1070.47s-20.04 4.38-18.35 9.23c52.06 149.4 174.2 321.38 220.95 350.6l26.84-40.54c0 .01-195.35-203.96-229.44-319.29z"/><path fill="#111968" d="m1770.15 1389.79-26.87 40.51c-15.31-9.59-38.67-34.43-64.98-68.73 18.2-12.17 20.96-34.86 19.92-52.07 40.14 47.15 71.93 80.29 71.93 80.29z"/><path fill="#171c80" d="M1791.33 1537.17c-76.66 60.31-133.43 72.38-230.99 14.78-8.67-5.16-73.04 28.08-129.21-21.89 15.62-33.81 40.87-147.31 52.37-191.14 34.06 39.41 95.31 94.28 172.53 85.18 53.98-6.33 67.95-118.02 88.49-155.64 18.14 60.68 40.97 207.11 46.81 268.71z"/><circle cx="1734.31" cy="1382.45" r="7.94" fill="#111968"/><circle cx="1514.31" cy="1398.34" r="7.94" fill="#111968"/><path fill="#111968" d="M1791.36 1537.14c-76.66 60.31-133.47 72.42-231.03 14.82-8.67-5.16-73.03 28.03-129.22-21.89 2.15-4.67 4.49-10.88 7.01-18.26 54.41 41.56 113.92 11.19 122.22 16.17 96.52 56.99 153.14 45.74 228.63-12.97a976 976 0 0 1 2.39 22.13z"/></g><g><path fill="#fca993" d="m1592.22 976.61 23.25 67.26-67.95 25.72-13.42-62.04z"/><path fill="#1965f2" d="M1631.49 1049.29c-.76-11.16-4.6-32.66-14.69-35.66s-76.77 13.84-81.08 23.76c-4.31 9.92.5 29.63 8.29 33.09 20.57 9.11 87.48-21.19 87.48-21.19z"/><path fill="#fca993" d="M1593.17 988.94s15.19-60.39-29.65-91.95c-44.83-31.55-77.59 3.91-76.88 21.5 1 24.71-17.64 45.1-17.64 45.1l6.96 7.58s-6.91 32.72 7.38 44.59 54.42-3.45 54.42-3.45l55.41-23.37z"/><ellipse cx="1509.94" cy="961.72" fill="#f9917a" rx="11.19" ry="8.2" transform="rotate(-64.324 1509.879 961.681)"/><ellipse cx="1495.95" cy="934.56" fill="#070e3f" rx="5.82" ry="4.27" transform="rotate(-64.324 1495.889 934.518)"/><path fill="#070e3f" d="M1555.57 923.93c.68.61-2.78 4.88-4.54 10.86-.1.32-.14.62-.22.94.33-.14.66-.31 1.03-.59 1.77-1.15 3.36-2.53 3.99-2.08.59.38-.02 2.68-2.53 4.38-.86.59-1.95.86-2.89.81-.33 4.32 1.06 7.52.39 7.9-.3.19-1.51-.76-2.44-2.98-.98-2.17-1.4-5.71-.4-9.24 2.14-7.08 7.1-10.64 7.61-10zM1474.36 987.28c-.61.7-.27 2.42 1.64 4.15 1.82 1.77 5.5 3.22 9.41 2.84 7.92-.95 11.58-6.35 10.29-7.8-1.22-1.63-6 .02-10.95.49-4.75.63-8.86-1.2-10.39.32z"/><path fill="#f9917a" d="M1482.09 1014.77c-.34.83 2.32 3.06 7.44 4.86 5.07 1.87 12.59 3.16 20.81 2.63 16.58-1.01 28.37-8.16 27.43-9.95-.81-1.86-12.85 1.74-27.88 2.62-15.03 1.18-26.97-2.15-27.8-.16z"/><path fill="#070e3f" d="M1542.24 929.26c-26.95 1.66-22.44-14.41-46.29-12.8-23.85 1.61-20.12-37.28 11.24-54.51 31.36-17.23 131.68-21.09 125.28 72.42 6.18 9.52 16.94 32.76-19.68 40.93 0 0 7.01 25.88-20.57 27.04-35.33 1.48-40.58-20.66-40.58-20.66s-9.09-21.99 3.1-26.33c15.48-5.51 13.03-35.55 5.74-38.46-14.18-5.68-18.24 12.37-18.24 12.37z"/><g><path fill="#d89935" d="m1639.31 950.29-2.51 9.57-1.77 4.26s-35.87-25.94-47.59-31.86c-11.72-5.91-114.3-54.89-114.3-54.89l2.02-3.88c0 .01 90.04 10.18 164.15 76.8z"/><path fill="#f4b442" d="M1636.79 959.86s-15.1-26.28-48.72-37.7c-43.13-14.64-102-29.92-110.77-35.4-15.59-9.75 21.91-57.23 71.47-51.76 4.21.46 11.02-15.19 14.94-14.52 100.92 17.18 100.7 114.61 73.08 139.38z"/><path fill="#f4b442" d="M1591.98 923.25s-104.17-35.47-116.83-49.75c-27.79-.08-88.55-9.04-26.67 16.66 61.9 25.7 143.5 33.09 143.5 33.09z"/></g></g></g><g><path fill="#d9d9e7" d="M2566.02 2266.3a37.496 37.496 0 0 1-23.16-23.16 2.147 2.147 0 0 0-4.09 0c-3.75 10.84-12.34 19.42-23.19 23.16-1.99.69-1.99 3.4 0 4.09a37.588 37.588 0 0 1 23.19 23.19c.69 1.99 3.4 1.99 4.09 0 3.74-10.85 12.32-19.44 23.16-23.19 1.99-.69 1.99-3.41 0-4.09zM1775.42 656.76a31.56 31.56 0 0 1-19.5-19.5 1.807 1.807 0 0 0-3.44 0 31.615 31.615 0 0 1-19.52 19.5 1.807 1.807 0 0 0 0 3.44 31.67 31.67 0 0 1 19.52 19.52 1.807 1.807 0 0 0 3.44 0 31.615 31.615 0 0 1 19.5-19.52c1.68-.57 1.68-2.86 0-3.44z"/><path fill="#e9e9f2" d="M758.74 708.68a35.684 35.684 0 0 1-22.03-22.03c-.65-1.89-3.23-1.89-3.89 0a35.738 35.738 0 0 1-22.05 22.03c-1.89.65-1.89 3.23 0 3.89a35.776 35.776 0 0 1 22.06 22.06c.65 1.89 3.23 1.89 3.89 0 3.56-10.32 11.72-18.49 22.03-22.05 1.88-.67 1.88-3.25-.01-3.9z"/><path fill="#d9d9e7" d="M1158.27 1778.97a24.457 24.457 0 0 1-15.12-15.12c-.45-1.3-2.22-1.3-2.67 0a24.496 24.496 0 0 1-15.13 15.12c-1.3.45-1.3 2.22 0 2.67a24.542 24.542 0 0 1 15.14 15.14c.45 1.3 2.22 1.3 2.67 0a24.511 24.511 0 0 1 15.12-15.14 1.403 1.403 0 0 0-.01-2.67zM2001.45 1950.16l-20.35-42.03c-1.61-3.32-6.48-3.32-8.09 0l-20.35 42.03c-1.84 3.8 2.43 7.66 6.22 5.61l9.37-5.06v28.11c0 2.85 2.38 5.15 5.32 5.15h6.97c2.94 0 5.32-2.31 5.32-5.15v-28.11l9.37 5.06c3.79 2.05 8.06-1.81 6.22-5.61zM2375.12 542.89l-20.41-42.16c-1.61-3.33-6.5-3.33-8.11 0l-20.41 42.16c-1.85 3.81 2.44 7.68 6.24 5.63l9.39-5.07v28.19c0 2.85 2.39 5.17 5.34 5.17h6.99c2.95 0 5.34-2.31 5.34-5.17v-28.19l9.39 5.07c3.8 2.05 8.09-1.82 6.24-5.63zM519.92 2386.01l-25.12-51.89c-1.98-4.1-8-4.1-9.99 0l-25.12 51.89c-2.27 4.7 3 9.46 7.68 6.93l11.56-6.24v34.7c0 3.51 2.94 6.36 6.57 6.36h8.61c3.63 0 6.57-2.85 6.57-6.36v-34.7l11.56 6.24c4.68 2.52 9.95-2.24 7.68-6.93z"/><g><path fill="#111968" d="M2356.76 771.35c-.54.56-7.46-5.13-19.65-15.73-12.13-10.66-29.68-26.08-51.35-45.13-21.72-18.98-47.63-41.54-77.14-65.58-14.77-11.99-30.44-24.37-47.18-36.33-8.38-5.94-17.04-11.81-26.07-17.01-4.51-2.58-9.14-5.01-13.77-6.84-2.31-.95-4.63-1.64-6.74-2.05-.5-.06-1.07-.21-1.51-.21l-.67-.03c-.21 0-.48-.06-.63-.01-.17.03-.34.05-.51.06l-.26.01c-.09.01-.23.06-.35.09l-.73.19-.37.09-.41.14c-2.14.67-4.49 1.76-6.79 2.89a87.67 87.67 0 0 0-3.46 1.8c-1.15.61-2.3 1.27-3.44 1.92-4.58 2.63-9.08 5.46-13.52 8.35-8.87 5.78-17.48 11.82-25.87 17.84-16.78 12.07-32.72 24.16-47.82 35.77-30.2 23.26-57.07 44.69-79.65 62.66-22.58 17.99-40.83 32.58-53.59 42.49-12.76 9.92-20.01 15.18-20.51 14.59-.5-.59 5.79-6.97 17.69-17.92 11.9-10.95 29.4-26.48 51.37-45.27 21.97-18.79 48.37-40.89 78.34-64.69 14.99-11.89 30.87-24.21 47.74-36.53 8.45-6.15 17.12-12.31 26.21-18.28 4.55-2.98 9.19-5.92 14.04-8.72 1.21-.7 2.43-1.4 3.69-2.07 1.24-.69 2.51-1.34 3.81-1.99 2.62-1.28 5.25-2.54 8.37-3.54.72-.27 1.65-.46 2.47-.68.22-.05.41-.11.65-.15l.77-.1 1.54-.16c.54-.07.95-.01 1.43-.01l1.38.06c.48.01.88.08 1.3.15l1.25.2c3.26.62 6.18 1.56 8.9 2.67 5.48 2.19 10.43 4.83 15.23 7.59 9.55 5.55 18.38 11.62 26.91 17.75 16.99 12.33 32.66 24.99 47.36 37.29 29.36 24.64 54.79 47.89 75.89 67.67 21.07 19.81 37.73 36.25 49.03 47.83 11.25 11.62 17.16 18.38 16.62 18.93z"/><circle cx="2113.37" cy="593.22" r="15.25" fill="#a7a7c6"/><path fill="#f4b442" d="M2369.08 745.66h-527.05c-13.72 0-24.83 11.12-24.83 24.83v147.97c0 13.72 11.12 24.83 24.83 24.83h527.05c13.72 0 24.83-11.12 24.83-24.83V770.49c0-13.72-11.11-24.83-24.83-24.83z"/><path fill="#ffcd5c" d="M1842.03 929.31c-5.98 0-10.85-4.87-10.85-10.85V770.49c0-5.98 4.87-10.85 10.85-10.85h527.05c5.98 0 10.85 4.87 10.85 10.85v147.97c0 5.98-4.87 10.85-10.85 10.85h-527.05z"/><path fill="#d89935" d="M2032.63 822.62c.64.74 1.69 1.11 3.15 1.11s2.47-.36 3.04-1.08c.57-.72.85-1.89.85-3.52v-30.85h12.75v31.59c0 5.29-1.45 9.15-4.34 11.57-2.89 2.42-7.14 3.63-12.75 3.63s-9.79-1.2-12.53-3.6c-2.74-2.4-4.12-6.22-4.12-11.46v-31.74h12.98v30.92c.01 1.55.33 2.69.97 3.43zM2092.55 834.34h-12.16l-9.56-21.43h-.59v21.43h-11.27v-46.05h12.53l9.12 22.1h.59v-22.1h11.34v46.05zM2133.33 810.31c0 16.02-6.33 24.03-18.98 24.03h-15.28v-46.05h15.57c6.77 0 11.58 1.89 14.42 5.67 2.85 3.78 4.27 9.23 4.27 16.35zm-14.12 10.57c.77-1.85 1.15-4.97 1.15-9.34s-.41-7.48-1.22-9.31-2.56-2.75-5.23-2.75h-2.23v24.17h2.45c2.61.01 4.31-.92 5.08-2.77zM2162.99 834.34h-24.92v-46.05h25.66l-.74 11.34h-12.23v6.9h10.6v9.79h-10.6v7.64h12.98l-.75 10.38zM2199.55 802.9c0 2.77-.42 5.07-1.26 6.89-.84 1.83-2.15 3.48-3.93 4.97l6.16 19.58h-13.72l-4.6-16.61h-1.7v16.61h-12.46v-46.05h17.2c4.94 0 8.57 1.16 10.86 3.48 2.3 2.33 3.45 6.03 3.45 11.13zm-14.39 5.93c.54-.74.82-2.09.82-4.04 0-1.95-.27-3.31-.82-4.08-.54-.77-1.43-1.15-2.67-1.15h-2v10.38h1.93c1.28 0 2.2-.37 2.74-1.11zM1963.16 899.92h-11.64V875.9h-.67l-4.38 24.03h-11.94l-4.15-24.03h-.74v24.03h-11.49l1.56-46.05h16.69l4.15 24.92h.59l4.01-24.92h16.46l1.55 46.04zM2002.3 899.92h-12.38l-1.41-7.27h-8.75l-1.41 7.27h-11.79l8.45-46.05h18.84l8.45 46.05zm-15.2-15.94-2.59-16.46h-.52l-2.59 16.46h5.7zM2019.51 899.92h-12.61v-46.05h12.61v46.05zM2060.37 899.92h-12.16l-9.56-21.43h-.59v21.43h-11.27v-46.05h12.53l9.12 22.1h.59v-22.1h11.34v46.05zM2093.66 865.07h-8.6v34.85h-12.68v-34.85h-9.12l.74-11.2h30.4l-.74 11.2zM2122.21 899.92h-24.92v-46.05h25.66l-.74 11.34h-12.24v6.9h10.6v9.79h-10.6v7.64h12.98l-.74 10.38zM2160.84 899.92h-12.16l-9.56-21.43h-.59v21.43h-11.27v-46.05h12.53l9.12 22.1h.59v-22.1h11.34v46.05zM2200.44 899.92h-12.38l-1.41-7.27h-8.75l-1.41 7.27h-11.79l8.45-46.05h18.84l8.45 46.05zm-15.21-15.94-2.59-16.46h-.52l-2.59 16.46h5.7zM2237.88 899.92h-12.16l-9.56-21.43h-.59v21.43h-11.27v-46.05h12.53l9.12 22.1h.59v-22.1h11.34v46.05zM2255.83 877.34c0 4.38.43 7.49 1.3 9.34.87 1.86 2.29 2.78 4.26 2.78s4.77-.47 8.38-1.41l1.93 10.45c-3.9 1.43-7.84 2.15-11.79 2.15-5.93 0-10.25-1.97-12.94-5.9-2.69-3.93-4.04-9.79-4.04-17.58 0-7.78 1.41-13.74 4.23-17.87 2.82-4.13 7.41-6.19 13.79-6.19 3.76 0 7.34.79 10.75 2.37l-2 11.49c-3.86-1.29-6.55-1.93-8.08-1.93-2.18 0-3.68.95-4.52 2.85-.85 1.94-1.27 5.08-1.27 9.45zM2299.72 899.92h-24.92v-46.05h25.66l-.74 11.34h-12.24v6.9h10.6v9.79h-10.6v7.64h12.98l-.74 10.38z"/></g></g></svg>